<?xml version="1.0" encoding="utf-8"?>
<!-- Generator: Adobe Illustrator 28.2.0, SVG Export Plug-In . SVG Version: 6.00 Build 0)  -->
<svg version="1.1" xmlns="http://www.w3.org/2000/svg" xmlns:xlink="http://www.w3.org/1999/xlink" x="0px" y="0px"
	 viewBox="0 0 1280 1024" enable-background="new 0 0 1280 1024" xml:space="preserve">
<g id="Layer_2">
	<g>
		<rect x="0" fill="#E5D3BD" width="1280" height="543"/>
	</g>
	<rect x="283" y="187" opacity="0.36" fill="#EF9D9C" width="916" height="667"/>
	<rect y="51" fill="#FFFFFF" width="1280" height="79"/>
	<rect x="691" y="520" fill="#FFFFFF" width="469" height="272"/>
</g>
<g id="Layer_1">
	<g>
		<g opacity="0.18">
			<path fill="#666766" d="M180.75,315.75l0.34-5.47c8.88,0,13.77-3.29,14.68-9.86l11.47-89.14c0-7.31-4.44-10.96-13.33-10.96
				l0.67-5.47h43.86l-0.67,5.47c-9.22,0-14.45,4.63-15.69,13.88l-11.47,86.21c0,0.25-0.03,0.46-0.08,0.64
				c-0.06,0.18-0.08,0.4-0.08,0.64c0,4.26,3.04,6.39,9.11,6.39h6.92c4.61,0,8.6-0.21,11.98-0.64c3.37-0.42,6.47-1.61,9.28-3.56
				c2.81-1.94,5.42-4.98,7.84-9.12c2.42-4.13,5.03-9.91,7.84-17.32l4.05,0.73L258,315.75H180.75z"/>
			<path fill="#666766" d="M266.47,315.75l0.47-3.83c6.61,0,10.35-2.94,11.22-8.82l7.67-59.45c0-2.9-0.79-5.07-2.36-6.52
				c-1.58-1.45-3.86-2.17-6.85-2.17l0.47-3.83h30.7l-0.47,3.83c-6.53,0-10.27,3.75-11.22,11.25l-7.56,56.9
				c-0.08,0.26-0.12,0.53-0.12,0.83c0,0.3,0,0.57,0,0.83c0,4.77,3.07,7.16,9.21,7.16l-0.35,3.83H266.47z"/>
			<path fill="#666766" d="M367.3,317.15l-37.67-71.86l-6.61,51.44c-0.24,1.7-0.35,3.15-0.35,4.34c0,7.23,3.11,10.85,9.33,10.85
				l-0.35,3.83h-25.62l0.47-3.83c5.98,0,9.64-5.07,10.98-15.22l7.32-56.39c0-1.79-0.73-3.13-2.18-4.03
				c-1.46-0.89-4.04-1.34-7.73-1.34l0.59-3.83h19.36l33.3,63.7l6.02-45.79c0.24-1.36,0.35-2.68,0.35-3.96
				c0-6.74-3.11-10.11-9.33-10.11l0.47-3.83h25.5l-0.59,3.83c-6.53,0-10.39,4.69-11.57,14.06l-8.86,67.25L367.3,317.15z"/>
			<path fill="#666766" d="M387.14,315.75l0.47-3.83c2.83,0,5.21-0.7,7.14-2.11c1.93-1.41,3.09-3.47,3.48-6.2l7.79-60.22
				c0-5.62-3.07-8.44-9.21-8.44l0.47-3.83h55.85l-2.36,23.87l-3.31,0.51c-0.08-4.68-0.59-8.3-1.54-10.85
				c-0.94-2.55-2.26-4.42-3.96-5.62c-1.69-1.19-3.7-1.89-6.02-2.11c-2.32-0.21-4.82-0.32-7.5-0.32h-2.83c-2.99,0-5.16,0.47-6.49,1.4
				c-1.34,0.94-2.13,2.38-2.36,4.34l-3.07,22.85c0,0.17-0.02,0.34-0.06,0.51c-0.04,0.17-0.06,0.34-0.06,0.51
				c0,1.87,0.71,2.81,2.13,2.81h3.66c1.81,0,3.48-0.11,5.02-0.32c1.53-0.21,2.95-0.77,4.25-1.66s2.44-2.25,3.42-4.08
				c0.98-1.83,1.79-4.32,2.42-7.47h4.01l-4.37,33.06h-3.9v-3.06c0-2.38-0.22-4.3-0.65-5.74c-0.43-1.45-1.12-2.55-2.07-3.32
				c-0.94-0.77-2.15-1.28-3.6-1.53c-1.46-0.26-3.21-0.38-5.25-0.38h-1.18c-3.39,0-5.24,1.4-5.55,4.21l-3.19,24.38
				c-0.08,0.34-0.12,0.77-0.12,1.28c0,4,2.6,6,7.79,6h3.19c4.49,0,8.15-0.4,10.98-1.21c2.83-0.81,5.21-2.08,7.14-3.83
				c1.93-1.74,3.56-3.94,4.9-6.57c1.34-2.64,2.79-5.74,4.37-9.32l2.72,1.02l-6.02,25.27H387.14z"/>
			<path fill="#666766" d="M463.89,315.75l0.35-3.83c3.46,0,6.32-0.98,8.56-2.94c2.24-1.96,3.64-4.89,4.19-8.81l7.91-58.84
				c0-1.62-0.32-2.81-0.94-3.57c-0.63-0.77-1.89-1.15-3.78-1.15c-9.21,0-16.1,7.28-20.66,21.83l-3.07-1.02l6.38-27.19
				c1.57,0.25,3.09,0.47,4.55,0.64c1.46,0.17,2.85,0.25,4.19,0.25h40.85c1.49,0,3.05-0.08,4.66-0.25c1.61-0.17,3.25-0.38,4.9-0.64
				l-3.54,26.68l-3.07,0.51c0.08-0.59,0.12-1.17,0.12-1.72c0-0.55,0-1.08,0-1.6c0-11.4-4.8-17.1-14.41-17.1
				c-3.46,0-5.39,1.45-5.79,4.34l-7.67,58.84c-0.08,0.43-0.14,0.85-0.18,1.28c-0.04,0.43-0.06,0.85-0.06,1.28
				c0,6.13,3.34,9.19,10.04,9.19l-0.35,3.83H463.89z"/>
			<path fill="#666766" d="M547.37,315.75l0.24-3.83c1.02-0.17,2.1-0.34,3.25-0.51c1.14-0.17,2.2-0.38,3.19-0.64
				c0.98-0.26,1.79-0.57,2.42-0.96c0.63-0.38,0.94-0.83,0.94-1.34c0-0.42-0.02-0.89-0.06-1.4c-0.04-0.51-0.14-1.32-0.3-2.43
				l-2.6-15.7c-0.24-1.1-0.98-1.93-2.24-2.49c-1.26-0.55-2.56-0.83-3.9-0.83h-15.7c-2.76,0-4.57,1.1-5.43,3.3l-5.43,13.21
				c-0.16,0.51-0.34,1.12-0.53,1.84c-0.2,0.72-0.29,1.5-0.29,2.35c0,3.3,2.87,4.95,8.62,4.95l-0.47,4.47h-23.85l0.71-4.47
				c2.05-0.17,3.84-1.02,5.37-2.55c1.53-1.53,3.01-3.74,4.43-6.63l35.19-72.9l2.95,1.53l15.23,75.7c0.31,2.13,1.06,3.44,2.24,3.95
				c1.18,0.51,3.03,0.98,5.55,1.4l-0.35,3.96H547.37z M546.9,247.2l-12.75,26.81c-0.63,1.11-1.08,2.04-1.36,2.81
				c-0.28,0.77-0.41,1.4-0.41,1.91c0,1.02,1.22,1.53,3.66,1.53h13.34c2.28,0,3.42-0.59,3.42-1.79c0-0.42-0.06-0.96-0.18-1.6
				c-0.12-0.64-0.26-1.42-0.41-2.36L546.9,247.2z"/>
			<path fill="#666766" d="M175.52,499.29l-0.17-4.19l71.01-107.59c-2.14-0.48-4.27-0.82-6.41-1c-2.14-0.18-4.22-0.27-6.24-0.27
				h-6.92c-5.06,0-9.28,0.49-12.65,1.46c-3.37,0.97-6.27,2.52-8.69,4.65c-2.42,2.13-4.53,4.92-6.33,8.39
				c-1.8,3.46-3.6,7.63-5.4,12.49h-4.55l7.59-36.11c1.91,0.36,3.8,0.67,5.65,0.91c1.86,0.25,3.74,0.36,5.65,0.36h57.86l-0.67,5.65
				l-70.34,106.86c1.69,0.49,3.37,0.82,5.06,1c1.69,0.18,3.26,0.27,4.72,0.27h11.64c5.17,0,9.75-1.15,13.75-3.46
				c3.99-2.31,7.48-5.11,10.46-8.39c2.98-3.28,5.45-6.68,7.42-10.21c1.97-3.52,3.57-6.56,4.81-9.12l4.55,1.46l-8.77,36.83H175.52z"
				/>
			<path fill="#666766" d="M259.55,499.29l0.47-3.83c6.61,0,10.35-2.94,11.22-8.82l7.67-59.46c0-2.9-0.79-5.07-2.36-6.52
				c-1.58-1.45-3.86-2.17-6.85-2.17l0.47-3.83h30.7l-0.47,3.83c-6.53,0-10.27,3.75-11.22,11.25l-7.56,56.9
				c-0.08,0.25-0.12,0.53-0.12,0.83c0,0.3,0,0.57,0,0.83c0,4.77,3.07,7.16,9.21,7.16l-0.35,3.83H259.55z"/>
			<path fill="#666766" d="M348.7,454.11c5.04,0.94,9.05,2.89,12.04,5.87c2.99,2.98,4.49,6.89,4.49,11.74
				c0,5.28-0.83,9.7-2.48,13.28c-1.65,3.57-3.84,6.45-6.55,8.62c-2.72,2.17-5.77,3.75-9.15,4.72c-3.39,0.98-6.81,1.47-10.27,1.47
				c-2.99,0-5.89-0.02-8.68-0.06c-2.8-0.04-5.65-0.11-8.56-0.19c-2.91-0.08-5.89-0.15-8.91-0.19c-3.03-0.04-6.28-0.06-9.74-0.06
				l0.47-3.83c6.61,0,10.27-2.38,10.98-7.15l8.03-62.42c0-4.85-3.11-7.28-9.33-7.28l0.47-3.96h30.7c3.38,0,6.55,0.3,9.5,0.89
				c2.95,0.6,5.49,1.58,7.62,2.94c2.12,1.36,3.8,3.09,5.02,5.17c1.22,2.09,1.83,4.66,1.83,7.72c0,3.32-0.45,6.19-1.36,8.62
				c-0.91,2.43-2.17,4.51-3.78,6.25c-1.61,1.75-3.46,3.19-5.55,4.34c-2.09,1.15-4.31,2.15-6.67,3L348.7,454.11z M334.17,494.95
				c2.6,0,5.08-0.4,7.44-1.21c2.36-0.81,4.45-2.13,6.26-3.96c1.81-1.83,3.27-4.21,4.37-7.15c1.1-2.94,1.65-6.49,1.65-10.66
				c0-2.98-0.47-5.4-1.42-7.28c-0.94-1.87-2.28-3.34-4.01-4.4c-1.73-1.06-3.86-1.79-6.38-2.17c-2.52-0.38-5.31-0.57-8.38-0.57h-3.78
				c-2.05,0-3.31,1.62-3.78,4.85l-3.54,27.57c0,0.17-0.02,0.28-0.06,0.32c-0.04,0.04-0.06,0.15-0.06,0.32
				c0,2.89,2.36,4.34,7.08,4.34H334.17z M339.25,419.64c-4.88,0-7.56,1.58-8.03,4.72L327.92,449c0,1.19,0.18,2.09,0.53,2.68
				c0.35,0.6,1.08,0.89,2.18,0.89c5.12,0,9.29-0.38,12.52-1.15c3.23-0.77,5.77-1.98,7.62-3.64c1.85-1.66,3.11-3.81,3.78-6.45
				c0.67-2.64,1-5.83,1-9.57c0-8.08-4.01-12.13-12.04-12.13H339.25z"/>
			<path fill="#666766" d="M372.9,499.29l0.47-3.83c2.83,0,5.21-0.7,7.14-2.11c1.93-1.41,3.09-3.47,3.48-6.2l7.79-60.22
				c0-5.62-3.07-8.44-9.21-8.44l0.47-3.83h55.85l-2.36,23.87l-3.31,0.51c-0.08-4.68-0.59-8.3-1.54-10.85
				c-0.94-2.55-2.26-4.42-3.96-5.62c-1.69-1.19-3.7-1.89-6.02-2.11c-2.32-0.21-4.82-0.32-7.5-0.32h-2.83c-2.99,0-5.16,0.47-6.49,1.4
				c-1.34,0.94-2.13,2.38-2.36,4.34l-3.07,22.85c0,0.17-0.02,0.34-0.06,0.51c-0.04,0.17-0.06,0.34-0.06,0.51
				c0,1.87,0.71,2.81,2.13,2.81h3.66c1.81,0,3.48-0.11,5.02-0.32c1.53-0.21,2.95-0.77,4.25-1.66s2.44-2.25,3.42-4.08
				c0.98-1.83,1.79-4.32,2.42-7.47h4.01l-4.37,33.06H416v-3.06c0-2.38-0.22-4.3-0.65-5.74c-0.43-1.45-1.12-2.55-2.07-3.32
				c-0.94-0.77-2.15-1.28-3.6-1.53c-1.46-0.26-3.21-0.38-5.25-0.38h-1.18c-3.39,0-5.24,1.4-5.55,4.21l-3.19,24.38
				c-0.08,0.34-0.12,0.77-0.12,1.28c0,4,2.6,6,7.79,6h3.19c4.49,0,8.15-0.4,10.98-1.21c2.83-0.81,5.21-2.08,7.14-3.83
				c1.93-1.74,3.56-3.93,4.9-6.57c1.34-2.64,2.79-5.74,4.37-9.32l2.72,1.02l-6.02,25.27H372.9z"/>
			<path fill="#666766" d="M508.92,488.19c-0.08,1.02-0.41,2.26-1,3.7c-0.59,1.45-1.36,2.81-2.3,4.08
				c-0.94,1.28-2.07,2.38-3.37,3.32s-2.7,1.4-4.19,1.4c-4.25,0-7.3-0.87-9.15-2.62c-1.85-1.74-3.05-4.57-3.6-8.49
				c-0.47-3.23-0.87-6.7-1.18-10.4c-0.32-3.7-0.85-7.1-1.59-10.21c-0.75-3.11-1.83-5.7-3.25-7.79c-1.42-2.08-3.39-3.13-5.9-3.13
				h-3.31c-1.97,0-3.11,0.47-3.42,1.4l-3.78,27.7c-0.08,0.34-0.12,0.81-0.12,1.4c0,4.6,2.95,6.89,8.86,6.89l-0.35,3.83h-29.87
				l0.47-3.83c2.6,0,4.84-0.7,6.73-2.11s3.03-3.47,3.42-6.19l8.15-61.91c0-4.42-3.03-6.64-9.09-6.64l0.47-3.96h13.22
				c2.36,0,4.37-0.02,6.02-0.06c1.65-0.04,3.25-0.11,4.78-0.19c1.54-0.08,3.15-0.15,4.84-0.19c1.69-0.04,3.8-0.06,6.32-0.06
				c2.83,0,5.43,0.45,7.79,1.34c2.36,0.89,4.41,2.15,6.14,3.77c1.73,1.62,3.07,3.53,4.01,5.74c0.94,2.21,1.42,4.6,1.42,7.15
				c0,3.4-0.57,6.43-1.71,9.06c-1.14,2.64-2.68,4.96-4.6,6.96c-1.93,2-4.21,3.64-6.85,4.91c-2.64,1.28-5.45,2.3-8.44,3.06v0.38
				c3.31,1.96,5.84,4.4,7.62,7.34c1.77,2.94,2.85,5.77,3.25,8.49c0.24,1.7,0.47,3.75,0.71,6.13c0.24,2.38,0.61,4.64,1.12,6.76
				c0.51,2.13,1.16,3.94,1.95,5.42c0.79,1.49,1.85,2.23,3.19,2.23c1.57,0,3.03-1.92,4.37-5.74L508.92,488.19z M475.51,453.09
				c2.13,0,4.31-0.21,6.55-0.64c2.24-0.42,4.31-1.36,6.2-2.81c1.89-1.45,3.42-3.49,4.6-6.13c1.18-2.64,1.77-6.21,1.77-10.72
				c0-2.55-0.41-4.68-1.24-6.38c-0.83-1.7-1.89-3.06-3.19-4.08c-1.3-1.02-2.77-1.72-4.43-2.11c-1.65-0.38-3.27-0.57-4.84-0.57h-5.08
				c-1.73,0-2.91,0.6-3.54,1.79c-0.63,1.19-1.1,2.98-1.42,5.36l-3.07,24.38c0,1.28,0.67,1.91,2.01,1.91H475.51z"/>
			<path fill="#666766" d="M570.91,500.7c-1.42-1.45-2.7-2.72-3.84-3.83c-1.14-1.11-2.11-2.08-2.89-2.94
				c-2.76,2.21-5.89,3.98-9.39,5.3c-3.5,1.32-7.03,1.98-10.57,1.98c-4.33,0-8.23-0.87-11.69-2.62c-3.46-1.74-6.42-4.19-8.86-7.34
				c-2.44-3.15-4.31-6.83-5.61-11.04s-1.95-8.83-1.95-13.85c0-6.47,1.06-12.91,3.19-19.34c2.13-6.42,5.06-12.17,8.8-17.23
				c3.74-5.06,8.09-9.17,13.05-12.32c4.96-3.15,10.27-4.72,15.94-4.72c2.99,0,5.8,0.64,8.44,1.91c2.64,1.28,5.17,2.77,7.62,4.47
				c2.83-3.06,5.63-4.85,8.38-5.36c0.71,3.32,1.06,7.28,1.06,11.87c0,2.47-0.12,5.15-0.35,8.04c-0.24,2.89-0.55,5.96-0.94,9.19
				h-3.66c-0.24-3.74-0.85-7.15-1.83-10.21c-0.99-3.06-2.32-5.7-4.01-7.91c-1.69-2.21-3.72-3.94-6.08-5.17
				c-2.36-1.23-5.08-1.85-8.15-1.85c-4.96,0-9.27,1.49-12.93,4.47c-3.66,2.98-6.69,6.83-9.09,11.55c-2.4,4.72-4.21,9.98-5.43,15.76
				c-1.22,5.79-1.83,11.53-1.83,17.23c0,4.17,0.37,8.04,1.12,11.62c0.75,3.57,1.91,6.66,3.48,9.25c1.57,2.6,3.54,4.64,5.9,6.13
				c2.36,1.49,5.2,2.23,8.5,2.23c2.44,0,4.82-0.38,7.14-1.15c2.32-0.77,4.39-2,6.2-3.7c1.81-1.7,3.29-3.91,4.43-6.64
				c1.14-2.72,1.71-6,1.71-9.83c0-6.64-3.11-9.96-9.33-9.96l0.47-3.83h30.46l-0.59,3.83c-3.54,0-6.1,0.83-7.68,2.49
				c-1.58,1.66-2.56,4.06-2.95,7.21l-3.42,26.29H570.91z"/>
			<path fill="#666766" d="M624.99,499.29l0.24-3.83c1.02-0.17,2.1-0.34,3.25-0.51c1.14-0.17,2.2-0.38,3.19-0.64
				c0.98-0.25,1.79-0.57,2.42-0.96c0.63-0.38,0.94-0.83,0.94-1.34c0-0.42-0.02-0.89-0.06-1.4c-0.04-0.51-0.14-1.32-0.3-2.43
				l-2.6-15.7c-0.24-1.1-0.98-1.93-2.24-2.49c-1.26-0.55-2.56-0.83-3.9-0.83h-15.7c-2.76,0-4.57,1.1-5.43,3.3l-5.43,13.21
				c-0.16,0.51-0.34,1.12-0.53,1.84c-0.2,0.72-0.29,1.5-0.29,2.35c0,3.3,2.87,4.95,8.62,4.95l-0.47,4.47h-23.85l0.71-4.47
				c2.05-0.17,3.84-1.02,5.37-2.55c1.53-1.53,3.01-3.74,4.43-6.63l35.19-72.9l2.95,1.53l15.23,75.7c0.31,2.13,1.06,3.44,2.24,3.95
				c1.18,0.51,3.03,0.98,5.55,1.4l-0.35,3.96H624.99z M624.52,430.75l-12.75,26.81c-0.63,1.11-1.08,2.04-1.36,2.81
				c-0.28,0.77-0.41,1.4-0.41,1.91c0,1.02,1.22,1.53,3.66,1.53H627c2.28,0,3.42-0.59,3.42-1.79c0-0.42-0.06-0.96-0.18-1.6
				c-0.12-0.64-0.26-1.42-0.41-2.36L624.52,430.75z"/>
		</g>
		<g>
			<path fill="#F2F2F3" d="M189.75,315.75l0.34-5.47c8.88,0,13.77-3.29,14.68-9.86l11.47-89.14c0-7.31-4.44-10.96-13.33-10.96
				l0.67-5.47h43.86l-0.67,5.47c-9.22,0-14.45,4.63-15.69,13.88l-11.47,86.21c0,0.25-0.03,0.46-0.08,0.64
				c-0.06,0.18-0.08,0.4-0.08,0.64c0,4.26,3.04,6.39,9.11,6.39h6.92c4.61,0,8.6-0.21,11.98-0.64c3.37-0.42,6.47-1.61,9.28-3.56
				c2.81-1.94,5.42-4.98,7.84-9.12c2.42-4.13,5.03-9.91,7.84-17.32l4.05,0.73L267,315.75H189.75z"/>
			<path fill="#F2F2F3" d="M275.47,315.75l0.47-3.83c6.61,0,10.35-2.94,11.22-8.82l7.67-59.45c0-2.9-0.79-5.07-2.36-6.52
				c-1.58-1.45-3.86-2.17-6.85-2.17l0.47-3.83h30.7l-0.47,3.83c-6.53,0-10.27,3.75-11.22,11.25l-7.56,56.9
				c-0.08,0.26-0.12,0.53-0.12,0.83c0,0.3,0,0.57,0,0.83c0,4.77,3.07,7.16,9.21,7.16l-0.35,3.83H275.47z"/>
			<path fill="#F2F2F3" d="M376.3,317.15l-37.67-71.86l-6.61,51.44c-0.24,1.7-0.35,3.15-0.35,4.34c0,7.23,3.11,10.85,9.33,10.85
				l-0.35,3.83h-25.62l0.47-3.83c5.98,0,9.64-5.07,10.98-15.22l7.32-56.39c0-1.79-0.73-3.13-2.18-4.03
				c-1.46-0.89-4.04-1.34-7.73-1.34l0.59-3.83h19.36l33.3,63.7l6.02-45.79c0.24-1.36,0.35-2.68,0.35-3.96
				c0-6.74-3.11-10.11-9.33-10.11l0.47-3.83h25.5l-0.59,3.83c-6.53,0-10.39,4.69-11.57,14.06l-8.86,67.25L376.3,317.15z"/>
			<path fill="#F2F2F3" d="M396.14,315.75l0.47-3.83c2.83,0,5.21-0.7,7.14-2.11c1.93-1.41,3.09-3.47,3.48-6.2l7.79-60.22
				c0-5.62-3.07-8.44-9.21-8.44l0.47-3.83h55.85l-2.36,23.87l-3.31,0.51c-0.08-4.68-0.59-8.3-1.54-10.85
				c-0.94-2.55-2.26-4.42-3.96-5.62c-1.69-1.19-3.7-1.89-6.02-2.11c-2.32-0.21-4.82-0.32-7.5-0.32h-2.83c-2.99,0-5.16,0.47-6.49,1.4
				c-1.34,0.94-2.13,2.38-2.36,4.34l-3.07,22.85c0,0.17-0.02,0.34-0.06,0.51c-0.04,0.17-0.06,0.34-0.06,0.51
				c0,1.87,0.71,2.81,2.13,2.81h3.66c1.81,0,3.48-0.11,5.02-0.32c1.53-0.21,2.95-0.77,4.25-1.66s2.44-2.25,3.42-4.08
				c0.98-1.83,1.79-4.32,2.42-7.47h4.01l-4.37,33.06h-3.9v-3.06c0-2.38-0.22-4.3-0.65-5.74c-0.43-1.45-1.12-2.55-2.07-3.32
				c-0.94-0.77-2.15-1.28-3.6-1.53c-1.46-0.26-3.21-0.38-5.25-0.38h-1.18c-3.39,0-5.24,1.4-5.55,4.21l-3.19,24.38
				c-0.08,0.34-0.12,0.77-0.12,1.28c0,4,2.6,6,7.79,6h3.19c4.49,0,8.15-0.4,10.98-1.21c2.83-0.81,5.21-2.08,7.14-3.83
				c1.93-1.74,3.56-3.94,4.9-6.57c1.34-2.64,2.79-5.74,4.37-9.32l2.72,1.02l-6.02,25.27H396.14z"/>
			<path fill="#F2F2F3" d="M472.89,315.75l0.35-3.83c3.46,0,6.32-0.98,8.56-2.94c2.24-1.96,3.64-4.89,4.19-8.81l7.91-58.84
				c0-1.62-0.32-2.81-0.94-3.57c-0.63-0.77-1.89-1.15-3.78-1.15c-9.21,0-16.1,7.28-20.66,21.83l-3.07-1.02l6.38-27.19
				c1.57,0.25,3.09,0.47,4.55,0.64c1.46,0.17,2.85,0.25,4.19,0.25h40.85c1.49,0,3.05-0.08,4.66-0.25c1.61-0.17,3.25-0.38,4.9-0.64
				l-3.54,26.68l-3.07,0.51c0.08-0.59,0.12-1.17,0.12-1.72c0-0.55,0-1.08,0-1.6c0-11.4-4.8-17.1-14.41-17.1
				c-3.46,0-5.39,1.45-5.79,4.34l-7.67,58.84c-0.08,0.43-0.14,0.85-0.18,1.28c-0.04,0.43-0.06,0.85-0.06,1.28
				c0,6.13,3.34,9.19,10.04,9.19l-0.35,3.83H472.89z"/>
			<path fill="#F2F2F3" d="M556.37,315.75l0.24-3.83c1.02-0.17,2.1-0.34,3.25-0.51c1.14-0.17,2.2-0.38,3.19-0.64
				c0.98-0.26,1.79-0.57,2.42-0.96c0.63-0.38,0.94-0.83,0.94-1.34c0-0.42-0.02-0.89-0.06-1.4c-0.04-0.51-0.14-1.32-0.3-2.43
				l-2.6-15.7c-0.24-1.1-0.98-1.93-2.24-2.49c-1.26-0.55-2.56-0.83-3.9-0.83h-15.7c-2.76,0-4.57,1.1-5.43,3.3l-5.43,13.21
				c-0.16,0.51-0.34,1.12-0.53,1.84c-0.2,0.72-0.29,1.5-0.29,2.35c0,3.3,2.87,4.95,8.62,4.95l-0.47,4.47h-23.85l0.71-4.47
				c2.05-0.17,3.84-1.02,5.37-2.55c1.53-1.53,3.01-3.74,4.43-6.63l35.19-72.9l2.95,1.53l15.23,75.7c0.31,2.13,1.06,3.44,2.24,3.95
				c1.18,0.51,3.03,0.98,5.55,1.4l-0.35,3.96H556.37z M555.9,247.2l-12.75,26.81c-0.63,1.11-1.08,2.04-1.36,2.81
				c-0.28,0.77-0.41,1.4-0.41,1.91c0,1.02,1.22,1.53,3.66,1.53h13.34c2.28,0,3.42-0.59,3.42-1.79c0-0.42-0.06-0.96-0.18-1.6
				c-0.12-0.64-0.26-1.42-0.41-2.36L555.9,247.2z"/>
			<path fill="#F2F2F3" d="M184.52,499.29l-0.17-4.19l71.01-107.59c-2.14-0.48-4.27-0.82-6.41-1c-2.14-0.18-4.22-0.27-6.24-0.27
				h-6.92c-5.06,0-9.28,0.49-12.65,1.46c-3.37,0.97-6.27,2.52-8.69,4.65c-2.42,2.13-4.53,4.92-6.33,8.39
				c-1.8,3.46-3.6,7.63-5.4,12.49h-4.55l7.59-36.11c1.91,0.36,3.8,0.67,5.65,0.91c1.86,0.25,3.74,0.36,5.65,0.36h57.86l-0.67,5.65
				l-70.34,106.86c1.69,0.49,3.37,0.82,5.06,1c1.69,0.18,3.26,0.27,4.72,0.27h11.64c5.17,0,9.75-1.15,13.75-3.46
				c3.99-2.31,7.48-5.11,10.46-8.39c2.98-3.28,5.45-6.68,7.42-10.21c1.97-3.52,3.57-6.56,4.81-9.12l4.55,1.46l-8.77,36.83H184.52z"
				/>
			<path fill="#F2F2F3" d="M268.55,499.29l0.47-3.83c6.61,0,10.35-2.94,11.22-8.82l7.67-59.46c0-2.9-0.79-5.07-2.36-6.52
				c-1.58-1.45-3.86-2.17-6.85-2.17l0.47-3.83h30.7l-0.47,3.83c-6.53,0-10.27,3.75-11.22,11.25l-7.56,56.9
				c-0.08,0.25-0.12,0.53-0.12,0.83c0,0.3,0,0.57,0,0.83c0,4.77,3.07,7.16,9.21,7.16l-0.35,3.83H268.55z"/>
			<path fill="#F2F2F3" d="M357.7,454.11c5.04,0.94,9.05,2.89,12.04,5.87c2.99,2.98,4.49,6.89,4.49,11.74
				c0,5.28-0.83,9.7-2.48,13.28c-1.65,3.57-3.84,6.45-6.55,8.62c-2.72,2.17-5.77,3.75-9.15,4.72c-3.39,0.98-6.81,1.47-10.27,1.47
				c-2.99,0-5.89-0.02-8.68-0.06c-2.8-0.04-5.65-0.11-8.56-0.19c-2.91-0.08-5.89-0.15-8.91-0.19c-3.03-0.04-6.28-0.06-9.74-0.06
				l0.47-3.83c6.61,0,10.27-2.38,10.98-7.15l8.03-62.42c0-4.85-3.11-7.28-9.33-7.28l0.47-3.96h30.7c3.38,0,6.55,0.3,9.5,0.89
				c2.95,0.6,5.49,1.58,7.62,2.94c2.12,1.36,3.8,3.09,5.02,5.17c1.22,2.09,1.83,4.66,1.83,7.72c0,3.32-0.45,6.19-1.36,8.62
				c-0.91,2.43-2.17,4.51-3.78,6.25c-1.61,1.75-3.46,3.19-5.55,4.34c-2.09,1.15-4.31,2.15-6.67,3L357.7,454.11z M343.17,494.95
				c2.6,0,5.08-0.4,7.44-1.21c2.36-0.81,4.45-2.13,6.26-3.96c1.81-1.83,3.27-4.21,4.37-7.15c1.1-2.94,1.65-6.49,1.65-10.66
				c0-2.98-0.47-5.4-1.42-7.28c-0.94-1.87-2.28-3.34-4.01-4.4c-1.73-1.06-3.86-1.79-6.38-2.17c-2.52-0.38-5.31-0.57-8.38-0.57h-3.78
				c-2.05,0-3.31,1.62-3.78,4.85l-3.54,27.57c0,0.17-0.02,0.28-0.06,0.32c-0.04,0.04-0.06,0.15-0.06,0.32
				c0,2.89,2.36,4.34,7.08,4.34H343.17z M348.25,419.64c-4.88,0-7.56,1.58-8.03,4.72L336.92,449c0,1.19,0.18,2.09,0.53,2.68
				c0.35,0.6,1.08,0.89,2.18,0.89c5.12,0,9.29-0.38,12.52-1.15c3.23-0.77,5.77-1.98,7.62-3.64c1.85-1.66,3.11-3.81,3.78-6.45
				c0.67-2.64,1-5.83,1-9.57c0-8.08-4.01-12.13-12.04-12.13H348.25z"/>
			<path fill="#F2F2F3" d="M381.9,499.29l0.47-3.83c2.83,0,5.21-0.7,7.14-2.11c1.93-1.41,3.09-3.47,3.48-6.2l7.79-60.22
				c0-5.62-3.07-8.44-9.21-8.44l0.47-3.83h55.85l-2.36,23.87l-3.31,0.51c-0.08-4.68-0.59-8.3-1.54-10.85
				c-0.94-2.55-2.26-4.42-3.96-5.62c-1.69-1.19-3.7-1.89-6.02-2.11c-2.32-0.21-4.82-0.32-7.5-0.32h-2.83c-2.99,0-5.16,0.47-6.49,1.4
				c-1.34,0.94-2.13,2.38-2.36,4.34l-3.07,22.85c0,0.17-0.02,0.34-0.06,0.51c-0.04,0.17-0.06,0.34-0.06,0.51
				c0,1.87,0.71,2.81,2.13,2.81h3.66c1.81,0,3.48-0.11,5.02-0.32c1.53-0.21,2.95-0.77,4.25-1.66s2.44-2.25,3.42-4.08
				c0.98-1.83,1.79-4.32,2.42-7.47h4.01l-4.37,33.06H425v-3.06c0-2.38-0.22-4.3-0.65-5.74c-0.43-1.45-1.12-2.55-2.07-3.32
				c-0.94-0.77-2.15-1.28-3.6-1.53c-1.46-0.26-3.21-0.38-5.25-0.38h-1.18c-3.39,0-5.24,1.4-5.55,4.21l-3.19,24.38
				c-0.08,0.34-0.12,0.77-0.12,1.28c0,4,2.6,6,7.79,6h3.19c4.49,0,8.15-0.4,10.98-1.21c2.83-0.81,5.21-2.08,7.14-3.83
				c1.93-1.74,3.56-3.93,4.9-6.57c1.34-2.64,2.79-5.74,4.37-9.32l2.72,1.02l-6.02,25.27H381.9z"/>
			<path fill="#F2F2F3" d="M517.92,488.19c-0.08,1.02-0.41,2.26-1,3.7c-0.59,1.45-1.36,2.81-2.3,4.08
				c-0.94,1.28-2.07,2.38-3.37,3.32s-2.7,1.4-4.19,1.4c-4.25,0-7.3-0.87-9.15-2.62c-1.85-1.74-3.05-4.57-3.6-8.49
				c-0.47-3.23-0.87-6.7-1.18-10.4c-0.32-3.7-0.85-7.1-1.59-10.21c-0.75-3.11-1.83-5.7-3.25-7.79c-1.42-2.08-3.39-3.13-5.9-3.13
				h-3.31c-1.97,0-3.11,0.47-3.42,1.4l-3.78,27.7c-0.08,0.34-0.12,0.81-0.12,1.4c0,4.6,2.95,6.89,8.86,6.89l-0.35,3.83h-29.87
				l0.47-3.83c2.6,0,4.84-0.7,6.73-2.11s3.03-3.47,3.42-6.19l8.15-61.91c0-4.42-3.03-6.64-9.09-6.64l0.47-3.96h13.22
				c2.36,0,4.37-0.02,6.02-0.06c1.65-0.04,3.25-0.11,4.78-0.19c1.54-0.08,3.15-0.15,4.84-0.19c1.69-0.04,3.8-0.06,6.32-0.06
				c2.83,0,5.43,0.45,7.79,1.34c2.36,0.89,4.41,2.15,6.14,3.77c1.73,1.62,3.07,3.53,4.01,5.74c0.94,2.21,1.42,4.6,1.42,7.15
				c0,3.4-0.57,6.43-1.71,9.06c-1.14,2.64-2.68,4.96-4.6,6.96c-1.93,2-4.21,3.64-6.85,4.91c-2.64,1.28-5.45,2.3-8.44,3.06v0.38
				c3.31,1.96,5.84,4.4,7.62,7.34c1.77,2.94,2.85,5.77,3.25,8.49c0.24,1.7,0.47,3.75,0.71,6.13c0.24,2.38,0.61,4.64,1.12,6.76
				c0.51,2.13,1.16,3.94,1.95,5.42c0.79,1.49,1.85,2.23,3.19,2.23c1.57,0,3.03-1.92,4.37-5.74L517.92,488.19z M484.51,453.09
				c2.13,0,4.31-0.21,6.55-0.64c2.24-0.42,4.31-1.36,6.2-2.81c1.89-1.45,3.42-3.49,4.6-6.13c1.18-2.64,1.77-6.21,1.77-10.72
				c0-2.55-0.41-4.68-1.24-6.38c-0.83-1.7-1.89-3.06-3.19-4.08c-1.3-1.02-2.77-1.72-4.43-2.11c-1.65-0.38-3.27-0.57-4.84-0.57h-5.08
				c-1.73,0-2.91,0.6-3.54,1.79c-0.63,1.19-1.1,2.98-1.42,5.36l-3.07,24.38c0,1.28,0.67,1.91,2.01,1.91H484.51z"/>
			<path fill="#F2F2F3" d="M579.91,500.7c-1.42-1.45-2.7-2.72-3.84-3.83c-1.14-1.11-2.11-2.08-2.89-2.94
				c-2.76,2.21-5.89,3.98-9.39,5.3c-3.5,1.32-7.03,1.98-10.57,1.98c-4.33,0-8.23-0.87-11.69-2.62c-3.46-1.74-6.42-4.19-8.86-7.34
				c-2.44-3.15-4.31-6.83-5.61-11.04s-1.95-8.83-1.95-13.85c0-6.47,1.06-12.91,3.19-19.34c2.13-6.42,5.06-12.17,8.8-17.23
				c3.74-5.06,8.09-9.17,13.05-12.32c4.96-3.15,10.27-4.72,15.94-4.72c2.99,0,5.8,0.64,8.44,1.91c2.64,1.28,5.17,2.77,7.62,4.47
				c2.83-3.06,5.63-4.85,8.38-5.36c0.71,3.32,1.06,7.28,1.06,11.87c0,2.47-0.12,5.15-0.35,8.04c-0.24,2.89-0.55,5.96-0.94,9.19
				h-3.66c-0.24-3.74-0.85-7.15-1.83-10.21c-0.99-3.06-2.32-5.7-4.01-7.91c-1.69-2.21-3.72-3.94-6.08-5.17
				c-2.36-1.23-5.08-1.85-8.15-1.85c-4.96,0-9.27,1.49-12.93,4.47c-3.66,2.98-6.69,6.83-9.09,11.55c-2.4,4.72-4.21,9.98-5.43,15.76
				c-1.22,5.79-1.83,11.53-1.83,17.23c0,4.17,0.37,8.04,1.12,11.62c0.75,3.57,1.91,6.66,3.48,9.25c1.57,2.6,3.54,4.64,5.9,6.13
				c2.36,1.49,5.2,2.23,8.5,2.23c2.44,0,4.82-0.38,7.14-1.15c2.32-0.77,4.39-2,6.2-3.7c1.81-1.7,3.29-3.91,4.43-6.64
				c1.14-2.72,1.71-6,1.71-9.83c0-6.64-3.11-9.96-9.33-9.96l0.47-3.83h30.46l-0.59,3.83c-3.54,0-6.1,0.83-7.68,2.49
				c-1.58,1.66-2.56,4.06-2.95,7.21l-3.42,26.29H579.91z"/>
			<path fill="#F2F2F3" d="M633.99,499.29l0.24-3.83c1.02-0.17,2.1-0.34,3.25-0.51c1.14-0.17,2.2-0.38,3.19-0.64
				c0.98-0.25,1.79-0.57,2.42-0.96c0.63-0.38,0.94-0.83,0.94-1.34c0-0.42-0.02-0.89-0.06-1.4c-0.04-0.51-0.14-1.32-0.29-2.43
				l-2.6-15.7c-0.24-1.1-0.98-1.93-2.24-2.49c-1.26-0.55-2.56-0.83-3.9-0.83h-15.7c-2.76,0-4.57,1.1-5.43,3.3l-5.43,13.21
				c-0.16,0.51-0.34,1.12-0.53,1.84c-0.2,0.72-0.29,1.5-0.29,2.35c0,3.3,2.87,4.95,8.62,4.95l-0.47,4.47h-23.85l0.71-4.47
				c2.05-0.17,3.84-1.02,5.37-2.55c1.53-1.53,3.01-3.74,4.43-6.63l35.19-72.9l2.95,1.53l15.23,75.7c0.31,2.13,1.06,3.44,2.24,3.95
				c1.18,0.51,3.03,0.98,5.55,1.4l-0.35,3.96H633.99z M633.52,430.75l-12.75,26.81c-0.63,1.11-1.08,2.04-1.36,2.81
				c-0.28,0.77-0.41,1.4-0.41,1.91c0,1.02,1.22,1.53,3.66,1.53H636c2.28,0,3.42-0.59,3.42-1.79c0-0.42-0.06-0.96-0.18-1.6
				c-0.12-0.64-0.26-1.42-0.41-2.36L633.52,430.75z"/>
		</g>
	</g>
	<g>
		<path fill="#4D4D4E" d="M1045.18,591.18c0,1.66-0.65,3.08-1.94,4.25s-2.85,1.75-4.66,1.75c-1.07,0-2.34-0.32-3.82-0.96
			c-0.4-0.17-0.69-0.26-0.89-0.26c-0.24,0-0.38,0.27-0.45,0.8c-0.02,0.28-0.15,0.42-0.38,0.42c-0.2,0-0.3-0.12-0.3-0.35
			c0-0.15,0.01-0.27,0.03-0.35c0.16-1.18,0.24-2.27,0.24-3.28c0-0.19-0.02-0.73-0.06-1.62c-0.02-0.12-0.03-0.27-0.03-0.46
			c0-0.29,0.12-0.44,0.36-0.44c0.2,0,0.33,0.23,0.42,0.7c0.51,3.48,2.18,5.21,5,5.21c1.2,0,2.14-0.33,2.8-1s0.99-1.61,0.99-2.83
			c0-1.08-0.32-2.01-0.96-2.77c-0.64-0.76-1.74-1.52-3.3-2.28c-1.88-0.91-3.18-1.79-3.91-2.64c-0.73-0.85-1.1-1.9-1.1-3.16
			c0-1.6,0.53-2.93,1.58-3.97c1.06-1.04,2.39-1.57,4.01-1.57c0.67,0,1.6,0.22,2.78,0.67c0.41,0.16,0.72,0.23,0.92,0.23
			c0.22,0,0.36-0.04,0.43-0.12s0.13-0.28,0.19-0.61c0.04-0.19,0.15-0.29,0.33-0.29c0.2,0,0.3,0.12,0.3,0.35
			c0,0.16-0.01,0.27-0.03,0.35c-0.06,0.46-0.09,1.03-0.09,1.68c0,0.93,0.05,1.66,0.15,2.2l0.03,0.46c0.02,0.21-0.07,0.32-0.27,0.32
			c-0.22,0-0.37-0.22-0.44-0.67c-0.22-1.14-0.73-2.09-1.54-2.86c-0.81-0.76-1.72-1.15-2.72-1.15c-0.99,0-1.77,0.31-2.35,0.93
			c-0.58,0.62-0.87,1.46-0.87,2.52c0,1.24,0.42,2.23,1.27,2.99c0.47,0.42,1.5,1.02,3.08,1.8c1.86,0.91,3.19,1.83,4,2.77
			S1045.18,589.99,1045.18,591.18z"/>
		<path fill="#4D4D4E" d="M1057.88,586.37c0,0.18-0.08,0.26-0.25,0.26s-0.28-0.18-0.35-0.53c-0.03-0.24-0.06-0.49-0.08-0.73
			c-0.1-0.49-0.26-0.9-0.48-1.24c-0.29-0.45-0.77-0.73-1.43-0.85c-0.43-0.08-0.78-0.11-1.04-0.1c-0.65,0.02-1.04,0.03-1.18,0.04
			v12.26c0,0.49,0.13,0.79,0.39,0.91c0.14,0.07,0.52,0.11,1.16,0.12c0.17,0.01,0.25,0.07,0.25,0.17c0,0.12-0.11,0.17-0.33,0.17
			c-0.11,0-0.21-0.01-0.29-0.02c-0.83-0.03-1.42-0.04-1.76-0.04c-0.46,0-0.88,0.01-1.29,0.03c-0.4,0.02-0.91,0.03-1.53,0.03
			c-0.32,0-0.48-0.05-0.48-0.16c0-0.12,0.3-0.19,0.89-0.2c0.43,0,0.71-0.09,0.83-0.26c0.07-0.11,0.1-0.39,0.1-0.83v-12.18
			c-1.37,0.01-2.22,0.08-2.55,0.2c-0.87,0.31-1.38,1.14-1.53,2.5c-0.04,0.41-0.14,0.61-0.29,0.61c-0.17,0-0.25-0.14-0.25-0.43
			c0-0.15,0.01-0.3,0.02-0.45l0.04-0.47c0.04-0.62,0.1-1.44,0.19-2.46h0.93l4.23,0.06c0.5,0.01,1.27,0.01,2.32,0l3.44-0.06
			c0.03,0.76,0.12,1.88,0.27,3.37c0,0.04,0.01,0.09,0.02,0.15C1057.87,586.31,1057.88,586.35,1057.88,586.37z"/>
		<path fill="#4D4D4E" d="M1071.8,582.93c0,0.11-0.12,0.16-0.37,0.16c-0.04,0-0.18,0-0.42,0c-0.07,0-0.17,0-0.29,0
			c-0.35,0-0.55,0.09-0.62,0.26c-0.03,0.09-0.04,0.25-0.04,0.47v7.6c0,1.97-0.38,3.41-1.13,4.31c-0.75,0.9-1.97,1.35-3.64,1.35
			c-2,0-3.41-0.55-4.23-1.66c-0.54-0.74-0.81-1.97-0.81-3.67v-8.14c-0.04-0.24-0.21-0.39-0.5-0.45c-0.08-0.01-0.34-0.02-0.78-0.02
			c-0.24-0.03-0.36-0.09-0.36-0.2c0-0.12,0.1-0.18,0.29-0.18h0.37c0.07,0,0.23,0,0.48,0c0.22,0,0.42,0,0.6,0h2.96
			c0.07,0,0.15,0,0.25,0c0.23,0,0.35,0.07,0.35,0.22c0,0.09-0.04,0.15-0.12,0.16c-0.08,0.01-0.36,0.03-0.83,0.04
			c-0.19,0-0.32,0.01-0.39,0.04c-0.14,0.05-0.21,0.15-0.23,0.28c-0.01,0.05-0.02,0.44-0.02,1.15v7.25c0,1.78,0.29,3,0.87,3.64
			c0.58,0.65,1.44,0.97,2.59,0.97c2.1,0,3.29-1.17,3.57-3.5c0.04-0.35,0.06-1.83,0.06-4.45v-1.15v-1.62v-1.39c0-0.13,0-0.28,0-0.45
			c0-0.17,0-0.25,0-0.22c0-0.3-0.15-0.48-0.44-0.55c-0.1-0.03-0.38-0.04-0.85-0.04c-0.28,0-0.42-0.07-0.42-0.22
			c0-0.12,0.1-0.18,0.29-0.18c0.11,0,0.2,0,0.27,0c0.17,0,0.77,0,1.81,0c0.15,0,0.33,0,0.52,0c0.18,0,0.31,0,0.4,0h0.31
			C1071.64,582.75,1071.8,582.81,1071.8,582.93z"/>
		<path fill="#4D4D4E" d="M1085.98,589.8c0,2.39-0.85,4.25-2.55,5.58c-1.24,0.98-2.91,1.47-4.99,1.47c-0.06,0-0.3,0-0.74,0
			s-1.07,0-1.9,0h-1.04h-1.64c-0.1,0-0.2,0-0.31,0c-0.26,0-0.39-0.07-0.39-0.2c0-0.12,0.22-0.18,0.66-0.18c0.57,0,0.92-0.1,1.06-0.3
			c0.05-0.09,0.08-0.35,0.08-0.77v-10.94c0-0.66-0.05-1.05-0.16-1.16s-0.46-0.16-1.07-0.16c-0.32,0-0.48-0.07-0.48-0.22
			c0-0.11,0.12-0.16,0.35-0.16c-0.01,0,0.14,0,0.46,0s0.63,0,0.93,0h2.22c2.49,0,4.25,0.17,5.29,0.51c1.26,0.41,2.27,1.21,3.05,2.41
			C1085.59,586.85,1085.98,588.24,1085.98,589.8z M1083.66,589.71c0-2.25-0.45-3.91-1.35-4.96c-0.9-1.05-2.3-1.58-4.21-1.58
			c-0.93,0-1.49,0.1-1.68,0.29c-0.08,0.1-0.12,0.42-0.12,0.98v10.83c0,0.38,0.01,0.61,0.03,0.69c0.02,0.08,0.08,0.15,0.18,0.2
			c0.33,0.16,1.03,0.24,2.09,0.24c1.49,0,2.69-0.52,3.61-1.55C1083.18,593.78,1083.66,592.06,1083.66,589.71z"/>
		<path fill="#4D4D4E" d="M1098.48,593.57c0,0.05-0.01,0.39-0.04,1c-0.03,0.61-0.04,1.19-0.04,1.75v0.67
			c-1.35-0.08-4.04-0.12-8.04-0.12c-0.48,0-0.96,0-1.43,0c-0.47,0-0.79,0-0.95,0h-0.21c-0.26,0-0.39-0.05-0.39-0.16
			c0-0.07,0.04-0.12,0.12-0.13c0.04,0,0.3-0.02,0.79-0.05c0.36-0.03,0.58-0.1,0.65-0.22c0.08-0.12,0.11-0.44,0.11-0.96v-11.44
			c0-0.39-0.06-0.63-0.18-0.7c-0.12-0.07-0.49-0.11-1.13-0.11c-0.22,0-0.33-0.06-0.33-0.17c0-0.12,0.15-0.17,0.46-0.17h3.54
			c0.12,0,0.9,0,2.34,0s2.4,0,2.9,0c0.41,0,0.79-0.03,1.14-0.08c0.03,0.58,0.09,1.39,0.19,2.42l0.08,0.87
			c0.01,0.07,0.02,0.16,0.02,0.26c0,0.13-0.06,0.2-0.19,0.2c-0.15,0-0.26-0.17-0.33-0.51c-0.26-1.23-0.69-2-1.29-2.33
			c-0.44-0.24-1.6-0.37-3.48-0.37h-1.7v5.97h0.5c1.55,0,2.49-0.11,2.83-0.34c0.34-0.23,0.57-0.9,0.69-2.01
			c0.03-0.28,0.1-0.43,0.23-0.43c0.15,0,0.23,0.12,0.23,0.37c0,0.24-0.01,0.6-0.04,1.08c-0.03,0.47-0.04,0.83-0.04,1.08
			c0,1.45,0.02,2.44,0.07,2.98c0.01,0.14,0.02,0.25,0.02,0.34c0,0.18-0.08,0.26-0.23,0.26c-0.1,0-0.16-0.06-0.2-0.17
			s-0.09-0.49-0.17-1.13c-0.11-0.8-0.45-1.29-1.01-1.48c-0.25-0.08-0.89-0.12-1.94-0.12h-0.93v6.8c3.04,0,4.82-0.06,5.35-0.18
			c0.91-0.2,1.43-1.06,1.55-2.57c0.03-0.33,0.12-0.5,0.27-0.5C1098.41,593.15,1098.48,593.29,1098.48,593.57z"/>
		<path fill="#4D4D4E" d="M1112.22,582.93c0,0.13-0.17,0.2-0.52,0.18h-0.46h-0.37c-0.22,0-0.35,0.04-0.39,0.11s-0.06,0.3-0.06,0.68
			v11.68c0,0.72-0.01,1.14-0.02,1.26c-0.01,0.12-0.06,0.18-0.12,0.18c-0.08,0-0.18-0.08-0.29-0.22l-2.65-3.8
			c-1.54-2.21-3.4-4.96-5.6-8.26v11.33c0.01,0.18,0.12,0.29,0.31,0.33c0.2,0.05,0.66,0.08,1.4,0.09c0.18,0,0.27,0.05,0.27,0.16
			c0,0.14-0.18,0.2-0.54,0.2c-0.12,0-0.52-0.02-1.18-0.06c-0.22-0.01-0.43-0.02-0.64-0.02c0.01,0-0.11,0.01-0.36,0.04
			c-0.26,0.03-0.65,0.04-1.17,0.04h-0.21c-0.32,0-0.48-0.06-0.48-0.18c0-0.12,0.14-0.18,0.41-0.18c0.82-0.01,1.29-0.06,1.42-0.15
			c0.13-0.09,0.2-0.38,0.2-0.86v-10.02c0-1.12-0.23-1.83-0.71-2.11c-0.22-0.14-0.61-0.2-1.18-0.2c-0.36,0-0.54-0.07-0.54-0.21
			c0-0.13,0.1-0.19,0.31-0.19c0.28,0,0.63,0.01,1.06,0.04c0.43,0.03,0.66,0.04,0.68,0.04c0.04,0,0.23-0.01,0.58-0.02
			c0.46,0,0.9-0.02,1.33-0.06l7.15,10.45v-9.03c0-0.42-0.01-0.67-0.02-0.76c-0.01-0.09-0.07-0.16-0.17-0.2
			c-0.1-0.05-0.43-0.07-0.99-0.07c-0.5,0-0.75-0.06-0.75-0.18c0-0.14,0.17-0.2,0.5-0.2h0.73c0.18,0,0.37,0,0.58,0
			c0.22,0,0.35,0,0.39,0c0.01,0,0.14,0,0.37,0c0.22,0,0.43,0,0.62,0h0.64C1112.07,582.73,1112.22,582.8,1112.22,582.93z"/>
		<path fill="#4D4D4E" d="M1124.33,586.37c0,0.18-0.08,0.26-0.25,0.26s-0.28-0.18-0.35-0.53c-0.03-0.24-0.06-0.49-0.08-0.73
			c-0.1-0.49-0.26-0.9-0.48-1.24c-0.29-0.45-0.77-0.73-1.43-0.85c-0.43-0.08-0.78-0.11-1.04-0.1c-0.65,0.02-1.04,0.03-1.18,0.04
			v12.26c0,0.49,0.13,0.79,0.39,0.91c0.14,0.07,0.52,0.11,1.16,0.12c0.17,0.01,0.25,0.07,0.25,0.17c0,0.12-0.11,0.17-0.33,0.17
			c-0.11,0-0.21-0.01-0.29-0.02c-0.83-0.03-1.42-0.04-1.76-0.04c-0.46,0-0.88,0.01-1.29,0.03c-0.4,0.02-0.91,0.03-1.53,0.03
			c-0.32,0-0.48-0.05-0.48-0.16c0-0.12,0.3-0.19,0.89-0.2c0.43,0,0.71-0.09,0.83-0.26c0.07-0.11,0.1-0.39,0.1-0.83v-12.18
			c-1.37,0.01-2.22,0.08-2.55,0.2c-0.87,0.31-1.38,1.14-1.53,2.5c-0.04,0.41-0.14,0.61-0.29,0.61c-0.17,0-0.25-0.14-0.25-0.43
			c0-0.15,0.01-0.3,0.02-0.45l0.04-0.47c0.04-0.62,0.1-1.44,0.19-2.46h0.93l4.23,0.06c0.5,0.01,1.27,0.01,2.32,0l3.44-0.06
			c0.03,0.76,0.12,1.88,0.27,3.37c0,0.04,0.01,0.09,0.02,0.15C1124.32,586.31,1124.33,586.35,1124.33,586.37z"/>
		<path fill="#4D4D4E" d="M895.55,635.53c0,0.27-0.1,0.41-0.3,0.41s-0.34-0.24-0.41-0.73c-0.24-1.41-0.72-2.44-1.45-3.08
			c-0.47-0.41-1.2-0.67-2.19-0.76c-0.36-0.04-1.14-0.06-2.37-0.06c-0.91,0-1.99,0.03-3.26,0.09v8.53c2.53,0.02,4.09-0.14,4.68-0.48
			c0.59-0.34,0.95-1.29,1.07-2.86c0.04-0.45,0.16-0.67,0.36-0.67c0.2,0,0.29,0.14,0.29,0.43c0,0.17-0.01,0.32-0.03,0.43
			c-0.06,1.33-0.09,2.57-0.09,3.71c0,1.47,0.03,2.63,0.09,3.48c0.02,0.08,0.02,0.19,0.02,0.35c0,0.23-0.1,0.35-0.29,0.35
			c-0.16,0-0.26-0.06-0.3-0.17c-0.04-0.12-0.11-0.56-0.21-1.33c-0.16-1.18-0.47-1.91-0.93-2.2s-1.38-0.44-2.76-0.44
			c-0.73,0-1.37,0.02-1.92,0.06v2.96v5.68c0,0.56,0.22,0.92,0.67,1.07c0.21,0.08,0.69,0.11,1.44,0.09c0.31,0,0.47,0.08,0.47,0.23
			c0,0.17-0.2,0.26-0.59,0.26h-0.29c-0.28,0-0.65,0-1.12,0c-0.46,0-0.76,0-0.92,0h-4.41c-0.38,0-0.56-0.08-0.56-0.23
			c0-0.15,0.34-0.25,1.02-0.29c0.68-0.04,1.08-0.13,1.2-0.28c0.12-0.15,0.18-0.6,0.18-1.35v-16.7c-0.02-0.35-0.13-0.57-0.32-0.65
			c-0.19-0.09-0.71-0.14-1.54-0.16c-0.32,0-0.48-0.1-0.48-0.29c0-0.17,0.18-0.26,0.53-0.26h0.47c-0.04,0,0.91,0,2.86,0
			s3.54,0,4.78,0c3.34,0,5.38-0.06,6.13-0.17c0.02,0.25,0.08,0.98,0.18,2.18c0.06,0.81,0.14,1.54,0.24,2.17
			C895.53,635.1,895.55,635.33,895.55,635.53z"/>
		<path fill="#4D4D4E" d="M909.16,636.93c0,0.11-0.12,0.16-0.37,0.16c-0.04,0-0.18,0-0.41,0c-0.07,0-0.17,0-0.29,0
			c-0.35,0-0.55,0.09-0.62,0.26c-0.03,0.09-0.04,0.25-0.04,0.47v7.6c0,1.97-0.38,3.41-1.13,4.31c-0.75,0.9-1.96,1.35-3.64,1.35
			c-2,0-3.41-0.55-4.23-1.66c-0.54-0.74-0.81-1.97-0.81-3.67v-8.14c-0.04-0.24-0.21-0.39-0.5-0.45c-0.08-0.01-0.34-0.02-0.78-0.02
			c-0.24-0.03-0.36-0.09-0.36-0.2c0-0.12,0.1-0.18,0.29-0.18h0.37c0.07,0,0.23,0,0.48,0c0.22,0,0.42,0,0.6,0h2.96
			c0.07,0,0.15,0,0.25,0c0.23,0,0.35,0.07,0.35,0.22c0,0.09-0.04,0.15-0.12,0.16c-0.08,0.01-0.36,0.03-0.83,0.04
			c-0.19,0-0.32,0.01-0.39,0.04c-0.14,0.05-0.21,0.15-0.23,0.28c-0.01,0.05-0.02,0.44-0.02,1.15v7.25c0,1.78,0.29,3,0.87,3.64
			c0.58,0.65,1.44,0.97,2.59,0.97c2.1,0,3.29-1.17,3.57-3.5c0.04-0.35,0.06-1.83,0.06-4.45v-1.15v-1.62v-1.39c0-0.13,0-0.28,0-0.45
			c0-0.17,0-0.25,0-0.22c0-0.3-0.15-0.48-0.44-0.55c-0.1-0.03-0.38-0.04-0.85-0.04c-0.28,0-0.42-0.07-0.42-0.22
			c0-0.12,0.1-0.18,0.29-0.18c0.11,0,0.2,0,0.27,0c0.17,0,0.77,0,1.81,0c0.15,0,0.33,0,0.52,0c0.18,0,0.31,0,0.4,0h0.31
			C909,636.75,909.16,636.81,909.16,636.93z"/>
		<path fill="#4D4D4E" d="M921.19,640.37c0,0.18-0.08,0.26-0.25,0.26s-0.28-0.18-0.35-0.53c-0.03-0.24-0.06-0.49-0.08-0.73
			c-0.1-0.49-0.26-0.9-0.48-1.24c-0.29-0.45-0.77-0.73-1.43-0.85c-0.43-0.08-0.78-0.11-1.04-0.1c-0.65,0.02-1.04,0.03-1.18,0.04
			v12.26c0,0.49,0.13,0.79,0.39,0.91c0.14,0.07,0.52,0.11,1.16,0.12c0.17,0.01,0.25,0.07,0.25,0.17c0,0.12-0.11,0.17-0.33,0.17
			c-0.11,0-0.21-0.01-0.29-0.02c-0.83-0.03-1.42-0.04-1.76-0.04c-0.46,0-0.88,0.01-1.29,0.03c-0.4,0.02-0.91,0.03-1.53,0.03
			c-0.32,0-0.48-0.05-0.48-0.16c0-0.12,0.3-0.19,0.89-0.2c0.43,0,0.71-0.09,0.83-0.26c0.07-0.11,0.1-0.39,0.1-0.83v-12.18
			c-1.37,0.01-2.22,0.08-2.55,0.2c-0.87,0.31-1.38,1.14-1.53,2.5c-0.04,0.41-0.14,0.61-0.29,0.61c-0.17,0-0.25-0.14-0.25-0.43
			c0-0.15,0.01-0.3,0.02-0.45l0.04-0.47c0.04-0.62,0.1-1.44,0.19-2.46h0.93l4.23,0.06c0.5,0.01,1.27,0.01,2.32,0l3.44-0.06
			c0.03,0.76,0.12,1.88,0.27,3.37c0,0.04,0.01,0.09,0.02,0.15C921.18,640.31,921.19,640.35,921.19,640.37z"/>
		<path fill="#4D4D4E" d="M935.12,636.93c0,0.11-0.12,0.16-0.37,0.16c-0.04,0-0.18,0-0.42,0c-0.07,0-0.17,0-0.29,0
			c-0.35,0-0.55,0.09-0.62,0.26c-0.03,0.09-0.04,0.25-0.04,0.47v7.6c0,1.97-0.38,3.41-1.13,4.31c-0.75,0.9-1.97,1.35-3.64,1.35
			c-2,0-3.41-0.55-4.23-1.66c-0.54-0.74-0.81-1.97-0.81-3.67v-8.14c-0.04-0.24-0.21-0.39-0.5-0.45c-0.08-0.01-0.34-0.02-0.78-0.02
			c-0.24-0.03-0.36-0.09-0.36-0.2c0-0.12,0.1-0.18,0.29-0.18h0.37c0.07,0,0.23,0,0.48,0c0.22,0,0.42,0,0.6,0h2.96
			c0.07,0,0.15,0,0.25,0c0.24,0,0.35,0.07,0.35,0.22c0,0.09-0.04,0.15-0.12,0.16c-0.08,0.01-0.36,0.03-0.83,0.04
			c-0.19,0-0.33,0.01-0.39,0.04c-0.14,0.05-0.21,0.15-0.23,0.28c-0.01,0.05-0.02,0.44-0.02,1.15v7.25c0,1.78,0.29,3,0.87,3.64
			c0.58,0.65,1.44,0.97,2.59,0.97c2.1,0,3.29-1.17,3.56-3.5c0.04-0.35,0.06-1.83,0.06-4.45v-1.15v-1.62v-1.39c0-0.13,0-0.28,0-0.45
			c0-0.17,0-0.25,0-0.22c0-0.3-0.14-0.48-0.44-0.55c-0.1-0.03-0.38-0.04-0.85-0.04c-0.28,0-0.41-0.07-0.41-0.22
			c0-0.12,0.1-0.18,0.29-0.18c0.11,0,0.2,0,0.27,0c0.17,0,0.77,0,1.81,0c0.15,0,0.33,0,0.52,0c0.18,0,0.31,0,0.4,0h0.31
			C934.96,636.75,935.12,636.81,935.12,636.93z"/>
		<path fill="#4D4D4E" d="M947.61,650.23c0,0.57-0.48,0.85-1.45,0.85c-1.08,0-1.92-0.44-2.53-1.32c-0.26-0.38-0.43-0.74-0.51-1.1
			s-0.19-1.25-0.34-2.68c-0.08-0.87-0.37-1.48-0.85-1.84c-0.48-0.36-1.27-0.55-2.36-0.58v6.39c0,0.27,0.22,0.44,0.66,0.51
			c0.12,0.01,0.44,0.03,0.95,0.04c0.18,0,0.27,0.05,0.27,0.16c0,0.12-0.12,0.18-0.35,0.18h-0.25c-0.12,0-0.72,0-1.8,0
			c-0.21,0-0.56,0-1.06,0c-0.48,0-0.8,0-0.95,0h-0.81c-0.3,0-0.46-0.06-0.46-0.18c0-0.09,0.2-0.15,0.6-0.16
			c0.65-0.01,1-0.09,1.06-0.24c0.05-0.07,0.08-0.33,0.08-0.79v-11.21c0-0.54-0.06-0.87-0.18-0.97s-0.47-0.17-1.07-0.18
			c-0.35,0-0.52-0.06-0.52-0.18c0-0.14,0.11-0.2,0.33-0.2c0.04,0,0.1,0.01,0.19,0.02l2.76,0.06c0.28,0,0.66-0.01,1.16-0.03
			c0.55-0.04,0.94-0.05,1.16-0.05c1.29,0,2.3,0.28,3.06,0.84c0.75,0.56,1.13,1.32,1.13,2.28c0,0.95-0.39,1.73-1.16,2.34
			c-0.77,0.62-1.82,0.98-3.15,1.09c-0.12,0.01-0.19,0.03-0.21,0.06c0,0.05,0.07,0.08,0.21,0.08c1.45,0.24,2.45,0.74,3,1.5
			c0.54,0.75,0.91,2.11,1.09,4.08c0.11,1.11,0.5,1.67,1.16,1.67c0.21,0,0.31-0.04,0.31-0.12c0-0.01-0.01-0.03-0.02-0.04
			c-0.07-0.15-0.1-0.27-0.1-0.37c0-0.28,0.15-0.43,0.46-0.43C947.45,649.72,947.61,649.89,947.61,650.23z M943.32,640.06
			c0-1.94-0.86-2.9-2.57-2.9c-0.46,0-0.77,0.06-0.93,0.18c-0.17,0.12-0.25,0.34-0.25,0.65v5.16c1.33,0.01,2.28-0.22,2.87-0.71
			C943.03,641.95,943.32,641.16,943.32,640.06z"/>
		<path fill="#4D4D4E" d="M959.14,647.57c0,0.05-0.01,0.39-0.04,1c-0.03,0.61-0.04,1.19-0.04,1.75v0.67
			c-1.35-0.08-4.04-0.12-8.04-0.12c-0.48,0-0.96,0-1.43,0s-0.79,0-0.95,0h-0.21c-0.26,0-0.39-0.05-0.39-0.16
			c0-0.07,0.04-0.12,0.12-0.13c0.04,0,0.3-0.02,0.79-0.05c0.36-0.03,0.58-0.1,0.65-0.22c0.08-0.12,0.11-0.44,0.11-0.96v-11.44
			c0-0.39-0.06-0.63-0.18-0.7c-0.12-0.07-0.49-0.11-1.13-0.11c-0.22,0-0.33-0.06-0.33-0.17c0-0.12,0.15-0.17,0.46-0.17h3.54
			c0.12,0,0.91,0,2.34,0c1.44,0,2.4,0,2.9,0c0.42,0,0.79-0.03,1.14-0.08c0.03,0.58,0.09,1.39,0.19,2.42l0.08,0.87
			c0.01,0.07,0.02,0.16,0.02,0.26c0,0.13-0.06,0.2-0.19,0.2c-0.15,0-0.26-0.17-0.33-0.51c-0.26-1.23-0.69-2-1.29-2.33
			c-0.44-0.24-1.6-0.37-3.48-0.37h-1.7v5.97h0.5c1.55,0,2.49-0.11,2.83-0.34c0.34-0.23,0.57-0.9,0.69-2.01
			c0.03-0.28,0.1-0.43,0.23-0.43c0.15,0,0.23,0.12,0.23,0.37c0,0.24-0.01,0.6-0.04,1.08c-0.03,0.47-0.04,0.83-0.04,1.08
			c0,1.45,0.02,2.44,0.07,2.98c0.01,0.14,0.02,0.25,0.02,0.34c0,0.18-0.08,0.26-0.23,0.26c-0.1,0-0.16-0.06-0.2-0.17
			c-0.03-0.12-0.09-0.49-0.17-1.13c-0.11-0.8-0.45-1.29-1.01-1.48c-0.25-0.08-0.89-0.12-1.94-0.12h-0.93v6.8
			c3.04,0,4.82-0.06,5.35-0.18c0.91-0.2,1.43-1.06,1.55-2.57c0.03-0.33,0.12-0.5,0.27-0.5
			C959.07,647.15,959.14,647.29,959.14,647.57z"/>
		<path fill="#4D4D4E" d="M979.8,635.53c0,1.88-0.82,3.33-2.46,4.38c-1.03,0.66-2.33,0.99-3.91,0.99c-0.67,0-1.43-0.07-2.28-0.2
			v8.24c0,0.45,0.02,0.72,0.06,0.84c0.1,0.27,0.31,0.44,0.65,0.49c0.57,0.08,1.12,0.12,1.66,0.12c0.22,0,0.33,0.07,0.33,0.2
			c0,0.19-0.14,0.29-0.41,0.29c-0.12,0-0.22,0-0.3,0c-1.09,0-3.13,0-6.13,0h-0.38c-0.59,0-0.89-0.1-0.89-0.29
			c0-0.13,0.21-0.2,0.62-0.2c0.93,0,1.46-0.09,1.6-0.26c0.16-0.08,0.25-0.27,0.27-0.58V632.4c0-0.6-0.17-0.97-0.5-1.1
			c-0.2-0.08-0.54-0.12-1.04-0.12h-0.3c-0.06,0-0.13,0-0.21,0c-0.29,0-0.44-0.08-0.44-0.23c0-0.17,0.28-0.26,0.83-0.26h6.51
			c2.25,0,3.9,0.39,4.95,1.16C979.21,632.71,979.8,633.94,979.8,635.53z M976.7,635.56c0-2.92-1.24-4.38-3.73-4.38
			c-0.83,0-1.37,0.14-1.63,0.41c-0.12,0.12-0.18,0.42-0.18,0.9v7.76c0.16,0.02,0.34,0.03,0.53,0.03c1.3,0,2.41-0.28,3.32-0.85
			C976.13,638.74,976.7,637.44,976.7,635.56z"/>
		<path fill="#4D4D4E" d="M994.14,650.66c0,0.12-0.13,0.18-0.39,0.18h-2.84c-0.19,0-0.47,0-0.84,0c-0.37,0-0.64,0-0.82,0
			c-0.27,0-0.41-0.05-0.41-0.16c0-0.11,0.32-0.18,0.96-0.22c0.34-0.03,0.54-0.08,0.59-0.17s0.08-0.4,0.08-0.94v-5.91h-6.24v5.74
			c0,0.61,0.05,0.97,0.15,1.08c0.1,0.11,0.42,0.18,0.97,0.22c0.36,0.03,0.54,0.09,0.54,0.18c0,0.12-0.14,0.18-0.42,0.18h-0.19
			c-0.33,0-0.68,0-1.05,0c-0.37,0-0.58,0-0.65,0c-0.19,0-0.48,0-0.87,0s-0.97,0-1.74,0c-0.28,0-0.42-0.05-0.42-0.16
			c0-0.11,0.14-0.18,0.42-0.2c0.18-0.01,0.37-0.03,0.56-0.04c0.3-0.03,0.5-0.09,0.58-0.2c0.04-0.07,0.06-0.45,0.06-1.13v-10.7
			c0-0.61-0.03-0.97-0.09-1.07c-0.06-0.11-0.28-0.17-0.65-0.18c-0.43-0.03-0.68-0.05-0.76-0.06c-0.08-0.01-0.11-0.07-0.11-0.17
			c0-0.11,0.09-0.17,0.27-0.17c0.05,0,0.17,0.01,0.35,0.02c0.34,0.03,1.16,0.04,2.45,0.04c0.7,0,1.2-0.01,1.47-0.03
			c0.1-0.02,0.22-0.03,0.37-0.03c0.25,0,0.37,0.07,0.37,0.2c0,0.12-0.22,0.18-0.67,0.18c-0.45,0-0.72,0.05-0.81,0.15
			c-0.09,0.1-0.13,0.42-0.13,0.97v4.68h6.24v-4.38c0-0.72-0.06-1.14-0.17-1.27c-0.11-0.13-0.5-0.19-1.16-0.17
			c-0.21,0-0.31-0.06-0.31-0.18s0.12-0.18,0.35-0.18h0.1c0.19,0,0.53,0,1.02,0c0.5,0,0.87,0,1.12,0c0.84,0,1.41,0,1.71,0
			c0.3,0,0.49,0,0.57,0c0.29,0,0.43,0.06,0.43,0.18s-0.3,0.19-0.91,0.2c-0.18,0-0.31,0.01-0.39,0.04c-0.14,0.04-0.22,0.12-0.26,0.22
			s-0.05,0.43-0.05,0.95v10.8c0,0.65,0.03,1.03,0.1,1.14c0.14,0.15,0.53,0.22,1.19,0.22C994.03,650.47,994.14,650.52,994.14,650.66z
			"/>
		<path fill="#4D4D4E" d="M1008.79,643.88c0,2.02-0.62,3.72-1.85,5.12c-1.24,1.39-2.75,2.09-4.55,2.09c-1.91,0-3.51-0.71-4.81-2.12
			s-1.95-3.16-1.95-5.23c0-2.11,0.62-3.84,1.88-5.19c1.25-1.35,2.85-2.02,4.8-2.02c1.84,0,3.38,0.7,4.62,2.11
			C1008.17,640.05,1008.79,641.79,1008.79,643.88z M1006.47,643.98c0-2.48-0.52-4.42-1.55-5.8c-0.65-0.87-1.55-1.3-2.72-1.3
			c-1.11,0-1.96,0.33-2.57,1c-1.12,1.22-1.68,3.21-1.68,5.96c0,2.19,0.39,3.88,1.17,5.09s1.88,1.81,3.29,1.81
			c1.31,0,2.3-0.57,2.96-1.71C1006.11,647.77,1006.47,646.08,1006.47,643.98z"/>
		<path fill="#4D4D4E" d="M1021.5,640.37c0,0.18-0.08,0.26-0.25,0.26c-0.17,0-0.28-0.18-0.35-0.53c-0.03-0.24-0.06-0.49-0.08-0.73
			c-0.1-0.49-0.26-0.9-0.48-1.24c-0.29-0.45-0.77-0.73-1.43-0.85c-0.43-0.08-0.77-0.11-1.04-0.1c-0.65,0.02-1.04,0.03-1.18,0.04
			v12.26c0,0.49,0.13,0.79,0.39,0.91c0.14,0.07,0.53,0.11,1.16,0.12c0.17,0.01,0.25,0.07,0.25,0.17c0,0.12-0.11,0.17-0.33,0.17
			c-0.11,0-0.21-0.01-0.29-0.02c-0.83-0.03-1.42-0.04-1.76-0.04c-0.46,0-0.88,0.01-1.29,0.03c-0.4,0.02-0.91,0.03-1.53,0.03
			c-0.32,0-0.48-0.05-0.48-0.16c0-0.12,0.3-0.19,0.89-0.2c0.43,0,0.7-0.09,0.83-0.26c0.07-0.11,0.1-0.39,0.1-0.83v-12.18
			c-1.37,0.01-2.22,0.08-2.55,0.2c-0.87,0.31-1.38,1.14-1.54,2.5c-0.04,0.41-0.14,0.61-0.29,0.61c-0.17,0-0.25-0.14-0.25-0.43
			c0-0.15,0.01-0.3,0.02-0.45l0.04-0.47c0.04-0.62,0.1-1.44,0.19-2.46h0.93l4.23,0.06c0.5,0.01,1.27,0.01,2.32,0l3.44-0.06
			c0.03,0.76,0.12,1.88,0.27,3.37c0,0.04,0.01,0.09,0.02,0.15C1021.49,640.31,1021.5,640.35,1021.5,640.37z"/>
		<path fill="#4D4D4E" d="M1035.86,643.88c0,2.02-0.62,3.72-1.86,5.12c-1.24,1.39-2.75,2.09-4.55,2.09c-1.91,0-3.51-0.71-4.81-2.12
			c-1.3-1.41-1.95-3.16-1.95-5.23c0-2.11,0.62-3.84,1.88-5.19c1.25-1.35,2.85-2.02,4.8-2.02c1.84,0,3.38,0.7,4.62,2.11
			C1035.24,640.05,1035.86,641.79,1035.86,643.88z M1033.54,643.98c0-2.48-0.52-4.42-1.55-5.8c-0.65-0.87-1.55-1.3-2.72-1.3
			c-1.11,0-1.96,0.33-2.57,1c-1.12,1.22-1.68,3.21-1.68,5.96c0,2.19,0.39,3.88,1.17,5.09c0.78,1.21,1.88,1.81,3.29,1.81
			c1.31,0,2.3-0.57,2.96-1.71C1033.18,647.77,1033.54,646.08,1033.54,643.98z"/>
		<path fill="#4D4D4E" d="M1050.97,646.59c0,0.1-0.17,0.15-0.5,0.15c-0.75,0-1.16,0.11-1.24,0.32c-0.06,0.15-0.08,0.73-0.08,1.76
			v0.65c-0.72,0.59-1.4,1.01-2.05,1.25c-0.65,0.24-1.43,0.36-2.34,0.36c-2.18,0-3.92-0.64-5.2-1.92s-1.93-3.01-1.93-5.21
			c0-2.22,0.63-4.01,1.89-5.38c1.26-1.37,2.92-2.05,4.97-2.05c0.9,0,1.88,0.24,2.94,0.73c0.32,0.15,0.58,0.22,0.79,0.22
			c0.26,0,0.44-0.16,0.52-0.49c0.07-0.19,0.15-0.28,0.25-0.28c0.11,0,0.17,0.06,0.17,0.18c0,0.01-0.01,0.14-0.04,0.39
			c-0.09,0.8-0.12,1.39-0.11,1.77v1.1c0.01,0.56,0.01,0.9-0.02,1.04c-0.03,0.14-0.1,0.2-0.23,0.2c-0.12,0-0.19-0.09-0.21-0.29
			c-0.07-1.3-0.46-2.33-1.16-3.09c-0.7-0.75-1.63-1.13-2.78-1.13c-1.44,0-2.57,0.63-3.41,1.88c-0.84,1.26-1.25,2.97-1.25,5.14
			c0,2.1,0.42,3.77,1.27,5c0.85,1.23,2,1.84,3.45,1.84c1.11,0,1.87-0.31,2.28-0.94c0.21-0.31,0.31-0.88,0.31-1.69
			c0-0.68-0.07-1.08-0.2-1.2c-0.13-0.12-0.58-0.18-1.36-0.16c-0.19,0-0.32-0.01-0.37-0.03c-0.06-0.02-0.08-0.06-0.08-0.12
			c0-0.13,0.15-0.2,0.46-0.2h0.37c0.3,0.01,1.06,0.01,2.28,0h1.66c0.1,0,0.2,0,0.31,0c0.11,0,0.19,0,0.23,0
			C1050.83,646.39,1050.97,646.46,1050.97,646.59z"/>
		<path fill="#4D4D4E" d="M1062.83,650.23c0,0.57-0.48,0.85-1.45,0.85c-1.08,0-1.92-0.44-2.53-1.32c-0.26-0.38-0.43-0.74-0.51-1.1
			s-0.19-1.25-0.34-2.68c-0.08-0.87-0.37-1.48-0.85-1.84c-0.48-0.36-1.27-0.55-2.36-0.58v6.39c0,0.27,0.22,0.44,0.66,0.51
			c0.12,0.01,0.44,0.03,0.95,0.04c0.18,0,0.27,0.05,0.27,0.16c0,0.12-0.12,0.18-0.35,0.18h-0.25c-0.12,0-0.73,0-1.8,0
			c-0.21,0-0.56,0-1.06,0c-0.48,0-0.8,0-0.95,0h-0.81c-0.3,0-0.46-0.06-0.46-0.18c0-0.09,0.2-0.15,0.6-0.16
			c0.65-0.01,1-0.09,1.06-0.24c0.05-0.07,0.08-0.33,0.08-0.79v-11.21c0-0.54-0.06-0.87-0.18-0.97s-0.47-0.17-1.07-0.18
			c-0.35,0-0.52-0.06-0.52-0.18c0-0.14,0.11-0.2,0.33-0.2c0.04,0,0.1,0.01,0.19,0.02l2.76,0.06c0.28,0,0.66-0.01,1.16-0.03
			c0.55-0.04,0.94-0.05,1.16-0.05c1.29,0,2.3,0.28,3.06,0.84c0.75,0.56,1.13,1.32,1.13,2.28c0,0.95-0.39,1.73-1.16,2.34
			c-0.77,0.62-1.82,0.98-3.15,1.09c-0.12,0.01-0.19,0.03-0.21,0.06c0,0.05,0.07,0.08,0.21,0.08c1.45,0.24,2.45,0.74,3,1.5
			s0.91,2.11,1.09,4.08c0.11,1.11,0.5,1.67,1.16,1.67c0.21,0,0.31-0.04,0.31-0.12c0-0.01-0.01-0.03-0.02-0.04
			c-0.07-0.15-0.1-0.27-0.1-0.37c0-0.28,0.15-0.43,0.46-0.43C1062.66,649.72,1062.83,649.89,1062.83,650.23z M1058.54,640.06
			c0-1.94-0.86-2.9-2.57-2.9c-0.46,0-0.77,0.06-0.93,0.18c-0.17,0.12-0.25,0.34-0.25,0.65v5.16c1.33,0.01,2.28-0.22,2.87-0.71
			C1058.24,641.95,1058.54,641.16,1058.54,640.06z"/>
		<path fill="#4D4D4E" d="M1076.12,650.71c0,0.12-0.1,0.17-0.31,0.17c-0.14,0-0.26-0.01-0.37-0.02l-2.63-0.08l-2.63,0.08
			c-0.1,0.01-0.2,0.02-0.31,0.02c-0.28,0-0.41-0.07-0.41-0.21c0-0.16,0.19-0.23,0.56-0.23c1.22-0.01,1.82-0.13,1.82-0.36
			c0-0.01-0.01-0.07-0.04-0.16l-0.17-0.54l-0.11-0.28c-0.12-0.42-0.43-1.35-0.91-2.78h-4.43c-0.83,2.17-1.24,3.41-1.24,3.74
			c0,0.19,0.08,0.3,0.25,0.35c0.04,0.01,0.39,0.04,1.04,0.08c0.4,0.01,0.6,0.08,0.6,0.2c0,0.13-0.18,0.2-0.54,0.2
			c-0.63,0-1.38-0.03-2.22-0.08c-0.21-0.01-0.42-0.02-0.64-0.02c-0.22,0-0.44,0.02-0.64,0.07c-0.11,0.02-0.2,0.03-0.27,0.03
			c-0.19,0-0.29-0.06-0.29-0.18s0.22-0.19,0.65-0.2c0.44-0.01,0.75-0.08,0.94-0.19c0.19-0.12,0.34-0.34,0.46-0.66
			c1.78-5,3.22-9.01,4.34-12.04c0.03-0.16,0.1-0.34,0.19-0.54l0.09-0.37c0.04-0.15,0.1-0.22,0.17-0.22c0.04,0,0.08,0.04,0.1,0.12
			c0.18,0.53,0.59,1.63,1.22,3.31c0.5,1.31,1.73,4.61,3.71,9.89c0.11,0.31,0.25,0.5,0.43,0.58c0.17,0.08,0.53,0.13,1.07,0.15
			C1075.94,650.53,1076.12,650.59,1076.12,650.71z M1070.48,645.85c-0.22-0.61-0.6-1.61-1.12-3.02l-1-2.81
			c-0.58,1.5-1.27,3.44-2.08,5.83H1070.48z"/>
		<path fill="#4D4D4E" d="M1085.5,640.12c0,1.31-0.57,2.33-1.72,3.07c-0.72,0.46-1.63,0.69-2.74,0.69c-0.47,0-1-0.05-1.6-0.14v5.77
			c0,0.31,0.01,0.51,0.04,0.59c0.07,0.19,0.22,0.3,0.46,0.34c0.4,0.05,0.79,0.08,1.16,0.08c0.15,0,0.23,0.05,0.23,0.14
			c0,0.14-0.1,0.2-0.29,0.2c-0.08,0-0.15,0-0.21,0c-0.76,0-2.19,0-4.29,0h-0.27c-0.41,0-0.62-0.07-0.62-0.2
			c0-0.1,0.15-0.14,0.44-0.14c0.65,0,1.02-0.06,1.12-0.18c0.11-0.05,0.17-0.19,0.19-0.41v-11.99c0-0.42-0.12-0.68-0.35-0.77
			c-0.14-0.05-0.38-0.08-0.73-0.08h-0.21c-0.04,0-0.09,0-0.14,0c-0.21,0-0.31-0.05-0.31-0.16c0-0.12,0.19-0.18,0.58-0.18h4.56
			c1.58,0,2.73,0.27,3.46,0.81C1085.09,638.15,1085.5,639.01,1085.5,640.12z M1083.33,640.14c0-2.04-0.87-3.06-2.61-3.06
			c-0.58,0-0.96,0.1-1.14,0.29c-0.08,0.08-0.12,0.29-0.12,0.63v5.43c0.11,0.01,0.23,0.02,0.37,0.02c0.91,0,1.69-0.2,2.32-0.59
			C1082.93,642.37,1083.33,641.46,1083.33,640.14z"/>
		<path fill="#4D4D4E" d="M1099.79,650.66c0,0.12-0.13,0.18-0.39,0.18h-2.84c-0.19,0-0.47,0-0.84,0s-0.64,0-0.82,0
			c-0.27,0-0.41-0.05-0.41-0.16c0-0.11,0.32-0.18,0.96-0.22c0.34-0.03,0.54-0.08,0.59-0.17s0.08-0.4,0.08-0.94v-5.91h-6.24v5.74
			c0,0.61,0.05,0.97,0.14,1.08s0.42,0.18,0.97,0.22c0.36,0.03,0.54,0.09,0.54,0.18c0,0.12-0.14,0.18-0.42,0.18h-0.19
			c-0.33,0-0.68,0-1.05,0s-0.58,0-0.65,0c-0.19,0-0.48,0-0.87,0s-0.97,0-1.74,0c-0.28,0-0.42-0.05-0.42-0.16
			c0-0.11,0.14-0.18,0.42-0.2c0.18-0.01,0.37-0.03,0.56-0.04c0.3-0.03,0.5-0.09,0.58-0.2c0.04-0.07,0.06-0.45,0.06-1.13v-10.7
			c0-0.61-0.03-0.97-0.09-1.07c-0.06-0.11-0.28-0.17-0.65-0.18c-0.43-0.03-0.68-0.05-0.76-0.06c-0.08-0.01-0.11-0.07-0.11-0.17
			c0-0.11,0.09-0.17,0.27-0.17c0.06,0,0.17,0.01,0.35,0.02c0.34,0.03,1.16,0.04,2.45,0.04c0.71,0,1.2-0.01,1.47-0.03
			c0.1-0.02,0.22-0.03,0.37-0.03c0.25,0,0.37,0.07,0.37,0.2c0,0.12-0.22,0.18-0.67,0.18c-0.45,0-0.72,0.05-0.81,0.15
			c-0.09,0.1-0.13,0.42-0.13,0.97v4.68h6.24v-4.38c0-0.72-0.05-1.14-0.17-1.27c-0.11-0.13-0.5-0.19-1.16-0.17
			c-0.21,0-0.31-0.06-0.31-0.18s0.12-0.18,0.35-0.18h0.1c0.19,0,0.53,0,1.02,0c0.5,0,0.87,0,1.12,0c0.84,0,1.41,0,1.71,0
			s0.49,0,0.57,0c0.29,0,0.43,0.06,0.43,0.18s-0.3,0.19-0.91,0.2c-0.18,0-0.31,0.01-0.39,0.04c-0.14,0.04-0.22,0.12-0.26,0.22
			c-0.03,0.11-0.05,0.43-0.05,0.95v10.8c0,0.65,0.03,1.03,0.1,1.14c0.14,0.15,0.53,0.22,1.19,0.22
			C1099.68,650.47,1099.79,650.52,1099.79,650.66z"/>
		<path fill="#4D4D4E" d="M1112.04,647.57c0,0.05-0.01,0.39-0.04,1c-0.03,0.61-0.04,1.19-0.04,1.75v0.67
			c-1.36-0.08-4.04-0.12-8.04-0.12c-0.48,0-0.96,0-1.43,0c-0.47,0-0.79,0-0.95,0h-0.21c-0.26,0-0.39-0.05-0.39-0.16
			c0-0.07,0.04-0.12,0.12-0.13c0.04,0,0.3-0.02,0.79-0.05c0.36-0.03,0.58-0.1,0.65-0.22s0.11-0.44,0.11-0.96v-11.44
			c0-0.39-0.06-0.63-0.18-0.7c-0.12-0.07-0.49-0.11-1.13-0.11c-0.22,0-0.33-0.06-0.33-0.17c0-0.12,0.15-0.17,0.46-0.17h3.54
			c0.12,0,0.91,0,2.34,0s2.4,0,2.9,0c0.42,0,0.79-0.03,1.14-0.08c0.03,0.58,0.09,1.39,0.19,2.42l0.08,0.87
			c0.01,0.07,0.02,0.16,0.02,0.26c0,0.13-0.06,0.2-0.19,0.2c-0.15,0-0.26-0.17-0.33-0.51c-0.26-1.23-0.69-2-1.29-2.33
			c-0.44-0.24-1.6-0.37-3.48-0.37h-1.7v5.97h0.5c1.55,0,2.49-0.11,2.83-0.34c0.34-0.23,0.57-0.9,0.69-2.01
			c0.03-0.28,0.1-0.43,0.23-0.43c0.15,0,0.23,0.12,0.23,0.37c0,0.24-0.01,0.6-0.04,1.08c-0.03,0.47-0.04,0.83-0.04,1.08
			c0,1.45,0.02,2.44,0.07,2.98c0.01,0.14,0.02,0.25,0.02,0.34c0,0.18-0.08,0.26-0.23,0.26c-0.1,0-0.16-0.06-0.2-0.17
			c-0.04-0.12-0.09-0.49-0.18-1.13c-0.11-0.8-0.45-1.29-1.01-1.48c-0.25-0.08-0.89-0.12-1.94-0.12h-0.93v6.8
			c3.04,0,4.82-0.06,5.35-0.18c0.91-0.2,1.43-1.06,1.55-2.57c0.03-0.33,0.12-0.5,0.27-0.5
			C1111.97,647.15,1112.04,647.29,1112.04,647.57z"/>
		<path fill="#4D4D4E" d="M1124.76,650.23c0,0.57-0.48,0.85-1.45,0.85c-1.08,0-1.92-0.44-2.53-1.32c-0.26-0.38-0.43-0.74-0.51-1.1
			c-0.08-0.35-0.19-1.25-0.34-2.68c-0.08-0.87-0.37-1.48-0.85-1.84s-1.27-0.55-2.36-0.58v6.39c0,0.27,0.22,0.44,0.66,0.51
			c0.12,0.01,0.44,0.03,0.95,0.04c0.18,0,0.27,0.05,0.27,0.16c0,0.12-0.12,0.18-0.35,0.18h-0.25c-0.12,0-0.73,0-1.8,0
			c-0.21,0-0.56,0-1.06,0c-0.48,0-0.8,0-0.95,0h-0.81c-0.3,0-0.46-0.06-0.46-0.18c0-0.09,0.2-0.15,0.6-0.16
			c0.65-0.01,1-0.09,1.06-0.24c0.06-0.07,0.08-0.33,0.08-0.79v-11.21c0-0.54-0.06-0.87-0.18-0.97s-0.47-0.17-1.07-0.18
			c-0.35,0-0.52-0.06-0.52-0.18c0-0.14,0.11-0.2,0.33-0.2c0.04,0,0.1,0.01,0.19,0.02l2.76,0.06c0.28,0,0.66-0.01,1.16-0.03
			c0.55-0.04,0.94-0.05,1.16-0.05c1.29,0,2.3,0.28,3.06,0.84c0.75,0.56,1.13,1.32,1.13,2.28c0,0.95-0.39,1.73-1.16,2.34
			c-0.77,0.62-1.82,0.98-3.15,1.09c-0.12,0.01-0.19,0.03-0.21,0.06c0,0.05,0.07,0.08,0.21,0.08c1.45,0.24,2.45,0.74,2.99,1.5
			s0.91,2.11,1.09,4.08c0.11,1.11,0.5,1.67,1.16,1.67c0.21,0,0.31-0.04,0.31-0.12c0-0.01-0.01-0.03-0.02-0.04
			c-0.07-0.15-0.1-0.27-0.1-0.37c0-0.28,0.15-0.43,0.46-0.43C1124.6,649.72,1124.76,649.89,1124.76,650.23z M1120.47,640.06
			c0-1.94-0.86-2.9-2.57-2.9c-0.46,0-0.77,0.06-0.93,0.18c-0.17,0.12-0.25,0.34-0.25,0.65v5.16c1.33,0.01,2.28-0.22,2.87-0.71
			S1120.47,641.16,1120.47,640.06z"/>
		<path fill="#4D4D4E" d="M864.65,689.53c0,0.27-0.1,0.41-0.3,0.41c-0.2,0-0.34-0.24-0.42-0.73c-0.24-1.41-0.72-2.44-1.45-3.08
			c-0.47-0.41-1.2-0.67-2.19-0.76c-0.36-0.04-1.15-0.06-2.37-0.06c-0.91,0-1.99,0.03-3.26,0.09v8.53c2.53,0.02,4.09-0.14,4.68-0.48
			c0.59-0.34,0.95-1.29,1.07-2.86c0.04-0.45,0.16-0.67,0.36-0.67s0.3,0.14,0.3,0.43c0,0.17-0.01,0.32-0.03,0.43
			c-0.06,1.33-0.09,2.57-0.09,3.71c0,1.47,0.03,2.63,0.09,3.48c0.02,0.08,0.02,0.19,0.02,0.35c0,0.23-0.1,0.35-0.29,0.35
			c-0.16,0-0.26-0.06-0.3-0.17c-0.04-0.12-0.11-0.56-0.21-1.33c-0.16-1.18-0.47-1.91-0.93-2.2c-0.46-0.29-1.38-0.44-2.76-0.44
			c-0.73,0-1.37,0.02-1.92,0.06v2.96v5.68c0,0.56,0.22,0.92,0.67,1.07c0.21,0.08,0.69,0.11,1.43,0.09c0.31,0,0.47,0.08,0.47,0.23
			c0,0.17-0.2,0.26-0.59,0.26h-0.3c-0.28,0-0.65,0-1.12,0c-0.46,0-0.76,0-0.92,0h-4.41c-0.38,0-0.56-0.08-0.56-0.23
			c0-0.15,0.34-0.25,1.02-0.29s1.08-0.13,1.2-0.28c0.12-0.15,0.18-0.6,0.18-1.35v-16.7c-0.02-0.35-0.12-0.57-0.31-0.65
			c-0.19-0.09-0.71-0.14-1.54-0.16c-0.32,0-0.48-0.1-0.48-0.29c0-0.17,0.18-0.26,0.53-0.26h0.47c-0.04,0,0.91,0,2.86,0
			c1.94,0,3.54,0,4.78,0c3.34,0,5.38-0.06,6.13-0.17c0.02,0.25,0.08,0.98,0.18,2.18c0.06,0.81,0.14,1.54,0.24,2.17
			C864.63,689.1,864.65,689.33,864.65,689.53z"/>
		<path fill="#4D4D4E" d="M878.27,690.93c0,0.11-0.12,0.16-0.37,0.16c-0.04,0-0.18,0-0.41,0c-0.07,0-0.17,0-0.29,0
			c-0.35,0-0.55,0.09-0.62,0.26c-0.03,0.09-0.04,0.25-0.04,0.47v7.6c0,1.97-0.38,3.41-1.13,4.31c-0.75,0.9-1.97,1.35-3.64,1.35
			c-2,0-3.41-0.55-4.23-1.66c-0.54-0.74-0.81-1.97-0.81-3.67v-8.14c-0.04-0.24-0.21-0.39-0.5-0.45c-0.08-0.01-0.34-0.02-0.78-0.02
			c-0.24-0.03-0.36-0.09-0.36-0.2c0-0.12,0.1-0.18,0.29-0.18h0.37c0.07,0,0.23,0,0.48,0c0.22,0,0.42,0,0.6,0h2.96
			c0.07,0,0.15,0,0.25,0c0.24,0,0.35,0.07,0.35,0.22c0,0.09-0.04,0.15-0.12,0.16c-0.08,0.01-0.36,0.03-0.83,0.04
			c-0.19,0-0.33,0.01-0.39,0.04c-0.14,0.05-0.21,0.15-0.23,0.28c-0.01,0.05-0.02,0.44-0.02,1.15v7.25c0,1.78,0.29,3,0.87,3.64
			c0.58,0.65,1.44,0.97,2.59,0.97c2.1,0,3.29-1.17,3.56-3.5c0.04-0.35,0.06-1.83,0.06-4.45v-1.15v-1.62v-1.39c0-0.13,0-0.28,0-0.45
			c0-0.17,0-0.25,0-0.22c0-0.3-0.14-0.48-0.44-0.55c-0.1-0.03-0.38-0.04-0.85-0.04c-0.28,0-0.41-0.07-0.41-0.22
			c0-0.12,0.1-0.18,0.29-0.18c0.11,0,0.2,0,0.27,0c0.17,0,0.77,0,1.81,0c0.15,0,0.33,0,0.52,0c0.18,0,0.31,0,0.4,0h0.31
			C878.11,690.75,878.27,690.81,878.27,690.93z"/>
		<path fill="#4D4D4E" d="M890.29,694.37c0,0.18-0.08,0.26-0.25,0.26s-0.28-0.18-0.35-0.53c-0.03-0.24-0.06-0.49-0.08-0.73
			c-0.1-0.49-0.26-0.9-0.48-1.24c-0.29-0.45-0.77-0.73-1.43-0.85c-0.43-0.08-0.77-0.11-1.04-0.1c-0.65,0.02-1.04,0.03-1.18,0.04
			v12.26c0,0.49,0.13,0.79,0.39,0.91c0.14,0.07,0.53,0.11,1.16,0.12c0.17,0.01,0.25,0.07,0.25,0.17c0,0.12-0.11,0.17-0.33,0.17
			c-0.11,0-0.21-0.01-0.29-0.02c-0.83-0.03-1.42-0.04-1.76-0.04c-0.46,0-0.88,0.01-1.29,0.03c-0.4,0.02-0.91,0.03-1.53,0.03
			c-0.32,0-0.48-0.05-0.48-0.16c0-0.12,0.3-0.19,0.89-0.2c0.43,0,0.71-0.09,0.83-0.26c0.07-0.11,0.1-0.39,0.1-0.83v-12.18
			c-1.37,0.01-2.22,0.08-2.55,0.2c-0.87,0.31-1.38,1.14-1.53,2.5c-0.04,0.41-0.14,0.61-0.29,0.61c-0.17,0-0.25-0.14-0.25-0.43
			c0-0.15,0.01-0.3,0.02-0.45l0.04-0.47c0.04-0.62,0.1-1.44,0.19-2.46h0.93l4.23,0.06c0.5,0.01,1.27,0.01,2.32,0l3.44-0.06
			c0.03,0.76,0.12,1.88,0.27,3.37c0,0.04,0.01,0.09,0.02,0.15C890.28,694.31,890.29,694.35,890.29,694.37z"/>
		<path fill="#4D4D4E" d="M904.22,690.93c0,0.11-0.12,0.16-0.37,0.16c-0.04,0-0.18,0-0.42,0c-0.07,0-0.17,0-0.29,0
			c-0.35,0-0.55,0.09-0.62,0.26c-0.03,0.09-0.04,0.25-0.04,0.47v7.6c0,1.97-0.38,3.41-1.13,4.31c-0.75,0.9-1.97,1.35-3.64,1.35
			c-2,0-3.41-0.55-4.23-1.66c-0.54-0.74-0.81-1.97-0.81-3.67v-8.14c-0.04-0.24-0.21-0.39-0.5-0.45c-0.08-0.01-0.34-0.02-0.78-0.02
			c-0.24-0.03-0.36-0.09-0.36-0.2c0-0.12,0.1-0.18,0.29-0.18h0.37c0.07,0,0.23,0,0.48,0c0.22,0,0.42,0,0.6,0h2.96
			c0.07,0,0.15,0,0.25,0c0.23,0,0.35,0.07,0.35,0.22c0,0.09-0.04,0.15-0.12,0.16c-0.08,0.01-0.36,0.03-0.83,0.04
			c-0.19,0-0.32,0.01-0.39,0.04c-0.14,0.05-0.21,0.15-0.23,0.28c-0.01,0.05-0.02,0.44-0.02,1.15v7.25c0,1.78,0.29,3,0.87,3.64
			c0.58,0.65,1.44,0.97,2.59,0.97c2.1,0,3.29-1.17,3.57-3.5c0.04-0.35,0.06-1.83,0.06-4.45v-1.15v-1.62v-1.39c0-0.13,0-0.28,0-0.45
			c0-0.17,0-0.25,0-0.22c0-0.3-0.15-0.48-0.44-0.55c-0.1-0.03-0.38-0.04-0.85-0.04c-0.28,0-0.42-0.07-0.42-0.22
			c0-0.12,0.1-0.18,0.29-0.18c0.11,0,0.2,0,0.27,0c0.17,0,0.77,0,1.81,0c0.15,0,0.33,0,0.52,0c0.18,0,0.31,0,0.4,0h0.31
			C904.06,690.75,904.22,690.81,904.22,690.93z"/>
		<path fill="#4D4D4E" d="M916.71,704.23c0,0.57-0.48,0.85-1.45,0.85c-1.08,0-1.92-0.44-2.53-1.32c-0.26-0.38-0.43-0.74-0.51-1.1
			c-0.08-0.35-0.19-1.25-0.34-2.68c-0.08-0.87-0.37-1.48-0.85-1.84c-0.48-0.36-1.27-0.55-2.36-0.58v6.39c0,0.27,0.22,0.44,0.66,0.51
			c0.12,0.01,0.44,0.03,0.95,0.04c0.18,0,0.27,0.05,0.27,0.16c0,0.12-0.12,0.18-0.35,0.18h-0.25c-0.12,0-0.73,0-1.8,0
			c-0.21,0-0.56,0-1.06,0c-0.48,0-0.8,0-0.95,0h-0.81c-0.3,0-0.46-0.06-0.46-0.18c0-0.09,0.2-0.15,0.6-0.16
			c0.65-0.01,1-0.09,1.06-0.24c0.06-0.07,0.08-0.33,0.08-0.79v-11.21c0-0.54-0.06-0.87-0.18-0.97s-0.47-0.17-1.07-0.18
			c-0.35,0-0.52-0.06-0.52-0.18c0-0.14,0.11-0.2,0.33-0.2c0.04,0,0.1,0.01,0.19,0.02l2.76,0.06c0.28,0,0.66-0.01,1.16-0.03
			c0.55-0.04,0.94-0.05,1.16-0.05c1.29,0,2.3,0.28,3.06,0.84s1.13,1.32,1.13,2.28c0,0.95-0.39,1.73-1.16,2.34
			c-0.77,0.62-1.82,0.98-3.15,1.09c-0.12,0.01-0.19,0.03-0.21,0.06c0,0.05,0.07,0.08,0.21,0.08c1.45,0.24,2.45,0.74,3,1.5
			c0.54,0.75,0.91,2.11,1.09,4.08c0.11,1.11,0.5,1.67,1.16,1.67c0.21,0,0.31-0.04,0.31-0.12c0-0.01-0.01-0.03-0.02-0.04
			c-0.07-0.15-0.1-0.27-0.1-0.37c0-0.28,0.15-0.43,0.46-0.43C916.55,703.72,916.71,703.89,916.71,704.23z M912.42,694.06
			c0-1.94-0.86-2.9-2.57-2.9c-0.46,0-0.77,0.06-0.93,0.18c-0.17,0.12-0.25,0.34-0.25,0.65v5.16c1.33,0.01,2.28-0.22,2.87-0.71
			C912.13,695.95,912.42,695.16,912.42,694.06z"/>
		<path fill="#4D4D4E" d="M928.24,701.57c0,0.05-0.01,0.39-0.04,1c-0.03,0.61-0.04,1.19-0.04,1.75v0.67
			c-1.35-0.08-4.04-0.12-8.04-0.12c-0.48,0-0.96,0-1.43,0c-0.47,0-0.79,0-0.95,0h-0.21c-0.26,0-0.39-0.05-0.39-0.16
			c0-0.07,0.04-0.12,0.12-0.13c0.04,0,0.3-0.02,0.79-0.05c0.36-0.03,0.58-0.1,0.65-0.22c0.08-0.12,0.11-0.44,0.11-0.96v-11.44
			c0-0.39-0.06-0.63-0.18-0.7c-0.12-0.07-0.49-0.11-1.13-0.11c-0.22,0-0.33-0.06-0.33-0.17c0-0.12,0.15-0.17,0.46-0.17h3.54
			c0.12,0,0.9,0,2.34,0s2.4,0,2.9,0c0.41,0,0.79-0.03,1.14-0.08c0.03,0.58,0.09,1.39,0.19,2.42l0.08,0.87
			c0.01,0.07,0.02,0.16,0.02,0.26c0,0.13-0.06,0.2-0.19,0.2c-0.15,0-0.26-0.17-0.33-0.51c-0.26-1.23-0.69-2-1.29-2.33
			c-0.44-0.24-1.6-0.37-3.48-0.37h-1.7v5.97h0.5c1.55,0,2.49-0.11,2.83-0.34c0.34-0.23,0.57-0.9,0.69-2.01
			c0.03-0.28,0.1-0.43,0.23-0.43c0.15,0,0.23,0.12,0.23,0.37c0,0.24-0.01,0.6-0.04,1.08c-0.03,0.47-0.04,0.83-0.04,1.08
			c0,1.45,0.02,2.44,0.07,2.98c0.01,0.14,0.02,0.25,0.02,0.34c0,0.18-0.08,0.26-0.23,0.26c-0.1,0-0.16-0.06-0.2-0.17
			s-0.09-0.49-0.17-1.13c-0.11-0.8-0.45-1.29-1.01-1.48c-0.25-0.08-0.89-0.12-1.94-0.12h-0.93v6.8c3.04,0,4.82-0.06,5.35-0.18
			c0.91-0.2,1.43-1.06,1.55-2.57c0.03-0.33,0.12-0.5,0.27-0.5C928.17,701.15,928.24,701.29,928.24,701.57z"/>
		<path fill="#4D4D4E" d="M954.5,698.76c0,0.15-0.24,0.22-0.71,0.22c-1.07,0-1.66,0.15-1.78,0.46c-0.08,0.21-0.12,1.05-0.12,2.51
			v0.92c-1.03,0.85-2,1.44-2.93,1.79c-0.93,0.35-2.04,0.52-3.35,0.52c-3.12,0-5.6-0.91-7.43-2.74c-1.83-1.83-2.75-4.31-2.75-7.44
			c0-3.17,0.9-5.73,2.69-7.68c1.8-1.95,4.17-2.93,7.11-2.93c1.28,0,2.68,0.35,4.21,1.04c0.45,0.21,0.83,0.32,1.12,0.32
			c0.38,0,0.62-0.23,0.74-0.7c0.1-0.27,0.22-0.41,0.36-0.41c0.16,0,0.24,0.09,0.24,0.26c0,0.02-0.02,0.2-0.05,0.55
			c-0.12,1.14-0.17,1.98-0.15,2.52v1.57c0.02,0.79,0.01,1.29-0.03,1.48c-0.04,0.19-0.15,0.29-0.33,0.29s-0.28-0.14-0.3-0.41
			c-0.1-1.86-0.65-3.33-1.66-4.41c-1.01-1.08-2.33-1.62-3.97-1.62c-2.05,0-3.68,0.9-4.87,2.69c-1.2,1.79-1.79,4.24-1.79,7.34
			c0,3.01,0.61,5.39,1.82,7.14c1.21,1.75,2.86,2.63,4.93,2.63c1.58,0,2.67-0.45,3.26-1.34c0.29-0.45,0.44-1.25,0.44-2.42
			c0-0.97-0.09-1.54-0.28-1.72s-0.83-0.25-1.94-0.23c-0.28,0-0.45-0.01-0.53-0.04c-0.08-0.03-0.12-0.08-0.12-0.17
			c0-0.19,0.22-0.29,0.65-0.29h0.53c0.43,0.02,1.52,0.02,3.26,0h2.37c0.14,0,0.29,0,0.44,0s0.27,0,0.33,0
			C954.31,698.49,954.5,698.58,954.5,698.76z"/>
		<path fill="#4D4D4E" d="M966.16,704.23c0,0.57-0.48,0.85-1.45,0.85c-1.08,0-1.92-0.44-2.53-1.32c-0.26-0.38-0.43-0.74-0.51-1.1
			c-0.08-0.35-0.19-1.25-0.34-2.68c-0.08-0.87-0.37-1.48-0.85-1.84c-0.48-0.36-1.27-0.55-2.36-0.58v6.39c0,0.27,0.22,0.44,0.66,0.51
			c0.12,0.01,0.44,0.03,0.95,0.04c0.18,0,0.27,0.05,0.27,0.16c0,0.12-0.12,0.18-0.35,0.18h-0.25c-0.12,0-0.73,0-1.8,0
			c-0.21,0-0.56,0-1.06,0c-0.48,0-0.8,0-0.95,0h-0.81c-0.3,0-0.46-0.06-0.46-0.18c0-0.09,0.2-0.15,0.6-0.16
			c0.65-0.01,1-0.09,1.06-0.24c0.06-0.07,0.08-0.33,0.08-0.79v-11.21c0-0.54-0.06-0.87-0.18-0.97s-0.47-0.17-1.07-0.18
			c-0.35,0-0.52-0.06-0.52-0.18c0-0.14,0.11-0.2,0.33-0.2c0.04,0,0.1,0.01,0.19,0.02l2.76,0.06c0.28,0,0.66-0.01,1.16-0.03
			c0.55-0.04,0.94-0.05,1.16-0.05c1.29,0,2.3,0.28,3.06,0.84s1.13,1.32,1.13,2.28c0,0.95-0.39,1.73-1.16,2.34
			c-0.77,0.62-1.82,0.98-3.15,1.09c-0.12,0.01-0.19,0.03-0.21,0.06c0,0.05,0.07,0.08,0.21,0.08c1.45,0.24,2.45,0.74,3,1.5
			c0.54,0.75,0.91,2.11,1.09,4.08c0.11,1.11,0.5,1.67,1.16,1.67c0.21,0,0.31-0.04,0.31-0.12c0-0.01-0.01-0.03-0.02-0.04
			c-0.07-0.15-0.1-0.27-0.1-0.37c0-0.28,0.15-0.43,0.46-0.43C966,703.72,966.16,703.89,966.16,704.23z M961.87,694.06
			c0-1.94-0.86-2.9-2.57-2.9c-0.46,0-0.77,0.06-0.93,0.18c-0.17,0.12-0.25,0.34-0.25,0.65v5.16c1.33,0.01,2.28-0.22,2.87-0.71
			C961.58,695.95,961.87,695.16,961.87,694.06z"/>
		<path fill="#4D4D4E" d="M979.45,704.71c0,0.12-0.1,0.17-0.31,0.17c-0.14,0-0.26-0.01-0.37-0.02l-2.63-0.08l-2.63,0.08
			c-0.1,0.01-0.2,0.02-0.31,0.02c-0.28,0-0.42-0.07-0.42-0.21c0-0.16,0.19-0.23,0.56-0.23c1.21-0.01,1.82-0.13,1.82-0.36
			c0-0.01-0.01-0.07-0.04-0.16l-0.17-0.54l-0.11-0.28c-0.12-0.42-0.43-1.35-0.91-2.78h-4.43c-0.83,2.17-1.24,3.41-1.24,3.74
			c0,0.19,0.08,0.3,0.25,0.35c0.04,0.01,0.39,0.04,1.04,0.08c0.4,0.01,0.6,0.08,0.6,0.2c0,0.13-0.18,0.2-0.54,0.2
			c-0.64,0-1.38-0.03-2.22-0.08c-0.21-0.01-0.42-0.02-0.64-0.02s-0.44,0.02-0.64,0.07c-0.11,0.02-0.2,0.03-0.27,0.03
			c-0.19,0-0.29-0.06-0.29-0.18s0.22-0.19,0.65-0.2c0.44-0.01,0.75-0.08,0.94-0.19c0.19-0.12,0.34-0.34,0.46-0.66
			c1.78-5,3.22-9.01,4.34-12.04c0.03-0.16,0.1-0.34,0.19-0.54l0.09-0.37c0.04-0.15,0.1-0.22,0.17-0.22c0.04,0,0.08,0.04,0.1,0.12
			c0.18,0.53,0.59,1.63,1.22,3.31c0.5,1.31,1.73,4.61,3.71,9.89c0.11,0.31,0.25,0.5,0.43,0.58c0.17,0.08,0.53,0.13,1.07,0.15
			C979.27,704.53,979.45,704.59,979.45,704.71z M973.81,699.85c-0.22-0.61-0.6-1.61-1.12-3.02l-1-2.81
			c-0.58,1.5-1.27,3.44-2.08,5.83H973.81z"/>
		<path fill="#4D4D4E" d="M988.84,694.12c0,1.31-0.57,2.33-1.72,3.07c-0.72,0.46-1.63,0.69-2.74,0.69c-0.47,0-1-0.05-1.6-0.14v5.77
			c0,0.31,0.01,0.51,0.04,0.59c0.07,0.19,0.22,0.3,0.46,0.34c0.4,0.05,0.79,0.08,1.16,0.08c0.15,0,0.23,0.05,0.23,0.14
			c0,0.14-0.1,0.2-0.29,0.2c-0.08,0-0.15,0-0.21,0c-0.76,0-2.19,0-4.29,0h-0.27c-0.41,0-0.62-0.07-0.62-0.2
			c0-0.1,0.14-0.14,0.44-0.14c0.65,0,1.02-0.06,1.12-0.18c0.11-0.05,0.17-0.19,0.19-0.41v-11.99c0-0.42-0.12-0.68-0.35-0.77
			c-0.14-0.05-0.38-0.08-0.73-0.08h-0.21c-0.04,0-0.09,0-0.14,0c-0.21,0-0.31-0.05-0.31-0.16c0-0.12,0.19-0.18,0.58-0.18h4.56
			c1.57,0,2.73,0.27,3.46,0.81C988.42,692.15,988.84,693.01,988.84,694.12z M986.66,694.14c0-2.04-0.87-3.06-2.61-3.06
			c-0.58,0-0.96,0.1-1.14,0.29c-0.08,0.08-0.12,0.29-0.12,0.63v5.43c0.11,0.01,0.23,0.02,0.37,0.02c0.91,0,1.69-0.2,2.32-0.59
			C986.27,696.37,986.66,695.46,986.66,694.14z"/>
		<path fill="#4D4D4E" d="M1003.12,704.66c0,0.12-0.13,0.18-0.39,0.18h-2.84c-0.19,0-0.47,0-0.84,0c-0.37,0-0.64,0-0.82,0
			c-0.27,0-0.41-0.05-0.41-0.16c0-0.11,0.32-0.18,0.96-0.22c0.34-0.03,0.54-0.08,0.59-0.17c0.05-0.09,0.08-0.4,0.08-0.94v-5.91
			h-6.24v5.74c0,0.61,0.05,0.97,0.14,1.08c0.1,0.11,0.42,0.18,0.97,0.22c0.36,0.03,0.54,0.09,0.54,0.18c0,0.12-0.14,0.18-0.41,0.18
			h-0.19c-0.33,0-0.68,0-1.05,0c-0.37,0-0.58,0-0.65,0c-0.19,0-0.48,0-0.87,0s-0.97,0-1.74,0c-0.28,0-0.41-0.05-0.41-0.16
			c0-0.11,0.14-0.18,0.41-0.2c0.18-0.01,0.37-0.03,0.56-0.04c0.3-0.03,0.5-0.09,0.58-0.2c0.04-0.07,0.06-0.45,0.06-1.13v-10.7
			c0-0.61-0.03-0.97-0.09-1.07c-0.06-0.11-0.28-0.17-0.65-0.18c-0.43-0.03-0.68-0.05-0.76-0.06c-0.08-0.01-0.11-0.07-0.11-0.17
			c0-0.11,0.09-0.17,0.27-0.17c0.06,0,0.17,0.01,0.35,0.02c0.35,0.03,1.16,0.04,2.45,0.04c0.71,0,1.2-0.01,1.47-0.03
			c0.1-0.02,0.22-0.03,0.37-0.03c0.25,0,0.37,0.07,0.37,0.2c0,0.12-0.22,0.18-0.67,0.18s-0.72,0.05-0.81,0.15
			c-0.09,0.1-0.13,0.42-0.13,0.97v4.68h6.24v-4.38c0-0.72-0.06-1.14-0.17-1.27s-0.5-0.19-1.16-0.17c-0.21,0-0.31-0.06-0.31-0.18
			s0.12-0.18,0.35-0.18h0.1c0.19,0,0.53,0,1.02,0c0.5,0,0.87,0,1.12,0c0.84,0,1.41,0,1.71,0s0.49,0,0.57,0
			c0.29,0,0.44,0.06,0.44,0.18s-0.3,0.19-0.91,0.2c-0.18,0-0.31,0.01-0.39,0.04c-0.14,0.04-0.22,0.12-0.26,0.22
			s-0.05,0.43-0.05,0.95v10.8c0,0.65,0.03,1.03,0.1,1.14c0.14,0.15,0.53,0.22,1.19,0.22
			C1003.01,704.47,1003.12,704.52,1003.12,704.66z"/>
		<path fill="#4D4D4E" d="M1009.71,704.67c0,0.12-0.08,0.17-0.25,0.17h-0.21c-0.08-0.04-1.03-0.06-2.83-0.06
			c-0.35,0-0.69,0.01-1.04,0.04c-0.18,0.01-0.46,0.02-0.83,0.02c-0.18,0-0.27-0.06-0.27-0.18c0-0.11,0.18-0.17,0.54-0.18
			c0.55-0.01,0.88-0.08,0.97-0.19c0.1-0.12,0.14-0.51,0.14-1.17V692.4c0-0.67-0.04-1.04-0.11-1.12c-0.08-0.14-0.47-0.22-1.15-0.24
			c-0.27-0.01-0.4-0.06-0.4-0.14c0-0.11,0.08-0.16,0.25-0.16h2.83c0.21,0,0.62,0.01,1.22,0.02l0.8-0.02c0.22,0,0.33,0.06,0.33,0.17
			c0,0.1-0.31,0.17-0.93,0.19c-0.35,0.01-0.57,0.07-0.65,0.18s-0.12,0.39-0.12,0.85v10.84c0,0.77,0.04,1.19,0.11,1.26
			c0.15,0.15,0.61,0.24,1.36,0.26C1009.63,704.5,1009.71,704.55,1009.71,704.67z"/>
		<path fill="#4D4D4E" d="M1022.85,700.29c0-0.01-0.01,0.17-0.04,0.55c-0.06,0.76-0.08,1.52-0.08,2.27c0,0.09,0.01,0.27,0.04,0.52
			c0.03,0.25,0.04,0.55,0.04,0.9v0.18c0,0.18-0.06,0.26-0.17,0.26s-0.21-0.1-0.29-0.3c-0.19-0.47-0.39-0.76-0.58-0.87
			c-1,0.85-2.19,1.28-3.59,1.28c-2.03,0-3.71-0.69-5.05-2.08c-1.33-1.39-2-3.14-2-5.25c0-2.12,0.61-3.86,1.83-5.21
			c1.22-1.35,2.8-2.02,4.74-2.02c0.71,0,1.27,0.06,1.69,0.17c0.42,0.12,0.94,0.35,1.56,0.7c0.3,0.18,0.53,0.26,0.68,0.26
			c0.12,0,0.24-0.11,0.35-0.32c0.18-0.38,0.32-0.57,0.43-0.57s0.17,0.05,0.17,0.16c0,0.05-0.01,0.14-0.04,0.26
			c-0.15,0.65-0.23,1.87-0.23,3.65c0,0.26-0.02,0.41-0.06,0.45s-0.1,0.06-0.17,0.06c-0.14,0-0.23-0.13-0.27-0.39
			c-0.18-1.08-0.44-1.89-0.77-2.42c-0.68-1.08-1.74-1.62-3.19-1.62c-1.12,0-2,0.37-2.65,1.1c-1.17,1.31-1.76,3.24-1.76,5.77
			c0,2.26,0.48,4.01,1.45,5.26c0.84,1.08,1.96,1.62,3.36,1.62c0.72,0,1.37-0.18,1.97-0.53c0.59-0.35,1.05-0.83,1.38-1.45
			c0.33-0.62,0.58-1.36,0.76-2.22c0.07-0.33,0.16-0.49,0.27-0.49C1022.78,699.99,1022.85,700.09,1022.85,700.29z"/>
		<path fill="#4D4D4E" d="M1043.26,697.8c0,2.39-0.85,4.25-2.55,5.58c-1.24,0.98-2.91,1.47-5,1.47c-0.06,0-0.3,0-0.74,0
			s-1.07,0-1.9,0h-1.04h-1.64c-0.1,0-0.2,0-0.31,0c-0.26,0-0.39-0.07-0.39-0.2c0-0.12,0.22-0.18,0.66-0.18c0.57,0,0.92-0.1,1.06-0.3
			c0.06-0.09,0.08-0.35,0.08-0.77v-10.94c0-0.66-0.05-1.05-0.16-1.16s-0.46-0.16-1.07-0.16c-0.32,0-0.48-0.07-0.48-0.22
			c0-0.11,0.12-0.16,0.35-0.16c-0.01,0,0.14,0,0.46,0c0.32,0,0.63,0,0.93,0h2.22c2.49,0,4.25,0.17,5.29,0.51
			c1.26,0.41,2.27,1.21,3.05,2.41S1043.26,696.24,1043.26,697.8z M1040.94,697.71c0-2.25-0.45-3.91-1.35-4.96
			c-0.9-1.05-2.3-1.58-4.21-1.58c-0.93,0-1.49,0.1-1.68,0.29c-0.08,0.1-0.12,0.42-0.12,0.98v10.83c0,0.38,0.01,0.61,0.03,0.69
			c0.02,0.08,0.08,0.15,0.18,0.2c0.33,0.16,1.03,0.24,2.09,0.24c1.49,0,2.69-0.52,3.61-1.55
			C1040.46,701.78,1040.94,700.06,1040.94,697.71z"/>
		<path fill="#4D4D4E" d="M1055.76,701.57c0,0.05-0.01,0.39-0.04,1c-0.03,0.61-0.04,1.19-0.04,1.75v0.67
			c-1.35-0.08-4.04-0.12-8.04-0.12c-0.48,0-0.96,0-1.43,0s-0.79,0-0.95,0h-0.21c-0.26,0-0.39-0.05-0.39-0.16
			c0-0.07,0.04-0.12,0.12-0.13c0.04,0,0.3-0.02,0.79-0.05c0.36-0.03,0.58-0.1,0.65-0.22s0.11-0.44,0.11-0.96v-11.44
			c0-0.39-0.06-0.63-0.18-0.7c-0.12-0.07-0.49-0.11-1.13-0.11c-0.22,0-0.33-0.06-0.33-0.17c0-0.12,0.15-0.17,0.46-0.17h3.54
			c0.12,0,0.91,0,2.34,0c1.44,0,2.4,0,2.9,0c0.41,0,0.79-0.03,1.14-0.08c0.03,0.58,0.09,1.39,0.19,2.42l0.08,0.87
			c0.01,0.07,0.02,0.16,0.02,0.26c0,0.13-0.06,0.2-0.19,0.2c-0.15,0-0.26-0.17-0.33-0.51c-0.26-1.23-0.69-2-1.29-2.33
			c-0.44-0.24-1.6-0.37-3.48-0.37h-1.7v5.97h0.5c1.55,0,2.49-0.11,2.83-0.34c0.34-0.23,0.57-0.9,0.7-2.01
			c0.03-0.28,0.1-0.43,0.23-0.43c0.15,0,0.23,0.12,0.23,0.37c0,0.24-0.01,0.6-0.04,1.08c-0.03,0.47-0.04,0.83-0.04,1.08
			c0,1.45,0.02,2.44,0.07,2.98c0.01,0.14,0.02,0.25,0.02,0.34c0,0.18-0.08,0.26-0.23,0.26c-0.1,0-0.16-0.06-0.2-0.17
			c-0.04-0.12-0.09-0.49-0.18-1.13c-0.11-0.8-0.45-1.29-1.01-1.48c-0.25-0.08-0.89-0.12-1.94-0.12h-0.93v6.8
			c3.04,0,4.82-0.06,5.35-0.18c0.91-0.2,1.43-1.06,1.55-2.57c0.03-0.33,0.12-0.5,0.27-0.5
			C1055.69,701.15,1055.76,701.29,1055.76,701.57z"/>
		<path fill="#4D4D4E" d="M1065.9,700.88c0,1.17-0.45,2.16-1.36,2.97c-0.9,0.82-1.99,1.23-3.26,1.23c-0.75,0-1.64-0.22-2.67-0.67
			c-0.28-0.12-0.48-0.18-0.62-0.18c-0.17,0-0.27,0.19-0.31,0.56c-0.01,0.19-0.1,0.29-0.27,0.29c-0.14,0-0.21-0.08-0.21-0.24
			c0-0.11,0.01-0.19,0.02-0.24c0.11-0.83,0.17-1.59,0.17-2.29c0-0.14-0.01-0.51-0.04-1.14c-0.01-0.08-0.02-0.19-0.02-0.33
			c0-0.2,0.08-0.3,0.25-0.3c0.14,0,0.23,0.16,0.29,0.49c0.36,2.43,1.53,3.65,3.5,3.65c0.84,0,1.5-0.23,1.96-0.7
			c0.46-0.47,0.69-1.13,0.69-1.98c0-0.76-0.22-1.4-0.67-1.94c-0.45-0.54-1.22-1.07-2.31-1.59c-1.31-0.64-2.22-1.25-2.74-1.85
			c-0.51-0.59-0.77-1.33-0.77-2.21c0-1.12,0.37-2.05,1.11-2.78c0.74-0.73,1.67-1.1,2.81-1.1c0.47,0,1.12,0.16,1.95,0.47
			c0.29,0.11,0.5,0.16,0.64,0.16c0.15,0,0.25-0.03,0.3-0.08c0.05-0.05,0.09-0.2,0.13-0.43c0.03-0.14,0.1-0.2,0.23-0.2
			c0.14,0,0.21,0.08,0.21,0.24c0,0.11-0.01,0.19-0.02,0.24c-0.04,0.32-0.06,0.72-0.06,1.18c0,0.65,0.03,1.16,0.1,1.54l0.02,0.33
			c0.01,0.15-0.05,0.22-0.19,0.22c-0.15,0-0.26-0.16-0.31-0.47c-0.15-0.8-0.51-1.46-1.08-2c-0.57-0.53-1.2-0.8-1.91-0.8
			c-0.69,0-1.24,0.22-1.65,0.65c-0.41,0.43-0.61,1.02-0.61,1.77c0,0.87,0.3,1.56,0.89,2.09c0.33,0.3,1.05,0.72,2.16,1.26
			c1.3,0.64,2.23,1.28,2.8,1.94C1065.61,699.29,1065.9,700.04,1065.9,700.88z"/>
		<path fill="#4D4D4E" d="M1072.49,704.67c0,0.12-0.08,0.17-0.25,0.17h-0.21c-0.08-0.04-1.03-0.06-2.83-0.06
			c-0.35,0-0.69,0.01-1.04,0.04c-0.18,0.01-0.46,0.02-0.83,0.02c-0.18,0-0.27-0.06-0.27-0.18c0-0.11,0.18-0.17,0.54-0.18
			c0.55-0.01,0.88-0.08,0.97-0.19c0.1-0.12,0.15-0.51,0.15-1.17V692.4c0-0.67-0.04-1.04-0.1-1.12c-0.08-0.14-0.47-0.22-1.15-0.24
			c-0.27-0.01-0.4-0.06-0.4-0.14c0-0.11,0.08-0.16,0.25-0.16h2.83c0.21,0,0.61,0.01,1.21,0.02l0.8-0.02c0.22,0,0.34,0.06,0.34,0.17
			c0,0.1-0.31,0.17-0.93,0.19c-0.35,0.01-0.57,0.07-0.65,0.18c-0.08,0.11-0.12,0.39-0.12,0.85v10.84c0,0.77,0.04,1.19,0.1,1.26
			c0.15,0.15,0.61,0.24,1.36,0.26C1072.41,704.5,1072.49,704.55,1072.49,704.67z"/>
		<path fill="#4D4D4E" d="M1087.25,700.59c0,0.1-0.17,0.15-0.5,0.15c-0.75,0-1.16,0.11-1.24,0.32c-0.06,0.15-0.08,0.73-0.08,1.76
			v0.65c-0.72,0.59-1.4,1.01-2.05,1.25s-1.43,0.36-2.34,0.36c-2.18,0-3.92-0.64-5.2-1.92s-1.93-3.01-1.93-5.21
			c0-2.22,0.63-4.01,1.89-5.38c1.26-1.37,2.92-2.05,4.97-2.05c0.9,0,1.88,0.24,2.94,0.73c0.32,0.15,0.58,0.22,0.79,0.22
			c0.26,0,0.44-0.16,0.52-0.49c0.07-0.19,0.15-0.28,0.25-0.28c0.11,0,0.17,0.06,0.17,0.18c0,0.01-0.01,0.14-0.04,0.39
			c-0.09,0.8-0.12,1.39-0.11,1.77v1.1c0.01,0.56,0.01,0.9-0.02,1.04c-0.03,0.14-0.1,0.2-0.23,0.2s-0.19-0.09-0.21-0.29
			c-0.07-1.3-0.46-2.33-1.16-3.09c-0.71-0.75-1.63-1.13-2.78-1.13c-1.44,0-2.57,0.63-3.41,1.88c-0.84,1.26-1.25,2.97-1.25,5.14
			c0,2.1,0.43,3.77,1.28,5c0.85,1.23,2,1.84,3.45,1.84c1.11,0,1.87-0.31,2.28-0.94c0.21-0.31,0.31-0.88,0.31-1.69
			c0-0.68-0.07-1.08-0.2-1.2c-0.13-0.12-0.58-0.18-1.36-0.16c-0.19,0-0.32-0.01-0.37-0.03c-0.06-0.02-0.08-0.06-0.08-0.12
			c0-0.13,0.15-0.2,0.46-0.2h0.37c0.3,0.01,1.06,0.01,2.28,0h1.66c0.1,0,0.2,0,0.31,0c0.11,0,0.19,0,0.23,0
			C1087.11,700.39,1087.25,700.46,1087.25,700.59z"/>
		<path fill="#4D4D4E" d="M1100.12,690.93c0,0.13-0.17,0.2-0.52,0.18h-0.46h-0.37c-0.22,0-0.35,0.04-0.39,0.11s-0.06,0.3-0.06,0.68
			v11.68c0,0.72-0.01,1.14-0.02,1.26c-0.01,0.12-0.06,0.18-0.12,0.18c-0.08,0-0.18-0.08-0.29-0.22l-2.65-3.8
			c-1.54-2.21-3.4-4.96-5.6-8.26v11.33c0.01,0.18,0.12,0.29,0.31,0.33c0.2,0.05,0.66,0.08,1.4,0.09c0.18,0,0.27,0.05,0.27,0.16
			c0,0.14-0.18,0.2-0.54,0.2c-0.12,0-0.52-0.02-1.18-0.06c-0.22-0.01-0.43-0.02-0.64-0.02c0.01,0-0.11,0.01-0.36,0.04
			c-0.26,0.03-0.65,0.04-1.17,0.04h-0.21c-0.32,0-0.48-0.06-0.48-0.18c0-0.12,0.14-0.18,0.41-0.18c0.82-0.01,1.29-0.06,1.42-0.15
			s0.2-0.38,0.2-0.86v-10.02c0-1.12-0.24-1.83-0.71-2.11c-0.22-0.14-0.62-0.2-1.18-0.2c-0.36,0-0.54-0.07-0.54-0.21
			c0-0.13,0.1-0.19,0.31-0.19c0.28,0,0.63,0.01,1.06,0.04c0.43,0.03,0.66,0.04,0.68,0.04c0.04,0,0.23-0.01,0.58-0.02
			c0.46,0,0.9-0.02,1.33-0.06l7.15,10.45v-9.03c0-0.42-0.01-0.67-0.02-0.76c-0.01-0.09-0.07-0.16-0.17-0.2
			c-0.1-0.05-0.43-0.07-1-0.07c-0.5,0-0.75-0.06-0.75-0.18c0-0.14,0.17-0.2,0.5-0.2h0.73c0.18,0,0.37,0,0.58,0c0.22,0,0.35,0,0.39,0
			c0.01,0,0.14,0,0.37,0c0.22,0,0.43,0,0.62,0h0.64C1099.97,690.73,1100.12,690.8,1100.12,690.93z"/>
		<path fill="#4D4D4E" d="M1112.04,701.57c0,0.05-0.01,0.39-0.04,1c-0.03,0.61-0.04,1.19-0.04,1.75v0.67
			c-1.36-0.08-4.04-0.12-8.04-0.12c-0.48,0-0.96,0-1.43,0c-0.47,0-0.79,0-0.95,0h-0.21c-0.26,0-0.39-0.05-0.39-0.16
			c0-0.07,0.04-0.12,0.12-0.13c0.04,0,0.3-0.02,0.79-0.05c0.36-0.03,0.58-0.1,0.65-0.22s0.11-0.44,0.11-0.96v-11.44
			c0-0.39-0.06-0.63-0.18-0.7c-0.12-0.07-0.49-0.11-1.13-0.11c-0.22,0-0.33-0.06-0.33-0.17c0-0.12,0.15-0.17,0.46-0.17h3.54
			c0.12,0,0.91,0,2.34,0s2.4,0,2.9,0c0.42,0,0.79-0.03,1.14-0.08c0.03,0.58,0.09,1.39,0.19,2.42l0.08,0.87
			c0.01,0.07,0.02,0.16,0.02,0.26c0,0.13-0.06,0.2-0.19,0.2c-0.15,0-0.26-0.17-0.33-0.51c-0.26-1.23-0.69-2-1.29-2.33
			c-0.44-0.24-1.6-0.37-3.48-0.37h-1.7v5.97h0.5c1.55,0,2.49-0.11,2.83-0.34c0.34-0.23,0.57-0.9,0.69-2.01
			c0.03-0.28,0.1-0.43,0.23-0.43c0.15,0,0.23,0.12,0.23,0.37c0,0.24-0.01,0.6-0.04,1.08c-0.03,0.47-0.04,0.83-0.04,1.08
			c0,1.45,0.02,2.44,0.07,2.98c0.01,0.14,0.02,0.25,0.02,0.34c0,0.18-0.08,0.26-0.23,0.26c-0.1,0-0.16-0.06-0.2-0.17
			c-0.04-0.12-0.09-0.49-0.18-1.13c-0.11-0.8-0.45-1.29-1.01-1.48c-0.25-0.08-0.89-0.12-1.94-0.12h-0.93v6.8
			c3.04,0,4.82-0.06,5.35-0.18c0.91-0.2,1.43-1.06,1.55-2.57c0.03-0.33,0.12-0.5,0.27-0.5
			C1111.97,701.15,1112.04,701.29,1112.04,701.57z"/>
		<path fill="#4D4D4E" d="M1124.76,704.23c0,0.57-0.48,0.85-1.45,0.85c-1.08,0-1.92-0.44-2.53-1.32c-0.26-0.38-0.43-0.74-0.51-1.1
			c-0.08-0.35-0.19-1.25-0.34-2.68c-0.08-0.87-0.37-1.48-0.85-1.84c-0.48-0.36-1.27-0.55-2.36-0.58v6.39c0,0.27,0.22,0.44,0.66,0.51
			c0.12,0.01,0.44,0.03,0.95,0.04c0.18,0,0.27,0.05,0.27,0.16c0,0.12-0.12,0.18-0.35,0.18H1118c-0.12,0-0.73,0-1.8,0
			c-0.21,0-0.56,0-1.06,0c-0.48,0-0.8,0-0.95,0h-0.81c-0.3,0-0.46-0.06-0.46-0.18c0-0.09,0.2-0.15,0.6-0.16
			c0.65-0.01,1-0.09,1.06-0.24c0.06-0.07,0.08-0.33,0.08-0.79v-11.21c0-0.54-0.06-0.87-0.18-0.97s-0.47-0.17-1.07-0.18
			c-0.35,0-0.52-0.06-0.52-0.18c0-0.14,0.11-0.2,0.33-0.2c0.04,0,0.1,0.01,0.19,0.02l2.76,0.06c0.28,0,0.66-0.01,1.16-0.03
			c0.55-0.04,0.94-0.05,1.16-0.05c1.29,0,2.3,0.28,3.06,0.84s1.13,1.32,1.13,2.28c0,0.95-0.39,1.73-1.16,2.34
			c-0.77,0.62-1.82,0.98-3.15,1.09c-0.12,0.01-0.19,0.03-0.21,0.06c0,0.05,0.07,0.08,0.21,0.08c1.45,0.24,2.45,0.74,3,1.5
			c0.54,0.75,0.91,2.11,1.09,4.08c0.11,1.11,0.5,1.67,1.16,1.67c0.21,0,0.31-0.04,0.31-0.12c0-0.01-0.01-0.03-0.02-0.04
			c-0.07-0.15-0.1-0.27-0.1-0.37c0-0.28,0.15-0.43,0.46-0.43C1124.6,703.72,1124.76,703.89,1124.76,704.23z M1120.47,694.06
			c0-1.94-0.86-2.9-2.57-2.9c-0.46,0-0.77,0.06-0.93,0.18c-0.17,0.12-0.25,0.34-0.25,0.65v5.16c1.33,0.01,2.28-0.22,2.87-0.71
			C1120.18,695.95,1120.47,695.16,1120.47,694.06z"/>
	</g>
	<g>
		<path fill="#4D4D4E" d="M1073.92,104c0,0.19-0.15,0.29-0.44,0.29c-0.2,0-0.38-0.01-0.53-0.03l-3.76-0.14l-3.76,0.14
			c-0.14,0.02-0.29,0.03-0.44,0.03c-0.39,0-0.59-0.12-0.59-0.36c0-0.26,0.27-0.39,0.8-0.39c1.74-0.02,2.6-0.22,2.6-0.6
			c0-0.02-0.02-0.11-0.06-0.27l-0.24-0.9l-0.15-0.47c-0.18-0.7-0.61-2.26-1.3-4.66h-6.32c-1.18,3.63-1.77,5.71-1.77,6.26
			c0,0.32,0.12,0.51,0.36,0.58c0.06,0.02,0.55,0.07,1.48,0.14c0.57,0.02,0.86,0.14,0.86,0.34c0,0.23-0.26,0.34-0.77,0.34
			c-0.91,0-1.96-0.05-3.17-0.14c-0.3-0.02-0.6-0.03-0.92-0.03s-0.62,0.04-0.92,0.11c-0.16,0.04-0.29,0.06-0.38,0.06
			c-0.28,0-0.41-0.1-0.41-0.31c0-0.2,0.31-0.32,0.93-0.34c0.62-0.02,1.07-0.13,1.35-0.32s0.49-0.56,0.65-1.11
			c2.54-8.37,4.6-15.09,6.19-20.16c0.04-0.27,0.14-0.57,0.28-0.9l0.13-0.62c0.06-0.25,0.14-0.37,0.24-0.37
			c0.06,0,0.11,0.07,0.15,0.2c0.26,0.88,0.84,2.73,1.75,5.54c0.71,2.2,2.47,7.72,5.29,16.56c0.16,0.51,0.36,0.84,0.61,0.98
			c0.25,0.14,0.75,0.22,1.52,0.25C1073.67,103.7,1073.92,103.81,1073.92,104z M1065.88,95.86c-0.32-1.02-0.85-2.7-1.59-5.06
			l-1.42-4.71c-0.82,2.5-1.81,5.76-2.97,9.77H1065.88z"/>
		<path fill="#4D4D4E" d="M1083.46,99.89c0,1.62-0.64,2.82-1.93,3.59c-0.62,0.38-1.51,0.62-2.67,0.71
			c-0.32,0.02-1.26,0.02-2.82,0.02h-2.53c-0.23,0-0.35-0.07-0.35-0.2s0.21-0.2,0.64-0.2c0.5,0,0.79-0.06,0.88-0.18
			s0.13-0.48,0.13-1.08V89.68c0-0.7-0.03-1.1-0.08-1.21c-0.1-0.19-0.45-0.29-1.06-0.31c-0.37,0-0.56-0.08-0.56-0.25
			c0-0.15,0.17-0.23,0.52-0.23c0.01,0,0.1,0,0.25,0c0.15,0.05,0.29,0.07,0.41,0.07h4.04c1.49,0.02,2.6,0.3,3.33,0.86
			c0.86,0.65,1.28,1.59,1.28,2.83c0,1.08-0.35,1.96-1.06,2.65c-0.7,0.69-1.69,1.12-2.96,1.3v0.14c1.26,0.1,2.24,0.4,2.94,0.9
			C1082.94,97.2,1083.46,98.35,1083.46,99.89z M1080.69,91.68c0-1.52-0.3-2.54-0.91-3.05c-0.32-0.27-0.92-0.4-1.8-0.4
			c-0.24,0-0.6,0.02-1.1,0.07v6.9h0.19l1.14-0.05c0.79-0.03,1.4-0.35,1.83-0.96C1080.47,93.58,1080.69,92.74,1080.69,91.68z
			 M1081.29,99.63c0-2-0.7-3.24-2.11-3.71c-0.42-0.14-1.18-0.21-2.3-0.21v7.09c0,0.46,0.04,0.72,0.12,0.79
			c0.14,0.11,0.52,0.17,1.16,0.17c0.95,0,1.71-0.35,2.28-1.05C1081,102,1081.29,100.98,1081.29,99.63z"/>
		<path fill="#4D4D4E" d="M1098.45,96.06c0,2.36-0.62,4.36-1.85,6c-1.24,1.63-2.75,2.45-4.54,2.45c-1.91,0-3.51-0.83-4.8-2.49
			c-1.3-1.66-1.95-3.7-1.95-6.13c0-2.48,0.62-4.5,1.87-6.08c1.25-1.58,2.85-2.37,4.79-2.37c1.84,0,3.38,0.83,4.62,2.48
			C1097.83,91.57,1098.45,93.62,1098.45,96.06z M1096.13,96.18c0-2.91-0.52-5.18-1.55-6.8c-0.65-1.02-1.55-1.53-2.71-1.53
			c-1.1,0-1.96,0.39-2.57,1.17c-1.12,1.43-1.68,3.76-1.68,6.99c0,2.56,0.39,4.55,1.17,5.97c0.78,1.42,1.87,2.12,3.28,2.12
			c1.31,0,2.3-0.67,2.96-2C1095.77,100.62,1096.13,98.65,1096.13,96.18z"/>
		<path fill="#4D4D4E" d="M1112.93,87.92c0,0.13-0.12,0.19-0.37,0.19c-0.04,0-0.18,0-0.41,0c-0.07,0-0.17,0-0.29,0
			c-0.35,0-0.55,0.1-0.62,0.31c-0.03,0.11-0.04,0.29-0.04,0.55v8.91c0,2.31-0.38,4-1.13,5.05c-0.75,1.05-1.96,1.58-3.63,1.58
			c-2,0-3.41-0.65-4.22-1.95c-0.54-0.87-0.81-2.31-0.81-4.31v-9.54c-0.04-0.29-0.21-0.46-0.5-0.52c-0.08-0.02-0.34-0.02-0.78-0.02
			c-0.24-0.03-0.36-0.11-0.36-0.24c0-0.14,0.1-0.21,0.29-0.21h0.37c0.07,0,0.23,0,0.48,0c0.22,0,0.42,0,0.6,0h2.96
			c0.07,0,0.15,0,0.25,0c0.23,0,0.35,0.09,0.35,0.26c0,0.11-0.04,0.17-0.12,0.19s-0.36,0.03-0.83,0.05c-0.19,0-0.32,0.02-0.39,0.05
			c-0.14,0.06-0.21,0.17-0.23,0.33c-0.01,0.06-0.02,0.51-0.02,1.35v8.5c0,2.09,0.29,3.51,0.87,4.27c0.58,0.76,1.44,1.14,2.59,1.14
			c2.1,0,3.29-1.37,3.56-4.1c0.04-0.41,0.06-2.15,0.06-5.21v-1.35v-1.9v-1.63c0-0.16,0-0.33,0-0.52c0-0.21,0-0.29,0-0.26
			c0-0.35-0.14-0.56-0.43-0.64c-0.1-0.03-0.38-0.05-0.85-0.05c-0.28,0-0.41-0.09-0.41-0.26c0-0.14,0.1-0.21,0.29-0.21
			c0.11,0,0.2,0,0.27,0c0.17,0,0.77,0,1.81,0c0.15,0,0.33,0,0.52,0c0.18,0,0.31,0,0.4,0h0.31
			C1112.77,87.71,1112.93,87.78,1112.93,87.92z"/>
		<path fill="#4D4D4E" d="M1124.94,91.94c0,0.21-0.08,0.31-0.25,0.31c-0.17,0-0.28-0.21-0.35-0.62c-0.03-0.29-0.06-0.57-0.08-0.86
			c-0.1-0.57-0.26-1.06-0.48-1.45c-0.29-0.52-0.77-0.86-1.43-1c-0.43-0.1-0.77-0.13-1.04-0.12c-0.65,0.02-1.04,0.04-1.18,0.05v14.37
			c0,0.57,0.13,0.93,0.39,1.07c0.14,0.08,0.52,0.13,1.16,0.14c0.17,0.02,0.25,0.08,0.25,0.2c0,0.14-0.11,0.2-0.33,0.2
			c-0.11,0-0.21-0.01-0.29-0.02c-0.83-0.03-1.42-0.05-1.76-0.05c-0.46,0-0.88,0.01-1.28,0.04c-0.4,0.02-0.91,0.04-1.53,0.04
			c-0.32,0-0.48-0.06-0.48-0.19c0-0.14,0.3-0.22,0.89-0.24c0.43,0,0.7-0.1,0.83-0.31c0.07-0.13,0.1-0.45,0.1-0.98V88.25
			c-1.37,0.02-2.22,0.1-2.55,0.24c-0.87,0.37-1.38,1.34-1.53,2.93c-0.04,0.48-0.14,0.71-0.29,0.71c-0.17,0-0.25-0.17-0.25-0.5
			c0-0.17,0.01-0.35,0.02-0.52l0.04-0.55c0.04-0.73,0.1-1.69,0.19-2.88h0.93l4.22,0.07c0.5,0.02,1.27,0.02,2.32,0l3.44-0.07
			c0.03,0.89,0.12,2.21,0.27,3.95c0,0.05,0.01,0.11,0.02,0.18C1124.93,91.88,1124.94,91.93,1124.94,91.94z"/>
	</g>
	<g>
		<path fill="#4D4D4E" d="M908.39,98.68c0,0.09-0.02,0.65-0.06,1.67c-0.04,1.02-0.06,2-0.06,2.92v1.12
			c-1.93-0.14-5.76-0.2-11.48-0.2c-0.69,0-1.37,0-2.04,0c-0.67,0-1.12,0-1.36,0h-0.3c-0.38,0-0.56-0.09-0.56-0.27
			c0-0.12,0.06-0.19,0.18-0.21c0.06,0,0.43-0.03,1.12-0.09c0.51-0.05,0.82-0.17,0.93-0.38c0.11-0.2,0.16-0.74,0.16-1.6V82.47
			c0-0.66-0.08-1.05-0.25-1.18c-0.17-0.12-0.71-0.19-1.61-0.19c-0.32,0-0.47-0.1-0.47-0.29c0-0.19,0.22-0.29,0.65-0.29h5.06
			c0.18,0,1.29,0,3.34,0c2.05,0,3.43,0,4.14,0c0.59,0,1.13-0.05,1.63-0.14c0.04,0.98,0.13,2.32,0.27,4.05l0.12,1.46
			c0.02,0.11,0.03,0.26,0.03,0.44c0,0.23-0.09,0.34-0.27,0.34c-0.22,0-0.38-0.28-0.47-0.86c-0.38-2.05-0.99-3.35-1.83-3.9
			c-0.63-0.41-2.29-0.62-4.97-0.62h-2.42v10h0.71c2.21,0,3.55-0.19,4.04-0.58c0.48-0.38,0.81-1.51,0.99-3.37
			c0.04-0.48,0.15-0.71,0.33-0.71c0.22,0,0.33,0.2,0.33,0.61c0,0.41-0.02,1.01-0.06,1.8c-0.04,0.79-0.06,1.39-0.06,1.8
			c0,2.43,0.03,4.09,0.09,5c0.02,0.23,0.02,0.42,0.02,0.58c0,0.29-0.11,0.44-0.32,0.44c-0.14,0-0.23-0.1-0.28-0.29
			c-0.05-0.19-0.13-0.82-0.25-1.89c-0.16-1.34-0.64-2.16-1.44-2.48c-0.35-0.14-1.28-0.2-2.77-0.2h-1.33v11.39
			c4.34,0,6.88-0.1,7.63-0.3c1.3-0.34,2.04-1.77,2.22-4.3c0.04-0.56,0.17-0.84,0.38-0.84C908.3,97.97,908.39,98.21,908.39,98.68z"/>
		<path fill="#4D4D4E" d="M922.32,103.94c0,0.14-0.19,0.21-0.58,0.21c-0.47,0-0.95,0-1.44,0s-0.97,0-1.44,0c-0.61,0-1.31,0-2.11,0
			c-0.4,0-0.7,0-0.89,0c-0.4,0-0.6-0.07-0.6-0.22c0-0.14,0.16-0.2,0.48-0.18h0.93c0.33,0.02,0.53,0.01,0.6-0.02
			c0.21-0.05,0.31-0.2,0.31-0.46c0-0.24-0.18-0.76-0.54-1.56l-2.21-5.15l-2.6,5.06c-0.45,0.91-0.68,1.45-0.68,1.61
			c0,0.29,0.23,0.46,0.68,0.51c-0.03,0,0.28,0,0.93,0c0.25,0,0.37,0.07,0.37,0.21c0,0.13-0.1,0.19-0.31,0.19h-2.34h-1.76
			c-0.22,0-0.33-0.07-0.33-0.21c0-0.14,0.18-0.24,0.54-0.29c0.25-0.03,0.5-0.06,0.75-0.1c0.21-0.06,0.38-0.17,0.52-0.31
			c0.26-0.27,1.11-1.83,2.55-4.67c0.53-1.05,1-1.96,1.41-2.74l-2.35-5.1c-0.49-1.04-0.82-1.72-1.01-2.03
			c-0.19-0.31-0.38-0.51-0.59-0.6c-0.22-0.05-0.66-0.07-1.31-0.07c-0.17,0-0.25-0.06-0.25-0.19c0-0.17,0.11-0.26,0.33-0.26
			c0.3,0,0.93,0.02,1.88,0.05c0.47,0.02,0.79,0.02,0.97,0.02c1.62,0,2.5-0.02,2.67-0.07h0.29c0.29,0,0.43,0.06,0.43,0.19
			c0,0.18-0.24,0.26-0.73,0.26c-0.91-0.02-1.36,0.11-1.36,0.38c0,0.29,0.78,2.15,2.34,5.59c0.56-0.96,1.18-2.09,1.85-3.4
			c0.67-1.31,1.01-2.05,1.01-2.21c0-0.24-0.38-0.36-1.14-0.36c-0.37,0-0.56-0.07-0.56-0.22c0-0.16,0.13-0.24,0.39-0.24
			c0.18,0,0.44,0.01,0.79,0.04c0.34,0.02,0.61,0.04,0.79,0.04c0.07,0,0.39-0.01,0.96-0.04c0.57-0.02,0.91-0.04,1-0.04h0.19
			c0.24,0,0.35,0.07,0.35,0.2s-0.09,0.2-0.27,0.2c-0.03,0-0.25,0.01-0.66,0.02c-0.47,0.02-0.79,0.11-0.96,0.29
			c-0.17,0.18-0.47,0.69-0.88,1.53c-0.54,1.11-1.33,2.59-2.36,4.42l-0.23,0.41c0.1,0.21,1.03,2.29,2.8,6.26
			c0.61,1.36,1.04,2.18,1.3,2.44c0.26,0.26,0.78,0.38,1.55,0.37C922.15,103.73,922.32,103.8,922.32,103.94z"/>
		<path fill="#4D4D4E" d="M932.24,91.59c0,1.54-0.57,2.74-1.72,3.59c-0.72,0.54-1.63,0.81-2.73,0.81c-0.47,0-1-0.06-1.59-0.17v6.76
			c0,0.37,0.01,0.6,0.04,0.69c0.07,0.22,0.22,0.36,0.46,0.4c0.4,0.06,0.79,0.1,1.16,0.1c0.15,0,0.23,0.06,0.23,0.17
			c0,0.16-0.1,0.24-0.29,0.24c-0.08,0-0.15,0-0.21,0c-0.76,0-2.19,0-4.29,0h-0.27c-0.41,0-0.62-0.08-0.62-0.24
			c0-0.11,0.14-0.17,0.43-0.17c0.65,0,1.02-0.07,1.12-0.21c0.11-0.06,0.17-0.22,0.19-0.48V89.02c0-0.49-0.12-0.79-0.35-0.91
			c-0.14-0.06-0.38-0.1-0.72-0.1h-0.21c-0.04,0-0.09,0-0.14,0c-0.21,0-0.31-0.06-0.31-0.19c0-0.14,0.19-0.21,0.58-0.21h4.56
			c1.57,0,2.73,0.32,3.46,0.95C931.82,89.28,932.24,90.29,932.24,91.59z M930.06,91.62c0-2.4-0.87-3.59-2.61-3.59
			c-0.58,0-0.96,0.11-1.14,0.34c-0.08,0.1-0.12,0.34-0.12,0.74v6.37c0.11,0.02,0.23,0.02,0.37,0.02c0.91,0,1.68-0.23,2.32-0.69
			C929.67,94.23,930.06,93.16,930.06,91.62z"/>
		<path fill="#4D4D4E" d="M943.83,102.28c0,0.41-0.02,1.1-0.06,2.05h-0.23c-0.08,0-0.28-0.02-0.6-0.05
			c-0.32-0.03-0.67-0.05-1.07-0.05l-8.6-0.07c-0.23,0-0.35-0.07-0.35-0.21c0-0.11,0.19-0.18,0.56-0.21c0.52-0.03,0.84-0.1,0.94-0.2
			c0.1-0.1,0.16-0.4,0.16-0.89V89.26c0-0.59-0.05-0.93-0.16-1.02s-0.47-0.14-1.11-0.14c-0.26,0-0.39-0.09-0.39-0.26
			c0-0.14,0.08-0.21,0.25-0.21h0.19c0.46,0.05,1.36,0.07,2.71,0.07c0.12,0,0.37-0.01,0.72-0.04c0.36-0.02,0.66-0.04,0.89-0.04h0.23
			c0.25,0,0.37,0.08,0.37,0.24c0,0.1-0.04,0.15-0.11,0.18c-0.08,0.02-0.31,0.04-0.71,0.06c-0.4,0.02-0.64,0.09-0.71,0.23
			c-0.08,0.13-0.11,0.55-0.11,1.25v14.04c0.37,0.02,0.89,0.02,1.55,0.02c1.62,0,2.75-0.1,3.42-0.29c0.66-0.19,1.11-0.55,1.35-1.07
			c0.23-0.52,0.37-1.23,0.41-2.12c0.01-0.21,0.09-0.31,0.24-0.31c0.17,0,0.25,0.12,0.24,0.36v0.59c0,0.03,0,0.1,0,0.21
			c0,0.11,0,0.22,0,0.33V102.28z"/>
		<path fill="#4D4D4E" d="M958.08,96c0,2.36-0.62,4.36-1.85,6c-1.24,1.63-2.75,2.45-4.54,2.45c-1.91,0-3.51-0.83-4.8-2.49
			c-1.3-1.66-1.95-3.7-1.95-6.13c0-2.48,0.62-4.5,1.87-6.08c1.25-1.58,2.85-2.37,4.79-2.37c1.84,0,3.38,0.83,4.62,2.48
			C957.46,91.51,958.08,93.55,958.08,96z M955.76,96.12c0-2.91-0.52-5.18-1.55-6.8c-0.65-1.02-1.55-1.53-2.71-1.53
			c-1.1,0-1.96,0.39-2.57,1.17c-1.12,1.43-1.68,3.76-1.68,6.99c0,2.56,0.39,4.55,1.17,5.97c0.78,1.42,1.87,2.12,3.28,2.12
			c1.31,0,2.3-0.67,2.96-2C955.39,100.55,955.76,98.58,955.76,96.12z"/>
		<path fill="#4D4D4E" d="M971.25,103.44c0,0.67-0.48,1-1.45,1c-1.08,0-1.92-0.52-2.53-1.55c-0.26-0.44-0.43-0.87-0.51-1.29
			s-0.19-1.46-0.34-3.14c-0.08-1.02-0.37-1.73-0.85-2.15c-0.48-0.42-1.27-0.65-2.36-0.68v7.5c0,0.32,0.22,0.52,0.66,0.6
			c0.12,0.02,0.44,0.03,0.95,0.05c0.18,0,0.27,0.06,0.27,0.19c0,0.14-0.12,0.21-0.35,0.21h-0.25c-0.12,0-0.72,0-1.8,0
			c-0.21,0-0.56,0-1.06,0c-0.48,0-0.8,0-0.95,0h-0.81c-0.3,0-0.46-0.07-0.46-0.21c0-0.11,0.2-0.17,0.6-0.19
			c0.65-0.02,1-0.11,1.06-0.29c0.05-0.08,0.08-0.39,0.08-0.93V89.43c0-0.63-0.06-1.02-0.18-1.14s-0.47-0.2-1.07-0.21
			c-0.35,0-0.52-0.07-0.52-0.21c0-0.16,0.11-0.24,0.33-0.24c0.04,0,0.1,0.01,0.19,0.02l2.75,0.07c0.28,0,0.66-0.01,1.16-0.03
			c0.55-0.04,0.94-0.06,1.16-0.06c1.28,0,2.3,0.33,3.05,0.99c0.75,0.66,1.13,1.55,1.13,2.68c0,1.11-0.39,2.03-1.16,2.75
			c-0.77,0.72-1.82,1.15-3.15,1.27c-0.12,0.02-0.19,0.04-0.21,0.07c0,0.06,0.07,0.1,0.21,0.1c1.45,0.29,2.45,0.87,2.99,1.75
			c0.54,0.88,0.91,2.48,1.09,4.79c0.11,1.3,0.5,1.96,1.16,1.96c0.21,0,0.31-0.05,0.31-0.14c0-0.02-0.01-0.03-0.02-0.05
			c-0.07-0.17-0.1-0.32-0.1-0.43c0-0.33,0.15-0.5,0.46-0.5C971.08,102.85,971.25,103.05,971.25,103.44z M966.96,91.52
			c0-2.27-0.86-3.4-2.57-3.4c-0.46,0-0.77,0.07-0.93,0.21c-0.17,0.14-0.25,0.4-0.25,0.76v6.05c1.33,0.02,2.28-0.26,2.87-0.83
			C966.67,93.73,966.96,92.81,966.96,91.52z"/>
		<path fill="#4D4D4E" d="M982.76,100.33c0,0.06-0.01,0.45-0.04,1.17c-0.03,0.71-0.04,1.4-0.04,2.05v0.79
			c-1.35-0.1-4.03-0.14-8.03-0.14c-0.48,0-0.96,0-1.43,0c-0.47,0-0.79,0-0.95,0h-0.21c-0.26,0-0.39-0.06-0.39-0.19
			c0-0.09,0.04-0.14,0.12-0.15c0.04,0,0.3-0.02,0.79-0.06c0.36-0.03,0.58-0.12,0.65-0.26c0.08-0.14,0.11-0.52,0.11-1.12V88.98
			c0-0.46-0.06-0.74-0.18-0.82s-0.49-0.13-1.13-0.13c-0.22,0-0.33-0.07-0.33-0.2c0-0.13,0.15-0.2,0.46-0.2h3.54c0.12,0,0.9,0,2.34,0
			c1.44,0,2.4,0,2.9,0c0.41,0,0.79-0.03,1.14-0.1c0.03,0.68,0.09,1.63,0.19,2.83l0.08,1.02c0.01,0.08,0.02,0.18,0.02,0.31
			c0,0.16-0.06,0.24-0.19,0.24c-0.15,0-0.26-0.2-0.33-0.6c-0.26-1.44-0.69-2.35-1.28-2.73c-0.44-0.29-1.6-0.43-3.48-0.43h-1.7v7h0.5
			c1.55,0,2.49-0.13,2.83-0.4c0.34-0.27,0.57-1.06,0.69-2.36c0.03-0.33,0.1-0.5,0.23-0.5c0.15,0,0.23,0.14,0.23,0.43
			s-0.01,0.71-0.04,1.26c-0.03,0.56-0.04,0.98-0.04,1.26c0,1.7,0.02,2.86,0.07,3.5c0.01,0.16,0.02,0.29,0.02,0.4
			c0,0.21-0.08,0.31-0.23,0.31c-0.1,0-0.16-0.07-0.2-0.2s-0.09-0.58-0.17-1.32c-0.11-0.94-0.45-1.52-1.01-1.74
			c-0.25-0.1-0.89-0.14-1.94-0.14h-0.93v7.97c3.04,0,4.82-0.07,5.34-0.21c0.91-0.23,1.43-1.24,1.55-3.01
			c0.03-0.39,0.12-0.59,0.27-0.59C982.69,99.83,982.76,99.99,982.76,100.33z"/>
	</g>
	<g>
	</g>
	<g>
	</g>
	<g>
	</g>
	<g>
	</g>
	<g>
	</g>
	<g>
	</g>
	<g>
	</g>
	<g>
	</g>
	<g>
	</g>
	<g>
	</g>
	<g>
	</g>
	<g>
	</g>
	<g>
	</g>
	<g>
	</g>
	<g>
	</g>
</g>
</svg>
