<?xml version="1.0" encoding="utf-8"?>
<!-- Generator: Adobe Illustrator 28.2.0, SVG Export Plug-In . SVG Version: 6.00 Build 0)  -->
<svg version="1.1" id="Layer_1" xmlns="http://www.w3.org/2000/svg" xmlns:xlink="http://www.w3.org/1999/xlink" x="0px" y="0px"
	 viewBox="0 0 1920 1080" enable-background="new 0 0 1920 1080" xml:space="preserve">
<g>
	<defs>
		<rect id="SVGID_1_" x="0" y="-1" width="1919" height="1081"/>
	</defs>
	<clipPath id="SVGID_00000000217917839153483810000007011013613177898392_">
		<use xlink:href="#SVGID_1_"  overflow="visible"/>
	</clipPath>
	<g clip-path="url(#SVGID_00000000217917839153483810000007011013613177898392_)">
		<rect x="-16.52" y="0.6" fill="#E4D2BC" width="1984.58" height="691.69"/>
	</g>
	
		<rect x="344.35" y="238.81" opacity="0.36" clip-path="url(#SVGID_00000000217917839153483810000007011013613177898392_)" fill="#EE9C9B" width="1464.54" height="849.65"/>
	
		<rect x="-16.52" y="65.57" clip-path="url(#SVGID_00000000217917839153483810000007011013613177898392_)" fill="#FFFFFF" width="2044.64" height="100.63"/>
	
		<rect x="972.01" y="659" clip-path="url(#SVGID_00000000217917839153483810000007011013613177898392_)" fill="#FFFFFF" width="732.76" height="346.48"/>
	<g clip-path="url(#SVGID_00000000217917839153483810000007011013613177898392_)">
		<g opacity="0.18">
			<path fill="#666667" d="M219.19,400.31l0.48-7.71c12.53,0,19.43-4.63,20.7-13.9l16.18-125.59c0-10.29-6.27-15.44-18.8-15.44
				l0.95-7.71h61.86l-0.95,7.71c-13.01,0-20.38,6.52-22.13,19.56L261.3,378.7c0,0.35-0.04,0.65-0.12,0.9
				c-0.08,0.26-0.12,0.56-0.12,0.9c0,6.01,4.28,9.01,12.85,9.01h9.75c6.5,0,12.13-0.3,16.89-0.9c4.76-0.6,9.12-2.27,13.09-5.01
				c3.96-2.74,7.65-7.02,11.06-12.85c3.41-5.82,7.1-13.96,11.06-24.41l5.71,1.03l-13.32,52.93H219.19z"/>
			<path fill="#666667" d="M340.1,400.31l0.67-5.4c9.33,0,14.6-4.14,15.82-12.43l10.83-83.77c0-4.08-1.11-7.14-3.33-9.19
				c-2.22-2.04-5.44-3.06-9.66-3.06l0.67-5.4h43.3l-0.67,5.4c-9.22,0-14.49,5.29-15.82,15.85l-10.66,80.17
				c-0.11,0.36-0.17,0.75-0.17,1.17c0,0.42,0,0.81,0,1.17c0,6.73,4.33,10.09,12.99,10.09l-0.5,5.4H340.1z"/>
			<path fill="#666667" d="M482.33,402.28L429.2,301.03l-9.33,72.48c-0.33,2.4-0.5,4.44-0.5,6.12c0,10.19,4.38,15.29,13.16,15.29
				l-0.5,5.4h-36.14l0.67-5.4c8.44,0,13.6-7.15,15.49-21.44l10.33-79.45c0-2.52-1.03-4.41-3.08-5.67
				c-2.06-1.26-5.69-1.89-10.91-1.89l0.83-5.4h27.31l46.96,89.75l8.49-64.52c0.33-1.92,0.5-3.78,0.5-5.59
				c0-9.49-4.39-14.24-13.16-14.24l0.67-5.4h35.97l-0.83,5.4c-9.22,0-14.66,6.61-16.32,19.81l-12.49,94.75L482.33,402.28z"/>
			<path fill="#666667" d="M510.31,400.31l0.67-5.4c4,0,7.35-0.99,10.08-2.97c2.72-1.98,4.36-4.89,4.91-8.74l10.99-84.85
				c0-7.92-4.33-11.89-12.99-11.89l0.67-5.4h78.77l-3.33,33.63l-4.66,0.72c-0.11-6.59-0.83-11.69-2.17-15.29
				c-1.33-3.6-3.19-6.23-5.58-7.91c-2.39-1.68-5.22-2.67-8.49-2.97c-3.28-0.3-6.8-0.45-10.58-0.45h-4c-4.22,0-7.27,0.66-9.16,1.98
				c-1.89,1.32-3,3.36-3.33,6.12l-4.33,32.19c0,0.24-0.03,0.48-0.08,0.72c-0.06,0.24-0.08,0.48-0.08,0.72c0,2.64,1,3.96,3,3.96h5.16
				c2.55,0,4.91-0.15,7.08-0.45c2.17-0.3,4.16-1.08,6-2.34c1.83-1.26,3.44-3.18,4.83-5.75c1.39-2.58,2.52-6.08,3.41-10.52h5.66
				L576.59,362h-5.5v-4.32c0-3.36-0.31-6.05-0.92-8.09c-0.61-2.04-1.58-3.6-2.91-4.68c-1.33-1.08-3.03-1.8-5.08-2.16
				c-2.06-0.36-4.53-0.54-7.41-0.54h-1.67c-4.77,0-7.38,1.98-7.83,5.94l-4.5,34.35c-0.11,0.48-0.17,1.08-0.17,1.8
				c0,5.64,3.66,8.45,10.99,8.45h4.5c6.33,0,11.49-0.57,15.49-1.71c4-1.14,7.35-2.94,10.08-5.4c2.72-2.46,5.02-5.54,6.91-9.26
				c1.89-3.72,3.94-8.09,6.16-13.13l3.83,1.44l-8.49,35.61H510.31z"/>
			<path fill="#666667" d="M618.55,400.31l0.5-5.4c4.88,0,8.91-1.38,12.07-4.14c3.16-2.76,5.13-6.89,5.91-12.41l11.16-82.91
				c0-2.28-0.45-3.96-1.33-5.04c-0.89-1.08-2.66-1.62-5.33-1.62c-12.99,0-22.71,10.25-29.15,30.75l-4.33-1.44l8.99-38.31
				c2.22,0.36,4.36,0.66,6.41,0.9c2.05,0.24,4.02,0.36,5.91,0.36H687c2.11,0,4.3-0.12,6.58-0.36c2.27-0.24,4.58-0.54,6.91-0.9
				l-5,37.59l-4.33,0.72c0.11-0.84,0.17-1.65,0.17-2.43c0-0.78,0-1.53,0-2.25c0-16.07-6.77-24.1-20.32-24.1
				c-4.89,0-7.61,2.04-8.16,6.11l-10.83,82.91c-0.11,0.6-0.19,1.2-0.25,1.8c-0.06,0.6-0.08,1.2-0.08,1.8
				c0,8.63,4.72,12.95,14.16,12.95l-0.5,5.4H618.55z"/>
			<path fill="#666667" d="M736.3,400.31l0.33-5.4c1.44-0.24,2.97-0.48,4.58-0.72c1.61-0.24,3.11-0.54,4.5-0.9
				c1.39-0.36,2.52-0.81,3.41-1.35c0.89-0.54,1.33-1.17,1.33-1.89c0-0.6-0.03-1.26-0.08-1.98c-0.06-0.72-0.2-1.86-0.42-3.42
				l-3.66-22.12c-0.33-1.56-1.39-2.73-3.16-3.51c-1.78-0.78-3.61-1.17-5.5-1.17h-22.15c-3.89,0-6.44,1.55-7.66,4.65l-7.66,18.61
				c-0.22,0.72-0.47,1.58-0.75,2.6c-0.28,1.01-0.42,2.12-0.42,3.31c0,4.65,4.05,6.98,12.16,6.98l-0.67,6.29h-33.64l1-6.29
				c2.89-0.24,5.41-1.44,7.58-3.59c2.17-2.15,4.25-5.27,6.25-9.34l49.63-102.71l4.16,2.16l21.48,106.67c0.44,3,1.5,4.85,3.16,5.57
				c1.67,0.72,4.27,1.38,7.83,1.98l-0.5,5.58H736.3z M735.63,303.73l-17.99,37.77c-0.89,1.56-1.53,2.88-1.92,3.96
				c-0.39,1.08-0.58,1.98-0.58,2.7c0,1.44,1.72,2.16,5.16,2.16h18.82c3.22,0,4.83-0.84,4.83-2.52c0-0.6-0.08-1.35-0.25-2.25
				c-0.17-0.9-0.36-2.01-0.58-3.33L735.63,303.73z"/>
			<path fill="#666667" d="M211.82,658.92l-0.24-5.91l100.16-151.59c-3.01-0.68-6.03-1.16-9.04-1.41c-3.02-0.26-5.95-0.39-8.8-0.39
				h-9.75c-7.14,0-13.09,0.69-17.84,2.06c-4.76,1.37-8.84,3.56-12.25,6.55c-3.41,3-6.39,6.94-8.92,11.82
				c-2.54,4.88-5.08,10.75-7.61,17.6h-6.42l10.71-50.87c2.7,0.51,5.35,0.94,7.97,1.28c2.62,0.35,5.27,0.51,7.97,0.51h81.6
				l-0.95,7.96L239.18,647.1c2.38,0.69,4.76,1.16,7.14,1.41c2.38,0.26,4.6,0.38,6.66,0.38h16.42c7.29,0,13.76-1.63,19.39-4.88
				c5.63-3.25,10.55-7.19,14.75-11.82c4.2-4.62,7.69-9.42,10.47-14.39c2.77-4.97,5.03-9.25,6.78-12.85l6.42,2.06l-12.37,51.9H211.82
				z"/>
			<path fill="#666667" d="M330.35,658.92l0.67-5.4c9.33,0,14.6-4.14,15.82-12.43l10.83-83.77c0-4.08-1.11-7.14-3.33-9.19
				c-2.22-2.04-5.44-3.06-9.66-3.06l0.67-5.4h43.3l-0.67,5.4c-9.22,0-14.49,5.29-15.82,15.85l-10.66,80.17
				c-0.11,0.36-0.17,0.75-0.17,1.17c0,0.42,0,0.81,0,1.17c0,6.73,4.33,10.09,12.99,10.09l-0.5,5.4H330.35z"/>
			<path fill="#666667" d="M456.08,595.25c7.1,1.32,12.77,4.08,16.99,8.27c4.22,4.2,6.33,9.71,6.33,16.55
				c0,7.44-1.17,13.67-3.5,18.7c-2.33,5.04-5.41,9.08-9.24,12.14c-3.83,3.06-8.13,5.28-12.91,6.65c-4.77,1.38-9.6,2.07-14.49,2.07
				c-4.22,0-8.3-0.03-12.24-0.09c-3.94-0.06-7.97-0.15-12.07-0.27c-4.11-0.12-8.3-0.21-12.57-0.27c-4.28-0.06-8.85-0.09-13.74-0.09
				l0.67-5.4c9.33,0,14.49-3.36,15.49-10.07l11.32-87.95c0-6.83-4.39-10.25-13.16-10.25l0.67-5.58h43.3c4.77,0,9.24,0.42,13.41,1.26
				c4.16,0.84,7.74,2.22,10.74,4.14c3,1.92,5.36,4.35,7.08,7.28c1.72,2.94,2.58,6.56,2.58,10.88c0,4.68-0.64,8.72-1.92,12.14
				c-1.28,3.42-3.06,6.36-5.33,8.81c-2.28,2.46-4.89,4.5-7.83,6.11c-2.94,1.62-6.08,3.03-9.41,4.23L456.08,595.25z M435.6,652.81
				c3.66,0,7.16-0.57,10.49-1.71c3.33-1.14,6.27-3,8.83-5.58c2.55-2.58,4.61-5.94,6.16-10.07c1.55-4.14,2.33-9.14,2.33-15.02
				c0-4.2-0.67-7.61-2-10.25c-1.33-2.64-3.22-4.7-5.66-6.21c-2.44-1.5-5.44-2.52-8.99-3.06c-3.55-0.54-7.49-0.81-11.82-0.81h-5.33
				c-2.89,0-4.66,2.28-5.33,6.83l-5,38.85c0,0.24-0.03,0.39-0.08,0.45c-0.06,0.06-0.08,0.21-0.08,0.45c0,4.08,3.33,6.11,9.99,6.11
				H435.6z M442.76,546.69c-6.89,0-10.66,2.22-11.32,6.65l-4.66,34.71c0,1.68,0.25,2.94,0.75,3.78c0.5,0.84,1.52,1.26,3.08,1.26
				c7.22,0,13.1-0.54,17.65-1.62c4.55-1.08,8.13-2.79,10.74-5.12c2.61-2.34,4.38-5.37,5.33-9.08c0.94-3.71,1.42-8.21,1.42-13.49
				c0-11.39-5.66-17.09-16.99-17.09H442.76z"/>
			<path fill="#666667" d="M490.22,658.92l0.67-5.4c4,0,7.35-0.99,10.08-2.97c2.72-1.98,4.36-4.89,4.91-8.74l10.99-84.85
				c0-7.92-4.33-11.89-12.99-11.89l0.67-5.4h78.77l-3.33,33.63l-4.66,0.72c-0.11-6.59-0.83-11.69-2.17-15.29
				c-1.33-3.6-3.19-6.23-5.58-7.91c-2.39-1.68-5.22-2.67-8.49-2.97c-3.28-0.3-6.8-0.45-10.58-0.45h-4c-4.22,0-7.27,0.66-9.16,1.98
				c-1.89,1.32-3,3.36-3.33,6.12l-4.33,32.19c0,0.24-0.03,0.48-0.08,0.72c-0.06,0.24-0.08,0.48-0.08,0.72c0,2.64,1,3.96,3,3.96h5.16
				c2.55,0,4.91-0.15,7.08-0.45c2.17-0.3,4.16-1.08,6-2.34s3.44-3.17,4.83-5.75c1.39-2.58,2.52-6.08,3.41-10.52h5.66l-6.16,46.58
				h-5.5v-4.32c0-3.35-0.31-6.05-0.92-8.09c-0.61-2.04-1.58-3.6-2.91-4.68c-1.33-1.08-3.03-1.8-5.08-2.16
				c-2.06-0.36-4.53-0.54-7.41-0.54h-1.67c-4.77,0-7.38,1.98-7.83,5.94l-4.5,34.35c-0.11,0.48-0.17,1.08-0.17,1.8
				c0,5.64,3.66,8.45,10.99,8.45h4.5c6.33,0,11.49-0.57,15.49-1.71c4-1.14,7.35-2.94,10.08-5.4c2.72-2.46,5.02-5.54,6.91-9.26
				c1.89-3.71,3.94-8.09,6.16-13.13l3.83,1.44L570,658.92H490.22z"/>
			<path fill="#666667" d="M682.08,643.27c-0.11,1.44-0.58,3.18-1.42,5.22c-0.83,2.04-1.92,3.96-3.25,5.76
				c-1.33,1.8-2.91,3.36-4.75,4.68c-1.83,1.32-3.8,1.98-5.91,1.98c-6,0-10.3-1.23-12.91-3.69c-2.61-2.46-4.3-6.44-5.08-11.96
				c-0.67-4.55-1.22-9.44-1.67-14.66c-0.44-5.22-1.19-10.01-2.25-14.39c-1.06-4.38-2.58-8.03-4.58-10.97
				c-2-2.94-4.77-4.41-8.33-4.41h-4.66c-2.78,0-4.39,0.66-4.83,1.98l-5.33,39.03c-0.11,0.48-0.17,1.14-0.17,1.98
				c0,6.47,4.16,9.71,12.49,9.71l-0.5,5.4h-42.13l0.67-5.4c3.66,0,6.83-0.99,9.49-2.97c2.67-1.98,4.27-4.88,4.83-8.72l11.49-87.23
				c0-6.23-4.28-9.35-12.82-9.35l0.67-5.58h18.65c3.33,0,6.16-0.03,8.49-0.09c2.33-0.06,4.58-0.15,6.74-0.27
				c2.17-0.12,4.44-0.21,6.83-0.27c2.39-0.06,5.36-0.09,8.91-0.09c4,0,7.66,0.63,10.99,1.89c3.33,1.26,6.22,3.03,8.66,5.31
				c2.44,2.28,4.33,4.98,5.66,8.09c1.33,3.12,2,6.47,2,10.07c0,4.8-0.81,9.05-2.41,12.77c-1.61,3.72-3.78,6.99-6.5,9.8
				c-2.72,2.82-5.94,5.13-9.66,6.92c-3.72,1.8-7.69,3.24-11.91,4.32v0.54c4.66,2.76,8.24,6.21,10.74,10.34
				c2.5,4.14,4.02,8.12,4.58,11.96c0.33,2.4,0.67,5.28,1,8.63c0.33,3.36,0.86,6.54,1.58,9.53c0.72,3,1.64,5.55,2.75,7.64
				c1.11,2.1,2.61,3.15,4.5,3.15c2.22,0,4.27-2.7,6.16-8.09L682.08,643.27z M634.94,593.81c3,0,6.08-0.3,9.24-0.9
				c3.16-0.6,6.08-1.92,8.74-3.96c2.66-2.04,4.83-4.92,6.5-8.63c1.67-3.71,2.5-8.75,2.5-15.11c0-3.6-0.58-6.59-1.75-8.99
				c-1.17-2.4-2.67-4.32-4.5-5.76c-1.83-1.44-3.91-2.43-6.25-2.97c-2.33-0.54-4.61-0.81-6.83-0.81h-7.16c-2.44,0-4.11,0.84-5,2.52
				c-0.89,1.68-1.56,4.2-2,7.55l-4.33,34.35c0,1.8,0.94,2.7,2.83,2.7H634.94z"/>
			<path fill="#666667" d="M769.51,660.9c-2-2.04-3.8-3.84-5.41-5.4c-1.61-1.56-2.97-2.94-4.08-4.14c-3.89,3.12-8.3,5.61-13.24,7.46
				c-4.94,1.86-9.91,2.79-14.91,2.79c-6.11,0-11.6-1.23-16.49-3.69c-4.89-2.46-9.05-5.9-12.49-10.34
				c-3.44-4.43-6.08-9.62-7.91-15.56s-2.75-12.44-2.75-19.51c0-9.11,1.5-18.19,4.5-27.25c3-9.05,7.13-17.15,12.41-24.28
				c5.27-7.13,11.41-12.92,18.4-17.36c7-4.43,14.49-6.65,22.48-6.65c4.22,0,8.19,0.9,11.91,2.7c3.72,1.8,7.3,3.9,10.74,6.29
				c4-4.32,7.94-6.83,11.82-7.55c1,4.68,1.5,10.25,1.5,16.73c0,3.48-0.17,7.26-0.5,11.33c-0.33,4.08-0.78,8.39-1.33,12.95H779
				c-0.33-5.27-1.19-10.07-2.58-14.39c-1.39-4.32-3.28-8.03-5.66-11.15c-2.39-3.12-5.25-5.54-8.58-7.28
				c-3.33-1.74-7.16-2.61-11.49-2.61c-6.99,0-13.07,2.1-18.24,6.29c-5.16,4.2-9.44,9.62-12.82,16.28
				c-3.39,6.65-5.94,14.06-7.66,22.21c-1.72,8.16-2.58,16.25-2.58,24.28c0,5.88,0.53,11.33,1.58,16.37
				c1.05,5.04,2.69,9.38,4.91,13.04c2.22,3.66,5,6.54,8.33,8.63c3.33,2.1,7.33,3.15,11.99,3.15c3.44,0,6.8-0.54,10.08-1.62
				c3.27-1.08,6.19-2.82,8.74-5.22c2.55-2.4,4.63-5.51,6.25-9.35c1.61-3.84,2.42-8.45,2.42-13.85c0-9.35-4.39-14.03-13.16-14.03
				l0.67-5.4h42.97l-0.83,5.4c-5,0-8.61,1.17-10.83,3.51c-2.22,2.34-3.61,5.73-4.16,10.16l-4.83,37.05H769.51z"/>
			<path fill="#666667" d="M845.78,658.92l0.33-5.4c1.44-0.24,2.97-0.48,4.58-0.72c1.61-0.24,3.11-0.54,4.5-0.9
				c1.39-0.36,2.52-0.81,3.41-1.35c0.89-0.54,1.33-1.17,1.33-1.89c0-0.6-0.03-1.26-0.08-1.98c-0.06-0.72-0.2-1.86-0.42-3.42
				l-3.66-22.12c-0.33-1.56-1.39-2.73-3.16-3.51c-1.78-0.78-3.61-1.17-5.5-1.17h-22.15c-3.89,0-6.44,1.55-7.66,4.65l-7.66,18.61
				c-0.22,0.72-0.47,1.58-0.75,2.6c-0.28,1.01-0.42,2.12-0.42,3.31c0,4.65,4.05,6.98,12.16,6.98l-0.67,6.29h-33.64l1-6.29
				c2.89-0.24,5.41-1.44,7.58-3.59c2.17-2.15,4.25-5.27,6.25-9.34l49.63-102.71l4.16,2.16l21.48,106.67c0.44,3,1.5,4.85,3.16,5.57
				c1.67,0.72,4.27,1.38,7.83,1.98l-0.5,5.58H845.78z M845.12,562.34l-17.99,37.77c-0.89,1.56-1.53,2.88-1.92,3.96
				c-0.39,1.08-0.58,1.98-0.58,2.7c0,1.44,1.72,2.16,5.16,2.16h18.82c3.22,0,4.83-0.84,4.83-2.52c0-0.6-0.08-1.35-0.25-2.25
				c-0.17-0.9-0.36-2.01-0.58-3.33L845.12,562.34z"/>
		</g>
		<g>
			<path fill="#F2F2F2" d="M231.89,400.31l0.48-7.71c12.53,0,19.43-4.63,20.7-13.9l16.18-125.59c0-10.29-6.27-15.44-18.8-15.44
				l0.95-7.71h61.86l-0.95,7.71c-13.01,0-20.38,6.52-22.13,19.56L274,378.7c0,0.35-0.04,0.65-0.12,0.9
				c-0.08,0.26-0.12,0.56-0.12,0.9c0,6.01,4.28,9.01,12.85,9.01h9.75c6.5,0,12.13-0.3,16.89-0.9c4.76-0.6,9.12-2.27,13.09-5.01
				c3.96-2.74,7.65-7.02,11.06-12.85c3.41-5.82,7.1-13.96,11.06-24.41l5.71,1.03l-13.32,52.93H231.89z"/>
			<path fill="#F2F2F2" d="M352.8,400.31l0.67-5.4c9.33,0,14.6-4.14,15.82-12.43l10.83-83.77c0-4.08-1.11-7.14-3.33-9.19
				c-2.22-2.04-5.44-3.06-9.66-3.06l0.67-5.4h43.3l-0.67,5.4c-9.22,0-14.49,5.29-15.82,15.85l-10.66,80.17
				c-0.11,0.36-0.17,0.75-0.17,1.17c0,0.42,0,0.81,0,1.17c0,6.73,4.33,10.09,12.99,10.09l-0.5,5.4H352.8z"/>
			<path fill="#F2F2F2" d="M495.02,402.28l-53.13-101.26l-9.33,72.48c-0.33,2.4-0.5,4.44-0.5,6.12c0,10.19,4.38,15.29,13.16,15.29
				l-0.5,5.4h-36.14l0.67-5.4c8.44,0,13.6-7.15,15.49-21.44l10.33-79.45c0-2.52-1.03-4.41-3.08-5.67
				c-2.06-1.26-5.69-1.89-10.91-1.89l0.83-5.4h27.31l46.96,89.75l8.49-64.52c0.33-1.92,0.5-3.78,0.5-5.59
				c0-9.49-4.39-14.24-13.16-14.24l0.67-5.4h35.97l-0.83,5.4c-9.22,0-14.66,6.61-16.32,19.81l-12.49,94.75L495.02,402.28z"/>
			<path fill="#F2F2F2" d="M523,400.31l0.67-5.4c4,0,7.35-0.99,10.08-2.97c2.72-1.98,4.36-4.89,4.91-8.74l10.99-84.85
				c0-7.92-4.33-11.89-12.99-11.89l0.67-5.4h78.77l-3.33,33.63l-4.66,0.72c-0.11-6.59-0.83-11.69-2.17-15.29
				c-1.33-3.6-3.19-6.23-5.58-7.91c-2.39-1.68-5.22-2.67-8.49-2.97c-3.28-0.3-6.8-0.45-10.58-0.45h-4c-4.22,0-7.27,0.66-9.16,1.98
				c-1.89,1.32-3,3.36-3.33,6.12l-4.33,32.19c0,0.24-0.03,0.48-0.08,0.72c-0.06,0.24-0.08,0.48-0.08,0.72c0,2.64,1,3.96,3,3.96h5.16
				c2.55,0,4.91-0.15,7.08-0.45c2.17-0.3,4.16-1.08,6-2.34c1.83-1.26,3.44-3.18,4.83-5.75c1.39-2.58,2.52-6.08,3.41-10.52h5.66
				L589.28,362h-5.5v-4.32c0-3.36-0.31-6.05-0.92-8.09c-0.61-2.04-1.58-3.6-2.91-4.68c-1.33-1.08-3.03-1.8-5.08-2.16
				c-2.06-0.36-4.53-0.54-7.41-0.54h-1.67c-4.77,0-7.38,1.98-7.83,5.94l-4.5,34.35c-0.11,0.48-0.17,1.08-0.17,1.8
				c0,5.64,3.66,8.45,10.99,8.45h4.5c6.33,0,11.49-0.57,15.49-1.71c4-1.14,7.35-2.94,10.08-5.4c2.72-2.46,5.02-5.54,6.91-9.26
				c1.89-3.72,3.94-8.09,6.16-13.13l3.83,1.44l-8.49,35.61H523z"/>
			<path fill="#F2F2F2" d="M631.25,400.31l0.5-5.4c4.88,0,8.91-1.38,12.07-4.14c3.16-2.76,5.13-6.89,5.91-12.41l11.16-82.91
				c0-2.28-0.45-3.96-1.33-5.04c-0.89-1.08-2.66-1.62-5.33-1.62c-12.99,0-22.71,10.25-29.15,30.75l-4.33-1.44l8.99-38.31
				c2.22,0.36,4.36,0.66,6.41,0.9c2.05,0.24,4.02,0.36,5.91,0.36h57.62c2.11,0,4.3-0.12,6.58-0.36c2.27-0.24,4.58-0.54,6.91-0.9
				l-5,37.59l-4.33,0.72c0.11-0.84,0.17-1.65,0.17-2.43c0-0.78,0-1.53,0-2.25c0-16.07-6.77-24.1-20.32-24.1
				c-4.89,0-7.61,2.04-8.16,6.11l-10.83,82.91c-0.11,0.6-0.19,1.2-0.25,1.8c-0.06,0.6-0.08,1.2-0.08,1.8
				c0,8.63,4.72,12.95,14.16,12.95l-0.5,5.4H631.25z"/>
			<path fill="#F2F2F2" d="M748.99,400.31l0.33-5.4c1.44-0.24,2.97-0.48,4.58-0.72c1.61-0.24,3.11-0.54,4.5-0.9
				c1.39-0.36,2.52-0.81,3.41-1.35c0.89-0.54,1.33-1.17,1.33-1.89c0-0.6-0.03-1.26-0.08-1.98c-0.06-0.72-0.2-1.86-0.42-3.42
				l-3.66-22.12c-0.33-1.56-1.39-2.73-3.16-3.51c-1.78-0.78-3.61-1.17-5.5-1.17h-22.15c-3.89,0-6.44,1.55-7.66,4.65l-7.66,18.61
				c-0.22,0.72-0.47,1.58-0.75,2.6c-0.28,1.01-0.42,2.12-0.42,3.31c0,4.65,4.05,6.98,12.16,6.98l-0.67,6.29h-33.64l1-6.29
				c2.89-0.24,5.41-1.44,7.58-3.59c2.17-2.15,4.25-5.27,6.25-9.34l49.63-102.71l4.16,2.16l21.48,106.67c0.44,3,1.5,4.85,3.16,5.57
				c1.67,0.72,4.27,1.38,7.83,1.98l-0.5,5.58H748.99z M748.33,303.73l-17.99,37.77c-0.89,1.56-1.53,2.88-1.92,3.96
				c-0.39,1.08-0.58,1.98-0.58,2.7c0,1.44,1.72,2.16,5.16,2.16h18.82c3.22,0,4.83-0.84,4.83-2.52c0-0.6-0.08-1.35-0.25-2.25
				c-0.17-0.9-0.36-2.01-0.58-3.33L748.33,303.73z"/>
			<path fill="#F2F2F2" d="M224.51,658.92l-0.24-5.91l100.16-151.59c-3.01-0.68-6.03-1.16-9.04-1.41c-3.02-0.26-5.95-0.39-8.8-0.39
				h-9.75c-7.14,0-13.09,0.69-17.84,2.06c-4.76,1.37-8.84,3.56-12.25,6.55c-3.41,3-6.39,6.94-8.92,11.82
				c-2.54,4.88-5.08,10.75-7.61,17.6h-6.42l10.71-50.87c2.7,0.51,5.35,0.94,7.97,1.28c2.62,0.35,5.27,0.51,7.97,0.51h81.6
				l-0.95,7.96L251.87,647.1c2.38,0.69,4.76,1.16,7.14,1.41c2.38,0.26,4.6,0.38,6.66,0.38h16.42c7.29,0,13.76-1.63,19.39-4.88
				c5.63-3.25,10.55-7.19,14.75-11.82c4.2-4.62,7.69-9.42,10.47-14.39c2.77-4.97,5.03-9.25,6.78-12.85l6.42,2.06l-12.37,51.9H224.51
				z"/>
			<path fill="#F2F2F2" d="M343.04,658.92l0.67-5.4c9.33,0,14.6-4.14,15.82-12.43l10.83-83.77c0-4.08-1.11-7.14-3.33-9.19
				c-2.22-2.04-5.44-3.06-9.66-3.06l0.67-5.4h43.3l-0.67,5.4c-9.22,0-14.49,5.29-15.82,15.85l-10.66,80.17
				c-0.11,0.36-0.17,0.75-0.17,1.17c0,0.42,0,0.81,0,1.17c0,6.73,4.33,10.09,12.99,10.09l-0.5,5.4H343.04z"/>
			<path fill="#F2F2F2" d="M468.78,595.25c7.1,1.32,12.77,4.08,16.99,8.27c4.22,4.2,6.33,9.71,6.33,16.55
				c0,7.44-1.17,13.67-3.5,18.7c-2.33,5.04-5.41,9.08-9.24,12.14c-3.83,3.06-8.13,5.28-12.91,6.65c-4.77,1.38-9.6,2.07-14.49,2.07
				c-4.22,0-8.3-0.03-12.24-0.09c-3.94-0.06-7.97-0.15-12.07-0.27c-4.11-0.12-8.3-0.21-12.57-0.27c-4.28-0.06-8.85-0.09-13.74-0.09
				l0.67-5.4c9.33,0,14.49-3.36,15.49-10.07l11.32-87.95c0-6.83-4.39-10.25-13.16-10.25l0.67-5.58h43.3c4.77,0,9.24,0.42,13.41,1.26
				c4.16,0.84,7.74,2.22,10.74,4.14c3,1.92,5.36,4.35,7.08,7.28c1.72,2.94,2.58,6.56,2.58,10.88c0,4.68-0.64,8.72-1.92,12.14
				c-1.28,3.42-3.06,6.36-5.33,8.81c-2.28,2.46-4.89,4.5-7.83,6.11c-2.94,1.62-6.08,3.03-9.41,4.23L468.78,595.25z M448.29,652.81
				c3.66,0,7.16-0.57,10.49-1.71c3.33-1.14,6.27-3,8.83-5.58c2.55-2.58,4.61-5.94,6.16-10.07c1.55-4.14,2.33-9.14,2.33-15.02
				c0-4.2-0.67-7.61-2-10.25c-1.33-2.64-3.22-4.7-5.66-6.21c-2.44-1.5-5.44-2.52-8.99-3.06c-3.55-0.54-7.49-0.81-11.82-0.81h-5.33
				c-2.89,0-4.66,2.28-5.33,6.83l-5,38.85c0,0.24-0.03,0.39-0.08,0.45c-0.06,0.06-0.08,0.21-0.08,0.45c0,4.08,3.33,6.11,9.99,6.11
				H448.29z M455.45,546.69c-6.89,0-10.66,2.22-11.32,6.65l-4.66,34.71c0,1.68,0.25,2.94,0.75,3.78c0.5,0.84,1.52,1.26,3.08,1.26
				c7.22,0,13.1-0.54,17.65-1.62c4.55-1.08,8.13-2.79,10.74-5.12c2.61-2.34,4.38-5.37,5.33-9.08c0.94-3.71,1.42-8.21,1.42-13.49
				c0-11.39-5.66-17.09-16.99-17.09H455.45z"/>
			<path fill="#F2F2F2" d="M502.92,658.92l0.67-5.4c4,0,7.35-0.99,10.08-2.97c2.72-1.98,4.36-4.89,4.91-8.74l10.99-84.85
				c0-7.92-4.33-11.89-12.99-11.89l0.67-5.4h78.77l-3.33,33.63l-4.66,0.72c-0.11-6.59-0.83-11.69-2.17-15.29
				c-1.33-3.6-3.19-6.23-5.58-7.91c-2.39-1.68-5.22-2.67-8.49-2.97c-3.28-0.3-6.8-0.45-10.58-0.45h-4c-4.22,0-7.27,0.66-9.16,1.98
				c-1.89,1.32-3,3.36-3.33,6.12l-4.33,32.19c0,0.24-0.03,0.48-0.08,0.72c-0.06,0.24-0.08,0.48-0.08,0.72c0,2.64,1,3.96,3,3.96h5.16
				c2.55,0,4.91-0.15,7.08-0.45c2.17-0.3,4.16-1.08,6-2.34s3.44-3.17,4.83-5.75c1.39-2.58,2.52-6.08,3.41-10.52h5.66l-6.16,46.58
				h-5.5v-4.32c0-3.35-0.31-6.05-0.92-8.09c-0.61-2.04-1.58-3.6-2.91-4.68c-1.33-1.08-3.03-1.8-5.08-2.16
				c-2.06-0.36-4.53-0.54-7.41-0.54h-1.67c-4.77,0-7.38,1.98-7.83,5.94l-4.5,34.35c-0.11,0.48-0.17,1.08-0.17,1.8
				c0,5.64,3.66,8.45,10.99,8.45h4.5c6.33,0,11.49-0.57,15.49-1.71c4-1.14,7.35-2.94,10.08-5.4c2.72-2.46,5.02-5.54,6.91-9.26
				c1.89-3.71,3.94-8.09,6.16-13.13l3.83,1.44l-8.49,35.61H502.92z"/>
			<path fill="#F2F2F2" d="M694.77,643.27c-0.11,1.44-0.58,3.18-1.42,5.22c-0.83,2.04-1.92,3.96-3.25,5.76
				c-1.33,1.8-2.91,3.36-4.75,4.68c-1.83,1.32-3.8,1.98-5.91,1.98c-6,0-10.3-1.23-12.91-3.69c-2.61-2.46-4.3-6.44-5.08-11.96
				c-0.67-4.55-1.22-9.44-1.67-14.66c-0.44-5.22-1.19-10.01-2.25-14.39c-1.06-4.38-2.58-8.03-4.58-10.97
				c-2-2.94-4.77-4.41-8.33-4.41h-4.66c-2.78,0-4.39,0.66-4.83,1.98l-5.33,39.03c-0.11,0.48-0.17,1.14-0.17,1.98
				c0,6.47,4.16,9.71,12.49,9.71l-0.5,5.4h-42.13l0.67-5.4c3.66,0,6.83-0.99,9.49-2.97c2.67-1.98,4.27-4.88,4.83-8.72l11.49-87.23
				c0-6.23-4.28-9.35-12.82-9.35l0.67-5.58h18.65c3.33,0,6.16-0.03,8.49-0.09c2.33-0.06,4.58-0.15,6.74-0.27
				c2.17-0.12,4.44-0.21,6.83-0.27c2.39-0.06,5.36-0.09,8.91-0.09c4,0,7.66,0.63,10.99,1.89c3.33,1.26,6.22,3.03,8.66,5.31
				c2.44,2.28,4.33,4.98,5.66,8.09c1.33,3.12,2,6.47,2,10.07c0,4.8-0.81,9.05-2.41,12.77c-1.61,3.72-3.78,6.99-6.5,9.8
				c-2.72,2.82-5.94,5.13-9.66,6.92c-3.72,1.8-7.69,3.24-11.91,4.32v0.54c4.66,2.76,8.24,6.21,10.74,10.34
				c2.5,4.14,4.02,8.12,4.58,11.96c0.33,2.4,0.67,5.28,1,8.63c0.33,3.36,0.86,6.54,1.58,9.53c0.72,3,1.64,5.55,2.75,7.64
				c1.11,2.1,2.61,3.15,4.5,3.15c2.22,0,4.27-2.7,6.16-8.09L694.77,643.27z M647.64,593.81c3,0,6.08-0.3,9.24-0.9
				c3.16-0.6,6.08-1.92,8.74-3.96c2.66-2.04,4.83-4.92,6.5-8.63c1.67-3.71,2.5-8.75,2.5-15.11c0-3.6-0.58-6.59-1.75-8.99
				c-1.17-2.4-2.67-4.32-4.5-5.76c-1.83-1.44-3.91-2.43-6.25-2.97c-2.33-0.54-4.61-0.81-6.83-0.81h-7.16c-2.44,0-4.11,0.84-5,2.52
				c-0.89,1.68-1.56,4.2-2,7.55l-4.33,34.35c0,1.8,0.94,2.7,2.83,2.7H647.64z"/>
			<path fill="#F2F2F2" d="M782.2,660.9c-2-2.04-3.8-3.84-5.41-5.4c-1.61-1.56-2.97-2.94-4.08-4.14c-3.89,3.12-8.3,5.61-13.24,7.46
				c-4.94,1.86-9.91,2.79-14.91,2.79c-6.11,0-11.6-1.23-16.49-3.69c-4.89-2.46-9.05-5.9-12.49-10.34
				c-3.44-4.43-6.08-9.62-7.91-15.56s-2.75-12.44-2.75-19.51c0-9.11,1.5-18.19,4.5-27.25c3-9.05,7.13-17.15,12.41-24.28
				c5.27-7.13,11.41-12.92,18.4-17.36c7-4.43,14.49-6.65,22.48-6.65c4.22,0,8.19,0.9,11.91,2.7c3.72,1.8,7.3,3.9,10.74,6.29
				c4-4.32,7.94-6.83,11.82-7.55c1,4.68,1.5,10.25,1.5,16.73c0,3.48-0.17,7.26-0.5,11.33c-0.33,4.08-0.78,8.39-1.33,12.95h-5.16
				c-0.33-5.27-1.19-10.07-2.58-14.39c-1.39-4.32-3.28-8.03-5.66-11.15c-2.39-3.12-5.25-5.54-8.58-7.28
				c-3.33-1.74-7.16-2.61-11.49-2.61c-6.99,0-13.07,2.1-18.24,6.29c-5.16,4.2-9.44,9.62-12.82,16.28
				c-3.39,6.65-5.94,14.06-7.66,22.21c-1.72,8.16-2.58,16.25-2.58,24.28c0,5.88,0.53,11.33,1.58,16.37
				c1.05,5.04,2.69,9.38,4.91,13.04c2.22,3.66,5,6.54,8.33,8.63c3.33,2.1,7.33,3.15,11.99,3.15c3.44,0,6.8-0.54,10.08-1.62
				c3.27-1.08,6.19-2.82,8.74-5.22c2.55-2.4,4.63-5.51,6.25-9.35c1.61-3.84,2.42-8.45,2.42-13.85c0-9.35-4.39-14.03-13.16-14.03
				l0.67-5.4h42.97l-0.83,5.4c-5,0-8.61,1.17-10.83,3.51c-2.22,2.34-3.61,5.73-4.16,10.16l-4.83,37.05H782.2z"/>
			<path fill="#F2F2F2" d="M858.48,658.92l0.33-5.4c1.44-0.24,2.97-0.48,4.58-0.72c1.61-0.24,3.11-0.54,4.5-0.9
				c1.39-0.36,2.52-0.81,3.41-1.35c0.89-0.54,1.33-1.17,1.33-1.89c0-0.6-0.03-1.26-0.08-1.98c-0.06-0.72-0.2-1.86-0.42-3.42
				l-3.66-22.12c-0.33-1.56-1.39-2.73-3.16-3.51c-1.78-0.78-3.61-1.17-5.5-1.17h-22.15c-3.89,0-6.44,1.55-7.66,4.65l-7.66,18.61
				c-0.22,0.72-0.47,1.58-0.75,2.6c-0.28,1.01-0.42,2.12-0.42,3.31c0,4.65,4.05,6.98,12.16,6.98l-0.67,6.29h-33.64l1-6.29
				c2.89-0.24,5.41-1.44,7.58-3.59c2.17-2.15,4.25-5.27,6.25-9.34l49.63-102.71l4.16,2.16l21.48,106.67c0.44,3,1.5,4.85,3.16,5.57
				c1.67,0.72,4.27,1.38,7.83,1.98l-0.5,5.58H858.48z M857.81,562.34l-17.99,37.77c-0.89,1.56-1.53,2.88-1.92,3.96
				c-0.39,1.08-0.58,1.98-0.58,2.7c0,1.44,1.72,2.16,5.16,2.16h18.82c3.22,0,4.83-0.84,4.83-2.52c0-0.6-0.08-1.35-0.25-2.25
				c-0.17-0.9-0.36-2.01-0.58-3.33L857.81,562.34z"/>
		</g>
	</g>
	<g clip-path="url(#SVGID_00000000217917839153483810000007011013613177898392_)">
		<path fill="#4D4E4E" d="M1176.92,715.79c0,0.27-0.35,0.4-1.05,0.37h-0.92h-0.75c-0.45,0-0.71,0.08-0.8,0.23
			c-0.08,0.15-0.12,0.61-0.12,1.37v23.58c0,1.45-0.01,2.29-0.04,2.54c-0.03,0.25-0.11,0.37-0.25,0.37c-0.17,0-0.36-0.15-0.58-0.45
			l-5.36-7.67c-3.1-4.46-6.88-10.02-11.33-16.69v22.89c0.03,0.36,0.24,0.58,0.63,0.68c0.4,0.1,1.34,0.16,2.84,0.18
			c0.37,0,0.55,0.11,0.55,0.33c0,0.27-0.36,0.41-1.09,0.41c-0.25,0-1.05-0.04-2.39-0.12c-0.45-0.03-0.88-0.04-1.3-0.04
			c0.03,0-0.22,0.03-0.73,0.08c-0.52,0.05-1.31,0.08-2.37,0.08h-0.42c-0.64,0-0.96-0.12-0.96-0.37c0-0.25,0.28-0.37,0.84-0.37
			c1.65-0.03,2.61-0.13,2.87-0.31c0.26-0.18,0.4-0.76,0.4-1.75v-20.24c0-2.27-0.47-3.7-1.42-4.27c-0.45-0.27-1.24-0.41-2.39-0.41
			c-0.73,0-1.09-0.14-1.09-0.43c0-0.26,0.21-0.39,0.63-0.39c0.56,0,1.27,0.03,2.14,0.08c0.87,0.06,1.33,0.08,1.38,0.08
			c0.08,0,0.47-0.01,1.17-0.04c0.92,0,1.82-0.04,2.68-0.12l14.46,21.11v-18.24c0-0.85-0.01-1.36-0.04-1.54
			c-0.03-0.18-0.14-0.31-0.33-0.41c-0.2-0.1-0.87-0.14-2.01-0.14c-1.01,0-1.51-0.12-1.51-0.37c0-0.27,0.33-0.41,1.01-0.41h1.47
			c0.36,0,0.75,0,1.17,0c0.45,0,0.71,0,0.8,0c0.03,0,0.28,0,0.75,0c0.45,0,0.87,0,1.26,0h1.3
			C1176.61,715.38,1176.92,715.52,1176.92,715.79z"/>
		<path fill="#4D4E4E" d="M1193.95,739.26c0,0.08-0.02,0.55-0.06,1.41c-0.04,0.86-0.06,1.68-0.06,2.47v0.95
			c-1.92-0.12-5.71-0.17-11.38-0.17c-0.69,0-1.36,0-2.02,0s-1.12,0-1.35,0h-0.29c-0.37,0-0.56-0.08-0.56-0.23
			c0-0.1,0.06-0.16,0.18-0.18c0.06,0,0.43-0.03,1.12-0.08c0.51-0.04,0.82-0.14,0.92-0.32s0.16-0.62,0.16-1.35v-16.18
			c0-0.56-0.08-0.89-0.25-0.99c-0.17-0.1-0.7-0.16-1.6-0.16c-0.31,0-0.47-0.08-0.47-0.24c0-0.16,0.21-0.24,0.65-0.24h5.02
			c0.18,0,1.28,0,3.31,0s3.4,0,4.11,0c0.59,0,1.12-0.04,1.61-0.12c0.04,0.82,0.13,1.96,0.26,3.42l0.12,1.23
			c0.02,0.1,0.03,0.22,0.03,0.37c0,0.19-0.09,0.29-0.26,0.29c-0.22,0-0.37-0.24-0.47-0.72c-0.37-1.73-0.98-2.83-1.82-3.29
			c-0.63-0.35-2.27-0.52-4.93-0.52h-2.41v8.44h0.7c2.19,0,3.52-0.16,4-0.49c0.48-0.32,0.81-1.27,0.98-2.84
			c0.04-0.4,0.15-0.6,0.32-0.6c0.21,0,0.32,0.17,0.32,0.52c0,0.34-0.02,0.85-0.06,1.52c-0.04,0.67-0.06,1.18-0.06,1.52
			c0,2.05,0.03,3.45,0.09,4.22c0.01,0.19,0.02,0.35,0.02,0.49c0,0.25-0.11,0.37-0.32,0.37c-0.14,0-0.23-0.08-0.28-0.24
			c-0.05-0.16-0.13-0.69-0.25-1.59c-0.16-1.13-0.63-1.83-1.43-2.09c-0.35-0.12-1.27-0.17-2.74-0.17h-1.31v9.61
			c4.3,0,6.83-0.08,7.57-0.25c1.29-0.28,2.02-1.49,2.2-3.63c0.04-0.47,0.17-0.71,0.38-0.71
			C1193.85,738.66,1193.95,738.86,1193.95,739.26z"/>
		<path fill="#4D4E4E" d="M1222.14,724.18c0,0.16-0.33,0.25-1,0.27c-0.74,0.02-1.24,0.26-1.48,0.72c-0.24,0.46-0.62,1.43-1.13,2.93
			c-0.88,2.62-1.66,4.85-2.35,6.69c-1.17,3.14-2.24,6.17-3.19,9.1c-0.08,0.25-0.18,0.37-0.3,0.37c-0.1,0-0.2-0.1-0.29-0.29
			c-0.09-0.19-0.36-0.86-0.8-2c-0.55-1.5-1.14-3-1.78-4.52c-0.51-1.19-1-2.42-1.49-3.69c-1.37,3.24-2.73,6.62-4.08,10.14
			c-0.08,0.24-0.17,0.35-0.28,0.35c-0.09,0-0.21-0.16-0.34-0.49c-0.61-1.42-2.86-7.28-6.75-17.59c-0.27-0.73-0.48-1.18-0.62-1.36
			c-0.14-0.18-0.48-0.28-1.03-0.3c-0.94-0.04-1.41-0.17-1.41-0.4c0-0.17,0.16-0.26,0.47-0.26c0.14,0,0.25,0.01,0.35,0.03
			c1.04,0.06,2.15,0.09,3.34,0.09c0.23,0,0.64-0.02,1.22-0.06c0.58-0.04,1.33-0.06,2.24-0.06h0.32c0.33,0,0.5,0.09,0.5,0.26
			c0,0.21-0.3,0.33-0.9,0.35c-1.21,0.04-1.81,0.19-1.81,0.47c0,0.54,1.8,5.52,5.39,14.95c1.31-3.23,2.28-5.61,2.93-7.14l-2.9-7.35
			c-0.16-0.4-0.34-0.66-0.55-0.77s-0.58-0.18-1.13-0.2c-0.55-0.02-0.83-0.11-0.83-0.26c0-0.21,0.21-0.31,0.62-0.31
			c0.31,0,0.69,0.02,1.14,0.06c0.45,0.04,1.23,0.06,2.35,0.06h2.23h3.23c0.72,0,1.59-0.03,2.61-0.09c0.12-0.02,0.25-0.02,0.41-0.02
			c0.47,0,0.7,0.1,0.7,0.3c0,0.18-0.17,0.27-0.5,0.27h-0.5c-0.88,0-1.54,0.12-2,0.34c-0.2,0.1-0.56,0.78-1.08,2.06
			c-0.24,0.54-0.63,1.44-1.18,2.72c-0.12,0.29-0.29,0.72-0.52,1.3c0.14,0.38,0.56,1.45,1.28,3.19c0.93,2.21,1.69,4.12,2.29,5.7
			c1.1-3.1,2.4-6.76,3.89-10.99c0.79-2.25,1.19-3.5,1.19-3.75c0-0.37-0.34-0.55-1.03-0.55c-0.96,0-1.44-0.11-1.44-0.32
			c0-0.19,0.2-0.29,0.59-0.29c0.33,0,0.6,0.01,0.79,0.04c0.43,0.05,0.82,0.08,1.17,0.08h2.35c0.59,0,0.91,0.02,0.97,0.07
			S1222.14,724.12,1222.14,724.18z M1209.73,724.51h-0.35h-0.5c-0.7,0.04-1.06,0.16-1.06,0.37c0,0.04,0.58,1.7,1.73,4.99
			c0.45-0.96,0.97-2.22,1.57-3.79c0.08-0.21,0.2-0.49,0.36-0.83l0.06-0.23C1211.55,724.68,1210.94,724.51,1209.73,724.51z"/>
		<path fill="#4D4E4E" d="M1251,743.69c0,0.16-0.21,0.24-0.61,0.24h-0.32c-0.27,0-0.77,0-1.49,0c-0.72,0-1.28,0-1.67,0
			c-0.58,0-1.27,0-2.05,0c-0.8,0-1.33,0-1.58,0h-0.21c-0.41,0-0.61-0.09-0.61-0.26c0-0.19,0.28-0.29,0.85-0.29
			c1,0,1.6-0.1,1.82-0.32c0.1-0.1,0.15-0.74,0.15-1.93v-14.89c0,0.02-0.12,0.35-0.35,1c-0.79,2.31-1.93,5.79-3.42,10.44l-1.36,4.57
			c-0.27,0.9-0.47,1.35-0.59,1.35c-0.14,0-0.28-0.23-0.44-0.69c-0.56-1.74-2.16-6.09-4.79-13.04l-1.17-3.06c0,0.36,0,0.86,0,1.49
			v9.33c0,3.5,0.03,5.27,0.09,5.31c0.14,0.25,0.61,0.37,1.41,0.37c0.65,0,0.97,0.09,0.97,0.29c0,0.21-0.21,0.32-0.62,0.32
			c-0.25,0-0.49-0.02-0.7-0.06c-0.27-0.04-0.52-0.06-0.73-0.06l-3.37,0.12c-0.35,0-0.53-0.09-0.53-0.26c0-0.19,0.56-0.3,1.67-0.32
			c0.47,0,0.74-0.08,0.82-0.23s0.12-0.65,0.12-1.5v-13.77c0-1.59-0.02-2.45-0.06-2.59c-0.08-0.27-0.24-0.45-0.5-0.55
			c-0.25-0.1-0.8-0.17-1.64-0.23c-0.31-0.02-0.47-0.11-0.47-0.26c0-0.21,0.29-0.32,0.86-0.32c0.08,0,0.25,0,0.5,0h1.54
			c1.17,0,1.99-0.01,2.46-0.02c0.1,0.25,0.66,1.75,1.7,4.52c0.45,1.15,1.7,4.51,3.76,10.07c0.38-1.25,0.76-2.48,1.16-3.69l3.14-9.48
			c0.19-0.55,0.37-1,0.52-1.36l4.33-0.03c0.63,0,1,0.03,1.1,0.09c0.1,0.06,0.14,0.14,0.14,0.26c0,0.19-0.17,0.29-0.5,0.29
			c-0.55,0-0.92,0.02-1.11,0.06c-0.47,0.08-0.79,0.23-0.97,0.46c-0.1,0.13-0.15,1.26-0.15,3.37v13.38c0,0.77,0.08,1.22,0.24,1.35
			c0.25,0.17,0.89,0.26,1.91,0.26h0.18C1250.8,743.45,1251,743.53,1251,743.69z"/>
		<path fill="#4D4E4E" d="M1267.72,739.26c0,0.08-0.02,0.55-0.06,1.41c-0.04,0.86-0.06,1.68-0.06,2.47v0.95
			c-1.92-0.12-5.71-0.17-11.38-0.17c-0.69,0-1.36,0-2.02,0s-1.12,0-1.35,0h-0.29c-0.37,0-0.56-0.08-0.56-0.23
			c0-0.1,0.06-0.16,0.18-0.18c0.06,0,0.43-0.03,1.12-0.08c0.51-0.04,0.82-0.14,0.92-0.32s0.16-0.62,0.16-1.35v-16.18
			c0-0.56-0.08-0.89-0.25-0.99c-0.17-0.1-0.7-0.16-1.6-0.16c-0.31,0-0.47-0.08-0.47-0.24c0-0.16,0.21-0.24,0.65-0.24h5.02
			c0.18,0,1.28,0,3.31,0s3.4,0,4.11,0c0.59,0,1.12-0.04,1.61-0.12c0.04,0.82,0.13,1.96,0.26,3.42l0.12,1.23
			c0.02,0.1,0.03,0.22,0.03,0.37c0,0.19-0.09,0.29-0.26,0.29c-0.22,0-0.37-0.24-0.47-0.72c-0.37-1.73-0.98-2.83-1.82-3.29
			c-0.63-0.35-2.27-0.52-4.93-0.52h-2.41v8.44h0.7c2.19,0,3.52-0.16,4-0.49c0.48-0.32,0.81-1.27,0.98-2.84
			c0.04-0.4,0.15-0.6,0.32-0.6c0.21,0,0.32,0.17,0.32,0.52c0,0.34-0.02,0.85-0.06,1.52c-0.04,0.67-0.06,1.18-0.06,1.52
			c0,2.05,0.03,3.45,0.09,4.22c0.01,0.19,0.02,0.35,0.02,0.49c0,0.25-0.11,0.37-0.32,0.37c-0.14,0-0.23-0.08-0.28-0.24
			c-0.05-0.16-0.13-0.69-0.25-1.59c-0.16-1.13-0.63-1.83-1.43-2.09c-0.35-0.12-1.27-0.17-2.74-0.17h-1.31v9.61
			c4.3,0,6.83-0.08,7.57-0.25c1.29-0.28,2.02-1.49,2.2-3.63c0.04-0.47,0.17-0.71,0.38-0.71
			C1267.62,738.66,1267.72,738.86,1267.72,739.26z"/>
		<path fill="#4D4E4E" d="M1288.1,733.92c0,3.38-1.2,6.01-3.61,7.89c-1.76,1.38-4.12,2.07-7.07,2.07c-0.08,0-0.42,0-1.04,0
			s-1.51,0-2.68,0h-1.47h-2.32c-0.14,0-0.28,0-0.44,0c-0.37,0-0.56-0.1-0.56-0.29c0-0.17,0.31-0.26,0.94-0.26
			c0.8,0,1.3-0.14,1.5-0.43c0.08-0.13,0.12-0.5,0.12-1.09v-15.47c0-0.94-0.07-1.48-0.22-1.64c-0.15-0.15-0.65-0.23-1.51-0.23
			c-0.45,0-0.67-0.1-0.67-0.32c0-0.15,0.17-0.23,0.5-0.23c-0.02,0,0.2,0,0.65,0c0.45,0,0.89,0,1.32,0h3.14
			c3.52,0,6.01,0.24,7.48,0.72c1.78,0.58,3.22,1.71,4.31,3.41C1287.56,729.76,1288.1,731.71,1288.1,733.92z M1284.82,733.8
			c0-3.19-0.64-5.52-1.91-7.01s-3.26-2.23-5.95-2.23c-1.31,0-2.1,0.13-2.38,0.4c-0.12,0.13-0.18,0.6-0.18,1.38v15.32
			c0,0.54,0.01,0.86,0.04,0.98s0.11,0.21,0.25,0.29c0.47,0.23,1.46,0.35,2.96,0.35c2.11,0,3.81-0.73,5.1-2.19
			C1284.13,739.55,1284.82,737.12,1284.82,733.8z"/>
		<path fill="#4D4E4E" d="M1297.78,743.63c0,0.16-0.12,0.24-0.35,0.24h-0.29c-0.12-0.06-1.45-0.09-4-0.09
			c-0.49,0-0.98,0.02-1.47,0.06c-0.25,0.02-0.65,0.03-1.18,0.03c-0.25,0-0.38-0.09-0.38-0.26c0-0.15,0.25-0.24,0.76-0.26
			c0.78-0.02,1.24-0.11,1.38-0.27s0.21-0.71,0.21-1.66v-15.14c0-0.94-0.05-1.47-0.15-1.58c-0.12-0.19-0.66-0.31-1.63-0.34
			c-0.38-0.02-0.56-0.08-0.56-0.2c0-0.15,0.12-0.23,0.36-0.23h4.01c0.3,0,0.87,0.01,1.72,0.03l1.13-0.03c0.32,0,0.47,0.08,0.47,0.25
			c0,0.14-0.44,0.24-1.32,0.27c-0.5,0.02-0.81,0.11-0.92,0.26c-0.11,0.15-0.17,0.56-0.17,1.21v15.33c0,1.09,0.05,1.68,0.15,1.78
			c0.22,0.21,0.86,0.33,1.93,0.37C1297.67,743.39,1297.78,743.47,1297.78,743.63z"/>
		<path fill="#4D4E4E" d="M1317.5,743.69c0,0.16-0.15,0.25-0.44,0.25c-0.2,0-0.37-0.01-0.53-0.03l-3.73-0.11l-3.73,0.11
			c-0.14,0.02-0.28,0.03-0.44,0.03c-0.39,0-0.59-0.1-0.59-0.3c0-0.22,0.26-0.33,0.79-0.33c1.72-0.02,2.58-0.19,2.58-0.51
			c0-0.02-0.02-0.09-0.06-0.22l-0.24-0.76l-0.15-0.4c-0.18-0.59-0.61-1.91-1.29-3.94h-6.27c-1.17,3.06-1.76,4.82-1.76,5.28
			c0,0.27,0.12,0.43,0.35,0.49c0.06,0.02,0.55,0.06,1.47,0.12c0.57,0.02,0.85,0.12,0.85,0.29c0,0.19-0.25,0.29-0.76,0.29
			c-0.9,0-1.95-0.04-3.14-0.12c-0.29-0.02-0.6-0.03-0.91-0.03s-0.62,0.03-0.91,0.1c-0.16,0.03-0.28,0.05-0.38,0.05
			c-0.27,0-0.41-0.09-0.41-0.26c0-0.17,0.31-0.27,0.92-0.29c0.62-0.02,1.06-0.11,1.33-0.27c0.27-0.16,0.49-0.47,0.65-0.94
			c2.52-7.06,4.56-12.74,6.14-17.02c0.05-0.23,0.14-0.48,0.27-0.76l0.13-0.52c0.06-0.21,0.14-0.32,0.23-0.32
			c0.06,0,0.11,0.06,0.15,0.17c0.25,0.75,0.83,2.31,1.73,4.68c0.7,1.86,2.45,6.52,5.25,13.98c0.16,0.43,0.36,0.71,0.6,0.83
			c0.24,0.12,0.75,0.19,1.51,0.21C1317.24,743.44,1317.5,743.53,1317.5,743.69z M1309.52,736.82c-0.32-0.86-0.84-2.28-1.58-4.27
			l-1.41-3.98c-0.82,2.11-1.8,4.86-2.95,8.25H1309.52z"/>
		<path fill="#4D4E4E" d="M1342.95,743.69c0,0.16-0.15,0.25-0.44,0.25c-0.2,0-0.37-0.01-0.53-0.03l-3.73-0.11l-3.73,0.11
			c-0.14,0.02-0.28,0.03-0.44,0.03c-0.39,0-0.59-0.1-0.59-0.3c0-0.22,0.26-0.33,0.79-0.33c1.72-0.02,2.58-0.19,2.58-0.51
			c0-0.02-0.02-0.09-0.06-0.22l-0.24-0.76l-0.15-0.4c-0.18-0.59-0.61-1.91-1.29-3.94h-6.27c-1.17,3.06-1.76,4.82-1.76,5.28
			c0,0.27,0.12,0.43,0.35,0.49c0.06,0.02,0.55,0.06,1.47,0.12c0.57,0.02,0.85,0.12,0.85,0.29c0,0.19-0.25,0.29-0.76,0.29
			c-0.9,0-1.95-0.04-3.14-0.12c-0.29-0.02-0.6-0.03-0.91-0.03s-0.62,0.03-0.91,0.1c-0.16,0.03-0.28,0.05-0.38,0.05
			c-0.27,0-0.41-0.09-0.41-0.26c0-0.17,0.31-0.27,0.92-0.29c0.62-0.02,1.06-0.11,1.33-0.27c0.27-0.16,0.49-0.47,0.65-0.94
			c2.52-7.06,4.56-12.74,6.14-17.02c0.05-0.23,0.14-0.48,0.27-0.76l0.13-0.52c0.06-0.21,0.14-0.32,0.23-0.32
			c0.06,0,0.11,0.06,0.15,0.17c0.25,0.75,0.83,2.31,1.73,4.68c0.7,1.86,2.45,6.52,5.25,13.98c0.16,0.43,0.36,0.71,0.6,0.83
			c0.24,0.12,0.75,0.19,1.51,0.21C1342.7,743.44,1342.95,743.53,1342.95,743.69z M1334.97,736.82c-0.32-0.86-0.84-2.28-1.58-4.27
			l-1.41-3.98c-0.82,2.11-1.8,4.86-2.95,8.25H1334.97z"/>
		<path fill="#4D4E4E" d="M1359.05,743.02c0,0.8-0.68,1.21-2.05,1.21c-1.53,0-2.72-0.62-3.58-1.87c-0.37-0.54-0.61-1.05-0.72-1.55
			c-0.11-0.5-0.27-1.76-0.48-3.79c-0.12-1.22-0.52-2.09-1.2-2.6c-0.68-0.51-1.8-0.78-3.34-0.82v9.04c0,0.38,0.31,0.62,0.94,0.72
			c0.18,0.02,0.63,0.04,1.35,0.06c0.25,0,0.38,0.08,0.38,0.23c0,0.17-0.17,0.26-0.5,0.26h-0.35c-0.18,0-1.03,0-2.55,0
			c-0.29,0-0.79,0-1.5,0c-0.68,0-1.13,0-1.35,0h-1.14c-0.43,0-0.65-0.09-0.65-0.26c0-0.13,0.28-0.21,0.85-0.23
			c0.92-0.02,1.42-0.13,1.5-0.34c0.08-0.1,0.12-0.47,0.12-1.12v-15.84c0-0.76-0.08-1.22-0.25-1.38c-0.17-0.15-0.67-0.24-1.51-0.26
			c-0.49,0-0.73-0.09-0.73-0.26c0-0.19,0.16-0.29,0.47-0.29c0.06,0,0.15,0.01,0.26,0.03l3.9,0.09c0.39,0,0.94-0.01,1.64-0.04
			c0.78-0.05,1.33-0.08,1.64-0.08c1.82,0,3.26,0.4,4.33,1.19c1.07,0.79,1.6,1.87,1.6,3.23c0,1.34-0.55,2.44-1.64,3.31
			c-1.1,0.87-2.58,1.38-4.46,1.54c-0.18,0.02-0.27,0.05-0.29,0.09c0,0.08,0.1,0.12,0.29,0.12c2.05,0.34,3.47,1.05,4.24,2.12
			c0.77,1.06,1.29,2.99,1.54,5.77c0.16,1.57,0.7,2.36,1.64,2.36c0.29,0,0.44-0.06,0.44-0.17c0-0.02-0.01-0.04-0.03-0.06
			c-0.1-0.21-0.15-0.38-0.15-0.52c0-0.4,0.22-0.6,0.65-0.6C1358.82,742.3,1359.05,742.54,1359.05,743.02z M1352.98,728.64
			c0-2.74-1.21-4.1-3.64-4.1c-0.65,0-1.08,0.09-1.32,0.26c-0.24,0.17-0.35,0.48-0.35,0.92V733c1.88,0.02,3.23-0.32,4.06-1
			S1352.98,730.19,1352.98,728.64z"/>
		<path fill="#4D4E4E" d="M1375.63,729.07c0,0.25-0.12,0.37-0.35,0.37s-0.4-0.25-0.5-0.75c-0.04-0.34-0.08-0.69-0.12-1.03
			c-0.14-0.69-0.36-1.27-0.67-1.75c-0.41-0.63-1.08-1.03-2.02-1.21c-0.61-0.11-1.09-0.16-1.47-0.14c-0.92,0.03-1.48,0.04-1.67,0.06
			v17.33c0,0.69,0.19,1.12,0.56,1.29c0.2,0.1,0.74,0.15,1.64,0.17c0.23,0.02,0.35,0.1,0.35,0.24c0,0.16-0.16,0.24-0.47,0.24
			c-0.16,0-0.29-0.01-0.41-0.03c-1.17-0.04-2-0.06-2.49-0.06c-0.65,0-1.25,0.01-1.82,0.04c-0.57,0.03-1.29,0.04-2.17,0.04
			c-0.45,0-0.67-0.08-0.67-0.23c0-0.17,0.42-0.27,1.26-0.29c0.61,0,1-0.12,1.17-0.37c0.1-0.15,0.15-0.55,0.15-1.18v-17.22
			c-1.94,0.02-3.14,0.12-3.61,0.29c-1.23,0.44-1.96,1.62-2.17,3.53c-0.06,0.57-0.2,0.86-0.41,0.86c-0.23,0-0.35-0.2-0.35-0.6
			c0-0.21,0.01-0.42,0.03-0.63l0.06-0.66c0.06-0.88,0.15-2.04,0.26-3.47h1.32l5.98,0.09c0.7,0.02,1.8,0.02,3.29,0l4.87-0.09
			c0.04,1.07,0.17,2.66,0.38,4.76c0,0.06,0.01,0.13,0.03,0.22S1375.63,729.05,1375.63,729.07z"/>
		<path fill="#4D4E4E" d="M1402.84,743.69c0,0.16-0.15,0.25-0.44,0.25c-0.2,0-0.37-0.01-0.53-0.03l-3.73-0.11l-3.73,0.11
			c-0.14,0.02-0.28,0.03-0.44,0.03c-0.39,0-0.59-0.1-0.59-0.3c0-0.22,0.26-0.33,0.79-0.33c1.72-0.02,2.58-0.19,2.58-0.51
			c0-0.02-0.02-0.09-0.06-0.22l-0.24-0.76l-0.15-0.4c-0.18-0.59-0.61-1.91-1.29-3.94h-6.27c-1.17,3.06-1.76,4.82-1.76,5.28
			c0,0.27,0.12,0.43,0.35,0.49c0.06,0.02,0.55,0.06,1.47,0.12c0.57,0.02,0.85,0.12,0.85,0.29c0,0.19-0.25,0.29-0.76,0.29
			c-0.9,0-1.95-0.04-3.14-0.12c-0.29-0.02-0.6-0.03-0.91-0.03s-0.62,0.03-0.91,0.1c-0.16,0.03-0.28,0.05-0.38,0.05
			c-0.27,0-0.41-0.09-0.41-0.26c0-0.17,0.31-0.27,0.92-0.29c0.62-0.02,1.06-0.11,1.33-0.27c0.27-0.16,0.49-0.47,0.65-0.94
			c2.52-7.06,4.56-12.74,6.14-17.02c0.05-0.23,0.14-0.48,0.27-0.76l0.13-0.52c0.06-0.21,0.14-0.32,0.23-0.32
			c0.06,0,0.11,0.06,0.15,0.17c0.25,0.75,0.83,2.31,1.73,4.68c0.7,1.86,2.45,6.52,5.25,13.98c0.16,0.43,0.36,0.71,0.6,0.83
			c0.24,0.12,0.75,0.19,1.51,0.21C1402.59,743.44,1402.84,743.53,1402.84,743.69z M1394.87,736.82c-0.32-0.86-0.84-2.28-1.58-4.27
			l-1.41-3.98c-0.82,2.11-1.8,4.86-2.95,8.25H1394.87z"/>
		<path fill="#4D4E4E" d="M1420.38,724.22c0,0.19-0.25,0.28-0.73,0.26h-0.65h-0.53c-0.31,0-0.5,0.05-0.56,0.16
			c-0.06,0.1-0.09,0.42-0.09,0.96v16.51c0,1.01-0.01,1.61-0.03,1.78c-0.02,0.17-0.08,0.26-0.18,0.26c-0.12,0-0.25-0.11-0.41-0.32
			l-3.75-5.37c-2.17-3.12-4.82-7.01-7.93-11.68v16.02c0.02,0.25,0.17,0.41,0.45,0.47c0.28,0.07,0.94,0.11,1.99,0.13
			c0.26,0,0.39,0.08,0.39,0.23c0,0.19-0.25,0.29-0.76,0.29c-0.18,0-0.73-0.03-1.67-0.09c-0.31-0.02-0.62-0.03-0.91-0.03
			c0.02,0-0.15,0.02-0.51,0.06c-0.36,0.04-0.91,0.06-1.66,0.06h-0.29c-0.45,0-0.67-0.09-0.67-0.26c0-0.17,0.2-0.26,0.59-0.26
			c1.15-0.02,1.82-0.09,2.01-0.21c0.19-0.12,0.28-0.53,0.28-1.22v-14.17c0-1.59-0.33-2.59-1-2.99c-0.31-0.19-0.87-0.29-1.67-0.29
			c-0.51,0-0.76-0.1-0.76-0.3c0-0.18,0.15-0.27,0.44-0.27c0.39,0,0.89,0.02,1.5,0.06s0.93,0.06,0.97,0.06
			c0.06,0,0.33-0.01,0.82-0.03c0.65,0,1.27-0.03,1.88-0.09l10.12,14.78v-12.77c0-0.59-0.01-0.95-0.03-1.08
			c-0.02-0.12-0.1-0.22-0.24-0.29c-0.14-0.07-0.61-0.1-1.41-0.1c-0.7,0-1.06-0.09-1.06-0.26c0-0.19,0.23-0.29,0.7-0.29h1.03
			c0.25,0,0.53,0,0.82,0c0.31,0,0.5,0,0.56,0c0.02,0,0.2,0,0.53,0c0.31,0,0.61,0,0.88,0h0.91
			C1420.17,723.93,1420.38,724.03,1420.38,724.22z"/>
		<path fill="#4D4E4E" d="M1440.57,733.92c0,3.38-1.2,6.01-3.61,7.89c-1.76,1.38-4.12,2.07-7.07,2.07c-0.08,0-0.42,0-1.04,0
			s-1.51,0-2.68,0h-1.47h-2.32c-0.14,0-0.28,0-0.44,0c-0.37,0-0.56-0.1-0.56-0.29c0-0.17,0.31-0.26,0.94-0.26
			c0.8,0,1.3-0.14,1.5-0.43c0.08-0.13,0.12-0.5,0.12-1.09v-15.47c0-0.94-0.07-1.48-0.22-1.64c-0.15-0.15-0.65-0.23-1.51-0.23
			c-0.45,0-0.67-0.1-0.67-0.32c0-0.15,0.17-0.23,0.5-0.23c-0.02,0,0.2,0,0.65,0c0.45,0,0.89,0,1.32,0h3.14
			c3.52,0,6.01,0.24,7.48,0.72c1.78,0.58,3.22,1.71,4.31,3.41C1440.02,729.76,1440.57,731.71,1440.57,733.92z M1437.28,733.8
			c0-3.19-0.64-5.52-1.91-7.01s-3.26-2.23-5.95-2.23c-1.31,0-2.1,0.13-2.38,0.4c-0.12,0.13-0.18,0.6-0.18,1.38v15.32
			c0,0.54,0.01,0.86,0.04,0.98s0.11,0.21,0.25,0.29c0.47,0.23,1.46,0.35,2.96,0.35c2.11,0,3.81-0.73,5.1-2.19
			C1436.6,739.55,1437.28,737.12,1437.28,733.8z"/>
		<path fill="#4D4E4E" d="M1469.37,733.92c0,3.38-1.2,6.01-3.61,7.89c-1.76,1.38-4.12,2.07-7.07,2.07c-0.08,0-0.42,0-1.04,0
			s-1.51,0-2.68,0h-1.47h-2.32c-0.14,0-0.28,0-0.44,0c-0.37,0-0.56-0.1-0.56-0.29c0-0.17,0.31-0.26,0.94-0.26
			c0.8,0,1.3-0.14,1.5-0.43c0.08-0.13,0.12-0.5,0.12-1.09v-15.47c0-0.94-0.07-1.48-0.22-1.64c-0.15-0.15-0.65-0.23-1.51-0.23
			c-0.45,0-0.67-0.1-0.67-0.32c0-0.15,0.17-0.23,0.5-0.23c-0.02,0,0.2,0,0.65,0c0.45,0,0.89,0,1.32,0h3.14
			c3.52,0,6.01,0.24,7.48,0.72c1.78,0.58,3.22,1.71,4.31,3.41C1468.82,729.76,1469.37,731.71,1469.37,733.92z M1466.08,733.8
			c0-3.19-0.64-5.52-1.91-7.01s-3.26-2.23-5.95-2.23c-1.31,0-2.1,0.13-2.38,0.4c-0.12,0.13-0.18,0.6-0.18,1.38v15.32
			c0,0.54,0.01,0.86,0.04,0.98s0.11,0.21,0.25,0.29c0.47,0.23,1.46,0.35,2.96,0.35c2.11,0,3.81-0.73,5.1-2.19
			C1465.4,739.55,1466.08,737.12,1466.08,733.8z"/>
		<path fill="#4D4E4E" d="M1487.05,739.26c0,0.08-0.02,0.55-0.06,1.41c-0.04,0.86-0.06,1.68-0.06,2.47v0.95
			c-1.92-0.12-5.71-0.17-11.38-0.17c-0.69,0-1.36,0-2.02,0s-1.12,0-1.35,0h-0.29c-0.37,0-0.56-0.08-0.56-0.23
			c0-0.1,0.06-0.16,0.18-0.18c0.06,0,0.43-0.03,1.12-0.08c0.51-0.04,0.82-0.14,0.92-0.32s0.16-0.62,0.16-1.35v-16.18
			c0-0.56-0.08-0.89-0.25-0.99c-0.17-0.1-0.7-0.16-1.6-0.16c-0.31,0-0.47-0.08-0.47-0.24c0-0.16,0.21-0.24,0.65-0.24h5.02
			c0.18,0,1.28,0,3.31,0s3.4,0,4.11,0c0.59,0,1.12-0.04,1.61-0.12c0.04,0.82,0.13,1.96,0.26,3.42l0.12,1.23
			c0.02,0.1,0.03,0.22,0.03,0.37c0,0.19-0.09,0.29-0.26,0.29c-0.22,0-0.37-0.24-0.47-0.72c-0.37-1.73-0.98-2.83-1.82-3.29
			c-0.63-0.35-2.27-0.52-4.93-0.52h-2.41v8.44h0.7c2.19,0,3.52-0.16,4-0.49c0.48-0.32,0.81-1.27,0.98-2.84
			c0.04-0.4,0.15-0.6,0.32-0.6c0.21,0,0.32,0.17,0.32,0.52c0,0.34-0.02,0.85-0.06,1.52c-0.04,0.67-0.06,1.18-0.06,1.52
			c0,2.05,0.03,3.45,0.09,4.22c0.01,0.19,0.02,0.35,0.02,0.49c0,0.25-0.11,0.37-0.32,0.37c-0.14,0-0.23-0.08-0.28-0.24
			c-0.05-0.16-0.13-0.69-0.25-1.59c-0.16-1.13-0.63-1.83-1.43-2.09c-0.35-0.12-1.27-0.17-2.74-0.17h-1.31v9.61
			c4.3,0,6.83-0.08,7.57-0.25c1.29-0.28,2.02-1.49,2.2-3.63c0.04-0.47,0.17-0.71,0.38-0.71
			C1486.96,738.66,1487.05,738.86,1487.05,739.26z"/>
		<path fill="#4D4E4E" d="M1501.4,738.28c0,1.65-0.64,3.05-1.92,4.21c-1.28,1.16-2.82,1.74-4.62,1.74c-1.06,0-2.32-0.32-3.78-0.95
			c-0.39-0.17-0.69-0.26-0.88-0.26c-0.23,0-0.38,0.27-0.44,0.79c-0.02,0.27-0.15,0.41-0.38,0.41c-0.2,0-0.29-0.12-0.29-0.34
			c0-0.15,0.01-0.27,0.03-0.34c0.16-1.17,0.23-2.25,0.23-3.24c0-0.19-0.02-0.73-0.06-1.61c-0.02-0.12-0.03-0.27-0.03-0.46
			c0-0.29,0.12-0.43,0.35-0.43c0.2,0,0.33,0.23,0.41,0.7c0.51,3.44,2.16,5.16,4.96,5.16c1.19,0,2.12-0.33,2.77-0.99
			s0.98-1.59,0.98-2.8c0-1.07-0.32-1.99-0.95-2.74s-1.73-1.51-3.27-2.25c-1.86-0.9-3.15-1.77-3.87-2.61s-1.08-1.88-1.08-3.13
			c0-1.59,0.52-2.9,1.57-3.93c1.05-1.03,2.37-1.55,3.97-1.55c0.66,0,1.58,0.22,2.76,0.66c0.41,0.15,0.71,0.23,0.91,0.23
			c0.21,0,0.36-0.04,0.42-0.12c0.07-0.08,0.13-0.28,0.19-0.6c0.04-0.19,0.15-0.29,0.32-0.29c0.2,0,0.29,0.12,0.29,0.34
			c0,0.15-0.01,0.27-0.03,0.34c-0.06,0.46-0.09,1.01-0.09,1.66c0,0.92,0.05,1.65,0.15,2.18l0.03,0.46c0.02,0.21-0.07,0.32-0.26,0.32
			c-0.21,0-0.36-0.22-0.44-0.66c-0.22-1.13-0.72-2.07-1.53-2.83c-0.8-0.76-1.7-1.13-2.7-1.13c-0.98,0-1.76,0.31-2.33,0.92
			c-0.58,0.61-0.87,1.45-0.87,2.5c0,1.22,0.42,2.21,1.26,2.96c0.47,0.42,1.49,1.01,3.05,1.78c1.84,0.9,3.16,1.81,3.96,2.74
			C1501,736.04,1501.4,737.1,1501.4,738.28z"/>
		<path fill="#4D4E4E" d="M1510.73,743.63c0,0.16-0.12,0.24-0.35,0.24h-0.29c-0.12-0.06-1.45-0.09-4-0.09
			c-0.49,0-0.98,0.02-1.47,0.06c-0.25,0.02-0.65,0.03-1.18,0.03c-0.25,0-0.38-0.09-0.38-0.26c0-0.15,0.25-0.24,0.76-0.26
			c0.78-0.02,1.24-0.11,1.38-0.27s0.21-0.71,0.21-1.66v-15.14c0-0.94-0.05-1.47-0.15-1.58c-0.12-0.19-0.66-0.31-1.63-0.34
			c-0.38-0.02-0.56-0.08-0.56-0.2c0-0.15,0.12-0.23,0.36-0.23h4.01c0.3,0,0.87,0.01,1.72,0.03l1.13-0.03c0.32,0,0.47,0.08,0.47,0.25
			c0,0.14-0.44,0.24-1.32,0.27c-0.5,0.02-0.81,0.11-0.92,0.26c-0.11,0.15-0.17,0.56-0.17,1.21v15.33c0,1.09,0.05,1.68,0.15,1.78
			c0.22,0.21,0.86,0.33,1.93,0.37C1510.62,743.39,1510.73,743.47,1510.73,743.63z"/>
		<path fill="#4D4E4E" d="M1531.61,737.86c0,0.15-0.23,0.22-0.7,0.22c-1.06,0-1.64,0.15-1.76,0.46c-0.08,0.21-0.12,1.04-0.12,2.49
			v0.92c-1.02,0.84-1.98,1.43-2.9,1.77c-0.92,0.34-2.02,0.51-3.32,0.51c-3.09,0-5.54-0.9-7.36-2.71c-1.82-1.81-2.73-4.26-2.73-7.36
			c0-3.14,0.89-5.67,2.67-7.61s4.13-2.9,7.04-2.9c1.27,0,2.66,0.34,4.17,1.03c0.45,0.21,0.82,0.32,1.12,0.32
			c0.37,0,0.62-0.23,0.73-0.69c0.1-0.27,0.21-0.4,0.35-0.4c0.16,0,0.23,0.09,0.23,0.26c0,0.02-0.02,0.2-0.05,0.54
			c-0.12,1.13-0.17,1.96-0.15,2.5v1.55c0.02,0.79,0.01,1.27-0.03,1.46s-0.15,0.29-0.32,0.29c-0.18,0-0.27-0.13-0.29-0.4
			c-0.1-1.85-0.65-3.3-1.64-4.37s-2.31-1.6-3.93-1.6c-2.03,0-3.64,0.89-4.83,2.66c-1.18,1.78-1.77,4.2-1.77,7.27
			c0,2.97,0.6,5.33,1.8,7.07c1.2,1.74,2.83,2.6,4.88,2.6c1.56,0,2.64-0.44,3.23-1.33c0.29-0.44,0.44-1.24,0.44-2.39
			c0-0.96-0.09-1.53-0.28-1.7c-0.19-0.17-0.83-0.25-1.92-0.23c-0.27,0-0.45-0.01-0.53-0.04c-0.08-0.03-0.12-0.08-0.12-0.17
			c0-0.19,0.21-0.28,0.65-0.28h0.53c0.43,0.02,1.5,0.02,3.23,0h2.35c0.14,0,0.28,0,0.44,0c0.16,0,0.26,0,0.32,0
			C1531.42,737.59,1531.61,737.68,1531.61,737.86z"/>
		<path fill="#4D4E4E" d="M1549.83,724.22c0,0.19-0.25,0.28-0.73,0.26h-0.65h-0.53c-0.31,0-0.5,0.05-0.56,0.16
			c-0.06,0.1-0.09,0.42-0.09,0.96v16.51c0,1.01-0.01,1.61-0.03,1.78c-0.02,0.17-0.08,0.26-0.18,0.26c-0.12,0-0.25-0.11-0.41-0.32
			l-3.75-5.37c-2.17-3.12-4.82-7.01-7.93-11.68v16.02c0.02,0.25,0.17,0.41,0.45,0.47c0.28,0.07,0.94,0.11,1.99,0.13
			c0.26,0,0.39,0.08,0.39,0.23c0,0.19-0.25,0.29-0.76,0.29c-0.18,0-0.73-0.03-1.67-0.09c-0.31-0.02-0.62-0.03-0.91-0.03
			c0.02,0-0.15,0.02-0.51,0.06c-0.36,0.04-0.91,0.06-1.66,0.06h-0.29c-0.45,0-0.67-0.09-0.67-0.26c0-0.17,0.2-0.26,0.59-0.26
			c1.15-0.02,1.82-0.09,2.01-0.21c0.19-0.12,0.28-0.53,0.28-1.22v-14.17c0-1.59-0.33-2.59-1-2.99c-0.31-0.19-0.87-0.29-1.67-0.29
			c-0.51,0-0.76-0.1-0.76-0.3c0-0.18,0.15-0.27,0.44-0.27c0.39,0,0.89,0.02,1.5,0.06s0.93,0.06,0.97,0.06
			c0.06,0,0.33-0.01,0.82-0.03c0.65,0,1.27-0.03,1.88-0.09l10.12,14.78v-12.77c0-0.59-0.01-0.95-0.03-1.08
			c-0.02-0.12-0.1-0.22-0.24-0.29c-0.14-0.07-0.61-0.1-1.41-0.1c-0.7,0-1.06-0.09-1.06-0.26c0-0.19,0.23-0.29,0.7-0.29h1.03
			c0.25,0,0.53,0,0.82,0c0.31,0,0.5,0,0.56,0c0.02,0,0.2,0,0.53,0c0.31,0,0.61,0,0.88,0h0.91
			C1549.61,723.93,1549.83,724.03,1549.83,724.22z"/>
		<path fill="#4D4E4E" d="M1571.76,738.28c0,1.65-0.64,3.05-1.92,4.21c-1.28,1.16-2.82,1.74-4.62,1.74c-1.06,0-2.32-0.32-3.78-0.95
			c-0.39-0.17-0.69-0.26-0.88-0.26c-0.23,0-0.38,0.27-0.44,0.79c-0.02,0.27-0.15,0.41-0.38,0.41c-0.2,0-0.29-0.12-0.29-0.34
			c0-0.15,0.01-0.27,0.03-0.34c0.16-1.17,0.23-2.25,0.23-3.24c0-0.19-0.02-0.73-0.06-1.61c-0.02-0.12-0.03-0.27-0.03-0.46
			c0-0.29,0.12-0.43,0.35-0.43c0.2,0,0.33,0.23,0.41,0.7c0.51,3.44,2.16,5.16,4.96,5.16c1.19,0,2.12-0.33,2.77-0.99
			s0.98-1.59,0.98-2.8c0-1.07-0.32-1.99-0.95-2.74s-1.73-1.51-3.27-2.25c-1.86-0.9-3.15-1.77-3.87-2.61s-1.08-1.88-1.08-3.13
			c0-1.59,0.52-2.9,1.57-3.93c1.05-1.03,2.37-1.55,3.97-1.55c0.66,0,1.58,0.22,2.76,0.66c0.41,0.15,0.71,0.23,0.91,0.23
			c0.21,0,0.36-0.04,0.42-0.12c0.07-0.08,0.13-0.28,0.19-0.6c0.04-0.19,0.15-0.29,0.32-0.29c0.2,0,0.29,0.12,0.29,0.34
			c0,0.15-0.01,0.27-0.03,0.34c-0.06,0.46-0.09,1.01-0.09,1.66c0,0.92,0.05,1.65,0.15,2.18l0.03,0.46c0.02,0.21-0.07,0.32-0.26,0.32
			c-0.21,0-0.36-0.22-0.44-0.66c-0.22-1.13-0.72-2.07-1.53-2.83c-0.8-0.76-1.7-1.13-2.7-1.13c-0.98,0-1.76,0.31-2.33,0.92
			c-0.58,0.61-0.87,1.45-0.87,2.5c0,1.22,0.42,2.21,1.26,2.96c0.47,0.42,1.49,1.01,3.05,1.78c1.84,0.9,3.16,1.81,3.96,2.74
			C1571.36,736.04,1571.76,737.1,1571.76,738.28z"/>
		<path fill="#4D4E4E" d="M1589.36,729.07c0,0.25-0.12,0.37-0.35,0.37s-0.4-0.25-0.5-0.75c-0.04-0.34-0.08-0.69-0.12-1.03
			c-0.14-0.69-0.36-1.27-0.67-1.75c-0.41-0.63-1.08-1.03-2.02-1.21c-0.61-0.11-1.09-0.16-1.47-0.14c-0.92,0.03-1.48,0.04-1.67,0.06
			v17.33c0,0.69,0.19,1.12,0.56,1.29c0.2,0.1,0.74,0.15,1.64,0.17c0.23,0.02,0.35,0.1,0.35,0.24c0,0.16-0.16,0.24-0.47,0.24
			c-0.16,0-0.29-0.01-0.41-0.03c-1.17-0.04-2-0.06-2.49-0.06c-0.65,0-1.25,0.01-1.82,0.04c-0.57,0.03-1.29,0.04-2.17,0.04
			c-0.45,0-0.67-0.08-0.67-0.23c0-0.17,0.42-0.27,1.26-0.29c0.61,0,1-0.12,1.17-0.37c0.1-0.15,0.15-0.55,0.15-1.18v-17.22
			c-1.94,0.02-3.14,0.12-3.61,0.29c-1.23,0.44-1.96,1.62-2.17,3.53c-0.06,0.57-0.2,0.86-0.41,0.86c-0.23,0-0.35-0.2-0.35-0.6
			c0-0.21,0.01-0.42,0.03-0.63l0.06-0.66c0.06-0.88,0.15-2.04,0.26-3.47h1.32l5.98,0.09c0.7,0.02,1.8,0.02,3.29,0l4.87-0.09
			c0.04,1.07,0.17,2.66,0.38,4.76c0,0.06,0.01,0.13,0.03,0.22S1589.36,729.05,1589.36,729.07z"/>
		<path fill="#4D4E4E" d="M1609.08,724.22c0,0.15-0.18,0.23-0.53,0.23c-0.06,0-0.25,0-0.59,0c-0.1,0-0.23,0-0.41,0
			c-0.49,0-0.78,0.12-0.88,0.37c-0.04,0.13-0.06,0.35-0.06,0.66v10.75c0,2.79-0.53,4.82-1.6,6.09s-2.78,1.91-5.15,1.91
			c-2.84,0-4.83-0.78-5.98-2.35c-0.76-1.05-1.14-2.78-1.14-5.2v-11.51c-0.06-0.34-0.3-0.56-0.71-0.63c-0.12-0.02-0.49-0.03-1.1-0.03
			c-0.34-0.04-0.5-0.13-0.5-0.29c0-0.17,0.14-0.26,0.41-0.26h0.53c0.1,0,0.32,0,0.67,0c0.31,0,0.6,0,0.85,0h4.2c0.1,0,0.21,0,0.35,0
			c0.33,0,0.5,0.11,0.5,0.32c0,0.13-0.06,0.21-0.18,0.23c-0.12,0.02-0.51,0.04-1.17,0.06c-0.27,0-0.46,0.02-0.56,0.06
			c-0.2,0.08-0.3,0.21-0.32,0.4c-0.02,0.08-0.03,0.62-0.03,1.63v10.25c0,2.52,0.41,4.24,1.23,5.15c0.82,0.92,2.04,1.37,3.67,1.37
			c2.97,0,4.65-1.65,5.05-4.94c0.06-0.5,0.09-2.59,0.09-6.29v-1.63v-2.29v-1.97c0-0.19,0-0.4,0-0.63c0-0.25,0-0.35,0-0.31
			c0-0.42-0.21-0.68-0.62-0.77c-0.14-0.04-0.54-0.06-1.2-0.06c-0.39,0-0.59-0.1-0.59-0.31c0-0.17,0.14-0.26,0.41-0.26
			c0.16,0,0.28,0,0.38,0c0.24,0,1.09,0,2.57,0c0.22,0,0.46,0,0.74,0c0.25,0,0.44,0,0.56,0h0.44
			C1608.85,723.96,1609.08,724.05,1609.08,724.22z"/>
		<path fill="#4D4E4E" d="M1629.14,733.92c0,3.38-1.2,6.01-3.61,7.89c-1.76,1.38-4.12,2.07-7.07,2.07c-0.08,0-0.42,0-1.04,0
			s-1.51,0-2.68,0h-1.47h-2.32c-0.14,0-0.28,0-0.44,0c-0.37,0-0.56-0.1-0.56-0.29c0-0.17,0.31-0.26,0.94-0.26
			c0.8,0,1.3-0.14,1.5-0.43c0.08-0.13,0.12-0.5,0.12-1.09v-15.47c0-0.94-0.07-1.48-0.22-1.64c-0.15-0.15-0.65-0.23-1.51-0.23
			c-0.45,0-0.67-0.1-0.67-0.32c0-0.15,0.17-0.23,0.5-0.23c-0.02,0,0.2,0,0.65,0c0.45,0,0.89,0,1.32,0h3.14
			c3.52,0,6.01,0.24,7.48,0.72c1.78,0.58,3.22,1.71,4.31,3.41C1628.59,729.76,1629.14,731.71,1629.14,733.92z M1625.86,733.8
			c0-3.19-0.64-5.52-1.91-7.01s-3.26-2.23-5.95-2.23c-1.31,0-2.1,0.13-2.38,0.4c-0.12,0.13-0.18,0.6-0.18,1.38v15.32
			c0,0.54,0.01,0.86,0.04,0.98s0.11,0.21,0.25,0.29c0.47,0.23,1.46,0.35,2.96,0.35c2.11,0,3.81-0.73,5.1-2.19
			C1625.17,739.55,1625.86,737.12,1625.86,733.8z"/>
		<path fill="#4D4E4E" d="M1646.83,739.26c0,0.08-0.02,0.55-0.06,1.41c-0.04,0.86-0.06,1.68-0.06,2.47v0.95
			c-1.92-0.12-5.71-0.17-11.38-0.17c-0.69,0-1.36,0-2.02,0s-1.12,0-1.35,0h-0.29c-0.37,0-0.56-0.08-0.56-0.23
			c0-0.1,0.06-0.16,0.18-0.18c0.06,0,0.43-0.03,1.12-0.08c0.51-0.04,0.82-0.14,0.92-0.32s0.16-0.62,0.16-1.35v-16.18
			c0-0.56-0.08-0.89-0.25-0.99c-0.17-0.1-0.7-0.16-1.6-0.16c-0.31,0-0.47-0.08-0.47-0.24c0-0.16,0.21-0.24,0.65-0.24h5.02
			c0.18,0,1.28,0,3.31,0s3.4,0,4.11,0c0.59,0,1.12-0.04,1.61-0.12c0.04,0.82,0.13,1.96,0.26,3.42l0.12,1.23
			c0.02,0.1,0.03,0.22,0.03,0.37c0,0.19-0.09,0.29-0.26,0.29c-0.22,0-0.37-0.24-0.47-0.72c-0.37-1.73-0.98-2.83-1.82-3.29
			c-0.63-0.35-2.27-0.52-4.93-0.52h-2.41v8.44h0.7c2.19,0,3.52-0.16,4-0.49c0.48-0.32,0.81-1.27,0.98-2.84
			c0.04-0.4,0.15-0.6,0.32-0.6c0.21,0,0.32,0.17,0.32,0.52c0,0.34-0.02,0.85-0.06,1.52c-0.04,0.67-0.06,1.18-0.06,1.52
			c0,2.05,0.03,3.45,0.09,4.22c0.01,0.19,0.02,0.35,0.02,0.49c0,0.25-0.11,0.37-0.32,0.37c-0.14,0-0.23-0.08-0.28-0.24
			c-0.05-0.16-0.13-0.69-0.25-1.59c-0.16-1.13-0.63-1.83-1.43-2.09c-0.35-0.12-1.27-0.17-2.74-0.17h-1.31v9.61
			c4.3,0,6.83-0.08,7.57-0.25c1.29-0.28,2.02-1.49,2.2-3.63c0.04-0.47,0.17-0.71,0.38-0.71
			C1646.73,738.66,1646.83,738.86,1646.83,739.26z"/>
		<path fill="#4D4E4E" d="M1666.28,724.22c0,0.19-0.25,0.28-0.73,0.26h-0.65h-0.53c-0.31,0-0.5,0.05-0.56,0.16
			c-0.06,0.1-0.09,0.42-0.09,0.96v16.51c0,1.01-0.01,1.61-0.03,1.78c-0.02,0.17-0.08,0.26-0.18,0.26c-0.12,0-0.25-0.11-0.41-0.32
			l-3.75-5.37c-2.17-3.12-4.82-7.01-7.93-11.68v16.02c0.02,0.25,0.17,0.41,0.45,0.47c0.28,0.07,0.94,0.11,1.99,0.13
			c0.26,0,0.39,0.08,0.39,0.23c0,0.19-0.25,0.29-0.76,0.29c-0.18,0-0.73-0.03-1.67-0.09c-0.31-0.02-0.62-0.03-0.91-0.03
			c0.02,0-0.15,0.02-0.51,0.06c-0.36,0.04-0.91,0.06-1.66,0.06h-0.29c-0.45,0-0.67-0.09-0.67-0.26c0-0.17,0.2-0.26,0.59-0.26
			c1.15-0.02,1.82-0.09,2.01-0.21c0.19-0.12,0.28-0.53,0.28-1.22v-14.17c0-1.59-0.33-2.59-1-2.99c-0.31-0.19-0.87-0.29-1.67-0.29
			c-0.51,0-0.76-0.1-0.76-0.3c0-0.18,0.15-0.27,0.44-0.27c0.39,0,0.89,0.02,1.5,0.06s0.93,0.06,0.97,0.06
			c0.06,0,0.33-0.01,0.82-0.03c0.65,0,1.27-0.03,1.88-0.09l10.12,14.78v-12.77c0-0.59-0.01-0.95-0.03-1.08
			c-0.02-0.12-0.1-0.22-0.24-0.29c-0.14-0.07-0.61-0.1-1.41-0.1c-0.7,0-1.06-0.09-1.06-0.26c0-0.19,0.23-0.29,0.7-0.29h1.03
			c0.25,0,0.53,0,0.82,0c0.31,0,0.5,0,0.56,0c0.02,0,0.2,0,0.53,0c0.31,0,0.61,0,0.88,0h0.91
			C1666.06,723.93,1666.28,724.03,1666.28,724.22z"/>
		<path fill="#4D4E4E" d="M1683.41,729.07c0,0.25-0.12,0.37-0.35,0.37s-0.4-0.25-0.5-0.75c-0.04-0.34-0.08-0.69-0.12-1.03
			c-0.14-0.69-0.36-1.27-0.67-1.75c-0.41-0.63-1.08-1.03-2.02-1.21c-0.61-0.11-1.09-0.16-1.47-0.14c-0.92,0.03-1.48,0.04-1.67,0.06
			v17.33c0,0.69,0.19,1.12,0.56,1.29c0.2,0.1,0.74,0.15,1.64,0.17c0.23,0.02,0.35,0.1,0.35,0.24c0,0.16-0.16,0.24-0.47,0.24
			c-0.16,0-0.29-0.01-0.41-0.03c-1.17-0.04-2-0.06-2.49-0.06c-0.65,0-1.25,0.01-1.82,0.04c-0.57,0.03-1.29,0.04-2.17,0.04
			c-0.45,0-0.67-0.08-0.67-0.23c0-0.17,0.42-0.27,1.26-0.29c0.61,0,1-0.12,1.17-0.37c0.1-0.15,0.15-0.55,0.15-1.18v-17.22
			c-1.94,0.02-3.14,0.12-3.61,0.29c-1.23,0.44-1.96,1.62-2.17,3.53c-0.06,0.57-0.2,0.86-0.41,0.86c-0.23,0-0.35-0.2-0.35-0.6
			c0-0.21,0.01-0.42,0.03-0.63l0.06-0.66c0.06-0.88,0.15-2.04,0.26-3.47h1.32l5.98,0.09c0.7,0.02,1.8,0.02,3.29,0l4.87-0.09
			c0.04,1.07,0.17,2.66,0.38,4.76c0,0.06,0.01,0.13,0.03,0.22S1683.41,729.05,1683.41,729.07z"/>
		<path fill="#4D4E4E" d="M1282.82,833.61c0,0.23-0.21,0.35-0.63,0.35c-0.28,0-0.53-0.01-0.75-0.04l-5.32-0.16l-5.32,0.16
			c-0.2,0.03-0.41,0.04-0.63,0.04c-0.56,0-0.84-0.14-0.84-0.43c0-0.31,0.38-0.47,1.13-0.47c2.46-0.03,3.69-0.27,3.69-0.72
			c0-0.03-0.03-0.13-0.09-0.32l-0.34-1.08l-0.21-0.57c-0.25-0.85-0.87-2.72-1.84-5.62h-8.96c-1.67,4.37-2.51,6.89-2.51,7.54
			c0,0.38,0.17,0.61,0.5,0.7c0.08,0.03,0.78,0.08,2.09,0.16c0.81,0.03,1.22,0.16,1.22,0.41c0,0.27-0.36,0.41-1.09,0.41
			c-1.29,0-2.78-0.05-4.48-0.16c-0.42-0.03-0.85-0.04-1.3-0.04c-0.45,0-0.88,0.05-1.3,0.14c-0.22,0.04-0.41,0.07-0.54,0.07
			c-0.39,0-0.59-0.12-0.59-0.37s0.44-0.38,1.32-0.41s1.51-0.16,1.91-0.39c0.39-0.23,0.7-0.68,0.92-1.34
			c3.59-10.09,6.52-18.2,8.78-24.31c0.06-0.32,0.2-0.68,0.39-1.09l0.18-0.75c0.08-0.3,0.2-0.45,0.33-0.45
			c0.08,0,0.15,0.08,0.21,0.25c0.36,1.07,1.19,3.29,2.47,6.68c1.01,2.65,3.51,9.31,7.5,19.97c0.22,0.62,0.51,1.01,0.86,1.18
			s1.07,0.27,2.16,0.29C1282.46,833.25,1282.82,833.38,1282.82,833.61z M1271.42,823.79c-0.46-1.23-1.21-3.26-2.26-6.1l-2.01-5.68
			c-1.17,3.02-2.57,6.95-4.21,11.78H1271.42z"/>
		<path fill="#4D4E4E" d="M1298.36,833.02c0,0.8-0.68,1.21-2.05,1.21c-1.53,0-2.72-0.62-3.58-1.87c-0.37-0.54-0.61-1.05-0.72-1.55
			c-0.11-0.5-0.27-1.76-0.48-3.79c-0.12-1.22-0.52-2.09-1.2-2.6c-0.68-0.51-1.8-0.78-3.34-0.82v9.04c0,0.38,0.31,0.62,0.94,0.72
			c0.18,0.02,0.63,0.04,1.35,0.06c0.25,0,0.38,0.08,0.38,0.23c0,0.17-0.17,0.26-0.5,0.26h-0.35c-0.18,0-1.03,0-2.55,0
			c-0.29,0-0.79,0-1.5,0c-0.68,0-1.13,0-1.35,0h-1.14c-0.43,0-0.65-0.09-0.65-0.26c0-0.13,0.28-0.21,0.85-0.23
			c0.92-0.02,1.42-0.13,1.5-0.34c0.08-0.1,0.12-0.47,0.12-1.12v-15.84c0-0.76-0.08-1.22-0.25-1.38c-0.17-0.15-0.67-0.24-1.51-0.26
			c-0.49,0-0.73-0.09-0.73-0.26c0-0.19,0.16-0.29,0.47-0.29c0.06,0,0.15,0.01,0.26,0.03l3.9,0.09c0.39,0,0.94-0.01,1.64-0.04
			c0.78-0.05,1.33-0.08,1.64-0.08c1.82,0,3.26,0.4,4.33,1.19c1.07,0.79,1.6,1.87,1.6,3.23c0,1.34-0.55,2.44-1.64,3.31
			c-1.1,0.87-2.58,1.38-4.46,1.54c-0.18,0.02-0.27,0.05-0.29,0.09c0,0.08,0.1,0.12,0.29,0.12c2.05,0.34,3.47,1.05,4.24,2.12
			c0.77,1.06,1.29,2.99,1.54,5.77c0.16,1.57,0.7,2.36,1.64,2.36c0.29,0,0.44-0.06,0.44-0.17c0-0.02-0.01-0.04-0.03-0.06
			c-0.1-0.21-0.15-0.38-0.15-0.52c0-0.4,0.22-0.6,0.65-0.6C1298.13,832.3,1298.36,832.54,1298.36,833.02z M1292.29,818.64
			c0-2.74-1.21-4.1-3.64-4.1c-0.65,0-1.08,0.09-1.32,0.26c-0.24,0.17-0.35,0.48-0.35,0.92V823c1.88,0.02,3.23-0.32,4.06-1
			S1292.29,820.19,1292.29,818.64z"/>
		<path fill="#4D4E4E" d="M1314.93,819.07c0,0.25-0.12,0.37-0.35,0.37s-0.4-0.25-0.5-0.75c-0.04-0.34-0.08-0.69-0.12-1.03
			c-0.14-0.69-0.36-1.27-0.67-1.75c-0.41-0.63-1.08-1.03-2.02-1.21c-0.61-0.11-1.09-0.16-1.47-0.14c-0.92,0.03-1.48,0.04-1.67,0.06
			v17.33c0,0.69,0.19,1.12,0.56,1.29c0.2,0.1,0.74,0.15,1.64,0.17c0.23,0.02,0.35,0.1,0.35,0.24c0,0.16-0.16,0.24-0.47,0.24
			c-0.16,0-0.29-0.01-0.41-0.03c-1.17-0.04-2-0.06-2.49-0.06c-0.65,0-1.25,0.01-1.82,0.04c-0.57,0.03-1.29,0.04-2.17,0.04
			c-0.45,0-0.67-0.08-0.67-0.23c0-0.17,0.42-0.27,1.26-0.29c0.61,0,1-0.12,1.17-0.37c0.1-0.15,0.15-0.55,0.15-1.18v-17.22
			c-1.94,0.02-3.14,0.12-3.61,0.29c-1.23,0.44-1.96,1.62-2.17,3.53c-0.06,0.57-0.2,0.86-0.41,0.86c-0.23,0-0.35-0.2-0.35-0.6
			c0-0.21,0.01-0.42,0.03-0.63l0.06-0.66c0.06-0.88,0.15-2.04,0.26-3.47h1.32l5.98,0.09c0.7,0.02,1.8,0.02,3.29,0l4.87-0.09
			c0.04,1.07,0.17,2.66,0.38,4.76c0,0.06,0.01,0.13,0.03,0.22S1314.93,819.05,1314.93,819.07z"/>
		<path fill="#4D4E4E" d="M1323.85,833.63c0,0.16-0.12,0.24-0.35,0.24h-0.29c-0.12-0.06-1.45-0.09-4-0.09
			c-0.49,0-0.98,0.02-1.47,0.06c-0.25,0.02-0.65,0.03-1.18,0.03c-0.25,0-0.38-0.09-0.38-0.26c0-0.15,0.25-0.24,0.76-0.26
			c0.78-0.02,1.24-0.11,1.38-0.27s0.21-0.71,0.21-1.66v-15.14c0-0.94-0.05-1.47-0.15-1.58c-0.12-0.19-0.66-0.31-1.63-0.34
			c-0.38-0.02-0.56-0.08-0.56-0.2c0-0.15,0.12-0.23,0.36-0.23h4.01c0.3,0,0.87,0.01,1.72,0.03l1.13-0.03c0.32,0,0.47,0.08,0.47,0.25
			c0,0.14-0.44,0.24-1.32,0.27c-0.5,0.02-0.81,0.11-0.92,0.26c-0.11,0.15-0.17,0.56-0.17,1.21v15.33c0,1.09,0.05,1.68,0.15,1.78
			c0.22,0.21,0.86,0.33,1.93,0.37C1323.74,833.39,1323.85,833.47,1323.85,833.63z"/>
		<path fill="#4D4E4E" d="M1338.34,828.28c0,1.65-0.64,3.05-1.92,4.21c-1.28,1.16-2.82,1.74-4.62,1.74c-1.06,0-2.32-0.32-3.78-0.95
			c-0.39-0.17-0.69-0.26-0.88-0.26c-0.23,0-0.38,0.27-0.44,0.79c-0.02,0.27-0.15,0.41-0.38,0.41c-0.2,0-0.29-0.12-0.29-0.34
			c0-0.15,0.01-0.27,0.03-0.34c0.16-1.17,0.23-2.25,0.23-3.24c0-0.19-0.02-0.73-0.06-1.61c-0.02-0.12-0.03-0.27-0.03-0.46
			c0-0.29,0.12-0.43,0.35-0.43c0.2,0,0.33,0.23,0.41,0.7c0.51,3.44,2.16,5.16,4.96,5.16c1.19,0,2.12-0.33,2.77-0.99
			s0.98-1.59,0.98-2.8c0-1.07-0.32-1.99-0.95-2.74s-1.73-1.51-3.27-2.25c-1.86-0.9-3.15-1.77-3.87-2.61s-1.08-1.88-1.08-3.13
			c0-1.59,0.52-2.9,1.57-3.93c1.05-1.03,2.37-1.55,3.97-1.55c0.66,0,1.58,0.22,2.76,0.66c0.41,0.15,0.71,0.23,0.91,0.23
			c0.21,0,0.36-0.04,0.42-0.12c0.07-0.08,0.13-0.28,0.19-0.6c0.04-0.19,0.15-0.29,0.32-0.29c0.2,0,0.29,0.12,0.29,0.34
			c0,0.15-0.01,0.27-0.03,0.34c-0.06,0.46-0.09,1.01-0.09,1.66c0,0.92,0.05,1.65,0.15,2.18l0.03,0.46c0.02,0.21-0.07,0.32-0.26,0.32
			c-0.21,0-0.36-0.22-0.44-0.66c-0.22-1.13-0.72-2.07-1.53-2.83c-0.8-0.76-1.7-1.13-2.7-1.13c-0.98,0-1.76,0.31-2.33,0.92
			c-0.58,0.61-0.87,1.45-0.87,2.5c0,1.22,0.42,2.21,1.26,2.96c0.47,0.42,1.49,1.01,3.05,1.78c1.84,0.9,3.16,1.81,3.96,2.74
			C1337.94,826.04,1338.34,827.1,1338.34,828.28z"/>
		<path fill="#4D4E4E" d="M1355.94,819.07c0,0.25-0.12,0.37-0.35,0.37s-0.4-0.25-0.5-0.75c-0.04-0.34-0.08-0.69-0.12-1.03
			c-0.14-0.69-0.36-1.27-0.67-1.75c-0.41-0.63-1.08-1.03-2.02-1.21c-0.61-0.11-1.09-0.16-1.47-0.14c-0.92,0.03-1.48,0.04-1.67,0.06
			v17.33c0,0.69,0.19,1.12,0.56,1.29c0.2,0.1,0.74,0.15,1.64,0.17c0.23,0.02,0.35,0.1,0.35,0.24c0,0.16-0.16,0.24-0.47,0.24
			c-0.16,0-0.29-0.01-0.41-0.03c-1.17-0.04-2-0.06-2.49-0.06c-0.65,0-1.25,0.01-1.82,0.04c-0.57,0.03-1.29,0.04-2.17,0.04
			c-0.45,0-0.67-0.08-0.67-0.23c0-0.17,0.42-0.27,1.26-0.29c0.61,0,1-0.12,1.17-0.37c0.1-0.15,0.15-0.55,0.15-1.18v-17.22
			c-1.94,0.02-3.14,0.12-3.61,0.29c-1.23,0.44-1.96,1.62-2.17,3.53c-0.06,0.57-0.2,0.86-0.41,0.86c-0.23,0-0.35-0.2-0.35-0.6
			c0-0.21,0.01-0.42,0.03-0.63l0.06-0.66c0.06-0.88,0.15-2.04,0.26-3.47h1.32l5.98,0.09c0.7,0.02,1.8,0.02,3.29,0l4.87-0.09
			c0.04,1.07,0.17,2.66,0.38,4.76c0,0.06,0.01,0.13,0.03,0.22S1355.94,819.05,1355.94,819.07z"/>
		<path fill="#4D4E4E" d="M1372.66,833.63c0,0.16-0.12,0.24-0.35,0.24h-0.29c-0.12-0.06-1.45-0.09-4-0.09
			c-0.49,0-0.98,0.02-1.47,0.06c-0.25,0.02-0.65,0.03-1.18,0.03c-0.25,0-0.38-0.09-0.38-0.26c0-0.15,0.25-0.24,0.76-0.26
			c0.78-0.02,1.24-0.11,1.38-0.27s0.21-0.71,0.21-1.66v-15.14c0-0.94-0.05-1.47-0.15-1.58c-0.12-0.19-0.66-0.31-1.63-0.34
			c-0.38-0.02-0.56-0.08-0.56-0.2c0-0.15,0.12-0.23,0.36-0.23h4.01c0.3,0,0.87,0.01,1.72,0.03l1.13-0.03c0.32,0,0.47,0.08,0.47,0.25
			c0,0.14-0.44,0.24-1.32,0.27c-0.5,0.02-0.81,0.11-0.92,0.26c-0.11,0.15-0.17,0.56-0.17,1.21v15.33c0,1.09,0.05,1.68,0.15,1.78
			c0.22,0.21,0.86,0.33,1.93,0.37C1372.55,833.39,1372.66,833.47,1372.66,833.63z"/>
		<path fill="#4D4E4E" d="M1392.25,814.22c0,0.19-0.25,0.28-0.73,0.26h-0.65h-0.53c-0.31,0-0.5,0.05-0.56,0.16
			c-0.06,0.1-0.09,0.42-0.09,0.96v16.51c0,1.01-0.01,1.61-0.03,1.78c-0.02,0.17-0.08,0.26-0.18,0.26c-0.12,0-0.25-0.11-0.41-0.32
			l-3.75-5.37c-2.17-3.12-4.82-7.01-7.93-11.68v16.02c0.02,0.25,0.17,0.41,0.45,0.47c0.28,0.07,0.94,0.11,1.99,0.13
			c0.26,0,0.39,0.08,0.39,0.23c0,0.19-0.25,0.29-0.76,0.29c-0.18,0-0.73-0.03-1.67-0.09c-0.31-0.02-0.62-0.03-0.91-0.03
			c0.02,0-0.15,0.02-0.51,0.06c-0.36,0.04-0.91,0.06-1.66,0.06h-0.29c-0.45,0-0.67-0.09-0.67-0.26c0-0.17,0.2-0.26,0.59-0.26
			c1.15-0.02,1.82-0.09,2.01-0.21c0.19-0.12,0.28-0.53,0.28-1.22v-14.17c0-1.59-0.33-2.59-1-2.99c-0.31-0.19-0.87-0.29-1.67-0.29
			c-0.51,0-0.76-0.1-0.76-0.3c0-0.18,0.15-0.27,0.44-0.27c0.39,0,0.89,0.02,1.5,0.06s0.93,0.06,0.97,0.06
			c0.06,0,0.33-0.01,0.82-0.03c0.65,0,1.27-0.03,1.88-0.09l10.12,14.78v-12.77c0-0.59-0.01-0.95-0.03-1.08
			c-0.02-0.12-0.1-0.22-0.24-0.29c-0.14-0.07-0.61-0.1-1.41-0.1c-0.7,0-1.06-0.09-1.06-0.26c0-0.19,0.23-0.29,0.7-0.29h1.03
			c0.25,0,0.53,0,0.82,0c0.31,0,0.5,0,0.56,0c0.02,0,0.2,0,0.53,0c0.31,0,0.61,0,0.88,0h0.91
			C1392.04,813.93,1392.25,814.03,1392.25,814.22z"/>
		<path fill="#4D4E4E" d="M1420.23,823.92c0,3.38-1.2,6.01-3.61,7.89c-1.76,1.38-4.12,2.07-7.07,2.07c-0.08,0-0.42,0-1.04,0
			s-1.51,0-2.68,0h-1.47h-2.32c-0.14,0-0.28,0-0.44,0c-0.37,0-0.56-0.1-0.56-0.29c0-0.17,0.31-0.26,0.94-0.26
			c0.8,0,1.3-0.14,1.5-0.43c0.08-0.13,0.12-0.5,0.12-1.09v-15.47c0-0.94-0.07-1.48-0.22-1.64c-0.15-0.15-0.65-0.23-1.51-0.23
			c-0.45,0-0.67-0.1-0.67-0.32c0-0.15,0.17-0.23,0.5-0.23c-0.02,0,0.2,0,0.65,0c0.45,0,0.89,0,1.32,0h3.14
			c3.52,0,6.01,0.24,7.48,0.72c1.78,0.58,3.22,1.71,4.31,3.41C1419.68,819.76,1420.23,821.71,1420.23,823.92z M1416.94,823.8
			c0-3.19-0.64-5.52-1.91-7.01s-3.26-2.23-5.95-2.23c-1.31,0-2.1,0.13-2.38,0.4c-0.12,0.13-0.18,0.6-0.18,1.38v15.32
			c0,0.54,0.01,0.86,0.04,0.98s0.11,0.21,0.25,0.29c0.47,0.23,1.46,0.35,2.96,0.35c2.11,0,3.81-0.73,5.1-2.19
			C1416.26,829.55,1416.94,827.12,1416.94,823.8z"/>
		<path fill="#4D4E4E" d="M1429.91,833.63c0,0.16-0.12,0.24-0.35,0.24h-0.29c-0.12-0.06-1.45-0.09-4-0.09
			c-0.49,0-0.98,0.02-1.47,0.06c-0.25,0.02-0.65,0.03-1.18,0.03c-0.25,0-0.38-0.09-0.38-0.26c0-0.15,0.25-0.24,0.76-0.26
			c0.78-0.02,1.24-0.11,1.38-0.27s0.21-0.71,0.21-1.66v-15.14c0-0.94-0.05-1.47-0.15-1.58c-0.12-0.19-0.66-0.31-1.63-0.34
			c-0.38-0.02-0.56-0.08-0.56-0.2c0-0.15,0.12-0.23,0.36-0.23h4.01c0.3,0,0.87,0.01,1.72,0.03l1.13-0.03c0.32,0,0.47,0.08,0.47,0.25
			c0,0.14-0.44,0.24-1.32,0.27c-0.5,0.02-0.81,0.11-0.92,0.26c-0.11,0.15-0.17,0.56-0.17,1.21v15.33c0,1.09,0.05,1.68,0.15,1.78
			c0.22,0.21,0.86,0.33,1.93,0.37C1429.8,833.39,1429.91,833.47,1429.91,833.63z"/>
		<path fill="#4D4E4E" d="M1446.57,818.73c0,0.27-0.1,0.4-0.29,0.4c-0.2,0-0.33-0.24-0.41-0.73c-0.23-1.39-0.71-2.41-1.44-3.05
			c-0.47-0.41-1.19-0.66-2.17-0.75c-0.35-0.04-1.13-0.06-2.35-0.06c-0.9,0-1.98,0.03-3.23,0.09v8.44c2.5,0.02,4.05-0.14,4.63-0.47
			s0.94-1.28,1.06-2.83c0.04-0.44,0.16-0.66,0.35-0.66s0.29,0.14,0.29,0.43c0,0.17-0.01,0.32-0.03,0.43
			c-0.06,1.32-0.09,2.54-0.09,3.67c0,1.45,0.03,2.6,0.09,3.44c0.01,0.08,0.02,0.19,0.02,0.34c0,0.23-0.1,0.34-0.29,0.34
			c-0.16,0-0.25-0.06-0.29-0.17c-0.04-0.12-0.11-0.55-0.2-1.32c-0.16-1.17-0.46-1.89-0.92-2.18c-0.46-0.29-1.37-0.43-2.73-0.43
			c-0.72,0-1.35,0.02-1.9,0.06v2.93v5.62c0,0.56,0.22,0.91,0.67,1.06c0.21,0.08,0.69,0.11,1.42,0.09c0.31,0,0.46,0.08,0.46,0.23
			c0,0.17-0.2,0.26-0.59,0.26h-0.29c-0.27,0-0.65,0-1.11,0c-0.45,0-0.75,0-0.91,0h-4.37c-0.37,0-0.56-0.08-0.56-0.23
			c0-0.15,0.34-0.25,1.01-0.29c0.67-0.04,1.07-0.13,1.19-0.27c0.12-0.14,0.18-0.59,0.18-1.34v-16.52c-0.02-0.35-0.12-0.56-0.31-0.65
			c-0.19-0.09-0.7-0.14-1.53-0.16c-0.32,0-0.48-0.1-0.48-0.29c0-0.17,0.18-0.26,0.53-0.26h0.47c-0.04,0,0.9,0,2.83,0
			c1.93,0,3.51,0,4.74,0c3.31,0,5.33-0.06,6.07-0.17c0.02,0.25,0.08,0.97,0.18,2.15c0.06,0.8,0.14,1.52,0.23,2.15
			C1446.55,818.3,1446.57,818.53,1446.57,818.73z"/>
		<path fill="#4D4E4E" d="M1462.5,818.73c0,0.27-0.1,0.4-0.29,0.4c-0.2,0-0.33-0.24-0.41-0.73c-0.23-1.39-0.71-2.41-1.44-3.05
			c-0.47-0.41-1.19-0.66-2.17-0.75c-0.35-0.04-1.13-0.06-2.35-0.06c-0.9,0-1.98,0.03-3.23,0.09v8.44c2.5,0.02,4.05-0.14,4.63-0.47
			s0.94-1.28,1.06-2.83c0.04-0.44,0.16-0.66,0.35-0.66s0.29,0.14,0.29,0.43c0,0.17-0.01,0.32-0.03,0.43
			c-0.06,1.32-0.09,2.54-0.09,3.67c0,1.45,0.03,2.6,0.09,3.44c0.01,0.08,0.02,0.19,0.02,0.34c0,0.23-0.1,0.34-0.29,0.34
			c-0.16,0-0.25-0.06-0.29-0.17c-0.04-0.12-0.11-0.55-0.2-1.32c-0.16-1.17-0.46-1.89-0.92-2.18c-0.46-0.29-1.37-0.43-2.73-0.43
			c-0.72,0-1.35,0.02-1.9,0.06v2.93v5.62c0,0.56,0.22,0.91,0.67,1.06c0.21,0.08,0.69,0.11,1.42,0.09c0.31,0,0.46,0.08,0.46,0.23
			c0,0.17-0.2,0.26-0.59,0.26h-0.29c-0.27,0-0.65,0-1.11,0c-0.45,0-0.75,0-0.91,0h-4.37c-0.37,0-0.56-0.08-0.56-0.23
			c0-0.15,0.34-0.25,1.01-0.29c0.67-0.04,1.07-0.13,1.19-0.27c0.12-0.14,0.18-0.59,0.18-1.34v-16.52c-0.02-0.35-0.12-0.56-0.31-0.65
			c-0.19-0.09-0.7-0.14-1.53-0.16c-0.32,0-0.48-0.1-0.48-0.29c0-0.17,0.18-0.26,0.53-0.26h0.47c-0.04,0,0.9,0,2.83,0
			c1.93,0,3.51,0,4.74,0c3.31,0,5.33-0.06,6.07-0.17c0.02,0.25,0.08,0.97,0.18,2.15c0.06,0.8,0.14,1.52,0.23,2.15
			C1462.48,818.3,1462.5,818.53,1462.5,818.73z"/>
		<path fill="#4D4E4E" d="M1478.99,829.26c0,0.08-0.02,0.55-0.06,1.41c-0.04,0.86-0.06,1.68-0.06,2.47v0.95
			c-1.92-0.12-5.71-0.17-11.38-0.17c-0.69,0-1.36,0-2.02,0s-1.12,0-1.35,0h-0.29c-0.37,0-0.56-0.08-0.56-0.23
			c0-0.1,0.06-0.16,0.18-0.18c0.06,0,0.43-0.03,1.12-0.08c0.51-0.04,0.82-0.14,0.92-0.32s0.16-0.62,0.16-1.35v-16.18
			c0-0.56-0.08-0.89-0.25-0.99c-0.17-0.1-0.7-0.16-1.6-0.16c-0.31,0-0.47-0.08-0.47-0.24c0-0.16,0.21-0.24,0.65-0.24h5.02
			c0.18,0,1.28,0,3.31,0s3.4,0,4.11,0c0.59,0,1.12-0.04,1.61-0.12c0.04,0.82,0.13,1.96,0.26,3.42l0.12,1.23
			c0.02,0.1,0.03,0.22,0.03,0.37c0,0.19-0.09,0.29-0.26,0.29c-0.22,0-0.37-0.24-0.47-0.72c-0.37-1.73-0.98-2.83-1.82-3.29
			c-0.63-0.35-2.27-0.52-4.93-0.52h-2.41v8.44h0.7c2.19,0,3.52-0.16,4-0.49c0.48-0.32,0.81-1.27,0.98-2.84
			c0.04-0.4,0.15-0.6,0.32-0.6c0.21,0,0.32,0.17,0.32,0.52c0,0.34-0.02,0.85-0.06,1.52c-0.04,0.67-0.06,1.18-0.06,1.52
			c0,2.05,0.03,3.45,0.09,4.22c0.01,0.19,0.02,0.35,0.02,0.49c0,0.25-0.11,0.37-0.32,0.37c-0.14,0-0.23-0.08-0.28-0.24
			c-0.05-0.16-0.13-0.69-0.25-1.59c-0.16-1.13-0.63-1.83-1.43-2.09c-0.35-0.12-1.27-0.17-2.74-0.17h-1.31v9.61
			c4.3,0,6.83-0.08,7.57-0.25c1.29-0.28,2.02-1.49,2.2-3.63c0.04-0.47,0.17-0.71,0.38-0.71
			C1478.89,828.66,1478.99,828.86,1478.99,829.26z"/>
		<path fill="#4D4E4E" d="M1497,833.02c0,0.8-0.68,1.21-2.05,1.21c-1.53,0-2.72-0.62-3.58-1.87c-0.37-0.54-0.61-1.05-0.72-1.55
			c-0.11-0.5-0.27-1.76-0.48-3.79c-0.12-1.22-0.52-2.09-1.2-2.6c-0.68-0.51-1.8-0.78-3.34-0.82v9.04c0,0.38,0.31,0.62,0.94,0.72
			c0.18,0.02,0.63,0.04,1.35,0.06c0.25,0,0.38,0.08,0.38,0.23c0,0.17-0.17,0.26-0.5,0.26h-0.35c-0.18,0-1.03,0-2.55,0
			c-0.29,0-0.79,0-1.5,0c-0.68,0-1.13,0-1.35,0h-1.14c-0.43,0-0.65-0.09-0.65-0.26c0-0.13,0.28-0.21,0.85-0.23
			c0.92-0.02,1.42-0.13,1.5-0.34c0.08-0.1,0.12-0.47,0.12-1.12v-15.84c0-0.76-0.08-1.22-0.25-1.38c-0.17-0.15-0.67-0.24-1.51-0.26
			c-0.49,0-0.73-0.09-0.73-0.26c0-0.19,0.16-0.29,0.47-0.29c0.06,0,0.15,0.01,0.26,0.03l3.9,0.09c0.39,0,0.94-0.01,1.64-0.04
			c0.78-0.05,1.33-0.08,1.64-0.08c1.82,0,3.26,0.4,4.33,1.19c1.07,0.79,1.6,1.87,1.6,3.23c0,1.34-0.55,2.44-1.64,3.31
			c-1.1,0.87-2.58,1.38-4.46,1.54c-0.18,0.02-0.27,0.05-0.29,0.09c0,0.08,0.1,0.12,0.29,0.12c2.05,0.34,3.47,1.05,4.24,2.12
			c0.77,1.06,1.29,2.99,1.54,5.77c0.16,1.57,0.7,2.36,1.64,2.36c0.29,0,0.44-0.06,0.44-0.17c0-0.02-0.01-0.04-0.03-0.06
			c-0.1-0.21-0.15-0.38-0.15-0.52c0-0.4,0.22-0.6,0.65-0.6C1496.76,832.3,1497,832.54,1497,833.02z M1490.92,818.64
			c0-2.74-1.21-4.1-3.64-4.1c-0.65,0-1.08,0.09-1.32,0.26c-0.24,0.17-0.35,0.48-0.35,0.92V823c1.88,0.02,3.23-0.32,4.06-1
			S1490.92,820.19,1490.92,818.64z"/>
		<path fill="#4D4E4E" d="M1513.31,829.26c0,0.08-0.02,0.55-0.06,1.41c-0.04,0.86-0.06,1.68-0.06,2.47v0.95
			c-1.92-0.12-5.71-0.17-11.38-0.17c-0.69,0-1.36,0-2.02,0s-1.12,0-1.35,0h-0.29c-0.37,0-0.56-0.08-0.56-0.23
			c0-0.1,0.06-0.16,0.18-0.18c0.06,0,0.43-0.03,1.12-0.08c0.51-0.04,0.82-0.14,0.92-0.32s0.16-0.62,0.16-1.35v-16.18
			c0-0.56-0.08-0.89-0.25-0.99c-0.17-0.1-0.7-0.16-1.6-0.16c-0.31,0-0.47-0.08-0.47-0.24c0-0.16,0.21-0.24,0.65-0.24h5.02
			c0.18,0,1.28,0,3.31,0s3.4,0,4.11,0c0.59,0,1.12-0.04,1.61-0.12c0.04,0.82,0.13,1.96,0.26,3.42l0.12,1.23
			c0.02,0.1,0.03,0.22,0.03,0.37c0,0.19-0.09,0.29-0.26,0.29c-0.22,0-0.37-0.24-0.47-0.72c-0.37-1.73-0.98-2.83-1.82-3.29
			c-0.63-0.35-2.27-0.52-4.93-0.52h-2.41v8.44h0.7c2.19,0,3.52-0.16,4-0.49c0.48-0.32,0.81-1.27,0.98-2.84
			c0.04-0.4,0.15-0.6,0.32-0.6c0.21,0,0.32,0.17,0.32,0.52c0,0.34-0.02,0.85-0.06,1.52c-0.04,0.67-0.06,1.18-0.06,1.52
			c0,2.05,0.03,3.45,0.09,4.22c0.01,0.19,0.02,0.35,0.02,0.49c0,0.25-0.11,0.37-0.32,0.37c-0.14,0-0.23-0.08-0.28-0.24
			c-0.05-0.16-0.13-0.69-0.25-1.59c-0.16-1.13-0.63-1.83-1.43-2.09c-0.35-0.12-1.27-0.17-2.74-0.17h-1.31v9.61
			c4.3,0,6.83-0.08,7.57-0.25c1.29-0.28,2.02-1.49,2.2-3.63c0.04-0.47,0.17-0.71,0.38-0.71
			C1513.21,828.66,1513.31,828.86,1513.31,829.26z"/>
		<path fill="#4D4E4E" d="M1532.76,814.22c0,0.19-0.25,0.28-0.73,0.26h-0.65h-0.53c-0.31,0-0.5,0.05-0.56,0.16
			c-0.06,0.1-0.09,0.42-0.09,0.96v16.51c0,1.01-0.01,1.61-0.03,1.78c-0.02,0.17-0.08,0.26-0.18,0.26c-0.12,0-0.25-0.11-0.41-0.32
			l-3.75-5.37c-2.17-3.12-4.82-7.01-7.93-11.68v16.02c0.02,0.25,0.17,0.41,0.45,0.47c0.28,0.07,0.94,0.11,1.99,0.13
			c0.26,0,0.39,0.08,0.39,0.23c0,0.19-0.25,0.29-0.76,0.29c-0.18,0-0.73-0.03-1.67-0.09c-0.31-0.02-0.62-0.03-0.91-0.03
			c0.02,0-0.15,0.02-0.51,0.06c-0.36,0.04-0.91,0.06-1.66,0.06h-0.29c-0.45,0-0.67-0.09-0.67-0.26c0-0.17,0.2-0.26,0.59-0.26
			c1.15-0.02,1.82-0.09,2.01-0.21c0.19-0.12,0.28-0.53,0.28-1.22v-14.17c0-1.59-0.33-2.59-1-2.99c-0.31-0.19-0.87-0.29-1.67-0.29
			c-0.51,0-0.76-0.1-0.76-0.3c0-0.18,0.15-0.27,0.44-0.27c0.39,0,0.89,0.02,1.5,0.06s0.93,0.06,0.97,0.06
			c0.06,0,0.33-0.01,0.82-0.03c0.65,0,1.27-0.03,1.88-0.09l10.12,14.78v-12.77c0-0.59-0.01-0.95-0.03-1.08
			c-0.02-0.12-0.1-0.22-0.24-0.29c-0.14-0.07-0.61-0.1-1.41-0.1c-0.7,0-1.06-0.09-1.06-0.26c0-0.19,0.23-0.29,0.7-0.29h1.03
			c0.25,0,0.53,0,0.82,0c0.31,0,0.5,0,0.56,0c0.02,0,0.2,0,0.53,0c0.31,0,0.61,0,0.88,0h0.91
			C1532.54,813.93,1532.76,814.03,1532.76,814.22z"/>
		<path fill="#4D4E4E" d="M1549.89,819.07c0,0.25-0.12,0.37-0.35,0.37s-0.4-0.25-0.5-0.75c-0.04-0.34-0.08-0.69-0.12-1.03
			c-0.14-0.69-0.36-1.27-0.67-1.75c-0.41-0.63-1.08-1.03-2.02-1.21c-0.61-0.11-1.09-0.16-1.47-0.14c-0.92,0.03-1.48,0.04-1.67,0.06
			v17.33c0,0.69,0.19,1.12,0.56,1.29c0.2,0.1,0.74,0.15,1.64,0.17c0.23,0.02,0.35,0.1,0.35,0.24c0,0.16-0.16,0.24-0.47,0.24
			c-0.16,0-0.29-0.01-0.41-0.03c-1.17-0.04-2-0.06-2.49-0.06c-0.65,0-1.25,0.01-1.82,0.04c-0.57,0.03-1.29,0.04-2.17,0.04
			c-0.45,0-0.67-0.08-0.67-0.23c0-0.17,0.42-0.27,1.26-0.29c0.61,0,1-0.12,1.17-0.37c0.1-0.15,0.15-0.55,0.15-1.18v-17.22
			c-1.94,0.02-3.14,0.12-3.61,0.29c-1.23,0.44-1.96,1.62-2.17,3.53c-0.06,0.57-0.2,0.86-0.41,0.86c-0.23,0-0.35-0.2-0.35-0.6
			c0-0.21,0.01-0.42,0.03-0.63l0.06-0.66c0.06-0.88,0.15-2.04,0.26-3.47h1.32l5.98,0.09c0.7,0.02,1.8,0.02,3.29,0l4.87-0.09
			c0.04,1.07,0.17,2.66,0.38,4.76c0,0.06,0.01,0.13,0.03,0.22S1549.89,819.05,1549.89,819.07z"/>
		<path fill="#4D4E4E" d="M1580.04,833.69c0,0.16-0.21,0.24-0.61,0.24h-0.32c-0.27,0-0.77,0-1.49,0c-0.72,0-1.28,0-1.67,0
			c-0.58,0-1.27,0-2.05,0c-0.8,0-1.33,0-1.58,0h-0.21c-0.41,0-0.61-0.09-0.61-0.26c0-0.19,0.28-0.29,0.85-0.29
			c1,0,1.6-0.1,1.82-0.32c0.1-0.1,0.15-0.74,0.15-1.93v-14.89c0,0.02-0.12,0.35-0.35,1c-0.79,2.31-1.93,5.79-3.42,10.44l-1.36,4.57
			c-0.27,0.9-0.47,1.35-0.59,1.35c-0.14,0-0.28-0.23-0.44-0.69c-0.56-1.74-2.16-6.09-4.79-13.04l-1.17-3.06c0,0.36,0,0.86,0,1.49
			v9.33c0,3.5,0.03,5.27,0.09,5.31c0.14,0.25,0.61,0.37,1.41,0.37c0.65,0,0.97,0.09,0.97,0.29c0,0.21-0.21,0.32-0.62,0.32
			c-0.25,0-0.49-0.02-0.7-0.06c-0.27-0.04-0.52-0.06-0.73-0.06l-3.37,0.12c-0.35,0-0.53-0.09-0.53-0.26c0-0.19,0.56-0.3,1.67-0.32
			c0.47,0,0.74-0.08,0.82-0.23s0.12-0.65,0.12-1.5v-13.77c0-1.59-0.02-2.45-0.06-2.59c-0.08-0.27-0.24-0.45-0.5-0.55
			c-0.25-0.1-0.8-0.17-1.64-0.23c-0.31-0.02-0.47-0.11-0.47-0.26c0-0.21,0.29-0.32,0.86-0.32c0.08,0,0.25,0,0.5,0h1.54
			c1.17,0,1.99-0.01,2.46-0.02c0.1,0.25,0.66,1.75,1.7,4.52c0.45,1.15,1.7,4.51,3.76,10.07c0.38-1.25,0.76-2.48,1.16-3.69l3.14-9.48
			c0.19-0.55,0.37-1,0.52-1.36l4.33-0.03c0.63,0,1,0.03,1.1,0.09c0.1,0.06,0.14,0.14,0.14,0.26c0,0.19-0.17,0.29-0.5,0.29
			c-0.55,0-0.92,0.02-1.11,0.06c-0.47,0.08-0.79,0.23-0.97,0.46c-0.1,0.13-0.15,1.26-0.15,3.37v13.38c0,0.77,0.08,1.22,0.24,1.35
			c0.25,0.17,0.89,0.26,1.91,0.26h0.18C1579.84,833.45,1580.04,833.53,1580.04,833.69z"/>
		<path fill="#4D4E4E" d="M1596.76,829.26c0,0.08-0.02,0.55-0.06,1.41c-0.04,0.86-0.06,1.68-0.06,2.47v0.95
			c-1.92-0.12-5.71-0.17-11.38-0.17c-0.69,0-1.36,0-2.02,0s-1.12,0-1.35,0h-0.29c-0.37,0-0.56-0.08-0.56-0.23
			c0-0.1,0.06-0.16,0.18-0.18c0.06,0,0.43-0.03,1.12-0.08c0.51-0.04,0.82-0.14,0.92-0.32s0.16-0.62,0.16-1.35v-16.18
			c0-0.56-0.08-0.89-0.25-0.99c-0.17-0.1-0.7-0.16-1.6-0.16c-0.31,0-0.47-0.08-0.47-0.24c0-0.16,0.21-0.24,0.65-0.24h5.02
			c0.18,0,1.28,0,3.31,0s3.4,0,4.11,0c0.59,0,1.12-0.04,1.61-0.12c0.04,0.82,0.13,1.96,0.26,3.42l0.12,1.23
			c0.02,0.1,0.03,0.22,0.03,0.37c0,0.19-0.09,0.29-0.26,0.29c-0.22,0-0.37-0.24-0.47-0.72c-0.37-1.73-0.98-2.83-1.82-3.29
			c-0.63-0.35-2.27-0.52-4.93-0.52h-2.41v8.44h0.7c2.19,0,3.52-0.16,4-0.49c0.48-0.32,0.81-1.27,0.98-2.84
			c0.04-0.4,0.15-0.6,0.32-0.6c0.21,0,0.32,0.17,0.32,0.52c0,0.34-0.02,0.85-0.06,1.52c-0.04,0.67-0.06,1.18-0.06,1.52
			c0,2.05,0.03,3.45,0.09,4.22c0.01,0.19,0.02,0.35,0.02,0.49c0,0.25-0.11,0.37-0.32,0.37c-0.14,0-0.23-0.08-0.28-0.24
			c-0.05-0.16-0.13-0.69-0.25-1.59c-0.16-1.13-0.63-1.83-1.43-2.09c-0.35-0.12-1.27-0.17-2.74-0.17h-1.31v9.61
			c4.3,0,6.83-0.08,7.57-0.25c1.29-0.28,2.02-1.49,2.2-3.63c0.04-0.47,0.17-0.71,0.38-0.71
			C1596.66,828.66,1596.76,828.86,1596.76,829.26z"/>
		<path fill="#4D4E4E" d="M1617.14,823.92c0,3.38-1.2,6.01-3.61,7.89c-1.76,1.38-4.12,2.07-7.07,2.07c-0.08,0-0.42,0-1.04,0
			s-1.51,0-2.68,0h-1.47h-2.32c-0.14,0-0.28,0-0.44,0c-0.37,0-0.56-0.1-0.56-0.29c0-0.17,0.31-0.26,0.94-0.26
			c0.8,0,1.3-0.14,1.5-0.43c0.08-0.13,0.12-0.5,0.12-1.09v-15.47c0-0.94-0.07-1.48-0.22-1.64c-0.15-0.15-0.65-0.23-1.51-0.23
			c-0.45,0-0.67-0.1-0.67-0.32c0-0.15,0.17-0.23,0.5-0.23c-0.02,0,0.2,0,0.65,0c0.45,0,0.89,0,1.32,0h3.14
			c3.52,0,6.01,0.24,7.48,0.72c1.78,0.58,3.22,1.71,4.31,3.41C1616.59,819.76,1617.14,821.71,1617.14,823.92z M1613.86,823.8
			c0-3.19-0.64-5.52-1.91-7.01s-3.26-2.23-5.95-2.23c-1.31,0-2.1,0.13-2.38,0.4c-0.12,0.13-0.18,0.6-0.18,1.38v15.32
			c0,0.54,0.01,0.86,0.04,0.98s0.11,0.21,0.25,0.29c0.47,0.23,1.46,0.35,2.96,0.35c2.11,0,3.81-0.73,5.1-2.19
			C1613.17,829.55,1613.86,827.12,1613.86,823.8z"/>
		<path fill="#4D4E4E" d="M1626.82,833.63c0,0.16-0.12,0.24-0.35,0.24h-0.29c-0.12-0.06-1.45-0.09-4-0.09
			c-0.49,0-0.98,0.02-1.47,0.06c-0.25,0.02-0.65,0.03-1.18,0.03c-0.25,0-0.38-0.09-0.38-0.26c0-0.15,0.25-0.24,0.76-0.26
			c0.78-0.02,1.24-0.11,1.38-0.27s0.21-0.71,0.21-1.66v-15.14c0-0.94-0.05-1.47-0.15-1.58c-0.12-0.19-0.66-0.31-1.63-0.34
			c-0.38-0.02-0.56-0.08-0.56-0.2c0-0.15,0.12-0.23,0.36-0.23h4.01c0.3,0,0.87,0.01,1.72,0.03l1.13-0.03c0.32,0,0.47,0.08,0.47,0.25
			c0,0.14-0.44,0.24-1.32,0.27c-0.5,0.02-0.81,0.11-0.92,0.26c-0.11,0.15-0.17,0.56-0.17,1.21v15.33c0,1.09,0.05,1.68,0.15,1.78
			c0.22,0.21,0.86,0.33,1.93,0.37C1626.71,833.39,1626.82,833.47,1626.82,833.63z"/>
		<path fill="#4D4E4E" d="M1646.83,814.22c0,0.15-0.18,0.23-0.53,0.23c-0.06,0-0.25,0-0.59,0c-0.1,0-0.23,0-0.41,0
			c-0.49,0-0.78,0.12-0.88,0.37c-0.04,0.13-0.06,0.35-0.06,0.66v10.75c0,2.79-0.53,4.82-1.6,6.09s-2.78,1.91-5.15,1.91
			c-2.84,0-4.83-0.78-5.98-2.35c-0.76-1.05-1.14-2.78-1.14-5.2v-11.51c-0.06-0.34-0.3-0.56-0.71-0.63c-0.12-0.02-0.49-0.03-1.1-0.03
			c-0.34-0.04-0.5-0.13-0.5-0.29c0-0.17,0.14-0.26,0.41-0.26h0.53c0.1,0,0.32,0,0.67,0c0.31,0,0.6,0,0.85,0h4.2c0.1,0,0.21,0,0.35,0
			c0.33,0,0.5,0.11,0.5,0.32c0,0.13-0.06,0.21-0.18,0.23c-0.12,0.02-0.51,0.04-1.17,0.06c-0.27,0-0.46,0.02-0.56,0.06
			c-0.2,0.08-0.3,0.21-0.32,0.4c-0.02,0.08-0.03,0.62-0.03,1.63v10.25c0,2.52,0.41,4.24,1.23,5.15c0.82,0.92,2.04,1.37,3.67,1.37
			c2.97,0,4.65-1.65,5.05-4.94c0.06-0.5,0.09-2.59,0.09-6.29v-1.63v-2.29v-1.97c0-0.19,0-0.4,0-0.63c0-0.25,0-0.35,0-0.31
			c0-0.42-0.21-0.68-0.62-0.77c-0.14-0.04-0.54-0.06-1.2-0.06c-0.39,0-0.59-0.1-0.59-0.31c0-0.17,0.14-0.26,0.41-0.26
			c0.16,0,0.28,0,0.38,0c0.24,0,1.09,0,2.57,0c0.22,0,0.46,0,0.74,0c0.25,0,0.44,0,0.56,0h0.44
			C1646.6,813.96,1646.83,814.05,1646.83,814.22z"/>
		<path fill="#4D4E4E" d="M1669.01,833.69c0,0.16-0.21,0.24-0.61,0.24h-0.32c-0.27,0-0.77,0-1.49,0c-0.72,0-1.28,0-1.67,0
			c-0.58,0-1.27,0-2.05,0c-0.8,0-1.33,0-1.58,0h-0.21c-0.41,0-0.61-0.09-0.61-0.26c0-0.19,0.28-0.29,0.85-0.29
			c1,0,1.6-0.1,1.82-0.32c0.1-0.1,0.15-0.74,0.15-1.93v-14.89c0,0.02-0.12,0.35-0.35,1c-0.79,2.31-1.93,5.79-3.42,10.44l-1.36,4.57
			c-0.27,0.9-0.47,1.35-0.59,1.35c-0.14,0-0.28-0.23-0.44-0.69c-0.56-1.74-2.16-6.09-4.79-13.04l-1.17-3.06c0,0.36,0,0.86,0,1.49
			v9.33c0,3.5,0.03,5.27,0.09,5.31c0.14,0.25,0.61,0.37,1.41,0.37c0.65,0,0.97,0.09,0.97,0.29c0,0.21-0.21,0.32-0.62,0.32
			c-0.25,0-0.49-0.02-0.7-0.06c-0.27-0.04-0.52-0.06-0.73-0.06l-3.37,0.12c-0.35,0-0.53-0.09-0.53-0.26c0-0.19,0.56-0.3,1.67-0.32
			c0.47,0,0.74-0.08,0.82-0.23s0.12-0.65,0.12-1.5v-13.77c0-1.59-0.02-2.45-0.06-2.59c-0.08-0.27-0.24-0.45-0.5-0.55
			c-0.25-0.1-0.8-0.17-1.64-0.23c-0.31-0.02-0.47-0.11-0.47-0.26c0-0.21,0.29-0.32,0.86-0.32c0.08,0,0.25,0,0.5,0h1.54
			c1.17,0,1.99-0.01,2.46-0.02c0.1,0.25,0.66,1.75,1.7,4.52c0.45,1.15,1.7,4.51,3.76,10.07c0.38-1.25,0.76-2.48,1.16-3.69l3.14-9.48
			c0.19-0.55,0.37-1,0.52-1.36l4.33-0.03c0.63,0,1,0.03,1.1,0.09c0.1,0.06,0.14,0.14,0.14,0.26c0,0.19-0.17,0.29-0.5,0.29
			c-0.55,0-0.92,0.02-1.11,0.06c-0.47,0.08-0.79,0.23-0.97,0.46c-0.1,0.13-0.15,1.26-0.15,3.37v13.38c0,0.77,0.08,1.22,0.24,1.35
			c0.25,0.17,0.89,0.26,1.91,0.26h0.18C1668.81,833.45,1669.01,833.53,1669.01,833.69z"/>
		<path fill="#4D4E4E" d="M1683,828.28c0,1.65-0.64,3.05-1.92,4.21c-1.28,1.16-2.82,1.74-4.62,1.74c-1.06,0-2.32-0.32-3.78-0.95
			c-0.39-0.17-0.69-0.26-0.88-0.26c-0.23,0-0.38,0.27-0.44,0.79c-0.02,0.27-0.15,0.41-0.38,0.41c-0.2,0-0.29-0.12-0.29-0.34
			c0-0.15,0.01-0.27,0.03-0.34c0.16-1.17,0.23-2.25,0.23-3.24c0-0.19-0.02-0.73-0.06-1.61c-0.02-0.12-0.03-0.27-0.03-0.46
			c0-0.29,0.12-0.43,0.35-0.43c0.2,0,0.33,0.23,0.41,0.7c0.51,3.44,2.16,5.16,4.96,5.16c1.19,0,2.12-0.33,2.77-0.99
			s0.98-1.59,0.98-2.8c0-1.07-0.32-1.99-0.95-2.74s-1.73-1.51-3.27-2.25c-1.86-0.9-3.15-1.77-3.87-2.61s-1.08-1.88-1.08-3.13
			c0-1.59,0.52-2.9,1.57-3.93c1.05-1.03,2.37-1.55,3.97-1.55c0.66,0,1.58,0.22,2.76,0.66c0.41,0.15,0.71,0.23,0.91,0.23
			c0.21,0,0.36-0.04,0.42-0.12c0.07-0.08,0.13-0.28,0.19-0.6c0.04-0.19,0.15-0.29,0.32-0.29c0.2,0,0.29,0.12,0.29,0.34
			c0,0.15-0.01,0.27-0.03,0.34c-0.06,0.46-0.09,1.01-0.09,1.66c0,0.92,0.05,1.65,0.15,2.18l0.03,0.46c0.02,0.21-0.07,0.32-0.26,0.32
			c-0.21,0-0.36-0.22-0.44-0.66c-0.22-1.13-0.72-2.07-1.53-2.83c-0.8-0.76-1.7-1.13-2.7-1.13c-0.98,0-1.76,0.31-2.33,0.92
			c-0.58,0.61-0.87,1.45-0.87,2.5c0,1.22,0.42,2.21,1.26,2.96c0.47,0.42,1.49,1.01,3.05,1.78c1.84,0.9,3.16,1.81,3.96,2.74
			C1682.6,826.04,1683,827.1,1683,828.28z"/>
	</g>
	<g clip-path="url(#SVGID_00000000217917839153483810000007011013613177898392_)">
		<path fill="#4D4E4E" d="M1704.04,127.04c0,0.28-0.22,0.43-0.65,0.43c-0.29,0-0.55-0.02-0.78-0.05l-5.53-0.2l-5.53,0.2
			c-0.2,0.03-0.42,0.05-0.65,0.05c-0.58,0-0.87-0.17-0.87-0.52c0-0.38,0.39-0.58,1.18-0.58c2.55-0.03,3.83-0.33,3.83-0.88
			c0-0.03-0.03-0.16-0.09-0.39l-0.36-1.32l-0.22-0.7c-0.26-1.03-0.9-3.32-1.91-6.86h-9.31c-1.74,5.33-2.61,8.4-2.61,9.2
			c0,0.47,0.17,0.75,0.52,0.85c0.09,0.03,0.81,0.1,2.18,0.2c0.84,0.03,1.26,0.2,1.26,0.5c0,0.33-0.38,0.5-1.13,0.5
			c-1.34,0-2.89-0.07-4.66-0.2c-0.44-0.03-0.89-0.05-1.35-0.05c-0.46,0-0.91,0.06-1.35,0.17c-0.23,0.06-0.42,0.08-0.57,0.08
			c-0.41,0-0.61-0.15-0.61-0.45c0-0.3,0.46-0.47,1.37-0.5c0.92-0.03,1.58-0.19,1.98-0.48c0.41-0.28,0.73-0.83,0.96-1.63
			c3.73-12.31,6.77-22.19,9.12-29.65c0.07-0.39,0.2-0.83,0.41-1.33l0.19-0.91c0.09-0.37,0.2-0.55,0.35-0.55
			c0.09,0,0.16,0.1,0.22,0.3c0.38,1.3,1.23,4.02,2.57,8.15c1.04,3.23,3.64,11.35,7.79,24.35c0.23,0.75,0.53,1.23,0.89,1.44
			c0.36,0.21,1.11,0.33,2.24,0.36C1703.66,126.6,1704.04,126.76,1704.04,127.04z M1692.19,115.07c-0.47-1.5-1.25-3.98-2.34-7.44
			l-2.09-6.93c-1.21,3.68-2.67,8.47-4.37,14.37H1692.19z"/>
		<path fill="#4D4E4E" d="M1718.08,121c0,2.38-0.95,4.14-2.83,5.29c-0.91,0.56-2.22,0.91-3.93,1.05c-0.47,0.02-1.85,0.04-4.15,0.04
			h-3.72c-0.35,0-0.52-0.1-0.52-0.3s0.31-0.3,0.95-0.3c0.73,0,1.16-0.09,1.29-0.26c0.13-0.18,0.2-0.71,0.2-1.59v-18.93
			c0-1.03-0.04-1.62-0.12-1.79c-0.14-0.28-0.66-0.43-1.55-0.46c-0.55,0-0.82-0.12-0.82-0.37c0-0.22,0.25-0.33,0.76-0.33
			c0.02,0,0.14,0,0.37,0c0.22,0.07,0.43,0.1,0.61,0.1h5.94c2.2,0.02,3.83,0.44,4.91,1.26c1.26,0.96,1.89,2.34,1.89,4.17
			c0,1.59-0.52,2.89-1.55,3.9s-2.49,1.65-4.36,1.91v0.21c1.85,0.14,3.29,0.58,4.33,1.33C1717.31,117.04,1718.08,118.73,1718.08,121z
			 M1713.99,108.92c0-2.24-0.45-3.73-1.34-4.48c-0.47-0.4-1.35-0.6-2.65-0.6c-0.35,0-0.88,0.04-1.62,0.1v10.15h0.27l1.68-0.07
			c1.16-0.05,2.06-0.52,2.7-1.42C1713.67,111.72,1713.99,110.48,1713.99,108.92z M1714.88,120.61c0-2.94-1.04-4.76-3.11-5.46
			c-0.61-0.21-1.74-0.31-3.38-0.31v10.43c0,0.68,0.06,1.06,0.18,1.16c0.2,0.16,0.77,0.24,1.71,0.24c1.4,0,2.52-0.51,3.35-1.54
			C1714.46,124.1,1714.88,122.59,1714.88,120.61z"/>
		<path fill="#4D4E4E" d="M1740.15,115.36c0,3.48-0.91,6.42-2.73,8.82c-1.82,2.4-4.05,3.6-6.69,3.6c-2.8,0-5.16-1.22-7.07-3.66
			c-1.91-2.44-2.87-5.44-2.87-9.01c0-3.64,0.92-6.62,2.76-8.94c1.84-2.32,4.19-3.48,7.06-3.48c2.7,0,4.97,1.21,6.8,3.64
			C1739.23,108.76,1740.15,111.77,1740.15,115.36z M1736.73,115.54c0-4.28-0.76-7.62-2.29-10c-0.96-1.5-2.29-2.25-3.99-2.25
			c-1.63,0-2.89,0.57-3.78,1.72c-1.65,2.11-2.47,5.53-2.47,10.28c0,3.77,0.57,6.69,1.72,8.78c1.15,2.08,2.76,3.12,4.83,3.12
			c1.93,0,3.38-0.98,4.36-2.95C1736.19,122.07,1736.73,119.16,1736.73,115.54z"/>
		<path fill="#4D4E4E" d="M1761.45,103.39c0,0.19-0.18,0.28-0.55,0.28c-0.06,0-0.26,0-0.61,0c-0.1,0-0.24,0-0.43,0
			c-0.51,0-0.81,0.15-0.91,0.45c-0.04,0.16-0.06,0.43-0.06,0.8v13.11c0,3.4-0.55,5.88-1.66,7.43c-1.11,1.55-2.89,2.32-5.35,2.32
			c-2.95,0-5.02-0.96-6.22-2.87c-0.79-1.28-1.19-3.4-1.19-6.33v-14.03c-0.06-0.42-0.31-0.68-0.74-0.77
			c-0.12-0.02-0.5-0.04-1.14-0.04c-0.35-0.05-0.53-0.16-0.53-0.35c0-0.21,0.14-0.31,0.43-0.31h0.55c0.1,0,0.34,0,0.7,0
			c0.33,0,0.62,0,0.88,0h4.36c0.1,0,0.22,0,0.37,0c0.35,0,0.52,0.13,0.52,0.38c0,0.16-0.06,0.26-0.18,0.28s-0.53,0.05-1.22,0.07
			c-0.28,0-0.48,0.02-0.58,0.07c-0.2,0.09-0.32,0.26-0.33,0.49c-0.02,0.09-0.03,0.76-0.03,1.99v12.49c0,3.07,0.43,5.17,1.28,6.28
			s2.12,1.67,3.81,1.67c3.09,0,4.84-2.01,5.24-6.03c0.06-0.6,0.09-3.16,0.09-7.67v-1.99v-2.79v-2.4c0-0.23,0-0.49,0-0.77
			c0-0.3,0-0.43,0-0.38c0-0.51-0.21-0.82-0.64-0.94c-0.14-0.05-0.56-0.07-1.25-0.07c-0.41,0-0.61-0.13-0.61-0.38
			c0-0.21,0.14-0.31,0.43-0.31c0.16,0,0.29,0,0.4,0c0.25,0,1.13,0,2.67,0c0.23,0,0.48,0,0.77,0c0.27,0,0.46,0,0.58,0h0.46
			C1761.22,103.08,1761.45,103.18,1761.45,103.39z"/>
		<path fill="#4D4E4E" d="M1779.13,109.31c0,0.3-0.12,0.46-0.37,0.46c-0.24,0-0.42-0.3-0.52-0.91c-0.04-0.42-0.08-0.84-0.12-1.26
			c-0.14-0.84-0.38-1.55-0.7-2.14c-0.43-0.77-1.13-1.26-2.1-1.47c-0.63-0.14-1.14-0.2-1.52-0.18c-0.96,0.03-1.53,0.05-1.74,0.07
			v21.14c0,0.84,0.19,1.37,0.58,1.58c0.2,0.12,0.77,0.19,1.71,0.21c0.24,0.02,0.37,0.12,0.37,0.3c0,0.2-0.16,0.3-0.49,0.3
			c-0.16,0-0.3-0.01-0.43-0.04c-1.22-0.05-2.08-0.07-2.59-0.07c-0.67,0-1.3,0.02-1.89,0.05c-0.59,0.04-1.34,0.05-2.26,0.05
			c-0.47,0-0.7-0.09-0.7-0.28c0-0.21,0.44-0.33,1.31-0.35c0.63,0,1.04-0.15,1.22-0.46c0.1-0.19,0.15-0.67,0.15-1.44v-21
			c-2.01,0.02-3.26,0.14-3.75,0.35c-1.28,0.54-2.03,1.97-2.26,4.3c-0.06,0.7-0.2,1.05-0.43,1.05c-0.24,0-0.37-0.25-0.37-0.74
			c0-0.26,0.01-0.51,0.03-0.77l0.06-0.8c0.06-1.07,0.15-2.49,0.27-4.24h1.37l6.22,0.1c0.73,0.02,1.87,0.02,3.41,0l5.06-0.1
			c0.04,1.31,0.17,3.24,0.4,5.81c0,0.07,0.01,0.16,0.03,0.26C1779.12,109.22,1779.13,109.28,1779.13,109.31z"/>
	</g>
	<g clip-path="url(#SVGID_00000000217917839153483810000007011013613177898392_)">
		<path fill="#4D4E4E" d="M1413.38,121.23c0,0.13-0.03,0.95-0.09,2.45c-0.06,1.5-0.09,2.93-0.09,4.3v1.65
			c-2.84-0.2-8.48-0.3-16.9-0.3c-1.02,0-2.02,0-3,0c-0.99,0-1.66,0-2,0h-0.43c-0.55,0-0.83-0.13-0.83-0.4
			c0-0.18,0.09-0.28,0.26-0.31c0.09,0,0.64-0.04,1.65-0.13c0.75-0.07,1.21-0.25,1.37-0.55c0.16-0.3,0.24-1.09,0.24-2.36V97.39
			c0-0.97-0.12-1.55-0.37-1.73c-0.25-0.18-1.04-0.28-2.37-0.28c-0.46,0-0.7-0.14-0.7-0.43c0-0.28,0.32-0.42,0.96-0.42h7.45
			c0.26,0,1.9,0,4.92,0s5.05,0,6.1,0c0.87,0,1.67-0.07,2.39-0.2c0.06,1.43,0.19,3.42,0.39,5.95l0.17,2.15
			c0.03,0.17,0.04,0.38,0.04,0.65c0,0.33-0.13,0.5-0.39,0.5c-0.32,0-0.55-0.42-0.7-1.26c-0.55-3.02-1.45-4.93-2.7-5.74
			c-0.93-0.6-3.37-0.91-7.32-0.91h-3.57v14.7h1.04c3.25,0,5.23-0.28,5.94-0.85c0.71-0.57,1.2-2.22,1.46-4.95
			c0.06-0.7,0.22-1.05,0.48-1.05c0.32,0,0.48,0.3,0.48,0.9s-0.03,1.48-0.09,2.65c-0.06,1.17-0.09,2.05-0.09,2.65
			c0,3.57,0.05,6.02,0.14,7.35c0.02,0.33,0.03,0.62,0.03,0.85c0,0.43-0.16,0.65-0.48,0.65c-0.2,0-0.34-0.14-0.41-0.42
			c-0.07-0.28-0.2-1.21-0.37-2.77c-0.23-1.97-0.94-3.18-2.12-3.65c-0.52-0.2-1.88-0.3-4.07-0.3h-1.95v16.75
			c6.39,0,10.13-0.15,11.23-0.44c1.92-0.49,3-2.6,3.27-6.32c0.06-0.82,0.25-1.23,0.57-1.23
			C1413.23,120.18,1413.38,120.53,1413.38,121.23z"/>
		<path fill="#4D4E4E" d="M1433.88,128.97c0,0.21-0.28,0.31-0.85,0.31c-0.69,0-1.4,0-2.12,0c-0.72,0-1.43,0-2.12,0
			c-0.89,0-1.93,0-3.11,0c-0.59,0-1.03,0-1.31,0c-0.59,0-0.88-0.11-0.88-0.33c0-0.2,0.23-0.29,0.7-0.27h1.37
			c0.49,0.02,0.78,0.01,0.88-0.03c0.3-0.07,0.46-0.29,0.46-0.67c0-0.35-0.26-1.12-0.79-2.29l-3.25-7.57l-3.83,7.45
			c-0.67,1.34-1,2.13-1,2.37c0,0.43,0.34,0.68,1.01,0.75c-0.04,0,0.42,0,1.37,0c0.37,0,0.55,0.1,0.55,0.31
			c0,0.19-0.15,0.28-0.46,0.28h-3.44h-2.59c-0.32,0-0.49-0.1-0.49-0.31s0.26-0.35,0.79-0.42c0.37-0.05,0.73-0.09,1.1-0.14
			c0.3-0.09,0.56-0.25,0.76-0.46c0.39-0.4,1.63-2.68,3.75-6.86c0.78-1.54,1.47-2.88,2.08-4.03l-3.46-7.5
			c-0.72-1.53-1.21-2.53-1.49-2.98c-0.28-0.45-0.57-0.75-0.87-0.89c-0.33-0.07-0.97-0.1-1.93-0.1c-0.25,0-0.37-0.09-0.37-0.28
			c0-0.26,0.16-0.38,0.49-0.38c0.45,0,1.37,0.02,2.77,0.07c0.69,0.02,1.17,0.04,1.43,0.04c2.38,0,3.69-0.04,3.93-0.1h0.43
			c0.43,0,0.64,0.09,0.64,0.28c0,0.26-0.36,0.39-1.08,0.39c-1.34-0.02-2,0.16-2,0.56c0,0.42,1.15,3.16,3.45,8.22
			c0.83-1.4,1.73-3.07,2.72-5.01c0.99-1.93,1.48-3.02,1.48-3.25c0-0.35-0.56-0.53-1.68-0.53c-0.55,0-0.82-0.11-0.82-0.32
			c0-0.23,0.19-0.35,0.58-0.35c0.26,0,0.65,0.02,1.16,0.05c0.51,0.04,0.89,0.05,1.16,0.05c0.1,0,0.57-0.02,1.42-0.05
			c0.84-0.03,1.34-0.05,1.48-0.05h0.27c0.35,0,0.52,0.1,0.52,0.3c0,0.2-0.13,0.3-0.4,0.3c-0.04,0-0.37,0.01-0.98,0.04
			c-0.69,0.02-1.16,0.16-1.42,0.42c-0.25,0.26-0.69,1.01-1.3,2.25c-0.79,1.64-1.95,3.81-3.47,6.5l-0.33,0.6
			c0.14,0.3,1.51,3.37,4.12,9.21c0.89,2.01,1.53,3.2,1.92,3.59c0.39,0.38,1.15,0.57,2.29,0.54
			C1433.63,128.65,1433.88,128.76,1433.88,128.97z"/>
		<path fill="#4D4E4E" d="M1448.48,110.8c0,2.26-0.84,4.02-2.53,5.29c-1.06,0.79-2.4,1.19-4.02,1.19c-0.69,0-1.47-0.08-2.35-0.25
			v9.94c0,0.54,0.02,0.88,0.06,1.02c0.1,0.33,0.33,0.52,0.67,0.59c0.59,0.09,1.16,0.14,1.71,0.14c0.22,0,0.33,0.08,0.33,0.25
			c0,0.23-0.14,0.35-0.43,0.35c-0.12,0-0.22,0-0.3,0c-1.12,0-3.22,0-6.31,0h-0.4c-0.61,0-0.91-0.12-0.91-0.35
			c0-0.16,0.21-0.25,0.64-0.25c0.96,0,1.5-0.1,1.65-0.31c0.16-0.09,0.25-0.33,0.27-0.7v-20.68c0-0.72-0.17-1.17-0.52-1.33
			c-0.2-0.09-0.56-0.14-1.07-0.14h-0.3c-0.06,0-0.13,0-0.21,0c-0.3,0-0.46-0.09-0.46-0.28c0-0.21,0.28-0.31,0.85-0.31h6.71
			c2.32,0,4.01,0.47,5.09,1.4C1447.87,107.41,1448.48,108.89,1448.48,110.8z M1445.28,110.84c0-3.52-1.28-5.28-3.84-5.28
			c-0.85,0-1.41,0.16-1.68,0.49c-0.12,0.14-0.18,0.5-0.18,1.09v9.37c0.16,0.02,0.35,0.03,0.55,0.03c1.34,0,2.48-0.34,3.41-1.02
			C1444.7,114.68,1445.28,113.12,1445.28,110.84z"/>
		<path fill="#4D4E4E" d="M1465.55,126.52c0,0.61-0.03,1.61-0.09,3.01h-0.33c-0.12,0-0.42-0.02-0.88-0.07s-0.99-0.07-1.58-0.07
			l-12.66-0.1c-0.34,0-0.52-0.1-0.52-0.31c0-0.16,0.27-0.27,0.82-0.31c0.77-0.05,1.23-0.15,1.39-0.3c0.15-0.15,0.23-0.59,0.23-1.31
			v-19.67c0-0.86-0.08-1.36-0.23-1.5s-0.7-0.21-1.63-0.21c-0.39,0-0.58-0.13-0.58-0.38c0-0.21,0.12-0.32,0.37-0.32h0.27
			c0.67,0.07,2,0.1,3.99,0.1c0.18,0,0.54-0.02,1.07-0.05c0.53-0.04,0.96-0.05,1.31-0.05h0.33c0.37,0,0.55,0.12,0.55,0.35
			c0,0.14-0.06,0.23-0.17,0.26c-0.11,0.03-0.46,0.06-1.05,0.09c-0.59,0.02-0.94,0.13-1.05,0.33c-0.11,0.2-0.17,0.81-0.17,1.84v20.65
			c0.55,0.02,1.31,0.04,2.29,0.04c2.38,0,4.05-0.14,5.03-0.42c0.98-0.28,1.64-0.81,1.98-1.58s0.55-1.81,0.61-3.11
			c0.02-0.3,0.14-0.46,0.35-0.46c0.25,0,0.37,0.17,0.35,0.52v0.88c0,0.05,0,0.15,0,0.31c0,0.16,0,0.33,0,0.49V126.52z"/>
		<path fill="#4D4E4E" d="M1486.52,117.28c0,3.48-0.91,6.42-2.73,8.82c-1.82,2.4-4.05,3.6-6.69,3.6c-2.8,0-5.16-1.22-7.07-3.66
			c-1.91-2.44-2.87-5.44-2.87-9.01c0-3.64,0.92-6.62,2.76-8.94c1.84-2.32,4.19-3.48,7.06-3.48c2.7,0,4.97,1.21,6.8,3.64
			C1485.61,110.68,1486.52,113.69,1486.52,117.28z M1483.11,117.46c0-4.28-0.76-7.62-2.29-10c-0.96-1.5-2.29-2.25-3.99-2.25
			c-1.63,0-2.89,0.57-3.78,1.72c-1.65,2.11-2.47,5.53-2.47,10.28c0,3.77,0.57,6.69,1.72,8.78c1.15,2.08,2.76,3.12,4.83,3.12
			c1.93,0,3.38-0.98,4.36-2.95C1482.57,123.98,1483.11,121.08,1483.11,117.46z"/>
		<path fill="#4D4E4E" d="M1505.91,128.23c0,0.98-0.71,1.47-2.13,1.47c-1.58,0-2.83-0.76-3.72-2.27c-0.39-0.65-0.64-1.28-0.75-1.89
			c-0.11-0.61-0.28-2.15-0.5-4.62c-0.12-1.49-0.54-2.55-1.25-3.17c-0.71-0.62-1.87-0.95-3.47-1v11.02c0,0.47,0.33,0.76,0.98,0.88
			c0.18,0.02,0.65,0.05,1.4,0.07c0.26,0,0.4,0.09,0.4,0.28c0,0.21-0.17,0.31-0.52,0.31h-0.37c-0.18,0-1.07,0-2.65,0
			c-0.31,0-0.82,0-1.55,0c-0.71,0-1.18,0-1.4,0h-1.19c-0.45,0-0.67-0.1-0.67-0.31c0-0.16,0.29-0.26,0.88-0.28
			c0.96-0.02,1.47-0.16,1.55-0.42c0.08-0.12,0.12-0.57,0.12-1.37v-19.32c0-0.93-0.09-1.49-0.26-1.68c-0.17-0.19-0.7-0.29-1.57-0.31
			c-0.51,0-0.76-0.1-0.76-0.31c0-0.23,0.16-0.35,0.49-0.35c0.06,0,0.15,0.01,0.27,0.04l4.05,0.1c0.41,0,0.98-0.02,1.71-0.05
			c0.81-0.06,1.38-0.09,1.71-0.09c1.89,0,3.39,0.48,4.5,1.45c1.11,0.97,1.66,2.28,1.66,3.94c0,1.63-0.57,2.98-1.71,4.04
			c-1.14,1.06-2.68,1.69-4.63,1.87c-0.18,0.02-0.29,0.06-0.3,0.11c0,0.09,0.1,0.14,0.3,0.14c2.13,0.42,3.6,1.28,4.4,2.58
			c0.8,1.3,1.34,3.64,1.6,7.04c0.16,1.92,0.73,2.88,1.71,2.88c0.3,0,0.46-0.07,0.46-0.21c0-0.02-0.01-0.05-0.03-0.07
			c-0.1-0.26-0.15-0.47-0.15-0.63c0-0.49,0.22-0.73,0.67-0.73C1505.66,127.36,1505.91,127.65,1505.91,128.23z M1499.6,110.7
			c0-3.34-1.26-5-3.78-5c-0.67,0-1.13,0.1-1.37,0.31c-0.24,0.21-0.37,0.58-0.37,1.12v8.89c1.95,0.02,3.36-0.38,4.22-1.23
			C1499.17,113.95,1499.6,112.59,1499.6,110.7z"/>
		<path fill="#4D4E4E" d="M1522.86,123.65c0,0.09-0.02,0.66-0.06,1.71c-0.04,1.05-0.06,2.05-0.06,3.01v1.16
			c-1.99-0.14-5.93-0.21-11.83-0.21c-0.71,0-1.41,0-2.1,0c-0.69,0-1.16,0-1.4,0h-0.3c-0.39,0-0.58-0.09-0.58-0.28
			c0-0.13,0.06-0.2,0.18-0.22c0.06,0,0.45-0.03,1.16-0.09c0.53-0.05,0.85-0.17,0.96-0.39c0.11-0.21,0.17-0.76,0.17-1.65v-19.73
			c0-0.68-0.09-1.08-0.26-1.21c-0.17-0.13-0.73-0.19-1.66-0.19c-0.33,0-0.49-0.1-0.49-0.3s0.22-0.3,0.67-0.3h5.21
			c0.18,0,1.33,0,3.44,0s3.54,0,4.27,0c0.61,0,1.17-0.05,1.68-0.14c0.04,1,0.13,2.39,0.27,4.17l0.12,1.5
			c0.02,0.12,0.03,0.27,0.03,0.46c0,0.23-0.09,0.35-0.27,0.35c-0.22,0-0.39-0.29-0.49-0.88c-0.39-2.11-1.02-3.45-1.89-4.02
			c-0.65-0.42-2.36-0.63-5.12-0.63h-2.5v10.29h0.73c2.28,0,3.66-0.2,4.16-0.6c0.5-0.4,0.84-1.55,1.02-3.46
			c0.04-0.49,0.15-0.73,0.34-0.73c0.22,0,0.33,0.21,0.33,0.63s-0.02,1.04-0.06,1.85c-0.04,0.82-0.06,1.44-0.06,1.85
			c0,2.5,0.03,4.21,0.1,5.15c0.02,0.23,0.02,0.43,0.02,0.6c0,0.3-0.11,0.45-0.33,0.45c-0.14,0-0.24-0.1-0.29-0.3
			c-0.05-0.2-0.14-0.85-0.26-1.94c-0.16-1.38-0.66-2.23-1.49-2.56c-0.36-0.14-1.32-0.21-2.85-0.21H1512v11.73
			c4.47,0,7.09-0.1,7.86-0.31c1.34-0.35,2.1-1.82,2.29-4.42c0.04-0.58,0.17-0.86,0.4-0.86
			C1522.75,122.91,1522.86,123.16,1522.86,123.65z"/>
	</g>
	<g clip-path="url(#SVGID_00000000217917839153483810000007011013613177898392_)">
		<rect x="1682.6" y="836.78" fill="none" width="2.92" height="0"/>
	</g>
</g>
<g>
</g>
<g>
</g>
<g>
</g>
<g>
</g>
<g>
</g>
<g>
</g>
<g>
</g>
<g>
</g>
<g>
</g>
<g>
</g>
<g>
</g>
<g>
</g>
<g>
</g>
<g>
</g>
<g>
</g>
</svg>
