<?xml version="1.0" encoding="utf-8"?>
<!-- Generator: Adobe Illustrator 28.2.0, SVG Export Plug-In . SVG Version: 6.00 Build 0)  -->
<svg version="1.1" id="Layer_1" xmlns="http://www.w3.org/2000/svg" xmlns:xlink="http://www.w3.org/1999/xlink" x="0px" y="0px"
	 viewBox="0 0 490 4867" enable-background="new 0 0 490 4867" xml:space="preserve">
<rect x="129.67" y="956.27" fill="#FFFFFF" width="239.07" height="101.91"/>
<g>
	<rect x="1" y="0.5" fill="#E4D2BC" width="490" height="203.44"/>
</g>
<rect y="1.5" opacity="0.36" fill="#EE9C9B" width="182" height="4871"/>
<rect x="31" y="130" fill="#FFFFFF" width="189" height="63"/>
<g>
	<g>
		<path fill="#4D4E4E" d="M304.08,180.65c0,0.34-0.26,0.51-0.78,0.51c-0.35,0-0.66-0.02-0.94-0.06l-6.63-0.24l-6.63,0.24
			c-0.24,0.04-0.5,0.06-0.78,0.06c-0.7,0-1.04-0.21-1.04-0.63c0-0.46,0.47-0.69,1.41-0.69c3.06-0.04,4.59-0.39,4.59-1.06
			c0-0.04-0.04-0.2-0.11-0.47l-0.43-1.59l-0.27-0.84c-0.31-1.24-1.08-3.98-2.29-8.23h-11.16c-2.09,6.4-3.13,10.08-3.13,11.04
			c0,0.56,0.21,0.9,0.63,1.02c0.1,0.04,0.97,0.12,2.61,0.24c1.01,0.04,1.51,0.24,1.51,0.6c0,0.4-0.45,0.6-1.36,0.6
			c-1.6,0-3.46-0.08-5.59-0.24c-0.52-0.04-1.06-0.06-1.62-0.06s-1.1,0.07-1.62,0.2c-0.28,0.07-0.5,0.1-0.68,0.1
			c-0.49,0-0.73-0.18-0.73-0.54c0-0.36,0.55-0.56,1.64-0.6c1.1-0.04,1.89-0.23,2.38-0.57s0.87-0.99,1.15-1.96
			c4.48-14.77,8.12-26.63,10.93-35.58c0.08-0.47,0.24-1,0.49-1.59l0.22-1.09c0.1-0.44,0.24-0.66,0.42-0.66
			c0.1,0,0.19,0.12,0.26,0.36c0.45,1.56,1.48,4.82,3.08,9.78c1.25,3.88,4.37,13.62,9.34,29.22c0.28,0.91,0.63,1.48,1.07,1.73
			c0.43,0.25,1.33,0.39,2.69,0.43C303.62,180.12,304.08,180.31,304.08,180.65z M289.88,166.28c-0.57-1.8-1.5-4.77-2.81-8.92
			l-2.51-8.32c-1.45,4.42-3.2,10.17-5.24,17.24H289.88z"/>
		<path fill="#4D4E4E" d="M320.91,173.4c0,2.86-1.13,4.97-3.4,6.34c-1.1,0.67-2.67,1.09-4.71,1.26c-0.56,0.03-2.22,0.04-4.97,0.04
			h-4.46c-0.42,0-0.62-0.12-0.62-0.36c0-0.24,0.38-0.36,1.13-0.36c0.88,0,1.39-0.1,1.55-0.31c0.16-0.21,0.24-0.85,0.24-1.91v-22.72
			c0-1.23-0.05-1.95-0.15-2.14c-0.17-0.34-0.79-0.52-1.86-0.55c-0.66,0-0.99-0.15-0.99-0.44c0-0.27,0.3-0.4,0.91-0.4
			c0.02,0,0.17,0,0.44,0c0.27,0.08,0.51,0.13,0.73,0.13h7.12c2.63,0.03,4.59,0.53,5.88,1.51c1.51,1.15,2.27,2.81,2.27,5
			c0,1.9-0.62,3.47-1.86,4.68c-1.24,1.22-2.98,1.98-5.23,2.29v0.25c2.22,0.17,3.95,0.7,5.19,1.6
			C319.99,168.65,320.91,170.69,320.91,173.4z M316.02,158.91c0-2.69-0.54-4.48-1.61-5.38c-0.56-0.48-1.62-0.71-3.18-0.71
			c-0.41,0-1.06,0.04-1.94,0.13v12.18h0.33l2.01-0.08c1.39-0.06,2.47-0.62,3.23-1.7C315.63,162.26,316.02,160.79,316.02,158.91z
			 M317.08,172.94c0-3.53-1.24-5.71-3.73-6.55c-0.73-0.25-2.08-0.38-4.06-0.38v12.52c0,0.81,0.07,1.27,0.22,1.39
			c0.24,0.2,0.93,0.29,2.05,0.29c1.68,0,3.02-0.62,4.02-1.85C316.58,177.12,317.08,175.32,317.08,172.94z"/>
		<path fill="#4D4E4E" d="M347.37,166.64c0,4.17-1.09,7.7-3.27,10.58c-2.18,2.88-4.85,4.33-8.02,4.33c-3.36,0-6.19-1.46-8.48-4.39
			s-3.43-6.53-3.43-10.82c0-4.37,1.1-7.94,3.31-10.73c2.2-2.79,5.02-4.18,8.46-4.18c3.24,0,5.96,1.46,8.15,4.37
			C346.27,158.71,347.37,162.33,347.37,166.64z M343.27,166.85c0-5.14-0.91-9.14-2.74-12.01c-1.15-1.8-2.74-2.7-4.79-2.7
			c-1.95,0-3.46,0.69-4.53,2.06c-1.97,2.53-2.96,6.64-2.96,12.34c0,4.52,0.69,8.03,2.06,10.53c1.38,2.5,3.31,3.75,5.79,3.75
			c2.31,0,4.06-1.18,5.23-3.54C342.63,174.68,343.27,171.2,343.27,166.85z"/>
		<path fill="#4D4E4E" d="M372.91,152.27c0,0.23-0.22,0.34-0.66,0.34c-0.07,0-0.32,0-0.73,0c-0.12,0-0.29,0-0.51,0
			c-0.61,0-0.97,0.18-1.1,0.55c-0.05,0.2-0.07,0.52-0.07,0.96v15.73c0,4.08-0.66,7.05-1.99,8.91c-1.33,1.86-3.47,2.79-6.41,2.79
			c-3.53,0-6.02-1.15-7.45-3.44c-0.95-1.54-1.42-4.07-1.42-7.6v-16.84c-0.07-0.5-0.37-0.81-0.89-0.92c-0.15-0.03-0.6-0.04-1.37-0.04
			c-0.42-0.06-0.63-0.2-0.63-0.42c0-0.25,0.17-0.38,0.51-0.38h0.66c0.12,0,0.4,0,0.84,0c0.39,0,0.74,0,1.06,0h5.22
			c0.12,0,0.27,0,0.44,0c0.41,0,0.62,0.15,0.62,0.46c0,0.2-0.07,0.31-0.22,0.34c-0.15,0.03-0.63,0.06-1.46,0.08
			c-0.34,0-0.57,0.03-0.69,0.08c-0.24,0.11-0.38,0.31-0.4,0.59c-0.02,0.11-0.04,0.91-0.04,2.39v14.99c0,3.69,0.51,6.2,1.54,7.54
			c1.02,1.34,2.54,2.01,4.57,2.01c3.7,0,5.8-2.41,6.29-7.23c0.07-0.72,0.11-3.79,0.11-9.2v-2.38v-3.35v-2.89c0-0.28,0-0.59,0-0.92
			c0-0.36,0-0.52,0-0.46c0-0.61-0.26-0.99-0.77-1.13c-0.17-0.06-0.67-0.08-1.5-0.08c-0.49,0-0.73-0.15-0.73-0.46
			c0-0.25,0.17-0.38,0.51-0.38c0.2,0,0.35,0,0.48,0c0.29,0,1.36,0,3.2,0c0.27,0,0.58,0,0.92,0c0.32,0,0.55,0,0.7,0h0.55
			C372.63,151.9,372.91,152.02,372.91,152.27z"/>
		<path fill="#4D4E4E" d="M394.1,159.37c0,0.36-0.15,0.55-0.44,0.55s-0.5-0.36-0.62-1.09c-0.05-0.5-0.1-1.01-0.15-1.51
			c-0.17-1.01-0.45-1.86-0.84-2.56c-0.51-0.92-1.35-1.51-2.52-1.76c-0.76-0.17-1.36-0.24-1.83-0.21c-1.15,0.04-1.84,0.07-2.08,0.08
			v25.36c0,1.01,0.23,1.64,0.69,1.89c0.24,0.14,0.93,0.23,2.05,0.25c0.29,0.03,0.44,0.15,0.44,0.36c0,0.24-0.2,0.36-0.58,0.36
			c-0.2,0-0.37-0.01-0.51-0.04c-1.46-0.06-2.5-0.08-3.11-0.08c-0.8,0-1.56,0.02-2.27,0.06c-0.71,0.04-1.61,0.06-2.7,0.06
			c-0.56,0-0.84-0.11-0.84-0.34c0-0.25,0.52-0.39,1.57-0.42c0.75,0,1.24-0.18,1.46-0.55c0.12-0.22,0.18-0.8,0.18-1.72v-25.2
			c-2.41,0.03-3.91,0.17-4.49,0.42c-1.54,0.64-2.44,2.37-2.7,5.17c-0.07,0.84-0.24,1.26-0.51,1.26c-0.29,0-0.44-0.29-0.44-0.88
			c0-0.31,0.01-0.62,0.04-0.92l0.07-0.97c0.07-1.29,0.18-2.98,0.33-5.08h1.64l7.45,0.13c0.88,0.03,2.24,0.03,4.09,0l6.07-0.13
			c0.05,1.57,0.21,3.89,0.47,6.97c0,0.08,0.01,0.19,0.04,0.31C394.09,159.27,394.1,159.34,394.1,159.37z"/>
		<path fill="#4D4E4E" d="M431.65,180.77c0,0.24-0.25,0.36-0.76,0.36h-0.4c-0.34,0-0.96,0-1.86,0s-1.59,0-2.08,0
			c-0.73,0-1.58,0-2.55,0c-1,0-1.65,0-1.97,0h-0.25c-0.51,0-0.76-0.13-0.76-0.38c0-0.28,0.35-0.42,1.06-0.42
			c1.24,0,2-0.15,2.27-0.46c0.12-0.14,0.18-1.08,0.18-2.82v-21.79c0,0.03-0.15,0.52-0.44,1.47c-0.98,3.39-2.4,8.48-4.26,15.28
			l-1.7,6.69c-0.34,1.32-0.58,1.97-0.73,1.97c-0.17,0-0.35-0.34-0.55-1.01c-0.7-2.55-2.69-8.91-5.97-19.08l-1.45-4.48
			c0,0.53,0,1.26,0,2.18v13.65c0,5.12,0.04,7.71,0.11,7.77c0.17,0.36,0.75,0.55,1.75,0.55c0.8,0,1.21,0.14,1.21,0.42
			c0,0.31-0.26,0.46-0.77,0.46c-0.32,0-0.61-0.03-0.88-0.08c-0.34-0.06-0.65-0.08-0.91-0.08l-4.2,0.17c-0.44,0-0.66-0.13-0.66-0.38
			c0-0.28,0.69-0.43,2.08-0.46c0.58,0,0.93-0.11,1.02-0.34c0.1-0.22,0.15-0.95,0.15-2.19v-20.15c0-2.33-0.02-3.59-0.07-3.79
			c-0.1-0.39-0.31-0.66-0.62-0.8c-0.32-0.14-1-0.25-2.05-0.34c-0.39-0.03-0.58-0.15-0.58-0.38c0-0.31,0.36-0.46,1.07-0.46
			c0.1,0,0.31,0,0.63,0h1.92c1.45,0,2.48-0.01,3.07-0.03c0.12,0.37,0.83,2.57,2.12,6.61c0.56,1.68,2.12,6.6,4.68,14.73
			c0.47-1.83,0.95-3.62,1.44-5.4l3.91-13.88c0.24-0.8,0.46-1.47,0.65-2l5.39-0.04c0.79,0,1.25,0.04,1.37,0.13s0.18,0.21,0.18,0.38
			c0,0.28-0.21,0.42-0.62,0.42c-0.68,0-1.15,0.03-1.39,0.08c-0.58,0.11-0.99,0.34-1.21,0.67c-0.12,0.2-0.18,1.84-0.18,4.93v19.59
			c0,1.12,0.1,1.78,0.29,1.98c0.32,0.25,1.11,0.38,2.38,0.38h0.22C431.41,180.41,431.65,180.53,431.65,180.77z"/>
		<path fill="#4D4E4E" d="M452.48,174.28c0,0.11-0.02,0.8-0.07,2.06c-0.05,1.26-0.07,2.46-0.07,3.61v1.39
			c-2.39-0.17-7.11-0.25-14.18-0.25c-0.85,0-1.69,0-2.52,0s-1.39,0-1.68,0h-0.37c-0.46,0-0.69-0.11-0.69-0.34
			c0-0.15,0.07-0.24,0.22-0.26c0.07,0,0.54-0.04,1.39-0.11c0.63-0.06,1.02-0.21,1.15-0.46c0.13-0.25,0.2-0.91,0.2-1.98v-23.68
			c0-0.81-0.1-1.3-0.31-1.45c-0.21-0.15-0.87-0.23-1.99-0.23c-0.39,0-0.58-0.12-0.58-0.36c0-0.24,0.27-0.36,0.8-0.36h6.25
			c0.22,0,1.6,0,4.13,0s4.24,0,5.12,0c0.73,0,1.4-0.06,2.01-0.17c0.05,1.2,0.16,2.87,0.33,5l0.15,1.81
			c0.02,0.14,0.04,0.32,0.04,0.55c0,0.28-0.11,0.42-0.33,0.42c-0.27,0-0.46-0.35-0.58-1.06c-0.46-2.54-1.22-4.14-2.27-4.82
			c-0.78-0.51-2.83-0.76-6.14-0.76h-3v12.35h0.88c2.73,0,4.39-0.24,4.99-0.71s1-1.86,1.22-4.16c0.05-0.59,0.18-0.88,0.4-0.88
			c0.27,0,0.4,0.25,0.4,0.76s-0.02,1.25-0.07,2.23c-0.05,0.98-0.07,1.72-0.07,2.23c0,3,0.04,5.05,0.12,6.17
			c0.02,0.28,0.03,0.52,0.03,0.71c0,0.36-0.13,0.55-0.4,0.55c-0.17,0-0.29-0.12-0.35-0.36c-0.06-0.24-0.16-1.01-0.31-2.33
			c-0.19-1.65-0.79-2.67-1.78-3.07c-0.44-0.17-1.58-0.25-3.42-0.25h-1.64v14.07c5.36,0,8.5-0.12,9.43-0.37
			c1.61-0.41,2.52-2.18,2.74-5.31c0.05-0.69,0.21-1.04,0.47-1.04C452.36,173.4,452.48,173.69,452.48,174.28z"/>
	</g>
</g>
<g>
	<rect x="30.51" y="126.56" fill="none" width="193.99" height="66.89"/>
</g>
<g>
	<path fill="#4D4E4E" d="M72.26,171.7c0,0.16-0.03,1.14-0.1,2.94c-0.07,1.8-0.1,3.52-0.1,5.16v1.98
		c-3.41-0.24-10.16-0.36-20.25-0.36c-1.22,0-2.42,0-3.6,0c-1.18,0-1.98,0-2.4,0h-0.52c-0.66,0-0.99-0.16-0.99-0.48
		c0-0.21,0.1-0.34,0.31-0.38c0.1,0,0.77-0.05,1.98-0.16c0.9-0.08,1.45-0.3,1.64-0.66c0.19-0.36,0.29-1.3,0.29-2.83v-33.82
		c0-1.16-0.15-1.86-0.44-2.08c-0.3-0.22-1.24-0.33-2.84-0.33c-0.56,0-0.83-0.17-0.83-0.51c0-0.34,0.38-0.51,1.15-0.51h8.93
		c0.31,0,2.28,0,5.9,0s6.06,0,7.31,0c1.04,0,2-0.08,2.87-0.24c0.07,1.72,0.23,4.1,0.47,7.14l0.21,2.58c0.03,0.2,0.05,0.46,0.05,0.78
		c0,0.4-0.16,0.6-0.47,0.6c-0.38,0-0.66-0.5-0.83-1.51c-0.66-3.62-1.74-5.92-3.24-6.88c-1.11-0.72-4.04-1.09-8.77-1.09h-4.28v17.64
		h1.25c3.9,0,6.27-0.34,7.12-1.02c0.85-0.68,1.44-2.66,1.75-5.94c0.07-0.84,0.26-1.26,0.57-1.26c0.38,0,0.57,0.36,0.57,1.08
		c0,0.72-0.04,1.78-0.1,3.18c-0.07,1.4-0.1,2.46-0.1,3.18c0,4.28,0.06,7.22,0.17,8.82c0.03,0.4,0.04,0.74,0.04,1.02
		c0,0.52-0.19,0.78-0.57,0.78c-0.24,0-0.41-0.17-0.49-0.51c-0.09-0.34-0.23-1.45-0.44-3.33c-0.28-2.36-1.13-3.82-2.55-4.38
		c-0.62-0.24-2.25-0.36-4.88-0.36h-2.34v20.1c7.66,0,12.14-0.18,13.47-0.53c2.3-0.59,3.6-3.12,3.92-7.59
		c0.07-0.99,0.29-1.48,0.68-1.48C72.08,170.44,72.26,170.86,72.26,171.7z"/>
	<path fill="#4D4E4E" d="M96.83,180.98c0,0.25-0.34,0.38-1.02,0.38c-0.83,0-1.67,0-2.54,0c-0.86,0-1.71,0-2.54,0
		c-1.07,0-2.31,0-3.73,0c-0.71,0-1.23,0-1.57,0c-0.71,0-1.06-0.13-1.06-0.39c0-0.24,0.28-0.35,0.84-0.32h1.64
		c0.58,0.03,0.94,0.01,1.06-0.04c0.37-0.08,0.55-0.35,0.55-0.8c0-0.42-0.32-1.34-0.94-2.75l-3.89-9.09l-4.6,8.94
		c-0.8,1.61-1.2,2.55-1.2,2.84c0,0.52,0.4,0.82,1.21,0.9c-0.05,0,0.5,0,1.64,0c0.44,0,0.66,0.12,0.66,0.38
		c0,0.23-0.18,0.34-0.55,0.34h-4.13h-3.11c-0.39,0-0.58-0.13-0.58-0.38s0.32-0.42,0.95-0.5c0.44-0.06,0.88-0.11,1.32-0.17
		c0.37-0.11,0.67-0.29,0.91-0.55c0.46-0.48,1.96-3.22,4.49-8.24c0.93-1.85,1.76-3.46,2.5-4.83l-4.14-9
		c-0.86-1.84-1.45-3.03-1.78-3.58s-0.68-0.9-1.05-1.07c-0.39-0.08-1.16-0.13-2.32-0.13c-0.29,0-0.44-0.11-0.44-0.34
		c0-0.31,0.2-0.46,0.58-0.46c0.54,0,1.64,0.03,3.33,0.08c0.83,0.03,1.4,0.04,1.72,0.04c2.85,0,4.42-0.04,4.71-0.13h0.51
		c0.51,0,0.77,0.11,0.77,0.34c0,0.31-0.43,0.46-1.29,0.46c-1.6-0.03-2.4,0.2-2.4,0.67c0,0.51,1.38,3.79,4.13,9.86
		c0.99-1.69,2.08-3.69,3.26-6.01c1.18-2.32,1.78-3.62,1.78-3.9c0-0.42-0.67-0.63-2.01-0.63c-0.66,0-0.99-0.13-0.99-0.38
		c0-0.28,0.23-0.42,0.69-0.42c0.32,0,0.78,0.02,1.39,0.06c0.61,0.04,1.07,0.06,1.39,0.06c0.12,0,0.69-0.02,1.7-0.06
		c1.01-0.04,1.6-0.06,1.77-0.06h0.33c0.41,0,0.62,0.12,0.62,0.36c0,0.24-0.16,0.36-0.47,0.36c-0.05,0-0.44,0.01-1.17,0.04
		c-0.83,0.03-1.39,0.2-1.7,0.51c-0.31,0.31-0.82,1.21-1.55,2.7c-0.95,1.97-2.34,4.57-4.17,7.8l-0.4,0.72
		c0.17,0.36,1.81,4.05,4.93,11.05c1.07,2.41,1.84,3.84,2.3,4.3c0.46,0.46,1.38,0.68,2.74,0.65
		C96.53,180.6,96.83,180.73,96.83,180.98z"/>
	<path fill="#4D4E4E" d="M114.34,159.18c0,2.72-1.01,4.83-3.03,6.34c-1.27,0.95-2.88,1.43-4.82,1.43c-0.83,0-1.77-0.1-2.81-0.29
		v11.93c0,0.64,0.02,1.05,0.07,1.22c0.12,0.39,0.39,0.63,0.8,0.71c0.71,0.11,1.39,0.17,2.05,0.17c0.27,0,0.4,0.1,0.4,0.29
		c0,0.28-0.17,0.42-0.51,0.42c-0.15,0-0.27,0-0.37,0c-1.34,0-3.86,0-7.56,0h-0.48c-0.73,0-1.1-0.14-1.1-0.42
		c0-0.2,0.26-0.29,0.77-0.29c1.15,0,1.8-0.13,1.97-0.38c0.19-0.11,0.3-0.39,0.33-0.84v-24.82c0-0.87-0.21-1.4-0.62-1.6
		c-0.24-0.11-0.67-0.17-1.28-0.17h-0.37c-0.07,0-0.16,0-0.26,0c-0.37,0-0.55-0.11-0.55-0.34c0-0.25,0.34-0.38,1.02-0.38h8.04
		c2.78,0,4.81,0.56,6.1,1.68C113.6,155.11,114.34,156.89,114.34,159.18z M110.5,159.22c0-4.23-1.54-6.34-4.6-6.34
		c-1.02,0-1.69,0.2-2.01,0.59c-0.15,0.17-0.22,0.61-0.22,1.31v11.24c0.19,0.03,0.41,0.04,0.66,0.04c1.61,0,2.97-0.41,4.09-1.23
		C109.8,163.83,110.5,161.96,110.5,159.22z"/>
	<path fill="#4D4E4E" d="M134.8,178.04c0,0.73-0.04,1.93-0.11,3.61h-0.4c-0.15,0-0.5-0.03-1.06-0.08c-0.56-0.06-1.19-0.08-1.9-0.08
		l-15.17-0.13c-0.41,0-0.62-0.13-0.62-0.38c0-0.2,0.33-0.32,0.99-0.38c0.92-0.06,1.48-0.17,1.66-0.36s0.27-0.71,0.27-1.58v-23.6
		c0-1.04-0.09-1.64-0.27-1.81s-0.83-0.25-1.96-0.25c-0.46,0-0.69-0.15-0.69-0.46c0-0.25,0.15-0.38,0.44-0.38h0.33
		c0.8,0.08,2.4,0.13,4.79,0.13c0.22,0,0.64-0.02,1.28-0.06s1.16-0.06,1.57-0.06h0.4c0.44,0,0.66,0.14,0.66,0.42
		c0,0.17-0.07,0.27-0.2,0.31s-0.55,0.08-1.26,0.1c-0.71,0.03-1.13,0.16-1.26,0.4c-0.13,0.24-0.2,0.97-0.2,2.21v24.78
		c0.66,0.03,1.57,0.04,2.74,0.04c2.85,0,4.86-0.17,6.03-0.5c1.17-0.34,1.96-0.97,2.38-1.89c0.41-0.92,0.66-2.17,0.73-3.74
		c0.02-0.36,0.16-0.55,0.42-0.55c0.3,0,0.44,0.21,0.42,0.63v1.05c0,0.06,0,0.18,0,0.38c0,0.2,0,0.39,0,0.59V178.04z"/>
	<path fill="#4D4E4E" d="M159.94,166.95c0,4.17-1.09,7.7-3.27,10.58c-2.18,2.88-4.85,4.33-8.02,4.33c-3.36,0-6.19-1.46-8.48-4.39
		s-3.43-6.53-3.43-10.82c0-4.37,1.1-7.94,3.31-10.73c2.2-2.79,5.02-4.18,8.46-4.18c3.24,0,5.96,1.46,8.15,4.37
		C158.84,159.03,159.94,162.64,159.94,166.95z M155.84,167.16c0-5.14-0.91-9.14-2.74-12.01c-1.15-1.8-2.74-2.7-4.79-2.7
		c-1.95,0-3.46,0.69-4.53,2.06c-1.97,2.53-2.96,6.64-2.96,12.34c0,4.52,0.69,8.03,2.06,10.53c1.38,2.5,3.31,3.75,5.79,3.75
		c2.31,0,4.06-1.18,5.23-3.54C155.2,175,155.84,171.52,155.84,167.16z"/>
	<path fill="#4D4E4E" d="M183.18,180.1c0,1.18-0.85,1.76-2.56,1.76c-1.9,0-3.39-0.91-4.46-2.73c-0.46-0.78-0.76-1.54-0.9-2.27
		c-0.13-0.73-0.33-2.58-0.6-5.54c-0.15-1.79-0.65-3.06-1.5-3.8c-0.85-0.74-2.24-1.14-4.17-1.2v13.23c0,0.56,0.39,0.91,1.17,1.05
		c0.22,0.03,0.78,0.06,1.68,0.08c0.32,0,0.48,0.11,0.48,0.34c0,0.25-0.21,0.38-0.62,0.38h-0.44c-0.22,0-1.28,0-3.18,0
		c-0.37,0-0.99,0-1.86,0c-0.85,0-1.41,0-1.68,0h-1.42c-0.54,0-0.8-0.13-0.8-0.38c0-0.2,0.35-0.31,1.06-0.34
		c1.14-0.03,1.77-0.2,1.86-0.5c0.1-0.14,0.15-0.69,0.15-1.64v-23.18c0-1.12-0.1-1.79-0.31-2.02c-0.21-0.22-0.83-0.35-1.88-0.38
		c-0.61,0-0.91-0.13-0.91-0.38c0-0.28,0.2-0.42,0.58-0.42c0.07,0,0.18,0.01,0.33,0.04l4.86,0.13c0.49,0,1.17-0.02,2.05-0.06
		c0.97-0.08,1.66-0.11,2.05-0.11c2.27,0,4.06,0.58,5.39,1.74c1.33,1.16,1.99,2.74,1.99,4.72c0,1.96-0.68,3.58-2.05,4.85
		c-1.37,1.27-3.22,2.02-5.55,2.25c-0.22,0.03-0.34,0.07-0.37,0.13c0,0.11,0.12,0.17,0.37,0.17c2.56,0.5,4.32,1.54,5.28,3.1
		c0.96,1.56,1.6,4.37,1.92,8.44c0.2,2.3,0.88,3.45,2.05,3.45c0.37,0,0.55-0.08,0.55-0.25c0-0.03-0.01-0.06-0.04-0.08
		c-0.12-0.31-0.18-0.56-0.18-0.76c0-0.59,0.27-0.88,0.8-0.88C182.88,179.05,183.18,179.4,183.18,180.1z M175.61,159.06
		c0-4-1.51-6.01-4.53-6.01c-0.8,0-1.35,0.13-1.64,0.38s-0.44,0.7-0.44,1.34v10.67c2.34,0.03,4.03-0.46,5.06-1.47
		C175.09,162.96,175.61,161.32,175.61,159.06z"/>
	<path fill="#4D4E4E" d="M203.49,174.6c0,0.11-0.02,0.8-0.07,2.06c-0.05,1.26-0.07,2.46-0.07,3.61v1.39
		c-2.39-0.17-7.11-0.25-14.18-0.25c-0.85,0-1.69,0-2.52,0s-1.39,0-1.68,0h-0.37c-0.46,0-0.69-0.11-0.69-0.34
		c0-0.15,0.07-0.24,0.22-0.26c0.07,0,0.54-0.04,1.39-0.11c0.63-0.06,1.02-0.21,1.15-0.46c0.13-0.25,0.2-0.91,0.2-1.98v-23.68
		c0-0.81-0.1-1.3-0.31-1.45c-0.21-0.15-0.87-0.23-1.99-0.23c-0.39,0-0.58-0.12-0.58-0.36c0-0.24,0.27-0.36,0.8-0.36h6.25
		c0.22,0,1.6,0,4.13,0s4.24,0,5.12,0c0.73,0,1.4-0.06,2.01-0.17c0.05,1.2,0.16,2.87,0.33,5l0.15,1.81c0.02,0.14,0.04,0.32,0.04,0.55
		c0,0.28-0.11,0.42-0.33,0.42c-0.27,0-0.46-0.35-0.58-1.06c-0.46-2.54-1.22-4.14-2.27-4.82c-0.78-0.51-2.83-0.76-6.14-0.76h-3v12.35
		h0.88c2.73,0,4.39-0.24,4.99-0.71s1-1.86,1.22-4.16c0.05-0.59,0.18-0.88,0.4-0.88c0.27,0,0.4,0.25,0.4,0.76s-0.02,1.25-0.07,2.23
		c-0.05,0.98-0.07,1.72-0.07,2.23c0,3,0.04,5.05,0.12,6.17c0.02,0.28,0.03,0.52,0.03,0.71c0,0.36-0.13,0.55-0.4,0.55
		c-0.17,0-0.29-0.12-0.35-0.36c-0.06-0.24-0.16-1.01-0.31-2.33c-0.19-1.65-0.79-2.67-1.78-3.07c-0.44-0.17-1.58-0.25-3.42-0.25
		h-1.64v14.07c5.36,0,8.5-0.12,9.43-0.37c1.61-0.41,2.52-2.18,2.74-5.31c0.05-0.69,0.21-1.04,0.47-1.04
		C203.37,173.71,203.49,174.01,203.49,174.6z"/>
</g>
<g>
	<rect x="66.82" y="34.17" fill="none" width="361.68" height="56.57"/>
	<g>
		<g opacity="0.18">
			<path fill="#666667" d="M73.8,85.51l0.13-2.05c3.33,0,5.17-1.23,5.51-3.7l4.31-33.47c0-2.74-1.67-4.11-5-4.11l0.25-2.05h16.47
				l-0.25,2.05c-3.46,0-5.43,1.74-5.89,5.21l-4.31,32.37c0,0.09-0.01,0.17-0.03,0.24c-0.02,0.07-0.03,0.15-0.03,0.24
				c0,1.6,1.14,2.4,3.42,2.4h2.6c1.73,0,3.23-0.08,4.5-0.24c1.27-0.16,2.43-0.6,3.48-1.33c1.05-0.73,2.04-1.87,2.95-3.42
				c0.91-1.55,1.89-3.72,2.94-6.5l1.52,0.27l-3.55,14.1H73.8z"/>
			<path fill="#666667" d="M105.98,85.51l0.18-1.44c2.48,0,3.89-1.1,4.21-3.31l2.88-22.32c0-1.09-0.29-1.9-0.89-2.45
				c-0.59-0.54-1.45-0.82-2.57-0.82l0.18-1.44h11.53l-0.18,1.44c-2.45,0-3.86,1.41-4.21,4.22l-2.84,21.36
				c-0.03,0.1-0.04,0.2-0.04,0.31s0,0.22,0,0.31c0,1.79,1.15,2.69,3.46,2.69l-0.13,1.44H105.98z"/>
			<path fill="#666667" d="M143.84,86.04L129.7,59.05l-2.48,19.31c-0.09,0.64-0.13,1.18-0.13,1.63c0,2.72,1.17,4.07,3.5,4.07
				l-0.13,1.44h-9.62l0.18-1.44c2.25,0,3.62-1.9,4.12-5.71l2.75-21.17c0-0.67-0.27-1.18-0.82-1.51c-0.55-0.34-1.52-0.5-2.9-0.5
				l0.22-1.44h7.27l12.5,23.92l2.26-17.19c0.09-0.51,0.13-1.01,0.13-1.49c0-2.53-1.17-3.79-3.5-3.79l0.18-1.44h9.58l-0.22,1.44
				c-2.45,0-3.9,1.76-4.34,5.28l-3.33,25.25L143.84,86.04z"/>
			<path fill="#666667" d="M151.29,85.51l0.18-1.44c1.06,0,1.96-0.26,2.68-0.79c0.72-0.53,1.16-1.3,1.31-2.33l2.93-22.61
				c0-2.11-1.15-3.17-3.46-3.17l0.18-1.44h20.97l-0.89,8.96l-1.24,0.19c-0.03-1.76-0.22-3.12-0.58-4.07
				c-0.35-0.96-0.85-1.66-1.49-2.11c-0.64-0.45-1.39-0.71-2.26-0.79c-0.87-0.08-1.81-0.12-2.82-0.12h-1.06
				c-1.12,0-1.94,0.18-2.44,0.53c-0.5,0.35-0.8,0.89-0.89,1.63l-1.15,8.58c0,0.06-0.01,0.13-0.02,0.19
				c-0.02,0.06-0.02,0.13-0.02,0.19c0,0.7,0.27,1.05,0.8,1.05h1.37c0.68,0,1.31-0.04,1.88-0.12c0.58-0.08,1.11-0.29,1.6-0.62
				c0.49-0.34,0.92-0.85,1.29-1.53c0.37-0.69,0.67-1.62,0.91-2.8h1.51l-1.64,12.41h-1.46v-1.15c0-0.89-0.08-1.61-0.24-2.16
				c-0.16-0.54-0.42-0.96-0.78-1.25s-0.81-0.48-1.35-0.58s-1.2-0.14-1.97-0.14h-0.44c-1.27,0-1.97,0.53-2.08,1.58l-1.2,9.15
				c-0.03,0.13-0.04,0.29-0.04,0.48c0,1.5,0.98,2.25,2.93,2.25h1.2c1.68,0,3.06-0.15,4.12-0.46c1.06-0.3,1.96-0.78,2.68-1.44
				c0.72-0.65,1.34-1.48,1.84-2.47c0.5-0.99,1.05-2.16,1.64-3.5l1.02,0.38l-2.26,9.49H151.29z"/>
			<path fill="#666667" d="M180.11,85.51l0.13-1.44c1.3,0,2.37-0.37,3.21-1.1c0.84-0.73,1.37-1.84,1.57-3.31L188,57.57
				c0-0.61-0.12-1.05-0.35-1.34s-0.71-0.43-1.42-0.43c-3.46,0-6.04,2.73-7.76,8.2l-1.15-0.38l2.39-10.21
				c0.59,0.1,1.16,0.18,1.71,0.24c0.55,0.06,1.07,0.1,1.57,0.1h15.34c0.56,0,1.15-0.03,1.75-0.1c0.61-0.06,1.22-0.14,1.84-0.24
				l-1.33,10.02l-1.15,0.19c0.03-0.22,0.04-0.44,0.04-0.65c0-0.21,0-0.41,0-0.6c0-4.28-1.8-6.42-5.41-6.42
				c-1.3,0-2.03,0.54-2.17,1.63l-2.88,22.09c-0.03,0.16-0.05,0.32-0.07,0.48c-0.01,0.16-0.02,0.32-0.02,0.48
				c0,2.3,1.26,3.45,3.77,3.45l-0.13,1.44H180.11z"/>
			<path fill="#666667" d="M211.45,85.51l0.09-1.44c0.38-0.06,0.79-0.13,1.22-0.19c0.43-0.06,0.83-0.14,1.2-0.24
				c0.37-0.1,0.67-0.22,0.91-0.36c0.24-0.14,0.36-0.31,0.36-0.5c0-0.16-0.01-0.34-0.02-0.53c-0.02-0.19-0.05-0.5-0.11-0.91
				l-0.97-5.9c-0.09-0.42-0.37-0.73-0.84-0.93c-0.47-0.21-0.96-0.31-1.46-0.31h-5.9c-1.04,0-1.71,0.41-2.04,1.24l-2.04,4.96
				c-0.06,0.19-0.13,0.42-0.2,0.69s-0.11,0.56-0.11,0.88c0,1.24,1.08,1.86,3.24,1.86l-0.18,1.68h-8.96l0.27-1.68
				c0.77-0.06,1.44-0.38,2.02-0.96c0.58-0.57,1.13-1.4,1.66-2.49l13.21-27.37l1.11,0.57l5.72,28.42c0.12,0.8,0.4,1.29,0.84,1.48
				c0.44,0.19,1.14,0.37,2.08,0.53l-0.13,1.49H211.45z M211.27,59.77l-4.79,10.06c-0.24,0.42-0.41,0.77-0.51,1.05
				s-0.16,0.53-0.16,0.72c0,0.38,0.46,0.58,1.38,0.58h5.01c0.86,0,1.29-0.22,1.29-0.67c0-0.16-0.02-0.36-0.07-0.6
				s-0.1-0.53-0.16-0.89L211.27,59.77z"/>
			<path fill="#666667" d="M238.79,85.51l-0.06-1.57l26.66-40.4c-0.8-0.18-1.61-0.31-2.41-0.38c-0.8-0.07-1.58-0.1-2.34-0.1h-2.6
				c-1.9,0-3.48,0.18-4.75,0.55c-1.27,0.37-2.35,0.95-3.26,1.75c-0.91,0.8-1.7,1.85-2.38,3.15c-0.68,1.3-1.35,2.87-2.03,4.69h-1.71
				l2.85-13.56c0.72,0.14,1.42,0.25,2.12,0.34c0.7,0.09,1.4,0.14,2.12,0.14h21.72l-0.25,2.12l-26.41,40.12
				c0.63,0.18,1.27,0.31,1.9,0.38c0.63,0.07,1.22,0.1,1.77,0.1h4.37c1.94,0,3.66-0.43,5.16-1.3c1.5-0.87,2.81-1.92,3.93-3.15
				c1.12-1.23,2.05-2.51,2.79-3.83c0.74-1.32,1.34-2.46,1.81-3.42l1.71,0.55l-3.29,13.83H238.79z"/>
			<path fill="#666667" d="M270.34,85.51l0.18-1.44c2.48,0,3.89-1.1,4.21-3.31l2.88-22.32c0-1.09-0.29-1.9-0.89-2.45
				c-0.59-0.54-1.45-0.82-2.57-0.82l0.18-1.44h11.53l-0.18,1.44c-2.45,0-3.86,1.41-4.21,4.22l-2.84,21.36
				c-0.03,0.1-0.04,0.2-0.04,0.31s0,0.22,0,0.31c0,1.79,1.15,2.69,3.46,2.69l-0.13,1.44H270.34z"/>
			<path fill="#666667" d="M303.81,68.54c1.89,0.35,3.4,1.09,4.52,2.2c1.12,1.12,1.68,2.59,1.68,4.41c0,1.98-0.31,3.64-0.93,4.98
				c-0.62,1.34-1.44,2.42-2.46,3.23c-1.02,0.81-2.17,1.41-3.44,1.77c-1.27,0.37-2.56,0.55-3.86,0.55c-1.12,0-2.21-0.01-3.26-0.02
				c-1.05-0.02-2.12-0.04-3.21-0.07c-1.09-0.03-2.21-0.06-3.35-0.07c-1.14-0.02-2.36-0.02-3.66-0.02l0.18-1.44
				c2.48,0,3.86-0.89,4.12-2.68l3.01-23.44c0-1.82-1.17-2.73-3.5-2.73l0.18-1.49h11.53c1.27,0,2.46,0.11,3.57,0.34
				c1.11,0.22,2.06,0.59,2.86,1.1c0.8,0.51,1.43,1.16,1.88,1.94c0.46,0.78,0.69,1.75,0.69,2.9c0,1.25-0.17,2.32-0.51,3.24
				s-0.81,1.69-1.42,2.35c-0.61,0.66-1.3,1.2-2.08,1.63c-0.78,0.43-1.62,0.81-2.5,1.13L303.81,68.54z M298.36,83.88
				c0.98,0,1.91-0.15,2.79-0.46c0.89-0.3,1.67-0.8,2.35-1.49s1.23-1.58,1.64-2.68c0.41-1.1,0.62-2.44,0.62-4
				c0-1.12-0.18-2.03-0.53-2.73c-0.35-0.7-0.86-1.25-1.51-1.65c-0.65-0.4-1.45-0.67-2.39-0.81c-0.95-0.14-2-0.22-3.15-0.22h-1.42
				c-0.77,0-1.24,0.61-1.42,1.82l-1.33,10.35c0,0.06-0.01,0.1-0.02,0.12c-0.02,0.02-0.02,0.06-0.02,0.12c0,1.09,0.89,1.63,2.66,1.63
				H298.36z M300.26,55.6c-1.83,0-2.84,0.59-3.01,1.77l-1.24,9.25c0,0.45,0.07,0.78,0.2,1.01c0.13,0.22,0.41,0.34,0.82,0.34
				c1.92,0,3.49-0.14,4.7-0.43c1.21-0.29,2.16-0.74,2.86-1.37c0.69-0.62,1.17-1.43,1.42-2.42c0.25-0.99,0.38-2.19,0.38-3.59
				c0-3.04-1.51-4.55-4.52-4.55H300.26z"/>
			<path fill="#666667" d="M312.9,85.51l0.18-1.44c1.06,0,1.96-0.26,2.68-0.79c0.72-0.53,1.16-1.3,1.31-2.33l2.93-22.61
				c0-2.11-1.15-3.17-3.46-3.17l0.18-1.44h20.97l-0.89,8.96l-1.24,0.19c-0.03-1.76-0.22-3.12-0.58-4.07
				c-0.35-0.96-0.85-1.66-1.49-2.11c-0.64-0.45-1.39-0.71-2.26-0.79c-0.87-0.08-1.81-0.12-2.82-0.12h-1.06
				c-1.12,0-1.94,0.18-2.44,0.53c-0.5,0.35-0.8,0.89-0.89,1.63l-1.15,8.58c0,0.06-0.01,0.13-0.02,0.19
				c-0.02,0.06-0.02,0.13-0.02,0.19c0,0.7,0.27,1.05,0.8,1.05H325c0.68,0,1.31-0.04,1.88-0.12c0.58-0.08,1.11-0.29,1.6-0.62
				c0.49-0.34,0.92-0.85,1.29-1.53c0.37-0.69,0.67-1.62,0.91-2.8h1.51l-1.64,12.41h-1.46v-1.15c0-0.89-0.08-1.61-0.24-2.16
				c-0.16-0.54-0.42-0.96-0.78-1.25s-0.81-0.48-1.35-0.58s-1.2-0.14-1.97-0.14h-0.44c-1.27,0-1.97,0.53-2.08,1.58l-1.2,9.15
				c-0.03,0.13-0.04,0.29-0.04,0.48c0,1.5,0.98,2.25,2.93,2.25h1.2c1.68,0,3.06-0.15,4.12-0.46c1.06-0.3,1.96-0.78,2.68-1.44
				c0.72-0.65,1.34-1.48,1.84-2.47c0.5-0.99,1.05-2.16,1.64-3.5l1.02,0.38l-2.26,9.49H312.9z"/>
			<path fill="#666667" d="M363.97,81.34c-0.03,0.38-0.16,0.85-0.38,1.39c-0.22,0.54-0.51,1.05-0.86,1.53s-0.78,0.9-1.26,1.25
				c-0.49,0.35-1.01,0.53-1.57,0.53c-1.6,0-2.74-0.33-3.44-0.98c-0.69-0.65-1.15-1.72-1.35-3.19c-0.18-1.21-0.33-2.52-0.44-3.91
				c-0.12-1.39-0.32-2.67-0.6-3.83c-0.28-1.17-0.69-2.14-1.22-2.92c-0.53-0.78-1.27-1.17-2.22-1.17h-1.24
				c-0.74,0-1.17,0.18-1.29,0.53l-1.42,10.4c-0.03,0.13-0.04,0.3-0.04,0.53c0,1.73,1.11,2.59,3.33,2.59l-0.13,1.44h-11.22l0.18-1.44
				c0.98,0,1.82-0.26,2.53-0.79s1.14-1.3,1.29-2.32l3.06-23.24c0-1.66-1.14-2.49-3.41-2.49l0.18-1.49h4.97
				c0.89,0,1.64-0.01,2.26-0.02c0.62-0.02,1.22-0.04,1.79-0.07c0.58-0.03,1.18-0.06,1.82-0.07c0.63-0.02,1.43-0.02,2.37-0.02
				c1.06,0,2.04,0.17,2.93,0.5s1.65,0.81,2.3,1.41c0.65,0.61,1.15,1.33,1.51,2.16c0.35,0.83,0.53,1.73,0.53,2.68
				c0,1.28-0.21,2.41-0.64,3.4c-0.43,0.99-1,1.86-1.73,2.61c-0.72,0.75-1.58,1.37-2.57,1.84c-0.99,0.48-2.05,0.86-3.17,1.15v0.14
				c1.24,0.74,2.19,1.65,2.86,2.76c0.67,1.1,1.07,2.17,1.22,3.19c0.09,0.64,0.18,1.41,0.27,2.3c0.09,0.9,0.23,1.74,0.42,2.54
				c0.19,0.8,0.44,1.48,0.73,2.04c0.29,0.56,0.69,0.84,1.2,0.84c0.59,0,1.14-0.72,1.64-2.16L363.97,81.34z M351.42,68.16
				c0.8,0,1.62-0.08,2.46-0.24c0.84-0.16,1.62-0.51,2.33-1.05c0.71-0.54,1.29-1.31,1.73-2.3c0.44-0.99,0.67-2.33,0.67-4.03
				c0-0.96-0.16-1.76-0.47-2.4c-0.31-0.64-0.71-1.15-1.2-1.53c-0.49-0.38-1.04-0.65-1.66-0.79c-0.62-0.14-1.23-0.22-1.82-0.22h-1.91
				c-0.65,0-1.09,0.22-1.33,0.67c-0.24,0.45-0.41,1.12-0.53,2.01l-1.15,9.15c0,0.48,0.25,0.72,0.75,0.72H351.42z"/>
			<path fill="#666667" d="M387.24,86.04c-0.53-0.54-1.01-1.02-1.44-1.44c-0.43-0.42-0.79-0.78-1.09-1.1
				c-1.04,0.83-2.21,1.49-3.52,1.99c-1.32,0.5-2.64,0.74-3.97,0.74c-1.63,0-3.09-0.33-4.39-0.98c-1.3-0.65-2.41-1.57-3.33-2.76
				c-0.92-1.18-1.62-2.56-2.11-4.15s-0.73-3.31-0.73-5.2c0-2.43,0.4-4.85,1.2-7.26c0.8-2.41,1.9-4.57,3.3-6.47
				c1.4-1.9,3.04-3.44,4.9-4.62c1.86-1.18,3.86-1.77,5.99-1.77c1.12,0,2.18,0.24,3.17,0.72c0.99,0.48,1.94,1.04,2.86,1.68
				c1.06-1.15,2.11-1.82,3.15-2.01c0.27,1.25,0.4,2.73,0.4,4.46c0,0.93-0.04,1.93-0.13,3.02c-0.09,1.09-0.21,2.24-0.36,3.45h-1.37
				c-0.09-1.41-0.32-2.68-0.69-3.83s-0.87-2.14-1.51-2.97c-0.64-0.83-1.4-1.48-2.28-1.94c-0.89-0.46-1.91-0.69-3.06-0.69
				c-1.86,0-3.48,0.56-4.85,1.68c-1.37,1.12-2.51,2.56-3.41,4.34c-0.9,1.77-1.58,3.75-2.04,5.92c-0.46,2.17-0.69,4.33-0.69,6.47
				c0,1.57,0.14,3.02,0.42,4.36c0.28,1.34,0.72,2.5,1.31,3.47c0.59,0.98,1.33,1.74,2.22,2.3c0.89,0.56,1.95,0.84,3.19,0.84
				c0.92,0,1.81-0.14,2.68-0.43s1.65-0.75,2.33-1.39c0.68-0.64,1.23-1.47,1.66-2.49c0.43-1.02,0.64-2.25,0.64-3.69
				c0-2.49-1.17-3.74-3.5-3.74l0.18-1.44h11.44l-0.22,1.44c-1.33,0-2.29,0.31-2.88,0.93s-0.96,1.53-1.11,2.71l-1.29,9.87H387.24z"/>
			<path fill="#666667" d="M407.55,85.51l0.09-1.44c0.38-0.06,0.79-0.13,1.22-0.19c0.43-0.06,0.83-0.14,1.2-0.24
				c0.37-0.1,0.67-0.22,0.91-0.36c0.24-0.14,0.36-0.31,0.36-0.5c0-0.16-0.01-0.34-0.02-0.53c-0.02-0.19-0.05-0.5-0.11-0.91
				l-0.97-5.9c-0.09-0.42-0.37-0.73-0.84-0.93c-0.47-0.21-0.96-0.31-1.46-0.31h-5.9c-1.04,0-1.71,0.41-2.04,1.24l-2.04,4.96
				c-0.06,0.19-0.13,0.42-0.2,0.69s-0.11,0.56-0.11,0.88c0,1.24,1.08,1.86,3.24,1.86l-0.18,1.68h-8.96l0.27-1.68
				c0.77-0.06,1.44-0.38,2.02-0.96c0.58-0.57,1.13-1.4,1.66-2.49l13.21-27.37l1.11,0.57l5.72,28.42c0.12,0.8,0.4,1.29,0.84,1.48
				c0.44,0.19,1.14,0.37,2.08,0.53l-0.13,1.49H407.55z M407.37,59.77l-4.79,10.06c-0.24,0.42-0.41,0.77-0.51,1.05
				s-0.16,0.53-0.16,0.72c0,0.38,0.46,0.58,1.38,0.58h5.01c0.86,0,1.29-0.22,1.29-0.67c0-0.16-0.02-0.36-0.07-0.6
				s-0.1-0.53-0.16-0.89L407.37,59.77z"/>
		</g>
		<g>
			<path fill="#F2F2F2" d="M77.17,85.51l0.13-2.05c3.33,0,5.17-1.23,5.51-3.7l4.31-33.47c0-2.74-1.67-4.11-5-4.11l0.25-2.05h16.47
				l-0.25,2.05c-3.46,0-5.43,1.74-5.89,5.21l-4.31,32.37c0,0.09-0.01,0.17-0.03,0.24c-0.02,0.07-0.03,0.15-0.03,0.24
				c0,1.6,1.14,2.4,3.42,2.4h2.6c1.73,0,3.23-0.08,4.5-0.24c1.27-0.16,2.43-0.6,3.48-1.33c1.05-0.73,2.04-1.87,2.95-3.42
				c0.91-1.55,1.89-3.72,2.94-6.5l1.52,0.27l-3.55,14.1H77.17z"/>
			<path fill="#F2F2F2" d="M109.36,85.51l0.18-1.44c2.48,0,3.89-1.1,4.21-3.31l2.88-22.32c0-1.09-0.29-1.9-0.89-2.45
				c-0.59-0.54-1.45-0.82-2.57-0.82l0.18-1.44h11.53l-0.18,1.44c-2.45,0-3.86,1.41-4.21,4.22l-2.84,21.36
				c-0.03,0.1-0.04,0.2-0.04,0.31s0,0.22,0,0.31c0,1.79,1.15,2.69,3.46,2.69l-0.13,1.44H109.36z"/>
			<path fill="#F2F2F2" d="M147.22,86.04l-14.14-26.98l-2.48,19.31c-0.09,0.64-0.13,1.18-0.13,1.63c0,2.72,1.17,4.07,3.5,4.07
				l-0.13,1.44h-9.62l0.18-1.44c2.25,0,3.62-1.9,4.12-5.71l2.75-21.17c0-0.67-0.27-1.18-0.82-1.51c-0.55-0.34-1.52-0.5-2.9-0.5
				l0.22-1.44h7.27l12.5,23.92l2.26-17.19c0.09-0.51,0.13-1.01,0.13-1.49c0-2.53-1.17-3.79-3.5-3.79l0.18-1.44h9.58l-0.22,1.44
				c-2.45,0-3.9,1.76-4.34,5.28l-3.33,25.25L147.22,86.04z"/>
			<path fill="#F2F2F2" d="M154.67,85.51l0.18-1.44c1.06,0,1.96-0.26,2.68-0.79c0.72-0.53,1.16-1.3,1.31-2.33l2.93-22.61
				c0-2.11-1.15-3.17-3.46-3.17l0.18-1.44h20.97l-0.89,8.96l-1.24,0.19c-0.03-1.76-0.22-3.12-0.58-4.07
				c-0.35-0.96-0.85-1.66-1.49-2.11c-0.64-0.45-1.39-0.71-2.26-0.79c-0.87-0.08-1.81-0.12-2.82-0.12h-1.06
				c-1.12,0-1.94,0.18-2.44,0.53c-0.5,0.35-0.8,0.89-0.89,1.63l-1.15,8.58c0,0.06-0.01,0.13-0.02,0.19
				c-0.02,0.06-0.02,0.13-0.02,0.19c0,0.7,0.27,1.05,0.8,1.05h1.37c0.68,0,1.31-0.04,1.88-0.12c0.58-0.08,1.11-0.29,1.6-0.62
				c0.49-0.34,0.92-0.85,1.29-1.53c0.37-0.69,0.67-1.62,0.91-2.8h1.51l-1.64,12.41h-1.46v-1.15c0-0.89-0.08-1.61-0.24-2.16
				c-0.16-0.54-0.42-0.96-0.78-1.25s-0.81-0.48-1.35-0.58s-1.2-0.14-1.97-0.14h-0.44c-1.27,0-1.97,0.53-2.08,1.58l-1.2,9.15
				c-0.03,0.13-0.04,0.29-0.04,0.48c0,1.5,0.98,2.25,2.93,2.25h1.2c1.68,0,3.06-0.15,4.12-0.46c1.06-0.3,1.96-0.78,2.68-1.44
				c0.72-0.65,1.34-1.48,1.84-2.47c0.5-0.99,1.05-2.16,1.64-3.5l1.02,0.38l-2.26,9.49H154.67z"/>
			<path fill="#F2F2F2" d="M183.48,85.51l0.13-1.44c1.3,0,2.37-0.37,3.21-1.1c0.84-0.73,1.37-1.84,1.57-3.31l2.97-22.09
				c0-0.61-0.12-1.05-0.35-1.34s-0.71-0.43-1.42-0.43c-3.46,0-6.04,2.73-7.76,8.2l-1.15-0.38l2.39-10.21
				c0.59,0.1,1.16,0.18,1.71,0.24c0.55,0.06,1.07,0.1,1.57,0.1h15.34c0.56,0,1.15-0.03,1.75-0.1c0.61-0.06,1.22-0.14,1.84-0.24
				l-1.33,10.02l-1.15,0.19c0.03-0.22,0.04-0.44,0.04-0.65c0-0.21,0-0.41,0-0.6c0-4.28-1.8-6.42-5.41-6.42
				c-1.3,0-2.03,0.54-2.17,1.63l-2.88,22.09c-0.03,0.16-0.05,0.32-0.07,0.48c-0.01,0.16-0.02,0.32-0.02,0.48
				c0,2.3,1.26,3.45,3.77,3.45l-0.13,1.44H183.48z"/>
			<path fill="#F2F2F2" d="M214.83,85.51l0.09-1.44c0.38-0.06,0.79-0.13,1.22-0.19c0.43-0.06,0.83-0.14,1.2-0.24
				c0.37-0.1,0.67-0.22,0.91-0.36c0.24-0.14,0.36-0.31,0.36-0.5c0-0.16-0.01-0.34-0.02-0.53c-0.02-0.19-0.05-0.5-0.11-0.91
				l-0.97-5.9c-0.09-0.42-0.37-0.73-0.84-0.93c-0.47-0.21-0.96-0.31-1.46-0.31h-5.9c-1.04,0-1.71,0.41-2.04,1.24l-2.04,4.96
				c-0.06,0.19-0.13,0.42-0.2,0.69s-0.11,0.56-0.11,0.88c0,1.24,1.08,1.86,3.24,1.86l-0.18,1.68H199l0.27-1.68
				c0.77-0.06,1.44-0.38,2.02-0.96c0.58-0.57,1.13-1.4,1.66-2.49l13.21-27.37l1.11,0.57l5.72,28.42c0.12,0.8,0.4,1.29,0.84,1.48
				c0.44,0.19,1.14,0.37,2.08,0.53l-0.13,1.49H214.83z M214.65,59.77l-4.79,10.06c-0.24,0.42-0.41,0.77-0.51,1.05
				s-0.16,0.53-0.16,0.72c0,0.38,0.46,0.58,1.38,0.58h5.01c0.86,0,1.29-0.22,1.29-0.67c0-0.16-0.02-0.36-0.07-0.6
				s-0.1-0.53-0.16-0.89L214.65,59.77z"/>
			<path fill="#F2F2F2" d="M242.16,85.51l-0.06-1.57l26.66-40.4c-0.8-0.18-1.61-0.31-2.41-0.38c-0.8-0.07-1.58-0.1-2.34-0.1h-2.6
				c-1.9,0-3.48,0.18-4.75,0.55c-1.27,0.37-2.35,0.95-3.26,1.75c-0.91,0.8-1.7,1.85-2.38,3.15c-0.68,1.3-1.35,2.87-2.03,4.69h-1.71
				l2.85-13.56c0.72,0.14,1.42,0.25,2.12,0.34c0.7,0.09,1.4,0.14,2.12,0.14h21.72l-0.25,2.12l-26.41,40.12
				c0.63,0.18,1.27,0.31,1.9,0.38c0.63,0.07,1.22,0.1,1.77,0.1h4.37c1.94,0,3.66-0.43,5.16-1.3c1.5-0.87,2.81-1.92,3.93-3.15
				c1.12-1.23,2.05-2.51,2.79-3.83c0.74-1.32,1.34-2.46,1.81-3.42l1.71,0.55l-3.29,13.83H242.16z"/>
			<path fill="#F2F2F2" d="M273.71,85.51l0.18-1.44c2.48,0,3.89-1.1,4.21-3.31l2.88-22.32c0-1.09-0.29-1.9-0.89-2.45
				c-0.59-0.54-1.45-0.82-2.57-0.82l0.18-1.44h11.53l-0.18,1.44c-2.45,0-3.86,1.41-4.21,4.22l-2.84,21.36
				c-0.03,0.1-0.04,0.2-0.04,0.31s0,0.22,0,0.31c0,1.79,1.15,2.69,3.46,2.69l-0.13,1.44H273.71z"/>
			<path fill="#F2F2F2" d="M307.19,68.54c1.89,0.35,3.4,1.09,4.52,2.2c1.12,1.12,1.68,2.59,1.68,4.41c0,1.98-0.31,3.64-0.93,4.98
				c-0.62,1.34-1.44,2.42-2.46,3.23c-1.02,0.81-2.17,1.41-3.44,1.77c-1.27,0.37-2.56,0.55-3.86,0.55c-1.12,0-2.21-0.01-3.26-0.02
				c-1.05-0.02-2.12-0.04-3.21-0.07c-1.09-0.03-2.21-0.06-3.35-0.07c-1.14-0.02-2.36-0.02-3.66-0.02l0.18-1.44
				c2.48,0,3.86-0.89,4.12-2.68l3.01-23.44c0-1.82-1.17-2.73-3.5-2.73l0.18-1.49h11.53c1.27,0,2.46,0.11,3.57,0.34
				c1.11,0.22,2.06,0.59,2.86,1.1c0.8,0.51,1.43,1.16,1.88,1.94c0.46,0.78,0.69,1.75,0.69,2.9c0,1.25-0.17,2.32-0.51,3.24
				s-0.81,1.69-1.42,2.35c-0.61,0.66-1.3,1.2-2.08,1.63c-0.78,0.43-1.62,0.81-2.5,1.13L307.19,68.54z M301.73,83.88
				c0.98,0,1.91-0.15,2.79-0.46c0.89-0.3,1.67-0.8,2.35-1.49s1.23-1.58,1.64-2.68c0.41-1.1,0.62-2.44,0.62-4
				c0-1.12-0.18-2.03-0.53-2.73c-0.35-0.7-0.86-1.25-1.51-1.65c-0.65-0.4-1.45-0.67-2.39-0.81c-0.95-0.14-2-0.22-3.15-0.22h-1.42
				c-0.77,0-1.24,0.61-1.42,1.82l-1.33,10.35c0,0.06-0.01,0.1-0.02,0.12c-0.02,0.02-0.02,0.06-0.02,0.12c0,1.09,0.89,1.63,2.66,1.63
				H301.73z M303.64,55.6c-1.83,0-2.84,0.59-3.01,1.77l-1.24,9.25c0,0.45,0.07,0.78,0.2,1.01c0.13,0.22,0.41,0.34,0.82,0.34
				c1.92,0,3.49-0.14,4.7-0.43c1.21-0.29,2.16-0.74,2.86-1.37c0.69-0.62,1.17-1.43,1.42-2.42c0.25-0.99,0.38-2.19,0.38-3.59
				c0-3.04-1.51-4.55-4.52-4.55H303.64z"/>
			<path fill="#F2F2F2" d="M316.27,85.51l0.18-1.44c1.06,0,1.96-0.26,2.68-0.79c0.72-0.53,1.16-1.3,1.31-2.33l2.93-22.61
				c0-2.11-1.15-3.17-3.46-3.17l0.18-1.44h20.97l-0.89,8.96l-1.24,0.19c-0.03-1.76-0.22-3.12-0.58-4.07
				c-0.35-0.96-0.85-1.66-1.49-2.11c-0.64-0.45-1.39-0.71-2.26-0.79c-0.87-0.08-1.81-0.12-2.82-0.12h-1.06
				c-1.12,0-1.94,0.18-2.44,0.53c-0.5,0.35-0.8,0.89-0.89,1.63l-1.15,8.58c0,0.06-0.01,0.13-0.02,0.19
				c-0.02,0.06-0.02,0.13-0.02,0.19c0,0.7,0.27,1.05,0.8,1.05h1.37c0.68,0,1.31-0.04,1.88-0.12c0.58-0.08,1.11-0.29,1.6-0.62
				c0.49-0.34,0.92-0.85,1.29-1.53c0.37-0.69,0.67-1.62,0.91-2.8h1.51l-1.64,12.41h-1.46v-1.15c0-0.89-0.08-1.61-0.24-2.16
				c-0.16-0.54-0.42-0.96-0.78-1.25s-0.81-0.48-1.35-0.58s-1.2-0.14-1.97-0.14h-0.44c-1.27,0-1.97,0.53-2.08,1.58l-1.2,9.15
				c-0.03,0.13-0.04,0.29-0.04,0.48c0,1.5,0.98,2.25,2.93,2.25h1.2c1.68,0,3.06-0.15,4.12-0.46c1.06-0.3,1.96-0.78,2.68-1.44
				c0.72-0.65,1.34-1.48,1.84-2.47c0.5-0.99,1.05-2.16,1.64-3.5l1.02,0.38l-2.26,9.49H316.27z"/>
			<path fill="#F2F2F2" d="M367.35,81.34c-0.03,0.38-0.16,0.85-0.38,1.39c-0.22,0.54-0.51,1.05-0.86,1.53s-0.78,0.9-1.26,1.25
				c-0.49,0.35-1.01,0.53-1.57,0.53c-1.6,0-2.74-0.33-3.44-0.98c-0.69-0.65-1.15-1.72-1.35-3.19c-0.18-1.21-0.33-2.52-0.44-3.91
				c-0.12-1.39-0.32-2.67-0.6-3.83c-0.28-1.17-0.69-2.14-1.22-2.92c-0.53-0.78-1.27-1.17-2.22-1.17h-1.24
				c-0.74,0-1.17,0.18-1.29,0.53l-1.42,10.4c-0.03,0.13-0.04,0.3-0.04,0.53c0,1.73,1.11,2.59,3.33,2.59l-0.13,1.44h-11.22l0.18-1.44
				c0.98,0,1.82-0.26,2.53-0.79s1.14-1.3,1.29-2.32l3.06-23.24c0-1.66-1.14-2.49-3.41-2.49l0.18-1.49h4.97
				c0.89,0,1.64-0.01,2.26-0.02c0.62-0.02,1.22-0.04,1.79-0.07c0.58-0.03,1.18-0.06,1.82-0.07c0.63-0.02,1.43-0.02,2.37-0.02
				c1.06,0,2.04,0.17,2.93,0.5s1.65,0.81,2.3,1.41c0.65,0.61,1.15,1.33,1.51,2.16c0.35,0.83,0.53,1.73,0.53,2.68
				c0,1.28-0.21,2.41-0.64,3.4c-0.43,0.99-1,1.86-1.73,2.61c-0.72,0.75-1.58,1.37-2.57,1.84c-0.99,0.48-2.05,0.86-3.17,1.15v0.14
				c1.24,0.74,2.19,1.65,2.86,2.76c0.67,1.1,1.07,2.17,1.22,3.19c0.09,0.64,0.18,1.41,0.27,2.3c0.09,0.9,0.23,1.74,0.42,2.54
				c0.19,0.8,0.44,1.48,0.73,2.04c0.29,0.56,0.69,0.84,1.2,0.84c0.59,0,1.14-0.72,1.64-2.16L367.35,81.34z M354.8,68.16
				c0.8,0,1.62-0.08,2.46-0.24c0.84-0.16,1.62-0.51,2.33-1.05c0.71-0.54,1.29-1.31,1.73-2.3c0.44-0.99,0.67-2.33,0.67-4.03
				c0-0.96-0.16-1.76-0.47-2.4c-0.31-0.64-0.71-1.15-1.2-1.53c-0.49-0.38-1.04-0.65-1.66-0.79c-0.62-0.14-1.23-0.22-1.82-0.22h-1.91
				c-0.65,0-1.09,0.22-1.33,0.67c-0.24,0.45-0.41,1.12-0.53,2.01l-1.15,9.15c0,0.48,0.25,0.72,0.75,0.72H354.8z"/>
			<path fill="#F2F2F2" d="M390.62,86.04c-0.53-0.54-1.01-1.02-1.44-1.44c-0.43-0.42-0.79-0.78-1.09-1.1
				c-1.04,0.83-2.21,1.49-3.52,1.99c-1.32,0.5-2.64,0.74-3.97,0.74c-1.63,0-3.09-0.33-4.39-0.98c-1.3-0.65-2.41-1.57-3.33-2.76
				c-0.92-1.18-1.62-2.56-2.11-4.15s-0.73-3.31-0.73-5.2c0-2.43,0.4-4.85,1.2-7.26c0.8-2.41,1.9-4.57,3.3-6.47
				c1.4-1.9,3.04-3.44,4.9-4.62c1.86-1.18,3.86-1.77,5.99-1.77c1.12,0,2.18,0.24,3.17,0.72c0.99,0.48,1.94,1.04,2.86,1.68
				c1.06-1.15,2.11-1.82,3.15-2.01c0.27,1.25,0.4,2.73,0.4,4.46c0,0.93-0.04,1.93-0.13,3.02c-0.09,1.09-0.21,2.24-0.36,3.45h-1.37
				c-0.09-1.41-0.32-2.68-0.69-3.83s-0.87-2.14-1.51-2.97c-0.64-0.83-1.4-1.48-2.28-1.94c-0.89-0.46-1.91-0.69-3.06-0.69
				c-1.86,0-3.48,0.56-4.85,1.68c-1.37,1.12-2.51,2.56-3.41,4.34c-0.9,1.77-1.58,3.75-2.04,5.92c-0.46,2.17-0.69,4.33-0.69,6.47
				c0,1.57,0.14,3.02,0.42,4.36c0.28,1.34,0.72,2.5,1.31,3.47c0.59,0.98,1.33,1.74,2.22,2.3c0.89,0.56,1.95,0.84,3.19,0.84
				c0.92,0,1.81-0.14,2.68-0.43s1.65-0.75,2.33-1.39c0.68-0.64,1.23-1.47,1.66-2.49c0.43-1.02,0.64-2.25,0.64-3.69
				c0-2.49-1.17-3.74-3.5-3.74l0.18-1.44h11.44l-0.22,1.44c-1.33,0-2.29,0.31-2.88,0.93s-0.96,1.53-1.11,2.71l-1.29,9.87H390.62z"/>
			<path fill="#F2F2F2" d="M410.92,85.51l0.09-1.44c0.38-0.06,0.79-0.13,1.22-0.19c0.43-0.06,0.83-0.14,1.2-0.24
				c0.37-0.1,0.67-0.22,0.91-0.36c0.24-0.14,0.36-0.31,0.36-0.5c0-0.16-0.01-0.34-0.02-0.53c-0.02-0.19-0.05-0.5-0.11-0.91
				l-0.97-5.9c-0.09-0.42-0.37-0.73-0.84-0.93c-0.47-0.21-0.96-0.31-1.46-0.31h-5.9c-1.04,0-1.71,0.41-2.04,1.24l-2.04,4.96
				c-0.06,0.19-0.13,0.42-0.2,0.69s-0.11,0.56-0.11,0.88c0,1.24,1.08,1.86,3.24,1.86l-0.18,1.68h-8.96l0.27-1.68
				c0.77-0.06,1.44-0.38,2.02-0.96c0.58-0.57,1.13-1.4,1.66-2.49l13.21-27.37l1.11,0.57l5.72,28.42c0.12,0.8,0.4,1.29,0.84,1.48
				c0.44,0.19,1.14,0.37,2.08,0.53l-0.13,1.49H410.92z M410.75,59.77l-4.79,10.06c-0.24,0.42-0.41,0.77-0.51,1.05
				s-0.16,0.53-0.16,0.72c0,0.38,0.46,0.58,1.38,0.58h5.01c0.86,0,1.29-0.22,1.29-0.67c0-0.16-0.02-0.36-0.07-0.6
				s-0.1-0.53-0.16-0.89L410.75,59.77z"/>
		</g>
	</g>
</g>
</svg>
