<?xml version="1.0" encoding="utf-8"?>
<!-- Generator: Adobe Illustrator 28.2.0, SVG Export Plug-In . SVG Version: 6.00 Build 0)  -->
<svg version="1.1" id="Layer_1" xmlns="http://www.w3.org/2000/svg" xmlns:xlink="http://www.w3.org/1999/xlink" x="0px" y="0px"
	 viewBox="0 0 962 4880" enable-background="new 0 0 962 4880" xml:space="preserve">
<g>
	<rect x="-1" y="40.3" fill="#E4D2BC" width="963" height="176.71"/>
</g>
<rect x="1" y="2" opacity="0.36" fill="#EE9C9B" width="197.5" height="4876"/>
<rect x="496" y="109" fill="#FFFFFF" width="166" height="70"/>
<rect x="50.5" y="105" fill="none" width="390" height="61"/>
<g>
	<g>
		<path fill="#4D4E4E" d="M753.75,158.95c0,0.25-0.2,0.38-0.59,0.38c-0.26,0-0.49-0.02-0.7-0.04l-4.96-0.18l-4.96,0.18
			c-0.18,0.03-0.38,0.04-0.59,0.04c-0.52,0-0.78-0.16-0.78-0.47c0-0.35,0.35-0.52,1.05-0.52c2.29-0.03,3.44-0.29,3.44-0.79
			c0-0.03-0.03-0.15-0.08-0.35l-0.32-1.19l-0.2-0.63c-0.23-0.93-0.81-2.98-1.72-6.15h-8.35c-1.56,4.79-2.34,7.54-2.34,8.26
			c0,0.42,0.16,0.67,0.47,0.76c0.08,0.03,0.73,0.09,1.95,0.18c0.75,0.03,1.13,0.18,1.13,0.45c0,0.3-0.34,0.45-1.01,0.45
			c-1.2,0-2.59-0.06-4.18-0.18c-0.39-0.03-0.79-0.04-1.21-0.04s-0.82,0.05-1.21,0.15c-0.21,0.05-0.38,0.08-0.51,0.08
			c-0.36,0-0.55-0.13-0.55-0.41c0-0.27,0.41-0.42,1.23-0.45c0.82-0.03,1.41-0.17,1.78-0.43c0.36-0.26,0.65-0.74,0.86-1.46
			c3.35-11.05,6.07-19.92,8.18-26.61c0.06-0.35,0.18-0.75,0.36-1.19l0.17-0.82c0.08-0.33,0.18-0.49,0.31-0.49
			c0.08,0,0.14,0.09,0.2,0.27c0.34,1.17,1.11,3.61,2.3,7.31c0.94,2.9,3.27,10.19,6.99,21.86c0.21,0.68,0.47,1.11,0.8,1.29
			c0.33,0.19,1,0.29,2.01,0.32C753.41,158.55,753.75,158.69,753.75,158.95z M743.13,148.2c-0.42-1.34-1.12-3.57-2.1-6.67l-1.88-6.22
			c-1.09,3.31-2.39,7.6-3.92,12.89H743.13z"/>
		<path fill="#4D4E4E" d="M766.34,153.52c0,2.14-0.85,3.72-2.54,4.74c-0.82,0.5-2,0.82-3.53,0.94c-0.42,0.02-1.66,0.03-3.72,0.03
			h-3.33c-0.31,0-0.46-0.09-0.46-0.27c0-0.18,0.28-0.27,0.85-0.27c0.66,0,1.04-0.08,1.16-0.24c0.12-0.16,0.18-0.63,0.18-1.43v-16.99
			c0-0.92-0.04-1.46-0.11-1.6c-0.13-0.25-0.59-0.39-1.39-0.41c-0.49,0-0.74-0.11-0.74-0.33c0-0.2,0.23-0.3,0.68-0.3
			c0.02,0,0.13,0,0.33,0c0.2,0.06,0.38,0.09,0.55,0.09h5.33c1.97,0.02,3.43,0.4,4.4,1.13c1.13,0.86,1.69,2.1,1.69,3.74
			c0,1.42-0.46,2.59-1.39,3.5c-0.93,0.91-2.23,1.48-3.91,1.71v0.19c1.66,0.13,2.95,0.52,3.88,1.19
			C765.65,149.98,766.34,151.49,766.34,153.52z M762.68,142.69c0-2.01-0.4-3.35-1.2-4.02c-0.42-0.36-1.21-0.53-2.38-0.53
			c-0.31,0-0.79,0.03-1.45,0.09v9.11h0.25l1.5-0.06c1.04-0.04,1.84-0.47,2.42-1.27C762.39,145.2,762.68,144.09,762.68,142.69z
			 M763.47,153.18c0-2.64-0.93-4.27-2.79-4.9c-0.55-0.19-1.56-0.28-3.03-0.28v9.36c0,0.61,0.05,0.95,0.16,1.04
			c0.18,0.15,0.69,0.22,1.53,0.22c1.26,0,2.26-0.46,3.01-1.38C763.1,156.31,763.47,154.96,763.47,153.18z"/>
		<path fill="#4D4E4E" d="M786.13,148.47c0,3.12-0.82,5.76-2.45,7.92c-1.63,2.16-3.63,3.24-6,3.24c-2.51,0-4.63-1.09-6.34-3.28
			c-1.71-2.19-2.57-4.88-2.57-8.09c0-3.27,0.82-5.94,2.47-8.03c1.65-2.08,3.76-3.13,6.33-3.13c2.42,0,4.46,1.09,6.09,3.27
			C785.31,142.54,786.13,145.24,786.13,148.47z M783.07,148.62c0-3.84-0.68-6.84-2.05-8.98c-0.86-1.34-2.05-2.02-3.58-2.02
			c-1.46,0-2.59,0.51-3.39,1.54c-1.48,1.89-2.21,4.97-2.21,9.23c0,3.38,0.51,6.01,1.54,7.88s2.47,2.8,4.33,2.8
			c1.73,0,3.03-0.88,3.91-2.65C782.59,154.49,783.07,151.88,783.07,148.62z"/>
		<path fill="#4D4E4E" d="M805.23,137.72c0,0.17-0.16,0.25-0.49,0.25c-0.05,0-0.24,0-0.55,0c-0.09,0-0.22,0-0.38,0
			c-0.46,0-0.73,0.14-0.82,0.41c-0.04,0.15-0.05,0.39-0.05,0.72v11.76c0,3.05-0.5,5.28-1.49,6.67c-0.99,1.39-2.59,2.09-4.8,2.09
			c-2.64,0-4.5-0.86-5.58-2.58c-0.71-1.15-1.07-3.05-1.07-5.69v-12.6c-0.06-0.38-0.28-0.61-0.67-0.69
			c-0.11-0.02-0.45-0.03-1.02-0.03c-0.31-0.04-0.47-0.15-0.47-0.31c0-0.19,0.13-0.28,0.38-0.28h0.49c0.09,0,0.3,0,0.63,0
			c0.29,0,0.56,0,0.79,0h3.91c0.09,0,0.2,0,0.33,0c0.31,0,0.46,0.11,0.46,0.34c0,0.15-0.05,0.23-0.16,0.25s-0.47,0.04-1.09,0.06
			c-0.26,0-0.43,0.02-0.52,0.06c-0.18,0.08-0.28,0.23-0.3,0.44c-0.02,0.08-0.03,0.68-0.03,1.79v11.21c0,2.76,0.38,4.64,1.15,5.64
			c0.76,1,1.9,1.5,3.42,1.5c2.77,0,4.34-1.8,4.7-5.41c0.05-0.54,0.08-2.84,0.08-6.88v-1.78v-2.5v-2.16c0-0.21,0-0.44,0-0.69
			c0-0.27,0-0.39,0-0.34c0-0.46-0.19-0.74-0.57-0.84c-0.13-0.04-0.5-0.06-1.12-0.06c-0.36,0-0.55-0.11-0.55-0.34
			c0-0.19,0.13-0.28,0.38-0.28c0.15,0,0.26,0,0.36,0c0.22,0,1.02,0,2.39,0c0.2,0,0.43,0,0.69,0c0.24,0,0.41,0,0.52,0h0.41
			C805.02,137.44,805.23,137.53,805.23,137.72z"/>
		<path fill="#4D4E4E" d="M821.08,143.03c0,0.27-0.11,0.41-0.33,0.41s-0.37-0.27-0.46-0.82c-0.04-0.38-0.07-0.75-0.11-1.13
			c-0.13-0.75-0.34-1.39-0.63-1.92c-0.38-0.69-1.01-1.13-1.89-1.32c-0.57-0.13-1.02-0.18-1.37-0.16c-0.86,0.03-1.38,0.05-1.56,0.06
			v18.97c0,0.76,0.17,1.23,0.52,1.42c0.18,0.1,0.69,0.17,1.53,0.19c0.22,0.02,0.33,0.11,0.33,0.27c0,0.18-0.15,0.27-0.44,0.27
			c-0.15,0-0.27-0.01-0.38-0.03c-1.09-0.04-1.87-0.06-2.32-0.06c-0.6,0-1.17,0.02-1.69,0.05c-0.53,0.03-1.2,0.05-2.02,0.05
			c-0.42,0-0.63-0.08-0.63-0.25c0-0.19,0.39-0.29,1.17-0.31c0.56,0,0.93-0.14,1.09-0.41c0.09-0.17,0.14-0.6,0.14-1.29v-18.84
			c-1.8,0.02-2.92,0.13-3.36,0.31c-1.15,0.48-1.82,1.77-2.02,3.86c-0.05,0.63-0.18,0.94-0.38,0.94c-0.22,0-0.33-0.22-0.33-0.66
			c0-0.23,0.01-0.46,0.03-0.69l0.05-0.72c0.05-0.96,0.14-2.23,0.25-3.8h1.23l5.58,0.09c0.66,0.02,1.68,0.02,3.06,0l4.54-0.09
			c0.04,1.17,0.16,2.91,0.36,5.21c0,0.06,0.01,0.14,0.03,0.24C821.07,142.95,821.08,143.01,821.08,143.03z"/>
		<path fill="#4D4E4E" d="M849.17,159.04c0,0.18-0.19,0.27-0.57,0.27h-0.3c-0.25,0-0.72,0-1.39,0c-0.67,0-1.19,0-1.55,0
			c-0.54,0-1.18,0-1.91,0c-0.75,0-1.24,0-1.47,0h-0.19c-0.38,0-0.57-0.09-0.57-0.28c0-0.21,0.26-0.31,0.79-0.31
			c0.93,0,1.49-0.12,1.69-0.35c0.09-0.11,0.14-0.81,0.14-2.11v-16.3c0,0.02-0.11,0.39-0.33,1.1c-0.73,2.53-1.79,6.34-3.18,11.43
			l-1.27,5c-0.26,0.98-0.44,1.48-0.55,1.48c-0.13,0-0.26-0.25-0.41-0.75c-0.53-1.91-2.01-6.66-4.46-14.27l-1.08-3.35
			c0,0.4,0,0.94,0,1.63v10.21c0,3.83,0.03,5.77,0.08,5.81c0.13,0.27,0.56,0.41,1.31,0.41c0.6,0,0.9,0.1,0.9,0.31
			c0,0.23-0.19,0.35-0.57,0.35c-0.24,0-0.46-0.02-0.66-0.06c-0.26-0.04-0.48-0.06-0.68-0.06l-3.14,0.13c-0.33,0-0.49-0.09-0.49-0.28
			c0-0.21,0.52-0.33,1.56-0.35c0.44,0,0.69-0.08,0.77-0.25c0.07-0.17,0.11-0.71,0.11-1.64v-15.07c0-1.74-0.02-2.68-0.05-2.83
			c-0.07-0.29-0.23-0.49-0.46-0.6c-0.24-0.1-0.75-0.19-1.53-0.25c-0.29-0.02-0.44-0.11-0.44-0.28c0-0.23,0.27-0.35,0.8-0.35
			c0.07,0,0.23,0,0.47,0h1.44c1.09,0,1.85-0.01,2.29-0.02c0.09,0.27,0.62,1.92,1.59,4.94c0.42,1.26,1.58,4.93,3.5,11.02
			c0.35-1.37,0.71-2.71,1.08-4.04l2.92-10.38c0.18-0.6,0.34-1.1,0.48-1.49l4.03-0.03c0.59,0,0.93,0.03,1.02,0.09
			c0.09,0.06,0.13,0.16,0.13,0.28c0,0.21-0.16,0.31-0.46,0.31c-0.51,0-0.86,0.02-1.04,0.06c-0.44,0.08-0.74,0.25-0.9,0.5
			c-0.09,0.15-0.14,1.38-0.14,3.69v14.65c0,0.84,0.07,1.33,0.22,1.48c0.24,0.19,0.83,0.28,1.78,0.28h0.16
			C848.99,158.77,849.17,158.86,849.17,159.04z"/>
		<path fill="#4D4E4E" d="M864.75,154.18c0,0.08-0.02,0.6-0.05,1.54s-0.05,1.84-0.05,2.7v1.04c-1.79-0.13-5.32-0.19-10.6-0.19
			c-0.64,0-1.27,0-1.89,0c-0.62,0-1.04,0-1.26,0h-0.27c-0.35,0-0.52-0.08-0.52-0.25c0-0.11,0.05-0.18,0.16-0.2
			c0.05,0,0.4-0.03,1.04-0.08c0.47-0.04,0.76-0.16,0.86-0.35c0.1-0.19,0.15-0.68,0.15-1.48V139.2c0-0.61-0.08-0.97-0.23-1.09
			c-0.16-0.12-0.65-0.17-1.49-0.17c-0.29,0-0.44-0.09-0.44-0.27c0-0.18,0.2-0.27,0.6-0.27h4.67c0.16,0,1.19,0,3.09,0
			c1.9,0,3.17,0,3.83,0c0.55,0,1.05-0.04,1.5-0.13c0.04,0.9,0.12,2.15,0.25,3.74l0.11,1.35c0.02,0.1,0.03,0.24,0.03,0.41
			c0,0.21-0.08,0.31-0.25,0.31c-0.2,0-0.35-0.26-0.44-0.79c-0.35-1.9-0.91-3.1-1.69-3.6c-0.58-0.38-2.11-0.57-4.59-0.57h-2.24v9.24
			h0.66c2.04,0,3.28-0.18,3.73-0.53c0.45-0.36,0.75-1.39,0.92-3.11c0.04-0.44,0.14-0.66,0.3-0.66c0.2,0,0.3,0.19,0.3,0.57
			s-0.02,0.93-0.05,1.67c-0.04,0.73-0.05,1.29-0.05,1.67c0,2.24,0.03,3.78,0.09,4.62c0.01,0.21,0.02,0.39,0.02,0.53
			c0,0.27-0.1,0.41-0.3,0.41c-0.13,0-0.21-0.09-0.26-0.27c-0.04-0.18-0.12-0.76-0.23-1.74c-0.14-1.24-0.59-2-1.33-2.29
			c-0.33-0.13-1.18-0.19-2.56-0.19h-1.22v10.52c4.01,0,6.36-0.09,7.05-0.28c1.2-0.31,1.89-1.63,2.05-3.97
			c0.04-0.52,0.15-0.78,0.35-0.78C864.66,153.52,864.75,153.74,864.75,154.18z"/>
	</g>
</g>
<g>
	<path fill="#4D4E4E" d="M539.25,150.56c0,0.12-0.03,0.87-0.08,2.25c-0.05,1.38-0.08,2.7-0.08,3.95v1.52
		c-2.61-0.18-7.78-0.28-15.51-0.28c-0.93,0-1.85,0-2.76,0s-1.52,0-1.84,0h-0.4c-0.51,0-0.76-0.12-0.76-0.37
		c0-0.16,0.08-0.26,0.24-0.29c0.08,0,0.59-0.04,1.52-0.12c0.69-0.06,1.11-0.23,1.26-0.51c0.15-0.28,0.22-1,0.22-2.17v-25.91
		c0-0.89-0.11-1.42-0.34-1.59c-0.23-0.17-0.95-0.25-2.18-0.25c-0.43,0-0.64-0.13-0.64-0.39c0-0.26,0.29-0.39,0.88-0.39h6.84
		c0.24,0,1.75,0,4.52,0c2.77,0,4.64,0,5.6,0c0.8,0,1.53-0.06,2.2-0.18c0.05,1.32,0.17,3.14,0.36,5.47l0.16,1.98
		c0.03,0.15,0.04,0.35,0.04,0.6c0,0.31-0.12,0.46-0.36,0.46c-0.29,0-0.51-0.38-0.64-1.16c-0.51-2.77-1.33-4.53-2.48-5.27
		c-0.85-0.55-3.09-0.83-6.72-0.83h-3.28v13.51h0.96c2.98,0,4.8-0.26,5.46-0.78c0.65-0.52,1.1-2.04,1.34-4.55
		c0.05-0.64,0.2-0.96,0.44-0.96c0.29,0,0.44,0.28,0.44,0.83c0,0.55-0.03,1.36-0.08,2.44c-0.05,1.07-0.08,1.88-0.08,2.44
		c0,3.28,0.04,5.53,0.13,6.76c0.02,0.31,0.03,0.57,0.03,0.78c0,0.4-0.15,0.6-0.44,0.6c-0.19,0-0.31-0.13-0.38-0.39
		s-0.18-1.11-0.34-2.55c-0.21-1.81-0.86-2.93-1.95-3.35c-0.48-0.18-1.73-0.28-3.74-0.28h-1.79v15.4c5.86,0,9.3-0.14,10.32-0.41
		c1.76-0.45,2.76-2.39,3-5.81c0.05-0.76,0.23-1.13,0.52-1.13C539.12,149.59,539.25,149.92,539.25,150.56z"/>
	<path fill="#4D4E4E" d="M558.07,157.67c0,0.19-0.26,0.29-0.78,0.29c-0.63,0-1.28,0-1.95,0s-1.31,0-1.95,0c-0.82,0-1.77,0-2.85,0
		c-0.54,0-0.94,0-1.2,0c-0.54,0-0.81-0.1-0.81-0.3c0-0.19,0.21-0.27,0.64-0.25h1.26c0.45,0.02,0.72,0.01,0.81-0.03
		c0.28-0.06,0.42-0.27,0.42-0.62c0-0.32-0.24-1.03-0.72-2.1l-2.98-6.96l-3.52,6.85c-0.61,1.23-0.92,1.96-0.92,2.18
		c0,0.4,0.31,0.63,0.92,0.69c-0.04,0,0.38,0,1.26,0c0.34,0,0.5,0.1,0.5,0.29c0,0.17-0.14,0.26-0.42,0.26h-3.16h-2.38
		c-0.3,0-0.45-0.1-0.45-0.29s0.24-0.32,0.73-0.39c0.34-0.04,0.67-0.09,1.01-0.13c0.28-0.09,0.51-0.23,0.7-0.42
		c0.35-0.36,1.5-2.47,3.44-6.31c0.71-1.42,1.35-2.65,1.91-3.7l-3.17-6.89c-0.66-1.41-1.11-2.32-1.37-2.74
		c-0.25-0.42-0.52-0.69-0.8-0.82c-0.3-0.06-0.89-0.1-1.77-0.1c-0.23,0-0.34-0.09-0.34-0.26c0-0.24,0.15-0.35,0.45-0.35
		c0.41,0,1.26,0.02,2.55,0.06c0.63,0.02,1.07,0.03,1.32,0.03c2.18,0,3.39-0.03,3.61-0.1h0.39c0.39,0,0.59,0.09,0.59,0.26
		c0,0.24-0.33,0.36-0.99,0.36c-1.23-0.02-1.84,0.15-1.84,0.52c0,0.39,1.05,2.91,3.17,7.56c0.76-1.29,1.59-2.83,2.5-4.6
		c0.91-1.78,1.36-2.77,1.36-2.99c0-0.32-0.51-0.48-1.54-0.48c-0.5,0-0.76-0.1-0.76-0.29c0-0.22,0.18-0.32,0.53-0.32
		c0.24,0,0.6,0.02,1.06,0.05c0.47,0.03,0.82,0.05,1.06,0.05c0.09,0,0.53-0.02,1.3-0.05c0.77-0.03,1.23-0.05,1.36-0.05h0.25
		c0.32,0,0.48,0.09,0.48,0.27c0,0.18-0.12,0.27-0.36,0.27c-0.04,0-0.34,0.01-0.9,0.03c-0.63,0.02-1.07,0.15-1.3,0.39
		c-0.23,0.24-0.63,0.93-1.19,2.07c-0.73,1.51-1.79,3.5-3.19,5.97l-0.31,0.55c0.13,0.28,1.39,3.1,3.78,8.46
		c0.82,1.84,1.41,2.94,1.76,3.3c0.35,0.35,1.05,0.52,2.1,0.5C557.84,157.38,558.07,157.48,558.07,157.67z"/>
	<path fill="#4D4E4E" d="M571.48,140.97c0,2.08-0.77,3.7-2.32,4.86c-0.97,0.73-2.2,1.09-3.69,1.09c-0.63,0-1.35-0.07-2.16-0.23v9.14
		c0,0.49,0.02,0.8,0.06,0.93c0.09,0.3,0.3,0.48,0.62,0.55c0.54,0.09,1.06,0.13,1.57,0.13c0.21,0,0.31,0.08,0.31,0.23
		c0,0.21-0.13,0.32-0.39,0.32c-0.11,0-0.21,0-0.28,0c-1.03,0-2.96,0-5.79,0h-0.36c-0.56,0-0.84-0.11-0.84-0.32
		c0-0.15,0.2-0.23,0.59-0.23c0.88,0,1.38-0.1,1.51-0.29c0.15-0.09,0.23-0.3,0.25-0.64V137.5c0-0.67-0.16-1.07-0.48-1.22
		c-0.19-0.09-0.51-0.13-0.98-0.13h-0.28c-0.06,0-0.12,0-0.2,0c-0.28,0-0.42-0.09-0.42-0.26c0-0.19,0.26-0.29,0.78-0.29h6.16
		c2.13,0,3.68,0.43,4.67,1.29C570.92,137.85,571.48,139.22,571.48,140.97z M568.54,141c0-3.24-1.18-4.86-3.53-4.86
		c-0.78,0-1.3,0.15-1.54,0.45c-0.11,0.13-0.17,0.46-0.17,1v8.61c0.15,0.02,0.32,0.03,0.5,0.03c1.23,0,2.28-0.31,3.13-0.94
		C568.01,144.53,568.54,143.1,568.54,141z"/>
	<path fill="#4D4E4E" d="M587.15,155.42c0,0.56-0.03,1.48-0.08,2.77h-0.31c-0.11,0-0.38-0.02-0.81-0.06s-0.91-0.06-1.45-0.06
		l-11.62-0.1c-0.32,0-0.47-0.1-0.47-0.29c0-0.15,0.25-0.25,0.76-0.29c0.71-0.04,1.13-0.13,1.27-0.27c0.14-0.14,0.21-0.54,0.21-1.21
		v-18.08c0-0.79-0.07-1.25-0.21-1.38c-0.14-0.13-0.64-0.19-1.5-0.19c-0.35,0-0.53-0.12-0.53-0.35c0-0.19,0.11-0.29,0.34-0.29h0.25
		c0.62,0.06,1.84,0.1,3.67,0.1c0.17,0,0.49-0.02,0.98-0.05s0.89-0.05,1.2-0.05h0.31c0.34,0,0.5,0.11,0.5,0.32
		c0,0.13-0.05,0.21-0.15,0.24s-0.42,0.06-0.97,0.08c-0.54,0.02-0.86,0.12-0.97,0.31s-0.15,0.75-0.15,1.69v18.98
		c0.5,0.02,1.2,0.03,2.1,0.03c2.18,0,3.72-0.13,4.62-0.39s1.5-0.74,1.82-1.45c0.32-0.71,0.5-1.66,0.56-2.86
		c0.02-0.28,0.12-0.42,0.32-0.42c0.23,0,0.34,0.16,0.32,0.48v0.8c0,0.04,0,0.14,0,0.29c0,0.15,0,0.3,0,0.45V155.42z"/>
	<path fill="#4D4E4E" d="M606.41,146.92c0,3.2-0.83,5.9-2.5,8.11s-3.72,3.31-6.14,3.31c-2.57,0-4.74-1.12-6.49-3.36
		c-1.75-2.24-2.63-5-2.63-8.28c0-3.35,0.84-6.08,2.53-8.22c1.69-2.13,3.85-3.2,6.48-3.2c2.48,0,4.56,1.12,6.24,3.35
		C605.57,140.86,606.41,143.62,606.41,146.92z M603.27,147.09c0-3.94-0.7-7-2.1-9.2c-0.88-1.38-2.1-2.06-3.67-2.06
		c-1.49,0-2.65,0.53-3.47,1.58c-1.51,1.94-2.27,5.09-2.27,9.45c0,3.46,0.53,6.15,1.58,8.07c1.05,1.91,2.53,2.87,4.44,2.87
		c1.77,0,3.11-0.9,4-2.71C602.78,153.09,603.27,150.42,603.27,147.09z"/>
	<path fill="#4D4E4E" d="M624.21,156.99c0,0.9-0.65,1.35-1.96,1.35c-1.46,0-2.59-0.7-3.41-2.09c-0.35-0.6-0.58-1.18-0.69-1.74
		c-0.1-0.56-0.26-1.97-0.46-4.25c-0.11-1.37-0.49-2.34-1.15-2.91c-0.65-0.57-1.72-0.87-3.19-0.92v10.13c0,0.43,0.3,0.7,0.9,0.8
		c0.17,0.02,0.6,0.04,1.29,0.06c0.24,0,0.36,0.09,0.36,0.26c0,0.19-0.16,0.29-0.48,0.29h-0.34c-0.17,0-0.98,0-2.44,0
		c-0.28,0-0.75,0-1.43,0c-0.65,0-1.08,0-1.29,0h-1.09c-0.41,0-0.62-0.1-0.62-0.29c0-0.15,0.27-0.24,0.81-0.26
		c0.88-0.02,1.35-0.15,1.43-0.39c0.07-0.11,0.11-0.52,0.11-1.25v-17.76c0-0.86-0.08-1.37-0.24-1.54c-0.16-0.17-0.64-0.27-1.44-0.29
		c-0.47,0-0.7-0.1-0.7-0.29c0-0.21,0.15-0.32,0.45-0.32c0.06,0,0.14,0.01,0.25,0.03l3.72,0.1c0.37,0,0.9-0.01,1.57-0.04
		c0.75-0.06,1.27-0.09,1.57-0.09c1.73,0,3.11,0.45,4.13,1.33c1.02,0.89,1.53,2.1,1.53,3.62c0,1.5-0.52,2.74-1.57,3.72
		c-1.04,0.98-2.46,1.55-4.25,1.72c-0.17,0.02-0.26,0.05-0.28,0.1c0,0.09,0.09,0.13,0.28,0.13c1.96,0.39,3.31,1.18,4.04,2.37
		c0.74,1.19,1.23,3.35,1.47,6.47c0.15,1.76,0.67,2.65,1.57,2.65c0.28,0,0.42-0.06,0.42-0.19c0-0.02-0.01-0.04-0.03-0.06
		c-0.09-0.24-0.14-0.43-0.14-0.58c0-0.45,0.21-0.68,0.62-0.68C623.98,156.19,624.21,156.46,624.21,156.99z M618.41,140.88
		c0-3.07-1.16-4.6-3.47-4.6c-0.62,0-1.04,0.1-1.26,0.29c-0.22,0.19-0.34,0.54-0.34,1.03v8.17c1.79,0.02,3.08-0.35,3.88-1.13
		S618.41,142.61,618.41,140.88z"/>
	<path fill="#4D4E4E" d="M639.77,152.78c0,0.09-0.02,0.61-0.06,1.58c-0.04,0.97-0.06,1.89-0.06,2.77v1.06
		c-1.83-0.13-5.45-0.19-10.86-0.19c-0.65,0-1.3,0-1.93,0c-0.63,0-1.06,0-1.29,0h-0.28c-0.35,0-0.53-0.09-0.53-0.26
		c0-0.12,0.06-0.18,0.17-0.2c0.06,0,0.41-0.03,1.06-0.09c0.49-0.04,0.78-0.16,0.88-0.35c0.1-0.19,0.15-0.7,0.15-1.52v-18.13
		c0-0.62-0.08-1-0.24-1.11c-0.16-0.12-0.67-0.18-1.53-0.18c-0.3,0-0.45-0.09-0.45-0.27c0-0.18,0.21-0.27,0.62-0.27h4.79
		c0.17,0,1.22,0,3.16,0s3.25,0,3.92,0c0.56,0,1.07-0.04,1.54-0.13c0.04,0.92,0.12,2.2,0.25,3.83l0.11,1.38
		c0.02,0.11,0.03,0.25,0.03,0.42c0,0.21-0.08,0.32-0.25,0.32c-0.21,0-0.35-0.27-0.45-0.81c-0.35-1.94-0.93-3.17-1.73-3.69
		c-0.6-0.39-2.17-0.58-4.7-0.58h-2.29v9.46h0.67c2.09,0,3.36-0.18,3.82-0.55c0.46-0.36,0.77-1.43,0.94-3.18
		c0.04-0.45,0.14-0.68,0.31-0.68c0.21,0,0.31,0.19,0.31,0.58s-0.02,0.95-0.06,1.71c-0.04,0.75-0.06,1.32-0.06,1.71
		c0,2.29,0.03,3.87,0.09,4.73c0.02,0.21,0.02,0.4,0.02,0.55c0,0.28-0.1,0.42-0.31,0.42c-0.13,0-0.22-0.09-0.26-0.27
		c-0.05-0.18-0.12-0.78-0.24-1.79c-0.15-1.27-0.6-2.05-1.37-2.35c-0.33-0.13-1.21-0.19-2.62-0.19h-1.25v10.78
		c4.1,0,6.51-0.1,7.22-0.29c1.23-0.32,1.93-1.67,2.1-4.07c0.04-0.53,0.16-0.79,0.36-0.79C639.67,152.1,639.77,152.33,639.77,152.78z
		"/>
</g>
<g>
	<g opacity="0.18">
		<path fill="#666667" d="M58.02,160.36l0.14-2.21c3.6,0,5.58-1.33,5.94-3.99l4.64-36.09c0-2.96-1.8-4.44-5.4-4.44l0.27-2.21h17.76
			l-0.27,2.21c-3.73,0-5.85,1.87-6.35,5.62l-4.64,34.91c0,0.1-0.01,0.19-0.03,0.26c-0.02,0.07-0.03,0.16-0.03,0.26
			c0,1.73,1.23,2.59,3.69,2.59h2.8c1.87,0,3.48-0.09,4.85-0.26c1.37-0.17,2.62-0.65,3.76-1.44c1.14-0.79,2.2-2.02,3.18-3.69
			c0.98-1.67,2.04-4.01,3.18-7.01l1.64,0.3l-3.82,15.21H58.02z"/>
		<path fill="#666667" d="M92.73,160.36l0.19-1.55c2.68,0,4.19-1.19,4.54-3.57l3.11-24.07c0-1.17-0.32-2.05-0.96-2.64
			c-0.64-0.59-1.56-0.88-2.77-0.88l0.19-1.55h12.43l-0.19,1.55c-2.65,0-4.16,1.52-4.54,4.56l-3.06,23.04
			c-0.03,0.1-0.05,0.22-0.05,0.34s0,0.23,0,0.34c0,1.93,1.24,2.9,3.73,2.9l-0.14,1.55H92.73z"/>
		<path fill="#666667" d="M133.55,160.93l-15.25-29.1l-2.68,20.83c-0.1,0.69-0.14,1.27-0.14,1.76c0,2.93,1.26,4.39,3.78,4.39
			l-0.14,1.55h-10.37l0.19-1.55c2.42,0,3.9-2.05,4.45-6.16l2.96-22.83c0-0.72-0.29-1.27-0.88-1.63c-0.59-0.36-1.63-0.54-3.13-0.54
			l0.24-1.55h7.84l13.48,25.79l2.44-18.54c0.1-0.55,0.14-1.09,0.14-1.6c0-2.73-1.26-4.09-3.78-4.09l0.19-1.55h10.33l-0.24,1.55
			c-2.65,0-4.21,1.9-4.68,5.69l-3.59,27.23L133.55,160.93z"/>
		<path fill="#666667" d="M141.58,160.36l0.19-1.55c1.15,0,2.11-0.28,2.89-0.85c0.78-0.57,1.25-1.41,1.41-2.51l3.16-24.38
			c0-2.28-1.24-3.42-3.73-3.42l0.19-1.55h22.61l-0.96,9.66l-1.34,0.21c-0.03-1.89-0.24-3.36-0.62-4.39
			c-0.38-1.03-0.92-1.79-1.6-2.27c-0.69-0.48-1.5-0.77-2.44-0.85c-0.94-0.09-1.95-0.13-3.04-0.13h-1.15c-1.21,0-2.09,0.19-2.63,0.57
			c-0.54,0.38-0.86,0.96-0.96,1.76l-1.24,9.25c0,0.07-0.01,0.14-0.02,0.21c-0.02,0.07-0.02,0.14-0.02,0.21
			c0,0.76,0.29,1.14,0.86,1.14h1.48c0.73,0,1.41-0.04,2.03-0.13c0.62-0.09,1.2-0.31,1.72-0.67c0.53-0.36,0.99-0.91,1.39-1.65
			c0.4-0.74,0.72-1.75,0.98-3.02h1.63l-1.77,13.38h-1.58v-1.24c0-0.96-0.09-1.74-0.26-2.33c-0.18-0.58-0.45-1.03-0.84-1.34
			c-0.38-0.31-0.87-0.52-1.46-0.62c-0.59-0.1-1.3-0.16-2.13-0.16h-0.48c-1.37,0-2.12,0.57-2.25,1.71l-1.29,9.87
			c-0.03,0.14-0.05,0.31-0.05,0.52c0,1.62,1.05,2.43,3.16,2.43h1.29c1.82,0,3.3-0.16,4.45-0.49c1.15-0.33,2.11-0.84,2.89-1.55
			c0.78-0.71,1.44-1.59,1.98-2.66c0.54-1.07,1.13-2.33,1.77-3.77l1.1,0.41l-2.44,10.23H141.58z"/>
		<path fill="#666667" d="M172.66,160.36l0.14-1.55c1.4,0,2.56-0.4,3.47-1.19c0.91-0.79,1.47-1.98,1.7-3.57l3.2-23.82
			c0-0.65-0.13-1.14-0.38-1.45c-0.26-0.31-0.76-0.47-1.53-0.47c-3.73,0-6.52,2.95-8.37,8.84l-1.24-0.41l2.58-11.01
			c0.64,0.1,1.25,0.19,1.84,0.26c0.59,0.07,1.16,0.1,1.7,0.1h16.54c0.61,0,1.24-0.03,1.89-0.1c0.65-0.07,1.31-0.15,1.98-0.26
			l-1.43,10.8l-1.24,0.21c0.03-0.24,0.05-0.47,0.05-0.7c0-0.22,0-0.44,0-0.65c0-4.62-1.94-6.92-5.83-6.92
			c-1.4,0-2.18,0.59-2.34,1.76l-3.11,23.82c-0.03,0.17-0.06,0.34-0.07,0.52c-0.02,0.17-0.02,0.34-0.02,0.52
			c0,2.48,1.35,3.72,4.06,3.72l-0.14,1.55H172.66z"/>
		<path fill="#666667" d="M206.46,160.36l0.1-1.55c0.41-0.07,0.85-0.14,1.31-0.21c0.46-0.07,0.89-0.15,1.29-0.26
			c0.4-0.1,0.72-0.23,0.98-0.39c0.25-0.16,0.38-0.34,0.38-0.54c0-0.17-0.01-0.36-0.02-0.57c-0.02-0.21-0.06-0.53-0.12-0.98
			l-1.05-6.36c-0.1-0.45-0.4-0.78-0.91-1.01c-0.51-0.22-1.04-0.34-1.58-0.34h-6.36c-1.12,0-1.85,0.45-2.2,1.34l-2.2,5.35
			c-0.06,0.21-0.14,0.45-0.22,0.75c-0.08,0.29-0.12,0.61-0.12,0.95c0,1.34,1.16,2.01,3.49,2.01l-0.19,1.81h-9.66l0.29-1.81
			c0.83-0.07,1.55-0.41,2.17-1.03c0.62-0.62,1.22-1.51,1.79-2.68l14.25-29.51l1.19,0.62l6.17,30.65c0.13,0.86,0.43,1.39,0.91,1.6
			c0.48,0.21,1.23,0.4,2.25,0.57l-0.14,1.6H206.46z M206.26,132.61l-5.16,10.85c-0.25,0.45-0.44,0.83-0.55,1.14
			c-0.11,0.31-0.17,0.57-0.17,0.78c0,0.41,0.49,0.62,1.48,0.62h5.4c0.92,0,1.39-0.24,1.39-0.72c0-0.17-0.02-0.39-0.07-0.65
			s-0.1-0.58-0.17-0.96L206.26,132.61z"/>
		<path fill="#666667" d="M235.93,160.36l-0.07-1.7l28.75-43.56c-0.87-0.2-1.73-0.33-2.6-0.41c-0.87-0.07-1.71-0.11-2.53-0.11h-2.8
			c-2.05,0-3.76,0.2-5.12,0.59c-1.37,0.39-2.54,1.02-3.52,1.88c-0.98,0.86-1.83,1.99-2.56,3.4c-0.73,1.4-1.46,3.09-2.19,5.06h-1.84
			l3.07-14.62c0.77,0.15,1.54,0.27,2.29,0.37c0.75,0.1,1.51,0.15,2.29,0.15h23.42l-0.27,2.29l-28.48,43.26
			c0.68,0.2,1.37,0.33,2.05,0.41c0.68,0.07,1.32,0.11,1.91,0.11h4.71c2.09,0,3.95-0.47,5.57-1.4c1.62-0.93,3.03-2.07,4.23-3.4
			c1.21-1.33,2.21-2.71,3-4.13c0.8-1.43,1.44-2.66,1.95-3.69l1.84,0.59l-3.55,14.91H235.93z"/>
		<path fill="#666667" d="M269.95,160.36l0.19-1.55c2.68,0,4.19-1.19,4.54-3.57l3.11-24.07c0-1.17-0.32-2.05-0.96-2.64
			c-0.64-0.59-1.56-0.88-2.77-0.88l0.19-1.55h12.43l-0.19,1.55c-2.65,0-4.16,1.52-4.54,4.56l-3.06,23.04
			c-0.03,0.1-0.05,0.22-0.05,0.34s0,0.23,0,0.34c0,1.93,1.24,2.9,3.73,2.9l-0.14,1.55H269.95z"/>
		<path fill="#666667" d="M306.04,142.06c2.04,0.38,3.67,1.17,4.88,2.38c1.21,1.21,1.82,2.79,1.82,4.75c0,2.14-0.33,3.93-1,5.37
			c-0.67,1.45-1.55,2.61-2.65,3.49s-2.33,1.52-3.71,1.91c-1.37,0.4-2.76,0.59-4.16,0.59c-1.21,0-2.38-0.01-3.51-0.03
			c-1.13-0.02-2.29-0.04-3.47-0.08c-1.18-0.03-2.38-0.06-3.61-0.08c-1.23-0.02-2.54-0.03-3.94-0.03l0.19-1.55
			c2.68,0,4.16-0.96,4.45-2.89l3.25-25.27c0-1.96-1.26-2.95-3.78-2.95l0.19-1.6h12.43c1.37,0,2.65,0.12,3.85,0.36
			c1.19,0.24,2.22,0.64,3.08,1.19c0.86,0.55,1.54,1.25,2.03,2.09s0.74,1.89,0.74,3.13c0,1.34-0.18,2.51-0.55,3.49
			s-0.88,1.83-1.53,2.53c-0.65,0.71-1.4,1.29-2.25,1.76c-0.84,0.46-1.75,0.87-2.7,1.21L306.04,142.06z M300.16,158.6
			c1.05,0,2.06-0.16,3.01-0.49c0.96-0.33,1.8-0.86,2.53-1.6c0.73-0.74,1.32-1.71,1.77-2.89c0.45-1.19,0.67-2.63,0.67-4.31
			c0-1.21-0.19-2.19-0.57-2.95c-0.38-0.76-0.92-1.35-1.63-1.78c-0.7-0.43-1.56-0.72-2.58-0.88c-1.02-0.15-2.15-0.23-3.39-0.23h-1.53
			c-0.83,0-1.34,0.65-1.53,1.96l-1.43,11.16c0,0.07-0.01,0.11-0.02,0.13c-0.02,0.02-0.02,0.06-0.02,0.13c0,1.17,0.96,1.76,2.87,1.76
			H300.16z M302.22,128.11c-1.98,0-3.06,0.64-3.25,1.91l-1.34,9.97c0,0.48,0.07,0.84,0.21,1.08c0.14,0.24,0.44,0.36,0.88,0.36
			c2.07,0,3.76-0.15,5.07-0.47c1.31-0.31,2.33-0.8,3.08-1.47c0.75-0.67,1.26-1.54,1.53-2.61c0.27-1.07,0.41-2.36,0.41-3.88
			c0-3.27-1.63-4.91-4.88-4.91H302.22z"/>
		<path fill="#666667" d="M315.84,160.36l0.19-1.55c1.15,0,2.11-0.28,2.89-0.85c0.78-0.57,1.25-1.41,1.41-2.51l3.16-24.38
			c0-2.28-1.24-3.42-3.73-3.42l0.19-1.55h22.61l-0.96,9.66l-1.34,0.21c-0.03-1.89-0.24-3.36-0.62-4.39
			c-0.38-1.03-0.92-1.79-1.6-2.27c-0.69-0.48-1.5-0.77-2.44-0.85c-0.94-0.09-1.95-0.13-3.04-0.13h-1.15c-1.21,0-2.09,0.19-2.63,0.57
			c-0.54,0.38-0.86,0.96-0.96,1.76l-1.24,9.25c0,0.07-0.01,0.14-0.02,0.21c-0.02,0.07-0.02,0.14-0.02,0.21
			c0,0.76,0.29,1.14,0.86,1.14h1.48c0.73,0,1.41-0.04,2.03-0.13c0.62-0.09,1.2-0.31,1.72-0.67c0.53-0.36,0.99-0.91,1.39-1.65
			c0.4-0.74,0.72-1.75,0.98-3.02h1.63l-1.77,13.38h-1.58v-1.24c0-0.96-0.09-1.74-0.26-2.33c-0.18-0.58-0.45-1.03-0.84-1.34
			c-0.38-0.31-0.87-0.52-1.46-0.62c-0.59-0.1-1.3-0.16-2.13-0.16h-0.48c-1.37,0-2.12,0.57-2.25,1.71l-1.29,9.87
			c-0.03,0.14-0.05,0.31-0.05,0.52c0,1.62,1.05,2.43,3.16,2.43h1.29c1.82,0,3.3-0.16,4.45-0.49c1.15-0.33,2.11-0.84,2.89-1.55
			c0.78-0.71,1.44-1.59,1.98-2.66c0.54-1.07,1.13-2.33,1.77-3.77l1.1,0.41l-2.44,10.23H315.84z"/>
		<path fill="#666667" d="M370.91,155.86c-0.03,0.41-0.17,0.91-0.41,1.5c-0.24,0.59-0.55,1.14-0.93,1.65
			c-0.38,0.52-0.84,0.96-1.36,1.34c-0.53,0.38-1.09,0.57-1.7,0.57c-1.72,0-2.96-0.35-3.71-1.06c-0.75-0.71-1.24-1.85-1.46-3.44
			c-0.19-1.31-0.35-2.71-0.48-4.21c-0.13-1.5-0.34-2.88-0.65-4.13c-0.3-1.26-0.74-2.31-1.31-3.15c-0.57-0.84-1.37-1.27-2.39-1.27
			h-1.34c-0.8,0-1.26,0.19-1.39,0.57l-1.53,11.21c-0.03,0.14-0.05,0.33-0.05,0.57c0,1.86,1.2,2.79,3.58,2.79l-0.14,1.55h-12.09
			l0.19-1.55c1.05,0,1.96-0.28,2.73-0.85c0.76-0.57,1.23-1.4,1.39-2.51l3.3-25.06c0-1.79-1.23-2.69-3.68-2.69l0.19-1.6h5.35
			c0.96,0,1.77-0.01,2.44-0.03c0.67-0.02,1.31-0.04,1.94-0.08c0.62-0.03,1.27-0.06,1.96-0.08c0.69-0.02,1.54-0.03,2.56-0.03
			c1.15,0,2.2,0.18,3.16,0.54s1.78,0.87,2.49,1.52c0.7,0.65,1.24,1.43,1.63,2.33c0.38,0.9,0.57,1.86,0.57,2.89
			c0,1.38-0.23,2.6-0.69,3.67c-0.46,1.07-1.08,2.01-1.86,2.82c-0.78,0.81-1.71,1.47-2.77,1.99c-1.07,0.52-2.21,0.93-3.42,1.24v0.15
			c1.34,0.79,2.37,1.78,3.08,2.97c0.72,1.19,1.16,2.33,1.32,3.44c0.1,0.69,0.19,1.52,0.29,2.48c0.1,0.97,0.25,1.88,0.45,2.74
			c0.21,0.86,0.47,1.59,0.79,2.2c0.32,0.6,0.75,0.9,1.29,0.9c0.64,0,1.23-0.78,1.77-2.33L370.91,155.86z M357.39,141.65
			c0.86,0,1.74-0.09,2.65-0.26c0.91-0.17,1.74-0.55,2.51-1.14c0.76-0.59,1.39-1.41,1.86-2.48c0.48-1.07,0.72-2.51,0.72-4.34
			c0-1.03-0.17-1.89-0.5-2.58c-0.33-0.69-0.76-1.24-1.29-1.65c-0.53-0.41-1.12-0.7-1.79-0.85c-0.67-0.16-1.32-0.23-1.96-0.23h-2.05
			c-0.7,0-1.18,0.24-1.43,0.72c-0.26,0.48-0.45,1.21-0.57,2.17l-1.24,9.87c0,0.52,0.27,0.77,0.81,0.77H357.39z"/>
		<path fill="#666667" d="M396.01,160.93c-0.57-0.59-1.09-1.1-1.55-1.55c-0.46-0.45-0.85-0.84-1.17-1.19
			c-1.12,0.9-2.38,1.61-3.8,2.14c-1.42,0.53-2.84,0.8-4.28,0.8c-1.75,0-3.33-0.35-4.73-1.06s-2.6-1.7-3.58-2.97
			c-0.99-1.27-1.75-2.76-2.27-4.47c-0.53-1.71-0.79-3.57-0.79-5.61c0-2.62,0.43-5.23,1.29-7.83c0.86-2.6,2.05-4.93,3.56-6.98
			c1.51-2.05,3.27-3.71,5.28-4.99c2.01-1.27,4.16-1.91,6.45-1.91c1.21,0,2.35,0.26,3.42,0.78s2.1,1.12,3.08,1.81
			c1.15-1.24,2.28-1.96,3.39-2.17c0.29,1.34,0.43,2.95,0.43,4.81c0,1-0.05,2.08-0.14,3.26c-0.1,1.17-0.22,2.41-0.38,3.72h-1.48
			c-0.1-1.52-0.34-2.89-0.74-4.13s-0.94-2.31-1.62-3.2c-0.69-0.9-1.51-1.59-2.46-2.09c-0.96-0.5-2.06-0.75-3.3-0.75
			c-2.01,0-3.75,0.6-5.23,1.81c-1.48,1.21-2.71,2.77-3.68,4.68c-0.97,1.91-1.71,4.04-2.2,6.38c-0.5,2.34-0.74,4.67-0.74,6.98
			c0,1.69,0.15,3.26,0.45,4.7c0.3,1.45,0.77,2.7,1.41,3.75c0.64,1.05,1.43,1.88,2.39,2.48c0.96,0.6,2.1,0.9,3.44,0.9
			c0.99,0,1.95-0.15,2.89-0.46c0.94-0.31,1.78-0.81,2.51-1.5c0.73-0.69,1.33-1.58,1.79-2.69c0.46-1.1,0.69-2.43,0.69-3.98
			c0-2.69-1.26-4.03-3.78-4.03l0.19-1.55h12.33l-0.24,1.55c-1.43,0-2.47,0.34-3.11,1.01c-0.64,0.67-1.04,1.65-1.2,2.92l-1.39,10.65
			H396.01z"/>
		<path fill="#666667" d="M417.91,160.36l0.1-1.55c0.41-0.07,0.85-0.14,1.31-0.21c0.46-0.07,0.89-0.15,1.29-0.26
			c0.4-0.1,0.72-0.23,0.98-0.39c0.25-0.16,0.38-0.34,0.38-0.54c0-0.17-0.01-0.36-0.02-0.57c-0.02-0.21-0.06-0.53-0.12-0.98
			l-1.05-6.36c-0.1-0.45-0.4-0.78-0.91-1.01c-0.51-0.22-1.04-0.34-1.58-0.34h-6.36c-1.12,0-1.85,0.45-2.2,1.34l-2.2,5.35
			c-0.06,0.21-0.14,0.45-0.22,0.75c-0.08,0.29-0.12,0.61-0.12,0.95c0,1.34,1.16,2.01,3.49,2.01l-0.19,1.81h-9.66l0.29-1.81
			c0.83-0.07,1.55-0.41,2.17-1.03c0.62-0.62,1.22-1.51,1.79-2.68l14.25-29.51l1.19,0.62l6.17,30.65c0.13,0.86,0.43,1.39,0.91,1.6
			c0.48,0.21,1.23,0.4,2.25,0.57l-0.14,1.6H417.91z M417.71,132.61l-5.16,10.85c-0.25,0.45-0.44,0.83-0.55,1.14
			c-0.11,0.31-0.17,0.57-0.17,0.78c0,0.41,0.49,0.62,1.48,0.62h5.4c0.92,0,1.39-0.24,1.39-0.72c0-0.17-0.02-0.39-0.07-0.65
			s-0.1-0.58-0.17-0.96L417.71,132.61z"/>
	</g>
	<g>
		<path fill="#F2F2F2" d="M61.67,160.36l0.14-2.21c3.6,0,5.58-1.33,5.94-3.99l4.64-36.09c0-2.96-1.8-4.44-5.4-4.44l0.27-2.21h17.76
			l-0.27,2.21c-3.73,0-5.85,1.87-6.35,5.62l-4.64,34.91c0,0.1-0.01,0.19-0.03,0.26c-0.02,0.07-0.03,0.16-0.03,0.26
			c0,1.73,1.23,2.59,3.69,2.59h2.8c1.87,0,3.48-0.09,4.85-0.26c1.37-0.17,2.62-0.65,3.76-1.44c1.14-0.79,2.2-2.02,3.18-3.69
			c0.98-1.67,2.04-4.01,3.18-7.01l1.64,0.3l-3.82,15.21H61.67z"/>
		<path fill="#F2F2F2" d="M96.37,160.36l0.19-1.55c2.68,0,4.19-1.19,4.54-3.57l3.11-24.07c0-1.17-0.32-2.05-0.96-2.64
			c-0.64-0.59-1.56-0.88-2.77-0.88l0.19-1.55h12.43l-0.19,1.55c-2.65,0-4.16,1.52-4.54,4.56l-3.06,23.04
			c-0.03,0.1-0.05,0.22-0.05,0.34s0,0.23,0,0.34c0,1.93,1.24,2.9,3.73,2.9l-0.14,1.55H96.37z"/>
		<path fill="#F2F2F2" d="M137.2,160.93l-15.25-29.1l-2.68,20.83c-0.1,0.69-0.14,1.27-0.14,1.76c0,2.93,1.26,4.39,3.78,4.39
			l-0.14,1.55h-10.37l0.19-1.55c2.42,0,3.9-2.05,4.45-6.16l2.96-22.83c0-0.72-0.29-1.27-0.88-1.63c-0.59-0.36-1.63-0.54-3.13-0.54
			l0.24-1.55h7.84l13.48,25.79l2.44-18.54c0.1-0.55,0.14-1.09,0.14-1.6c0-2.73-1.26-4.09-3.78-4.09l0.19-1.55h10.33l-0.24,1.55
			c-2.65,0-4.21,1.9-4.68,5.69l-3.59,27.23L137.2,160.93z"/>
		<path fill="#F2F2F2" d="M145.23,160.36l0.19-1.55c1.15,0,2.11-0.28,2.89-0.85c0.78-0.57,1.25-1.41,1.41-2.51l3.16-24.38
			c0-2.28-1.24-3.42-3.73-3.42l0.19-1.55h22.61l-0.96,9.66l-1.34,0.21c-0.03-1.89-0.24-3.36-0.62-4.39
			c-0.38-1.03-0.92-1.79-1.6-2.27c-0.69-0.48-1.5-0.77-2.44-0.85c-0.94-0.09-1.95-0.13-3.04-0.13h-1.15c-1.21,0-2.09,0.19-2.63,0.57
			c-0.54,0.38-0.86,0.96-0.96,1.76l-1.24,9.25c0,0.07-0.01,0.14-0.02,0.21c-0.02,0.07-0.02,0.14-0.02,0.21
			c0,0.76,0.29,1.14,0.86,1.14h1.48c0.73,0,1.41-0.04,2.03-0.13c0.62-0.09,1.2-0.31,1.72-0.67c0.53-0.36,0.99-0.91,1.39-1.65
			c0.4-0.74,0.72-1.75,0.98-3.02h1.63l-1.77,13.38h-1.58v-1.24c0-0.96-0.09-1.74-0.26-2.33c-0.18-0.58-0.45-1.03-0.84-1.34
			c-0.38-0.31-0.87-0.52-1.46-0.62c-0.59-0.1-1.3-0.16-2.13-0.16h-0.48c-1.37,0-2.12,0.57-2.25,1.71l-1.29,9.87
			c-0.03,0.14-0.05,0.31-0.05,0.52c0,1.62,1.05,2.43,3.16,2.43h1.29c1.82,0,3.3-0.16,4.45-0.49c1.15-0.33,2.11-0.84,2.89-1.55
			c0.78-0.71,1.44-1.59,1.98-2.66c0.54-1.07,1.13-2.33,1.77-3.77l1.1,0.41l-2.44,10.23H145.23z"/>
		<path fill="#F2F2F2" d="M176.3,160.36l0.14-1.55c1.4,0,2.56-0.4,3.47-1.19c0.91-0.79,1.47-1.98,1.7-3.57l3.2-23.82
			c0-0.65-0.13-1.14-0.38-1.45c-0.26-0.31-0.76-0.47-1.53-0.47c-3.73,0-6.52,2.95-8.37,8.84l-1.24-0.41l2.58-11.01
			c0.64,0.1,1.25,0.19,1.84,0.26c0.59,0.07,1.16,0.1,1.7,0.1h16.54c0.61,0,1.24-0.03,1.89-0.1c0.65-0.07,1.31-0.15,1.98-0.26
			l-1.43,10.8l-1.24,0.21c0.03-0.24,0.05-0.47,0.05-0.7c0-0.22,0-0.44,0-0.65c0-4.62-1.94-6.92-5.83-6.92
			c-1.4,0-2.18,0.59-2.34,1.76l-3.11,23.82c-0.03,0.17-0.06,0.34-0.07,0.52c-0.02,0.17-0.02,0.34-0.02,0.52
			c0,2.48,1.35,3.72,4.06,3.72l-0.14,1.55H176.3z"/>
		<path fill="#F2F2F2" d="M210.1,160.36l0.1-1.55c0.41-0.07,0.85-0.14,1.31-0.21c0.46-0.07,0.89-0.15,1.29-0.26
			c0.4-0.1,0.72-0.23,0.98-0.39c0.25-0.16,0.38-0.34,0.38-0.54c0-0.17-0.01-0.36-0.02-0.57c-0.02-0.21-0.06-0.53-0.12-0.98
			l-1.05-6.36c-0.1-0.45-0.4-0.78-0.91-1.01c-0.51-0.22-1.04-0.34-1.58-0.34h-6.36c-1.12,0-1.85,0.45-2.2,1.34l-2.2,5.35
			c-0.06,0.21-0.14,0.45-0.22,0.75c-0.08,0.29-0.12,0.61-0.12,0.95c0,1.34,1.16,2.01,3.49,2.01l-0.19,1.81h-9.66l0.29-1.81
			c0.83-0.07,1.55-0.41,2.17-1.03c0.62-0.62,1.22-1.51,1.79-2.68l14.25-29.51l1.19,0.62l6.17,30.65c0.13,0.86,0.43,1.39,0.91,1.6
			c0.48,0.21,1.23,0.4,2.25,0.57l-0.14,1.6H210.1z M209.91,132.61l-5.16,10.85c-0.25,0.45-0.44,0.83-0.55,1.14
			c-0.11,0.31-0.17,0.57-0.17,0.78c0,0.41,0.49,0.62,1.48,0.62h5.4c0.92,0,1.39-0.24,1.39-0.72c0-0.17-0.02-0.39-0.07-0.65
			s-0.1-0.58-0.17-0.96L209.91,132.61z"/>
		<path fill="#F2F2F2" d="M239.57,160.36l-0.07-1.7l28.75-43.56c-0.87-0.2-1.73-0.33-2.6-0.41c-0.87-0.07-1.71-0.11-2.53-0.11h-2.8
			c-2.05,0-3.76,0.2-5.12,0.59c-1.37,0.39-2.54,1.02-3.52,1.88c-0.98,0.86-1.83,1.99-2.56,3.4c-0.73,1.4-1.46,3.09-2.19,5.06h-1.84
			l3.07-14.62c0.77,0.15,1.54,0.27,2.29,0.37c0.75,0.1,1.51,0.15,2.29,0.15h23.42l-0.27,2.29l-28.48,43.26
			c0.68,0.2,1.37,0.33,2.05,0.41c0.68,0.07,1.32,0.11,1.91,0.11h4.71c2.09,0,3.95-0.47,5.57-1.4c1.62-0.93,3.03-2.07,4.23-3.4
			c1.21-1.33,2.21-2.71,3-4.13c0.8-1.43,1.44-2.66,1.95-3.69l1.84,0.59l-3.55,14.91H239.57z"/>
		<path fill="#F2F2F2" d="M273.6,160.36l0.19-1.55c2.68,0,4.19-1.19,4.54-3.57l3.11-24.07c0-1.17-0.32-2.05-0.96-2.64
			c-0.64-0.59-1.56-0.88-2.77-0.88l0.19-1.55h12.43l-0.19,1.55c-2.65,0-4.16,1.52-4.54,4.56l-3.06,23.04
			c-0.03,0.1-0.05,0.22-0.05,0.34s0,0.23,0,0.34c0,1.93,1.24,2.9,3.73,2.9l-0.14,1.55H273.6z"/>
		<path fill="#F2F2F2" d="M309.69,142.06c2.04,0.38,3.67,1.17,4.88,2.38c1.21,1.21,1.82,2.79,1.82,4.75c0,2.14-0.33,3.93-1,5.37
			c-0.67,1.45-1.55,2.61-2.65,3.49s-2.33,1.52-3.71,1.91c-1.37,0.4-2.76,0.59-4.16,0.59c-1.21,0-2.38-0.01-3.51-0.03
			c-1.13-0.02-2.29-0.04-3.47-0.08c-1.18-0.03-2.38-0.06-3.61-0.08c-1.23-0.02-2.54-0.03-3.94-0.03l0.19-1.55
			c2.68,0,4.16-0.96,4.45-2.89l3.25-25.27c0-1.96-1.26-2.95-3.78-2.95l0.19-1.6h12.43c1.37,0,2.65,0.12,3.85,0.36
			c1.19,0.24,2.22,0.64,3.08,1.19c0.86,0.55,1.54,1.25,2.03,2.09s0.74,1.89,0.74,3.13c0,1.34-0.18,2.51-0.55,3.49
			s-0.88,1.83-1.53,2.53c-0.65,0.71-1.4,1.29-2.25,1.76c-0.84,0.46-1.75,0.87-2.7,1.21L309.69,142.06z M303.81,158.6
			c1.05,0,2.06-0.16,3.01-0.49c0.96-0.33,1.8-0.86,2.53-1.6c0.73-0.74,1.32-1.71,1.77-2.89c0.45-1.19,0.67-2.63,0.67-4.31
			c0-1.21-0.19-2.19-0.57-2.95c-0.38-0.76-0.92-1.35-1.63-1.78c-0.7-0.43-1.56-0.72-2.58-0.88c-1.02-0.15-2.15-0.23-3.39-0.23h-1.53
			c-0.83,0-1.34,0.65-1.53,1.96l-1.43,11.16c0,0.07-0.01,0.11-0.02,0.13c-0.02,0.02-0.02,0.06-0.02,0.13c0,1.17,0.96,1.76,2.87,1.76
			H303.81z M305.86,128.11c-1.98,0-3.06,0.64-3.25,1.91l-1.34,9.97c0,0.48,0.07,0.84,0.21,1.08c0.14,0.24,0.44,0.36,0.88,0.36
			c2.07,0,3.76-0.15,5.07-0.47c1.31-0.31,2.33-0.8,3.08-1.47c0.75-0.67,1.26-1.54,1.53-2.61c0.27-1.07,0.41-2.36,0.41-3.88
			c0-3.27-1.63-4.91-4.88-4.91H305.86z"/>
		<path fill="#F2F2F2" d="M319.49,160.36l0.19-1.55c1.15,0,2.11-0.28,2.89-0.85c0.78-0.57,1.25-1.41,1.41-2.51l3.16-24.38
			c0-2.28-1.24-3.42-3.73-3.42l0.19-1.55h22.61l-0.96,9.66l-1.34,0.21c-0.03-1.89-0.24-3.36-0.62-4.39
			c-0.38-1.03-0.92-1.79-1.6-2.27c-0.69-0.48-1.5-0.77-2.44-0.85c-0.94-0.09-1.95-0.13-3.04-0.13h-1.15c-1.21,0-2.09,0.19-2.63,0.57
			c-0.54,0.38-0.86,0.96-0.96,1.76l-1.24,9.25c0,0.07-0.01,0.14-0.02,0.21c-0.02,0.07-0.02,0.14-0.02,0.21
			c0,0.76,0.29,1.14,0.86,1.14h1.48c0.73,0,1.41-0.04,2.03-0.13c0.62-0.09,1.2-0.31,1.72-0.67c0.53-0.36,0.99-0.91,1.39-1.65
			c0.4-0.74,0.72-1.75,0.98-3.02h1.63l-1.77,13.38h-1.58v-1.24c0-0.96-0.09-1.74-0.26-2.33c-0.18-0.58-0.45-1.03-0.84-1.34
			c-0.38-0.31-0.87-0.52-1.46-0.62c-0.59-0.1-1.3-0.16-2.13-0.16h-0.48c-1.37,0-2.12,0.57-2.25,1.71l-1.29,9.87
			c-0.03,0.14-0.05,0.31-0.05,0.52c0,1.62,1.05,2.43,3.16,2.43h1.29c1.82,0,3.3-0.16,4.45-0.49c1.15-0.33,2.11-0.84,2.89-1.55
			c0.78-0.71,1.44-1.59,1.98-2.66c0.54-1.07,1.13-2.33,1.77-3.77l1.1,0.41l-2.44,10.23H319.49z"/>
		<path fill="#F2F2F2" d="M374.56,155.86c-0.03,0.41-0.17,0.91-0.41,1.5c-0.24,0.59-0.55,1.14-0.93,1.65
			c-0.38,0.52-0.84,0.96-1.36,1.34c-0.53,0.38-1.09,0.57-1.7,0.57c-1.72,0-2.96-0.35-3.71-1.06c-0.75-0.71-1.24-1.85-1.46-3.44
			c-0.19-1.31-0.35-2.71-0.48-4.21c-0.13-1.5-0.34-2.88-0.65-4.13c-0.3-1.26-0.74-2.31-1.31-3.15c-0.57-0.84-1.37-1.27-2.39-1.27
			h-1.34c-0.8,0-1.26,0.19-1.39,0.57l-1.53,11.21c-0.03,0.14-0.05,0.33-0.05,0.57c0,1.86,1.2,2.79,3.58,2.79l-0.14,1.55h-12.09
			l0.19-1.55c1.05,0,1.96-0.28,2.73-0.85c0.76-0.57,1.23-1.4,1.39-2.51l3.3-25.06c0-1.79-1.23-2.69-3.68-2.69l0.19-1.6h5.35
			c0.96,0,1.77-0.01,2.44-0.03c0.67-0.02,1.31-0.04,1.94-0.08c0.62-0.03,1.27-0.06,1.96-0.08c0.69-0.02,1.54-0.03,2.56-0.03
			c1.15,0,2.2,0.18,3.16,0.54s1.78,0.87,2.49,1.52c0.7,0.65,1.24,1.43,1.63,2.33c0.38,0.9,0.57,1.86,0.57,2.89
			c0,1.38-0.23,2.6-0.69,3.67c-0.46,1.07-1.08,2.01-1.86,2.82c-0.78,0.81-1.71,1.47-2.77,1.99c-1.07,0.52-2.21,0.93-3.42,1.24v0.15
			c1.34,0.79,2.37,1.78,3.08,2.97c0.72,1.19,1.16,2.33,1.32,3.44c0.1,0.69,0.19,1.52,0.29,2.48c0.1,0.97,0.25,1.88,0.45,2.74
			c0.21,0.86,0.47,1.59,0.79,2.2c0.32,0.6,0.75,0.9,1.29,0.9c0.64,0,1.23-0.78,1.77-2.33L374.56,155.86z M361.03,141.65
			c0.86,0,1.74-0.09,2.65-0.26c0.91-0.17,1.74-0.55,2.51-1.14c0.76-0.59,1.39-1.41,1.86-2.48c0.48-1.07,0.72-2.51,0.72-4.34
			c0-1.03-0.17-1.89-0.5-2.58c-0.33-0.69-0.76-1.24-1.29-1.65c-0.53-0.41-1.12-0.7-1.79-0.85c-0.67-0.16-1.32-0.23-1.96-0.23h-2.05
			c-0.7,0-1.18,0.24-1.43,0.72c-0.26,0.48-0.45,1.21-0.57,2.17l-1.24,9.87c0,0.52,0.27,0.77,0.81,0.77H361.03z"/>
		<path fill="#F2F2F2" d="M399.66,160.93c-0.57-0.59-1.09-1.1-1.55-1.55c-0.46-0.45-0.85-0.84-1.17-1.19
			c-1.12,0.9-2.38,1.61-3.8,2.14c-1.42,0.53-2.84,0.8-4.28,0.8c-1.75,0-3.33-0.35-4.73-1.06s-2.6-1.7-3.58-2.97
			c-0.99-1.27-1.75-2.76-2.27-4.47c-0.53-1.71-0.79-3.57-0.79-5.61c0-2.62,0.43-5.23,1.29-7.83c0.86-2.6,2.05-4.93,3.56-6.98
			c1.51-2.05,3.27-3.71,5.28-4.99c2.01-1.27,4.16-1.91,6.45-1.91c1.21,0,2.35,0.26,3.42,0.78s2.1,1.12,3.08,1.81
			c1.15-1.24,2.28-1.96,3.39-2.17c0.29,1.34,0.43,2.95,0.43,4.81c0,1-0.05,2.08-0.14,3.26c-0.1,1.17-0.22,2.41-0.38,3.72h-1.48
			c-0.1-1.52-0.34-2.89-0.74-4.13s-0.94-2.31-1.62-3.2c-0.69-0.9-1.51-1.59-2.46-2.09c-0.96-0.5-2.06-0.75-3.3-0.75
			c-2.01,0-3.75,0.6-5.23,1.81c-1.48,1.21-2.71,2.77-3.68,4.68c-0.97,1.91-1.71,4.04-2.2,6.38c-0.5,2.34-0.74,4.67-0.74,6.98
			c0,1.69,0.15,3.26,0.45,4.7c0.3,1.45,0.77,2.7,1.41,3.75c0.64,1.05,1.43,1.88,2.39,2.48c0.96,0.6,2.1,0.9,3.44,0.9
			c0.99,0,1.95-0.15,2.89-0.46c0.94-0.31,1.78-0.81,2.51-1.5c0.73-0.69,1.33-1.58,1.79-2.69c0.46-1.1,0.69-2.43,0.69-3.98
			c0-2.69-1.26-4.03-3.78-4.03l0.19-1.55h12.33l-0.24,1.55c-1.43,0-2.47,0.34-3.11,1.01c-0.64,0.67-1.04,1.65-1.2,2.92l-1.39,10.65
			H399.66z"/>
		<path fill="#F2F2F2" d="M421.55,160.36l0.1-1.55c0.41-0.07,0.85-0.14,1.31-0.21c0.46-0.07,0.89-0.15,1.29-0.26
			c0.4-0.1,0.72-0.23,0.98-0.39c0.25-0.16,0.38-0.34,0.38-0.54c0-0.17-0.01-0.36-0.02-0.57c-0.02-0.21-0.06-0.53-0.12-0.98
			l-1.05-6.36c-0.1-0.45-0.4-0.78-0.91-1.01c-0.51-0.22-1.04-0.34-1.58-0.34h-6.36c-1.12,0-1.85,0.45-2.2,1.34l-2.2,5.35
			c-0.06,0.21-0.14,0.45-0.22,0.75c-0.08,0.29-0.12,0.61-0.12,0.95c0,1.34,1.16,2.01,3.49,2.01l-0.19,1.81h-9.66l0.29-1.81
			c0.83-0.07,1.55-0.41,2.17-1.03c0.62-0.62,1.22-1.51,1.79-2.68l14.25-29.51l1.19,0.62l6.17,30.65c0.13,0.86,0.43,1.39,0.91,1.6
			c0.48,0.21,1.23,0.4,2.25,0.57l-0.14,1.6H421.55z M421.36,132.61l-5.16,10.85c-0.25,0.45-0.44,0.83-0.55,1.14
			c-0.11,0.31-0.17,0.57-0.17,0.78c0,0.41,0.49,0.62,1.48,0.62h5.4c0.92,0,1.39-0.24,1.39-0.72c0-0.17-0.02-0.39-0.07-0.65
			s-0.1-0.58-0.17-0.96L421.36,132.61z"/>
	</g>
</g>
</svg>
