<?xml version="1.0" encoding="utf-8"?>
<!-- Generator: Adobe Illustrator 28.2.0, SVG Export Plug-In . SVG Version: 6.00 Build 0)  -->
<svg version="1.1" xmlns="http://www.w3.org/2000/svg" xmlns:xlink="http://www.w3.org/1999/xlink" x="0px" y="0px"
	 viewBox="0 0 1125 2436" enable-background="new 0 0 1125 2436" xml:space="preserve">
<g id="Layer_1">
	<g>
		<rect fill="#E4D2BC" width="1125" height="1355"/>
	</g>
	<rect x="203" y="509" opacity="0.36" fill="#EE9C9B" width="922" height="1714"/>
</g>
<g id="Layer_2">
	<g>
		<rect y="245" fill="#FFFFFF" width="1125" height="181"/>
		<g>
			<path fill="#4D4E4E" d="M334.87,350.82c0,0.22-0.05,1.56-0.14,4.02c-0.1,2.46-0.14,4.81-0.14,7.05v2.71
				c-4.66-0.33-13.89-0.49-27.69-0.49c-1.67,0-3.31,0-4.92,0c-1.62,0-2.71,0-3.28,0h-0.71c-0.9,0-1.36-0.22-1.36-0.66
				c0-0.29,0.14-0.46,0.43-0.51c0.14,0,1.05-0.07,2.71-0.22c1.24-0.11,1.99-0.41,2.25-0.9c0.26-0.49,0.39-1.78,0.39-3.87v-46.24
				c0-1.59-0.2-2.54-0.61-2.84c-0.4-0.3-1.7-0.45-3.89-0.45c-0.76,0-1.14-0.23-1.14-0.7c0-0.46,0.52-0.7,1.57-0.7h12.2
				c0.43,0,3.12,0,8.06,0c4.95,0,8.28,0,9.99,0c1.43,0,2.73-0.11,3.92-0.33c0.09,2.35,0.31,5.61,0.64,9.76l0.29,3.53
				c0.05,0.27,0.07,0.63,0.07,1.07c0,0.55-0.21,0.82-0.64,0.82c-0.52,0-0.9-0.69-1.14-2.06c-0.9-4.95-2.38-8.09-4.42-9.41
				c-1.52-0.99-5.52-1.49-11.99-1.49h-5.85v24.11h1.71c5.33,0,8.57-0.46,9.74-1.39c1.17-0.93,1.96-3.64,2.39-8.12
				c0.09-1.15,0.36-1.72,0.79-1.72c0.52,0,0.78,0.49,0.78,1.48s-0.05,2.43-0.14,4.35c-0.1,1.91-0.14,3.36-0.14,4.35
				c0,5.85,0.08,9.87,0.23,12.06c0.04,0.55,0.06,1.01,0.06,1.39c0,0.71-0.26,1.07-0.78,1.07c-0.33,0-0.56-0.23-0.67-0.7
				c-0.12-0.46-0.32-1.98-0.6-4.55c-0.38-3.23-1.54-5.22-3.48-5.99c-0.85-0.33-3.08-0.49-6.68-0.49h-3.2v27.48
				c10.46,0,16.6-0.24,18.41-0.73c3.14-0.81,4.92-4.27,5.35-10.37c0.09-1.35,0.4-2.02,0.93-2.02
				C334.64,349.1,334.87,349.67,334.87,350.82z"/>
			<path fill="#4D4E4E" d="M368.47,363.51c0,0.34-0.47,0.52-1.4,0.52c-1.13,0-2.29,0-3.47,0c-1.18,0-2.34,0-3.47,0
				c-1.47,0-3.16,0-5.09,0c-0.97,0-1.68,0-2.15,0c-0.97,0-1.45-0.18-1.45-0.54c0-0.33,0.38-0.48,1.15-0.44h2.25
				c0.8,0.04,1.28,0.02,1.45-0.06c0.5-0.12,0.75-0.48,0.75-1.1c0-0.58-0.43-1.83-1.29-3.76l-5.32-12.42l-6.28,12.22
				c-1.09,2.2-1.64,3.49-1.64,3.88c0,0.71,0.55,1.12,1.65,1.24c-0.07,0,0.68,0,2.25,0c0.6,0,0.9,0.17,0.9,0.51
				c0,0.31-0.25,0.46-0.75,0.46h-5.64h-4.25c-0.53,0-0.8-0.17-0.8-0.52c0-0.34,0.43-0.58,1.3-0.69c0.6-0.08,1.2-0.15,1.8-0.23
				c0.5-0.15,0.92-0.4,1.25-0.75c0.63-0.65,2.68-4.4,6.14-11.26c1.27-2.53,2.41-4.73,3.41-6.6l-5.66-12.3
				c-1.17-2.52-1.99-4.15-2.44-4.89c-0.45-0.74-0.93-1.23-1.43-1.46c-0.54-0.11-1.59-0.17-3.17-0.17c-0.4,0-0.6-0.15-0.6-0.46
				c0-0.42,0.27-0.63,0.8-0.63c0.73,0,2.25,0.04,4.55,0.12c1.13,0.04,1.91,0.06,2.35,0.06c3.9,0,6.04-0.06,6.44-0.17h0.7
				c0.7,0,1.05,0.15,1.05,0.46c0,0.42-0.59,0.63-1.76,0.63c-2.19-0.04-3.28,0.27-3.28,0.92c0,0.69,1.88,5.19,5.65,13.48
				c1.36-2.3,2.84-5.04,4.46-8.21c1.62-3.17,2.43-4.95,2.43-5.33c0-0.58-0.92-0.86-2.75-0.86c-0.9,0-1.35-0.17-1.35-0.52
				c0-0.38,0.32-0.58,0.95-0.58c0.43,0,1.07,0.03,1.9,0.09c0.83,0.06,1.46,0.09,1.9,0.09c0.17,0,0.94-0.03,2.32-0.09
				c1.38-0.06,2.19-0.09,2.42-0.09h0.45c0.57,0,0.85,0.16,0.85,0.49c0,0.33-0.22,0.49-0.65,0.49c-0.07,0-0.6,0.02-1.6,0.06
				c-1.13,0.04-1.91,0.27-2.32,0.69c-0.42,0.42-1.12,1.65-2.12,3.69c-1.3,2.69-3.2,6.24-5.69,10.66l-0.55,0.98
				c0.23,0.5,2.48,5.53,6.74,15.1c1.46,3.29,2.51,5.25,3.15,5.88c0.63,0.63,1.88,0.93,3.75,0.89
				C368.05,362.99,368.47,363.16,368.47,363.51z"/>
			<path fill="#4D4E4E" d="M392.39,333.71c0,3.71-1.38,6.6-4.15,8.67c-1.73,1.3-3.93,1.95-6.59,1.95c-1.13,0-2.42-0.13-3.85-0.4
				v16.31c0,0.88,0.03,1.44,0.1,1.67c0.17,0.54,0.53,0.86,1.1,0.98c0.97,0.15,1.9,0.23,2.8,0.23c0.37,0,0.55,0.13,0.55,0.4
				c0,0.38-0.23,0.57-0.7,0.57c-0.2,0-0.37,0-0.5,0c-1.83,0-5.28,0-10.34,0h-0.65c-1,0-1.5-0.19-1.5-0.58c0-0.27,0.35-0.4,1.05-0.4
				c1.56,0,2.46-0.17,2.7-0.52c0.27-0.15,0.42-0.54,0.45-1.15v-33.92c0-1.19-0.28-1.92-0.85-2.19c-0.33-0.15-0.92-0.23-1.75-0.23
				h-0.5c-0.1,0-0.22,0-0.35,0c-0.5,0-0.75-0.15-0.75-0.46c0-0.34,0.47-0.51,1.4-0.51h10.99c3.8,0,6.58,0.77,8.34,2.3
				C391.4,328.14,392.39,330.57,392.39,333.71z M387.15,333.77c0-5.78-2.1-8.67-6.29-8.67c-1.4,0-2.32,0.27-2.75,0.81
				c-0.2,0.23-0.3,0.83-0.3,1.79v15.37c0.27,0.04,0.57,0.06,0.9,0.06c2.2,0,4.06-0.56,5.59-1.68
				C386.2,340.06,387.15,337.5,387.15,333.77z"/>
			<path fill="#4D4E4E" d="M420.37,359.49c0,1-0.05,2.64-0.15,4.94h-0.55c-0.2,0-0.68-0.04-1.45-0.11
				c-0.76-0.08-1.63-0.11-2.59-0.11l-20.74-0.17c-0.57,0-0.85-0.17-0.85-0.52c0-0.27,0.45-0.44,1.35-0.52
				c1.27-0.08,2.02-0.24,2.27-0.49c0.25-0.25,0.38-0.97,0.38-2.15v-32.27c0-1.42-0.12-2.24-0.38-2.47
				c-0.25-0.23-1.14-0.34-2.67-0.34c-0.63,0-0.95-0.21-0.95-0.63c0-0.34,0.2-0.52,0.6-0.52h0.45c1.1,0.11,3.28,0.17,6.54,0.17
				c0.3,0,0.88-0.03,1.75-0.09c0.87-0.06,1.58-0.09,2.15-0.09h0.55c0.6,0,0.9,0.19,0.9,0.57c0,0.23-0.09,0.37-0.28,0.43
				c-0.18,0.06-0.76,0.11-1.72,0.14c-0.97,0.04-1.54,0.22-1.72,0.55c-0.18,0.33-0.27,1.33-0.27,3.01v33.87
				c0.9,0.04,2.15,0.06,3.75,0.06c3.9,0,6.64-0.23,8.24-0.69c1.6-0.46,2.68-1.32,3.25-2.58s0.9-2.97,1-5.11
				c0.03-0.5,0.22-0.75,0.57-0.75c0.42,0,0.61,0.29,0.58,0.86v1.44c0,0.08,0,0.25,0,0.52c0,0.27,0,0.54,0,0.8V359.49z"/>
			<path fill="#4D4E4E" d="M454.73,344.33c0,5.7-1.49,10.53-4.47,14.47c-2.98,3.94-6.64,5.91-10.96,5.91c-4.6,0-8.46-2-11.59-6
				c-3.13-4-4.7-8.93-4.7-14.78c0-5.97,1.51-10.86,4.52-14.67c3.01-3.81,6.87-5.71,11.56-5.71c4.43,0,8.14,1.99,11.14,5.97
				C453.23,333.5,454.73,338.44,454.73,344.33z M449.14,344.62c0-7.02-1.25-12.5-3.75-16.41c-1.57-2.46-3.75-3.69-6.54-3.69
				c-2.67,0-4.73,0.94-6.19,2.82c-2.7,3.46-4.05,9.08-4.05,16.87c0,6.18,0.94,10.98,2.82,14.4c1.88,3.42,4.52,5.12,7.92,5.12
				c3.16,0,5.54-1.61,7.14-4.84C448.26,355.33,449.14,350.57,449.14,344.62z"/>
			<path fill="#4D4E4E" d="M486.5,362.3c0,1.61-1.17,2.41-3.5,2.41c-2.6,0-4.63-1.24-6.09-3.73c-0.63-1.07-1.04-2.1-1.22-3.1
				c-0.18-0.99-0.46-3.52-0.82-7.58c-0.2-2.45-0.88-4.18-2.05-5.2c-1.17-1.01-3.06-1.56-5.69-1.64v18.09c0,0.77,0.53,1.24,1.6,1.44
				c0.3,0.04,1.07,0.08,2.3,0.12c0.43,0,0.65,0.15,0.65,0.46c0,0.34-0.28,0.52-0.85,0.52h-0.6c-0.3,0-1.75,0-4.35,0
				c-0.5,0-1.35,0-2.55,0c-1.17,0-1.93,0-2.3,0h-1.95c-0.73,0-1.1-0.17-1.1-0.52c0-0.27,0.48-0.42,1.45-0.46
				c1.56-0.04,2.41-0.27,2.55-0.69c0.13-0.19,0.2-0.94,0.2-2.24v-31.69c0-1.53-0.14-2.45-0.42-2.76c-0.28-0.31-1.14-0.48-2.57-0.52
				c-0.83,0-1.25-0.17-1.25-0.52c0-0.38,0.27-0.57,0.8-0.57c0.1,0,0.25,0.02,0.45,0.06l6.64,0.17c0.67,0,1.6-0.02,2.8-0.08
				c1.33-0.1,2.26-0.15,2.8-0.15c3.1,0,5.55,0.79,7.37,2.38c1.81,1.59,2.72,3.74,2.72,6.46c0,2.68-0.93,4.89-2.8,6.63
				c-1.87,1.74-4.4,2.77-7.59,3.07c-0.3,0.04-0.47,0.1-0.5,0.17c0,0.15,0.17,0.23,0.5,0.23c3.5,0.69,5.9,2.1,7.22,4.23
				c1.31,2.13,2.19,5.98,2.62,11.54c0.27,3.15,1.2,4.72,2.8,4.72c0.5,0,0.75-0.11,0.75-0.34c0-0.04-0.02-0.08-0.05-0.11
				c-0.17-0.42-0.25-0.77-0.25-1.03c0-0.8,0.37-1.21,1.1-1.21C486.1,360.87,486.5,361.35,486.5,362.3z M476.16,333.54
				c0-5.47-2.07-8.21-6.19-8.21c-1.1,0-1.85,0.17-2.25,0.52c-0.4,0.34-0.6,0.96-0.6,1.84v14.58c3.2,0.04,5.5-0.63,6.92-2.01
				C475.45,338.88,476.16,336.64,476.16,333.54z"/>
			<path fill="#4D4E4E" d="M514.27,354.78c0,0.15-0.03,1.09-0.1,2.81c-0.07,1.72-0.1,3.37-0.1,4.94v1.89
				c-3.26-0.23-9.72-0.34-19.38-0.34c-1.17,0-2.31,0-3.45,0c-1.13,0-1.9,0-2.3,0h-0.5c-0.63,0-0.95-0.15-0.95-0.46
				c0-0.21,0.1-0.33,0.3-0.36c0.1,0,0.73-0.05,1.9-0.15c0.87-0.08,1.39-0.29,1.57-0.63c0.18-0.35,0.27-1.25,0.27-2.71V327.4
				c0-1.11-0.14-1.78-0.42-1.99c-0.28-0.21-1.19-0.32-2.72-0.32c-0.53,0-0.8-0.16-0.8-0.49c0-0.32,0.37-0.49,1.1-0.49h8.54
				c0.3,0,2.18,0,5.64,0c3.46,0,5.79,0,6.99,0c1,0,1.91-0.08,2.75-0.23c0.07,1.65,0.22,3.92,0.45,6.83l0.2,2.47
				c0.03,0.19,0.05,0.44,0.05,0.75c0,0.38-0.15,0.57-0.45,0.57c-0.37,0-0.63-0.48-0.8-1.44c-0.63-3.47-1.67-5.66-3.1-6.59
				c-1.07-0.69-3.86-1.04-8.39-1.04h-4.1v16.88h1.2c3.73,0,6-0.32,6.82-0.98c0.82-0.65,1.37-2.54,1.67-5.68
				c0.07-0.8,0.25-1.21,0.55-1.21c0.37,0,0.55,0.34,0.55,1.03s-0.03,1.7-0.1,3.04c-0.07,1.34-0.1,2.35-0.1,3.04
				c0,4.1,0.05,6.91,0.16,8.44c0.03,0.38,0.04,0.71,0.04,0.98c0,0.5-0.18,0.75-0.55,0.75c-0.23,0-0.39-0.16-0.47-0.49
				s-0.22-1.39-0.42-3.19c-0.27-2.26-1.08-3.65-2.44-4.19c-0.6-0.23-2.16-0.34-4.67-0.34h-2.24v19.23c7.33,0,11.62-0.17,12.89-0.51
				c2.2-0.57,3.45-2.99,3.75-7.26c0.07-0.94,0.28-1.42,0.65-1.42C514.11,353.58,514.27,353.98,514.27,354.78z"/>
		</g>
		<g>
			<path fill="#4D4E4E" d="M734.19,363.64c0,0.47-0.36,0.7-1.07,0.7c-0.48,0-0.9-0.03-1.28-0.08l-9.06-0.33l-9.06,0.33
				c-0.33,0.05-0.69,0.08-1.07,0.08c-0.95,0-1.43-0.29-1.43-0.86c0-0.63,0.64-0.95,1.93-0.95c4.19-0.05,6.28-0.54,6.28-1.45
				c0-0.05-0.05-0.27-0.15-0.64l-0.58-2.17l-0.37-1.14c-0.43-1.7-1.47-5.45-3.14-11.25h-15.25c-2.85,8.75-4.28,13.78-4.28,15.09
				c0,0.77,0.29,1.23,0.86,1.39c0.14,0.06,1.33,0.16,3.57,0.33c1.38,0.06,2.07,0.33,2.07,0.82c0,0.55-0.62,0.82-1.86,0.82
				c-2.19,0-4.73-0.11-7.63-0.33c-0.71-0.05-1.45-0.08-2.21-0.08s-1.5,0.09-2.21,0.27c-0.38,0.09-0.69,0.14-0.93,0.14
				c-0.67,0-1-0.25-1-0.74c0-0.49,0.75-0.77,2.25-0.82c1.5-0.05,2.58-0.32,3.25-0.78c0.67-0.47,1.19-1.36,1.57-2.67
				c6.12-20.19,11.1-36.4,14.94-48.64c0.11-0.65,0.33-1.37,0.66-2.18l0.31-1.5c0.14-0.6,0.33-0.9,0.57-0.9
				c0.14,0,0.26,0.16,0.36,0.49c0.62,2.13,2.02,6.59,4.21,13.37c1.71,5.3,5.97,18.62,12.77,39.94c0.38,1.24,0.87,2.02,1.46,2.36
				c0.59,0.34,1.82,0.53,3.68,0.59C733.57,362.92,734.19,363.18,734.19,363.64z M714.78,344c-0.77-2.46-2.05-6.52-3.84-12.2
				l-3.43-11.37c-1.99,6.04-4.38,13.9-7.17,23.57H714.78z"/>
			<path fill="#4D4E4E" d="M757.2,353.73c0,3.9-1.55,6.79-4.65,8.67c-1.5,0.92-3.65,1.49-6.44,1.72c-0.77,0.04-3.03,0.06-6.79,0.06
				h-6.09c-0.57,0-0.85-0.16-0.85-0.49s0.52-0.49,1.55-0.49c1.2,0,1.91-0.14,2.12-0.43c0.22-0.29,0.32-1.16,0.32-2.61V329.1
				c0-1.68-0.07-2.66-0.2-2.93c-0.23-0.46-1.08-0.71-2.55-0.75c-0.9,0-1.35-0.2-1.35-0.6c0-0.36,0.42-0.54,1.25-0.54
				c0.03,0,0.23,0,0.6,0c0.37,0.11,0.7,0.17,1,0.17h9.74c3.6,0.04,6.28,0.73,8.04,2.07c2.06,1.57,3.1,3.85,3.1,6.83
				c0,2.6-0.85,4.74-2.55,6.4s-4.08,2.71-7.14,3.13v0.34c3.03,0.23,5.39,0.96,7.09,2.18C755.94,347.24,757.2,350.02,757.2,353.73z
				 M750.51,333.92c0-3.67-0.73-6.12-2.2-7.35c-0.77-0.65-2.21-0.98-4.35-0.98c-0.57,0-1.45,0.06-2.65,0.17v16.65h0.45l2.75-0.12
				c1.9-0.08,3.37-0.85,4.42-2.33C749.98,338.51,750.51,336.49,750.51,333.92z M751.96,353.1c0-4.82-1.7-7.81-5.1-8.96
				c-1-0.34-2.85-0.52-5.54-0.52v17.11c0,1.11,0.1,1.74,0.3,1.89c0.33,0.27,1.26,0.4,2.8,0.4c2.3,0,4.13-0.84,5.5-2.53
				C751.27,358.82,751.96,356.35,751.96,353.1z"/>
			<path fill="#4D4E4E" d="M793.37,344.49c0,5.7-1.49,10.53-4.47,14.47c-2.98,3.94-6.64,5.91-10.96,5.91c-4.6,0-8.46-2-11.59-6
				c-3.13-4-4.7-8.93-4.7-14.78c0-5.97,1.51-10.86,4.52-14.67c3.01-3.81,6.87-5.71,11.56-5.71c4.43,0,8.14,1.99,11.14,5.97
				C791.87,333.65,793.37,338.59,793.37,344.49z M787.77,344.77c0-7.02-1.25-12.5-3.75-16.41c-1.57-2.46-3.75-3.69-6.54-3.69
				c-2.67,0-4.73,0.94-6.19,2.82c-2.7,3.46-4.05,9.08-4.05,16.87c0,6.18,0.94,10.98,2.82,14.4c1.88,3.42,4.52,5.12,7.92,5.12
				c3.16,0,5.54-1.61,7.14-4.84C786.89,355.48,787.77,350.73,787.77,344.77z"/>
			<path fill="#4D4E4E" d="M828.28,324.85c0,0.31-0.3,0.46-0.9,0.46c-0.1,0-0.43,0-1,0c-0.17,0-0.4,0-0.7,0
				c-0.83,0-1.33,0.25-1.5,0.75c-0.07,0.27-0.1,0.71-0.1,1.32v21.5c0,5.58-0.91,9.64-2.72,12.18c-1.82,2.54-4.74,3.81-8.77,3.81
				c-4.83,0-8.23-1.57-10.19-4.71c-1.3-2.1-1.95-5.57-1.95-10.39v-23.02c-0.1-0.69-0.51-1.11-1.21-1.26
				c-0.2-0.04-0.83-0.06-1.87-0.06c-0.57-0.08-0.86-0.27-0.86-0.57c0-0.34,0.23-0.52,0.7-0.52h0.9c0.17,0,0.55,0,1.15,0
				c0.53,0,1.02,0,1.45,0h7.14c0.17,0,0.37,0,0.6,0c0.57,0,0.85,0.21,0.85,0.63c0,0.27-0.1,0.42-0.3,0.46
				c-0.2,0.04-0.87,0.08-2,0.11c-0.47,0-0.78,0.04-0.95,0.12c-0.33,0.15-0.52,0.42-0.55,0.8c-0.03,0.15-0.05,1.24-0.05,3.26v20.49
				c0,5.04,0.7,8.47,2.1,10.3s3.48,2.75,6.24,2.75c5.06,0,7.92-3.3,8.59-9.89c0.1-0.99,0.15-5.18,0.15-12.58v-3.26v-4.57v-3.94
				c0-0.38,0-0.8,0-1.26c0-0.5,0-0.7,0-0.63c0-0.84-0.35-1.35-1.05-1.54c-0.23-0.08-0.92-0.11-2.05-0.11c-0.67,0-1-0.21-1-0.63
				c0-0.34,0.23-0.51,0.7-0.51c0.27,0,0.48,0,0.65,0c0.4,0,1.86,0,4.37,0c0.37,0,0.79,0,1.25,0c0.44,0,0.75,0,0.96,0h0.75
				C827.89,324.33,828.28,324.5,828.28,324.85z"/>
			<path fill="#4D4E4E" d="M857.25,334.55c0,0.5-0.2,0.75-0.6,0.75c-0.4,0-0.68-0.5-0.85-1.49c-0.07-0.69-0.13-1.38-0.2-2.07
				c-0.23-1.38-0.62-2.54-1.15-3.5c-0.7-1.26-1.85-2.07-3.45-2.41c-1.03-0.23-1.87-0.32-2.5-0.29c-1.57,0.05-2.51,0.09-2.85,0.11
				v34.67c0,1.38,0.32,2.24,0.95,2.59c0.33,0.19,1.27,0.31,2.8,0.35c0.4,0.04,0.6,0.2,0.6,0.49c0,0.33-0.27,0.49-0.8,0.49
				c-0.27,0-0.5-0.02-0.7-0.06c-2-0.08-3.41-0.11-4.25-0.11c-1.1,0-2.13,0.03-3.1,0.09c-0.97,0.06-2.2,0.09-3.7,0.09
				c-0.77,0-1.15-0.15-1.15-0.46c0-0.34,0.72-0.54,2.15-0.58c1.03,0,1.7-0.25,2-0.75c0.17-0.31,0.25-1.09,0.25-2.36v-34.44
				c-3.3,0.04-5.34,0.23-6.14,0.57c-2.1,0.88-3.33,3.23-3.7,7.06c-0.1,1.15-0.33,1.72-0.7,1.72c-0.4,0-0.6-0.4-0.6-1.21
				c0-0.42,0.02-0.84,0.05-1.26l0.1-1.32c0.1-1.76,0.25-4.08,0.45-6.95h2.25l10.19,0.17c1.2,0.04,3.06,0.04,5.59,0l8.29-0.17
				c0.07,2.14,0.28,5.32,0.65,9.53c0,0.11,0.02,0.26,0.05,0.43S857.25,334.52,857.25,334.55z"/>
		</g>
	</g>
	<rect x="366" y="1198" fill="#FFFFFF" width="719" height="499"/>
	<g>
		<g opacity="0.18">
			<path fill="#666667" d="M88.31,838.65l0.5-8.11c13.17,0,20.43-4.88,21.77-14.63l17.01-132.2c0-10.83-6.59-16.25-19.76-16.25
				l1-8.11h65.04l-1,8.11c-13.68,0-21.43,6.86-23.27,20.59l-17.01,127.87c0,0.36-0.04,0.68-0.12,0.95
				c-0.09,0.27-0.12,0.59-0.12,0.95c0,6.32,4.5,9.48,13.51,9.48h10.26c6.84,0,12.76-0.31,17.76-0.95c5-0.63,9.59-2.39,13.76-5.27
				c4.17-2.88,8.04-7.39,11.63-13.52c3.58-6.13,7.46-14.69,11.63-25.69l6,1.08l-14.01,55.71H88.31z"/>
			<path fill="#666667" d="M215.44,838.65l0.7-5.68c9.81,0,15.35-4.36,16.64-13.08l11.38-88.18c0-4.3-1.17-7.52-3.5-9.67
				c-2.34-2.15-5.72-3.22-10.16-3.22l0.7-5.68h45.53l-0.7,5.68c-9.69,0-15.24,5.56-16.64,16.69l-11.21,84.39
				c-0.12,0.38-0.18,0.79-0.18,1.23c0,0.44,0,0.85,0,1.23c0,7.08,4.55,10.62,13.66,10.62l-0.53,5.68H215.44z"/>
			<path fill="#666667" d="M364.99,840.73l-55.86-106.58l-9.81,76.29c-0.35,2.53-0.53,4.67-0.53,6.44
				c0,10.73,4.61,16.09,13.83,16.09l-0.53,5.68h-38l0.7-5.68c8.87,0,14.3-7.52,16.29-22.57l10.86-83.63c0-2.65-1.08-4.64-3.24-5.97
				c-2.16-1.33-5.98-1.99-11.47-1.99l0.88-5.68h28.72l49.38,94.47l8.93-67.92c0.35-2.02,0.52-3.98,0.52-5.88
				c0-9.99-4.61-14.99-13.83-14.99l0.7-5.68h37.83l-0.88,5.68c-9.69,0-15.41,6.95-17.16,20.86L369.2,839.4L364.99,840.73z"/>
			<path fill="#666667" d="M394.41,838.65l0.7-5.68c4.2,0,7.73-1.04,10.59-3.13c2.86-2.08,4.58-5.15,5.17-9.2l11.56-89.31
				c0-8.34-4.55-12.52-13.66-12.52l0.7-5.68h82.83l-3.5,35.4l-4.9,0.76c-0.12-6.94-0.88-12.31-2.28-16.09s-3.36-6.56-5.87-8.33
				c-2.51-1.77-5.49-2.81-8.93-3.12c-3.44-0.31-7.15-0.47-11.12-0.47h-4.2c-4.44,0-7.65,0.7-9.63,2.08
				c-1.99,1.39-3.15,3.53-3.5,6.44l-4.55,33.89c0,0.25-0.03,0.51-0.09,0.76c-0.06,0.25-0.09,0.51-0.09,0.76
				c0,2.78,1.05,4.16,3.15,4.16h5.43c2.68,0,5.17-0.16,7.44-0.47c2.28-0.31,4.38-1.14,6.3-2.46s3.62-3.34,5.08-6.06
				c1.46-2.71,2.65-6.4,3.59-11.07h5.95l-6.48,49.03h-5.78v-4.54c0-3.53-0.32-6.37-0.96-8.52c-0.64-2.14-1.66-3.79-3.06-4.92
				c-1.4-1.14-3.18-1.89-5.34-2.27c-2.16-0.38-4.76-0.57-7.79-0.57h-1.75c-5.02,0-7.77,2.08-8.23,6.25l-4.73,36.16
				c-0.12,0.51-0.18,1.14-0.18,1.89c0,5.93,3.85,8.9,11.56,8.9h4.73c6.65,0,12.08-0.6,16.29-1.8c4.2-1.2,7.73-3.09,10.59-5.68
				c2.86-2.59,5.28-5.84,7.27-9.75c1.98-3.91,4.14-8.52,6.48-13.82l4.03,1.51l-8.93,37.48H394.41z"/>
			<path fill="#666667" d="M508.24,838.65l0.53-5.68c5.14,0,9.37-1.45,12.7-4.35c3.33-2.9,5.4-7.26,6.22-13.06l11.73-87.27
				c0-2.4-0.47-4.16-1.4-5.3c-0.94-1.14-2.8-1.7-5.6-1.7c-13.66,0-23.88,10.79-30.65,32.37l-4.55-1.51l9.46-40.32
				c2.33,0.38,4.58,0.69,6.74,0.95c2.16,0.25,4.23,0.38,6.22,0.38h60.59c2.22,0,4.52-0.12,6.92-0.38c2.39-0.25,4.82-0.57,7.27-0.95
				l-5.25,39.57l-4.55,0.76c0.11-0.88,0.17-1.73,0.17-2.56c0-0.82,0-1.61,0-2.37c0-16.91-7.12-25.37-21.36-25.37
				c-5.14,0-8,2.15-8.58,6.44l-11.38,87.27c-0.12,0.63-0.21,1.26-0.26,1.89c-0.06,0.63-0.09,1.26-0.09,1.89
				c0,9.09,4.96,13.63,14.89,13.63l-0.53,5.68H508.24z"/>
			<path fill="#666667" d="M632.04,838.65l0.35-5.68c1.52-0.25,3.12-0.5,4.81-0.76c1.69-0.25,3.27-0.57,4.73-0.95
				c1.46-0.38,2.65-0.85,3.59-1.42c0.93-0.57,1.4-1.23,1.4-1.99c0-0.63-0.03-1.33-0.09-2.08c-0.06-0.76-0.21-1.96-0.44-3.6
				l-3.85-23.29c-0.35-1.64-1.46-2.87-3.33-3.69c-1.87-0.82-3.79-1.23-5.78-1.23h-23.29c-4.09,0-6.77,1.63-8.06,4.9l-8.05,19.59
				c-0.24,0.75-0.5,1.67-0.79,2.73s-0.44,2.23-0.44,3.48c0,4.9,4.26,7.35,12.79,7.35l-0.7,6.63h-35.37l1.05-6.63
				c3.03-0.25,5.69-1.51,7.97-3.78c2.28-2.27,4.46-5.54,6.57-9.83l52.19-108.12l4.38,2.27l22.59,112.28
				c0.46,3.15,1.58,5.11,3.33,5.86c1.75,0.76,4.49,1.45,8.23,2.08l-0.53,5.87H632.04z M631.35,736.99l-18.91,39.76
				c-0.94,1.64-1.61,3.03-2.01,4.17c-0.41,1.14-0.61,2.08-0.61,2.84c0,1.51,1.81,2.27,5.43,2.27h19.79c3.38,0,5.08-0.88,5.08-2.65
				c0-0.63-0.09-1.42-0.26-2.37c-0.17-0.95-0.38-2.11-0.61-3.5L631.35,736.99z"/>
			<path fill="#666667" d="M53.26,1110.87l-0.25-6.22l105.32-159.56c-3.17-0.72-6.34-1.22-9.51-1.49c-3.17-0.27-6.25-0.41-9.26-0.41
				h-10.26c-7.5,0-13.76,0.72-18.76,2.16c-5,1.45-9.3,3.74-12.88,6.9c-3.59,3.16-6.72,7.3-9.38,12.44
				c-2.67,5.14-5.34,11.32-8.01,18.53h-6.75l11.26-53.55c2.83,0.54,5.63,0.99,8.38,1.35c2.75,0.36,5.54,0.54,8.38,0.54h85.81
				l-1,8.38L82.03,1098.43c2.5,0.72,5,1.22,7.5,1.49c2.5,0.27,4.84,0.41,7,0.41h17.26c7.67,0,14.47-1.71,20.39-5.14
				c5.92-3.42,11.09-7.57,15.51-12.44c4.42-4.87,8.09-9.91,11.01-15.14c2.92-5.23,5.29-9.74,7.13-13.52l6.75,2.16l-13.01,54.63
				H53.26z"/>
			<path fill="#666667" d="M177.89,1110.87l0.7-5.68c9.81,0,15.35-4.36,16.64-13.08l11.38-88.18c0-4.3-1.17-7.52-3.5-9.67
				c-2.34-2.15-5.72-3.22-10.16-3.22l0.7-5.68h45.53l-0.7,5.68c-9.69,0-15.24,5.56-16.64,16.69l-11.21,84.39
				c-0.12,0.38-0.18,0.79-0.18,1.23c0,0.44,0,0.85,0,1.23c0,7.08,4.55,10.62,13.66,10.62l-0.53,5.68H177.89z"/>
			<path fill="#666667" d="M310.11,1043.85c7.47,1.39,13.42,4.29,17.86,8.71c4.44,4.42,6.65,10.22,6.65,17.42
				c0,7.83-1.23,14.39-3.68,19.69c-2.45,5.3-5.69,9.56-9.72,12.78c-4.03,3.22-8.55,5.56-13.57,7c-5.02,1.45-10.1,2.18-15.24,2.18
				c-4.44,0-8.73-0.03-12.87-0.09c-4.15-0.06-8.38-0.16-12.7-0.28c-4.32-0.13-8.73-0.22-13.22-0.28c-4.5-0.06-9.31-0.09-14.45-0.09
				l0.7-5.68c9.81,0,15.24-3.53,16.29-10.6l11.91-92.57c0-7.19-4.61-10.79-13.83-10.79l0.7-5.87h45.53c5.02,0,9.72,0.44,14.1,1.33
				c4.38,0.88,8.14,2.34,11.3,4.35c3.15,2.02,5.63,4.58,7.44,7.67c1.81,3.09,2.71,6.91,2.71,11.45c0,4.92-0.67,9.18-2.01,12.78
				c-1.34,3.6-3.21,6.69-5.6,9.28c-2.39,2.59-5.14,4.73-8.23,6.44c-3.09,1.7-6.39,3.19-9.89,4.45L310.11,1043.85z M288.57,1104.43
				c3.85,0,7.53-0.6,11.03-1.8c3.5-1.2,6.59-3.15,9.28-5.87c2.68-2.71,4.84-6.25,6.48-10.6c1.63-4.35,2.45-9.62,2.45-15.81
				c0-4.42-0.7-8.01-2.1-10.79c-1.4-2.77-3.39-4.95-5.95-6.53c-2.57-1.58-5.72-2.65-9.46-3.22c-3.74-0.57-7.88-0.85-12.43-0.85h-5.6
				c-3.04,0-4.9,2.4-5.6,7.19l-5.25,40.89c0,0.25-0.03,0.41-0.09,0.47c-0.06,0.07-0.09,0.22-0.09,0.47c0,4.29,3.5,6.44,10.51,6.44
				H288.57z M296.1,992.74c-7.24,0-11.21,2.34-11.91,7l-4.9,36.54c0,1.77,0.26,3.09,0.79,3.98c0.52,0.88,1.6,1.33,3.24,1.33
				c7.59,0,13.77-0.57,18.56-1.7c4.79-1.14,8.55-2.93,11.29-5.4c2.74-2.46,4.61-5.65,5.6-9.56c0.99-3.91,1.49-8.64,1.49-14.2
				c0-11.99-5.95-17.98-17.86-17.98H296.1z"/>
			<path fill="#666667" d="M346,1110.87l0.7-5.68c4.2,0,7.73-1.04,10.59-3.13c2.86-2.08,4.58-5.15,5.17-9.2l11.56-89.31
				c0-8.34-4.55-12.52-13.66-12.52l0.7-5.68h82.83l-3.5,35.4l-4.9,0.76c-0.12-6.94-0.88-12.31-2.28-16.09s-3.36-6.56-5.87-8.33
				c-2.51-1.77-5.49-2.81-8.93-3.12c-3.44-0.31-7.15-0.47-11.12-0.47h-4.2c-4.44,0-7.65,0.7-9.63,2.08
				c-1.99,1.39-3.15,3.53-3.5,6.44l-4.55,33.89c0,0.25-0.03,0.51-0.09,0.76c-0.06,0.25-0.09,0.51-0.09,0.76
				c0,2.78,1.05,4.16,3.15,4.16h5.43c2.68,0,5.17-0.16,7.44-0.47c2.28-0.31,4.38-1.14,6.3-2.46s3.62-3.34,5.08-6.06
				c1.46-2.71,2.65-6.4,3.59-11.07h5.95l-6.48,49.03h-5.78V1066c0-3.53-0.32-6.37-0.96-8.52c-0.64-2.14-1.66-3.79-3.06-4.92
				c-1.4-1.14-3.18-1.89-5.34-2.27c-2.16-0.38-4.76-0.57-7.79-0.57h-1.75c-5.02,0-7.77,2.08-8.23,6.25l-4.73,36.16
				c-0.12,0.51-0.18,1.14-0.18,1.89c0,5.93,3.85,8.9,11.56,8.9h4.73c6.65,0,12.08-0.6,16.29-1.8c4.2-1.2,7.73-3.09,10.59-5.68
				c2.86-2.59,5.28-5.84,7.27-9.75c1.98-3.91,4.14-8.52,6.48-13.82l4.03,1.51l-8.93,37.48H346z"/>
			<path fill="#666667" d="M547.74,1094.4c-0.12,1.51-0.61,3.35-1.49,5.49c-0.88,2.15-2.01,4.16-3.41,6.06
				c-1.4,1.89-3.06,3.53-4.99,4.92s-4,2.08-6.22,2.08c-6.3,0-10.83-1.3-13.57-3.88c-2.74-2.59-4.53-6.78-5.34-12.59
				c-0.7-4.79-1.29-9.94-1.75-15.43c-0.47-5.49-1.26-10.54-2.36-15.15c-1.11-4.61-2.71-8.45-4.82-11.55
				c-2.1-3.09-5.02-4.64-8.76-4.64h-4.9c-2.92,0-4.61,0.69-5.08,2.08l-5.6,41.08c-0.12,0.51-0.18,1.2-0.18,2.08
				c0,6.82,4.38,10.22,13.13,10.22l-0.53,5.68h-44.31l0.7-5.68c3.85,0,7.18-1.04,9.98-3.12c2.8-2.08,4.49-5.14,5.08-9.18
				l12.08-91.82c0-6.56-4.5-9.84-13.48-9.84l0.7-5.87h19.61c3.5,0,6.48-0.03,8.93-0.09c2.45-0.06,4.82-0.16,7.09-0.28
				c2.28-0.12,4.67-0.22,7.18-0.28c2.51-0.06,5.63-0.09,9.37-0.09c4.2,0,8.06,0.66,11.56,1.99s6.54,3.19,9.11,5.58
				c2.57,2.4,4.55,5.24,5.95,8.52c1.4,3.28,2.1,6.82,2.1,10.6c0,5.05-0.85,9.53-2.54,13.44c-1.69,3.91-3.97,7.35-6.83,10.32
				c-2.86,2.97-6.25,5.4-10.16,7.29c-3.91,1.89-8.09,3.41-12.52,4.54v0.57c4.9,2.9,8.67,6.53,11.29,10.89
				c2.63,4.35,4.23,8.55,4.82,12.59c0.35,2.53,0.7,5.56,1.05,9.09c0.35,3.54,0.9,6.88,1.66,10.03c0.76,3.16,1.72,5.84,2.89,8.05
				c1.17,2.21,2.74,3.31,4.73,3.31c2.33,0,4.49-2.84,6.48-8.52L547.74,1094.4z M498.18,1042.33c3.15,0,6.39-0.31,9.72-0.95
				c3.33-0.63,6.39-2.02,9.19-4.17c2.8-2.14,5.08-5.17,6.83-9.09c1.75-3.91,2.63-9.21,2.63-15.9c0-3.79-0.61-6.94-1.84-9.47
				c-1.23-2.52-2.8-4.54-4.73-6.06c-1.93-1.51-4.12-2.56-6.57-3.12s-4.85-0.85-7.18-0.85h-7.53c-2.57,0-4.32,0.88-5.25,2.65
				c-0.94,1.77-1.64,4.42-2.1,7.95l-4.55,36.16c0,1.89,0.99,2.84,2.98,2.84H498.18z"/>
			<path fill="#666667" d="M639.67,1112.95c-2.1-2.14-4-4.04-5.69-5.68c-1.69-1.64-3.12-3.09-4.29-4.35
				c-4.09,3.28-8.73,5.9-13.92,7.86c-5.2,1.96-10.42,2.93-15.67,2.93c-6.42,0-12.2-1.3-17.34-3.88c-5.14-2.59-9.52-6.21-13.13-10.89
				c-3.62-4.67-6.39-10.13-8.32-16.38c-1.93-6.25-2.89-13.09-2.89-20.54c0-9.59,1.58-19.15,4.73-28.68
				c3.15-9.53,7.5-18.05,13.05-25.56c5.54-7.51,12-13.6,19.35-18.27c7.35-4.67,15.23-7,23.64-7c4.44,0,8.61,0.95,12.52,2.84
				c3.91,1.89,7.67,4.1,11.29,6.63c4.2-4.54,8.35-7.19,12.43-7.95c1.05,4.92,1.57,10.79,1.57,17.61c0,3.66-0.17,7.64-0.52,11.93
				c-0.35,4.29-0.82,8.84-1.4,13.63h-5.43c-0.35-5.55-1.26-10.6-2.71-15.14c-1.46-4.54-3.45-8.45-5.95-11.74
				c-2.51-3.28-5.52-5.84-9.02-7.67c-3.5-1.83-7.53-2.74-12.08-2.74c-7.35,0-13.75,2.21-19.17,6.63
				c-5.43,4.42-9.93,10.13-13.48,17.13c-3.56,7-6.25,14.8-8.06,23.38c-1.81,8.58-2.71,17.1-2.71,25.56c0,6.19,0.55,11.93,1.66,17.23
				s2.83,9.88,5.17,13.73c2.33,3.85,5.25,6.88,8.76,9.09c3.5,2.21,7.71,3.31,12.61,3.31c3.62,0,7.15-0.57,10.59-1.7
				s6.51-2.96,9.2-5.49c2.68-2.52,4.87-5.8,6.57-9.84c1.69-4.04,2.54-8.9,2.54-14.58c0-9.84-4.61-14.77-13.83-14.77l0.7-5.68h45.18
				l-0.88,5.68c-5.25,0-9.05,1.23-11.38,3.69c-2.34,2.46-3.79,6.03-4.38,10.7l-5.08,39H639.67z"/>
			<path fill="#666667" d="M719.88,1110.87l0.35-5.68c1.52-0.25,3.12-0.5,4.82-0.76c1.69-0.25,3.27-0.57,4.73-0.95
				c1.46-0.38,2.65-0.85,3.59-1.42c0.93-0.57,1.4-1.23,1.4-1.99c0-0.63-0.03-1.33-0.09-2.08c-0.06-0.76-0.21-1.96-0.44-3.6
				l-3.85-23.29c-0.35-1.64-1.46-2.87-3.33-3.69c-1.87-0.82-3.79-1.23-5.78-1.23h-23.29c-4.09,0-6.77,1.63-8.06,4.9l-8.06,19.59
				c-0.24,0.75-0.5,1.67-0.79,2.73c-0.29,1.07-0.44,2.23-0.44,3.48c0,4.9,4.26,7.35,12.78,7.35l-0.7,6.63h-35.37l1.05-6.63
				c3.04-0.25,5.69-1.51,7.97-3.78c2.28-2.27,4.47-5.54,6.57-9.83l52.19-108.12l4.38,2.27l22.59,112.28
				c0.46,3.15,1.58,5.11,3.33,5.86c1.75,0.76,4.49,1.45,8.23,2.08l-0.53,5.87H719.88z M719.18,1009.21l-18.91,39.76
				c-0.94,1.64-1.61,3.03-2.01,4.17c-0.41,1.14-0.61,2.08-0.61,2.84c0,1.51,1.81,2.27,5.43,2.27h19.79c3.38,0,5.08-0.88,5.08-2.65
				c0-0.63-0.09-1.42-0.26-2.37c-0.17-0.95-0.38-2.11-0.61-3.5L719.18,1009.21z"/>
		</g>
		<g>
			<path fill="#F2F2F2" d="M101.66,838.65l0.5-8.11c13.17,0,20.43-4.88,21.77-14.63l17.01-132.2c0-10.83-6.59-16.25-19.76-16.25
				l1-8.11h65.04l-1,8.11c-13.68,0-21.43,6.86-23.27,20.59l-17.01,127.87c0,0.36-0.04,0.68-0.12,0.95
				c-0.09,0.27-0.12,0.59-0.12,0.95c0,6.32,4.5,9.48,13.51,9.48h10.26c6.84,0,12.76-0.31,17.76-0.95c5-0.63,9.59-2.39,13.76-5.27
				c4.17-2.88,8.04-7.39,11.63-13.52c3.58-6.13,7.46-14.69,11.63-25.69l6,1.08l-14.01,55.71H101.66z"/>
			<path fill="#F2F2F2" d="M228.79,838.65l0.7-5.68c9.81,0,15.35-4.36,16.64-13.08l11.38-88.18c0-4.3-1.17-7.52-3.5-9.67
				c-2.34-2.15-5.72-3.22-10.16-3.22l0.7-5.68h45.53l-0.7,5.68c-9.69,0-15.24,5.56-16.64,16.69l-11.21,84.39
				c-0.12,0.38-0.18,0.79-0.18,1.23c0,0.44,0,0.85,0,1.23c0,7.08,4.55,10.62,13.66,10.62l-0.53,5.68H228.79z"/>
			<path fill="#F2F2F2" d="M378.34,840.73l-55.86-106.58l-9.81,76.29c-0.35,2.53-0.53,4.67-0.53,6.44
				c0,10.73,4.61,16.09,13.83,16.09l-0.53,5.68h-38l0.7-5.68c8.87,0,14.3-7.52,16.29-22.57l10.86-83.63c0-2.65-1.08-4.64-3.24-5.97
				c-2.16-1.33-5.98-1.99-11.47-1.99l0.88-5.68h28.72l49.38,94.47l8.93-67.92c0.35-2.02,0.52-3.98,0.52-5.88
				c0-9.99-4.61-14.99-13.83-14.99l0.7-5.68h37.83l-0.88,5.68c-9.69,0-15.41,6.95-17.16,20.86l-13.13,99.73L378.34,840.73z"/>
			<path fill="#F2F2F2" d="M407.76,838.65l0.7-5.68c4.2,0,7.73-1.04,10.59-3.13c2.86-2.08,4.58-5.15,5.17-9.2l11.56-89.31
				c0-8.34-4.55-12.52-13.66-12.52l0.7-5.68h82.83l-3.5,35.4l-4.9,0.76c-0.12-6.94-0.88-12.31-2.28-16.09s-3.36-6.56-5.87-8.33
				c-2.51-1.77-5.49-2.81-8.93-3.12c-3.44-0.31-7.15-0.47-11.12-0.47h-4.2c-4.44,0-7.65,0.7-9.63,2.08
				c-1.99,1.39-3.15,3.53-3.5,6.44l-4.55,33.89c0,0.25-0.03,0.51-0.09,0.76c-0.06,0.25-0.09,0.51-0.09,0.76
				c0,2.78,1.05,4.16,3.15,4.16h5.43c2.68,0,5.17-0.16,7.44-0.47c2.28-0.31,4.38-1.14,6.3-2.46s3.62-3.34,5.08-6.06
				c1.46-2.71,2.65-6.4,3.59-11.07h5.95l-6.48,49.03h-5.78v-4.54c0-3.53-0.32-6.37-0.96-8.52c-0.64-2.14-1.66-3.79-3.06-4.92
				c-1.4-1.14-3.18-1.89-5.34-2.27c-2.16-0.38-4.76-0.57-7.79-0.57h-1.75c-5.02,0-7.77,2.08-8.23,6.25l-4.73,36.16
				c-0.12,0.51-0.18,1.14-0.18,1.89c0,5.93,3.85,8.9,11.56,8.9h4.73c6.65,0,12.08-0.6,16.29-1.8c4.2-1.2,7.73-3.09,10.59-5.68
				c2.86-2.59,5.28-5.84,7.27-9.75c1.98-3.91,4.14-8.52,6.48-13.82l4.03,1.51l-8.93,37.48H407.76z"/>
			<path fill="#F2F2F2" d="M521.58,838.65l0.53-5.68c5.14,0,9.37-1.45,12.7-4.35c3.33-2.9,5.4-7.26,6.22-13.06l11.73-87.27
				c0-2.4-0.47-4.16-1.4-5.3c-0.94-1.14-2.8-1.7-5.6-1.7c-13.66,0-23.88,10.79-30.65,32.37l-4.55-1.51l9.46-40.32
				c2.33,0.38,4.58,0.69,6.74,0.95c2.16,0.25,4.23,0.38,6.22,0.38h60.59c2.22,0,4.52-0.12,6.92-0.38c2.39-0.25,4.82-0.57,7.27-0.95
				l-5.25,39.57l-4.55,0.76c0.11-0.88,0.17-1.73,0.17-2.56c0-0.82,0-1.61,0-2.37c0-16.91-7.12-25.37-21.36-25.37
				c-5.14,0-8,2.15-8.58,6.44l-11.38,87.27c-0.12,0.63-0.21,1.26-0.26,1.89c-0.06,0.63-0.09,1.26-0.09,1.89
				c0,9.09,4.96,13.63,14.89,13.63l-0.53,5.68H521.58z"/>
			<path fill="#F2F2F2" d="M645.39,838.65l0.35-5.68c1.52-0.25,3.12-0.5,4.82-0.76c1.69-0.25,3.27-0.57,4.73-0.95
				c1.46-0.38,2.65-0.85,3.59-1.42c0.93-0.57,1.4-1.23,1.4-1.99c0-0.63-0.03-1.33-0.09-2.08c-0.06-0.76-0.21-1.96-0.44-3.6
				l-3.85-23.29c-0.35-1.64-1.46-2.87-3.33-3.69c-1.87-0.82-3.79-1.23-5.78-1.23H623.5c-4.09,0-6.77,1.63-8.06,4.9l-8.06,19.59
				c-0.24,0.75-0.5,1.67-0.79,2.73c-0.29,1.07-0.44,2.23-0.44,3.48c0,4.9,4.26,7.35,12.78,7.35l-0.7,6.63h-35.37l1.05-6.63
				c3.04-0.25,5.69-1.51,7.97-3.78c2.28-2.27,4.47-5.54,6.57-9.83l52.19-108.12l4.38,2.27l22.59,112.28
				c0.46,3.15,1.58,5.11,3.33,5.86c1.75,0.76,4.49,1.45,8.23,2.08l-0.53,5.87H645.39z M644.69,736.99l-18.91,39.76
				c-0.94,1.64-1.61,3.03-2.01,4.17c-0.41,1.14-0.61,2.08-0.61,2.84c0,1.51,1.81,2.27,5.43,2.27h19.79c3.38,0,5.08-0.88,5.08-2.65
				c0-0.63-0.09-1.42-0.26-2.37c-0.17-0.95-0.38-2.11-0.61-3.5L644.69,736.99z"/>
			<path fill="#F2F2F2" d="M66.61,1110.87l-0.25-6.22l105.32-159.56c-3.17-0.72-6.34-1.22-9.51-1.49c-3.17-0.27-6.25-0.41-9.26-0.41
				h-10.26c-7.5,0-13.76,0.72-18.76,2.16c-5,1.45-9.3,3.74-12.88,6.9c-3.59,3.16-6.72,7.3-9.38,12.44
				c-2.67,5.14-5.34,11.32-8.01,18.53h-6.75l11.26-53.55c2.83,0.54,5.63,0.99,8.38,1.35c2.75,0.36,5.54,0.54,8.38,0.54h85.81
				l-1,8.38L95.38,1098.43c2.5,0.72,5,1.22,7.5,1.49c2.5,0.27,4.84,0.41,7,0.41h17.26c7.67,0,14.47-1.71,20.39-5.14
				c5.92-3.42,11.09-7.57,15.51-12.44c4.42-4.87,8.09-9.91,11.01-15.14c2.92-5.23,5.29-9.74,7.13-13.52l6.75,2.16l-13.01,54.63
				H66.61z"/>
			<path fill="#F2F2F2" d="M191.24,1110.87l0.7-5.68c9.81,0,15.35-4.36,16.64-13.08l11.38-88.18c0-4.3-1.17-7.52-3.5-9.67
				c-2.34-2.15-5.72-3.22-10.16-3.22l0.7-5.68h45.53l-0.7,5.68c-9.69,0-15.24,5.56-16.64,16.69l-11.21,84.39
				c-0.12,0.38-0.18,0.79-0.18,1.23c0,0.44,0,0.85,0,1.23c0,7.08,4.55,10.62,13.66,10.62l-0.53,5.68H191.24z"/>
			<path fill="#F2F2F2" d="M323.45,1043.85c7.47,1.39,13.42,4.29,17.86,8.71c4.44,4.42,6.65,10.22,6.65,17.42
				c0,7.83-1.23,14.39-3.68,19.69c-2.45,5.3-5.69,9.56-9.72,12.78c-4.03,3.22-8.55,5.56-13.57,7c-5.02,1.45-10.1,2.18-15.24,2.18
				c-4.44,0-8.73-0.03-12.87-0.09c-4.15-0.06-8.38-0.16-12.7-0.28c-4.32-0.13-8.73-0.22-13.22-0.28c-4.5-0.06-9.31-0.09-14.45-0.09
				l0.7-5.68c9.81,0,15.24-3.53,16.29-10.6l11.91-92.57c0-7.19-4.61-10.79-13.83-10.79l0.7-5.87h45.53c5.02,0,9.72,0.44,14.1,1.33
				c4.38,0.88,8.14,2.34,11.3,4.35c3.15,2.02,5.63,4.58,7.44,7.67c1.81,3.09,2.71,6.91,2.71,11.45c0,4.92-0.67,9.18-2.01,12.78
				c-1.34,3.6-3.21,6.69-5.6,9.28c-2.39,2.59-5.14,4.73-8.23,6.44c-3.09,1.7-6.39,3.19-9.89,4.45L323.45,1043.85z M301.92,1104.43
				c3.85,0,7.53-0.6,11.03-1.8c3.5-1.2,6.59-3.15,9.28-5.87c2.68-2.71,4.84-6.25,6.48-10.6c1.63-4.35,2.45-9.62,2.45-15.81
				c0-4.42-0.7-8.01-2.1-10.79c-1.4-2.77-3.39-4.95-5.95-6.53c-2.57-1.58-5.72-2.65-9.46-3.22c-3.74-0.57-7.88-0.85-12.43-0.85h-5.6
				c-3.04,0-4.9,2.4-5.6,7.19l-5.25,40.89c0,0.25-0.03,0.41-0.09,0.47c-0.06,0.07-0.09,0.22-0.09,0.47c0,4.29,3.5,6.44,10.51,6.44
				H301.92z M309.44,992.74c-7.24,0-11.21,2.34-11.91,7l-4.9,36.54c0,1.77,0.26,3.09,0.79,3.98c0.52,0.88,1.6,1.33,3.24,1.33
				c7.59,0,13.77-0.57,18.56-1.7c4.79-1.14,8.55-2.93,11.29-5.4c2.74-2.46,4.61-5.65,5.6-9.56c0.99-3.91,1.49-8.64,1.49-14.2
				c0-11.99-5.95-17.98-17.86-17.98H309.44z"/>
			<path fill="#F2F2F2" d="M359.35,1110.87l0.7-5.68c4.2,0,7.73-1.04,10.59-3.13c2.86-2.08,4.58-5.15,5.17-9.2l11.56-89.31
				c0-8.34-4.55-12.52-13.66-12.52l0.7-5.68h82.83l-3.5,35.4l-4.9,0.76c-0.12-6.94-0.88-12.31-2.28-16.09s-3.36-6.56-5.87-8.33
				c-2.51-1.77-5.49-2.81-8.93-3.12c-3.44-0.31-7.15-0.47-11.12-0.47h-4.2c-4.44,0-7.65,0.7-9.63,2.08
				c-1.99,1.39-3.15,3.53-3.5,6.44l-4.55,33.89c0,0.25-0.03,0.51-0.09,0.76c-0.06,0.25-0.09,0.51-0.09,0.76
				c0,2.78,1.05,4.16,3.15,4.16h5.43c2.68,0,5.17-0.16,7.44-0.47c2.28-0.31,4.38-1.14,6.3-2.46s3.62-3.34,5.08-6.06
				c1.46-2.71,2.65-6.4,3.59-11.07h5.95l-6.48,49.03h-5.78V1066c0-3.53-0.32-6.37-0.96-8.52c-0.64-2.14-1.66-3.79-3.06-4.92
				c-1.4-1.14-3.18-1.89-5.34-2.27c-2.16-0.38-4.76-0.57-7.79-0.57h-1.75c-5.02,0-7.77,2.08-8.23,6.25l-4.73,36.16
				c-0.12,0.51-0.18,1.14-0.18,1.89c0,5.93,3.85,8.9,11.56,8.9h4.73c6.65,0,12.08-0.6,16.29-1.8c4.2-1.2,7.73-3.09,10.59-5.68
				c2.86-2.59,5.28-5.84,7.27-9.75c1.98-3.91,4.14-8.52,6.48-13.82l4.03,1.51l-8.93,37.48H359.35z"/>
			<path fill="#F2F2F2" d="M561.08,1094.4c-0.12,1.51-0.61,3.35-1.49,5.49c-0.88,2.15-2.01,4.16-3.41,6.06
				c-1.4,1.89-3.06,3.53-4.99,4.92s-4,2.08-6.22,2.08c-6.3,0-10.83-1.3-13.57-3.88c-2.74-2.59-4.53-6.78-5.34-12.59
				c-0.7-4.79-1.29-9.94-1.75-15.43c-0.47-5.49-1.26-10.54-2.36-15.15c-1.11-4.61-2.71-8.45-4.82-11.55
				c-2.1-3.09-5.02-4.64-8.76-4.64h-4.9c-2.92,0-4.61,0.69-5.08,2.08l-5.6,41.08c-0.12,0.51-0.18,1.2-0.18,2.08
				c0,6.82,4.38,10.22,13.13,10.22l-0.53,5.68h-44.31l0.7-5.68c3.85,0,7.18-1.04,9.98-3.12c2.8-2.08,4.49-5.14,5.08-9.18
				l12.08-91.82c0-6.56-4.5-9.84-13.48-9.84l0.7-5.87h19.61c3.5,0,6.48-0.03,8.93-0.09c2.45-0.06,4.82-0.16,7.09-0.28
				c2.28-0.12,4.67-0.22,7.18-0.28c2.51-0.06,5.63-0.09,9.37-0.09c4.2,0,8.06,0.66,11.56,1.99s6.54,3.19,9.11,5.58
				c2.57,2.4,4.55,5.24,5.95,8.52c1.4,3.28,2.1,6.82,2.1,10.6c0,5.05-0.85,9.53-2.54,13.44c-1.69,3.91-3.97,7.35-6.83,10.32
				c-2.86,2.97-6.25,5.4-10.16,7.29c-3.91,1.89-8.09,3.41-12.52,4.54v0.57c4.9,2.9,8.67,6.53,11.29,10.89
				c2.63,4.35,4.23,8.55,4.82,12.59c0.35,2.53,0.7,5.56,1.05,9.09c0.35,3.54,0.9,6.88,1.66,10.03c0.76,3.16,1.72,5.84,2.89,8.05
				c1.17,2.21,2.74,3.31,4.73,3.31c2.33,0,4.49-2.84,6.48-8.52L561.08,1094.4z M511.53,1042.33c3.15,0,6.39-0.31,9.72-0.95
				c3.33-0.63,6.39-2.02,9.19-4.17c2.8-2.14,5.08-5.17,6.83-9.09c1.75-3.91,2.63-9.21,2.63-15.9c0-3.79-0.61-6.94-1.84-9.47
				c-1.23-2.52-2.8-4.54-4.73-6.06c-1.93-1.51-4.12-2.56-6.57-3.12s-4.85-0.85-7.18-0.85h-7.53c-2.57,0-4.32,0.88-5.25,2.65
				c-0.94,1.77-1.64,4.42-2.1,7.95l-4.55,36.16c0,1.89,0.99,2.84,2.98,2.84H511.53z"/>
			<path fill="#F2F2F2" d="M653.02,1112.95c-2.1-2.14-4-4.04-5.69-5.68c-1.69-1.64-3.12-3.09-4.29-4.35
				c-4.09,3.28-8.73,5.9-13.92,7.86c-5.2,1.96-10.42,2.93-15.67,2.93c-6.42,0-12.2-1.3-17.34-3.88c-5.14-2.59-9.52-6.21-13.13-10.89
				c-3.62-4.67-6.39-10.13-8.32-16.38c-1.93-6.25-2.89-13.09-2.89-20.54c0-9.59,1.58-19.15,4.73-28.68
				c3.15-9.53,7.5-18.05,13.05-25.56c5.54-7.51,12-13.6,19.35-18.27c7.35-4.67,15.23-7,23.64-7c4.44,0,8.61,0.95,12.52,2.84
				c3.91,1.89,7.67,4.1,11.29,6.63c4.2-4.54,8.35-7.19,12.43-7.95c1.05,4.92,1.57,10.79,1.57,17.61c0,3.66-0.17,7.64-0.52,11.93
				c-0.35,4.29-0.82,8.84-1.4,13.63H663c-0.35-5.55-1.26-10.6-2.71-15.14c-1.46-4.54-3.45-8.45-5.95-11.74
				c-2.51-3.28-5.52-5.84-9.02-7.67c-3.5-1.83-7.53-2.74-12.08-2.74c-7.35,0-13.75,2.21-19.17,6.63
				c-5.43,4.42-9.93,10.13-13.48,17.13c-3.56,7-6.25,14.8-8.06,23.38c-1.81,8.58-2.71,17.1-2.71,25.56c0,6.19,0.55,11.93,1.66,17.23
				s2.83,9.88,5.17,13.73c2.33,3.85,5.25,6.88,8.76,9.09c3.5,2.21,7.71,3.31,12.61,3.31c3.62,0,7.15-0.57,10.59-1.7
				s6.51-2.96,9.2-5.49c2.68-2.52,4.87-5.8,6.57-9.84c1.69-4.04,2.54-8.9,2.54-14.58c0-9.84-4.61-14.77-13.83-14.77l0.7-5.68h45.18
				l-0.88,5.68c-5.25,0-9.05,1.23-11.38,3.69c-2.34,2.46-3.79,6.03-4.38,10.7l-5.08,39H653.02z"/>
			<path fill="#F2F2F2" d="M733.22,1110.87l0.35-5.68c1.52-0.25,3.12-0.5,4.82-0.76c1.69-0.25,3.27-0.57,4.73-0.95
				c1.46-0.38,2.65-0.85,3.59-1.42c0.93-0.57,1.4-1.23,1.4-1.99c0-0.63-0.03-1.33-0.09-2.08c-0.06-0.76-0.21-1.96-0.44-3.6
				l-3.85-23.29c-0.35-1.64-1.46-2.87-3.33-3.69c-1.87-0.82-3.79-1.23-5.78-1.23h-23.29c-4.09,0-6.77,1.63-8.06,4.9l-8.06,19.59
				c-0.24,0.75-0.5,1.67-0.79,2.73c-0.29,1.07-0.44,2.23-0.44,3.48c0,4.9,4.26,7.35,12.78,7.35l-0.7,6.63h-35.37l1.05-6.63
				c3.04-0.25,5.69-1.51,7.97-3.78c2.28-2.27,4.47-5.54,6.57-9.83l52.19-108.12l4.38,2.27l22.59,112.28
				c0.46,3.15,1.58,5.11,3.33,5.86c1.75,0.76,4.49,1.45,8.23,2.08l-0.53,5.87H733.22z M732.52,1009.21l-18.91,39.76
				c-0.94,1.64-1.61,3.03-2.01,4.17c-0.41,1.14-0.61,2.08-0.61,2.84c0,1.51,1.81,2.27,5.43,2.27h19.79c3.38,0,5.08-0.88,5.08-2.65
				c0-0.63-0.09-1.42-0.26-2.37c-0.17-0.95-0.38-2.11-0.61-3.5L732.52,1009.21z"/>
		</g>
	</g>
	<g>
		<path fill="#4D4E4E" d="M455.46,1317.43c0,0.32-0.41,0.46-1.22,0.43h-1.08h-0.88c-0.52,0-0.83,0.09-0.93,0.26
			c-0.1,0.17-0.15,0.71-0.15,1.6v27.61c0,1.69-0.02,2.68-0.05,2.97c-0.03,0.29-0.13,0.43-0.29,0.43c-0.2,0-0.42-0.18-0.68-0.53
			l-6.26-8.98c-3.63-5.22-8.05-11.73-13.25-19.54v26.79c0.03,0.42,0.28,0.68,0.74,0.79c0.46,0.11,1.57,0.18,3.32,0.22
			c0.43,0,0.64,0.13,0.64,0.38c0,0.32-0.43,0.48-1.27,0.48c-0.29,0-1.23-0.05-2.79-0.14c-0.52-0.03-1.03-0.05-1.52-0.05
			c0.03,0-0.25,0.03-0.86,0.1c-0.61,0.06-1.53,0.1-2.77,0.1h-0.49c-0.75,0-1.13-0.14-1.13-0.43c0-0.29,0.33-0.43,0.98-0.43
			c1.93-0.03,3.05-0.15,3.36-0.36c0.31-0.21,0.47-0.89,0.47-2.04v-23.7c0-2.66-0.56-4.33-1.67-5c-0.52-0.32-1.45-0.48-2.79-0.48
			c-0.85,0-1.27-0.17-1.27-0.5c0-0.3,0.25-0.46,0.73-0.46c0.65,0,1.49,0.03,2.5,0.1s1.55,0.1,1.62,0.1c0.1,0,0.56-0.02,1.37-0.05
			c1.08,0,2.12-0.05,3.14-0.14l16.91,24.72v-21.36c0-0.99-0.02-1.59-0.05-1.8c-0.03-0.21-0.16-0.37-0.39-0.48
			c-0.23-0.11-1.01-0.17-2.35-0.17c-1.18,0-1.76-0.14-1.76-0.43c0-0.32,0.39-0.48,1.18-0.48h1.72c0.42,0,0.88,0,1.37,0
			c0.52,0,0.83,0,0.93,0c0.03,0,0.33,0,0.88,0c0.52,0,1.01,0,1.47,0h1.52C455.1,1316.95,455.46,1317.11,455.46,1317.43z"/>
		<path fill="#4D4E4E" d="M475.38,1344.9c0,0.09-0.02,0.64-0.07,1.65c-0.05,1.01-0.07,1.97-0.07,2.89v1.11
			c-2.24-0.13-6.68-0.2-13.31-0.2c-0.8,0-1.59,0-2.37,0s-1.3,0-1.58,0h-0.34c-0.43,0-0.65-0.09-0.65-0.27
			c0-0.12,0.07-0.19,0.21-0.21c0.07,0,0.5-0.03,1.3-0.09c0.59-0.04,0.96-0.17,1.08-0.37c0.12-0.2,0.19-0.73,0.19-1.58v-18.94
			c0-0.65-0.1-1.04-0.29-1.16c-0.19-0.12-0.82-0.19-1.87-0.19c-0.37,0-0.55-0.09-0.55-0.29s0.25-0.29,0.75-0.29h5.87
			c0.21,0,1.5,0,3.88,0c2.38,0,3.98,0,4.8,0c0.69,0,1.32-0.04,1.89-0.13c0.05,0.96,0.15,2.3,0.31,4l0.14,1.45
			c0.02,0.11,0.03,0.26,0.03,0.44c0,0.22-0.1,0.34-0.31,0.34c-0.25,0-0.43-0.28-0.55-0.84c-0.43-2.03-1.14-3.31-2.13-3.86
			c-0.73-0.41-2.65-0.61-5.76-0.61h-2.81v9.88h0.82c2.56,0,4.12-0.19,4.68-0.57c0.56-0.38,0.94-1.49,1.15-3.33
			c0.05-0.47,0.17-0.71,0.38-0.71c0.25,0,0.38,0.2,0.38,0.6s-0.02,1-0.07,1.78s-0.07,1.38-0.07,1.78c0,2.4,0.04,4.04,0.11,4.94
			c0.02,0.22,0.03,0.42,0.03,0.57c0,0.29-0.12,0.44-0.38,0.44c-0.16,0-0.27-0.09-0.32-0.29c-0.06-0.19-0.15-0.81-0.29-1.87
			c-0.18-1.32-0.74-2.14-1.67-2.45c-0.41-0.13-1.48-0.2-3.21-0.2h-1.54v11.26c5.03,0,7.98-0.1,8.85-0.3
			c1.51-0.33,2.37-1.75,2.57-4.25c0.04-0.55,0.19-0.83,0.45-0.83C475.26,1344.2,475.38,1344.43,475.38,1344.9z"/>
		<path fill="#4D4E4E" d="M508.34,1327.25c0,0.19-0.39,0.3-1.17,0.32c-0.87,0.02-1.45,0.3-1.73,0.84c-0.29,0.54-0.73,1.68-1.32,3.43
			c-1.03,3.07-1.95,5.68-2.75,7.83c-1.37,3.67-2.62,7.23-3.74,10.65c-0.09,0.29-0.21,0.44-0.35,0.44c-0.12,0-0.23-0.11-0.33-0.33
			s-0.42-1-0.93-2.34c-0.64-1.75-1.33-3.52-2.09-5.29c-0.59-1.39-1.17-2.83-1.74-4.32c-1.6,3.79-3.19,7.75-4.77,11.87
			c-0.09,0.28-0.2,0.41-0.33,0.41c-0.11,0-0.24-0.19-0.4-0.57c-0.71-1.66-3.34-8.52-7.89-20.6c-0.32-0.85-0.56-1.38-0.72-1.6
			s-0.56-0.33-1.2-0.35c-1.1-0.04-1.65-0.2-1.65-0.47c0-0.2,0.18-0.3,0.55-0.3c0.16,0,0.3,0.01,0.41,0.03
			c1.21,0.07,2.52,0.1,3.91,0.1c0.28,0,0.75-0.02,1.42-0.07s1.55-0.07,2.62-0.07h0.38c0.39,0,0.58,0.1,0.58,0.31
			c0,0.25-0.35,0.39-1.06,0.41c-1.41,0.05-2.11,0.23-2.11,0.55c0,0.63,2.1,6.46,6.3,17.51c1.53-3.78,2.67-6.57,3.42-8.36l-3.39-8.61
			c-0.18-0.47-0.4-0.77-0.64-0.9s-0.68-0.21-1.33-0.24c-0.64-0.02-0.96-0.12-0.96-0.3c0-0.25,0.24-0.37,0.72-0.37
			c0.37,0,0.81,0.02,1.34,0.07s1.44,0.07,2.75,0.07h2.61h3.77c0.85,0,1.86-0.04,3.05-0.11c0.14-0.02,0.3-0.03,0.48-0.03
			c0.55,0,0.82,0.12,0.82,0.35c0,0.21-0.19,0.32-0.58,0.32h-0.58c-1.03,0-1.81,0.13-2.33,0.4c-0.23,0.11-0.65,0.92-1.27,2.42
			c-0.28,0.63-0.74,1.69-1.39,3.19c-0.13,0.34-0.34,0.84-0.6,1.52c0.16,0.45,0.66,1.69,1.5,3.73c1.09,2.59,1.98,4.82,2.68,6.67
			c1.29-3.63,2.8-7.92,4.55-12.86c0.92-2.63,1.39-4.1,1.39-4.39c0-0.43-0.4-0.64-1.2-0.64c-1.12,0-1.68-0.12-1.68-0.37
			c0-0.22,0.23-0.34,0.69-0.34c0.39,0,0.7,0.02,0.93,0.04c0.5,0.06,0.96,0.09,1.37,0.09h2.75c0.69,0,1.06,0.03,1.13,0.08
			S508.34,1327.18,508.34,1327.25z M493.83,1327.63h-0.41h-0.58c-0.82,0.04-1.24,0.19-1.24,0.44c0,0.04,0.67,1.99,2.02,5.84
			c0.52-1.12,1.14-2.6,1.84-4.44c0.09-0.25,0.24-0.57,0.43-0.97l0.07-0.27C495.96,1327.83,495.25,1327.63,493.83,1327.63z"/>
		<path fill="#4D4E4E" d="M542.09,1350.09c0,0.19-0.24,0.29-0.72,0.29H541c-0.32,0-0.9,0-1.74,0c-0.84,0-1.49,0-1.95,0
			c-0.68,0-1.48,0-2.39,0c-0.94,0-1.55,0-1.85,0h-0.24c-0.48,0-0.72-0.1-0.72-0.3c0-0.22,0.33-0.34,1-0.34
			c1.17,0,1.88-0.12,2.13-0.37c0.11-0.11,0.17-0.86,0.17-2.25v-17.43c0,0.02-0.14,0.42-0.41,1.18c-0.92,2.71-2.25,6.78-4,12.22
			l-1.59,5.35c-0.32,1.05-0.55,1.58-0.69,1.58c-0.16,0-0.33-0.27-0.51-0.81c-0.66-2.04-2.53-7.13-5.6-15.26l-1.36-3.59
			c0,0.43,0,1.01,0,1.75v10.92c0,4.1,0.03,6.17,0.1,6.22c0.16,0.29,0.71,0.44,1.65,0.44c0.75,0,1.13,0.11,1.13,0.33
			c0,0.25-0.24,0.37-0.72,0.37c-0.3,0-0.57-0.02-0.82-0.07c-0.32-0.04-0.61-0.07-0.86-0.07l-3.95,0.13c-0.41,0-0.62-0.1-0.62-0.3
			c0-0.22,0.65-0.35,1.96-0.37c0.55,0,0.87-0.09,0.96-0.27c0.09-0.18,0.14-0.76,0.14-1.75v-16.12c0-1.86-0.02-2.87-0.07-3.03
			c-0.09-0.31-0.29-0.53-0.58-0.64c-0.3-0.11-0.94-0.2-1.92-0.27c-0.37-0.02-0.55-0.12-0.55-0.3c0-0.25,0.33-0.37,1.01-0.37
			c0.09,0,0.29,0,0.59,0h1.8c1.37,0,2.33-0.01,2.88-0.03c0.11,0.29,0.78,2.05,1.99,5.29c0.52,1.35,1.99,5.28,4.39,11.79
			c0.44-1.46,0.89-2.9,1.36-4.32l3.67-11.1c0.23-0.64,0.43-1.17,0.61-1.6l5.06-0.03c0.74,0,1.17,0.03,1.28,0.1s0.17,0.17,0.17,0.3
			c0,0.22-0.19,0.34-0.58,0.34c-0.64,0-1.08,0.02-1.3,0.07c-0.55,0.09-0.93,0.27-1.13,0.54c-0.12,0.16-0.17,1.47-0.17,3.94v15.67
			c0,0.9,0.09,1.43,0.27,1.58c0.3,0.2,1.04,0.3,2.23,0.3h0.21C541.86,1349.81,542.09,1349.9,542.09,1350.09z"/>
		<path fill="#4D4E4E" d="M561.65,1344.9c0,0.09-0.02,0.64-0.07,1.65c-0.05,1.01-0.07,1.97-0.07,2.89v1.11
			c-2.24-0.13-6.68-0.2-13.31-0.2c-0.8,0-1.59,0-2.37,0s-1.3,0-1.58,0h-0.34c-0.43,0-0.65-0.09-0.65-0.27
			c0-0.12,0.07-0.19,0.21-0.21c0.07,0,0.5-0.03,1.3-0.09c0.59-0.04,0.96-0.17,1.08-0.37c0.12-0.2,0.19-0.73,0.19-1.58v-18.94
			c0-0.65-0.1-1.04-0.29-1.16c-0.19-0.12-0.82-0.19-1.87-0.19c-0.37,0-0.55-0.09-0.55-0.29s0.25-0.29,0.75-0.29h5.87
			c0.21,0,1.5,0,3.88,0c2.38,0,3.98,0,4.8,0c0.69,0,1.32-0.04,1.89-0.13c0.05,0.96,0.15,2.3,0.31,4l0.14,1.45
			c0.02,0.11,0.03,0.26,0.03,0.44c0,0.22-0.1,0.34-0.31,0.34c-0.25,0-0.43-0.28-0.55-0.84c-0.43-2.03-1.14-3.31-2.13-3.86
			c-0.73-0.41-2.65-0.61-5.76-0.61h-2.81v9.88h0.82c2.56,0,4.12-0.19,4.68-0.57c0.56-0.38,0.94-1.49,1.15-3.33
			c0.05-0.47,0.17-0.71,0.38-0.71c0.25,0,0.38,0.2,0.38,0.6s-0.02,1-0.07,1.78s-0.07,1.38-0.07,1.78c0,2.4,0.04,4.04,0.11,4.94
			c0.02,0.22,0.03,0.42,0.03,0.57c0,0.29-0.12,0.44-0.38,0.44c-0.16,0-0.27-0.09-0.32-0.29c-0.06-0.19-0.15-0.81-0.29-1.87
			c-0.18-1.32-0.74-2.14-1.67-2.45c-0.41-0.13-1.48-0.2-3.21-0.2h-1.54v11.26c5.03,0,7.98-0.1,8.85-0.3
			c1.51-0.33,2.37-1.75,2.57-4.25c0.04-0.55,0.19-0.83,0.45-0.83C561.53,1344.2,561.65,1344.43,561.65,1344.9z"/>
		<path fill="#4D4E4E" d="M585.49,1338.65c0,3.95-1.41,7.03-4.22,9.23c-2.06,1.62-4.81,2.43-8.27,2.43c-0.09,0-0.5,0-1.22,0
			c-0.72,0-1.77,0-3.14,0h-1.71h-2.71c-0.16,0-0.33,0-0.51,0c-0.43,0-0.65-0.11-0.65-0.34c0-0.2,0.37-0.3,1.1-0.3
			c0.94,0,1.52-0.17,1.75-0.5c0.09-0.16,0.14-0.58,0.14-1.28v-18.11c0-1.1-0.09-1.74-0.26-1.92c-0.17-0.18-0.76-0.27-1.77-0.27
			c-0.53,0-0.79-0.12-0.79-0.37c0-0.18,0.19-0.27,0.58-0.27c-0.02,0,0.23,0,0.75,0c0.53,0,1.04,0,1.54,0h3.67
			c4.12,0,7.03,0.28,8.75,0.84c2.08,0.67,3.76,2,5.04,3.99C584.85,1333.78,585.49,1336.07,585.49,1338.65z M581.65,1338.52
			c0-3.73-0.74-6.46-2.23-8.21c-1.49-1.74-3.81-2.61-6.96-2.61c-1.53,0-2.46,0.16-2.78,0.47c-0.14,0.16-0.21,0.7-0.21,1.62v17.93
			c0,0.63,0.02,1.01,0.05,1.15c0.03,0.14,0.13,0.25,0.29,0.34c0.55,0.27,1.7,0.4,3.46,0.4c2.47,0,4.46-0.85,5.97-2.56
			C580.85,1345.25,581.65,1342.4,581.65,1338.52z"/>
		<path fill="#4D4E4E" d="M596.81,1350.03c0,0.19-0.14,0.29-0.41,0.29h-0.34c-0.14-0.07-1.7-0.1-4.68-0.1
			c-0.57,0-1.15,0.02-1.72,0.07c-0.3,0.02-0.76,0.03-1.38,0.03c-0.3,0-0.45-0.1-0.45-0.3c0-0.18,0.3-0.28,0.89-0.3
			c0.91-0.02,1.45-0.13,1.61-0.32c0.16-0.19,0.24-0.84,0.24-1.94v-17.73c0-1.1-0.06-1.72-0.17-1.85c-0.14-0.22-0.78-0.36-1.91-0.4
			c-0.44-0.02-0.66-0.1-0.66-0.24c0-0.18,0.14-0.27,0.42-0.27h4.69c0.35,0,1.02,0.01,2.01,0.03l1.32-0.03
			c0.37,0,0.56,0.09,0.56,0.29c0,0.17-0.52,0.28-1.55,0.32c-0.59,0.02-0.94,0.12-1.07,0.3c-0.13,0.18-0.19,0.65-0.19,1.41v17.94
			c0,1.28,0.06,1.97,0.17,2.08c0.25,0.25,1.01,0.39,2.26,0.44C596.68,1349.74,596.81,1349.84,596.81,1350.03z"/>
		<path fill="#4D4E4E" d="M619.87,1350.09c0,0.19-0.17,0.29-0.51,0.29c-0.23,0-0.43-0.01-0.62-0.03l-4.36-0.13l-4.36,0.13
			c-0.16,0.02-0.33,0.03-0.51,0.03c-0.46,0-0.69-0.12-0.69-0.35c0-0.26,0.31-0.39,0.93-0.39c2.01-0.02,3.02-0.22,3.02-0.59
			c0-0.02-0.02-0.11-0.07-0.26l-0.28-0.89l-0.18-0.47c-0.21-0.69-0.71-2.23-1.51-4.61h-7.33c-1.37,3.58-2.06,5.65-2.06,6.18
			c0,0.31,0.14,0.5,0.41,0.57c0.07,0.02,0.64,0.07,1.71,0.13c0.66,0.02,1,0.13,1,0.34c0,0.22-0.3,0.34-0.89,0.34
			c-1.05,0-2.28-0.04-3.67-0.13c-0.34-0.02-0.7-0.03-1.06-0.03c-0.37,0-0.72,0.04-1.06,0.11c-0.18,0.04-0.33,0.06-0.45,0.06
			c-0.32,0-0.48-0.1-0.48-0.3c0-0.2,0.36-0.31,1.08-0.34c0.72-0.02,1.24-0.13,1.56-0.32s0.57-0.56,0.75-1.1
			c2.94-8.27,5.34-14.91,7.18-19.92c0.05-0.26,0.16-0.56,0.32-0.89l0.15-0.61c0.07-0.25,0.16-0.37,0.27-0.37
			c0.07,0,0.13,0.07,0.17,0.2c0.3,0.87,0.97,2.7,2.02,5.48c0.82,2.17,2.87,7.63,6.14,16.36c0.18,0.51,0.42,0.83,0.7,0.97
			c0.29,0.14,0.87,0.22,1.77,0.24C619.57,1349.8,619.87,1349.9,619.87,1350.09z M610.54,1342.05c-0.37-1.01-0.99-2.67-1.85-5
			l-1.65-4.66c-0.96,2.47-2.1,5.69-3.45,9.65H610.54z"/>
		<path fill="#4D4E4E" d="M649.64,1350.09c0,0.19-0.17,0.29-0.51,0.29c-0.23,0-0.43-0.01-0.62-0.03l-4.36-0.13l-4.36,0.13
			c-0.16,0.02-0.33,0.03-0.51,0.03c-0.46,0-0.69-0.12-0.69-0.35c0-0.26,0.31-0.39,0.93-0.39c2.01-0.02,3.02-0.22,3.02-0.59
			c0-0.02-0.02-0.11-0.07-0.26l-0.28-0.89l-0.18-0.47c-0.21-0.69-0.71-2.23-1.51-4.61h-7.33c-1.37,3.58-2.06,5.65-2.06,6.18
			c0,0.31,0.14,0.5,0.41,0.57c0.07,0.02,0.64,0.07,1.71,0.13c0.66,0.02,1,0.13,1,0.34c0,0.22-0.3,0.34-0.89,0.34
			c-1.05,0-2.28-0.04-3.67-0.13c-0.34-0.02-0.7-0.03-1.06-0.03c-0.37,0-0.72,0.04-1.06,0.11c-0.18,0.04-0.33,0.06-0.45,0.06
			c-0.32,0-0.48-0.1-0.48-0.3c0-0.2,0.36-0.31,1.08-0.34c0.72-0.02,1.24-0.13,1.56-0.32s0.57-0.56,0.75-1.1
			c2.94-8.27,5.34-14.91,7.18-19.92c0.05-0.26,0.16-0.56,0.32-0.89l0.15-0.61c0.07-0.25,0.16-0.37,0.27-0.37
			c0.07,0,0.13,0.07,0.17,0.2c0.3,0.87,0.97,2.7,2.02,5.48c0.82,2.17,2.87,7.63,6.14,16.36c0.18,0.51,0.42,0.83,0.7,0.97
			c0.29,0.14,0.87,0.22,1.77,0.24C649.34,1349.8,649.64,1349.9,649.64,1350.09z M640.3,1342.05c-0.37-1.01-0.99-2.67-1.85-5
			l-1.65-4.66c-0.96,2.47-2.1,5.69-3.45,9.65H640.3z"/>
		<path fill="#4D4E4E" d="M668.47,1349.3c0,0.94-0.8,1.41-2.4,1.41c-1.78,0-3.18-0.73-4.19-2.18c-0.44-0.63-0.72-1.23-0.84-1.81
			c-0.13-0.58-0.31-2.06-0.57-4.44c-0.14-1.43-0.61-2.45-1.41-3.04c-0.8-0.59-2.1-0.91-3.91-0.96v10.58c0,0.45,0.37,0.73,1.1,0.84
			c0.21,0.02,0.73,0.04,1.58,0.07c0.3,0,0.45,0.09,0.45,0.27c0,0.2-0.19,0.3-0.58,0.3h-0.41c-0.21,0-1.2,0-2.98,0
			c-0.34,0-0.93,0-1.75,0c-0.8,0-1.33,0-1.58,0h-1.34c-0.5,0-0.75-0.1-0.75-0.3c0-0.16,0.33-0.25,1-0.27
			c1.07-0.02,1.66-0.16,1.75-0.4c0.09-0.11,0.14-0.55,0.14-1.31v-18.55c0-0.9-0.1-1.43-0.29-1.61c-0.19-0.18-0.78-0.28-1.77-0.3
			c-0.57,0-0.86-0.1-0.86-0.3c0-0.22,0.18-0.34,0.55-0.34c0.07,0,0.17,0.01,0.31,0.03l4.56,0.1c0.46,0,1.1-0.01,1.92-0.04
			c0.91-0.06,1.55-0.09,1.92-0.09c2.13,0,3.81,0.46,5.06,1.39c1.25,0.93,1.87,2.19,1.87,3.78c0,1.57-0.64,2.86-1.92,3.88
			c-1.28,1.02-3.02,1.62-5.21,1.8c-0.21,0.02-0.32,0.06-0.34,0.1c0,0.09,0.11,0.13,0.34,0.13c2.4,0.4,4.05,1.23,4.96,2.48
			c0.9,1.25,1.5,3.5,1.8,6.76c0.18,1.84,0.82,2.76,1.92,2.76c0.34,0,0.51-0.07,0.51-0.2c0-0.02-0.01-0.04-0.04-0.07
			c-0.11-0.25-0.17-0.45-0.17-0.6c0-0.47,0.25-0.71,0.75-0.71C668.2,1348.46,668.47,1348.74,668.47,1349.3z M661.37,1332.47
			c0-3.2-1.42-4.8-4.25-4.8c-0.75,0-1.27,0.1-1.54,0.3c-0.27,0.2-0.41,0.56-0.41,1.08v8.53c2.2,0.02,3.78-0.37,4.75-1.18
			C660.88,1335.59,661.37,1334.28,661.37,1332.47z"/>
		<path fill="#4D4E4E" d="M687.85,1332.97c0,0.29-0.14,0.44-0.41,0.44s-0.47-0.29-0.58-0.87c-0.05-0.4-0.09-0.81-0.14-1.21
			c-0.16-0.81-0.42-1.49-0.79-2.05c-0.48-0.74-1.27-1.21-2.37-1.41c-0.71-0.13-1.28-0.19-1.71-0.17c-1.08,0.03-1.73,0.05-1.96,0.07
			v20.29c0,0.81,0.22,1.31,0.65,1.51c0.23,0.11,0.87,0.18,1.92,0.2c0.27,0.02,0.41,0.12,0.41,0.29c0,0.19-0.18,0.29-0.55,0.29
			c-0.18,0-0.34-0.01-0.48-0.03c-1.37-0.04-2.34-0.07-2.92-0.07c-0.75,0-1.46,0.02-2.13,0.05c-0.66,0.03-1.51,0.05-2.54,0.05
			c-0.53,0-0.79-0.09-0.79-0.27c0-0.2,0.49-0.31,1.48-0.34c0.71,0,1.17-0.15,1.37-0.44c0.11-0.18,0.17-0.64,0.17-1.38v-20.16
			c-2.26,0.02-3.67,0.13-4.22,0.34c-1.44,0.52-2.29,1.89-2.54,4.13c-0.07,0.67-0.23,1.01-0.48,1.01c-0.27,0-0.41-0.24-0.41-0.71
			c0-0.25,0.01-0.49,0.03-0.74l0.07-0.77c0.07-1.03,0.17-2.39,0.31-4.07h1.54l7,0.1c0.82,0.02,2.1,0.02,3.84,0l5.7-0.1
			c0.04,1.25,0.19,3.11,0.45,5.58c0,0.07,0.01,0.15,0.03,0.25C687.84,1332.89,687.85,1332.95,687.85,1332.97z"/>
		<path fill="#4D4E4E" d="M719.68,1350.09c0,0.19-0.17,0.29-0.51,0.29c-0.23,0-0.43-0.01-0.62-0.03l-4.36-0.13l-4.36,0.13
			c-0.16,0.02-0.33,0.03-0.51,0.03c-0.46,0-0.69-0.12-0.69-0.35c0-0.26,0.31-0.39,0.93-0.39c2.01-0.02,3.02-0.22,3.02-0.59
			c0-0.02-0.02-0.11-0.07-0.26l-0.28-0.89l-0.18-0.47c-0.21-0.69-0.71-2.23-1.51-4.61h-7.33c-1.37,3.58-2.06,5.65-2.06,6.18
			c0,0.31,0.14,0.5,0.41,0.57c0.07,0.02,0.64,0.07,1.71,0.13c0.66,0.02,1,0.13,1,0.34c0,0.22-0.3,0.34-0.89,0.34
			c-1.05,0-2.28-0.04-3.67-0.13c-0.34-0.02-0.7-0.03-1.06-0.03c-0.37,0-0.72,0.04-1.06,0.11c-0.18,0.04-0.33,0.06-0.45,0.06
			c-0.32,0-0.48-0.1-0.48-0.3c0-0.2,0.36-0.31,1.08-0.34c0.72-0.02,1.24-0.13,1.56-0.32s0.57-0.56,0.75-1.1
			c2.94-8.27,5.34-14.91,7.18-19.92c0.05-0.26,0.16-0.56,0.32-0.89l0.15-0.61c0.07-0.25,0.16-0.37,0.27-0.37
			c0.07,0,0.13,0.07,0.17,0.2c0.3,0.87,0.97,2.7,2.02,5.48c0.82,2.17,2.87,7.63,6.14,16.36c0.18,0.51,0.42,0.83,0.7,0.97
			c0.29,0.14,0.87,0.22,1.77,0.24C719.38,1349.8,719.68,1349.9,719.68,1350.09z M710.35,1342.05c-0.37-1.01-0.99-2.67-1.85-5
			l-1.65-4.66c-0.96,2.47-2.1,5.69-3.45,9.65H710.35z"/>
		<path fill="#4D4E4E" d="M740.2,1327.3c0,0.22-0.29,0.32-0.86,0.3h-0.75h-0.62c-0.37,0-0.58,0.06-0.65,0.19
			c-0.07,0.12-0.1,0.5-0.1,1.12v19.33c0,1.18-0.01,1.88-0.03,2.08c-0.02,0.2-0.09,0.3-0.21,0.3c-0.14,0-0.3-0.12-0.48-0.37
			l-4.38-6.29c-2.54-3.65-5.63-8.21-9.27-13.68v18.76c0.02,0.29,0.2,0.48,0.52,0.55c0.32,0.08,1.1,0.13,2.32,0.15
			c0.3,0,0.45,0.09,0.45,0.27c0,0.22-0.3,0.34-0.89,0.34c-0.21,0-0.86-0.03-1.96-0.1c-0.37-0.02-0.72-0.03-1.06-0.03
			c0.02,0-0.18,0.02-0.6,0.07c-0.42,0.04-1.07,0.07-1.94,0.07h-0.34c-0.53,0-0.79-0.1-0.79-0.3c0-0.2,0.23-0.3,0.69-0.3
			c1.35-0.02,2.13-0.11,2.35-0.25c0.22-0.15,0.33-0.62,0.33-1.43v-16.59c0-1.86-0.39-3.03-1.17-3.5c-0.37-0.22-1.02-0.34-1.96-0.34
			c-0.59,0-0.89-0.12-0.89-0.35c0-0.21,0.17-0.32,0.51-0.32c0.46,0,1.04,0.02,1.75,0.07c0.71,0.05,1.09,0.07,1.13,0.07
			c0.07,0,0.39-0.01,0.96-0.03c0.75,0,1.49-0.03,2.2-0.1l11.84,17.3v-14.95c0-0.69-0.01-1.11-0.03-1.26s-0.11-0.26-0.27-0.34
			s-0.71-0.12-1.65-0.12c-0.82,0-1.24-0.1-1.24-0.3c0-0.22,0.27-0.34,0.82-0.34h1.2c0.3,0,0.62,0,0.96,0c0.37,0,0.58,0,0.65,0
			c0.02,0,0.23,0,0.62,0c0.37,0,0.71,0,1.03,0h1.06C739.94,1326.96,740.2,1327.07,740.2,1327.3z"/>
		<path fill="#4D4E4E" d="M763.8,1338.65c0,3.95-1.41,7.03-4.22,9.23c-2.06,1.62-4.81,2.43-8.27,2.43c-0.09,0-0.5,0-1.22,0
			c-0.72,0-1.77,0-3.14,0h-1.71h-2.71c-0.16,0-0.33,0-0.51,0c-0.43,0-0.65-0.11-0.65-0.34c0-0.2,0.37-0.3,1.1-0.3
			c0.94,0,1.52-0.17,1.75-0.5c0.09-0.16,0.14-0.58,0.14-1.28v-18.11c0-1.1-0.09-1.74-0.26-1.92c-0.17-0.18-0.76-0.27-1.77-0.27
			c-0.53,0-0.79-0.12-0.79-0.37c0-0.18,0.19-0.27,0.58-0.27c-0.02,0,0.23,0,0.75,0c0.53,0,1.04,0,1.54,0h3.67
			c4.12,0,7.03,0.28,8.75,0.84c2.08,0.67,3.76,2,5.04,3.99C763.16,1333.78,763.8,1336.07,763.8,1338.65z M759.96,1338.52
			c0-3.73-0.74-6.46-2.23-8.21c-1.49-1.74-3.81-2.61-6.96-2.61c-1.53,0-2.46,0.16-2.78,0.47c-0.14,0.16-0.21,0.7-0.21,1.62v17.93
			c0,0.63,0.02,1.01,0.05,1.15c0.03,0.14,0.13,0.25,0.29,0.34c0.55,0.27,1.7,0.4,3.46,0.4c2.47,0,4.46-0.85,5.97-2.56
			C759.16,1345.25,759.96,1342.4,759.96,1338.52z"/>
		<path fill="#4D4E4E" d="M797.48,1338.65c0,3.95-1.41,7.03-4.22,9.23c-2.06,1.62-4.81,2.43-8.27,2.43c-0.09,0-0.5,0-1.22,0
			c-0.72,0-1.77,0-3.14,0h-1.71h-2.71c-0.16,0-0.33,0-0.51,0c-0.43,0-0.65-0.11-0.65-0.34c0-0.2,0.37-0.3,1.1-0.3
			c0.94,0,1.52-0.17,1.75-0.5c0.09-0.16,0.14-0.58,0.14-1.28v-18.11c0-1.1-0.09-1.74-0.26-1.92c-0.17-0.18-0.76-0.27-1.77-0.27
			c-0.53,0-0.79-0.12-0.79-0.37c0-0.18,0.19-0.27,0.58-0.27c-0.02,0,0.23,0,0.75,0c0.53,0,1.04,0,1.54,0h3.67
			c4.12,0,7.03,0.28,8.75,0.84c2.08,0.67,3.76,2,5.04,3.99C796.84,1333.78,797.48,1336.07,797.48,1338.65z M793.64,1338.52
			c0-3.73-0.74-6.46-2.23-8.21c-1.49-1.74-3.81-2.61-6.96-2.61c-1.53,0-2.46,0.16-2.78,0.47c-0.14,0.16-0.21,0.7-0.21,1.62v17.93
			c0,0.63,0.02,1.01,0.05,1.15c0.03,0.14,0.13,0.25,0.29,0.34c0.55,0.27,1.7,0.4,3.46,0.4c2.47,0,4.46-0.85,5.97-2.56
			C792.84,1345.25,793.64,1342.4,793.64,1338.52z"/>
		<path fill="#4D4E4E" d="M818.17,1344.9c0,0.09-0.02,0.64-0.07,1.65c-0.05,1.01-0.07,1.97-0.07,2.89v1.11
			c-2.24-0.13-6.68-0.2-13.31-0.2c-0.8,0-1.59,0-2.37,0s-1.3,0-1.58,0h-0.34c-0.43,0-0.65-0.09-0.65-0.27
			c0-0.12,0.07-0.19,0.21-0.21c0.07,0,0.5-0.03,1.3-0.09c0.59-0.04,0.96-0.17,1.08-0.37c0.12-0.2,0.19-0.73,0.19-1.58v-18.94
			c0-0.65-0.1-1.04-0.29-1.16c-0.19-0.12-0.82-0.19-1.87-0.19c-0.37,0-0.55-0.09-0.55-0.29s0.25-0.29,0.75-0.29h5.87
			c0.21,0,1.5,0,3.88,0c2.38,0,3.98,0,4.8,0c0.69,0,1.32-0.04,1.89-0.13c0.05,0.96,0.15,2.3,0.31,4l0.14,1.45
			c0.02,0.11,0.03,0.26,0.03,0.44c0,0.22-0.1,0.34-0.31,0.34c-0.25,0-0.43-0.28-0.55-0.84c-0.43-2.03-1.14-3.31-2.13-3.86
			c-0.73-0.41-2.65-0.61-5.76-0.61h-2.81v9.88h0.82c2.56,0,4.12-0.19,4.68-0.57c0.56-0.38,0.94-1.49,1.15-3.33
			c0.05-0.47,0.17-0.71,0.38-0.71c0.25,0,0.38,0.2,0.38,0.6s-0.02,1-0.07,1.78s-0.07,1.38-0.07,1.78c0,2.4,0.04,4.04,0.11,4.94
			c0.02,0.22,0.03,0.42,0.03,0.57c0,0.29-0.12,0.44-0.38,0.44c-0.16,0-0.27-0.09-0.32-0.29c-0.06-0.19-0.15-0.81-0.29-1.87
			c-0.18-1.32-0.74-2.14-1.67-2.45c-0.41-0.13-1.48-0.2-3.21-0.2h-1.54v11.26c5.03,0,7.98-0.1,8.85-0.3
			c1.51-0.33,2.37-1.75,2.57-4.25c0.04-0.55,0.19-0.83,0.45-0.83C818.05,1344.2,818.17,1344.43,818.17,1344.9z"/>
		<path fill="#4D4E4E" d="M834.94,1343.76c0,1.93-0.75,3.57-2.25,4.92c-1.5,1.36-3.3,2.03-5.4,2.03c-1.23,0-2.71-0.37-4.43-1.11
			c-0.46-0.2-0.8-0.3-1.03-0.3c-0.27,0-0.45,0.31-0.51,0.93c-0.02,0.32-0.17,0.48-0.45,0.48c-0.23,0-0.34-0.13-0.34-0.4
			c0-0.18,0.01-0.31,0.04-0.4c0.18-1.37,0.27-2.63,0.27-3.8c0-0.22-0.02-0.85-0.07-1.88c-0.02-0.13-0.03-0.31-0.03-0.54
			c0-0.34,0.14-0.5,0.41-0.5c0.23,0,0.39,0.27,0.48,0.81c0.59,4.03,2.53,6.04,5.8,6.04c1.39,0,2.48-0.39,3.24-1.16
			c0.77-0.77,1.15-1.87,1.15-3.28c0-1.25-0.37-2.32-1.12-3.21c-0.74-0.88-2.02-1.76-3.83-2.64c-2.17-1.05-3.68-2.07-4.53-3.06
			c-0.85-0.99-1.27-2.21-1.27-3.66c0-1.86,0.61-3.39,1.83-4.6c1.22-1.21,2.77-1.81,4.65-1.81c0.78,0,1.85,0.26,3.23,0.77
			c0.48,0.18,0.83,0.27,1.06,0.27c0.25,0,0.42-0.04,0.5-0.13c0.08-0.09,0.15-0.32,0.22-0.71c0.05-0.22,0.17-0.34,0.38-0.34
			c0.23,0,0.34,0.13,0.34,0.4c0,0.18-0.01,0.31-0.03,0.4c-0.07,0.54-0.1,1.19-0.1,1.95c0,1.08,0.06,1.93,0.17,2.55l0.03,0.54
			c0.02,0.25-0.08,0.37-0.31,0.37c-0.25,0-0.42-0.26-0.51-0.77c-0.25-1.32-0.85-2.42-1.78-3.31c-0.94-0.88-1.99-1.33-3.16-1.33
			c-1.14,0-2.05,0.36-2.73,1.08s-1.01,1.69-1.01,2.92c0,1.43,0.49,2.59,1.48,3.46c0.55,0.49,1.74,1.19,3.57,2.08
			c2.15,1.05,3.69,2.12,4.63,3.21C834.47,1341.13,834.94,1342.37,834.94,1343.76z"/>
		<path fill="#4D4E4E" d="M845.85,1350.03c0,0.19-0.14,0.29-0.41,0.29h-0.34c-0.14-0.07-1.7-0.1-4.68-0.1
			c-0.57,0-1.15,0.02-1.72,0.07c-0.3,0.02-0.76,0.03-1.38,0.03c-0.3,0-0.45-0.1-0.45-0.3c0-0.18,0.3-0.28,0.89-0.3
			c0.91-0.02,1.45-0.13,1.61-0.32c0.16-0.19,0.24-0.84,0.24-1.94v-17.73c0-1.1-0.06-1.72-0.17-1.85c-0.14-0.22-0.78-0.36-1.91-0.4
			c-0.44-0.02-0.66-0.1-0.66-0.24c0-0.18,0.14-0.27,0.42-0.27h4.69c0.35,0,1.02,0.01,2.01,0.03l1.32-0.03
			c0.37,0,0.56,0.09,0.56,0.29c0,0.17-0.52,0.28-1.55,0.32c-0.59,0.02-0.94,0.12-1.07,0.3c-0.13,0.18-0.19,0.65-0.19,1.41v17.94
			c0,1.28,0.06,1.97,0.17,2.08c0.25,0.25,1.01,0.39,2.26,0.44C845.72,1349.74,845.85,1349.84,845.85,1350.03z"/>
		<path fill="#4D4E4E" d="M870.28,1343.27c0,0.17-0.27,0.25-0.82,0.25c-1.24,0-1.92,0.18-2.06,0.54c-0.09,0.25-0.14,1.21-0.14,2.91
			v1.07c-1.19,0.98-2.32,1.67-3.4,2.07c-1.08,0.4-2.37,0.6-3.88,0.6c-3.61,0-6.48-1.06-8.61-3.18c-2.13-2.12-3.19-4.99-3.19-8.62
			c0-3.67,1.04-6.64,3.12-8.9c2.08-2.26,4.83-3.39,8.23-3.39c1.49,0,3.11,0.4,4.87,1.21c0.53,0.25,0.96,0.37,1.3,0.37
			c0.43,0,0.72-0.27,0.86-0.81c0.11-0.31,0.25-0.47,0.41-0.47c0.18,0,0.27,0.1,0.27,0.3c0,0.02-0.02,0.24-0.06,0.64
			c-0.14,1.32-0.2,2.3-0.18,2.92v1.81c0.02,0.92,0.01,1.49-0.04,1.71s-0.17,0.34-0.38,0.34s-0.32-0.16-0.34-0.47
			c-0.12-2.16-0.75-3.86-1.92-5.11c-1.17-1.25-2.7-1.87-4.6-1.87c-2.38,0-4.26,1.04-5.64,3.12c-1.38,2.08-2.08,4.91-2.08,8.51
			c0,3.48,0.7,6.24,2.11,8.27c1.41,2.03,3.31,3.05,5.71,3.05c1.83,0,3.09-0.52,3.77-1.55c0.34-0.52,0.51-1.45,0.51-2.8
			c0-1.13-0.11-1.79-0.33-1.99c-0.22-0.2-0.97-0.29-2.25-0.27c-0.32,0-0.53-0.01-0.62-0.04c-0.09-0.03-0.14-0.1-0.14-0.2
			c0-0.22,0.25-0.33,0.75-0.33h0.62c0.5,0.02,1.76,0.02,3.77,0h2.75c0.16,0,0.33,0,0.51,0c0.18,0,0.31,0,0.38,0
			C870.05,1342.95,870.28,1343.06,870.28,1343.27z"/>
		<path fill="#4D4E4E" d="M891.58,1327.3c0,0.22-0.29,0.32-0.86,0.3h-0.75h-0.62c-0.37,0-0.58,0.06-0.65,0.19
			c-0.07,0.12-0.1,0.5-0.1,1.12v19.33c0,1.18-0.01,1.88-0.03,2.08c-0.02,0.2-0.09,0.3-0.21,0.3c-0.14,0-0.3-0.12-0.48-0.37
			l-4.38-6.29c-2.54-3.65-5.63-8.21-9.27-13.68v18.76c0.02,0.29,0.2,0.48,0.52,0.55c0.32,0.08,1.1,0.13,2.32,0.15
			c0.3,0,0.45,0.09,0.45,0.27c0,0.22-0.3,0.34-0.89,0.34c-0.21,0-0.86-0.03-1.96-0.1c-0.37-0.02-0.72-0.03-1.06-0.03
			c0.02,0-0.18,0.02-0.6,0.07c-0.42,0.04-1.07,0.07-1.94,0.07h-0.34c-0.53,0-0.79-0.1-0.79-0.3c0-0.2,0.23-0.3,0.69-0.3
			c1.35-0.02,2.13-0.11,2.35-0.25c0.22-0.15,0.33-0.62,0.33-1.43v-16.59c0-1.86-0.39-3.03-1.17-3.5c-0.37-0.22-1.02-0.34-1.96-0.34
			c-0.59,0-0.89-0.12-0.89-0.35c0-0.21,0.17-0.32,0.51-0.32c0.46,0,1.04,0.02,1.75,0.07c0.71,0.05,1.09,0.07,1.13,0.07
			c0.07,0,0.39-0.01,0.96-0.03c0.75,0,1.49-0.03,2.2-0.1l11.84,17.3v-14.95c0-0.69-0.01-1.11-0.03-1.26s-0.11-0.26-0.27-0.34
			s-0.71-0.12-1.65-0.12c-0.82,0-1.24-0.1-1.24-0.3c0-0.22,0.27-0.34,0.82-0.34h1.2c0.3,0,0.62,0,0.96,0c0.37,0,0.58,0,0.65,0
			c0.02,0,0.23,0,0.62,0c0.37,0,0.71,0,1.03,0h1.06C891.33,1326.96,891.58,1327.07,891.58,1327.3z"/>
		<path fill="#4D4E4E" d="M917.23,1343.76c0,1.93-0.75,3.57-2.25,4.92c-1.5,1.36-3.3,2.03-5.4,2.03c-1.23,0-2.71-0.37-4.43-1.11
			c-0.46-0.2-0.8-0.3-1.03-0.3c-0.27,0-0.45,0.31-0.51,0.93c-0.02,0.32-0.17,0.48-0.45,0.48c-0.23,0-0.34-0.13-0.34-0.4
			c0-0.18,0.01-0.31,0.04-0.4c0.18-1.37,0.27-2.63,0.27-3.8c0-0.22-0.02-0.85-0.07-1.88c-0.02-0.13-0.03-0.31-0.03-0.54
			c0-0.34,0.14-0.5,0.41-0.5c0.23,0,0.39,0.27,0.48,0.81c0.59,4.03,2.53,6.04,5.8,6.04c1.39,0,2.48-0.39,3.24-1.16
			c0.77-0.77,1.15-1.87,1.15-3.28c0-1.25-0.37-2.32-1.12-3.21c-0.74-0.88-2.02-1.76-3.83-2.64c-2.17-1.05-3.68-2.07-4.53-3.06
			c-0.85-0.99-1.27-2.21-1.27-3.66c0-1.86,0.61-3.39,1.83-4.6c1.22-1.21,2.77-1.81,4.65-1.81c0.78,0,1.85,0.26,3.23,0.77
			c0.48,0.18,0.83,0.27,1.06,0.27c0.25,0,0.42-0.04,0.5-0.13c0.08-0.09,0.15-0.32,0.22-0.71c0.05-0.22,0.17-0.34,0.38-0.34
			c0.23,0,0.34,0.13,0.34,0.4c0,0.18-0.01,0.31-0.03,0.4c-0.07,0.54-0.1,1.19-0.1,1.95c0,1.08,0.06,1.93,0.17,2.55l0.03,0.54
			c0.02,0.25-0.08,0.37-0.31,0.37c-0.25,0-0.42-0.26-0.51-0.77c-0.25-1.32-0.85-2.42-1.78-3.31c-0.94-0.88-1.99-1.33-3.16-1.33
			c-1.14,0-2.05,0.36-2.73,1.08s-1.01,1.69-1.01,2.92c0,1.43,0.49,2.59,1.48,3.46c0.55,0.49,1.74,1.19,3.57,2.08
			c2.15,1.05,3.69,2.12,4.63,3.21C916.76,1341.13,917.23,1342.37,917.23,1343.76z"/>
		<path fill="#4D4E4E" d="M937.82,1332.97c0,0.29-0.14,0.44-0.41,0.44s-0.47-0.29-0.58-0.87c-0.05-0.4-0.09-0.81-0.14-1.21
			c-0.16-0.81-0.42-1.49-0.79-2.05c-0.48-0.74-1.27-1.21-2.37-1.41c-0.71-0.13-1.28-0.19-1.71-0.17c-1.08,0.03-1.73,0.05-1.96,0.07
			v20.29c0,0.81,0.22,1.31,0.65,1.51c0.23,0.11,0.87,0.18,1.92,0.2c0.27,0.02,0.41,0.12,0.41,0.29c0,0.19-0.18,0.29-0.55,0.29
			c-0.18,0-0.34-0.01-0.48-0.03c-1.37-0.04-2.34-0.07-2.92-0.07c-0.75,0-1.46,0.02-2.13,0.05c-0.66,0.03-1.51,0.05-2.54,0.05
			c-0.53,0-0.79-0.09-0.79-0.27c0-0.2,0.49-0.31,1.48-0.34c0.71,0,1.17-0.15,1.37-0.44c0.11-0.18,0.17-0.64,0.17-1.38v-20.16
			c-2.26,0.02-3.67,0.13-4.22,0.34c-1.44,0.52-2.29,1.89-2.54,4.13c-0.07,0.67-0.23,1.01-0.48,1.01c-0.27,0-0.41-0.24-0.41-0.71
			c0-0.25,0.01-0.49,0.03-0.74l0.07-0.77c0.07-1.03,0.17-2.39,0.31-4.07h1.54l7,0.1c0.82,0.02,2.1,0.02,3.84,0l5.7-0.1
			c0.04,1.25,0.19,3.11,0.45,5.58c0,0.07,0.01,0.15,0.03,0.25C937.81,1332.89,937.82,1332.95,937.82,1332.97z"/>
		<path fill="#4D4E4E" d="M960.87,1327.29c0,0.18-0.21,0.27-0.62,0.27c-0.07,0-0.3,0-0.69,0c-0.11,0-0.27,0-0.48,0
			c-0.57,0-0.92,0.15-1.03,0.44c-0.05,0.16-0.07,0.41-0.07,0.77v12.58c0,3.27-0.62,5.64-1.87,7.13c-1.25,1.49-3.25,2.23-6.02,2.23
			c-3.32,0-5.65-0.92-7-2.75c-0.89-1.23-1.34-3.26-1.34-6.08v-13.47c-0.07-0.4-0.35-0.65-0.83-0.74c-0.14-0.02-0.57-0.03-1.29-0.03
			c-0.39-0.04-0.59-0.16-0.59-0.34c0-0.2,0.16-0.3,0.48-0.3h0.62c0.11,0,0.38,0,0.79,0c0.37,0,0.7,0,1,0h4.91c0.11,0,0.25,0,0.41,0
			c0.39,0,0.58,0.12,0.58,0.37c0,0.16-0.07,0.25-0.21,0.27c-0.14,0.02-0.6,0.04-1.37,0.07c-0.32,0-0.54,0.02-0.65,0.07
			c-0.23,0.09-0.36,0.25-0.38,0.47c-0.02,0.09-0.03,0.73-0.03,1.91v11.99c0,2.95,0.48,4.96,1.44,6.03c0.96,1.07,2.39,1.61,4.29,1.61
			c3.48,0,5.44-1.93,5.9-5.79c0.07-0.58,0.1-3.03,0.1-7.36v-1.91v-2.68v-2.31c0-0.22,0-0.47,0-0.74c0-0.29,0-0.41,0-0.37
			c0-0.49-0.24-0.79-0.72-0.9c-0.16-0.04-0.63-0.07-1.41-0.07c-0.46,0-0.69-0.12-0.69-0.37c0-0.2,0.16-0.3,0.48-0.3
			c0.18,0,0.33,0,0.45,0c0.28,0,1.28,0,3,0c0.25,0,0.54,0,0.86,0c0.3,0,0.52,0,0.66,0h0.52
			C960.61,1326.99,960.87,1327.09,960.87,1327.29z"/>
		<path fill="#4D4E4E" d="M984.34,1338.65c0,3.95-1.41,7.03-4.22,9.23c-2.06,1.62-4.81,2.43-8.27,2.43c-0.09,0-0.5,0-1.22,0
			c-0.72,0-1.77,0-3.14,0h-1.71h-2.71c-0.16,0-0.33,0-0.51,0c-0.43,0-0.65-0.11-0.65-0.34c0-0.2,0.37-0.3,1.1-0.3
			c0.94,0,1.52-0.17,1.75-0.5c0.09-0.16,0.14-0.58,0.14-1.28v-18.11c0-1.1-0.09-1.74-0.26-1.92c-0.17-0.18-0.76-0.27-1.77-0.27
			c-0.53,0-0.79-0.12-0.79-0.37c0-0.18,0.19-0.27,0.58-0.27c-0.02,0,0.23,0,0.75,0c0.53,0,1.04,0,1.54,0h3.67
			c4.12,0,7.03,0.28,8.75,0.84c2.08,0.67,3.76,2,5.04,3.99C983.7,1333.78,984.34,1336.07,984.34,1338.65z M980.5,1338.52
			c0-3.73-0.74-6.46-2.23-8.21c-1.49-1.74-3.81-2.61-6.96-2.61c-1.53,0-2.46,0.16-2.78,0.47c-0.14,0.16-0.21,0.7-0.21,1.62v17.93
			c0,0.63,0.02,1.01,0.05,1.15c0.03,0.14,0.13,0.25,0.29,0.34c0.55,0.27,1.7,0.4,3.46,0.4c2.47,0,4.46-0.85,5.97-2.56
			C979.7,1345.25,980.5,1342.4,980.5,1338.52z"/>
		<path fill="#4D4E4E" d="M1005.03,1344.9c0,0.09-0.02,0.64-0.07,1.65c-0.05,1.01-0.07,1.97-0.07,2.89v1.11
			c-2.24-0.13-6.68-0.2-13.31-0.2c-0.8,0-1.59,0-2.37,0s-1.3,0-1.58,0h-0.34c-0.43,0-0.65-0.09-0.65-0.27
			c0-0.12,0.07-0.19,0.21-0.21c0.07,0,0.5-0.03,1.3-0.09c0.59-0.04,0.96-0.17,1.08-0.37c0.12-0.2,0.19-0.73,0.19-1.58v-18.94
			c0-0.65-0.1-1.04-0.29-1.16c-0.19-0.12-0.82-0.19-1.87-0.19c-0.37,0-0.55-0.09-0.55-0.29s0.25-0.29,0.75-0.29h5.87
			c0.21,0,1.5,0,3.88,0c2.38,0,3.98,0,4.8,0c0.69,0,1.32-0.04,1.89-0.13c0.05,0.96,0.15,2.3,0.31,4l0.14,1.45
			c0.02,0.11,0.03,0.26,0.03,0.44c0,0.22-0.1,0.34-0.31,0.34c-0.25,0-0.43-0.28-0.55-0.84c-0.43-2.03-1.14-3.31-2.13-3.86
			c-0.73-0.41-2.65-0.61-5.76-0.61h-2.81v9.88h0.82c2.56,0,4.12-0.19,4.68-0.57c0.56-0.38,0.94-1.49,1.15-3.33
			c0.05-0.47,0.17-0.71,0.38-0.71c0.25,0,0.38,0.2,0.38,0.6s-0.02,1-0.07,1.78s-0.07,1.38-0.07,1.78c0,2.4,0.04,4.04,0.11,4.94
			c0.02,0.22,0.03,0.42,0.03,0.57c0,0.29-0.12,0.44-0.38,0.44c-0.16,0-0.27-0.09-0.32-0.29c-0.06-0.19-0.15-0.81-0.29-1.87
			c-0.18-1.32-0.74-2.14-1.67-2.45c-0.41-0.13-1.48-0.2-3.21-0.2h-1.54v11.26c5.03,0,7.98-0.1,8.85-0.3
			c1.51-0.33,2.37-1.75,2.57-4.25c0.04-0.55,0.19-0.83,0.45-0.83C1004.91,1344.2,1005.03,1344.43,1005.03,1344.9z"/>
		<path fill="#4D4E4E" d="M1027.77,1327.3c0,0.22-0.29,0.32-0.86,0.3h-0.75h-0.62c-0.37,0-0.58,0.06-0.65,0.19
			c-0.07,0.12-0.1,0.5-0.1,1.12v19.33c0,1.18-0.01,1.88-0.03,2.08c-0.02,0.2-0.09,0.3-0.21,0.3c-0.14,0-0.3-0.12-0.48-0.37
			l-4.38-6.29c-2.54-3.65-5.63-8.21-9.27-13.68v18.76c0.02,0.29,0.2,0.48,0.52,0.55c0.32,0.08,1.1,0.13,2.32,0.15
			c0.3,0,0.45,0.09,0.45,0.27c0,0.22-0.3,0.34-0.89,0.34c-0.21,0-0.86-0.03-1.96-0.1c-0.37-0.02-0.72-0.03-1.06-0.03
			c0.02,0-0.18,0.02-0.6,0.07c-0.42,0.04-1.07,0.07-1.94,0.07h-0.34c-0.53,0-0.79-0.1-0.79-0.3c0-0.2,0.23-0.3,0.69-0.3
			c1.35-0.02,2.13-0.11,2.35-0.25c0.22-0.15,0.33-0.62,0.33-1.43v-16.59c0-1.86-0.39-3.03-1.17-3.5c-0.37-0.22-1.02-0.34-1.96-0.34
			c-0.59,0-0.89-0.12-0.89-0.35c0-0.21,0.17-0.32,0.51-0.32c0.46,0,1.04,0.02,1.75,0.07c0.71,0.05,1.09,0.07,1.13,0.07
			c0.07,0,0.39-0.01,0.96-0.03c0.75,0,1.49-0.03,2.2-0.1l11.84,17.3v-14.95c0-0.69-0.01-1.11-0.03-1.26s-0.11-0.26-0.27-0.34
			s-0.71-0.12-1.65-0.12c-0.82,0-1.24-0.1-1.24-0.3c0-0.22,0.27-0.34,0.82-0.34h1.2c0.3,0,0.62,0,0.96,0c0.37,0,0.58,0,0.65,0
			c0.02,0,0.23,0,0.62,0c0.37,0,0.71,0,1.03,0h1.06C1027.52,1326.96,1027.77,1327.07,1027.77,1327.3z"/>
		<path fill="#4D4E4E" d="M1047.81,1332.97c0,0.29-0.14,0.44-0.41,0.44s-0.47-0.29-0.58-0.87c-0.05-0.4-0.09-0.81-0.14-1.21
			c-0.16-0.81-0.42-1.49-0.79-2.05c-0.48-0.74-1.27-1.21-2.37-1.41c-0.71-0.13-1.28-0.19-1.71-0.17c-1.08,0.03-1.73,0.05-1.96,0.07
			v20.29c0,0.81,0.22,1.31,0.65,1.51c0.23,0.11,0.87,0.18,1.92,0.2c0.27,0.02,0.41,0.12,0.41,0.29c0,0.19-0.18,0.29-0.55,0.29
			c-0.18,0-0.34-0.01-0.48-0.03c-1.37-0.04-2.34-0.07-2.92-0.07c-0.75,0-1.46,0.02-2.13,0.05c-0.66,0.03-1.51,0.05-2.54,0.05
			c-0.53,0-0.79-0.09-0.79-0.27c0-0.2,0.49-0.31,1.48-0.34c0.71,0,1.17-0.15,1.37-0.44c0.11-0.18,0.17-0.64,0.17-1.38v-20.16
			c-2.26,0.02-3.67,0.13-4.22,0.34c-1.44,0.52-2.29,1.89-2.54,4.13c-0.07,0.67-0.23,1.01-0.48,1.01c-0.27,0-0.41-0.24-0.41-0.71
			c0-0.25,0.01-0.49,0.03-0.74l0.07-0.77c0.07-1.03,0.17-2.39,0.31-4.07h1.54l7,0.1c0.82,0.02,2.1,0.02,3.84,0l5.7-0.1
			c0.04,1.25,0.19,3.11,0.45,5.58c0,0.07,0.01,0.15,0.03,0.25C1047.79,1332.89,1047.81,1332.95,1047.81,1332.97z"/>
		<path fill="#4D4E4E" d="M517.48,1440c0,0.27-0.25,0.41-0.74,0.41c-0.33,0-0.62-0.02-0.88-0.05l-6.22-0.19l-6.22,0.19
			c-0.23,0.03-0.47,0.05-0.73,0.05c-0.65,0-0.98-0.17-0.98-0.5c0-0.37,0.44-0.55,1.32-0.55c2.88-0.03,4.31-0.31,4.31-0.85
			c0-0.03-0.03-0.16-0.1-0.38l-0.4-1.27l-0.25-0.67c-0.29-0.99-1.01-3.19-2.15-6.58h-10.48c-1.96,5.12-2.94,8.06-2.94,8.83
			c0,0.45,0.2,0.72,0.59,0.82c0.1,0.03,0.92,0.1,2.45,0.19c0.95,0.03,1.42,0.19,1.42,0.48c0,0.32-0.42,0.48-1.27,0.48
			c-1.5,0-3.25-0.06-5.24-0.19c-0.49-0.03-1-0.05-1.52-0.05s-1.03,0.05-1.52,0.16c-0.26,0.05-0.47,0.08-0.64,0.08
			c-0.46,0-0.69-0.14-0.69-0.43c0-0.29,0.51-0.45,1.54-0.48c1.03-0.03,1.77-0.18,2.23-0.46c0.46-0.27,0.82-0.79,1.08-1.57
			c4.2-11.82,7.62-21.3,10.26-28.46c0.08-0.38,0.23-0.8,0.46-1.27l0.21-0.88c0.1-0.35,0.23-0.53,0.39-0.53c0.1,0,0.18,0.1,0.25,0.29
			c0.42,1.25,1.39,3.86,2.89,7.82c1.18,3.1,4.1,10.9,8.77,23.38c0.26,0.72,0.6,1.19,1,1.38c0.41,0.2,1.25,0.31,2.52,0.35
			C517.06,1439.57,517.48,1439.73,517.48,1440z M504.16,1428.5c-0.53-1.44-1.41-3.82-2.64-7.14l-2.35-6.65
			c-1.36,3.54-3.01,8.13-4.92,13.79H504.16z"/>
		<path fill="#4D4E4E" d="M535.66,1439.3c0,0.94-0.8,1.41-2.4,1.41c-1.78,0-3.18-0.73-4.19-2.18c-0.44-0.63-0.72-1.23-0.84-1.81
			c-0.13-0.58-0.31-2.06-0.57-4.44c-0.14-1.43-0.61-2.45-1.41-3.04c-0.8-0.59-2.1-0.91-3.91-0.96v10.58c0,0.45,0.37,0.73,1.1,0.84
			c0.21,0.02,0.73,0.04,1.58,0.07c0.3,0,0.45,0.09,0.45,0.27c0,0.2-0.19,0.3-0.58,0.3h-0.41c-0.21,0-1.2,0-2.98,0
			c-0.34,0-0.93,0-1.75,0c-0.8,0-1.33,0-1.58,0h-1.34c-0.5,0-0.75-0.1-0.75-0.3c0-0.16,0.33-0.25,1-0.27
			c1.07-0.02,1.66-0.16,1.75-0.4c0.09-0.11,0.14-0.55,0.14-1.31v-18.55c0-0.9-0.1-1.43-0.29-1.61c-0.19-0.18-0.78-0.28-1.77-0.3
			c-0.57,0-0.86-0.1-0.86-0.3c0-0.22,0.18-0.34,0.55-0.34c0.07,0,0.17,0.01,0.31,0.03l4.56,0.1c0.46,0,1.1-0.01,1.92-0.04
			c0.91-0.06,1.55-0.09,1.92-0.09c2.13,0,3.81,0.46,5.06,1.39c1.25,0.93,1.87,2.19,1.87,3.78c0,1.57-0.64,2.86-1.92,3.88
			c-1.28,1.02-3.02,1.62-5.21,1.8c-0.21,0.02-0.32,0.06-0.34,0.1c0,0.09,0.11,0.13,0.34,0.13c2.4,0.4,4.05,1.23,4.96,2.48
			c0.9,1.25,1.5,3.5,1.8,6.76c0.18,1.84,0.82,2.76,1.92,2.76c0.34,0,0.51-0.07,0.51-0.2c0-0.02-0.01-0.04-0.04-0.07
			c-0.11-0.25-0.17-0.45-0.17-0.6c0-0.47,0.25-0.71,0.75-0.71C535.38,1438.46,535.66,1438.74,535.66,1439.3z M528.56,1422.47
			c0-3.2-1.42-4.8-4.25-4.8c-0.75,0-1.27,0.1-1.54,0.3c-0.27,0.2-0.41,0.56-0.41,1.08v8.53c2.2,0.02,3.78-0.37,4.75-1.18
			C528.07,1425.59,528.56,1424.28,528.56,1422.47z"/>
		<path fill="#4D4E4E" d="M555.04,1422.97c0,0.29-0.14,0.44-0.41,0.44s-0.47-0.29-0.58-0.87c-0.05-0.4-0.09-0.81-0.14-1.21
			c-0.16-0.81-0.42-1.49-0.79-2.05c-0.48-0.74-1.27-1.21-2.37-1.41c-0.71-0.13-1.28-0.19-1.71-0.17c-1.08,0.03-1.73,0.05-1.96,0.07
			v20.29c0,0.81,0.22,1.31,0.65,1.51c0.23,0.11,0.87,0.18,1.92,0.2c0.27,0.02,0.41,0.12,0.41,0.29c0,0.19-0.18,0.29-0.55,0.29
			c-0.18,0-0.34-0.01-0.48-0.03c-1.37-0.04-2.34-0.07-2.92-0.07c-0.75,0-1.46,0.02-2.13,0.05c-0.66,0.03-1.51,0.05-2.54,0.05
			c-0.53,0-0.79-0.09-0.79-0.27c0-0.2,0.49-0.31,1.48-0.34c0.71,0,1.17-0.15,1.37-0.44c0.11-0.18,0.17-0.64,0.17-1.38v-20.16
			c-2.26,0.02-3.67,0.13-4.22,0.34c-1.44,0.52-2.29,1.89-2.54,4.13c-0.07,0.67-0.23,1.01-0.48,1.01c-0.27,0-0.41-0.24-0.41-0.71
			c0-0.25,0.01-0.49,0.03-0.74l0.07-0.77c0.07-1.03,0.17-2.39,0.31-4.07h1.54l7,0.1c0.82,0.02,2.1,0.02,3.84,0l5.7-0.1
			c0.04,1.25,0.19,3.11,0.45,5.58c0,0.07,0.01,0.15,0.03,0.25C555.03,1422.89,555.04,1422.95,555.04,1422.97z"/>
		<path fill="#4D4E4E" d="M565.47,1440.03c0,0.19-0.14,0.29-0.41,0.29h-0.34c-0.14-0.07-1.7-0.1-4.68-0.1
			c-0.57,0-1.15,0.02-1.72,0.07c-0.3,0.02-0.76,0.03-1.38,0.03c-0.3,0-0.45-0.1-0.45-0.3c0-0.18,0.3-0.28,0.89-0.3
			c0.91-0.02,1.45-0.13,1.61-0.32c0.16-0.19,0.24-0.84,0.24-1.94v-17.73c0-1.1-0.06-1.72-0.17-1.85c-0.14-0.22-0.78-0.36-1.91-0.4
			c-0.44-0.02-0.66-0.1-0.66-0.24c0-0.18,0.14-0.27,0.42-0.27h4.69c0.35,0,1.02,0.01,2.01,0.03l1.32-0.03
			c0.37,0,0.56,0.09,0.56,0.29c0,0.17-0.52,0.28-1.55,0.32c-0.59,0.02-0.94,0.12-1.07,0.3c-0.13,0.18-0.19,0.65-0.19,1.41v17.94
			c0,1.28,0.06,1.97,0.17,2.08c0.25,0.25,1.01,0.39,2.26,0.44C565.34,1439.74,565.47,1439.84,565.47,1440.03z"/>
		<path fill="#4D4E4E" d="M582.42,1433.76c0,1.93-0.75,3.57-2.25,4.92c-1.5,1.36-3.3,2.03-5.4,2.03c-1.23,0-2.71-0.37-4.43-1.11
			c-0.46-0.2-0.8-0.3-1.03-0.3c-0.27,0-0.45,0.31-0.51,0.93c-0.02,0.32-0.17,0.48-0.45,0.48c-0.23,0-0.34-0.13-0.34-0.4
			c0-0.18,0.01-0.31,0.04-0.4c0.18-1.37,0.27-2.63,0.27-3.8c0-0.22-0.02-0.85-0.07-1.88c-0.02-0.13-0.03-0.31-0.03-0.54
			c0-0.34,0.14-0.5,0.41-0.5c0.23,0,0.39,0.27,0.48,0.81c0.59,4.03,2.53,6.04,5.8,6.04c1.39,0,2.48-0.39,3.24-1.16
			c0.77-0.77,1.15-1.87,1.15-3.28c0-1.25-0.37-2.32-1.12-3.21c-0.74-0.88-2.02-1.76-3.83-2.64c-2.17-1.05-3.68-2.07-4.53-3.06
			c-0.85-0.99-1.27-2.21-1.27-3.66c0-1.86,0.61-3.39,1.83-4.6c1.22-1.21,2.77-1.81,4.65-1.81c0.78,0,1.85,0.26,3.23,0.77
			c0.48,0.18,0.83,0.27,1.06,0.27c0.25,0,0.42-0.04,0.5-0.13c0.08-0.09,0.15-0.32,0.22-0.71c0.05-0.22,0.17-0.34,0.38-0.34
			c0.23,0,0.34,0.13,0.34,0.4c0,0.18-0.01,0.31-0.03,0.4c-0.07,0.54-0.1,1.19-0.1,1.95c0,1.08,0.06,1.93,0.17,2.55l0.03,0.54
			c0.02,0.25-0.08,0.37-0.31,0.37c-0.25,0-0.42-0.26-0.51-0.77c-0.25-1.32-0.85-2.42-1.78-3.31c-0.94-0.88-1.99-1.33-3.16-1.33
			c-1.14,0-2.05,0.36-2.73,1.08s-1.01,1.69-1.01,2.92c0,1.43,0.49,2.59,1.48,3.46c0.55,0.49,1.74,1.19,3.57,2.08
			c2.15,1.05,3.69,2.12,4.63,3.21C581.95,1431.13,582.42,1432.37,582.42,1433.76z"/>
		<path fill="#4D4E4E" d="M603,1422.97c0,0.29-0.14,0.44-0.41,0.44s-0.47-0.29-0.58-0.87c-0.05-0.4-0.09-0.81-0.14-1.21
			c-0.16-0.81-0.42-1.49-0.79-2.05c-0.48-0.74-1.27-1.21-2.37-1.41c-0.71-0.13-1.28-0.19-1.71-0.17c-1.08,0.03-1.73,0.05-1.96,0.07
			v20.29c0,0.81,0.22,1.31,0.65,1.51c0.23,0.11,0.87,0.18,1.92,0.2c0.27,0.02,0.41,0.12,0.41,0.29c0,0.19-0.18,0.29-0.55,0.29
			c-0.18,0-0.34-0.01-0.48-0.03c-1.37-0.04-2.34-0.07-2.92-0.07c-0.75,0-1.46,0.02-2.13,0.05c-0.66,0.03-1.51,0.05-2.54,0.05
			c-0.53,0-0.79-0.09-0.79-0.27c0-0.2,0.49-0.31,1.48-0.34c0.71,0,1.17-0.15,1.37-0.44c0.11-0.18,0.17-0.64,0.17-1.38v-20.16
			c-2.26,0.02-3.67,0.13-4.22,0.34c-1.44,0.52-2.29,1.89-2.54,4.13c-0.07,0.67-0.23,1.01-0.48,1.01c-0.27,0-0.41-0.24-0.41-0.71
			c0-0.25,0.01-0.49,0.03-0.74l0.07-0.77c0.07-1.03,0.17-2.39,0.31-4.07h1.54l7,0.1c0.82,0.02,2.1,0.02,3.84,0l5.7-0.1
			c0.04,1.25,0.19,3.11,0.45,5.58c0,0.07,0.01,0.15,0.03,0.25C602.99,1422.89,603,1422.95,603,1422.97z"/>
		<path fill="#4D4E4E" d="M622.55,1440.03c0,0.19-0.14,0.29-0.41,0.29h-0.34c-0.14-0.07-1.7-0.1-4.68-0.1
			c-0.57,0-1.15,0.02-1.72,0.07c-0.3,0.02-0.76,0.03-1.38,0.03c-0.3,0-0.45-0.1-0.45-0.3c0-0.18,0.3-0.28,0.89-0.3
			c0.91-0.02,1.45-0.13,1.61-0.32c0.16-0.19,0.24-0.84,0.24-1.94v-17.73c0-1.1-0.06-1.72-0.17-1.85c-0.14-0.22-0.78-0.36-1.91-0.4
			c-0.44-0.02-0.66-0.1-0.66-0.24c0-0.18,0.14-0.27,0.42-0.27h4.69c0.35,0,1.02,0.01,2.01,0.03l1.32-0.03
			c0.37,0,0.56,0.09,0.56,0.29c0,0.17-0.52,0.28-1.55,0.32c-0.59,0.02-0.94,0.12-1.07,0.3c-0.13,0.18-0.19,0.65-0.19,1.41v17.94
			c0,1.28,0.06,1.97,0.17,2.08c0.25,0.25,1.01,0.39,2.26,0.44C622.42,1439.74,622.55,1439.84,622.55,1440.03z"/>
		<path fill="#4D4E4E" d="M645.46,1417.3c0,0.22-0.29,0.32-0.86,0.3h-0.75h-0.62c-0.37,0-0.58,0.06-0.65,0.19
			c-0.07,0.12-0.1,0.5-0.1,1.12v19.33c0,1.18-0.01,1.88-0.03,2.08c-0.02,0.2-0.09,0.3-0.21,0.3c-0.14,0-0.3-0.12-0.48-0.37
			l-4.38-6.29c-2.54-3.65-5.63-8.21-9.27-13.68v18.76c0.02,0.29,0.2,0.48,0.52,0.55c0.32,0.08,1.1,0.13,2.32,0.15
			c0.3,0,0.45,0.09,0.45,0.27c0,0.22-0.3,0.34-0.89,0.34c-0.21,0-0.86-0.03-1.96-0.1c-0.37-0.02-0.72-0.03-1.06-0.03
			c0.02,0-0.18,0.02-0.6,0.07c-0.42,0.04-1.07,0.07-1.94,0.07h-0.34c-0.53,0-0.79-0.1-0.79-0.3c0-0.2,0.23-0.3,0.69-0.3
			c1.35-0.02,2.13-0.11,2.35-0.25c0.22-0.15,0.33-0.62,0.33-1.43v-16.59c0-1.86-0.39-3.03-1.17-3.5c-0.37-0.22-1.02-0.34-1.96-0.34
			c-0.59,0-0.89-0.12-0.89-0.35c0-0.21,0.17-0.32,0.51-0.32c0.46,0,1.04,0.02,1.75,0.07c0.71,0.05,1.09,0.07,1.13,0.07
			c0.07,0,0.39-0.01,0.96-0.03c0.75,0,1.49-0.03,2.2-0.1l11.84,17.3v-14.95c0-0.69-0.01-1.11-0.03-1.26s-0.11-0.26-0.27-0.34
			s-0.71-0.12-1.65-0.12c-0.82,0-1.24-0.1-1.24-0.3c0-0.22,0.27-0.34,0.82-0.34h1.2c0.3,0,0.62,0,0.96,0c0.37,0,0.58,0,0.65,0
			c0.02,0,0.23,0,0.62,0c0.37,0,0.71,0,1.03,0h1.06C645.21,1416.96,645.46,1417.07,645.46,1417.3z"/>
		<path fill="#4D4E4E" d="M678.18,1428.65c0,3.95-1.41,7.03-4.22,9.23c-2.06,1.62-4.81,2.43-8.27,2.43c-0.09,0-0.5,0-1.22,0
			c-0.72,0-1.77,0-3.14,0h-1.71h-2.71c-0.16,0-0.33,0-0.51,0c-0.43,0-0.65-0.11-0.65-0.34c0-0.2,0.37-0.3,1.1-0.3
			c0.94,0,1.52-0.17,1.75-0.5c0.09-0.16,0.14-0.58,0.14-1.28v-18.11c0-1.1-0.09-1.74-0.26-1.92c-0.17-0.18-0.76-0.27-1.77-0.27
			c-0.53,0-0.79-0.12-0.79-0.37c0-0.18,0.19-0.27,0.58-0.27c-0.02,0,0.23,0,0.75,0c0.53,0,1.04,0,1.54,0h3.67
			c4.12,0,7.03,0.28,8.75,0.84c2.08,0.67,3.76,2,5.04,3.99C677.54,1423.78,678.18,1426.07,678.18,1428.65z M674.34,1428.52
			c0-3.73-0.74-6.46-2.23-8.21c-1.49-1.74-3.81-2.61-6.96-2.61c-1.53,0-2.46,0.16-2.78,0.47c-0.14,0.16-0.21,0.7-0.21,1.62v17.93
			c0,0.63,0.02,1.01,0.05,1.15c0.03,0.14,0.13,0.25,0.29,0.34c0.55,0.27,1.7,0.4,3.46,0.4c2.47,0,4.46-0.85,5.97-2.56
			C673.54,1435.25,674.34,1432.4,674.34,1428.52z"/>
		<path fill="#4D4E4E" d="M689.5,1440.03c0,0.19-0.14,0.29-0.41,0.29h-0.34c-0.14-0.07-1.7-0.1-4.68-0.1
			c-0.57,0-1.15,0.02-1.72,0.07c-0.3,0.02-0.76,0.03-1.38,0.03c-0.3,0-0.45-0.1-0.45-0.3c0-0.18,0.3-0.28,0.89-0.3
			c0.91-0.02,1.45-0.13,1.61-0.32c0.16-0.19,0.24-0.84,0.24-1.94v-17.73c0-1.1-0.06-1.72-0.17-1.85c-0.14-0.22-0.78-0.36-1.91-0.4
			c-0.44-0.02-0.66-0.1-0.66-0.24c0-0.18,0.14-0.27,0.42-0.27h4.69c0.35,0,1.02,0.01,2.01,0.03l1.32-0.03
			c0.37,0,0.56,0.09,0.56,0.29c0,0.17-0.52,0.28-1.55,0.32c-0.59,0.02-0.94,0.12-1.07,0.3c-0.13,0.18-0.19,0.65-0.19,1.41v17.94
			c0,1.28,0.06,1.97,0.17,2.08c0.25,0.25,1.01,0.39,2.26,0.44C689.38,1439.74,689.5,1439.84,689.5,1440.03z"/>
		<path fill="#4D4E4E" d="M708.99,1422.57c0,0.31-0.11,0.47-0.34,0.47c-0.23,0-0.39-0.28-0.48-0.85c-0.27-1.63-0.83-2.82-1.68-3.57
			c-0.55-0.48-1.4-0.77-2.54-0.88c-0.41-0.04-1.33-0.07-2.75-0.07c-1.05,0-2.31,0.03-3.77,0.1v9.88c2.93,0.02,4.73-0.16,5.42-0.55
			c0.69-0.39,1.1-1.5,1.23-3.31c0.05-0.51,0.18-0.77,0.41-0.77s0.34,0.17,0.34,0.5c0,0.2-0.01,0.37-0.03,0.5
			c-0.07,1.55-0.1,2.98-0.1,4.3c0,1.7,0.04,3.05,0.11,4.03c0.02,0.09,0.03,0.22,0.03,0.4c0,0.27-0.11,0.4-0.34,0.4
			c-0.18,0-0.3-0.07-0.34-0.2c-0.04-0.13-0.12-0.65-0.24-1.55c-0.18-1.37-0.54-2.22-1.08-2.55c-0.53-0.34-1.6-0.5-3.19-0.5
			c-0.84,0-1.58,0.02-2.22,0.07v3.43v6.58c0,0.65,0.26,1.06,0.78,1.24c0.25,0.09,0.8,0.12,1.66,0.1c0.36,0,0.54,0.09,0.54,0.27
			c0,0.2-0.23,0.3-0.69,0.3h-0.34c-0.32,0-0.75,0-1.3,0c-0.53,0-0.88,0-1.06,0h-5.11c-0.43,0-0.65-0.09-0.65-0.27
			s0.39-0.29,1.18-0.34c0.79-0.04,1.25-0.15,1.39-0.32c0.14-0.17,0.21-0.69,0.21-1.57v-19.34c-0.02-0.4-0.15-0.66-0.37-0.76
			c-0.22-0.1-0.82-0.16-1.79-0.19c-0.37,0-0.56-0.11-0.56-0.33c0-0.2,0.21-0.3,0.62-0.3h0.55c-0.05,0,1.06,0,3.31,0s4.1,0,5.54,0
			c3.87,0,6.23-0.07,7.1-0.2c0.02,0.29,0.09,1.13,0.21,2.52c0.07,0.94,0.16,1.78,0.27,2.52
			C708.97,1422.08,708.99,1422.35,708.99,1422.57z"/>
		<path fill="#4D4E4E" d="M727.62,1422.57c0,0.31-0.11,0.47-0.34,0.47c-0.23,0-0.39-0.28-0.48-0.85c-0.27-1.63-0.83-2.82-1.68-3.57
			c-0.55-0.48-1.4-0.77-2.54-0.88c-0.41-0.04-1.33-0.07-2.75-0.07c-1.05,0-2.31,0.03-3.77,0.1v9.88c2.93,0.02,4.73-0.16,5.42-0.55
			c0.69-0.39,1.1-1.5,1.23-3.31c0.05-0.51,0.18-0.77,0.41-0.77s0.34,0.17,0.34,0.5c0,0.2-0.01,0.37-0.03,0.5
			c-0.07,1.55-0.1,2.98-0.1,4.3c0,1.7,0.04,3.05,0.11,4.03c0.02,0.09,0.03,0.22,0.03,0.4c0,0.27-0.11,0.4-0.34,0.4
			c-0.18,0-0.3-0.07-0.34-0.2c-0.04-0.13-0.12-0.65-0.24-1.55c-0.18-1.37-0.54-2.22-1.08-2.55c-0.53-0.34-1.6-0.5-3.19-0.5
			c-0.84,0-1.58,0.02-2.22,0.07v3.43v6.58c0,0.65,0.26,1.06,0.78,1.24c0.25,0.09,0.8,0.12,1.66,0.1c0.36,0,0.54,0.09,0.54,0.27
			c0,0.2-0.23,0.3-0.69,0.3h-0.34c-0.32,0-0.75,0-1.3,0c-0.53,0-0.88,0-1.06,0h-5.11c-0.43,0-0.65-0.09-0.65-0.27
			s0.39-0.29,1.18-0.34c0.79-0.04,1.25-0.15,1.39-0.32c0.14-0.17,0.21-0.69,0.21-1.57v-19.34c-0.02-0.4-0.15-0.66-0.37-0.76
			c-0.22-0.1-0.82-0.16-1.79-0.19c-0.37,0-0.56-0.11-0.56-0.33c0-0.2,0.21-0.3,0.62-0.3h0.55c-0.05,0,1.06,0,3.31,0s4.1,0,5.54,0
			c3.87,0,6.23-0.07,7.1-0.2c0.02,0.29,0.09,1.13,0.21,2.52c0.07,0.94,0.16,1.78,0.27,2.52
			C727.6,1422.08,727.62,1422.35,727.62,1422.57z"/>
		<path fill="#4D4E4E" d="M746.9,1434.9c0,0.09-0.02,0.64-0.07,1.65c-0.05,1.01-0.07,1.97-0.07,2.89v1.11
			c-2.24-0.13-6.68-0.2-13.31-0.2c-0.8,0-1.59,0-2.37,0s-1.3,0-1.58,0h-0.34c-0.43,0-0.65-0.09-0.65-0.27
			c0-0.12,0.07-0.19,0.21-0.21c0.07,0,0.5-0.03,1.3-0.09c0.59-0.04,0.96-0.17,1.08-0.37c0.12-0.2,0.19-0.73,0.19-1.58v-18.94
			c0-0.65-0.1-1.04-0.29-1.16c-0.19-0.12-0.82-0.19-1.87-0.19c-0.37,0-0.55-0.09-0.55-0.29s0.25-0.29,0.75-0.29h5.87
			c0.21,0,1.5,0,3.88,0c2.38,0,3.98,0,4.8,0c0.69,0,1.32-0.04,1.89-0.13c0.05,0.96,0.15,2.3,0.31,4l0.14,1.45
			c0.02,0.11,0.03,0.26,0.03,0.44c0,0.22-0.1,0.34-0.31,0.34c-0.25,0-0.43-0.28-0.55-0.84c-0.43-2.03-1.14-3.31-2.13-3.86
			c-0.73-0.41-2.65-0.61-5.76-0.61h-2.81v9.88h0.82c2.56,0,4.12-0.19,4.68-0.57c0.56-0.38,0.94-1.49,1.15-3.33
			c0.05-0.47,0.17-0.71,0.38-0.71c0.25,0,0.38,0.2,0.38,0.6s-0.02,1-0.07,1.78s-0.07,1.38-0.07,1.78c0,2.4,0.04,4.04,0.11,4.94
			c0.02,0.22,0.03,0.42,0.03,0.57c0,0.29-0.12,0.44-0.38,0.44c-0.16,0-0.27-0.09-0.32-0.29c-0.06-0.19-0.15-0.81-0.29-1.87
			c-0.18-1.32-0.74-2.14-1.67-2.45c-0.41-0.13-1.48-0.2-3.21-0.2h-1.54v11.26c5.03,0,7.98-0.1,8.85-0.3
			c1.51-0.33,2.37-1.75,2.57-4.25c0.04-0.55,0.19-0.83,0.45-0.83C746.79,1434.2,746.9,1434.43,746.9,1434.9z"/>
		<path fill="#4D4E4E" d="M767.97,1439.3c0,0.94-0.8,1.41-2.4,1.41c-1.78,0-3.18-0.73-4.19-2.18c-0.44-0.63-0.72-1.23-0.84-1.81
			c-0.13-0.58-0.31-2.06-0.57-4.44c-0.14-1.43-0.61-2.45-1.41-3.04c-0.8-0.59-2.1-0.91-3.91-0.96v10.58c0,0.45,0.37,0.73,1.1,0.84
			c0.21,0.02,0.73,0.04,1.58,0.07c0.3,0,0.45,0.09,0.45,0.27c0,0.2-0.19,0.3-0.58,0.3h-0.41c-0.21,0-1.2,0-2.98,0
			c-0.34,0-0.93,0-1.75,0c-0.8,0-1.33,0-1.58,0h-1.34c-0.5,0-0.75-0.1-0.75-0.3c0-0.16,0.33-0.25,1-0.27
			c1.07-0.02,1.66-0.16,1.75-0.4c0.09-0.11,0.14-0.55,0.14-1.31v-18.55c0-0.9-0.1-1.43-0.29-1.61c-0.19-0.18-0.78-0.28-1.77-0.3
			c-0.57,0-0.86-0.1-0.86-0.3c0-0.22,0.18-0.34,0.55-0.34c0.07,0,0.17,0.01,0.31,0.03l4.56,0.1c0.46,0,1.1-0.01,1.92-0.04
			c0.91-0.06,1.55-0.09,1.92-0.09c2.13,0,3.81,0.46,5.06,1.39c1.25,0.93,1.87,2.19,1.87,3.78c0,1.57-0.64,2.86-1.92,3.88
			c-1.28,1.02-3.02,1.62-5.21,1.8c-0.21,0.02-0.32,0.06-0.34,0.1c0,0.09,0.11,0.13,0.34,0.13c2.4,0.4,4.05,1.23,4.96,2.48
			c0.9,1.25,1.5,3.5,1.8,6.76c0.18,1.84,0.82,2.76,1.92,2.76c0.34,0,0.51-0.07,0.51-0.2c0-0.02-0.01-0.04-0.04-0.07
			c-0.11-0.25-0.17-0.45-0.17-0.6c0-0.47,0.25-0.71,0.75-0.71C767.69,1438.46,767.97,1438.74,767.97,1439.3z M760.86,1422.47
			c0-3.2-1.42-4.8-4.25-4.8c-0.75,0-1.27,0.1-1.54,0.3c-0.27,0.2-0.41,0.56-0.41,1.08v8.53c2.2,0.02,3.78-0.37,4.75-1.18
			C760.38,1425.59,760.86,1424.28,760.86,1422.47z"/>
		<path fill="#4D4E4E" d="M787.04,1434.9c0,0.09-0.02,0.64-0.07,1.65c-0.05,1.01-0.07,1.97-0.07,2.89v1.11
			c-2.24-0.13-6.68-0.2-13.31-0.2c-0.8,0-1.59,0-2.37,0s-1.3,0-1.58,0h-0.34c-0.43,0-0.65-0.09-0.65-0.27
			c0-0.12,0.07-0.19,0.21-0.21c0.07,0,0.5-0.03,1.3-0.09c0.59-0.04,0.96-0.17,1.08-0.37c0.12-0.2,0.19-0.73,0.19-1.58v-18.94
			c0-0.65-0.1-1.04-0.29-1.16c-0.19-0.12-0.82-0.19-1.87-0.19c-0.37,0-0.55-0.09-0.55-0.29s0.25-0.29,0.75-0.29h5.87
			c0.21,0,1.5,0,3.88,0c2.38,0,3.98,0,4.8,0c0.69,0,1.32-0.04,1.89-0.13c0.05,0.96,0.15,2.3,0.31,4l0.14,1.45
			c0.02,0.11,0.03,0.26,0.03,0.44c0,0.22-0.1,0.34-0.31,0.34c-0.25,0-0.43-0.28-0.55-0.84c-0.43-2.03-1.14-3.31-2.13-3.86
			c-0.73-0.41-2.65-0.61-5.76-0.61h-2.81v9.88h0.82c2.56,0,4.12-0.19,4.68-0.57c0.56-0.38,0.94-1.49,1.15-3.33
			c0.05-0.47,0.17-0.71,0.38-0.71c0.25,0,0.38,0.2,0.38,0.6s-0.02,1-0.07,1.78s-0.07,1.38-0.07,1.78c0,2.4,0.04,4.04,0.11,4.94
			c0.02,0.22,0.03,0.42,0.03,0.57c0,0.29-0.12,0.44-0.38,0.44c-0.16,0-0.27-0.09-0.32-0.29c-0.06-0.19-0.15-0.81-0.29-1.87
			c-0.18-1.32-0.74-2.14-1.67-2.45c-0.41-0.13-1.48-0.2-3.21-0.2h-1.54v11.26c5.03,0,7.98-0.1,8.85-0.3
			c1.51-0.33,2.37-1.75,2.57-4.25c0.04-0.55,0.19-0.83,0.45-0.83C786.92,1434.2,787.04,1434.43,787.04,1434.9z"/>
		<path fill="#4D4E4E" d="M809.79,1417.3c0,0.22-0.29,0.32-0.86,0.3h-0.75h-0.62c-0.37,0-0.58,0.06-0.65,0.19
			c-0.07,0.12-0.1,0.5-0.1,1.12v19.33c0,1.18-0.01,1.88-0.03,2.08c-0.02,0.2-0.09,0.3-0.21,0.3c-0.14,0-0.3-0.12-0.48-0.37
			l-4.38-6.29c-2.54-3.65-5.63-8.21-9.27-13.68v18.76c0.02,0.29,0.2,0.48,0.52,0.55c0.32,0.08,1.1,0.13,2.32,0.15
			c0.3,0,0.45,0.09,0.45,0.27c0,0.22-0.3,0.34-0.89,0.34c-0.21,0-0.86-0.03-1.96-0.1c-0.37-0.02-0.72-0.03-1.06-0.03
			c0.02,0-0.18,0.02-0.6,0.07c-0.42,0.04-1.07,0.07-1.94,0.07h-0.34c-0.53,0-0.79-0.1-0.79-0.3c0-0.2,0.23-0.3,0.69-0.3
			c1.35-0.02,2.13-0.11,2.35-0.25c0.22-0.15,0.33-0.62,0.33-1.43v-16.59c0-1.86-0.39-3.03-1.17-3.5c-0.37-0.22-1.02-0.34-1.96-0.34
			c-0.59,0-0.89-0.12-0.89-0.35c0-0.21,0.17-0.32,0.51-0.32c0.46,0,1.04,0.02,1.75,0.07c0.71,0.05,1.09,0.07,1.13,0.07
			c0.07,0,0.39-0.01,0.96-0.03c0.75,0,1.49-0.03,2.2-0.1l11.84,17.3v-14.95c0-0.69-0.01-1.11-0.03-1.26s-0.11-0.26-0.27-0.34
			s-0.71-0.12-1.65-0.12c-0.82,0-1.24-0.1-1.24-0.3c0-0.22,0.27-0.34,0.82-0.34h1.2c0.3,0,0.62,0,0.96,0c0.37,0,0.58,0,0.65,0
			c0.02,0,0.23,0,0.62,0c0.37,0,0.71,0,1.03,0h1.06C809.53,1416.96,809.79,1417.07,809.79,1417.3z"/>
		<path fill="#4D4E4E" d="M829.82,1422.97c0,0.29-0.14,0.44-0.41,0.44s-0.47-0.29-0.58-0.87c-0.05-0.4-0.09-0.81-0.14-1.21
			c-0.16-0.81-0.42-1.49-0.79-2.05c-0.48-0.74-1.27-1.21-2.37-1.41c-0.71-0.13-1.28-0.19-1.71-0.17c-1.08,0.03-1.73,0.05-1.96,0.07
			v20.29c0,0.81,0.22,1.31,0.65,1.51c0.23,0.11,0.87,0.18,1.92,0.2c0.27,0.02,0.41,0.12,0.41,0.29c0,0.19-0.18,0.29-0.55,0.29
			c-0.18,0-0.34-0.01-0.48-0.03c-1.37-0.04-2.34-0.07-2.92-0.07c-0.75,0-1.46,0.02-2.13,0.05c-0.66,0.03-1.51,0.05-2.54,0.05
			c-0.53,0-0.79-0.09-0.79-0.27c0-0.2,0.49-0.31,1.48-0.34c0.71,0,1.17-0.15,1.37-0.44c0.11-0.18,0.17-0.64,0.17-1.38v-20.16
			c-2.26,0.02-3.67,0.13-4.22,0.34c-1.44,0.52-2.29,1.89-2.54,4.13c-0.07,0.67-0.23,1.01-0.48,1.01c-0.27,0-0.41-0.24-0.41-0.71
			c0-0.25,0.01-0.49,0.03-0.74l0.07-0.77c0.07-1.03,0.17-2.39,0.31-4.07h1.54l7,0.1c0.82,0.02,2.1,0.02,3.84,0l5.7-0.1
			c0.04,1.25,0.19,3.11,0.45,5.58c0,0.07,0.01,0.15,0.03,0.25C829.81,1422.89,829.82,1422.95,829.82,1422.97z"/>
		<path fill="#4D4E4E" d="M865.08,1440.09c0,0.19-0.24,0.29-0.72,0.29h-0.38c-0.32,0-0.9,0-1.74,0c-0.84,0-1.49,0-1.95,0
			c-0.68,0-1.48,0-2.39,0c-0.94,0-1.55,0-1.85,0h-0.24c-0.48,0-0.72-0.1-0.72-0.3c0-0.22,0.33-0.34,1-0.34
			c1.17,0,1.88-0.12,2.13-0.37c0.11-0.11,0.17-0.86,0.17-2.25v-17.43c0,0.02-0.14,0.42-0.41,1.18c-0.92,2.71-2.25,6.78-4,12.22
			l-1.59,5.35c-0.32,1.05-0.55,1.58-0.69,1.58c-0.16,0-0.33-0.27-0.51-0.81c-0.66-2.04-2.53-7.13-5.6-15.26l-1.36-3.59
			c0,0.43,0,1.01,0,1.75v10.92c0,4.1,0.03,6.17,0.1,6.22c0.16,0.29,0.71,0.44,1.65,0.44c0.75,0,1.13,0.11,1.13,0.33
			c0,0.25-0.24,0.37-0.72,0.37c-0.3,0-0.57-0.02-0.82-0.07c-0.32-0.04-0.61-0.07-0.86-0.07l-3.95,0.13c-0.41,0-0.62-0.1-0.62-0.3
			c0-0.22,0.65-0.35,1.96-0.37c0.55,0,0.87-0.09,0.96-0.27c0.09-0.18,0.14-0.76,0.14-1.75v-16.12c0-1.86-0.02-2.87-0.07-3.03
			c-0.09-0.31-0.29-0.53-0.58-0.64c-0.3-0.11-0.94-0.2-1.92-0.27c-0.37-0.02-0.55-0.12-0.55-0.3c0-0.25,0.33-0.37,1.01-0.37
			c0.09,0,0.29,0,0.59,0h1.8c1.37,0,2.33-0.01,2.88-0.03c0.11,0.29,0.78,2.05,1.99,5.29c0.52,1.35,1.99,5.28,4.39,11.79
			c0.44-1.46,0.89-2.9,1.36-4.32l3.67-11.1c0.23-0.64,0.43-1.17,0.61-1.6l5.06-0.03c0.74,0,1.17,0.03,1.28,0.1s0.17,0.17,0.17,0.3
			c0,0.22-0.19,0.34-0.58,0.34c-0.64,0-1.08,0.02-1.3,0.07c-0.55,0.09-0.93,0.27-1.13,0.54c-0.12,0.16-0.17,1.47-0.17,3.94v15.67
			c0,0.9,0.09,1.43,0.27,1.58c0.3,0.2,1.04,0.3,2.23,0.3h0.21C864.85,1439.81,865.08,1439.9,865.08,1440.09z"/>
		<path fill="#4D4E4E" d="M884.63,1434.9c0,0.09-0.02,0.64-0.07,1.65c-0.05,1.01-0.07,1.97-0.07,2.89v1.11
			c-2.24-0.13-6.68-0.2-13.31-0.2c-0.8,0-1.59,0-2.37,0s-1.3,0-1.58,0h-0.34c-0.43,0-0.65-0.09-0.65-0.27
			c0-0.12,0.07-0.19,0.21-0.21c0.07,0,0.5-0.03,1.3-0.09c0.59-0.04,0.96-0.17,1.08-0.37c0.12-0.2,0.19-0.73,0.19-1.58v-18.94
			c0-0.65-0.1-1.04-0.29-1.16c-0.19-0.12-0.82-0.19-1.87-0.19c-0.37,0-0.55-0.09-0.55-0.29s0.25-0.29,0.75-0.29h5.87
			c0.21,0,1.5,0,3.88,0c2.38,0,3.98,0,4.8,0c0.69,0,1.32-0.04,1.89-0.13c0.05,0.96,0.15,2.3,0.31,4l0.14,1.45
			c0.02,0.11,0.03,0.26,0.03,0.44c0,0.22-0.1,0.34-0.31,0.34c-0.25,0-0.43-0.28-0.55-0.84c-0.43-2.03-1.14-3.31-2.13-3.86
			c-0.73-0.41-2.65-0.61-5.76-0.61h-2.81v9.88h0.82c2.56,0,4.12-0.19,4.68-0.57c0.56-0.38,0.94-1.49,1.15-3.33
			c0.05-0.47,0.17-0.71,0.38-0.71c0.25,0,0.38,0.2,0.38,0.6s-0.02,1-0.07,1.78s-0.07,1.38-0.07,1.78c0,2.4,0.04,4.04,0.11,4.94
			c0.02,0.22,0.03,0.42,0.03,0.57c0,0.29-0.12,0.44-0.38,0.44c-0.16,0-0.27-0.09-0.32-0.29c-0.06-0.19-0.15-0.81-0.29-1.87
			c-0.18-1.32-0.74-2.14-1.67-2.45c-0.41-0.13-1.48-0.2-3.21-0.2h-1.54v11.26c5.03,0,7.98-0.1,8.85-0.3
			c1.51-0.33,2.37-1.75,2.57-4.25c0.04-0.55,0.19-0.83,0.45-0.83C884.52,1434.2,884.63,1434.43,884.63,1434.9z"/>
		<path fill="#4D4E4E" d="M908.48,1428.65c0,3.95-1.41,7.03-4.22,9.23c-2.06,1.62-4.81,2.43-8.27,2.43c-0.09,0-0.5,0-1.22,0
			c-0.72,0-1.77,0-3.14,0h-1.71h-2.71c-0.16,0-0.33,0-0.51,0c-0.43,0-0.65-0.11-0.65-0.34c0-0.2,0.37-0.3,1.1-0.3
			c0.94,0,1.52-0.17,1.75-0.5c0.09-0.16,0.14-0.58,0.14-1.28v-18.11c0-1.1-0.09-1.74-0.26-1.92c-0.17-0.18-0.76-0.27-1.77-0.27
			c-0.53,0-0.79-0.12-0.79-0.37c0-0.18,0.19-0.27,0.58-0.27c-0.02,0,0.23,0,0.75,0c0.53,0,1.04,0,1.54,0h3.67
			c4.12,0,7.03,0.28,8.75,0.84c2.08,0.67,3.76,2,5.04,3.99C907.84,1423.78,908.48,1426.07,908.48,1428.65z M904.63,1428.52
			c0-3.73-0.74-6.46-2.23-8.21c-1.49-1.74-3.81-2.61-6.96-2.61c-1.53,0-2.46,0.16-2.78,0.47c-0.14,0.16-0.21,0.7-0.21,1.62v17.93
			c0,0.63,0.02,1.01,0.05,1.15c0.03,0.14,0.13,0.25,0.29,0.34c0.55,0.27,1.7,0.4,3.46,0.4c2.47,0,4.46-0.85,5.97-2.56
			C903.83,1435.25,904.63,1432.4,904.63,1428.52z"/>
		<path fill="#4D4E4E" d="M919.8,1440.03c0,0.19-0.14,0.29-0.41,0.29h-0.34c-0.14-0.07-1.7-0.1-4.68-0.1
			c-0.57,0-1.15,0.02-1.72,0.07c-0.3,0.02-0.76,0.03-1.38,0.03c-0.3,0-0.45-0.1-0.45-0.3c0-0.18,0.3-0.28,0.89-0.3
			c0.91-0.02,1.45-0.13,1.61-0.32c0.16-0.19,0.24-0.84,0.24-1.94v-17.73c0-1.1-0.06-1.72-0.17-1.85c-0.14-0.22-0.78-0.36-1.91-0.4
			c-0.44-0.02-0.66-0.1-0.66-0.24c0-0.18,0.14-0.27,0.42-0.27h4.69c0.35,0,1.02,0.01,2.01,0.03l1.32-0.03
			c0.37,0,0.56,0.09,0.56,0.29c0,0.17-0.52,0.28-1.55,0.32c-0.59,0.02-0.94,0.12-1.07,0.3c-0.13,0.18-0.19,0.65-0.19,1.41v17.94
			c0,1.28,0.06,1.97,0.17,2.08c0.25,0.25,1.01,0.39,2.26,0.44C919.67,1439.74,919.8,1439.84,919.8,1440.03z"/>
		<path fill="#4D4E4E" d="M943.2,1417.29c0,0.18-0.21,0.27-0.62,0.27c-0.07,0-0.3,0-0.69,0c-0.11,0-0.27,0-0.48,0
			c-0.57,0-0.92,0.15-1.03,0.44c-0.05,0.16-0.07,0.41-0.07,0.77v12.58c0,3.27-0.62,5.64-1.87,7.13c-1.25,1.49-3.25,2.23-6.02,2.23
			c-3.32,0-5.65-0.92-7-2.75c-0.89-1.23-1.34-3.26-1.34-6.08v-13.47c-0.07-0.4-0.35-0.65-0.83-0.74c-0.14-0.02-0.57-0.03-1.29-0.03
			c-0.39-0.04-0.59-0.16-0.59-0.34c0-0.2,0.16-0.3,0.48-0.3h0.62c0.11,0,0.38,0,0.79,0c0.37,0,0.7,0,1,0h4.91c0.11,0,0.25,0,0.41,0
			c0.39,0,0.58,0.12,0.58,0.37c0,0.16-0.07,0.25-0.21,0.27c-0.14,0.02-0.6,0.04-1.37,0.07c-0.32,0-0.54,0.02-0.65,0.07
			c-0.23,0.09-0.36,0.25-0.38,0.47c-0.02,0.09-0.03,0.73-0.03,1.91v11.99c0,2.95,0.48,4.96,1.44,6.03c0.96,1.07,2.39,1.61,4.29,1.61
			c3.48,0,5.44-1.93,5.9-5.79c0.07-0.58,0.1-3.03,0.1-7.36v-1.91v-2.68v-2.31c0-0.22,0-0.47,0-0.74c0-0.29,0-0.41,0-0.37
			c0-0.49-0.24-0.79-0.72-0.9c-0.16-0.04-0.63-0.07-1.41-0.07c-0.46,0-0.69-0.12-0.69-0.37c0-0.2,0.16-0.3,0.48-0.3
			c0.18,0,0.33,0,0.45,0c0.28,0,1.28,0,3,0c0.25,0,0.54,0,0.86,0c0.3,0,0.52,0,0.66,0h0.52
			C942.93,1416.99,943.2,1417.09,943.2,1417.29z"/>
		<path fill="#4D4E4E" d="M969.13,1440.09c0,0.19-0.24,0.29-0.72,0.29h-0.38c-0.32,0-0.9,0-1.74,0c-0.84,0-1.49,0-1.95,0
			c-0.68,0-1.48,0-2.39,0c-0.94,0-1.55,0-1.85,0h-0.24c-0.48,0-0.72-0.1-0.72-0.3c0-0.22,0.33-0.34,1-0.34
			c1.17,0,1.88-0.12,2.13-0.37c0.11-0.11,0.17-0.86,0.17-2.25v-17.43c0,0.02-0.14,0.42-0.41,1.18c-0.92,2.71-2.25,6.78-4,12.22
			l-1.59,5.35c-0.32,1.05-0.55,1.58-0.69,1.58c-0.16,0-0.33-0.27-0.51-0.81c-0.66-2.04-2.53-7.13-5.6-15.26l-1.36-3.59
			c0,0.43,0,1.01,0,1.75v10.92c0,4.1,0.03,6.17,0.1,6.22c0.16,0.29,0.71,0.44,1.65,0.44c0.75,0,1.13,0.11,1.13,0.33
			c0,0.25-0.24,0.37-0.72,0.37c-0.3,0-0.57-0.02-0.82-0.07c-0.32-0.04-0.61-0.07-0.86-0.07l-3.95,0.13c-0.41,0-0.62-0.1-0.62-0.3
			c0-0.22,0.65-0.35,1.96-0.37c0.55,0,0.87-0.09,0.96-0.27c0.09-0.18,0.14-0.76,0.14-1.75v-16.12c0-1.86-0.02-2.87-0.07-3.03
			c-0.09-0.31-0.29-0.53-0.58-0.64c-0.3-0.11-0.94-0.2-1.92-0.27c-0.37-0.02-0.55-0.12-0.55-0.3c0-0.25,0.33-0.37,1.01-0.37
			c0.09,0,0.29,0,0.59,0h1.8c1.37,0,2.33-0.01,2.88-0.03c0.11,0.29,0.78,2.05,1.99,5.29c0.52,1.35,1.99,5.28,4.39,11.79
			c0.44-1.46,0.89-2.9,1.36-4.32l3.67-11.1c0.23-0.64,0.43-1.17,0.61-1.6l5.06-0.03c0.74,0,1.17,0.03,1.28,0.1s0.17,0.17,0.17,0.3
			c0,0.22-0.19,0.34-0.58,0.34c-0.64,0-1.08,0.02-1.3,0.07c-0.55,0.09-0.93,0.27-1.13,0.54c-0.12,0.16-0.17,1.47-0.17,3.94v15.67
			c0,0.9,0.09,1.43,0.27,1.58c0.3,0.2,1.04,0.3,2.23,0.3h0.21C968.9,1439.81,969.13,1439.9,969.13,1440.09z"/>
		<path fill="#4D4E4E" d="M985.5,1433.76c0,1.93-0.75,3.57-2.25,4.92c-1.5,1.36-3.3,2.03-5.4,2.03c-1.23,0-2.71-0.37-4.43-1.11
			c-0.46-0.2-0.8-0.3-1.03-0.3c-0.27,0-0.45,0.31-0.51,0.93c-0.02,0.32-0.17,0.48-0.45,0.48c-0.23,0-0.34-0.13-0.34-0.4
			c0-0.18,0.01-0.31,0.04-0.4c0.18-1.37,0.27-2.63,0.27-3.8c0-0.22-0.02-0.85-0.07-1.88c-0.02-0.13-0.03-0.31-0.03-0.54
			c0-0.34,0.14-0.5,0.41-0.5c0.23,0,0.39,0.27,0.48,0.81c0.59,4.03,2.53,6.04,5.8,6.04c1.39,0,2.48-0.39,3.24-1.16
			c0.77-0.77,1.15-1.87,1.15-3.28c0-1.25-0.37-2.32-1.12-3.21c-0.74-0.88-2.02-1.76-3.83-2.64c-2.17-1.05-3.68-2.07-4.53-3.06
			c-0.85-0.99-1.27-2.21-1.27-3.66c0-1.86,0.61-3.39,1.83-4.6c1.22-1.21,2.77-1.81,4.65-1.81c0.78,0,1.85,0.26,3.23,0.77
			c0.48,0.18,0.83,0.27,1.06,0.27c0.25,0,0.42-0.04,0.5-0.13c0.08-0.09,0.15-0.32,0.22-0.71c0.05-0.22,0.17-0.34,0.38-0.34
			c0.23,0,0.34,0.13,0.34,0.4c0,0.18-0.01,0.31-0.03,0.4c-0.07,0.54-0.1,1.19-0.1,1.95c0,1.08,0.06,1.93,0.17,2.55l0.03,0.54
			c0.02,0.25-0.08,0.37-0.31,0.37c-0.25,0-0.42-0.26-0.51-0.77c-0.25-1.32-0.85-2.42-1.78-3.31c-0.94-0.88-1.99-1.33-3.16-1.33
			c-1.14,0-2.05,0.36-2.73,1.08s-1.01,1.69-1.01,2.92c0,1.43,0.49,2.59,1.48,3.46c0.55,0.49,1.74,1.19,3.57,2.08
			c2.15,1.05,3.69,2.12,4.63,3.21C985.03,1431.13,985.5,1432.37,985.5,1433.76z"/>
	</g>
	<g>
	</g>
	<g>
	</g>
	<g>
	</g>
	<g>
	</g>
	<g>
	</g>
	<g>
	</g>
	<g>
	</g>
	<g>
	</g>
	<g>
	</g>
	<g>
	</g>
	<g>
	</g>
</g>
</svg>
