<?xml version="1.0" encoding="utf-8"?>
<!-- Generator: Adobe Illustrator 28.2.0, SVG Export Plug-In . SVG Version: 6.00 Build 0)  -->
<svg version="1.1" xmlns="http://www.w3.org/2000/svg" xmlns:xlink="http://www.w3.org/1999/xlink" x="0px" y="0px"
	 viewBox="0 0 1125 2436" enable-background="new 0 0 1125 2436" xml:space="preserve">
<g id="Layer_1">
	<g>
		<rect fill="#E4D2BC" width="1125" height="1355"/>
	</g>
	<rect x="203" y="509" opacity="0.36" fill="#EE9C9B" width="922" height="1714"/>
</g>
<g id="Layer_2">
	<g>
		<rect y="245" fill="#FFFFFF" width="1125" height="181"/>
		<g>
			<path fill="#4D4E4E" d="M334.87,350.82c0,0.22-0.05,1.56-0.14,4.02c-0.1,2.46-0.14,4.81-0.14,7.05v2.71
				c-4.66-0.33-13.89-0.49-27.69-0.49c-1.67,0-3.31,0-4.92,0c-1.62,0-2.71,0-3.28,0h-0.71c-0.9,0-1.36-0.22-1.36-0.66
				c0-0.29,0.14-0.46,0.43-0.51c0.14,0,1.05-0.07,2.71-0.22c1.24-0.11,1.99-0.41,2.25-0.9c0.26-0.49,0.39-1.78,0.39-3.87v-46.24
				c0-1.59-0.2-2.54-0.61-2.84c-0.4-0.3-1.7-0.45-3.89-0.45c-0.76,0-1.14-0.23-1.14-0.7c0-0.46,0.52-0.7,1.57-0.7h12.2
				c0.43,0,3.12,0,8.06,0c4.95,0,8.28,0,9.99,0c1.43,0,2.73-0.11,3.92-0.33c0.09,2.35,0.31,5.61,0.64,9.76l0.29,3.53
				c0.05,0.27,0.07,0.63,0.07,1.07c0,0.55-0.21,0.82-0.64,0.82c-0.52,0-0.9-0.69-1.14-2.06c-0.9-4.95-2.38-8.09-4.42-9.41
				c-1.52-0.99-5.52-1.49-11.99-1.49h-5.85v24.11h1.71c5.33,0,8.57-0.46,9.74-1.39c1.17-0.93,1.96-3.64,2.39-8.12
				c0.09-1.15,0.36-1.72,0.79-1.72c0.52,0,0.78,0.49,0.78,1.48s-0.05,2.43-0.14,4.35c-0.1,1.91-0.14,3.36-0.14,4.35
				c0,5.85,0.08,9.87,0.23,12.06c0.04,0.55,0.06,1.01,0.06,1.39c0,0.71-0.26,1.07-0.78,1.07c-0.33,0-0.56-0.23-0.67-0.7
				c-0.12-0.46-0.32-1.98-0.6-4.55c-0.38-3.23-1.54-5.22-3.48-5.99c-0.85-0.33-3.08-0.49-6.68-0.49h-3.2v27.48
				c10.46,0,16.6-0.24,18.41-0.73c3.14-0.81,4.92-4.27,5.35-10.37c0.09-1.35,0.4-2.02,0.93-2.02
				C334.64,349.1,334.87,349.67,334.87,350.82z"/>
			<path fill="#4D4E4E" d="M368.47,363.51c0,0.34-0.47,0.52-1.4,0.52c-1.13,0-2.29,0-3.47,0c-1.18,0-2.34,0-3.47,0
				c-1.47,0-3.16,0-5.09,0c-0.97,0-1.68,0-2.15,0c-0.97,0-1.45-0.18-1.45-0.54c0-0.33,0.38-0.48,1.15-0.44h2.25
				c0.8,0.04,1.28,0.02,1.45-0.06c0.5-0.12,0.75-0.48,0.75-1.1c0-0.58-0.43-1.83-1.29-3.76l-5.32-12.42l-6.28,12.22
				c-1.09,2.2-1.64,3.49-1.64,3.88c0,0.71,0.55,1.12,1.65,1.24c-0.07,0,0.68,0,2.25,0c0.6,0,0.9,0.17,0.9,0.51
				c0,0.31-0.25,0.46-0.75,0.46h-5.64h-4.25c-0.53,0-0.8-0.17-0.8-0.52c0-0.34,0.43-0.58,1.3-0.69c0.6-0.08,1.2-0.15,1.8-0.23
				c0.5-0.15,0.92-0.4,1.25-0.75c0.63-0.65,2.68-4.4,6.14-11.26c1.27-2.53,2.41-4.73,3.41-6.6l-5.66-12.3
				c-1.17-2.52-1.99-4.15-2.44-4.89c-0.45-0.74-0.93-1.23-1.43-1.46c-0.54-0.11-1.59-0.17-3.17-0.17c-0.4,0-0.6-0.15-0.6-0.46
				c0-0.42,0.27-0.63,0.8-0.63c0.73,0,2.25,0.04,4.55,0.12c1.13,0.04,1.91,0.06,2.35,0.06c3.9,0,6.04-0.06,6.44-0.17h0.7
				c0.7,0,1.05,0.15,1.05,0.46c0,0.42-0.59,0.63-1.76,0.63c-2.19-0.04-3.28,0.27-3.28,0.92c0,0.69,1.88,5.19,5.65,13.48
				c1.36-2.3,2.84-5.04,4.46-8.21c1.62-3.17,2.43-4.95,2.43-5.33c0-0.58-0.92-0.86-2.75-0.86c-0.9,0-1.35-0.17-1.35-0.52
				c0-0.38,0.32-0.58,0.95-0.58c0.43,0,1.07,0.03,1.9,0.09c0.83,0.06,1.46,0.09,1.9,0.09c0.17,0,0.94-0.03,2.32-0.09
				c1.38-0.06,2.19-0.09,2.42-0.09h0.45c0.57,0,0.85,0.16,0.85,0.49c0,0.33-0.22,0.49-0.65,0.49c-0.07,0-0.6,0.02-1.6,0.06
				c-1.13,0.04-1.91,0.27-2.32,0.69c-0.42,0.42-1.12,1.65-2.12,3.69c-1.3,2.69-3.2,6.24-5.69,10.66l-0.55,0.98
				c0.23,0.5,2.48,5.53,6.74,15.1c1.46,3.29,2.51,5.25,3.15,5.88c0.63,0.63,1.88,0.93,3.75,0.89
				C368.05,362.99,368.47,363.16,368.47,363.51z"/>
			<path fill="#4D4E4E" d="M392.39,333.71c0,3.71-1.38,6.6-4.15,8.67c-1.73,1.3-3.93,1.95-6.59,1.95c-1.13,0-2.42-0.13-3.85-0.4
				v16.31c0,0.88,0.03,1.44,0.1,1.67c0.17,0.54,0.53,0.86,1.1,0.98c0.97,0.15,1.9,0.23,2.8,0.23c0.37,0,0.55,0.13,0.55,0.4
				c0,0.38-0.23,0.57-0.7,0.57c-0.2,0-0.37,0-0.5,0c-1.83,0-5.28,0-10.34,0h-0.65c-1,0-1.5-0.19-1.5-0.58c0-0.27,0.35-0.4,1.05-0.4
				c1.56,0,2.46-0.17,2.7-0.52c0.27-0.15,0.42-0.54,0.45-1.15v-33.92c0-1.19-0.28-1.92-0.85-2.19c-0.33-0.15-0.92-0.23-1.75-0.23
				h-0.5c-0.1,0-0.22,0-0.35,0c-0.5,0-0.75-0.15-0.75-0.46c0-0.34,0.47-0.51,1.4-0.51h10.99c3.8,0,6.58,0.77,8.34,2.3
				C391.4,328.14,392.39,330.57,392.39,333.71z M387.15,333.77c0-5.78-2.1-8.67-6.29-8.67c-1.4,0-2.32,0.27-2.75,0.81
				c-0.2,0.23-0.3,0.83-0.3,1.79v15.37c0.27,0.04,0.57,0.06,0.9,0.06c2.2,0,4.06-0.56,5.59-1.68
				C386.2,340.06,387.15,337.5,387.15,333.77z"/>
			<path fill="#4D4E4E" d="M420.37,359.49c0,1-0.05,2.64-0.15,4.94h-0.55c-0.2,0-0.68-0.04-1.45-0.11
				c-0.76-0.08-1.63-0.11-2.59-0.11l-20.74-0.17c-0.57,0-0.85-0.17-0.85-0.52c0-0.27,0.45-0.44,1.35-0.52
				c1.27-0.08,2.02-0.24,2.27-0.49c0.25-0.25,0.38-0.97,0.38-2.15v-32.27c0-1.42-0.12-2.24-0.38-2.47
				c-0.25-0.23-1.14-0.34-2.67-0.34c-0.63,0-0.95-0.21-0.95-0.63c0-0.34,0.2-0.52,0.6-0.52h0.45c1.1,0.11,3.28,0.17,6.54,0.17
				c0.3,0,0.88-0.03,1.75-0.09c0.87-0.06,1.58-0.09,2.15-0.09h0.55c0.6,0,0.9,0.19,0.9,0.57c0,0.23-0.09,0.37-0.28,0.43
				c-0.18,0.06-0.76,0.11-1.72,0.14c-0.97,0.04-1.54,0.22-1.72,0.55c-0.18,0.33-0.27,1.33-0.27,3.01v33.87
				c0.9,0.04,2.15,0.06,3.75,0.06c3.9,0,6.64-0.23,8.24-0.69c1.6-0.46,2.68-1.32,3.25-2.58s0.9-2.97,1-5.11
				c0.03-0.5,0.22-0.75,0.57-0.75c0.42,0,0.61,0.29,0.58,0.86v1.44c0,0.08,0,0.25,0,0.52c0,0.27,0,0.54,0,0.8V359.49z"/>
			<path fill="#4D4E4E" d="M454.73,344.33c0,5.7-1.49,10.53-4.47,14.47c-2.98,3.94-6.64,5.91-10.96,5.91c-4.6,0-8.46-2-11.59-6
				c-3.13-4-4.7-8.93-4.7-14.78c0-5.97,1.51-10.86,4.52-14.67c3.01-3.81,6.87-5.71,11.56-5.71c4.43,0,8.14,1.99,11.14,5.97
				C453.23,333.5,454.73,338.44,454.73,344.33z M449.14,344.62c0-7.02-1.25-12.5-3.75-16.41c-1.57-2.46-3.75-3.69-6.54-3.69
				c-2.67,0-4.73,0.94-6.19,2.82c-2.7,3.46-4.05,9.08-4.05,16.87c0,6.18,0.94,10.98,2.82,14.4c1.88,3.42,4.52,5.12,7.92,5.12
				c3.16,0,5.54-1.61,7.14-4.84C448.26,355.33,449.14,350.57,449.14,344.62z"/>
			<path fill="#4D4E4E" d="M486.5,362.3c0,1.61-1.17,2.41-3.5,2.41c-2.6,0-4.63-1.24-6.09-3.73c-0.63-1.07-1.04-2.1-1.22-3.1
				c-0.18-0.99-0.46-3.52-0.82-7.58c-0.2-2.45-0.88-4.18-2.05-5.2c-1.17-1.01-3.06-1.56-5.69-1.64v18.09c0,0.77,0.53,1.24,1.6,1.44
				c0.3,0.04,1.07,0.08,2.3,0.12c0.43,0,0.65,0.15,0.65,0.46c0,0.34-0.28,0.52-0.85,0.52h-0.6c-0.3,0-1.75,0-4.35,0
				c-0.5,0-1.35,0-2.55,0c-1.17,0-1.93,0-2.3,0h-1.95c-0.73,0-1.1-0.17-1.1-0.52c0-0.27,0.48-0.42,1.45-0.46
				c1.56-0.04,2.41-0.27,2.55-0.69c0.13-0.19,0.2-0.94,0.2-2.24v-31.69c0-1.53-0.14-2.45-0.42-2.76c-0.28-0.31-1.14-0.48-2.57-0.52
				c-0.83,0-1.25-0.17-1.25-0.52c0-0.38,0.27-0.57,0.8-0.57c0.1,0,0.25,0.02,0.45,0.06l6.64,0.17c0.67,0,1.6-0.02,2.8-0.08
				c1.33-0.1,2.26-0.15,2.8-0.15c3.1,0,5.55,0.79,7.37,2.38c1.81,1.59,2.72,3.74,2.72,6.46c0,2.68-0.93,4.89-2.8,6.63
				c-1.87,1.74-4.4,2.77-7.59,3.07c-0.3,0.04-0.47,0.1-0.5,0.17c0,0.15,0.17,0.23,0.5,0.23c3.5,0.69,5.9,2.1,7.22,4.23
				c1.31,2.13,2.19,5.98,2.62,11.54c0.27,3.15,1.2,4.72,2.8,4.72c0.5,0,0.75-0.11,0.75-0.34c0-0.04-0.02-0.08-0.05-0.11
				c-0.17-0.42-0.25-0.77-0.25-1.03c0-0.8,0.37-1.21,1.1-1.21C486.1,360.87,486.5,361.35,486.5,362.3z M476.16,333.54
				c0-5.47-2.07-8.21-6.19-8.21c-1.1,0-1.85,0.17-2.25,0.52c-0.4,0.34-0.6,0.96-0.6,1.84v14.58c3.2,0.04,5.5-0.63,6.92-2.01
				C475.45,338.88,476.16,336.64,476.16,333.54z"/>
			<path fill="#4D4E4E" d="M514.27,354.78c0,0.15-0.03,1.09-0.1,2.81c-0.07,1.72-0.1,3.37-0.1,4.94v1.89
				c-3.26-0.23-9.72-0.34-19.38-0.34c-1.17,0-2.31,0-3.45,0c-1.13,0-1.9,0-2.3,0h-0.5c-0.63,0-0.95-0.15-0.95-0.46
				c0-0.21,0.1-0.33,0.3-0.36c0.1,0,0.73-0.05,1.9-0.15c0.87-0.08,1.39-0.29,1.57-0.63c0.18-0.35,0.27-1.25,0.27-2.71V327.4
				c0-1.11-0.14-1.78-0.42-1.99c-0.28-0.21-1.19-0.32-2.72-0.32c-0.53,0-0.8-0.16-0.8-0.49c0-0.32,0.37-0.49,1.1-0.49h8.54
				c0.3,0,2.18,0,5.64,0c3.46,0,5.79,0,6.99,0c1,0,1.91-0.08,2.75-0.23c0.07,1.65,0.22,3.92,0.45,6.83l0.2,2.47
				c0.03,0.19,0.05,0.44,0.05,0.75c0,0.38-0.15,0.57-0.45,0.57c-0.37,0-0.63-0.48-0.8-1.44c-0.63-3.47-1.67-5.66-3.1-6.59
				c-1.07-0.69-3.86-1.04-8.39-1.04h-4.1v16.88h1.2c3.73,0,6-0.32,6.82-0.98c0.82-0.65,1.37-2.54,1.67-5.68
				c0.07-0.8,0.25-1.21,0.55-1.21c0.37,0,0.55,0.34,0.55,1.03s-0.03,1.7-0.1,3.04c-0.07,1.34-0.1,2.35-0.1,3.04
				c0,4.1,0.05,6.91,0.16,8.44c0.03,0.38,0.04,0.71,0.04,0.98c0,0.5-0.18,0.75-0.55,0.75c-0.23,0-0.39-0.16-0.47-0.49
				s-0.22-1.39-0.42-3.19c-0.27-2.26-1.08-3.65-2.44-4.19c-0.6-0.23-2.16-0.34-4.67-0.34h-2.24v19.23c7.33,0,11.62-0.17,12.89-0.51
				c2.2-0.57,3.45-2.99,3.75-7.26c0.07-0.94,0.28-1.42,0.65-1.42C514.11,353.58,514.27,353.98,514.27,354.78z"/>
		</g>
		<g>
			<path fill="#4D4E4E" d="M734.19,363.64c0,0.47-0.36,0.7-1.07,0.7c-0.48,0-0.9-0.03-1.28-0.08l-9.06-0.33l-9.06,0.33
				c-0.33,0.05-0.69,0.08-1.07,0.08c-0.95,0-1.43-0.29-1.43-0.86c0-0.63,0.64-0.95,1.93-0.95c4.19-0.05,6.28-0.54,6.28-1.45
				c0-0.05-0.05-0.27-0.15-0.64l-0.58-2.17l-0.37-1.14c-0.43-1.7-1.47-5.45-3.14-11.25h-15.25c-2.85,8.75-4.28,13.78-4.28,15.09
				c0,0.77,0.29,1.23,0.86,1.39c0.14,0.06,1.33,0.16,3.57,0.33c1.38,0.06,2.07,0.33,2.07,0.82c0,0.55-0.62,0.82-1.86,0.82
				c-2.19,0-4.73-0.11-7.63-0.33c-0.71-0.05-1.45-0.08-2.21-0.08s-1.5,0.09-2.21,0.27c-0.38,0.09-0.69,0.14-0.93,0.14
				c-0.67,0-1-0.25-1-0.74c0-0.49,0.75-0.77,2.25-0.82c1.5-0.05,2.58-0.32,3.25-0.78c0.67-0.47,1.19-1.36,1.57-2.67
				c6.12-20.19,11.1-36.4,14.94-48.64c0.11-0.65,0.33-1.37,0.66-2.18l0.31-1.5c0.14-0.6,0.33-0.9,0.57-0.9
				c0.14,0,0.26,0.16,0.36,0.49c0.62,2.13,2.02,6.59,4.21,13.37c1.71,5.3,5.97,18.62,12.77,39.94c0.38,1.24,0.87,2.02,1.46,2.36
				c0.59,0.34,1.82,0.53,3.68,0.59C733.57,362.92,734.19,363.18,734.19,363.64z M714.78,344c-0.77-2.46-2.05-6.52-3.84-12.2
				l-3.43-11.37c-1.99,6.04-4.38,13.9-7.17,23.57H714.78z"/>
			<path fill="#4D4E4E" d="M757.2,353.73c0,3.9-1.55,6.79-4.65,8.67c-1.5,0.92-3.65,1.49-6.44,1.72c-0.77,0.04-3.03,0.06-6.79,0.06
				h-6.09c-0.57,0-0.85-0.16-0.85-0.49s0.52-0.49,1.55-0.49c1.2,0,1.91-0.14,2.12-0.43c0.22-0.29,0.32-1.16,0.32-2.61V329.1
				c0-1.68-0.07-2.66-0.2-2.93c-0.23-0.46-1.08-0.71-2.55-0.75c-0.9,0-1.35-0.2-1.35-0.6c0-0.36,0.42-0.54,1.25-0.54
				c0.03,0,0.23,0,0.6,0c0.37,0.11,0.7,0.17,1,0.17h9.74c3.6,0.04,6.28,0.73,8.04,2.07c2.06,1.57,3.1,3.85,3.1,6.83
				c0,2.6-0.85,4.74-2.55,6.4s-4.08,2.71-7.14,3.13v0.34c3.03,0.23,5.39,0.96,7.09,2.18C755.94,347.24,757.2,350.02,757.2,353.73z
				 M750.51,333.92c0-3.67-0.73-6.12-2.2-7.35c-0.77-0.65-2.21-0.98-4.35-0.98c-0.57,0-1.45,0.06-2.65,0.17v16.65h0.45l2.75-0.12
				c1.9-0.08,3.37-0.85,4.42-2.33C749.98,338.51,750.51,336.49,750.51,333.92z M751.96,353.1c0-4.82-1.7-7.81-5.1-8.96
				c-1-0.34-2.85-0.52-5.54-0.52v17.11c0,1.11,0.1,1.74,0.3,1.89c0.33,0.27,1.26,0.4,2.8,0.4c2.3,0,4.13-0.84,5.5-2.53
				C751.27,358.82,751.96,356.35,751.96,353.1z"/>
			<path fill="#4D4E4E" d="M793.37,344.49c0,5.7-1.49,10.53-4.47,14.47c-2.98,3.94-6.64,5.91-10.96,5.91c-4.6,0-8.46-2-11.59-6
				c-3.13-4-4.7-8.93-4.7-14.78c0-5.97,1.51-10.86,4.52-14.67c3.01-3.81,6.87-5.71,11.56-5.71c4.43,0,8.14,1.99,11.14,5.97
				C791.87,333.65,793.37,338.59,793.37,344.49z M787.77,344.77c0-7.02-1.25-12.5-3.75-16.41c-1.57-2.46-3.75-3.69-6.54-3.69
				c-2.67,0-4.73,0.94-6.19,2.82c-2.7,3.46-4.05,9.08-4.05,16.87c0,6.18,0.94,10.98,2.82,14.4c1.88,3.42,4.52,5.12,7.92,5.12
				c3.16,0,5.54-1.61,7.14-4.84C786.89,355.48,787.77,350.73,787.77,344.77z"/>
			<path fill="#4D4E4E" d="M828.28,324.85c0,0.31-0.3,0.46-0.9,0.46c-0.1,0-0.43,0-1,0c-0.17,0-0.4,0-0.7,0
				c-0.83,0-1.33,0.25-1.5,0.75c-0.07,0.27-0.1,0.71-0.1,1.32v21.5c0,5.58-0.91,9.64-2.72,12.18c-1.82,2.54-4.74,3.81-8.77,3.81
				c-4.83,0-8.23-1.57-10.19-4.71c-1.3-2.1-1.95-5.57-1.95-10.39v-23.02c-0.1-0.69-0.51-1.11-1.21-1.26
				c-0.2-0.04-0.83-0.06-1.87-0.06c-0.57-0.08-0.86-0.27-0.86-0.57c0-0.34,0.23-0.52,0.7-0.52h0.9c0.17,0,0.55,0,1.15,0
				c0.53,0,1.02,0,1.45,0h7.14c0.17,0,0.37,0,0.6,0c0.57,0,0.85,0.21,0.85,0.63c0,0.27-0.1,0.42-0.3,0.46
				c-0.2,0.04-0.87,0.08-2,0.11c-0.47,0-0.78,0.04-0.95,0.12c-0.33,0.15-0.52,0.42-0.55,0.8c-0.03,0.15-0.05,1.24-0.05,3.26v20.49
				c0,5.04,0.7,8.47,2.1,10.3s3.48,2.75,6.24,2.75c5.06,0,7.92-3.3,8.59-9.89c0.1-0.99,0.15-5.18,0.15-12.58v-3.26v-4.57v-3.94
				c0-0.38,0-0.8,0-1.26c0-0.5,0-0.7,0-0.63c0-0.84-0.35-1.35-1.05-1.54c-0.23-0.08-0.92-0.11-2.05-0.11c-0.67,0-1-0.21-1-0.63
				c0-0.34,0.23-0.51,0.7-0.51c0.27,0,0.48,0,0.65,0c0.4,0,1.86,0,4.37,0c0.37,0,0.79,0,1.25,0c0.44,0,0.75,0,0.96,0h0.75
				C827.89,324.33,828.28,324.5,828.28,324.85z"/>
			<path fill="#4D4E4E" d="M857.25,334.55c0,0.5-0.2,0.75-0.6,0.75c-0.4,0-0.68-0.5-0.85-1.49c-0.07-0.69-0.13-1.38-0.2-2.07
				c-0.23-1.38-0.62-2.54-1.15-3.5c-0.7-1.26-1.85-2.07-3.45-2.41c-1.03-0.23-1.87-0.32-2.5-0.29c-1.57,0.05-2.51,0.09-2.85,0.11
				v34.67c0,1.38,0.32,2.24,0.95,2.59c0.33,0.19,1.27,0.31,2.8,0.35c0.4,0.04,0.6,0.2,0.6,0.49c0,0.33-0.27,0.49-0.8,0.49
				c-0.27,0-0.5-0.02-0.7-0.06c-2-0.08-3.41-0.11-4.25-0.11c-1.1,0-2.13,0.03-3.1,0.09c-0.97,0.06-2.2,0.09-3.7,0.09
				c-0.77,0-1.15-0.15-1.15-0.46c0-0.34,0.72-0.54,2.15-0.58c1.03,0,1.7-0.25,2-0.75c0.17-0.31,0.25-1.09,0.25-2.36v-34.44
				c-3.3,0.04-5.34,0.23-6.14,0.57c-2.1,0.88-3.33,3.23-3.7,7.06c-0.1,1.15-0.33,1.72-0.7,1.72c-0.4,0-0.6-0.4-0.6-1.21
				c0-0.42,0.02-0.84,0.05-1.26l0.1-1.32c0.1-1.76,0.25-4.08,0.45-6.95h2.25l10.19,0.17c1.2,0.04,3.06,0.04,5.59,0l8.29-0.17
				c0.07,2.14,0.28,5.32,0.65,9.53c0,0.11,0.02,0.26,0.05,0.43S857.25,334.52,857.25,334.55z"/>
		</g>
	</g>
	<g>
		<rect x="366" y="1198" fill="#FFFFFF" width="719" height="499"/>
		<g>
			<path fill="#4D4E4E" d="M670.93,1301.93c0,3.65-1.38,6.76-4.13,9.33s-6.06,3.85-9.92,3.85c-2.27,0-4.98-0.7-8.13-2.1
				c-0.84-0.38-1.47-0.57-1.89-0.57c-0.5,0-0.82,0.59-0.94,1.76c-0.04,0.61-0.32,0.91-0.82,0.91c-0.42,0-0.63-0.25-0.63-0.76
				c0-0.34,0.02-0.59,0.06-0.76c0.34-2.59,0.5-4.99,0.5-7.2c0-0.42-0.04-1.61-0.13-3.57c-0.04-0.25-0.06-0.59-0.06-1.02
				c0-0.64,0.25-0.96,0.76-0.96c0.42,0,0.71,0.51,0.88,1.54c1.09,7.63,4.64,11.45,10.65,11.45c2.56,0,4.55-0.73,5.95-2.2
				s2.11-3.53,2.11-6.21c0-2.38-0.68-4.4-2.05-6.08c-1.37-1.68-3.71-3.34-7.02-5c-3.99-1.99-6.76-3.93-8.32-5.79
				c-1.55-1.87-2.33-4.18-2.33-6.94c0-3.52,1.12-6.43,3.37-8.72c2.25-2.29,5.09-3.44,8.54-3.44c1.43,0,3.4,0.49,5.92,1.46
				c0.88,0.34,1.53,0.51,1.95,0.51c0.46,0,0.77-0.08,0.91-0.25c0.15-0.17,0.28-0.62,0.41-1.34c0.08-0.42,0.31-0.64,0.69-0.64
				c0.42,0,0.63,0.26,0.63,0.76c0,0.34-0.02,0.59-0.06,0.76c-0.13,1.02-0.19,2.25-0.19,3.69c0,2.04,0.1,3.65,0.32,4.84l0.06,1.02
				c0.04,0.47-0.15,0.7-0.57,0.7c-0.46,0-0.78-0.49-0.95-1.46c-0.46-2.5-1.55-4.59-3.28-6.27c-1.72-1.68-3.65-2.51-5.8-2.51
				c-2.1,0-3.77,0.68-5.01,2.04c-1.24,1.36-1.86,3.21-1.86,5.54c0,2.72,0.9,4.9,2.71,6.56c1.01,0.93,3.19,2.25,6.55,3.95
				c3.95,2,6.78,4.02,8.5,6.08C670.07,1296.95,670.93,1299.3,670.93,1301.93z"/>
			<path fill="#4D4E4E" d="M697.94,1291.35c0,0.39-0.18,0.58-0.53,0.58s-0.6-0.39-0.75-1.16c-0.06-0.54-0.12-1.07-0.18-1.6
				c-0.21-1.07-0.54-1.98-1.01-2.72c-0.62-0.98-1.63-1.6-3.04-1.87c-0.91-0.18-1.65-0.25-2.2-0.22c-1.38,0.04-2.22,0.07-2.51,0.09
				v26.92c0,1.07,0.28,1.74,0.84,2.01c0.29,0.15,1.12,0.24,2.47,0.27c0.35,0.03,0.53,0.15,0.53,0.38c0,0.25-0.24,0.38-0.71,0.38
				c-0.24,0-0.44-0.02-0.62-0.04c-1.76-0.06-3.01-0.09-3.75-0.09c-0.97,0-1.88,0.02-2.73,0.07c-0.85,0.04-1.94,0.07-3.26,0.07
				c-0.68,0-1.01-0.12-1.01-0.36c0-0.27,0.63-0.42,1.9-0.45c0.91,0,1.5-0.19,1.76-0.58c0.15-0.24,0.22-0.85,0.22-1.83v-26.74
				c-2.91,0.03-4.72,0.18-5.42,0.45c-1.85,0.68-2.94,2.51-3.26,5.48c-0.09,0.89-0.29,1.34-0.62,1.34c-0.35,0-0.53-0.31-0.53-0.94
				c0-0.33,0.01-0.65,0.04-0.98l0.09-1.03c0.09-1.37,0.22-3.16,0.4-5.39h1.98l9,0.13c1.06,0.03,2.71,0.03,4.94,0l7.32-0.13
				c0.06,1.66,0.25,4.13,0.57,7.4c0,0.09,0.01,0.2,0.04,0.33C697.92,1291.24,697.94,1291.32,697.94,1291.35z"/>
			<path fill="#4D4E4E" d="M727.57,1283.81c0,0.24-0.26,0.36-0.79,0.36c-0.09,0-0.38,0-0.88,0c-0.15,0-0.35,0-0.62,0
				c-0.74,0-1.18,0.19-1.32,0.58c-0.06,0.21-0.09,0.55-0.09,1.02v16.69c0,4.33-0.8,7.48-2.4,9.46c-1.6,1.97-4.18,2.96-7.74,2.96
				c-4.26,0-7.26-1.22-9-3.66c-1.15-1.63-1.72-4.32-1.72-8.07v-17.87c-0.09-0.54-0.45-0.86-1.07-0.98
				c-0.18-0.03-0.73-0.04-1.65-0.04c-0.51-0.06-0.76-0.21-0.76-0.45c0-0.27,0.21-0.4,0.62-0.4h0.79c0.15,0,0.49,0,1.01,0
				c0.47,0,0.9,0,1.28,0h6.31c0.15,0,0.32,0,0.53,0c0.5,0,0.75,0.16,0.75,0.49c0,0.21-0.09,0.33-0.26,0.36
				c-0.18,0.03-0.76,0.06-1.76,0.09c-0.41,0-0.69,0.03-0.84,0.09c-0.29,0.12-0.46,0.33-0.49,0.62c-0.03,0.12-0.04,0.96-0.04,2.53
				v15.91c0,3.91,0.62,6.58,1.85,8c1.23,1.42,3.07,2.13,5.51,2.13c4.47,0,7-2.56,7.58-7.68c0.09-0.77,0.13-4.02,0.13-9.76v-2.53
				v-3.55v-3.06c0-0.29,0-0.62,0-0.98c0-0.38,0-0.55,0-0.49c0-0.65-0.31-1.05-0.93-1.2c-0.21-0.06-0.81-0.09-1.81-0.09
				c-0.59,0-0.88-0.16-0.88-0.49c0-0.27,0.21-0.4,0.62-0.4c0.24,0,0.43,0,0.58,0c0.35,0,1.64,0,3.86,0c0.33,0,0.7,0,1.11,0
				c0.38,0,0.67,0,0.84,0h0.66C727.23,1283.41,727.57,1283.55,727.57,1283.81z"/>
			<path fill="#4D4E4E" d="M757.73,1298.88c0,5.25-1.81,9.33-5.42,12.25c-2.65,2.15-6.19,3.22-10.63,3.22c-0.12,0-0.64,0-1.57,0
				c-0.93,0-2.27,0-4.03,0h-2.21h-3.48c-0.21,0-0.43,0-0.66,0c-0.56,0-0.84-0.15-0.84-0.45c0-0.27,0.47-0.4,1.41-0.4
				c1.21,0,1.96-0.22,2.25-0.67c0.12-0.21,0.18-0.77,0.18-1.69v-24.02c0-1.46-0.11-2.3-0.33-2.54c-0.22-0.24-0.98-0.36-2.27-0.36
				c-0.68,0-1.01-0.16-1.01-0.49c0-0.24,0.25-0.36,0.75-0.36c-0.03,0,0.29,0,0.97,0c0.68,0,1.34,0,1.98,0h4.72
				c5.29,0,9.04,0.37,11.25,1.12c2.67,0.89,4.83,2.66,6.48,5.3S757.73,1295.45,757.73,1298.88z M752.79,1298.7
				c0-4.95-0.96-8.58-2.87-10.89c-1.91-2.31-4.9-3.46-8.95-3.46c-1.97,0-3.16,0.21-3.57,0.63c-0.18,0.21-0.26,0.92-0.26,2.15v23.78
				c0,0.83,0.02,1.34,0.07,1.52c0.04,0.18,0.17,0.33,0.38,0.45c0.71,0.36,2.19,0.54,4.45,0.54c3.17,0,5.73-1.13,7.67-3.4
				C751.77,1307.63,752.79,1303.86,752.79,1298.7z"/>
			<path fill="#4D4E4E" d="M784.32,1307.17c0,0.12-0.03,0.85-0.09,2.18c-0.06,1.34-0.09,2.62-0.09,3.83v1.47
				c-2.88-0.18-8.58-0.27-17.11-0.27c-1.03,0-2.04,0-3.04,0c-1,0-1.68,0-2.03,0h-0.44c-0.56,0-0.84-0.12-0.84-0.36
				c0-0.16,0.09-0.25,0.26-0.28c0.09,0,0.65-0.04,1.68-0.12c0.76-0.06,1.23-0.22,1.39-0.49c0.16-0.27,0.24-0.97,0.24-2.1v-25.12
				c0-0.86-0.13-1.38-0.38-1.54c-0.25-0.16-1.05-0.25-2.4-0.25c-0.47,0-0.71-0.13-0.71-0.38c0-0.25,0.32-0.38,0.97-0.38h7.54
				c0.26,0,1.93,0,4.98,0s5.12,0,6.17,0c0.88,0,1.69-0.06,2.42-0.18c0.06,1.28,0.19,3.05,0.4,5.3l0.18,1.92
				c0.03,0.15,0.04,0.34,0.04,0.58c0,0.3-0.13,0.45-0.4,0.45c-0.32,0-0.56-0.37-0.71-1.12c-0.56-2.69-1.47-4.4-2.73-5.11
				c-0.94-0.54-3.41-0.81-7.41-0.81h-3.62v13.1h1.06c3.29,0,5.3-0.25,6.02-0.76c0.72-0.5,1.21-1.98,1.48-4.41
				c0.06-0.62,0.22-0.94,0.49-0.94c0.32,0,0.49,0.27,0.49,0.8s-0.03,1.32-0.09,2.36s-0.09,1.83-0.09,2.36
				c0,3.18,0.05,5.36,0.14,6.55c0.02,0.3,0.04,0.55,0.04,0.76c0,0.39-0.16,0.58-0.48,0.58c-0.21,0-0.34-0.13-0.42-0.38
				c-0.07-0.25-0.2-1.08-0.37-2.47c-0.23-1.75-0.95-2.84-2.15-3.25c-0.53-0.18-1.9-0.27-4.13-0.27h-1.98v14.93
				c6.47,0,10.26-0.13,11.38-0.4c1.94-0.44,3.04-2.32,3.31-5.63c0.06-0.73,0.25-1.1,0.57-1.1
				C784.18,1306.23,784.32,1306.54,784.32,1307.17z"/>
			<path fill="#4D4E4E" d="M813.56,1283.81c0,0.3-0.37,0.43-1.1,0.4h-0.97h-0.79c-0.47,0-0.75,0.08-0.84,0.25s-0.13,0.66-0.13,1.49
				v25.63c0,1.57-0.02,2.49-0.04,2.76s-0.12,0.4-0.26,0.4c-0.18,0-0.38-0.17-0.62-0.49l-5.63-8.34
				c-3.27-4.84-7.24-10.89-11.92-18.14v24.88c0.03,0.39,0.25,0.63,0.67,0.74s1.41,0.17,2.99,0.2c0.39,0,0.58,0.12,0.58,0.36
				c0,0.3-0.38,0.45-1.15,0.45c-0.26,0-1.1-0.04-2.51-0.13c-0.47-0.03-0.93-0.04-1.37-0.04c0.03,0-0.23,0.03-0.77,0.09
				c-0.54,0.06-1.37,0.09-2.49,0.09h-0.44c-0.68,0-1.01-0.13-1.01-0.4c0-0.27,0.29-0.4,0.88-0.4c1.73-0.03,2.74-0.14,3.02-0.33
				c0.28-0.19,0.42-0.83,0.42-1.9v-22.01c0-2.47-0.5-4.02-1.5-4.64c-0.47-0.3-1.31-0.45-2.51-0.45c-0.76,0-1.15-0.16-1.15-0.47
				c0-0.28,0.22-0.42,0.66-0.42c0.59,0,1.34,0.03,2.25,0.09s1.4,0.09,1.46,0.09c0.09,0,0.5-0.01,1.24-0.04
				c0.97,0,1.91-0.04,2.82-0.13l15.21,22.95v-19.83c0-0.92-0.01-1.48-0.04-1.67s-0.15-0.34-0.35-0.45c-0.21-0.1-0.91-0.16-2.12-0.16
				c-1.06,0-1.59-0.13-1.59-0.4c0-0.3,0.35-0.45,1.06-0.45h1.54c0.38,0,0.79,0,1.23,0c0.47,0,0.75,0,0.84,0c0.03,0,0.29,0,0.79,0
				c0.47,0,0.91,0,1.32,0h1.37C813.24,1283.37,813.56,1283.52,813.56,1283.81z"/>
			<path fill="#4D4E4E" d="M839.31,1291.35c0,0.39-0.18,0.58-0.53,0.58s-0.6-0.39-0.75-1.16c-0.06-0.54-0.12-1.07-0.18-1.6
				c-0.21-1.07-0.54-1.98-1.01-2.72c-0.62-0.98-1.63-1.6-3.04-1.87c-0.91-0.18-1.65-0.25-2.2-0.22c-1.38,0.04-2.22,0.07-2.51,0.09
				v26.92c0,1.07,0.28,1.74,0.84,2.01c0.29,0.15,1.12,0.24,2.47,0.27c0.35,0.03,0.53,0.15,0.53,0.38c0,0.25-0.24,0.38-0.71,0.38
				c-0.24,0-0.44-0.02-0.62-0.04c-1.76-0.06-3.01-0.09-3.75-0.09c-0.97,0-1.88,0.02-2.73,0.07c-0.85,0.04-1.94,0.07-3.26,0.07
				c-0.68,0-1.01-0.12-1.01-0.36c0-0.27,0.63-0.42,1.9-0.45c0.91,0,1.5-0.19,1.76-0.58c0.15-0.24,0.22-0.85,0.22-1.83v-26.74
				c-2.91,0.03-4.72,0.18-5.42,0.45c-1.85,0.68-2.94,2.51-3.26,5.48c-0.09,0.89-0.29,1.34-0.62,1.34c-0.35,0-0.53-0.31-0.53-0.94
				c0-0.33,0.01-0.65,0.04-0.98l0.09-1.03c0.09-1.37,0.22-3.16,0.4-5.39h1.98l9,0.13c1.06,0.03,2.71,0.03,4.94,0l7.32-0.13
				c0.06,1.66,0.25,4.13,0.57,7.4c0,0.09,0.01,0.2,0.04,0.33C839.3,1291.24,839.31,1291.32,839.31,1291.35z"/>
			<path fill="#4D4E4E" d="M514.09,1399.29c0,0.59-0.21,0.89-0.63,0.89c-0.42,0-0.71-0.54-0.88-1.61c-0.5-3.09-1.53-5.35-3.09-6.77
				c-1.01-0.9-2.56-1.46-4.66-1.68c-0.76-0.09-2.44-0.13-5.04-0.13c-1.93,0-4.24,0.06-6.93,0.19v18.72
				c5.38,0.04,8.69-0.31,9.95-1.05c1.26-0.74,2.02-2.83,2.27-6.27c0.08-0.98,0.34-1.46,0.76-1.46c0.42,0,0.63,0.32,0.63,0.96
				c0,0.38-0.02,0.7-0.06,0.96c-0.13,2.93-0.19,5.65-0.19,8.15c0,3.23,0.07,5.77,0.2,7.64c0.03,0.17,0.05,0.42,0.05,0.76
				c0,0.51-0.21,0.76-0.63,0.76c-0.33,0-0.54-0.13-0.63-0.38c-0.08-0.25-0.23-1.23-0.44-2.93c-0.33-2.59-0.99-4.2-1.98-4.84
				s-2.94-0.96-5.86-0.96c-1.55,0-2.91,0.04-4.08,0.13v6.5v12.48c0,1.23,0.48,2.02,1.43,2.36c0.46,0.17,1.47,0.23,3.05,0.19
				c0.66,0,1,0.17,1,0.51c0,0.38-0.42,0.57-1.26,0.57h-0.63c-0.59,0-1.39,0-2.39,0c-0.97,0-1.62,0-1.95,0h-9.39
				c-0.8,0-1.2-0.17-1.2-0.51s0.72-0.55,2.17-0.64c1.45-0.09,2.3-0.29,2.55-0.61s0.38-1.31,0.38-2.97v-36.66
				c-0.04-0.77-0.27-1.25-0.67-1.44c-0.4-0.19-1.5-0.31-3.29-0.35c-0.68,0-1.02-0.21-1.02-0.63c0-0.38,0.38-0.58,1.13-0.58h1.01
				c-0.08,0,1.94,0,6.08,0c4.14,0,7.53,0,10.17,0c7.1,0,11.44-0.13,13.04-0.38c0.04,0.55,0.17,2.14,0.38,4.78
				c0.13,1.78,0.29,3.38,0.5,4.78C514.05,1398.35,514.09,1398.86,514.09,1399.29z"/>
			<path fill="#4D4E4E" d="M543.06,1402.37c0,0.24-0.26,0.36-0.79,0.36c-0.09,0-0.38,0-0.88,0c-0.15,0-0.35,0-0.62,0
				c-0.73,0-1.18,0.19-1.32,0.58c-0.06,0.21-0.09,0.55-0.09,1.02v16.69c0,4.33-0.8,7.48-2.4,9.46c-1.6,1.97-4.18,2.96-7.74,2.96
				c-4.26,0-7.26-1.22-9-3.66c-1.15-1.63-1.72-4.32-1.72-8.07v-17.87c-0.09-0.54-0.45-0.86-1.07-0.98
				c-0.18-0.03-0.73-0.04-1.65-0.04c-0.51-0.06-0.76-0.21-0.76-0.45c0-0.27,0.21-0.4,0.62-0.4h0.79c0.15,0,0.48,0,1.01,0
				c0.47,0,0.9,0,1.28,0h6.31c0.15,0,0.32,0,0.53,0c0.5,0,0.75,0.16,0.75,0.49c0,0.21-0.09,0.33-0.26,0.36
				c-0.18,0.03-0.76,0.06-1.76,0.09c-0.41,0-0.69,0.03-0.84,0.09c-0.29,0.12-0.46,0.33-0.48,0.62c-0.03,0.12-0.04,0.96-0.04,2.53
				v15.91c0,3.91,0.62,6.58,1.85,8c1.23,1.42,3.07,2.13,5.51,2.13c4.47,0,7-2.56,7.58-7.68c0.09-0.77,0.13-4.02,0.13-9.76v-2.53
				v-3.55v-3.06c0-0.29,0-0.62,0-0.98c0-0.38,0-0.55,0-0.49c0-0.65-0.31-1.05-0.93-1.2c-0.21-0.06-0.81-0.09-1.81-0.09
				c-0.59,0-0.88-0.16-0.88-0.49c0-0.27,0.21-0.4,0.62-0.4c0.24,0,0.43,0,0.58,0c0.35,0,1.64,0,3.86,0c0.33,0,0.69,0,1.11,0
				c0.38,0,0.67,0,0.84,0h0.66C542.72,1401.97,543.06,1402.11,543.06,1402.37z"/>
			<path fill="#4D4E4E" d="M568.64,1409.91c0,0.39-0.18,0.58-0.53,0.58c-0.35,0-0.6-0.39-0.75-1.16c-0.06-0.54-0.12-1.07-0.18-1.6
				c-0.21-1.07-0.54-1.98-1.02-2.72c-0.62-0.98-1.63-1.6-3.04-1.87c-0.91-0.18-1.65-0.25-2.21-0.22c-1.38,0.04-2.22,0.07-2.51,0.09
				v26.92c0,1.07,0.28,1.74,0.84,2.01c0.29,0.15,1.12,0.24,2.47,0.27c0.35,0.03,0.53,0.15,0.53,0.38c0,0.25-0.24,0.38-0.71,0.38
				c-0.24,0-0.44-0.02-0.62-0.04c-1.76-0.06-3.01-0.09-3.75-0.09c-0.97,0-1.88,0.02-2.73,0.07c-0.85,0.04-1.94,0.07-3.26,0.07
				c-0.68,0-1.01-0.12-1.01-0.36c0-0.27,0.63-0.42,1.9-0.45c0.91,0,1.5-0.19,1.76-0.58c0.15-0.24,0.22-0.85,0.22-1.83V1403
				c-2.91,0.03-4.72,0.18-5.42,0.45c-1.85,0.68-2.94,2.51-3.26,5.48c-0.09,0.89-0.29,1.34-0.62,1.34c-0.35,0-0.53-0.31-0.53-0.94
				c0-0.33,0.01-0.65,0.04-0.98l0.09-1.03c0.09-1.37,0.22-3.16,0.4-5.39h1.98l9,0.13c1.06,0.03,2.7,0.03,4.94,0l7.32-0.13
				c0.06,1.66,0.25,4.13,0.57,7.4c0,0.09,0.01,0.2,0.04,0.33S568.64,1409.88,568.64,1409.91z"/>
			<path fill="#4D4E4E" d="M598.27,1402.37c0,0.24-0.26,0.36-0.79,0.36c-0.09,0-0.38,0-0.88,0c-0.15,0-0.35,0-0.62,0
				c-0.74,0-1.18,0.19-1.32,0.58c-0.06,0.21-0.09,0.55-0.09,1.02v16.69c0,4.33-0.8,7.48-2.4,9.46c-1.6,1.97-4.18,2.96-7.74,2.96
				c-4.26,0-7.26-1.22-9-3.66c-1.15-1.63-1.72-4.32-1.72-8.07v-17.87c-0.09-0.54-0.45-0.86-1.07-0.98
				c-0.18-0.03-0.73-0.04-1.65-0.04c-0.51-0.06-0.76-0.21-0.76-0.45c0-0.27,0.21-0.4,0.62-0.4h0.79c0.15,0,0.49,0,1.01,0
				c0.47,0,0.9,0,1.28,0h6.31c0.15,0,0.32,0,0.53,0c0.5,0,0.75,0.16,0.75,0.49c0,0.21-0.09,0.33-0.26,0.36
				c-0.18,0.03-0.76,0.06-1.76,0.09c-0.41,0-0.69,0.03-0.84,0.09c-0.29,0.12-0.46,0.33-0.49,0.62c-0.03,0.12-0.04,0.96-0.04,2.53
				v15.91c0,3.91,0.62,6.58,1.85,8c1.23,1.42,3.07,2.13,5.51,2.13c4.47,0,7-2.56,7.58-7.68c0.09-0.77,0.13-4.02,0.13-9.76v-2.53
				v-3.55v-3.06c0-0.29,0-0.62,0-0.98c0-0.38,0-0.55,0-0.49c0-0.65-0.31-1.05-0.93-1.2c-0.21-0.06-0.81-0.09-1.81-0.09
				c-0.59,0-0.88-0.16-0.88-0.49c0-0.27,0.21-0.4,0.62-0.4c0.24,0,0.43,0,0.58,0c0.35,0,1.64,0,3.86,0c0.33,0,0.7,0,1.11,0
				c0.38,0,0.67,0,0.84,0h0.66C597.93,1401.97,598.27,1402.11,598.27,1402.37z"/>
			<path fill="#4D4E4E" d="M624.86,1431.57c0,1.25-1.03,1.87-3.09,1.87c-2.29,0-4.09-0.97-5.38-2.9c-0.56-0.83-0.92-1.63-1.08-2.41
				c-0.16-0.77-0.4-2.73-0.73-5.88c-0.18-1.9-0.78-3.25-1.81-4.03c-1.03-0.79-2.71-1.21-5.03-1.27v14.04c0,0.59,0.47,0.97,1.41,1.11
				c0.26,0.03,0.94,0.06,2.03,0.09c0.38,0,0.57,0.12,0.57,0.36c0,0.27-0.25,0.4-0.75,0.4h-0.53c-0.26,0-1.54,0-3.84,0
				c-0.44,0-1.19,0-2.25,0c-1.03,0-1.71,0-2.03,0h-1.72c-0.65,0-0.97-0.13-0.97-0.4c0-0.21,0.43-0.33,1.28-0.36
				c1.38-0.03,2.13-0.21,2.25-0.54c0.12-0.15,0.18-0.73,0.18-1.74v-24.6c0-1.19-0.13-1.9-0.38-2.14c-0.25-0.24-1.01-0.37-2.27-0.4
				c-0.74,0-1.1-0.13-1.1-0.4c0-0.3,0.24-0.45,0.71-0.45c0.09,0,0.22,0.01,0.4,0.04l5.87,0.13c0.59,0,1.41-0.02,2.47-0.06
				c1.17-0.08,2-0.12,2.47-0.12c2.73,0,4.9,0.62,6.5,1.85c1.6,1.23,2.4,2.9,2.4,5.01c0,2.08-0.82,3.8-2.47,5.15
				c-1.65,1.35-3.88,2.15-6.7,2.38c-0.26,0.03-0.41,0.07-0.44,0.13c0,0.12,0.15,0.18,0.44,0.18c3.09,0.54,5.21,1.63,6.37,3.29
				c1.16,1.65,1.93,4.64,2.31,8.96c0.24,2.44,1.06,3.67,2.47,3.67c0.44,0,0.66-0.09,0.66-0.27c0-0.03-0.01-0.06-0.04-0.09
				c-0.15-0.33-0.22-0.59-0.22-0.8c0-0.62,0.32-0.94,0.97-0.94C624.51,1430.45,624.86,1430.83,624.86,1431.57z M615.73,1409.24
				c0-4.25-1.82-6.37-5.47-6.37c-0.97,0-1.63,0.13-1.98,0.4s-0.53,0.74-0.53,1.43v11.32c2.82,0.03,4.86-0.49,6.11-1.56
				C615.11,1413.38,615.73,1411.65,615.73,1409.24z"/>
			<path fill="#4D4E4E" d="M649.38,1425.73c0,0.12-0.03,0.85-0.09,2.18c-0.06,1.34-0.09,2.62-0.09,3.83v1.47
				c-2.88-0.18-8.58-0.27-17.11-0.27c-1.03,0-2.04,0-3.04,0c-1,0-1.68,0-2.03,0h-0.44c-0.56,0-0.84-0.12-0.84-0.36
				c0-0.16,0.09-0.25,0.26-0.28c0.09,0,0.65-0.04,1.68-0.12c0.76-0.06,1.23-0.22,1.39-0.49c0.16-0.27,0.24-0.97,0.24-2.1v-25.12
				c0-0.86-0.13-1.38-0.38-1.54c-0.25-0.16-1.05-0.25-2.4-0.25c-0.47,0-0.71-0.13-0.71-0.38c0-0.25,0.32-0.38,0.97-0.38h7.54
				c0.26,0,1.93,0,4.98,0s5.12,0,6.17,0c0.88,0,1.69-0.06,2.42-0.18c0.06,1.28,0.19,3.05,0.4,5.3l0.18,1.92
				c0.03,0.15,0.04,0.34,0.04,0.58c0,0.3-0.13,0.45-0.4,0.45c-0.32,0-0.56-0.37-0.71-1.12c-0.56-2.69-1.47-4.4-2.73-5.11
				c-0.94-0.54-3.41-0.81-7.41-0.81h-3.62v13.1h1.06c3.29,0,5.3-0.25,6.02-0.76c0.72-0.5,1.21-1.98,1.48-4.41
				c0.06-0.62,0.22-0.94,0.49-0.94c0.32,0,0.49,0.27,0.49,0.8s-0.03,1.32-0.09,2.36s-0.09,1.83-0.09,2.36
				c0,3.18,0.05,5.36,0.14,6.55c0.02,0.3,0.04,0.55,0.04,0.76c0,0.39-0.16,0.58-0.48,0.58c-0.21,0-0.34-0.13-0.42-0.38
				c-0.07-0.25-0.2-1.08-0.37-2.47c-0.23-1.75-0.95-2.84-2.15-3.25c-0.53-0.18-1.9-0.27-4.13-0.27h-1.98v14.93
				c6.47,0,10.26-0.13,11.38-0.4c1.94-0.44,3.04-2.32,3.31-5.63c0.06-0.73,0.25-1.1,0.57-1.1
				C649.23,1424.79,649.38,1425.11,649.38,1425.73z"/>
			<path fill="#4D4E4E" d="M693.35,1399.29c0,4.12-1.74,7.32-5.23,9.61c-2.18,1.44-4.96,2.17-8.32,2.17c-1.43,0-3.05-0.15-4.85-0.45
				v18.08c0,0.98,0.04,1.59,0.13,1.85c0.21,0.59,0.67,0.96,1.39,1.08c1.22,0.17,2.39,0.25,3.53,0.25c0.46,0,0.69,0.15,0.69,0.45
				c0,0.42-0.29,0.64-0.88,0.64c-0.25,0-0.46,0-0.63,0c-2.31,0-6.66,0-13.04,0h-0.82c-1.26,0-1.89-0.21-1.89-0.64
				c0-0.3,0.44-0.45,1.32-0.45c1.97,0,3.11-0.19,3.4-0.57c0.34-0.17,0.52-0.59,0.57-1.28v-37.62c0-1.32-0.36-2.12-1.07-2.42
				c-0.42-0.17-1.16-0.25-2.21-0.25h-0.63c-0.13,0-0.27,0-0.44,0c-0.63,0-0.94-0.17-0.94-0.51c0-0.38,0.59-0.57,1.76-0.57h13.86
				c4.79,0,8.29,0.85,10.52,2.55C692.09,1393.11,693.35,1395.81,693.35,1399.29z M686.73,1399.35c0-6.41-2.65-9.61-7.94-9.61
				c-1.76,0-2.92,0.3-3.46,0.9c-0.25,0.26-0.38,0.92-0.38,1.99v17.05c0.34,0.04,0.71,0.06,1.13,0.06c2.77,0,5.12-0.62,7.06-1.86
				C685.54,1406.33,686.73,1403.49,686.73,1399.35z"/>
			<path fill="#4D4E4E" d="M723.84,1432.5c0,0.27-0.28,0.4-0.83,0.4h-6.04c-0.41,0-1.01,0-1.79,0c-0.79,0-1.37,0-1.75,0
				c-0.58,0-0.88-0.12-0.88-0.36s0.68-0.4,2.05-0.49c0.73-0.06,1.15-0.18,1.26-0.38c0.12-0.19,0.17-0.88,0.17-2.07v-12.98h-13.27
				v12.61c0,1.34,0.1,2.12,0.31,2.36c0.21,0.24,0.9,0.4,2.07,0.49c0.76,0.06,1.15,0.19,1.15,0.4c0,0.27-0.29,0.4-0.88,0.4h-0.4
				c-0.71,0-1.45,0-2.23,0c-0.78,0-1.24,0-1.39,0c-0.41,0-1.03,0-1.85,0c-0.82,0-2.06,0-3.71,0c-0.59,0-0.88-0.12-0.88-0.36
				s0.29-0.39,0.88-0.45c0.38-0.03,0.78-0.06,1.19-0.09c0.65-0.06,1.06-0.21,1.23-0.45c0.09-0.15,0.13-0.98,0.13-2.49v-23.5
				c0-1.33-0.07-2.12-0.2-2.36c-0.13-0.24-0.59-0.37-1.39-0.4c-0.91-0.06-1.45-0.11-1.61-0.14c-0.16-0.03-0.24-0.16-0.24-0.38
				c0-0.25,0.19-0.38,0.57-0.38c0.12,0,0.37,0.01,0.75,0.04c0.73,0.06,2.47,0.09,5.2,0.09c1.5,0,2.54-0.02,3.13-0.07
				c0.21-0.04,0.47-0.07,0.79-0.07c0.53,0,0.79,0.15,0.79,0.45c0,0.27-0.48,0.4-1.43,0.4c-0.96,0-1.53,0.11-1.72,0.33
				s-0.29,0.93-0.29,2.12v10.29h13.27v-9.61c0-1.58-0.12-2.51-0.35-2.79c-0.24-0.28-1.06-0.41-2.47-0.38c-0.44,0-0.66-0.13-0.66-0.4
				s0.25-0.4,0.75-0.4h0.22c0.41,0,1.13,0,2.16,0c1.06,0,1.85,0,2.38,0c1.79,0,3.01,0,3.64,0s1.04,0,1.21,0
				c0.62,0,0.93,0.13,0.93,0.4s-0.65,0.42-1.94,0.45c-0.38,0-0.66,0.03-0.84,0.09c-0.29,0.09-0.48,0.25-0.55,0.49
				c-0.07,0.24-0.11,0.94-0.11,2.09v23.71c0,1.43,0.07,2.26,0.22,2.5c0.29,0.33,1.13,0.49,2.53,0.49
				C723.61,1432.09,723.84,1432.21,723.84,1432.5z"/>
			<path fill="#4D4E4E" d="M755.02,1417.62c0,4.43-1.32,8.17-3.95,11.23s-5.86,4.59-9.68,4.59c-4.06,0-7.47-1.55-10.23-4.66
				c-2.76-3.1-4.14-6.93-4.14-11.48c0-4.63,1.33-8.43,3.99-11.39c2.66-2.96,6.06-4.43,10.21-4.43c3.91,0,7.19,1.55,9.83,4.64
				C753.7,1409.21,755.02,1413.04,755.02,1417.62z M750.08,1417.84c0-5.45-1.1-9.7-3.31-12.74c-1.38-1.91-3.31-2.86-5.78-2.86
				c-2.35,0-4.17,0.73-5.47,2.19c-2.38,2.68-3.57,7.05-3.57,13.1c0,4.8,0.83,8.52,2.49,11.18c1.66,2.65,3.99,3.98,6.99,3.98
				c2.79,0,4.89-1.25,6.31-3.75C749.3,1426.16,750.08,1422.46,750.08,1417.84z"/>
			<path fill="#4D4E4E" d="M782.05,1409.91c0,0.39-0.18,0.58-0.53,0.58s-0.6-0.39-0.75-1.16c-0.06-0.54-0.12-1.07-0.18-1.6
				c-0.21-1.07-0.54-1.98-1.01-2.72c-0.62-0.98-1.63-1.6-3.04-1.87c-0.91-0.18-1.65-0.25-2.2-0.22c-1.38,0.04-2.22,0.07-2.51,0.09
				v26.92c0,1.07,0.28,1.74,0.84,2.01c0.29,0.15,1.12,0.24,2.47,0.27c0.35,0.03,0.53,0.15,0.53,0.38c0,0.25-0.24,0.38-0.71,0.38
				c-0.24,0-0.44-0.02-0.62-0.04c-1.76-0.06-3.01-0.09-3.75-0.09c-0.97,0-1.88,0.02-2.73,0.07c-0.85,0.04-1.94,0.07-3.26,0.07
				c-0.68,0-1.01-0.12-1.01-0.36c0-0.27,0.63-0.42,1.9-0.45c0.91,0,1.5-0.19,1.76-0.58c0.15-0.24,0.22-0.85,0.22-1.83V1403
				c-2.91,0.03-4.72,0.18-5.42,0.45c-1.85,0.68-2.94,2.51-3.26,5.48c-0.09,0.89-0.29,1.34-0.62,1.34c-0.35,0-0.53-0.31-0.53-0.94
				c0-0.33,0.01-0.65,0.04-0.98l0.09-1.03c0.09-1.37,0.22-3.16,0.4-5.39h1.98l9,0.13c1.06,0.03,2.71,0.03,4.94,0l7.32-0.13
				c0.06,1.66,0.25,4.13,0.57,7.4c0,0.09,0.01,0.2,0.04,0.33C782.04,1409.8,782.05,1409.88,782.05,1409.91z"/>
			<path fill="#4D4E4E" d="M812.61,1417.62c0,4.43-1.32,8.17-3.95,11.23s-5.86,4.59-9.68,4.59c-4.06,0-7.47-1.55-10.23-4.66
				c-2.76-3.1-4.14-6.93-4.14-11.48c0-4.63,1.33-8.43,3.99-11.39c2.66-2.96,6.06-4.43,10.21-4.43c3.91,0,7.19,1.55,9.83,4.64
				C811.29,1409.21,812.61,1413.04,812.61,1417.62z M807.67,1417.84c0-5.45-1.1-9.7-3.31-12.74c-1.38-1.91-3.31-2.86-5.78-2.86
				c-2.35,0-4.17,0.73-5.47,2.19c-2.38,2.68-3.57,7.05-3.57,13.1c0,4.8,0.83,8.52,2.49,11.18c1.66,2.65,3.99,3.98,6.99,3.98
				c2.79,0,4.89-1.25,6.31-3.75C806.89,1426.16,807.67,1422.46,807.67,1417.84z"/>
			<path fill="#4D4E4E" d="M844.76,1423.57c0,0.22-0.35,0.34-1.06,0.34c-1.59,0-2.47,0.24-2.65,0.71c-0.12,0.33-0.18,1.61-0.18,3.86
				v1.42c-1.53,1.3-2.98,2.22-4.37,2.75c-1.38,0.53-3.04,0.8-4.98,0.8c-4.65,0-8.33-1.4-11.07-4.21c-2.73-2.81-4.1-6.62-4.1-11.43
				c0-4.87,1.34-8.81,4.01-11.81c2.67-3,6.2-4.5,10.58-4.5c1.91,0,4,0.54,6.26,1.6c0.68,0.33,1.24,0.49,1.68,0.49
				c0.56,0,0.93-0.36,1.1-1.07c0.15-0.42,0.32-0.62,0.53-0.62c0.24,0,0.35,0.13,0.35,0.4c0,0.03-0.03,0.31-0.08,0.85
				c-0.18,1.75-0.26,3.05-0.23,3.88v2.41c0.03,1.22,0.01,1.98-0.04,2.27c-0.06,0.3-0.22,0.45-0.49,0.45s-0.41-0.21-0.44-0.63
				c-0.15-2.87-0.97-5.13-2.47-6.78c-1.5-1.66-3.47-2.48-5.91-2.48c-3.06,0-5.48,1.38-7.25,4.14c-1.78,2.76-2.67,6.52-2.67,11.29
				c0,4.62,0.9,8.28,2.71,10.97c1.81,2.7,4.26,4.05,7.34,4.05c2.35,0,3.97-0.69,4.85-2.06c0.44-0.69,0.66-1.93,0.66-3.72
				c0-1.49-0.14-2.37-0.42-2.64s-1.24-0.39-2.89-0.36c-0.41,0-0.68-0.02-0.79-0.06c-0.12-0.04-0.18-0.13-0.18-0.26
				c0-0.29,0.32-0.44,0.97-0.44h0.79c0.65,0.03,2.26,0.03,4.85,0h3.53c0.21,0,0.43,0,0.66,0s0.4,0,0.49,0
				C844.46,1423.14,844.76,1423.29,844.76,1423.57z"/>
			<path fill="#4D4E4E" d="M869.98,1431.57c0,1.25-1.03,1.87-3.09,1.87c-2.29,0-4.09-0.97-5.38-2.9c-0.56-0.83-0.92-1.63-1.08-2.41
				c-0.16-0.77-0.4-2.73-0.73-5.88c-0.18-1.9-0.78-3.25-1.81-4.03c-1.03-0.79-2.71-1.21-5.03-1.27v14.04c0,0.59,0.47,0.97,1.41,1.11
				c0.26,0.03,0.94,0.06,2.03,0.09c0.38,0,0.57,0.12,0.57,0.36c0,0.27-0.25,0.4-0.75,0.4h-0.53c-0.26,0-1.54,0-3.84,0
				c-0.44,0-1.19,0-2.25,0c-1.03,0-1.71,0-2.03,0h-1.72c-0.65,0-0.97-0.13-0.97-0.4c0-0.21,0.43-0.33,1.28-0.36
				c1.38-0.03,2.13-0.21,2.25-0.54c0.12-0.15,0.18-0.73,0.18-1.74v-24.6c0-1.19-0.13-1.9-0.38-2.14c-0.25-0.24-1.01-0.37-2.27-0.4
				c-0.74,0-1.1-0.13-1.1-0.4c0-0.3,0.24-0.45,0.71-0.45c0.09,0,0.22,0.01,0.4,0.04l5.87,0.13c0.59,0,1.41-0.02,2.47-0.06
				c1.17-0.08,2-0.12,2.47-0.12c2.73,0,4.9,0.62,6.5,1.85c1.6,1.23,2.4,2.9,2.4,5.01c0,2.08-0.82,3.8-2.47,5.15
				c-1.65,1.35-3.88,2.15-6.7,2.38c-0.26,0.03-0.41,0.07-0.44,0.13c0,0.12,0.15,0.18,0.44,0.18c3.09,0.54,5.21,1.63,6.37,3.29
				c1.16,1.65,1.93,4.64,2.31,8.96c0.24,2.44,1.06,3.67,2.47,3.67c0.44,0,0.66-0.09,0.66-0.27c0-0.03-0.01-0.06-0.04-0.09
				c-0.15-0.33-0.22-0.59-0.22-0.8c0-0.62,0.32-0.94,0.97-0.94C869.63,1430.45,869.98,1430.83,869.98,1431.57z M860.85,1409.24
				c0-4.25-1.82-6.37-5.47-6.37c-0.97,0-1.63,0.13-1.98,0.4s-0.53,0.74-0.53,1.43v11.32c2.82,0.03,4.86-0.49,6.11-1.56
				C860.23,1413.38,860.85,1411.65,860.85,1409.24z"/>
			<path fill="#4D4E4E" d="M898.25,1432.61c0,0.25-0.22,0.38-0.66,0.38c-0.29,0-0.56-0.01-0.79-0.04l-5.6-0.18l-5.6,0.18
				c-0.21,0.03-0.43,0.04-0.66,0.04c-0.59,0-0.88-0.16-0.88-0.47c0-0.34,0.4-0.51,1.19-0.51c2.59-0.03,3.88-0.29,3.88-0.79
				c0-0.03-0.03-0.14-0.09-0.35l-0.36-1.18l-0.23-0.62c-0.26-0.92-0.91-2.96-1.94-6.11h-9.43c-1.76,4.75-2.64,7.49-2.64,8.2
				c0,0.42,0.18,0.67,0.53,0.76c0.09,0.03,0.82,0.09,2.2,0.18c0.85,0.03,1.28,0.18,1.28,0.45c0,0.3-0.38,0.45-1.15,0.45
				c-1.35,0-2.93-0.06-4.72-0.18c-0.44-0.03-0.9-0.04-1.37-0.04c-0.47,0-0.93,0.05-1.37,0.15c-0.23,0.05-0.43,0.07-0.57,0.07
				c-0.41,0-0.62-0.13-0.62-0.4c0-0.27,0.46-0.42,1.39-0.45c0.93-0.03,1.59-0.17,2.01-0.42c0.41-0.25,0.73-0.74,0.97-1.45
				c3.78-10.97,6.86-19.78,9.23-26.43c0.07-0.35,0.21-0.75,0.41-1.18l0.19-0.81c0.09-0.33,0.21-0.49,0.35-0.49
				c0.09,0,0.16,0.09,0.22,0.27c0.38,1.16,1.25,3.58,2.6,7.26c1.06,2.88,3.69,10.12,7.89,21.71c0.23,0.67,0.54,1.1,0.9,1.28
				c0.37,0.18,1.12,0.29,2.27,0.32C897.87,1432.22,898.25,1432.36,898.25,1432.61z M886.26,1421.94c-0.48-1.33-1.27-3.54-2.37-6.63
				l-2.12-6.18c-1.23,3.28-2.71,7.55-4.43,12.81H886.26z"/>
			<path fill="#4D4E4E" d="M918.23,1409.37c0,2.88-1.22,5.13-3.66,6.73c-1.53,1.01-3.47,1.52-5.82,1.52c-1,0-2.13-0.1-3.4-0.31
				v12.66c0,0.68,0.03,1.11,0.09,1.29c0.15,0.42,0.47,0.67,0.97,0.76c0.85,0.12,1.68,0.18,2.47,0.18c0.32,0,0.48,0.1,0.48,0.31
				c0,0.3-0.21,0.45-0.62,0.45c-0.18,0-0.32,0-0.44,0c-1.62,0-4.66,0-9.13,0h-0.57c-0.88,0-1.32-0.15-1.32-0.45
				c0-0.21,0.31-0.31,0.93-0.31c1.38,0,2.17-0.13,2.38-0.4c0.24-0.12,0.37-0.42,0.4-0.89v-26.33c0-0.92-0.25-1.49-0.75-1.7
				c-0.29-0.12-0.81-0.18-1.54-0.18h-0.44c-0.09,0-0.19,0-0.31,0c-0.44,0-0.66-0.12-0.66-0.36c0-0.27,0.41-0.4,1.23-0.4h9.7
				c3.35,0,5.81,0.59,7.36,1.78C917.34,1405.05,918.23,1406.94,918.23,1409.37z M913.59,1409.42c0-4.49-1.85-6.73-5.56-6.73
				c-1.24,0-2.04,0.21-2.43,0.63c-0.18,0.18-0.26,0.64-0.26,1.39v11.93c0.24,0.03,0.5,0.04,0.79,0.04c1.94,0,3.59-0.43,4.94-1.3
				C912.76,1414.3,913.59,1412.32,913.59,1409.42z"/>
			<path fill="#4D4E4E" d="M948.61,1432.5c0,0.27-0.28,0.4-0.83,0.4h-6.04c-0.41,0-1.01,0-1.79,0c-0.79,0-1.37,0-1.75,0
				c-0.58,0-0.88-0.12-0.88-0.36s0.68-0.4,2.05-0.49c0.73-0.06,1.15-0.18,1.26-0.38c0.12-0.19,0.17-0.88,0.17-2.07v-12.98h-13.27
				v12.61c0,1.34,0.1,2.12,0.31,2.36c0.21,0.24,0.9,0.4,2.07,0.49c0.76,0.06,1.15,0.19,1.15,0.4c0,0.27-0.29,0.4-0.88,0.4h-0.4
				c-0.71,0-1.45,0-2.23,0c-0.78,0-1.24,0-1.39,0c-0.41,0-1.03,0-1.85,0c-0.82,0-2.06,0-3.71,0c-0.59,0-0.88-0.12-0.88-0.36
				s0.29-0.39,0.88-0.45c0.38-0.03,0.78-0.06,1.19-0.09c0.65-0.06,1.06-0.21,1.23-0.45c0.09-0.15,0.13-0.98,0.13-2.49v-23.5
				c0-1.33-0.07-2.12-0.2-2.36c-0.13-0.24-0.59-0.37-1.39-0.4c-0.91-0.06-1.45-0.11-1.61-0.14c-0.16-0.03-0.24-0.16-0.24-0.38
				c0-0.25,0.19-0.38,0.57-0.38c0.12,0,0.37,0.01,0.75,0.04c0.73,0.06,2.47,0.09,5.2,0.09c1.5,0,2.54-0.02,3.13-0.07
				c0.21-0.04,0.47-0.07,0.79-0.07c0.53,0,0.79,0.15,0.79,0.45c0,0.27-0.48,0.4-1.43,0.4c-0.96,0-1.53,0.11-1.72,0.33
				s-0.29,0.93-0.29,2.12v10.29h13.27v-9.61c0-1.58-0.12-2.51-0.35-2.79c-0.24-0.28-1.06-0.41-2.47-0.38c-0.44,0-0.66-0.13-0.66-0.4
				s0.25-0.4,0.75-0.4h0.22c0.41,0,1.13,0,2.16,0c1.06,0,1.85,0,2.38,0c1.79,0,3.01,0,3.64,0s1.04,0,1.21,0
				c0.62,0,0.93,0.13,0.93,0.4s-0.65,0.42-1.94,0.45c-0.38,0-0.66,0.03-0.84,0.09c-0.29,0.09-0.48,0.25-0.55,0.49
				c-0.07,0.24-0.11,0.94-0.11,2.09v23.71c0,1.43,0.07,2.26,0.22,2.5c0.29,0.33,1.13,0.49,2.53,0.49
				C948.38,1432.09,948.61,1432.21,948.61,1432.5z"/>
			<path fill="#4D4E4E" d="M974.67,1425.73c0,0.12-0.03,0.85-0.09,2.18c-0.06,1.34-0.09,2.62-0.09,3.83v1.47
				c-2.88-0.18-8.58-0.27-17.11-0.27c-1.03,0-2.04,0-3.04,0c-1,0-1.68,0-2.03,0h-0.44c-0.56,0-0.84-0.12-0.84-0.36
				c0-0.16,0.09-0.25,0.26-0.28c0.09,0,0.65-0.04,1.68-0.12c0.76-0.06,1.23-0.22,1.39-0.49c0.16-0.27,0.24-0.97,0.24-2.1v-25.12
				c0-0.86-0.13-1.38-0.38-1.54c-0.25-0.16-1.05-0.25-2.4-0.25c-0.47,0-0.71-0.13-0.71-0.38c0-0.25,0.32-0.38,0.97-0.38h7.54
				c0.26,0,1.93,0,4.98,0s5.12,0,6.17,0c0.88,0,1.69-0.06,2.42-0.18c0.06,1.28,0.19,3.05,0.4,5.3l0.18,1.92
				c0.03,0.15,0.04,0.34,0.04,0.58c0,0.3-0.13,0.45-0.4,0.45c-0.32,0-0.56-0.37-0.71-1.12c-0.56-2.69-1.47-4.4-2.73-5.11
				c-0.94-0.54-3.41-0.81-7.41-0.81h-3.62v13.1h1.06c3.29,0,5.3-0.25,6.02-0.76c0.72-0.5,1.21-1.98,1.48-4.41
				c0.06-0.62,0.22-0.94,0.49-0.94c0.32,0,0.49,0.27,0.49,0.8s-0.03,1.32-0.09,2.36s-0.09,1.83-0.09,2.36
				c0,3.18,0.05,5.36,0.14,6.55c0.02,0.3,0.04,0.55,0.04,0.76c0,0.39-0.16,0.58-0.48,0.58c-0.21,0-0.34-0.13-0.42-0.38
				c-0.07-0.25-0.2-1.08-0.37-2.47c-0.23-1.75-0.95-2.84-2.15-3.25c-0.53-0.18-1.9-0.27-4.13-0.27h-1.98v14.93
				c6.47,0,10.26-0.13,11.38-0.4c1.94-0.44,3.04-2.32,3.31-5.63c0.06-0.73,0.25-1.1,0.57-1.1
				C974.52,1424.79,974.67,1425.11,974.67,1425.73z"/>
			<path fill="#4D4E4E" d="M1001.75,1431.57c0,1.25-1.03,1.87-3.09,1.87c-2.29,0-4.09-0.97-5.38-2.9c-0.56-0.83-0.92-1.63-1.08-2.41
				c-0.16-0.77-0.4-2.73-0.73-5.88c-0.18-1.9-0.78-3.25-1.81-4.03c-1.03-0.79-2.71-1.21-5.03-1.27v14.04c0,0.59,0.47,0.97,1.41,1.11
				c0.26,0.03,0.94,0.06,2.03,0.09c0.38,0,0.57,0.12,0.57,0.36c0,0.27-0.25,0.4-0.75,0.4h-0.53c-0.26,0-1.54,0-3.84,0
				c-0.44,0-1.19,0-2.25,0c-1.03,0-1.71,0-2.03,0h-1.72c-0.65,0-0.97-0.13-0.97-0.4c0-0.21,0.43-0.33,1.28-0.36
				c1.38-0.03,2.13-0.21,2.25-0.54c0.12-0.15,0.18-0.73,0.18-1.74v-24.6c0-1.19-0.13-1.9-0.38-2.14c-0.25-0.24-1.01-0.37-2.27-0.4
				c-0.74,0-1.1-0.13-1.1-0.4c0-0.3,0.24-0.45,0.71-0.45c0.09,0,0.22,0.01,0.4,0.04l5.87,0.13c0.59,0,1.41-0.02,2.47-0.06
				c1.17-0.08,2-0.12,2.47-0.12c2.73,0,4.9,0.62,6.5,1.85c1.6,1.23,2.4,2.9,2.4,5.01c0,2.08-0.82,3.8-2.47,5.15
				c-1.65,1.35-3.88,2.15-6.7,2.38c-0.26,0.03-0.41,0.07-0.44,0.13c0,0.12,0.15,0.18,0.44,0.18c3.09,0.54,5.21,1.63,6.37,3.29
				c1.16,1.65,1.93,4.64,2.31,8.96c0.24,2.44,1.06,3.67,2.47,3.67c0.44,0,0.66-0.09,0.66-0.27c0-0.03-0.01-0.06-0.04-0.09
				c-0.15-0.33-0.22-0.59-0.22-0.8c0-0.62,0.32-0.94,0.97-0.94C1001.39,1430.45,1001.75,1430.83,1001.75,1431.57z M992.62,1409.24
				c0-4.25-1.82-6.37-5.47-6.37c-0.97,0-1.63,0.13-1.98,0.4s-0.53,0.74-0.53,1.43v11.32c2.82,0.03,4.86-0.49,6.11-1.56
				C991.99,1413.38,992.62,1411.65,992.62,1409.24z"/>
			<path fill="#4D4E4E" d="M481.22,1517.85c0,0.59-0.21,0.89-0.63,0.89c-0.42,0-0.71-0.54-0.88-1.61c-0.5-3.09-1.53-5.35-3.09-6.77
				c-1.01-0.9-2.56-1.46-4.66-1.68c-0.76-0.09-2.44-0.13-5.04-0.13c-1.93,0-4.24,0.06-6.93,0.19v18.72
				c5.38,0.04,8.69-0.31,9.95-1.05c1.26-0.74,2.02-2.83,2.27-6.27c0.08-0.98,0.34-1.46,0.76-1.46c0.42,0,0.63,0.32,0.63,0.96
				c0,0.38-0.02,0.7-0.06,0.96c-0.13,2.93-0.19,5.65-0.19,8.15c0,3.23,0.07,5.77,0.2,7.64c0.03,0.17,0.05,0.42,0.05,0.76
				c0,0.51-0.21,0.76-0.63,0.76c-0.33,0-0.54-0.13-0.63-0.38c-0.08-0.25-0.23-1.23-0.44-2.93c-0.33-2.59-0.99-4.2-1.98-4.84
				s-2.94-0.96-5.86-0.96c-1.55,0-2.91,0.04-4.08,0.13v6.5v12.48c0,1.23,0.48,2.02,1.43,2.36c0.46,0.17,1.47,0.23,3.05,0.19
				c0.66,0,1,0.17,1,0.51c0,0.38-0.42,0.57-1.26,0.57h-0.63c-0.59,0-1.39,0-2.39,0c-0.97,0-1.62,0-1.95,0h-9.39
				c-0.8,0-1.2-0.17-1.2-0.51s0.72-0.55,2.17-0.64c1.45-0.09,2.3-0.29,2.55-0.61s0.38-1.31,0.38-2.97v-36.66
				c-0.04-0.77-0.27-1.25-0.67-1.44c-0.4-0.19-1.5-0.31-3.29-0.35c-0.68,0-1.02-0.21-1.02-0.63c0-0.38,0.38-0.58,1.13-0.58h1.01
				c-0.08,0,1.94,0,6.08,0c4.14,0,7.53,0,10.17,0c7.1,0,11.44-0.13,13.04-0.38c0.04,0.55,0.17,2.14,0.38,4.78
				c0.13,1.78,0.29,3.38,0.5,4.78C481.18,1516.91,481.22,1517.42,481.22,1517.85z"/>
			<path fill="#4D4E4E" d="M510.19,1520.93c0,0.24-0.26,0.36-0.79,0.36c-0.09,0-0.38,0-0.88,0c-0.15,0-0.35,0-0.62,0
				c-0.73,0-1.18,0.19-1.32,0.58c-0.06,0.21-0.09,0.55-0.09,1.02v16.69c0,4.33-0.8,7.48-2.4,9.46c-1.6,1.97-4.18,2.96-7.74,2.96
				c-4.26,0-7.26-1.22-9-3.66c-1.15-1.63-1.72-4.32-1.72-8.07v-17.87c-0.09-0.54-0.45-0.86-1.07-0.98
				c-0.18-0.03-0.73-0.04-1.65-0.04c-0.51-0.06-0.76-0.21-0.76-0.45c0-0.27,0.21-0.4,0.62-0.4h0.79c0.15,0,0.48,0,1.01,0
				c0.47,0,0.9,0,1.28,0h6.31c0.15,0,0.32,0,0.53,0c0.5,0,0.75,0.16,0.75,0.49c0,0.21-0.09,0.33-0.26,0.36
				c-0.18,0.03-0.76,0.06-1.76,0.09c-0.41,0-0.69,0.03-0.84,0.09c-0.29,0.12-0.46,0.33-0.48,0.62c-0.03,0.12-0.04,0.96-0.04,2.53
				v15.91c0,3.91,0.62,6.58,1.85,8c1.23,1.42,3.07,2.13,5.51,2.13c4.47,0,7-2.56,7.58-7.68c0.09-0.77,0.13-4.02,0.13-9.76v-2.53
				v-3.55v-3.06c0-0.29,0-0.62,0-0.98c0-0.38,0-0.55,0-0.49c0-0.65-0.31-1.05-0.93-1.2c-0.21-0.06-0.81-0.09-1.81-0.09
				c-0.59,0-0.88-0.16-0.88-0.49c0-0.27,0.21-0.4,0.62-0.4c0.24,0,0.43,0,0.58,0c0.35,0,1.64,0,3.86,0c0.33,0,0.69,0,1.11,0
				c0.38,0,0.67,0,0.84,0h0.66C509.85,1520.53,510.19,1520.67,510.19,1520.93z"/>
			<path fill="#4D4E4E" d="M535.77,1528.47c0,0.39-0.18,0.58-0.53,0.58c-0.35,0-0.6-0.39-0.75-1.16c-0.06-0.54-0.12-1.07-0.18-1.6
				c-0.21-1.07-0.54-1.98-1.01-2.72c-0.62-0.98-1.63-1.6-3.04-1.87c-0.91-0.18-1.65-0.25-2.21-0.22c-1.38,0.04-2.22,0.07-2.51,0.09
				v26.92c0,1.07,0.28,1.74,0.84,2.01c0.29,0.15,1.12,0.24,2.47,0.27c0.35,0.03,0.53,0.15,0.53,0.38c0,0.25-0.24,0.38-0.71,0.38
				c-0.24,0-0.44-0.02-0.62-0.04c-1.76-0.06-3.01-0.09-3.75-0.09c-0.97,0-1.88,0.02-2.73,0.07c-0.85,0.04-1.94,0.07-3.26,0.07
				c-0.68,0-1.01-0.12-1.01-0.36c0-0.27,0.63-0.42,1.9-0.45c0.91,0,1.5-0.19,1.76-0.58c0.15-0.24,0.22-0.85,0.22-1.83v-26.74
				c-2.91,0.03-4.72,0.18-5.42,0.45c-1.85,0.68-2.94,2.51-3.26,5.48c-0.09,0.89-0.29,1.34-0.62,1.34c-0.35,0-0.53-0.31-0.53-0.94
				c0-0.33,0.01-0.65,0.04-0.98l0.09-1.03c0.09-1.37,0.22-3.16,0.4-5.39h1.98l9,0.13c1.06,0.03,2.7,0.03,4.94,0l7.32-0.13
				c0.06,1.66,0.25,4.13,0.57,7.4c0,0.09,0.01,0.2,0.04,0.33C535.75,1528.36,535.77,1528.44,535.77,1528.47z"/>
			<path fill="#4D4E4E" d="M565.4,1520.93c0,0.24-0.26,0.36-0.79,0.36c-0.09,0-0.38,0-0.88,0c-0.15,0-0.35,0-0.62,0
				c-0.74,0-1.18,0.19-1.32,0.58c-0.06,0.21-0.09,0.55-0.09,1.02v16.69c0,4.33-0.8,7.48-2.4,9.46c-1.6,1.97-4.18,2.96-7.74,2.96
				c-4.26,0-7.26-1.22-9-3.66c-1.15-1.63-1.72-4.32-1.72-8.07v-17.87c-0.09-0.54-0.45-0.86-1.07-0.98
				c-0.18-0.03-0.73-0.04-1.65-0.04c-0.51-0.06-0.76-0.21-0.76-0.45c0-0.27,0.21-0.4,0.62-0.4h0.79c0.15,0,0.48,0,1.01,0
				c0.47,0,0.9,0,1.28,0h6.31c0.15,0,0.32,0,0.53,0c0.5,0,0.75,0.16,0.75,0.49c0,0.21-0.09,0.33-0.26,0.36
				c-0.18,0.03-0.76,0.06-1.76,0.09c-0.41,0-0.69,0.03-0.84,0.09c-0.29,0.12-0.46,0.33-0.48,0.62c-0.03,0.12-0.04,0.96-0.04,2.53
				v15.91c0,3.91,0.62,6.58,1.85,8c1.23,1.42,3.07,2.13,5.51,2.13c4.47,0,7-2.56,7.58-7.68c0.09-0.77,0.13-4.02,0.13-9.76v-2.53
				v-3.55v-3.06c0-0.29,0-0.62,0-0.98c0-0.38,0-0.55,0-0.49c0-0.65-0.31-1.05-0.93-1.2c-0.21-0.06-0.81-0.09-1.81-0.09
				c-0.59,0-0.88-0.16-0.88-0.49c0-0.27,0.21-0.4,0.62-0.4c0.24,0,0.43,0,0.58,0c0.35,0,1.64,0,3.86,0c0.33,0,0.69,0,1.11,0
				c0.38,0,0.67,0,0.84,0h0.66C565.06,1520.53,565.4,1520.67,565.4,1520.93z"/>
			<path fill="#4D4E4E" d="M591.99,1550.13c0,1.25-1.03,1.87-3.09,1.87c-2.29,0-4.09-0.97-5.38-2.9c-0.56-0.83-0.92-1.63-1.08-2.41
				c-0.16-0.77-0.4-2.73-0.73-5.88c-0.18-1.9-0.78-3.25-1.81-4.03c-1.03-0.79-2.71-1.21-5.03-1.27v14.04c0,0.59,0.47,0.97,1.41,1.11
				c0.27,0.03,0.94,0.06,2.03,0.09c0.38,0,0.57,0.12,0.57,0.36c0,0.27-0.25,0.4-0.75,0.4h-0.53c-0.27,0-1.54,0-3.84,0
				c-0.44,0-1.19,0-2.25,0c-1.03,0-1.71,0-2.03,0h-1.72c-0.65,0-0.97-0.13-0.97-0.4c0-0.21,0.43-0.33,1.28-0.36
				c1.38-0.03,2.13-0.21,2.25-0.54c0.12-0.15,0.18-0.73,0.18-1.74v-24.6c0-1.19-0.12-1.9-0.37-2.14c-0.25-0.24-1.01-0.37-2.27-0.4
				c-0.74,0-1.1-0.13-1.1-0.4c0-0.3,0.24-0.45,0.71-0.45c0.09,0,0.22,0.01,0.4,0.04l5.87,0.13c0.59,0,1.41-0.02,2.47-0.06
				c1.18-0.08,2-0.12,2.47-0.12c2.73,0,4.9,0.62,6.51,1.85c1.6,1.23,2.4,2.9,2.4,5.01c0,2.08-0.82,3.8-2.47,5.15
				c-1.65,1.35-3.88,2.15-6.7,2.38c-0.26,0.03-0.41,0.07-0.44,0.13c0,0.12,0.15,0.18,0.44,0.18c3.09,0.54,5.21,1.63,6.37,3.29
				c1.16,1.65,1.93,4.64,2.31,8.96c0.23,2.44,1.06,3.67,2.47,3.67c0.44,0,0.66-0.09,0.66-0.27c0-0.03-0.02-0.06-0.04-0.09
				c-0.15-0.33-0.22-0.59-0.22-0.8c0-0.62,0.32-0.94,0.97-0.94C591.64,1549.01,591.99,1549.39,591.99,1550.13z M582.86,1527.8
				c0-4.25-1.82-6.37-5.47-6.37c-0.97,0-1.63,0.13-1.98,0.4c-0.35,0.27-0.53,0.74-0.53,1.43v11.32c2.82,0.03,4.86-0.49,6.11-1.56
				C582.24,1531.94,582.86,1530.21,582.86,1527.8z"/>
			<path fill="#4D4E4E" d="M616.51,1544.29c0,0.12-0.03,0.85-0.09,2.18c-0.06,1.34-0.09,2.62-0.09,3.83v1.47
				c-2.88-0.18-8.58-0.27-17.11-0.27c-1.03,0-2.04,0-3.04,0c-1,0-1.68,0-2.03,0h-0.44c-0.56,0-0.84-0.12-0.84-0.36
				c0-0.16,0.09-0.25,0.26-0.28c0.09,0,0.65-0.04,1.68-0.12c0.76-0.06,1.23-0.22,1.39-0.49c0.16-0.27,0.24-0.97,0.24-2.1v-25.12
				c0-0.86-0.13-1.38-0.38-1.54c-0.25-0.16-1.05-0.25-2.4-0.25c-0.47,0-0.71-0.13-0.71-0.38c0-0.25,0.32-0.38,0.97-0.38h7.54
				c0.26,0,1.93,0,4.98,0s5.12,0,6.17,0c0.88,0,1.69-0.06,2.42-0.18c0.06,1.28,0.19,3.05,0.4,5.3l0.18,1.92
				c0.03,0.15,0.04,0.34,0.04,0.58c0,0.3-0.13,0.45-0.4,0.45c-0.32,0-0.56-0.37-0.71-1.12c-0.56-2.69-1.47-4.4-2.73-5.11
				c-0.94-0.54-3.41-0.81-7.41-0.81h-3.62v13.1h1.06c3.29,0,5.3-0.25,6.02-0.76c0.72-0.5,1.21-1.98,1.48-4.41
				c0.06-0.62,0.22-0.94,0.49-0.94c0.32,0,0.49,0.27,0.49,0.8s-0.03,1.32-0.09,2.36s-0.09,1.83-0.09,2.36
				c0,3.18,0.05,5.36,0.14,6.55c0.02,0.3,0.04,0.55,0.04,0.76c0,0.39-0.16,0.58-0.48,0.58c-0.21,0-0.34-0.13-0.42-0.38
				c-0.07-0.25-0.2-1.08-0.37-2.47c-0.23-1.75-0.95-2.84-2.15-3.25c-0.53-0.18-1.9-0.27-4.13-0.27h-1.98v14.93
				c6.47,0,10.26-0.13,11.38-0.4c1.94-0.44,3.04-2.32,3.31-5.63c0.06-0.73,0.25-1.1,0.57-1.1
				C616.36,1543.35,616.51,1543.67,616.51,1544.29z"/>
			<path fill="#4D4E4E" d="M672.39,1538.12c0,0.32-0.5,0.48-1.51,0.48c-2.27,0-3.53,0.34-3.78,1.01c-0.17,0.47-0.25,2.3-0.25,5.51
				v2.03c-2.18,1.86-4.26,3.17-6.24,3.93c-1.97,0.76-4.35,1.14-7.12,1.14c-6.64,0-11.91-2-15.81-6.02
				c-3.91-4.01-5.86-9.46-5.86-16.33c0-6.96,1.91-12.58,5.73-16.87c3.82-4.29,8.86-6.43,15.12-6.43c2.73,0,5.71,0.76,8.95,2.29
				c0.96,0.47,1.76,0.7,2.39,0.7c0.8,0,1.32-0.51,1.58-1.53c0.21-0.59,0.46-0.89,0.76-0.89c0.33,0,0.5,0.19,0.5,0.57
				c0,0.04-0.04,0.45-0.11,1.21c-0.26,2.5-0.37,4.35-0.33,5.54v3.44c0.04,1.74,0.02,2.82-0.06,3.25c-0.08,0.42-0.32,0.64-0.69,0.64
				s-0.59-0.3-0.63-0.9c-0.21-4.09-1.39-7.32-3.53-9.69c-2.14-2.37-4.96-3.55-8.44-3.55c-4.37,0-7.82,1.97-10.36,5.91
				c-2.54,3.94-3.81,9.31-3.81,16.12c0,6.6,1.29,11.83,3.87,15.68c2.58,3.85,6.08,5.78,10.49,5.78c3.36,0,5.67-0.98,6.93-2.94
				c0.63-0.98,0.94-2.75,0.94-5.31c0-2.13-0.2-3.39-0.6-3.78c-0.4-0.38-1.78-0.55-4.13-0.51c-0.59,0-0.97-0.03-1.13-0.09
				c-0.17-0.06-0.25-0.18-0.25-0.37c0-0.42,0.46-0.63,1.39-0.63h1.13c0.92,0.04,3.23,0.04,6.93,0h5.04c0.29,0,0.61,0,0.95,0
				c0.34,0,0.57,0,0.69,0C671.97,1537.52,672.39,1537.72,672.39,1538.12z"/>
			<path fill="#4D4E4E" d="M697.2,1550.13c0,1.25-1.03,1.87-3.09,1.87c-2.29,0-4.09-0.97-5.38-2.9c-0.56-0.83-0.92-1.63-1.08-2.41
				c-0.16-0.77-0.4-2.73-0.73-5.88c-0.18-1.9-0.78-3.25-1.81-4.03c-1.03-0.79-2.71-1.21-5.03-1.27v14.04c0,0.59,0.47,0.97,1.41,1.11
				c0.26,0.03,0.94,0.06,2.03,0.09c0.38,0,0.57,0.12,0.57,0.36c0,0.27-0.25,0.4-0.75,0.4h-0.53c-0.26,0-1.54,0-3.84,0
				c-0.44,0-1.19,0-2.25,0c-1.03,0-1.71,0-2.03,0h-1.72c-0.65,0-0.97-0.13-0.97-0.4c0-0.21,0.43-0.33,1.28-0.36
				c1.38-0.03,2.13-0.21,2.25-0.54c0.12-0.15,0.18-0.73,0.18-1.74v-24.6c0-1.19-0.13-1.9-0.38-2.14c-0.25-0.24-1.01-0.37-2.27-0.4
				c-0.74,0-1.1-0.13-1.1-0.4c0-0.3,0.24-0.45,0.71-0.45c0.09,0,0.22,0.01,0.4,0.04l5.87,0.13c0.59,0,1.41-0.02,2.47-0.06
				c1.17-0.08,2-0.12,2.47-0.12c2.73,0,4.9,0.62,6.5,1.85c1.6,1.23,2.4,2.9,2.4,5.01c0,2.08-0.82,3.8-2.47,5.15
				c-1.65,1.35-3.88,2.15-6.7,2.38c-0.26,0.03-0.41,0.07-0.44,0.13c0,0.12,0.15,0.18,0.44,0.18c3.09,0.54,5.21,1.63,6.37,3.29
				c1.16,1.65,1.93,4.64,2.31,8.96c0.24,2.44,1.06,3.67,2.47,3.67c0.44,0,0.66-0.09,0.66-0.27c0-0.03-0.01-0.06-0.04-0.09
				c-0.15-0.33-0.22-0.59-0.22-0.8c0-0.62,0.32-0.94,0.97-0.94C696.84,1549.01,697.2,1549.39,697.2,1550.13z M688.07,1527.8
				c0-4.25-1.82-6.37-5.47-6.37c-0.97,0-1.63,0.13-1.98,0.4s-0.53,0.74-0.53,1.43v11.32c2.82,0.03,4.86-0.49,6.11-1.56
				C687.44,1531.94,688.07,1530.21,688.07,1527.8z"/>
			<path fill="#4D4E4E" d="M725.46,1551.17c0,0.25-0.22,0.38-0.66,0.38c-0.29,0-0.56-0.01-0.79-0.04l-5.6-0.18l-5.6,0.18
				c-0.21,0.03-0.43,0.04-0.66,0.04c-0.59,0-0.88-0.16-0.88-0.47c0-0.34,0.4-0.51,1.19-0.51c2.59-0.03,3.88-0.29,3.88-0.79
				c0-0.03-0.03-0.14-0.09-0.35l-0.36-1.18l-0.23-0.62c-0.26-0.92-0.91-2.96-1.94-6.11h-9.43c-1.76,4.75-2.64,7.49-2.64,8.2
				c0,0.42,0.18,0.67,0.53,0.76c0.09,0.03,0.82,0.09,2.2,0.18c0.85,0.03,1.28,0.18,1.28,0.45c0,0.3-0.38,0.45-1.15,0.45
				c-1.35,0-2.93-0.06-4.72-0.18c-0.44-0.03-0.9-0.04-1.37-0.04c-0.47,0-0.93,0.05-1.37,0.15c-0.23,0.05-0.43,0.07-0.57,0.07
				c-0.41,0-0.62-0.13-0.62-0.4c0-0.27,0.46-0.42,1.39-0.45c0.93-0.03,1.59-0.17,2.01-0.42c0.41-0.25,0.73-0.74,0.97-1.45
				c3.78-10.97,6.86-19.78,9.23-26.43c0.07-0.35,0.21-0.75,0.41-1.18l0.19-0.81c0.09-0.33,0.21-0.49,0.35-0.49
				c0.09,0,0.16,0.09,0.22,0.27c0.38,1.16,1.25,3.58,2.6,7.26c1.06,2.88,3.69,10.12,7.89,21.71c0.23,0.67,0.54,1.1,0.9,1.28
				c0.37,0.18,1.12,0.29,2.27,0.32C725.08,1550.78,725.46,1550.92,725.46,1551.17z M713.47,1540.5c-0.48-1.33-1.27-3.54-2.37-6.63
				l-2.12-6.18c-1.23,3.28-2.71,7.55-4.43,12.81H713.47z"/>
			<path fill="#4D4E4E" d="M745.44,1527.93c0,2.88-1.22,5.13-3.66,6.73c-1.53,1.01-3.47,1.52-5.82,1.52c-1,0-2.13-0.1-3.4-0.31
				v12.66c0,0.68,0.03,1.11,0.09,1.29c0.15,0.42,0.47,0.67,0.97,0.76c0.85,0.12,1.68,0.18,2.47,0.18c0.32,0,0.48,0.1,0.48,0.31
				c0,0.3-0.21,0.45-0.62,0.45c-0.18,0-0.32,0-0.44,0c-1.62,0-4.66,0-9.13,0h-0.57c-0.88,0-1.32-0.15-1.32-0.45
				c0-0.21,0.31-0.31,0.93-0.31c1.38,0,2.17-0.13,2.38-0.4c0.24-0.12,0.37-0.42,0.4-0.89v-26.33c0-0.92-0.25-1.49-0.75-1.7
				c-0.29-0.12-0.81-0.18-1.54-0.18h-0.44c-0.09,0-0.19,0-0.31,0c-0.44,0-0.66-0.12-0.66-0.36c0-0.27,0.41-0.4,1.23-0.4h9.7
				c3.35,0,5.81,0.59,7.36,1.78C744.55,1523.61,745.44,1525.5,745.44,1527.93z M740.81,1527.98c0-4.49-1.85-6.73-5.56-6.73
				c-1.24,0-2.04,0.21-2.43,0.63c-0.18,0.18-0.26,0.64-0.26,1.39v11.93c0.24,0.03,0.5,0.04,0.79,0.04c1.94,0,3.59-0.43,4.94-1.3
				C739.97,1532.86,740.81,1530.88,740.81,1527.98z"/>
			<path fill="#4D4E4E" d="M775.82,1551.06c0,0.27-0.28,0.4-0.83,0.4h-6.04c-0.41,0-1.01,0-1.79,0c-0.79,0-1.37,0-1.75,0
				c-0.58,0-0.88-0.12-0.88-0.36s0.68-0.4,2.05-0.49c0.73-0.06,1.15-0.18,1.26-0.38c0.12-0.19,0.17-0.88,0.17-2.07v-12.98h-13.27
				v12.61c0,1.34,0.1,2.12,0.31,2.36c0.21,0.24,0.9,0.4,2.07,0.49c0.76,0.06,1.15,0.19,1.15,0.4c0,0.27-0.29,0.4-0.88,0.4h-0.4
				c-0.71,0-1.45,0-2.23,0c-0.78,0-1.24,0-1.39,0c-0.41,0-1.03,0-1.85,0c-0.82,0-2.06,0-3.71,0c-0.59,0-0.88-0.12-0.88-0.36
				s0.29-0.39,0.88-0.45c0.38-0.03,0.78-0.06,1.19-0.09c0.65-0.06,1.06-0.21,1.23-0.45c0.09-0.15,0.13-0.98,0.13-2.49v-23.5
				c0-1.33-0.07-2.12-0.2-2.36c-0.13-0.24-0.59-0.37-1.39-0.4c-0.91-0.06-1.45-0.11-1.61-0.14c-0.16-0.03-0.24-0.16-0.24-0.38
				c0-0.25,0.19-0.38,0.57-0.38c0.12,0,0.37,0.01,0.75,0.04c0.73,0.06,2.47,0.09,5.2,0.09c1.5,0,2.54-0.02,3.13-0.07
				c0.21-0.04,0.47-0.07,0.79-0.07c0.53,0,0.79,0.15,0.79,0.45c0,0.27-0.48,0.4-1.43,0.4c-0.96,0-1.53,0.11-1.72,0.33
				s-0.29,0.93-0.29,2.12v10.29h13.27v-9.61c0-1.58-0.12-2.51-0.35-2.79c-0.24-0.28-1.06-0.41-2.47-0.38c-0.44,0-0.66-0.13-0.66-0.4
				s0.25-0.4,0.75-0.4h0.22c0.41,0,1.13,0,2.16,0c1.06,0,1.85,0,2.38,0c1.79,0,3.01,0,3.64,0s1.04,0,1.21,0
				c0.62,0,0.93,0.13,0.93,0.4s-0.65,0.42-1.94,0.45c-0.38,0-0.66,0.03-0.84,0.09c-0.29,0.09-0.48,0.25-0.55,0.49
				c-0.07,0.24-0.11,0.94-0.11,2.09v23.71c0,1.43,0.07,2.26,0.22,2.5c0.29,0.33,1.13,0.49,2.53,0.49
				C775.59,1550.65,775.82,1550.77,775.82,1551.06z"/>
			<path fill="#4D4E4E" d="M789.84,1551.09c0,0.25-0.18,0.38-0.53,0.38h-0.44c-0.18-0.09-2.18-0.13-6.02-0.13
				c-0.74,0-1.48,0.03-2.21,0.09c-0.38,0.03-0.97,0.04-1.77,0.04c-0.38,0-0.58-0.13-0.58-0.4c0-0.24,0.38-0.37,1.15-0.4
				c1.18-0.03,1.87-0.17,2.07-0.42c0.21-0.25,0.31-1.11,0.31-2.57v-23.51c0-1.46-0.08-2.28-0.22-2.46c-0.18-0.3-1-0.48-2.46-0.54
				c-0.57-0.03-0.85-0.13-0.85-0.31c0-0.24,0.18-0.35,0.54-0.35h6.02c0.45,0,1.31,0.01,2.59,0.04l1.7-0.04
				c0.48,0,0.71,0.13,0.71,0.38c0,0.23-0.66,0.37-1.99,0.42c-0.75,0.03-1.21,0.16-1.38,0.4c-0.17,0.24-0.25,0.86-0.25,1.87v23.8
				c0,1.69,0.07,2.62,0.22,2.76c0.33,0.33,1.29,0.52,2.9,0.58C789.68,1550.71,789.84,1550.83,789.84,1551.09z"/>
			<path fill="#4D4E4E" d="M817.8,1541.48c0-0.03-0.03,0.37-0.09,1.2c-0.12,1.66-0.18,3.33-0.18,4.99c0,0.21,0.03,0.59,0.09,1.14
				c0.06,0.55,0.09,1.21,0.09,1.98v0.4c0,0.39-0.12,0.58-0.35,0.58s-0.44-0.22-0.62-0.67c-0.41-1.04-0.82-1.68-1.23-1.92
				c-2.12,1.87-4.66,2.81-7.63,2.81c-4.32,0-7.9-1.52-10.74-4.57s-4.25-6.89-4.25-11.52c0-4.67,1.3-8.48,3.9-11.43
				c2.6-2.96,5.96-4.43,10.08-4.43c1.5,0,2.7,0.13,3.59,0.38c0.9,0.25,2.01,0.77,3.33,1.54c0.65,0.39,1.13,0.58,1.46,0.58
				c0.26,0,0.51-0.24,0.75-0.71c0.38-0.83,0.69-1.25,0.93-1.25c0.23,0,0.35,0.12,0.35,0.36c0,0.12-0.03,0.31-0.09,0.58
				c-0.32,1.43-0.49,4.1-0.49,8.02c0,0.57-0.04,0.89-0.13,0.98c-0.09,0.09-0.21,0.13-0.35,0.13c-0.29,0-0.48-0.28-0.57-0.85
				c-0.38-2.38-0.93-4.14-1.63-5.3c-1.44-2.38-3.7-3.57-6.79-3.57c-2.38,0-4.26,0.8-5.64,2.41c-2.5,2.88-3.75,7.1-3.75,12.66
				c0,4.96,1.03,8.81,3.09,11.54c1.79,2.38,4.17,3.57,7.14,3.57c1.53,0,2.93-0.39,4.19-1.16c1.26-0.77,2.24-1.83,2.93-3.19
				c0.69-1.35,1.23-2.98,1.61-4.88c0.15-0.71,0.34-1.07,0.57-1.07C817.65,1540.81,817.8,1541.04,817.8,1541.48z"/>
			<path fill="#4D4E4E" d="M861.22,1536c0,5.25-1.81,9.33-5.42,12.25c-2.65,2.15-6.19,3.22-10.63,3.22c-0.12,0-0.64,0-1.57,0
				c-0.93,0-2.27,0-4.03,0h-2.21h-3.48c-0.21,0-0.43,0-0.66,0c-0.56,0-0.84-0.15-0.84-0.45c0-0.27,0.47-0.4,1.41-0.4
				c1.21,0,1.96-0.22,2.25-0.67c0.12-0.21,0.18-0.77,0.18-1.69v-24.02c0-1.46-0.11-2.3-0.33-2.54c-0.22-0.24-0.98-0.36-2.27-0.36
				c-0.68,0-1.01-0.16-1.01-0.49c0-0.24,0.25-0.36,0.75-0.36c-0.03,0,0.29,0,0.97,0c0.68,0,1.34,0,1.98,0h4.72
				c5.29,0,9.04,0.37,11.25,1.12c2.67,0.89,4.83,2.66,6.48,5.3S861.22,1532.57,861.22,1536z M856.29,1535.82
				c0-4.95-0.96-8.58-2.87-10.89c-1.91-2.31-4.9-3.46-8.95-3.46c-1.97,0-3.16,0.21-3.57,0.63c-0.18,0.21-0.26,0.92-0.26,2.15v23.78
				c0,0.83,0.02,1.34,0.07,1.52c0.04,0.18,0.17,0.33,0.38,0.45c0.71,0.36,2.19,0.54,4.45,0.54c3.17,0,5.73-1.13,7.67-3.4
				C855.26,1544.75,856.29,1540.98,856.29,1535.82z"/>
			<path fill="#4D4E4E" d="M887.81,1544.29c0,0.12-0.03,0.85-0.09,2.18c-0.06,1.34-0.09,2.62-0.09,3.83v1.47
				c-2.88-0.18-8.58-0.27-17.11-0.27c-1.03,0-2.04,0-3.04,0c-1,0-1.68,0-2.03,0h-0.44c-0.56,0-0.84-0.12-0.84-0.36
				c0-0.16,0.09-0.25,0.26-0.28c0.09,0,0.65-0.04,1.68-0.12c0.76-0.06,1.23-0.22,1.39-0.49c0.16-0.27,0.24-0.97,0.24-2.1v-25.12
				c0-0.86-0.13-1.38-0.38-1.54c-0.25-0.16-1.05-0.25-2.4-0.25c-0.47,0-0.71-0.13-0.71-0.38c0-0.25,0.32-0.38,0.97-0.38h7.54
				c0.26,0,1.93,0,4.98,0s5.12,0,6.17,0c0.88,0,1.69-0.06,2.42-0.18c0.06,1.28,0.19,3.05,0.4,5.3l0.18,1.92
				c0.03,0.15,0.04,0.34,0.04,0.58c0,0.3-0.13,0.45-0.4,0.45c-0.32,0-0.56-0.37-0.71-1.12c-0.56-2.69-1.47-4.4-2.73-5.11
				c-0.94-0.54-3.41-0.81-7.41-0.81h-3.62v13.1h1.06c3.29,0,5.3-0.25,6.02-0.76c0.72-0.5,1.21-1.98,1.48-4.41
				c0.06-0.62,0.22-0.94,0.49-0.94c0.32,0,0.49,0.27,0.49,0.8s-0.03,1.32-0.09,2.36s-0.09,1.83-0.09,2.36
				c0,3.18,0.05,5.36,0.14,6.55c0.02,0.3,0.04,0.55,0.04,0.76c0,0.39-0.16,0.58-0.48,0.58c-0.21,0-0.34-0.13-0.42-0.38
				c-0.07-0.25-0.2-1.08-0.37-2.47c-0.23-1.75-0.95-2.84-2.15-3.25c-0.53-0.18-1.9-0.27-4.13-0.27h-1.98v14.93
				c6.47,0,10.26-0.13,11.38-0.4c1.94-0.44,3.04-2.32,3.31-5.63c0.06-0.73,0.25-1.1,0.57-1.1
				C887.67,1543.35,887.81,1543.67,887.81,1544.29z"/>
			<path fill="#4D4E4E" d="M909.38,1542.77c0,2.56-0.96,4.73-2.89,6.53c-1.93,1.8-4.24,2.7-6.95,2.7c-1.59,0-3.48-0.49-5.69-1.47
				c-0.59-0.27-1.03-0.4-1.32-0.4c-0.35,0-0.57,0.41-0.66,1.23c-0.03,0.42-0.22,0.64-0.57,0.64c-0.29,0-0.44-0.18-0.44-0.54
				c0-0.24,0.01-0.42,0.04-0.54c0.23-1.81,0.35-3.49,0.35-5.04c0-0.3-0.03-1.13-0.09-2.5c-0.03-0.18-0.04-0.42-0.04-0.71
				c0-0.45,0.18-0.67,0.53-0.67c0.29,0,0.5,0.36,0.62,1.08c0.76,5.34,3.25,8.01,7.45,8.01c1.79,0,3.18-0.51,4.17-1.54
				c0.98-1.02,1.48-2.47,1.48-4.35c0-1.66-0.48-3.08-1.43-4.26s-2.59-2.34-4.92-3.5c-2.79-1.4-4.73-2.75-5.82-4.06
				c-1.09-1.31-1.63-2.93-1.63-4.86c0-2.47,0.79-4.5,2.36-6.11c1.57-1.6,3.56-2.41,5.98-2.41c1,0,2.38,0.34,4.14,1.03
				c0.62,0.24,1.07,0.36,1.37,0.36c0.32,0,0.54-0.06,0.64-0.18c0.1-0.12,0.2-0.43,0.29-0.94c0.06-0.3,0.22-0.45,0.49-0.45
				c0.29,0,0.44,0.18,0.44,0.53c0,0.24-0.02,0.42-0.04,0.54c-0.09,0.71-0.13,1.58-0.13,2.58c0,1.43,0.07,2.56,0.22,3.39l0.04,0.71
				c0.03,0.33-0.1,0.49-0.4,0.49c-0.32,0-0.54-0.34-0.66-1.03c-0.32-1.75-1.09-3.22-2.29-4.39c-1.21-1.17-2.56-1.76-4.06-1.76
				c-1.47,0-2.64,0.48-3.51,1.43c-0.87,0.95-1.3,2.24-1.3,3.88c0,1.9,0.63,3.43,1.9,4.59c0.71,0.65,2.23,1.58,4.59,2.76
				c2.76,1.4,4.75,2.82,5.95,4.26C908.77,1539.29,909.38,1540.93,909.38,1542.77z"/>
			<path fill="#4D4E4E" d="M923.4,1551.09c0,0.25-0.18,0.38-0.53,0.38h-0.44c-0.18-0.09-2.18-0.13-6.02-0.13
				c-0.74,0-1.48,0.03-2.21,0.09c-0.38,0.03-0.97,0.04-1.77,0.04c-0.38,0-0.58-0.13-0.58-0.4c0-0.24,0.38-0.37,1.15-0.4
				c1.18-0.03,1.87-0.17,2.07-0.42c0.21-0.25,0.31-1.11,0.31-2.57v-23.51c0-1.46-0.08-2.28-0.22-2.46c-0.18-0.3-1-0.48-2.46-0.54
				c-0.57-0.03-0.85-0.13-0.85-0.31c0-0.24,0.18-0.35,0.54-0.35h6.02c0.45,0,1.31,0.01,2.59,0.04l1.7-0.04
				c0.48,0,0.71,0.13,0.71,0.38c0,0.23-0.66,0.37-1.99,0.42c-0.75,0.03-1.21,0.16-1.38,0.4c-0.17,0.24-0.25,0.86-0.25,1.87v23.8
				c0,1.69,0.07,2.62,0.22,2.76c0.33,0.33,1.29,0.52,2.9,0.58C923.24,1550.71,923.4,1550.83,923.4,1551.09z"/>
			<path fill="#4D4E4E" d="M954.8,1542.12c0,0.22-0.35,0.34-1.06,0.34c-1.59,0-2.47,0.24-2.65,0.71c-0.12,0.33-0.18,1.61-0.18,3.86
				v1.42c-1.53,1.3-2.98,2.22-4.37,2.75c-1.38,0.53-3.04,0.8-4.98,0.8c-4.65,0-8.33-1.4-11.07-4.21c-2.73-2.81-4.1-6.62-4.1-11.43
				c0-4.87,1.34-8.81,4.01-11.81c2.67-3,6.2-4.5,10.58-4.5c1.91,0,4,0.54,6.26,1.6c0.68,0.33,1.24,0.49,1.68,0.49
				c0.56,0,0.93-0.36,1.1-1.07c0.15-0.42,0.32-0.62,0.53-0.62c0.24,0,0.35,0.13,0.35,0.4c0,0.03-0.03,0.31-0.08,0.85
				c-0.18,1.75-0.26,3.05-0.23,3.88v2.41c0.03,1.22,0.01,1.98-0.04,2.27c-0.06,0.3-0.22,0.45-0.49,0.45s-0.41-0.21-0.44-0.63
				c-0.15-2.87-0.97-5.13-2.47-6.78c-1.5-1.66-3.47-2.48-5.91-2.48c-3.06,0-5.48,1.38-7.25,4.14c-1.78,2.76-2.67,6.52-2.67,11.29
				c0,4.62,0.9,8.28,2.71,10.97c1.81,2.7,4.26,4.05,7.34,4.05c2.35,0,3.97-0.69,4.85-2.06c0.44-0.69,0.66-1.93,0.66-3.72
				c0-1.49-0.14-2.37-0.42-2.64s-1.24-0.39-2.89-0.36c-0.41,0-0.68-0.02-0.79-0.06c-0.12-0.04-0.18-0.13-0.18-0.26
				c0-0.29,0.32-0.44,0.97-0.44h0.79c0.65,0.03,2.26,0.03,4.85,0h3.53c0.21,0,0.43,0,0.66,0s0.4,0,0.49,0
				C954.5,1541.7,954.8,1541.84,954.8,1542.12z"/>
			<path fill="#4D4E4E" d="M982.18,1520.93c0,0.3-0.37,0.43-1.1,0.4h-0.97h-0.79c-0.47,0-0.75,0.08-0.84,0.25s-0.13,0.66-0.13,1.49
				v25.63c0,1.57-0.02,2.49-0.04,2.76s-0.12,0.4-0.26,0.4c-0.18,0-0.38-0.17-0.62-0.49l-5.63-8.34
				c-3.27-4.84-7.24-10.89-11.92-18.14v24.88c0.03,0.39,0.25,0.63,0.67,0.74s1.41,0.17,2.99,0.2c0.39,0,0.58,0.12,0.58,0.36
				c0,0.3-0.38,0.45-1.15,0.45c-0.26,0-1.1-0.04-2.51-0.13c-0.47-0.03-0.93-0.04-1.37-0.04c0.03,0-0.23,0.03-0.77,0.09
				c-0.54,0.06-1.37,0.09-2.49,0.09h-0.44c-0.68,0-1.01-0.13-1.01-0.4c0-0.27,0.29-0.4,0.88-0.4c1.73-0.03,2.74-0.14,3.02-0.33
				c0.28-0.19,0.42-0.83,0.42-1.9v-22.01c0-2.47-0.5-4.02-1.5-4.64c-0.47-0.3-1.31-0.45-2.51-0.45c-0.76,0-1.15-0.16-1.15-0.47
				c0-0.28,0.22-0.42,0.66-0.42c0.59,0,1.34,0.03,2.25,0.09s1.4,0.09,1.46,0.09c0.09,0,0.5-0.01,1.24-0.04
				c0.97,0,1.91-0.04,2.82-0.13l15.21,22.95v-19.83c0-0.92-0.01-1.48-0.04-1.67s-0.15-0.34-0.35-0.45c-0.21-0.1-0.91-0.16-2.12-0.16
				c-1.06,0-1.59-0.13-1.59-0.4c0-0.3,0.35-0.45,1.06-0.45h1.54c0.38,0,0.79,0,1.23,0c0.47,0,0.75,0,0.84,0c0.03,0,0.29,0,0.79,0
				c0.47,0,0.91,0,1.32,0h1.37C981.86,1520.49,982.18,1520.64,982.18,1520.93z"/>
			<path fill="#4D4E4E" d="M1007.54,1544.29c0,0.12-0.03,0.85-0.09,2.18c-0.06,1.34-0.09,2.62-0.09,3.83v1.47
				c-2.88-0.18-8.58-0.27-17.11-0.27c-1.03,0-2.04,0-3.04,0c-1,0-1.68,0-2.03,0h-0.44c-0.56,0-0.84-0.12-0.84-0.36
				c0-0.16,0.09-0.25,0.26-0.28c0.09,0,0.65-0.04,1.68-0.12c0.76-0.06,1.23-0.22,1.39-0.49c0.16-0.27,0.24-0.97,0.24-2.1v-25.12
				c0-0.86-0.13-1.38-0.38-1.54c-0.25-0.16-1.05-0.25-2.4-0.25c-0.47,0-0.71-0.13-0.71-0.38c0-0.25,0.32-0.38,0.97-0.38h7.54
				c0.26,0,1.93,0,4.98,0s5.12,0,6.17,0c0.88,0,1.69-0.06,2.42-0.18c0.06,1.28,0.19,3.05,0.4,5.3l0.18,1.92
				c0.03,0.15,0.04,0.34,0.04,0.58c0,0.3-0.13,0.45-0.4,0.45c-0.32,0-0.56-0.37-0.71-1.12c-0.56-2.69-1.47-4.4-2.73-5.11
				c-0.94-0.54-3.41-0.81-7.41-0.81h-3.62v13.1h1.06c3.29,0,5.3-0.25,6.02-0.76c0.72-0.5,1.21-1.98,1.48-4.41
				c0.06-0.62,0.22-0.94,0.49-0.94c0.32,0,0.49,0.27,0.49,0.8s-0.03,1.32-0.09,2.36s-0.09,1.83-0.09,2.36
				c0,3.18,0.05,5.36,0.14,6.55c0.02,0.3,0.04,0.55,0.04,0.76c0,0.39-0.16,0.58-0.48,0.58c-0.21,0-0.34-0.13-0.42-0.38
				c-0.07-0.25-0.2-1.08-0.37-2.47c-0.23-1.75-0.95-2.84-2.15-3.25c-0.53-0.18-1.9-0.27-4.13-0.27h-1.98v14.93
				c6.47,0,10.26-0.13,11.38-0.4c1.94-0.44,3.04-2.32,3.31-5.63c0.06-0.73,0.25-1.1,0.57-1.1
				C1007.39,1543.35,1007.54,1543.67,1007.54,1544.29z"/>
			<path fill="#4D4E4E" d="M1034.61,1550.13c0,1.25-1.03,1.87-3.09,1.87c-2.29,0-4.09-0.97-5.38-2.9c-0.56-0.83-0.92-1.63-1.08-2.41
				c-0.16-0.77-0.4-2.73-0.73-5.88c-0.18-1.9-0.78-3.25-1.81-4.03c-1.03-0.79-2.71-1.21-5.03-1.27v14.04c0,0.59,0.47,0.97,1.41,1.11
				c0.26,0.03,0.94,0.06,2.03,0.09c0.38,0,0.57,0.12,0.57,0.36c0,0.27-0.25,0.4-0.75,0.4h-0.53c-0.26,0-1.54,0-3.84,0
				c-0.44,0-1.19,0-2.25,0c-1.03,0-1.71,0-2.03,0h-1.72c-0.65,0-0.97-0.13-0.97-0.4c0-0.21,0.43-0.33,1.28-0.36
				c1.38-0.03,2.13-0.21,2.25-0.54c0.12-0.15,0.18-0.73,0.18-1.74v-24.6c0-1.19-0.13-1.9-0.38-2.14c-0.25-0.24-1.01-0.37-2.27-0.4
				c-0.74,0-1.1-0.13-1.1-0.4c0-0.3,0.24-0.45,0.71-0.45c0.09,0,0.22,0.01,0.4,0.04l5.87,0.13c0.59,0,1.41-0.02,2.47-0.06
				c1.17-0.08,2-0.12,2.47-0.12c2.73,0,4.9,0.62,6.5,1.85c1.6,1.23,2.4,2.9,2.4,5.01c0,2.08-0.82,3.8-2.47,5.15
				c-1.65,1.35-3.88,2.15-6.7,2.38c-0.26,0.03-0.41,0.07-0.44,0.13c0,0.12,0.15,0.18,0.44,0.18c3.09,0.54,5.21,1.63,6.37,3.29
				c1.16,1.65,1.93,4.64,2.31,8.96c0.24,2.44,1.06,3.67,2.47,3.67c0.44,0,0.66-0.09,0.66-0.27c0-0.03-0.01-0.06-0.04-0.09
				c-0.15-0.33-0.22-0.59-0.22-0.8c0-0.62,0.32-0.94,0.97-0.94C1034.26,1549.01,1034.61,1549.39,1034.61,1550.13z M1025.48,1527.8
				c0-4.25-1.82-6.37-5.47-6.37c-0.97,0-1.63,0.13-1.98,0.4s-0.53,0.74-0.53,1.43v11.32c2.82,0.03,4.86-0.49,6.11-1.56
				C1024.86,1531.94,1025.48,1530.21,1025.48,1527.8z"/>
		</g>
	</g>
	<g>
		<g opacity="0.18">
			<path fill="#666667" d="M88.31,838.65l0.5-8.11c13.17,0,20.43-4.88,21.77-14.63l17.01-132.2c0-10.83-6.59-16.25-19.76-16.25
				l1-8.11h65.04l-1,8.11c-13.68,0-21.43,6.86-23.27,20.59l-17.01,127.87c0,0.36-0.04,0.68-0.12,0.95
				c-0.09,0.27-0.12,0.59-0.12,0.95c0,6.32,4.5,9.48,13.51,9.48h10.26c6.84,0,12.76-0.31,17.76-0.95c5-0.63,9.59-2.39,13.76-5.27
				c4.17-2.88,8.04-7.39,11.63-13.52c3.58-6.13,7.46-14.69,11.63-25.69l6,1.08l-14.01,55.71H88.31z"/>
			<path fill="#666667" d="M215.44,838.65l0.7-5.68c9.81,0,15.35-4.36,16.64-13.08l11.38-88.18c0-4.3-1.17-7.52-3.5-9.67
				c-2.34-2.15-5.72-3.22-10.16-3.22l0.7-5.68h45.53l-0.7,5.68c-9.69,0-15.24,5.56-16.64,16.69l-11.21,84.39
				c-0.12,0.38-0.18,0.79-0.18,1.23c0,0.44,0,0.85,0,1.23c0,7.08,4.55,10.62,13.66,10.62l-0.53,5.68H215.44z"/>
			<path fill="#666667" d="M364.99,840.73l-55.86-106.58l-9.81,76.29c-0.35,2.53-0.53,4.67-0.53,6.44
				c0,10.73,4.61,16.09,13.83,16.09l-0.53,5.68h-38l0.7-5.68c8.87,0,14.3-7.52,16.29-22.57l10.86-83.63c0-2.65-1.08-4.64-3.24-5.97
				c-2.16-1.33-5.98-1.99-11.47-1.99l0.88-5.68h28.72l49.38,94.47l8.93-67.92c0.35-2.02,0.52-3.98,0.52-5.88
				c0-9.99-4.61-14.99-13.83-14.99l0.7-5.68h37.83l-0.88,5.68c-9.69,0-15.41,6.95-17.16,20.86L369.2,839.4L364.99,840.73z"/>
			<path fill="#666667" d="M394.41,838.65l0.7-5.68c4.2,0,7.73-1.04,10.59-3.13c2.86-2.08,4.58-5.15,5.17-9.2l11.56-89.31
				c0-8.34-4.55-12.52-13.66-12.52l0.7-5.68h82.83l-3.5,35.4l-4.9,0.76c-0.12-6.94-0.88-12.31-2.28-16.09s-3.36-6.56-5.87-8.33
				c-2.51-1.77-5.49-2.81-8.93-3.12c-3.44-0.31-7.15-0.47-11.12-0.47h-4.2c-4.44,0-7.65,0.7-9.63,2.08
				c-1.99,1.39-3.15,3.53-3.5,6.44l-4.55,33.89c0,0.25-0.03,0.51-0.09,0.76c-0.06,0.25-0.09,0.51-0.09,0.76
				c0,2.78,1.05,4.16,3.15,4.16h5.43c2.68,0,5.17-0.16,7.44-0.47c2.28-0.31,4.38-1.14,6.3-2.46s3.62-3.34,5.08-6.06
				c1.46-2.71,2.65-6.4,3.59-11.07h5.95l-6.48,49.03h-5.78v-4.54c0-3.53-0.32-6.37-0.96-8.52c-0.64-2.14-1.66-3.79-3.06-4.92
				c-1.4-1.14-3.18-1.89-5.34-2.27c-2.16-0.38-4.76-0.57-7.79-0.57h-1.75c-5.02,0-7.77,2.08-8.23,6.25l-4.73,36.16
				c-0.12,0.51-0.18,1.14-0.18,1.89c0,5.93,3.85,8.9,11.56,8.9h4.73c6.65,0,12.08-0.6,16.29-1.8c4.2-1.2,7.73-3.09,10.59-5.68
				c2.86-2.59,5.28-5.84,7.27-9.75c1.98-3.91,4.14-8.52,6.48-13.82l4.03,1.51l-8.93,37.48H394.41z"/>
			<path fill="#666667" d="M508.24,838.65l0.53-5.68c5.14,0,9.37-1.45,12.7-4.35c3.33-2.9,5.4-7.26,6.22-13.06l11.73-87.27
				c0-2.4-0.47-4.16-1.4-5.3c-0.94-1.14-2.8-1.7-5.6-1.7c-13.66,0-23.88,10.79-30.65,32.37l-4.55-1.51l9.46-40.32
				c2.33,0.38,4.58,0.69,6.74,0.95c2.16,0.25,4.23,0.38,6.22,0.38h60.59c2.22,0,4.52-0.12,6.92-0.38c2.39-0.25,4.82-0.57,7.27-0.95
				l-5.25,39.57l-4.55,0.76c0.11-0.88,0.17-1.73,0.17-2.56c0-0.82,0-1.61,0-2.37c0-16.91-7.12-25.37-21.36-25.37
				c-5.14,0-8,2.15-8.58,6.44l-11.38,87.27c-0.12,0.63-0.21,1.26-0.26,1.89c-0.06,0.63-0.09,1.26-0.09,1.89
				c0,9.09,4.96,13.63,14.89,13.63l-0.53,5.68H508.24z"/>
			<path fill="#666667" d="M632.04,838.65l0.35-5.68c1.52-0.25,3.12-0.5,4.81-0.76c1.69-0.25,3.27-0.57,4.73-0.95
				c1.46-0.38,2.65-0.85,3.59-1.42c0.93-0.57,1.4-1.23,1.4-1.99c0-0.63-0.03-1.33-0.09-2.08c-0.06-0.76-0.21-1.96-0.44-3.6
				l-3.85-23.29c-0.35-1.64-1.46-2.87-3.33-3.69c-1.87-0.82-3.79-1.23-5.78-1.23h-23.29c-4.09,0-6.77,1.63-8.06,4.9l-8.05,19.59
				c-0.24,0.75-0.5,1.67-0.79,2.73s-0.44,2.23-0.44,3.48c0,4.9,4.26,7.35,12.79,7.35l-0.7,6.63h-35.37l1.05-6.63
				c3.03-0.25,5.69-1.51,7.97-3.78c2.28-2.27,4.46-5.54,6.57-9.83l52.19-108.12l4.38,2.27l22.59,112.28
				c0.46,3.15,1.58,5.11,3.33,5.86c1.75,0.76,4.49,1.45,8.23,2.08l-0.53,5.87H632.04z M631.35,736.99l-18.91,39.76
				c-0.94,1.64-1.61,3.03-2.01,4.17c-0.41,1.14-0.61,2.08-0.61,2.84c0,1.51,1.81,2.27,5.43,2.27h19.79c3.38,0,5.08-0.88,5.08-2.65
				c0-0.63-0.09-1.42-0.26-2.37c-0.17-0.95-0.38-2.11-0.61-3.5L631.35,736.99z"/>
			<path fill="#666667" d="M53.26,1110.87l-0.25-6.22l105.32-159.56c-3.17-0.72-6.34-1.22-9.51-1.49c-3.17-0.27-6.25-0.41-9.26-0.41
				h-10.26c-7.5,0-13.76,0.72-18.76,2.16c-5,1.45-9.3,3.74-12.88,6.9c-3.59,3.16-6.72,7.3-9.38,12.44
				c-2.67,5.14-5.34,11.32-8.01,18.53h-6.75l11.26-53.55c2.83,0.54,5.63,0.99,8.38,1.35c2.75,0.36,5.54,0.54,8.38,0.54h85.81
				l-1,8.38L82.03,1098.43c2.5,0.72,5,1.22,7.5,1.49c2.5,0.27,4.84,0.41,7,0.41h17.26c7.67,0,14.47-1.71,20.39-5.14
				c5.92-3.42,11.09-7.57,15.51-12.44c4.42-4.87,8.09-9.91,11.01-15.14c2.92-5.23,5.29-9.74,7.13-13.52l6.75,2.16l-13.01,54.63
				H53.26z"/>
			<path fill="#666667" d="M177.89,1110.87l0.7-5.68c9.81,0,15.35-4.36,16.64-13.08l11.38-88.18c0-4.3-1.17-7.52-3.5-9.67
				c-2.34-2.15-5.72-3.22-10.16-3.22l0.7-5.68h45.53l-0.7,5.68c-9.69,0-15.24,5.56-16.64,16.69l-11.21,84.39
				c-0.12,0.38-0.18,0.79-0.18,1.23c0,0.44,0,0.85,0,1.23c0,7.08,4.55,10.62,13.66,10.62l-0.53,5.68H177.89z"/>
			<path fill="#666667" d="M310.11,1043.85c7.47,1.39,13.42,4.29,17.86,8.71c4.44,4.42,6.65,10.22,6.65,17.42
				c0,7.83-1.23,14.39-3.68,19.69c-2.45,5.3-5.69,9.56-9.72,12.78c-4.03,3.22-8.55,5.56-13.57,7c-5.02,1.45-10.1,2.18-15.24,2.18
				c-4.44,0-8.73-0.03-12.87-0.09c-4.15-0.06-8.38-0.16-12.7-0.28c-4.32-0.13-8.73-0.22-13.22-0.28c-4.5-0.06-9.31-0.09-14.45-0.09
				l0.7-5.68c9.81,0,15.24-3.53,16.29-10.6l11.91-92.57c0-7.19-4.61-10.79-13.83-10.79l0.7-5.87h45.53c5.02,0,9.72,0.44,14.1,1.33
				c4.38,0.88,8.14,2.34,11.3,4.35c3.15,2.02,5.63,4.58,7.44,7.67c1.81,3.09,2.71,6.91,2.71,11.45c0,4.92-0.67,9.18-2.01,12.78
				c-1.34,3.6-3.21,6.69-5.6,9.28c-2.39,2.59-5.14,4.73-8.23,6.44c-3.09,1.7-6.39,3.19-9.89,4.45L310.11,1043.85z M288.57,1104.43
				c3.85,0,7.53-0.6,11.03-1.8c3.5-1.2,6.59-3.15,9.28-5.87c2.68-2.71,4.84-6.25,6.48-10.6c1.63-4.35,2.45-9.62,2.45-15.81
				c0-4.42-0.7-8.01-2.1-10.79c-1.4-2.77-3.39-4.95-5.95-6.53c-2.57-1.58-5.72-2.65-9.46-3.22c-3.74-0.57-7.88-0.85-12.43-0.85h-5.6
				c-3.04,0-4.9,2.4-5.6,7.19l-5.25,40.89c0,0.25-0.03,0.41-0.09,0.47c-0.06,0.07-0.09,0.22-0.09,0.47c0,4.29,3.5,6.44,10.51,6.44
				H288.57z M296.1,992.74c-7.24,0-11.21,2.34-11.91,7l-4.9,36.54c0,1.77,0.26,3.09,0.79,3.98c0.52,0.88,1.6,1.33,3.24,1.33
				c7.59,0,13.77-0.57,18.56-1.7c4.79-1.14,8.55-2.93,11.29-5.4c2.74-2.46,4.61-5.65,5.6-9.56c0.99-3.91,1.49-8.64,1.49-14.2
				c0-11.99-5.95-17.98-17.86-17.98H296.1z"/>
			<path fill="#666667" d="M346,1110.87l0.7-5.68c4.2,0,7.73-1.04,10.59-3.13c2.86-2.08,4.58-5.15,5.17-9.2l11.56-89.31
				c0-8.34-4.55-12.52-13.66-12.52l0.7-5.68h82.83l-3.5,35.4l-4.9,0.76c-0.12-6.94-0.88-12.31-2.28-16.09s-3.36-6.56-5.87-8.33
				c-2.51-1.77-5.49-2.81-8.93-3.12c-3.44-0.31-7.15-0.47-11.12-0.47h-4.2c-4.44,0-7.65,0.7-9.63,2.08
				c-1.99,1.39-3.15,3.53-3.5,6.44l-4.55,33.89c0,0.25-0.03,0.51-0.09,0.76c-0.06,0.25-0.09,0.51-0.09,0.76
				c0,2.78,1.05,4.16,3.15,4.16h5.43c2.68,0,5.17-0.16,7.44-0.47c2.28-0.31,4.38-1.14,6.3-2.46s3.62-3.34,5.08-6.06
				c1.46-2.71,2.65-6.4,3.59-11.07h5.95l-6.48,49.03h-5.78V1066c0-3.53-0.32-6.37-0.96-8.52c-0.64-2.14-1.66-3.79-3.06-4.92
				c-1.4-1.14-3.18-1.89-5.34-2.27c-2.16-0.38-4.76-0.57-7.79-0.57h-1.75c-5.02,0-7.77,2.08-8.23,6.25l-4.73,36.16
				c-0.12,0.51-0.18,1.14-0.18,1.89c0,5.93,3.85,8.9,11.56,8.9h4.73c6.65,0,12.08-0.6,16.29-1.8c4.2-1.2,7.73-3.09,10.59-5.68
				c2.86-2.59,5.28-5.84,7.27-9.75c1.98-3.91,4.14-8.52,6.48-13.82l4.03,1.51l-8.93,37.48H346z"/>
			<path fill="#666667" d="M547.74,1094.4c-0.12,1.51-0.61,3.35-1.49,5.49c-0.88,2.15-2.01,4.16-3.41,6.06
				c-1.4,1.89-3.06,3.53-4.99,4.92s-4,2.08-6.22,2.08c-6.3,0-10.83-1.3-13.57-3.88c-2.74-2.59-4.53-6.78-5.34-12.59
				c-0.7-4.79-1.29-9.94-1.75-15.43c-0.47-5.49-1.26-10.54-2.36-15.15c-1.11-4.61-2.71-8.45-4.82-11.55
				c-2.1-3.09-5.02-4.64-8.76-4.64h-4.9c-2.92,0-4.61,0.69-5.08,2.08l-5.6,41.08c-0.12,0.51-0.18,1.2-0.18,2.08
				c0,6.82,4.38,10.22,13.13,10.22l-0.53,5.68h-44.31l0.7-5.68c3.85,0,7.18-1.04,9.98-3.12c2.8-2.08,4.49-5.14,5.08-9.18
				l12.08-91.82c0-6.56-4.5-9.84-13.48-9.84l0.7-5.87h19.61c3.5,0,6.48-0.03,8.93-0.09c2.45-0.06,4.82-0.16,7.09-0.28
				c2.28-0.12,4.67-0.22,7.18-0.28c2.51-0.06,5.63-0.09,9.37-0.09c4.2,0,8.06,0.66,11.56,1.99s6.54,3.19,9.11,5.58
				c2.57,2.4,4.55,5.24,5.95,8.52c1.4,3.28,2.1,6.82,2.1,10.6c0,5.05-0.85,9.53-2.54,13.44c-1.69,3.91-3.97,7.35-6.83,10.32
				c-2.86,2.97-6.25,5.4-10.16,7.29c-3.91,1.89-8.09,3.41-12.52,4.54v0.57c4.9,2.9,8.67,6.53,11.29,10.89
				c2.63,4.35,4.23,8.55,4.82,12.59c0.35,2.53,0.7,5.56,1.05,9.09c0.35,3.54,0.9,6.88,1.66,10.03c0.76,3.16,1.72,5.84,2.89,8.05
				c1.17,2.21,2.74,3.31,4.73,3.31c2.33,0,4.49-2.84,6.48-8.52L547.74,1094.4z M498.18,1042.33c3.15,0,6.39-0.31,9.72-0.95
				c3.33-0.63,6.39-2.02,9.19-4.17c2.8-2.14,5.08-5.17,6.83-9.09c1.75-3.91,2.63-9.21,2.63-15.9c0-3.79-0.61-6.94-1.84-9.47
				c-1.23-2.52-2.8-4.54-4.73-6.06c-1.93-1.51-4.12-2.56-6.57-3.12s-4.85-0.85-7.18-0.85h-7.53c-2.57,0-4.32,0.88-5.25,2.65
				c-0.94,1.77-1.64,4.42-2.1,7.95l-4.55,36.16c0,1.89,0.99,2.84,2.98,2.84H498.18z"/>
			<path fill="#666667" d="M639.67,1112.95c-2.1-2.14-4-4.04-5.69-5.68c-1.69-1.64-3.12-3.09-4.29-4.35
				c-4.09,3.28-8.73,5.9-13.92,7.86c-5.2,1.96-10.42,2.93-15.67,2.93c-6.42,0-12.2-1.3-17.34-3.88c-5.14-2.59-9.52-6.21-13.13-10.89
				c-3.62-4.67-6.39-10.13-8.32-16.38c-1.93-6.25-2.89-13.09-2.89-20.54c0-9.59,1.58-19.15,4.73-28.68
				c3.15-9.53,7.5-18.05,13.05-25.56c5.54-7.51,12-13.6,19.35-18.27c7.35-4.67,15.23-7,23.64-7c4.44,0,8.61,0.95,12.52,2.84
				c3.91,1.89,7.67,4.1,11.29,6.63c4.2-4.54,8.35-7.19,12.43-7.95c1.05,4.92,1.57,10.79,1.57,17.61c0,3.66-0.17,7.64-0.52,11.93
				c-0.35,4.29-0.82,8.84-1.4,13.63h-5.43c-0.35-5.55-1.26-10.6-2.71-15.14c-1.46-4.54-3.45-8.45-5.95-11.74
				c-2.51-3.28-5.52-5.84-9.02-7.67c-3.5-1.83-7.53-2.74-12.08-2.74c-7.35,0-13.75,2.21-19.17,6.63
				c-5.43,4.42-9.93,10.13-13.48,17.13c-3.56,7-6.25,14.8-8.06,23.38c-1.81,8.58-2.71,17.1-2.71,25.56c0,6.19,0.55,11.93,1.66,17.23
				s2.83,9.88,5.17,13.73c2.33,3.85,5.25,6.88,8.76,9.09c3.5,2.21,7.71,3.31,12.61,3.31c3.62,0,7.15-0.57,10.59-1.7
				s6.51-2.96,9.2-5.49c2.68-2.52,4.87-5.8,6.57-9.84c1.69-4.04,2.54-8.9,2.54-14.58c0-9.84-4.61-14.77-13.83-14.77l0.7-5.68h45.18
				l-0.88,5.68c-5.25,0-9.05,1.23-11.38,3.69c-2.34,2.46-3.79,6.03-4.38,10.7l-5.08,39H639.67z"/>
			<path fill="#666667" d="M719.88,1110.87l0.35-5.68c1.52-0.25,3.12-0.5,4.82-0.76c1.69-0.25,3.27-0.57,4.73-0.95
				c1.46-0.38,2.65-0.85,3.59-1.42c0.93-0.57,1.4-1.23,1.4-1.99c0-0.63-0.03-1.33-0.09-2.08c-0.06-0.76-0.21-1.96-0.44-3.6
				l-3.85-23.29c-0.35-1.64-1.46-2.87-3.33-3.69c-1.87-0.82-3.79-1.23-5.78-1.23h-23.29c-4.09,0-6.77,1.63-8.06,4.9l-8.06,19.59
				c-0.24,0.75-0.5,1.67-0.79,2.73c-0.29,1.07-0.44,2.23-0.44,3.48c0,4.9,4.26,7.35,12.78,7.35l-0.7,6.63h-35.37l1.05-6.63
				c3.04-0.25,5.69-1.51,7.97-3.78c2.28-2.27,4.47-5.54,6.57-9.83l52.19-108.12l4.38,2.27l22.59,112.28
				c0.46,3.15,1.58,5.11,3.33,5.86c1.75,0.76,4.49,1.45,8.23,2.08l-0.53,5.87H719.88z M719.18,1009.21l-18.91,39.76
				c-0.94,1.64-1.61,3.03-2.01,4.17c-0.41,1.14-0.61,2.08-0.61,2.84c0,1.51,1.81,2.27,5.43,2.27h19.79c3.38,0,5.08-0.88,5.08-2.65
				c0-0.63-0.09-1.42-0.26-2.37c-0.17-0.95-0.38-2.11-0.61-3.5L719.18,1009.21z"/>
		</g>
		<g>
			<path fill="#F2F2F2" d="M101.66,838.65l0.5-8.11c13.17,0,20.43-4.88,21.77-14.63l17.01-132.2c0-10.83-6.59-16.25-19.76-16.25
				l1-8.11h65.04l-1,8.11c-13.68,0-21.43,6.86-23.27,20.59l-17.01,127.87c0,0.36-0.04,0.68-0.12,0.95
				c-0.09,0.27-0.12,0.59-0.12,0.95c0,6.32,4.5,9.48,13.51,9.48h10.26c6.84,0,12.76-0.31,17.76-0.95c5-0.63,9.59-2.39,13.76-5.27
				c4.17-2.88,8.04-7.39,11.63-13.52c3.58-6.13,7.46-14.69,11.63-25.69l6,1.08l-14.01,55.71H101.66z"/>
			<path fill="#F2F2F2" d="M228.79,838.65l0.7-5.68c9.81,0,15.35-4.36,16.64-13.08l11.38-88.18c0-4.3-1.17-7.52-3.5-9.67
				c-2.34-2.15-5.72-3.22-10.16-3.22l0.7-5.68h45.53l-0.7,5.68c-9.69,0-15.24,5.56-16.64,16.69l-11.21,84.39
				c-0.12,0.38-0.18,0.79-0.18,1.23c0,0.44,0,0.85,0,1.23c0,7.08,4.55,10.62,13.66,10.62l-0.53,5.68H228.79z"/>
			<path fill="#F2F2F2" d="M378.34,840.73l-55.86-106.58l-9.81,76.29c-0.35,2.53-0.53,4.67-0.53,6.44
				c0,10.73,4.61,16.09,13.83,16.09l-0.53,5.68h-38l0.7-5.68c8.87,0,14.3-7.52,16.29-22.57l10.86-83.63c0-2.65-1.08-4.64-3.24-5.97
				c-2.16-1.33-5.98-1.99-11.47-1.99l0.88-5.68h28.72l49.38,94.47l8.93-67.92c0.35-2.02,0.52-3.98,0.52-5.88
				c0-9.99-4.61-14.99-13.83-14.99l0.7-5.68h37.83l-0.88,5.68c-9.69,0-15.41,6.95-17.16,20.86l-13.13,99.73L378.34,840.73z"/>
			<path fill="#F2F2F2" d="M407.76,838.65l0.7-5.68c4.2,0,7.73-1.04,10.59-3.13c2.86-2.08,4.58-5.15,5.17-9.2l11.56-89.31
				c0-8.34-4.55-12.52-13.66-12.52l0.7-5.68h82.83l-3.5,35.4l-4.9,0.76c-0.12-6.94-0.88-12.31-2.28-16.09s-3.36-6.56-5.87-8.33
				c-2.51-1.77-5.49-2.81-8.93-3.12c-3.44-0.31-7.15-0.47-11.12-0.47h-4.2c-4.44,0-7.65,0.7-9.63,2.08
				c-1.99,1.39-3.15,3.53-3.5,6.44l-4.55,33.89c0,0.25-0.03,0.51-0.09,0.76c-0.06,0.25-0.09,0.51-0.09,0.76
				c0,2.78,1.05,4.16,3.15,4.16h5.43c2.68,0,5.17-0.16,7.44-0.47c2.28-0.31,4.38-1.14,6.3-2.46s3.62-3.34,5.08-6.06
				c1.46-2.71,2.65-6.4,3.59-11.07h5.95l-6.48,49.03h-5.78v-4.54c0-3.53-0.32-6.37-0.96-8.52c-0.64-2.14-1.66-3.79-3.06-4.92
				c-1.4-1.14-3.18-1.89-5.34-2.27c-2.16-0.38-4.76-0.57-7.79-0.57h-1.75c-5.02,0-7.77,2.08-8.23,6.25l-4.73,36.16
				c-0.12,0.51-0.18,1.14-0.18,1.89c0,5.93,3.85,8.9,11.56,8.9h4.73c6.65,0,12.08-0.6,16.29-1.8c4.2-1.2,7.73-3.09,10.59-5.68
				c2.86-2.59,5.28-5.84,7.27-9.75c1.98-3.91,4.14-8.52,6.48-13.82l4.03,1.51l-8.93,37.48H407.76z"/>
			<path fill="#F2F2F2" d="M521.58,838.65l0.53-5.68c5.14,0,9.37-1.45,12.7-4.35c3.33-2.9,5.4-7.26,6.22-13.06l11.73-87.27
				c0-2.4-0.47-4.16-1.4-5.3c-0.94-1.14-2.8-1.7-5.6-1.7c-13.66,0-23.88,10.79-30.65,32.37l-4.55-1.51l9.46-40.32
				c2.33,0.38,4.58,0.69,6.74,0.95c2.16,0.25,4.23,0.38,6.22,0.38h60.59c2.22,0,4.52-0.12,6.92-0.38c2.39-0.25,4.82-0.57,7.27-0.95
				l-5.25,39.57l-4.55,0.76c0.11-0.88,0.17-1.73,0.17-2.56c0-0.82,0-1.61,0-2.37c0-16.91-7.12-25.37-21.36-25.37
				c-5.14,0-8,2.15-8.58,6.44l-11.38,87.27c-0.12,0.63-0.21,1.26-0.26,1.89c-0.06,0.63-0.09,1.26-0.09,1.89
				c0,9.09,4.96,13.63,14.89,13.63l-0.53,5.68H521.58z"/>
			<path fill="#F2F2F2" d="M645.39,838.65l0.35-5.68c1.52-0.25,3.12-0.5,4.82-0.76c1.69-0.25,3.27-0.57,4.73-0.95
				c1.46-0.38,2.65-0.85,3.59-1.42c0.93-0.57,1.4-1.23,1.4-1.99c0-0.63-0.03-1.33-0.09-2.08c-0.06-0.76-0.21-1.96-0.44-3.6
				l-3.85-23.29c-0.35-1.64-1.46-2.87-3.33-3.69c-1.87-0.82-3.79-1.23-5.78-1.23H623.5c-4.09,0-6.77,1.63-8.06,4.9l-8.06,19.59
				c-0.24,0.75-0.5,1.67-0.79,2.73c-0.29,1.07-0.44,2.23-0.44,3.48c0,4.9,4.26,7.35,12.78,7.35l-0.7,6.63h-35.37l1.05-6.63
				c3.04-0.25,5.69-1.51,7.97-3.78c2.28-2.27,4.47-5.54,6.57-9.83l52.19-108.12l4.38,2.27l22.59,112.28
				c0.46,3.15,1.58,5.11,3.33,5.86c1.75,0.76,4.49,1.45,8.23,2.08l-0.53,5.87H645.39z M644.69,736.99l-18.91,39.76
				c-0.94,1.64-1.61,3.03-2.01,4.17c-0.41,1.14-0.61,2.08-0.61,2.84c0,1.51,1.81,2.27,5.43,2.27h19.79c3.38,0,5.08-0.88,5.08-2.65
				c0-0.63-0.09-1.42-0.26-2.37c-0.17-0.95-0.38-2.11-0.61-3.5L644.69,736.99z"/>
			<path fill="#F2F2F2" d="M66.61,1110.87l-0.25-6.22l105.32-159.56c-3.17-0.72-6.34-1.22-9.51-1.49c-3.17-0.27-6.25-0.41-9.26-0.41
				h-10.26c-7.5,0-13.76,0.72-18.76,2.16c-5,1.45-9.3,3.74-12.88,6.9c-3.59,3.16-6.72,7.3-9.38,12.44
				c-2.67,5.14-5.34,11.32-8.01,18.53h-6.75l11.26-53.55c2.83,0.54,5.63,0.99,8.38,1.35c2.75,0.36,5.54,0.54,8.38,0.54h85.81
				l-1,8.38L95.38,1098.43c2.5,0.72,5,1.22,7.5,1.49c2.5,0.27,4.84,0.41,7,0.41h17.26c7.67,0,14.47-1.71,20.39-5.14
				c5.92-3.42,11.09-7.57,15.51-12.44c4.42-4.87,8.09-9.91,11.01-15.14c2.92-5.23,5.29-9.74,7.13-13.52l6.75,2.16l-13.01,54.63
				H66.61z"/>
			<path fill="#F2F2F2" d="M191.24,1110.87l0.7-5.68c9.81,0,15.35-4.36,16.64-13.08l11.38-88.18c0-4.3-1.17-7.52-3.5-9.67
				c-2.34-2.15-5.72-3.22-10.16-3.22l0.7-5.68h45.53l-0.7,5.68c-9.69,0-15.24,5.56-16.64,16.69l-11.21,84.39
				c-0.12,0.38-0.18,0.79-0.18,1.23c0,0.44,0,0.85,0,1.23c0,7.08,4.55,10.62,13.66,10.62l-0.53,5.68H191.24z"/>
			<path fill="#F2F2F2" d="M323.45,1043.85c7.47,1.39,13.42,4.29,17.86,8.71c4.44,4.42,6.65,10.22,6.65,17.42
				c0,7.83-1.23,14.39-3.68,19.69c-2.45,5.3-5.69,9.56-9.72,12.78c-4.03,3.22-8.55,5.56-13.57,7c-5.02,1.45-10.1,2.18-15.24,2.18
				c-4.44,0-8.73-0.03-12.87-0.09c-4.15-0.06-8.38-0.16-12.7-0.28c-4.32-0.13-8.73-0.22-13.22-0.28c-4.5-0.06-9.31-0.09-14.45-0.09
				l0.7-5.68c9.81,0,15.24-3.53,16.29-10.6l11.91-92.57c0-7.19-4.61-10.79-13.83-10.79l0.7-5.87h45.53c5.02,0,9.72,0.44,14.1,1.33
				c4.38,0.88,8.14,2.34,11.3,4.35c3.15,2.02,5.63,4.58,7.44,7.67c1.81,3.09,2.71,6.91,2.71,11.45c0,4.92-0.67,9.18-2.01,12.78
				c-1.34,3.6-3.21,6.69-5.6,9.28c-2.39,2.59-5.14,4.73-8.23,6.44c-3.09,1.7-6.39,3.19-9.89,4.45L323.45,1043.85z M301.92,1104.43
				c3.85,0,7.53-0.6,11.03-1.8c3.5-1.2,6.59-3.15,9.28-5.87c2.68-2.71,4.84-6.25,6.48-10.6c1.63-4.35,2.45-9.62,2.45-15.81
				c0-4.42-0.7-8.01-2.1-10.79c-1.4-2.77-3.39-4.95-5.95-6.53c-2.57-1.58-5.72-2.65-9.46-3.22c-3.74-0.57-7.88-0.85-12.43-0.85h-5.6
				c-3.04,0-4.9,2.4-5.6,7.19l-5.25,40.89c0,0.25-0.03,0.41-0.09,0.47c-0.06,0.07-0.09,0.22-0.09,0.47c0,4.29,3.5,6.44,10.51,6.44
				H301.92z M309.44,992.74c-7.24,0-11.21,2.34-11.91,7l-4.9,36.54c0,1.77,0.26,3.09,0.79,3.98c0.52,0.88,1.6,1.33,3.24,1.33
				c7.59,0,13.77-0.57,18.56-1.7c4.79-1.14,8.55-2.93,11.29-5.4c2.74-2.46,4.61-5.65,5.6-9.56c0.99-3.91,1.49-8.64,1.49-14.2
				c0-11.99-5.95-17.98-17.86-17.98H309.44z"/>
			<path fill="#F2F2F2" d="M359.35,1110.87l0.7-5.68c4.2,0,7.73-1.04,10.59-3.13c2.86-2.08,4.58-5.15,5.17-9.2l11.56-89.31
				c0-8.34-4.55-12.52-13.66-12.52l0.7-5.68h82.83l-3.5,35.4l-4.9,0.76c-0.12-6.94-0.88-12.31-2.28-16.09s-3.36-6.56-5.87-8.33
				c-2.51-1.77-5.49-2.81-8.93-3.12c-3.44-0.31-7.15-0.47-11.12-0.47h-4.2c-4.44,0-7.65,0.7-9.63,2.08
				c-1.99,1.39-3.15,3.53-3.5,6.44l-4.55,33.89c0,0.25-0.03,0.51-0.09,0.76c-0.06,0.25-0.09,0.51-0.09,0.76
				c0,2.78,1.05,4.16,3.15,4.16h5.43c2.68,0,5.17-0.16,7.44-0.47c2.28-0.31,4.38-1.14,6.3-2.46s3.62-3.34,5.08-6.06
				c1.46-2.71,2.65-6.4,3.59-11.07h5.95l-6.48,49.03h-5.78V1066c0-3.53-0.32-6.37-0.96-8.52c-0.64-2.14-1.66-3.79-3.06-4.92
				c-1.4-1.14-3.18-1.89-5.34-2.27c-2.16-0.38-4.76-0.57-7.79-0.57h-1.75c-5.02,0-7.77,2.08-8.23,6.25l-4.73,36.16
				c-0.12,0.51-0.18,1.14-0.18,1.89c0,5.93,3.85,8.9,11.56,8.9h4.73c6.65,0,12.08-0.6,16.29-1.8c4.2-1.2,7.73-3.09,10.59-5.68
				c2.86-2.59,5.28-5.84,7.27-9.75c1.98-3.91,4.14-8.52,6.48-13.82l4.03,1.51l-8.93,37.48H359.35z"/>
			<path fill="#F2F2F2" d="M561.08,1094.4c-0.12,1.51-0.61,3.35-1.49,5.49c-0.88,2.15-2.01,4.16-3.41,6.06
				c-1.4,1.89-3.06,3.53-4.99,4.92s-4,2.08-6.22,2.08c-6.3,0-10.83-1.3-13.57-3.88c-2.74-2.59-4.53-6.78-5.34-12.59
				c-0.7-4.79-1.29-9.94-1.75-15.43c-0.47-5.49-1.26-10.54-2.36-15.15c-1.11-4.61-2.71-8.45-4.82-11.55
				c-2.1-3.09-5.02-4.64-8.76-4.64h-4.9c-2.92,0-4.61,0.69-5.08,2.08l-5.6,41.08c-0.12,0.51-0.18,1.2-0.18,2.08
				c0,6.82,4.38,10.22,13.13,10.22l-0.53,5.68h-44.31l0.7-5.68c3.85,0,7.18-1.04,9.98-3.12c2.8-2.08,4.49-5.14,5.08-9.18
				l12.08-91.82c0-6.56-4.5-9.84-13.48-9.84l0.7-5.87h19.61c3.5,0,6.48-0.03,8.93-0.09c2.45-0.06,4.82-0.16,7.09-0.28
				c2.28-0.12,4.67-0.22,7.18-0.28c2.51-0.06,5.63-0.09,9.37-0.09c4.2,0,8.06,0.66,11.56,1.99s6.54,3.19,9.11,5.58
				c2.57,2.4,4.55,5.24,5.95,8.52c1.4,3.28,2.1,6.82,2.1,10.6c0,5.05-0.85,9.53-2.54,13.44c-1.69,3.91-3.97,7.35-6.83,10.32
				c-2.86,2.97-6.25,5.4-10.16,7.29c-3.91,1.89-8.09,3.41-12.52,4.54v0.57c4.9,2.9,8.67,6.53,11.29,10.89
				c2.63,4.35,4.23,8.55,4.82,12.59c0.35,2.53,0.7,5.56,1.05,9.09c0.35,3.54,0.9,6.88,1.66,10.03c0.76,3.16,1.72,5.84,2.89,8.05
				c1.17,2.21,2.74,3.31,4.73,3.31c2.33,0,4.49-2.84,6.48-8.52L561.08,1094.4z M511.53,1042.33c3.15,0,6.39-0.31,9.72-0.95
				c3.33-0.63,6.39-2.02,9.19-4.17c2.8-2.14,5.08-5.17,6.83-9.09c1.75-3.91,2.63-9.21,2.63-15.9c0-3.79-0.61-6.94-1.84-9.47
				c-1.23-2.52-2.8-4.54-4.73-6.06c-1.93-1.51-4.12-2.56-6.57-3.12s-4.85-0.85-7.18-0.85h-7.53c-2.57,0-4.32,0.88-5.25,2.65
				c-0.94,1.77-1.64,4.42-2.1,7.95l-4.55,36.16c0,1.89,0.99,2.84,2.98,2.84H511.53z"/>
			<path fill="#F2F2F2" d="M653.02,1112.95c-2.1-2.14-4-4.04-5.69-5.68c-1.69-1.64-3.12-3.09-4.29-4.35
				c-4.09,3.28-8.73,5.9-13.92,7.86c-5.2,1.96-10.42,2.93-15.67,2.93c-6.42,0-12.2-1.3-17.34-3.88c-5.14-2.59-9.52-6.21-13.13-10.89
				c-3.62-4.67-6.39-10.13-8.32-16.38c-1.93-6.25-2.89-13.09-2.89-20.54c0-9.59,1.58-19.15,4.73-28.68
				c3.15-9.53,7.5-18.05,13.05-25.56c5.54-7.51,12-13.6,19.35-18.27c7.35-4.67,15.23-7,23.64-7c4.44,0,8.61,0.95,12.52,2.84
				c3.91,1.89,7.67,4.1,11.29,6.63c4.2-4.54,8.35-7.19,12.43-7.95c1.05,4.92,1.57,10.79,1.57,17.61c0,3.66-0.17,7.64-0.52,11.93
				c-0.35,4.29-0.82,8.84-1.4,13.63H663c-0.35-5.55-1.26-10.6-2.71-15.14c-1.46-4.54-3.45-8.45-5.95-11.74
				c-2.51-3.28-5.52-5.84-9.02-7.67c-3.5-1.83-7.53-2.74-12.08-2.74c-7.35,0-13.75,2.21-19.17,6.63
				c-5.43,4.42-9.93,10.13-13.48,17.13c-3.56,7-6.25,14.8-8.06,23.38c-1.81,8.58-2.71,17.1-2.71,25.56c0,6.19,0.55,11.93,1.66,17.23
				s2.83,9.88,5.17,13.73c2.33,3.85,5.25,6.88,8.76,9.09c3.5,2.21,7.71,3.31,12.61,3.31c3.62,0,7.15-0.57,10.59-1.7
				s6.51-2.96,9.2-5.49c2.68-2.52,4.87-5.8,6.57-9.84c1.69-4.04,2.54-8.9,2.54-14.58c0-9.84-4.61-14.77-13.83-14.77l0.7-5.68h45.18
				l-0.88,5.68c-5.25,0-9.05,1.23-11.38,3.69c-2.34,2.46-3.79,6.03-4.38,10.7l-5.08,39H653.02z"/>
			<path fill="#F2F2F2" d="M733.22,1110.87l0.35-5.68c1.52-0.25,3.12-0.5,4.82-0.76c1.69-0.25,3.27-0.57,4.73-0.95
				c1.46-0.38,2.65-0.85,3.59-1.42c0.93-0.57,1.4-1.23,1.4-1.99c0-0.63-0.03-1.33-0.09-2.08c-0.06-0.76-0.21-1.96-0.44-3.6
				l-3.85-23.29c-0.35-1.64-1.46-2.87-3.33-3.69c-1.87-0.82-3.79-1.23-5.78-1.23h-23.29c-4.09,0-6.77,1.63-8.06,4.9l-8.06,19.59
				c-0.24,0.75-0.5,1.67-0.79,2.73c-0.29,1.07-0.44,2.23-0.44,3.48c0,4.9,4.26,7.35,12.78,7.35l-0.7,6.63h-35.37l1.05-6.63
				c3.04-0.25,5.69-1.51,7.97-3.78c2.28-2.27,4.47-5.54,6.57-9.83l52.19-108.12l4.38,2.27l22.59,112.28
				c0.46,3.15,1.58,5.11,3.33,5.86c1.75,0.76,4.49,1.45,8.23,2.08l-0.53,5.87H733.22z M732.52,1009.21l-18.91,39.76
				c-0.94,1.64-1.61,3.03-2.01,4.17c-0.41,1.14-0.61,2.08-0.61,2.84c0,1.51,1.81,2.27,5.43,2.27h19.79c3.38,0,5.08-0.88,5.08-2.65
				c0-0.63-0.09-1.42-0.26-2.37c-0.17-0.95-0.38-2.11-0.61-3.5L732.52,1009.21z"/>
		</g>
	</g>
	<g>
	</g>
	<g>
	</g>
	<g>
	</g>
	<g>
	</g>
	<g>
	</g>
	<g>
	</g>
	<g>
	</g>
	<g>
	</g>
	<g>
	</g>
	<g>
	</g>
	<g>
	</g>
</g>
</svg>
