<?xml version="1.0" encoding="UTF-8"?>
<svg id="Layer_1" data-name="Layer 1" xmlns="http://www.w3.org/2000/svg" viewBox="0 0 1366 873">
  <defs>
    <style>
      .cls-1 {
        fill: #ee9c9b;
        opacity: .36;
      }

      .cls-1, .cls-2, .cls-3, .cls-4, .cls-5, .cls-6, .cls-7 {
        stroke-width: 0px;
      }

      .cls-2 {
        fill: none;
      }

      .cls-8 {
        opacity: .18;
      }

      .cls-3 {
        fill: #f2f2f2;
      }

      .cls-4 {
        fill: #4d4e4e;
      }

      .cls-5 {
        fill: #666667;
      }

      .cls-6 {
        fill: #fff;
      }

      .cls-7 {
        fill: #e4d2bc;
      }
    </style>
  </defs>
  <rect class="cls-7" x="-22" y="-35.01" width="1413.23" height="492.56"/>
  <rect class="cls-1" x="236" y="230" width="1145" height="783"/>
  <rect class="cls-6" x="-26.3" y="47.86" width="1456" height="71.66"/>
  <rect class="cls-6" x="776" y="506.45" width="515" height="188.55"/>
  <g>
    <g class="cls-8">
      <path class="cls-5" d="M126.9,348.91l.43-6.69c11.2,0,17.37-4.02,18.51-12.06l14.47-108.98c0-8.93-5.6-13.4-16.81-13.4l.85-6.69h55.32l-.85,6.69c-11.63,0-18.23,5.66-19.79,16.97l-14.47,105.41c0,.3-.04.56-.11.78-.07.22-.11.48-.11.78,0,5.21,3.83,7.82,11.49,7.82h8.72c5.81,0,10.85-.26,15.11-.78,4.26-.52,8.15-1.97,11.7-4.35,3.54-2.38,6.84-6.09,9.89-11.15,3.05-5.05,6.35-12.11,9.89-21.18l5.11.89-11.91,45.93h-97.44Z"/>
      <path class="cls-5" d="M235.02,348.91l.6-4.68c8.34,0,13.05-3.59,14.15-10.79l9.68-72.69c0-3.54-.99-6.2-2.98-7.97-1.99-1.77-4.87-2.66-8.64-2.66l.6-4.68h38.72l-.6,4.68c-8.24,0-12.96,4.59-14.15,13.76l-9.53,69.57c-.1.31-.15.65-.15,1.02v1.01c0,5.84,3.87,8.75,11.62,8.75l-.45,4.68h-38.87Z"/>
      <path class="cls-5" d="M362.21,350.62l-47.51-87.86-8.34,62.89c-.3,2.08-.45,3.85-.45,5.31,0,8.84,3.92,13.27,11.77,13.27l-.45,4.68h-32.32l.6-4.68c7.54,0,12.16-6.2,13.85-18.6l9.23-68.94c0-2.19-.92-3.83-2.75-4.92-1.84-1.09-5.09-1.64-9.75-1.64l.74-4.68h24.42l42,77.88,7.6-55.99c.3-1.67.45-3.28.45-4.85,0-8.24-3.92-12.36-11.77-12.36l.6-4.68h32.17l-.74,4.68c-8.24,0-13.11,5.73-14.6,17.19l-11.17,82.22-3.57,1.1Z"/>
      <path class="cls-5" d="M387.23,348.91l.6-4.68c3.57,0,6.58-.86,9.01-2.58,2.43-1.72,3.9-4.25,4.39-7.58l9.83-73.63c0-6.88-3.87-10.32-11.62-10.32l.6-4.68h70.44l-2.98,29.18-4.17.62c-.1-5.72-.74-10.14-1.94-13.27-1.19-3.12-2.85-5.41-4.99-6.87-2.14-1.46-4.67-2.31-7.6-2.58-2.93-.26-6.08-.39-9.46-.39h-3.57c-3.77,0-6.5.57-8.19,1.72-1.69,1.15-2.68,2.91-2.98,5.31l-3.87,27.94c0,.21-.03.42-.07.62-.05.21-.07.42-.07.62,0,2.29.89,3.43,2.68,3.43h4.62c2.28,0,4.39-.13,6.33-.39,1.94-.26,3.72-.94,5.36-2.03,1.64-1.09,3.08-2.76,4.32-4.99,1.24-2.24,2.26-5.28,3.05-9.13h5.06l-5.51,40.42h-4.91v-3.75c0-2.91-.27-5.25-.82-7.02-.55-1.77-1.42-3.12-2.61-4.06-1.19-.94-2.71-1.56-4.54-1.87-1.84-.31-4.05-.47-6.63-.47h-1.49c-4.27,0-6.6,1.72-7,5.15l-4.02,29.81c-.1.42-.15.94-.15,1.56,0,4.89,3.28,7.33,9.83,7.33h4.02c5.66,0,10.28-.49,13.85-1.48,3.57-.99,6.58-2.55,9.01-4.68,2.43-2.13,4.49-4.81,6.18-8.04,1.69-3.22,3.52-7.02,5.51-11.39l3.43,1.25-7.6,30.9h-71.34Z"/>
      <path class="cls-5" d="M484.03,348.91l.45-4.68c4.37,0,7.97-1.19,10.8-3.59,2.83-2.39,4.59-5.98,5.29-10.77l9.98-71.95c0-1.98-.4-3.43-1.19-4.37-.8-.94-2.38-1.4-4.77-1.4-11.62,0-20.31,8.9-26.06,26.69l-3.87-1.25,8.04-33.24c1.98.31,3.9.57,5.73.78,1.84.21,3.6.31,5.29.31h51.53c1.88,0,3.85-.1,5.88-.31,2.03-.21,4.1-.47,6.18-.78l-4.47,32.62-3.87.62c.1-.73.15-1.43.15-2.11v-1.95c0-13.94-6.06-20.91-18.17-20.91-4.37,0-6.8,1.77-7.3,5.31l-9.68,71.95c-.1.52-.17,1.04-.22,1.56-.05.52-.07,1.04-.07,1.56,0,7.49,4.22,11.24,12.66,11.24l-.45,4.68h-41.85Z"/>
      <path class="cls-5" d="M589.32,348.91l.3-4.68c1.29-.21,2.66-.41,4.1-.62,1.44-.21,2.78-.47,4.02-.78,1.24-.31,2.26-.7,3.05-1.17.79-.47,1.19-1.01,1.19-1.64,0-.52-.03-1.09-.07-1.72-.05-.62-.17-1.61-.37-2.97l-3.28-19.2c-.3-1.35-1.24-2.37-2.83-3.04-1.59-.68-3.23-1.01-4.91-1.01h-19.81c-3.48,0-5.76,1.35-6.85,4.04l-6.85,16.15c-.2.62-.42,1.37-.67,2.25-.25.88-.37,1.84-.37,2.87,0,4.04,3.62,6.06,10.87,6.06l-.6,5.46h-30.08l.89-5.46c2.58-.21,4.84-1.25,6.78-3.12,1.94-1.87,3.8-4.57,5.58-8.1l44.38-89.13,3.72,1.87,19.21,92.56c.4,2.6,1.34,4.21,2.83,4.83,1.49.62,3.82,1.19,7,1.71l-.45,4.84h-36.79ZM588.73,265.1l-16.08,32.77c-.8,1.35-1.37,2.5-1.71,3.43-.35.94-.52,1.72-.52,2.34,0,1.25,1.54,1.87,4.62,1.87h16.83c2.88,0,4.32-.73,4.32-2.19,0-.52-.07-1.17-.22-1.95s-.32-1.74-.52-2.89l-6.7-33.4Z"/>
      <path class="cls-5" d="M120.31,552.57l-.21-5.13,89.57-131.54c-2.7-.59-5.39-1-8.08-1.23-2.7-.22-5.32-.33-7.87-.33h-8.72c-6.38,0-11.7.6-15.96,1.78-4.25,1.19-7.91,3.09-10.96,5.69-3.05,2.6-5.71,6.02-7.98,10.26-2.27,4.24-4.54,9.33-6.81,15.27h-5.74l9.57-44.14c2.41.45,4.79.82,7.13,1.11,2.34.3,4.71.45,7.13.45h72.98l-.85,6.91-88.72,130.65c2.13.6,4.25,1,6.38,1.23,2.13.22,4.11.33,5.96.33h14.68c6.52,0,12.3-1.41,17.34-4.24,5.03-2.82,9.43-6.24,13.19-10.26,3.76-4.01,6.88-8.17,9.36-12.49,2.48-4.31,4.5-8.03,6.06-11.15l5.74,1.78-11.06,45.04h-92.12Z"/>
      <path class="cls-5" d="M226.3,552.57l.6-4.68c8.34,0,13.05-3.59,14.15-10.79l9.68-72.69c0-3.54-.99-6.2-2.98-7.97-1.99-1.77-4.87-2.66-8.64-2.66l.6-4.68h38.72l-.6,4.68c-8.24,0-12.96,4.59-14.15,13.75l-9.53,69.57c-.1.31-.15.65-.15,1.02v1.01c0,5.84,3.87,8.75,11.62,8.75l-.45,4.68h-38.87Z"/>
      <path class="cls-5" d="M338.74,497.32c6.35,1.15,11.42,3.54,15.19,7.18,3.77,3.64,5.66,8.43,5.66,14.36,0,6.45-1.04,11.86-3.13,16.23-2.08,4.37-4.84,7.88-8.27,10.53-3.43,2.65-7.27,4.58-11.54,5.77-4.27,1.2-8.59,1.79-12.96,1.79-3.77,0-7.42-.03-10.95-.08-3.53-.05-7.12-.13-10.8-.23-3.67-.11-7.42-.18-11.24-.23-3.82-.05-7.92-.08-12.29-.08l.6-4.68c8.34,0,12.96-2.91,13.85-8.74l10.13-76.32c0-5.93-3.92-8.9-11.77-8.9l.6-4.84h38.72c4.27,0,8.27.37,11.99,1.09,3.72.73,6.93,1.93,9.61,3.59,2.68,1.67,4.79,3.77,6.33,6.32,1.54,2.55,2.31,5.7,2.31,9.44,0,4.06-.57,7.57-1.71,10.53-1.14,2.96-2.73,5.52-4.77,7.65-2.04,2.13-4.37,3.9-7,5.31-2.63,1.4-5.44,2.63-8.41,3.67l-.15.62ZM320.42,547.26c3.28,0,6.4-.49,9.38-1.48,2.98-.99,5.61-2.6,7.89-4.84,2.28-2.24,4.12-5.15,5.51-8.74,1.39-3.59,2.08-7.93,2.08-13.03,0-3.64-.6-6.61-1.79-8.9-1.19-2.29-2.88-4.08-5.06-5.38-2.19-1.3-4.87-2.19-8.04-2.65-3.18-.47-6.7-.7-10.57-.7h-4.77c-2.58,0-4.17,1.98-4.77,5.93l-4.47,33.71c0,.21-.03.34-.07.39-.05.05-.07.18-.07.39,0,3.54,2.98,5.31,8.94,5.31h5.81ZM326.82,455.19c-6.16,0-9.53,1.93-10.13,5.77l-4.17,30.12c0,1.46.22,2.55.67,3.28.45.73,1.36,1.09,2.76,1.09,6.45,0,11.71-.47,15.79-1.4,4.07-.94,7.27-2.42,9.61-4.45,2.33-2.03,3.92-4.66,4.77-7.88.84-3.22,1.27-7.13,1.27-11.71,0-9.88-5.06-14.83-15.19-14.83h-5.36Z"/>
      <path class="cls-5" d="M369.27,552.57l.6-4.68c3.57,0,6.58-.86,9.01-2.58,2.43-1.72,3.9-4.25,4.39-7.58l9.83-73.63c0-6.88-3.87-10.32-11.62-10.32l.6-4.68h70.44l-2.98,29.18-4.17.62c-.1-5.72-.74-10.14-1.94-13.27s-2.85-5.41-4.99-6.87c-2.14-1.46-4.67-2.31-7.6-2.58-2.93-.26-6.08-.39-9.46-.39h-3.57c-3.77,0-6.5.57-8.19,1.72-1.69,1.15-2.68,2.91-2.98,5.31l-3.87,27.94c0,.21-.03.42-.07.62-.05.21-.07.42-.07.62,0,2.29.89,3.43,2.68,3.43h4.62c2.28,0,4.39-.13,6.33-.39,1.94-.26,3.72-.94,5.36-2.03s3.08-2.76,4.32-4.99c1.24-2.24,2.26-5.28,3.05-9.13h5.06l-5.51,40.42h-4.91v-3.75c0-2.91-.27-5.25-.82-7.02-.55-1.77-1.42-3.12-2.61-4.06s-2.71-1.56-4.54-1.87c-1.84-.31-4.05-.47-6.63-.47h-1.49c-4.27,0-6.6,1.72-7,5.15l-4.02,29.81c-.1.42-.15.94-.15,1.56,0,4.89,3.28,7.33,9.83,7.33h4.02c5.66,0,10.28-.49,13.85-1.48,3.57-.99,6.58-2.55,9.01-4.68,2.43-2.13,4.49-4.81,6.18-8.04,1.69-3.22,3.52-7.02,5.51-11.39l3.43,1.25-7.6,30.9h-71.34Z"/>
      <path class="cls-5" d="M540.83,538.99c-.1,1.25-.52,2.76-1.27,4.53-.74,1.77-1.71,3.43-2.9,4.99s-2.61,2.91-4.24,4.06-3.4,1.72-5.29,1.72c-5.36,0-9.21-1.07-11.54-3.2-2.33-2.13-3.85-5.59-4.54-10.38-.6-3.95-1.09-8.19-1.49-12.72-.4-4.53-1.07-8.69-2.01-12.49-.94-3.8-2.31-6.97-4.1-9.52-1.79-2.55-4.27-3.82-7.45-3.82h-4.17c-2.48,0-3.92.57-4.32,1.72l-4.77,33.87c-.1.42-.15.99-.15,1.72,0,5.62,3.72,8.43,11.17,8.43l-.45,4.68h-37.68l.6-4.68c3.28,0,6.11-.86,8.49-2.58s3.82-4.24,4.32-7.57l10.28-75.69c0-5.41-3.82-8.12-11.47-8.12l.6-4.84h16.68c2.98,0,5.51-.02,7.6-.08,2.08-.05,4.1-.13,6.03-.23,1.94-.1,3.97-.18,6.11-.23,2.13-.05,4.79-.08,7.97-.08,3.57,0,6.85.55,9.83,1.64s5.56,2.63,7.74,4.6c2.18,1.98,3.87,4.32,5.06,7.02,1.19,2.71,1.79,5.62,1.79,8.74,0,4.16-.72,7.86-2.16,11.08-1.44,3.23-3.38,6.06-5.81,8.51-2.43,2.45-5.31,4.45-8.64,6.01-3.33,1.56-6.88,2.81-10.65,3.75v.47c4.17,2.39,7.37,5.38,9.61,8.97,2.23,3.59,3.6,7.05,4.1,10.38.3,2.08.6,4.58.89,7.49.3,2.91.77,5.67,1.42,8.27.64,2.6,1.46,4.81,2.46,6.63.99,1.82,2.33,2.73,4.02,2.73,1.99,0,3.82-2.34,5.51-7.02l2.83,1.25ZM498.68,496.07c2.68,0,5.44-.26,8.27-.78,2.83-.52,5.44-1.66,7.82-3.43,2.38-1.77,4.32-4.26,5.81-7.49,1.49-3.22,2.23-7.59,2.23-13.11,0-3.12-.52-5.72-1.56-7.8-1.04-2.08-2.38-3.75-4.02-4.99-1.64-1.25-3.5-2.11-5.58-2.58-2.09-.47-4.12-.7-6.11-.7h-6.4c-2.19,0-3.67.73-4.47,2.18-.8,1.46-1.39,3.64-1.79,6.55l-3.87,29.81c0,1.56.84,2.34,2.53,2.34h7.15Z"/>
      <path class="cls-5" d="M619.02,554.29c-1.79-1.77-3.4-3.33-4.84-4.68-1.44-1.35-2.66-2.55-3.65-3.59-3.48,2.71-7.42,4.87-11.84,6.48-4.42,1.61-8.86,2.42-13.33,2.42-5.46,0-10.38-1.07-14.74-3.2-4.37-2.13-8.09-5.12-11.17-8.97-3.08-3.85-5.44-8.35-7.07-13.5s-2.46-10.79-2.46-16.93c0-7.91,1.34-15.79,4.02-23.64,2.68-7.85,6.38-14.88,11.1-21.07,4.71-6.19,10.2-11.21,16.46-15.06,6.25-3.85,12.96-5.77,20.11-5.77,3.77,0,7.32.78,10.65,2.34,3.33,1.56,6.53,3.38,9.61,5.46,3.57-3.75,7.1-5.93,10.57-6.55.89,4.06,1.34,8.9,1.34,14.51,0,3.02-.15,6.3-.45,9.83-.3,3.54-.7,7.28-1.19,11.24h-4.62c-.3-4.58-1.07-8.74-2.31-12.49-1.24-3.75-2.93-6.97-5.06-9.68-2.14-2.7-4.69-4.81-7.67-6.32-2.98-1.51-6.4-2.26-10.28-2.26-6.26,0-11.69,1.82-16.31,5.46-4.62,3.64-8.44,8.35-11.47,14.12-3.03,5.77-5.31,12.2-6.85,19.27-1.54,7.08-2.31,14.1-2.31,21.07,0,5.1.47,9.83,1.42,14.2.94,4.37,2.41,8.14,4.39,11.31,1.99,3.17,4.47,5.67,7.45,7.49,2.98,1.82,6.55,2.73,10.72,2.73,3.08,0,6.08-.47,9.01-1.4,2.93-.94,5.53-2.44,7.82-4.53,2.28-2.08,4.14-4.78,5.58-8.12,1.44-3.33,2.16-7.33,2.16-12.02,0-8.12-3.92-12.17-11.77-12.17l.6-4.68h38.42l-.74,4.68c-4.47,0-7.7,1.01-9.68,3.04-1.99,2.03-3.23,4.97-3.72,8.82l-4.32,32.15h-3.57Z"/>
      <path class="cls-5" d="M687.23,552.57l.3-4.68c1.29-.21,2.65-.42,4.1-.62,1.44-.21,2.78-.47,4.02-.78,1.24-.31,2.26-.7,3.05-1.17.79-.47,1.19-1.01,1.19-1.64,0-.52-.03-1.09-.08-1.72-.05-.62-.17-1.61-.37-2.97l-3.28-19.2c-.3-1.35-1.24-2.37-2.83-3.04-1.59-.67-3.23-1.01-4.92-1.01h-19.81c-3.48,0-5.76,1.35-6.85,4.04l-6.85,16.15c-.2.62-.42,1.37-.67,2.25-.25.88-.37,1.84-.37,2.87,0,4.04,3.62,6.06,10.87,6.06l-.6,5.46h-30.08l.89-5.46c2.58-.21,4.84-1.25,6.78-3.12,1.94-1.87,3.8-4.57,5.58-8.1l44.38-89.13,3.72,1.87,19.21,92.56c.4,2.6,1.34,4.21,2.83,4.83,1.49.62,3.82,1.2,7,1.71l-.45,4.84h-36.79ZM686.63,468.76l-16.08,32.77c-.8,1.35-1.37,2.5-1.71,3.43-.35.94-.52,1.72-.52,2.34,0,1.25,1.54,1.87,4.62,1.87h16.83c2.88,0,4.32-.73,4.32-2.19,0-.52-.07-1.17-.22-1.95-.15-.78-.32-1.74-.52-2.89l-6.7-33.4Z"/>
    </g>
    <g>
      <path class="cls-3" d="M137.44,350.45l.43-6.69c11.2,0,17.37-4.02,18.51-12.06l14.47-108.98c0-8.93-5.6-13.4-16.81-13.4l.85-6.69h55.32l-.85,6.69c-11.63,0-18.23,5.66-19.79,16.97l-14.47,105.41c0,.3-.04.56-.11.78-.07.22-.11.48-.11.78,0,5.21,3.83,7.82,11.49,7.82h8.72c5.81,0,10.85-.26,15.11-.78,4.26-.52,8.15-1.97,11.7-4.35,3.54-2.38,6.84-6.09,9.89-11.15,3.05-5.05,6.35-12.11,9.89-21.18l5.11.89-11.91,45.93h-97.44Z"/>
      <path class="cls-3" d="M245.56,350.45l.6-4.68c8.34,0,13.05-3.59,14.15-10.79l9.68-72.69c0-3.54-.99-6.2-2.98-7.97-1.99-1.77-4.87-2.66-8.64-2.66l.6-4.68h38.72l-.6,4.68c-8.24,0-12.96,4.59-14.15,13.76l-9.53,69.57c-.1.31-.15.65-.15,1.02v1.01c0,5.84,3.87,8.75,11.62,8.75l-.45,4.68h-38.87Z"/>
      <path class="cls-3" d="M372.75,352.17l-47.51-87.86-8.34,62.89c-.3,2.08-.45,3.85-.45,5.31,0,8.84,3.92,13.27,11.77,13.27l-.45,4.68h-32.32l.6-4.68c7.54,0,12.16-6.2,13.85-18.6l9.23-68.94c0-2.19-.92-3.83-2.75-4.92-1.84-1.09-5.09-1.64-9.75-1.64l.74-4.68h24.42l42,77.88,7.6-55.99c.3-1.67.45-3.28.45-4.85,0-8.24-3.92-12.36-11.77-12.36l.6-4.68h32.17l-.74,4.68c-8.24,0-13.11,5.73-14.6,17.19l-11.17,82.22-3.57,1.1Z"/>
      <path class="cls-3" d="M397.77,350.45l.6-4.68c3.57,0,6.58-.86,9.01-2.58,2.43-1.72,3.9-4.25,4.39-7.58l9.83-73.63c0-6.88-3.87-10.32-11.62-10.32l.6-4.68h70.44l-2.98,29.18-4.17.62c-.1-5.72-.74-10.14-1.94-13.27-1.19-3.12-2.85-5.41-4.99-6.87-2.14-1.46-4.67-2.31-7.6-2.58-2.93-.26-6.08-.39-9.46-.39h-3.57c-3.77,0-6.5.57-8.19,1.72-1.69,1.15-2.68,2.91-2.98,5.31l-3.87,27.94c0,.21-.03.42-.07.62-.05.21-.07.42-.07.62,0,2.29.89,3.43,2.68,3.43h4.62c2.28,0,4.39-.13,6.33-.39,1.94-.26,3.72-.94,5.36-2.03,1.64-1.09,3.08-2.76,4.32-4.99,1.24-2.24,2.26-5.28,3.05-9.13h5.06l-5.51,40.42h-4.91v-3.75c0-2.91-.27-5.25-.82-7.02-.55-1.77-1.42-3.12-2.61-4.06-1.19-.94-2.71-1.56-4.54-1.87-1.84-.31-4.05-.47-6.63-.47h-1.49c-4.27,0-6.6,1.72-7,5.15l-4.02,29.81c-.1.42-.15.94-.15,1.56,0,4.89,3.28,7.33,9.83,7.33h4.02c5.66,0,10.28-.49,13.85-1.48,3.57-.99,6.58-2.55,9.01-4.68,2.43-2.13,4.49-4.81,6.18-8.04,1.69-3.22,3.52-7.02,5.51-11.39l3.43,1.25-7.6,30.9h-71.34Z"/>
      <path class="cls-3" d="M494.57,350.45l.45-4.68c4.37,0,7.97-1.19,10.8-3.59,2.83-2.39,4.59-5.98,5.29-10.77l9.98-71.95c0-1.98-.4-3.43-1.19-4.37-.8-.94-2.38-1.4-4.77-1.4-11.62,0-20.31,8.9-26.06,26.69l-3.87-1.25,8.04-33.24c1.98.31,3.9.57,5.73.78,1.84.21,3.6.31,5.29.31h51.53c1.88,0,3.85-.1,5.88-.31,2.03-.21,4.1-.47,6.18-.78l-4.47,32.62-3.87.62c.1-.73.15-1.43.15-2.11v-1.95c0-13.94-6.06-20.91-18.17-20.91-4.37,0-6.8,1.77-7.3,5.31l-9.68,71.95c-.1.52-.17,1.04-.22,1.56-.05.52-.07,1.04-.07,1.56,0,7.49,4.22,11.24,12.66,11.24l-.45,4.68h-41.85Z"/>
      <path class="cls-3" d="M599.86,350.45l.3-4.68c1.29-.21,2.66-.41,4.1-.62,1.44-.21,2.78-.47,4.02-.78,1.24-.31,2.26-.7,3.05-1.17.79-.47,1.19-1.01,1.19-1.64,0-.52-.03-1.09-.07-1.72-.05-.62-.17-1.61-.37-2.97l-3.28-19.2c-.3-1.35-1.24-2.37-2.83-3.04-1.59-.68-3.23-1.01-4.91-1.01h-19.81c-3.48,0-5.76,1.35-6.85,4.04l-6.85,16.15c-.2.62-.42,1.37-.67,2.25-.25.88-.37,1.84-.37,2.87,0,4.04,3.62,6.06,10.87,6.06l-.6,5.46h-30.08l.89-5.46c2.58-.21,4.84-1.25,6.78-3.12,1.94-1.87,3.8-4.57,5.58-8.1l44.38-89.13,3.72,1.87,19.21,92.56c.4,2.6,1.34,4.21,2.83,4.83,1.49.62,3.82,1.19,7,1.71l-.45,4.84h-36.79ZM599.27,266.64l-16.08,32.77c-.8,1.35-1.37,2.5-1.71,3.43-.35.94-.52,1.72-.52,2.34,0,1.25,1.54,1.87,4.62,1.87h16.83c2.88,0,4.32-.73,4.32-2.19,0-.52-.07-1.17-.22-1.95s-.32-1.74-.52-2.89l-6.7-33.4Z"/>
      <path class="cls-3" d="M130.85,554.11l-.21-5.13,89.57-131.54c-2.7-.59-5.39-1-8.08-1.23-2.7-.22-5.32-.33-7.87-.33h-8.72c-6.38,0-11.7.6-15.96,1.78-4.25,1.19-7.91,3.09-10.96,5.69-3.05,2.6-5.71,6.02-7.98,10.26-2.27,4.24-4.54,9.33-6.81,15.27h-5.74l9.57-44.14c2.41.45,4.79.82,7.13,1.11,2.34.3,4.71.45,7.13.45h72.98l-.85,6.91-88.72,130.65c2.13.6,4.25,1,6.38,1.23,2.13.22,4.11.33,5.96.33h14.68c6.52,0,12.3-1.41,17.34-4.24,5.03-2.82,9.43-6.24,13.19-10.26,3.76-4.01,6.88-8.17,9.36-12.49,2.48-4.31,4.5-8.03,6.06-11.15l5.74,1.78-11.06,45.04h-92.12Z"/>
      <path class="cls-3" d="M236.84,554.11l.6-4.68c8.34,0,13.05-3.59,14.15-10.79l9.68-72.69c0-3.54-.99-6.2-2.98-7.97-1.99-1.77-4.87-2.66-8.64-2.66l.6-4.68h38.72l-.6,4.68c-8.24,0-12.96,4.59-14.15,13.75l-9.53,69.57c-.1.31-.15.65-.15,1.02v1.01c0,5.84,3.87,8.75,11.62,8.75l-.45,4.68h-38.87Z"/>
      <path class="cls-3" d="M349.28,498.87c6.35,1.15,11.42,3.54,15.19,7.18,3.77,3.64,5.66,8.43,5.66,14.36,0,6.45-1.04,11.86-3.13,16.23-2.08,4.37-4.84,7.88-8.27,10.53-3.43,2.65-7.27,4.58-11.54,5.77-4.27,1.2-8.59,1.79-12.96,1.79-3.77,0-7.42-.03-10.95-.08-3.53-.05-7.12-.13-10.8-.23-3.67-.11-7.42-.18-11.24-.23-3.82-.05-7.92-.08-12.29-.08l.6-4.68c8.34,0,12.96-2.91,13.85-8.74l10.13-76.32c0-5.93-3.92-8.9-11.77-8.9l.6-4.84h38.72c4.27,0,8.27.37,11.99,1.09,3.72.73,6.93,1.93,9.61,3.59,2.68,1.67,4.79,3.77,6.33,6.32,1.54,2.55,2.31,5.7,2.31,9.44,0,4.06-.57,7.57-1.71,10.53-1.14,2.96-2.73,5.52-4.77,7.65-2.04,2.13-4.37,3.9-7,5.31-2.63,1.4-5.44,2.63-8.41,3.67l-.15.62ZM330.96,548.81c3.28,0,6.4-.49,9.38-1.48,2.98-.99,5.61-2.6,7.89-4.84,2.28-2.24,4.12-5.15,5.51-8.74,1.39-3.59,2.08-7.93,2.08-13.03,0-3.64-.6-6.61-1.79-8.9-1.19-2.29-2.88-4.08-5.06-5.38-2.19-1.3-4.87-2.19-8.04-2.65-3.18-.47-6.7-.7-10.57-.7h-4.77c-2.58,0-4.17,1.98-4.77,5.93l-4.47,33.71c0,.21-.03.34-.07.39-.05.05-.07.18-.07.39,0,3.54,2.98,5.31,8.94,5.31h5.81ZM337.37,456.73c-6.16,0-9.53,1.93-10.13,5.77l-4.17,30.12c0,1.46.22,2.55.67,3.28.45.73,1.36,1.09,2.76,1.09,6.45,0,11.71-.47,15.79-1.4,4.07-.94,7.27-2.42,9.61-4.45,2.33-2.03,3.92-4.66,4.77-7.88.84-3.22,1.27-7.13,1.27-11.71,0-9.88-5.06-14.83-15.19-14.83h-5.36Z"/>
      <path class="cls-3" d="M379.81,554.11l.6-4.68c3.57,0,6.58-.86,9.01-2.58,2.43-1.72,3.9-4.25,4.39-7.58l9.83-73.63c0-6.88-3.87-10.32-11.62-10.32l.6-4.68h70.44l-2.98,29.18-4.17.62c-.1-5.72-.74-10.14-1.94-13.27s-2.85-5.41-4.99-6.87c-2.14-1.46-4.67-2.31-7.6-2.58-2.93-.26-6.08-.39-9.46-.39h-3.57c-3.77,0-6.5.57-8.19,1.72-1.69,1.15-2.68,2.91-2.98,5.31l-3.87,27.94c0,.21-.03.42-.07.62-.05.21-.07.42-.07.62,0,2.29.89,3.43,2.68,3.43h4.62c2.28,0,4.39-.13,6.33-.39,1.94-.26,3.72-.94,5.36-2.03s3.08-2.76,4.32-4.99c1.24-2.24,2.26-5.28,3.05-9.13h5.06l-5.51,40.42h-4.91v-3.75c0-2.91-.27-5.25-.82-7.02-.55-1.77-1.42-3.12-2.61-4.06s-2.71-1.56-4.54-1.87c-1.84-.31-4.05-.47-6.63-.47h-1.49c-4.27,0-6.6,1.72-7,5.15l-4.02,29.81c-.1.42-.15.94-.15,1.56,0,4.89,3.28,7.33,9.83,7.33h4.02c5.66,0,10.28-.49,13.85-1.48,3.57-.99,6.58-2.55,9.01-4.68,2.43-2.13,4.49-4.81,6.18-8.04,1.69-3.22,3.52-7.02,5.51-11.39l3.43,1.25-7.6,30.9h-71.34Z"/>
      <path class="cls-3" d="M551.37,540.54c-.1,1.25-.52,2.76-1.27,4.53-.74,1.77-1.71,3.43-2.9,4.99s-2.61,2.91-4.24,4.06-3.4,1.72-5.29,1.72c-5.36,0-9.21-1.07-11.54-3.2-2.33-2.13-3.85-5.59-4.54-10.38-.6-3.95-1.09-8.19-1.49-12.72-.4-4.53-1.07-8.69-2.01-12.49-.94-3.8-2.31-6.97-4.1-9.52-1.79-2.55-4.27-3.82-7.45-3.82h-4.17c-2.48,0-3.92.57-4.32,1.72l-4.77,33.87c-.1.42-.15.99-.15,1.72,0,5.62,3.72,8.43,11.17,8.43l-.45,4.68h-37.68l.6-4.68c3.28,0,6.11-.86,8.49-2.58s3.82-4.24,4.32-7.57l10.28-75.69c0-5.41-3.82-8.12-11.47-8.12l.6-4.84h16.68c2.98,0,5.51-.02,7.6-.08,2.08-.05,4.1-.13,6.03-.23,1.94-.1,3.97-.18,6.11-.23,2.13-.05,4.79-.08,7.97-.08,3.57,0,6.85.55,9.83,1.64s5.56,2.63,7.74,4.6c2.18,1.98,3.87,4.32,5.06,7.02,1.19,2.71,1.79,5.62,1.79,8.74,0,4.16-.72,7.86-2.16,11.08-1.44,3.23-3.38,6.06-5.81,8.51-2.43,2.45-5.31,4.45-8.64,6.01-3.33,1.56-6.88,2.81-10.65,3.75v.47c4.17,2.39,7.37,5.38,9.61,8.97,2.23,3.59,3.6,7.05,4.1,10.38.3,2.08.6,4.58.89,7.49.3,2.91.77,5.67,1.42,8.27.64,2.6,1.46,4.81,2.46,6.63.99,1.82,2.33,2.73,4.02,2.73,1.99,0,3.82-2.34,5.51-7.02l2.83,1.25ZM509.23,497.62c2.68,0,5.44-.26,8.27-.78,2.83-.52,5.44-1.66,7.82-3.43,2.38-1.77,4.32-4.26,5.81-7.49,1.49-3.22,2.23-7.59,2.23-13.11,0-3.12-.52-5.72-1.56-7.8-1.04-2.08-2.38-3.75-4.02-4.99-1.64-1.25-3.5-2.11-5.58-2.58-2.09-.47-4.12-.7-6.11-.7h-6.4c-2.19,0-3.67.73-4.47,2.18-.8,1.46-1.39,3.64-1.79,6.55l-3.87,29.81c0,1.56.84,2.34,2.53,2.34h7.15Z"/>
      <path class="cls-3" d="M629.56,555.83c-1.79-1.77-3.4-3.33-4.84-4.68-1.44-1.35-2.66-2.55-3.65-3.59-3.48,2.71-7.42,4.87-11.84,6.48-4.42,1.61-8.86,2.42-13.33,2.42-5.46,0-10.38-1.07-14.74-3.2-4.37-2.13-8.09-5.12-11.17-8.97-3.08-3.85-5.44-8.35-7.07-13.5s-2.46-10.79-2.46-16.93c0-7.91,1.34-15.79,4.02-23.64,2.68-7.85,6.38-14.88,11.1-21.07,4.71-6.19,10.2-11.21,16.46-15.06,6.25-3.85,12.96-5.77,20.11-5.77,3.77,0,7.32.78,10.65,2.34,3.33,1.56,6.53,3.38,9.61,5.46,3.57-3.75,7.1-5.93,10.57-6.55.89,4.06,1.34,8.9,1.34,14.51,0,3.02-.15,6.3-.45,9.83-.3,3.54-.7,7.28-1.19,11.24h-4.62c-.3-4.58-1.07-8.74-2.31-12.49-1.24-3.75-2.93-6.97-5.06-9.68-2.14-2.7-4.69-4.81-7.67-6.32-2.98-1.51-6.4-2.26-10.28-2.26-6.26,0-11.69,1.82-16.31,5.46-4.62,3.64-8.44,8.35-11.47,14.12-3.03,5.77-5.31,12.2-6.85,19.27-1.54,7.08-2.31,14.1-2.31,21.07,0,5.1.47,9.83,1.42,14.2.94,4.37,2.41,8.14,4.39,11.31,1.99,3.17,4.47,5.67,7.45,7.49,2.98,1.82,6.55,2.73,10.72,2.73,3.08,0,6.08-.47,9.01-1.4,2.93-.94,5.53-2.44,7.82-4.53,2.28-2.08,4.14-4.78,5.58-8.12,1.44-3.33,2.16-7.33,2.16-12.02,0-8.12-3.92-12.17-11.77-12.17l.6-4.68h38.42l-.74,4.68c-4.47,0-7.7,1.01-9.68,3.04-1.99,2.03-3.23,4.97-3.72,8.82l-4.32,32.15h-3.57Z"/>
      <path class="cls-3" d="M697.77,554.11l.3-4.68c1.29-.21,2.66-.42,4.1-.62,1.44-.21,2.78-.47,4.02-.78,1.24-.31,2.26-.7,3.05-1.17.79-.47,1.19-1.01,1.19-1.64,0-.52-.03-1.09-.07-1.72-.05-.62-.17-1.61-.37-2.97l-3.28-19.2c-.3-1.35-1.24-2.37-2.83-3.04-1.59-.67-3.23-1.01-4.91-1.01h-19.81c-3.48,0-5.76,1.35-6.85,4.04l-6.85,16.15c-.2.62-.42,1.37-.67,2.25-.25.88-.37,1.84-.37,2.87,0,4.04,3.62,6.06,10.87,6.06l-.6,5.46h-30.08l.89-5.46c2.58-.21,4.84-1.25,6.78-3.12,1.94-1.87,3.8-4.57,5.58-8.1l44.38-89.13,3.72,1.87,19.21,92.56c.4,2.6,1.34,4.21,2.83,4.83,1.49.62,3.82,1.2,7,1.71l-.45,4.84h-36.79ZM697.17,470.31l-16.08,32.77c-.8,1.35-1.37,2.5-1.71,3.43-.35.94-.52,1.72-.52,2.34,0,1.25,1.54,1.87,4.62,1.87h16.83c2.88,0,4.32-.73,4.32-2.19,0-.52-.07-1.17-.22-1.95-.15-.78-.32-1.74-.52-2.89l-6.7-33.4Z"/>
    </g>
  </g>
  <rect class="cls-6" x="1144" y="61" width="106" height="47"/>
  <rect class="cls-2" x="7.47" y="4.46" width="1366.53" height="769.79"/>
  <rect class="cls-6" x="933" y="61" width="126" height="47"/>
  <g>
    <path class="cls-4" d="M967.14,89.44c0,.1-.02.68-.06,1.76-.04,1.08-.06,2.11-.06,3.1v1.19c-2.05-.14-6.1-.22-12.17-.22h-3.92c-.4,0-.6-.1-.6-.29,0-.13.06-.2.19-.23.06,0,.46-.03,1.19-.1.54-.05.87-.18.99-.4.11-.22.17-.78.17-1.7v-20.29c0-.7-.09-1.11-.27-1.25-.18-.13-.75-.2-1.71-.2-.33,0-.5-.1-.5-.31s.23-.31.69-.31h13.29c.63,0,1.2-.05,1.72-.14.04,1.03.14,2.46.28,4.28l.12,1.55c.02.12.03.28.03.47,0,.24-.09.36-.28.36-.23,0-.4-.3-.5-.91-.4-2.17-1.05-3.55-1.94-4.13-.67-.43-2.42-.65-5.27-.65h-2.57v10.58h.75c2.34,0,3.77-.2,4.28-.61.51-.41.86-1.6,1.05-3.56.04-.5.16-.76.34-.76.23,0,.34.22.34.65s-.02,1.07-.06,1.91c-.04.84-.06,1.48-.06,1.91,0,2.57.03,4.33.1,5.29.02.24.02.44.02.61,0,.31-.11.47-.34.47-.15,0-.25-.1-.3-.31s-.14-.87-.26-2c-.17-1.42-.68-2.29-1.53-2.63-.38-.14-1.35-.22-2.93-.22h-1.4v12.06c4.6,0,7.29-.11,8.09-.32,1.38-.36,2.16-1.87,2.35-4.55.04-.59.18-.89.41-.89.21,0,.31.25.31.76Z"/>
    <path class="cls-4" d="M981.9,95.01c0,.15-.21.23-.61.23h-6.23c-.42,0-.64-.08-.64-.24,0-.15.17-.21.5-.19h.99c.35.02.56,0,.64-.03.22-.05.33-.21.33-.48,0-.25-.19-.8-.57-1.65l-2.34-5.45-2.76,5.36c-.48.96-.72,1.53-.72,1.7,0,.31.24.49.72.54-.03,0,.3,0,.99,0,.26,0,.39.08.39.23,0,.14-.11.2-.33.2h-4.35c-.23,0-.35-.08-.35-.23s.19-.25.57-.3c.26-.03.53-.07.79-.1.22-.07.4-.18.55-.33.28-.29,1.18-1.93,2.7-4.94.56-1.11,1.06-2.08,1.5-2.9l-2.49-5.4c-.52-1.1-.87-1.82-1.07-2.15-.2-.33-.41-.54-.63-.64-.24-.05-.7-.08-1.39-.08-.18,0-.27-.07-.27-.2,0-.18.12-.28.35-.28.32,0,.99.02,2,.05.5.02.84.03,1.03.03,1.71,0,2.66-.03,2.83-.08h.31c.31,0,.46.07.46.2,0,.19-.26.28-.77.28-.96-.02-1.44.12-1.44.4,0,.3.83,2.28,2.48,5.92.59-1.01,1.25-2.21,1.96-3.6.71-1.39,1.07-2.17,1.07-2.34,0-.25-.4-.38-1.21-.38-.39,0-.59-.08-.59-.23,0-.17.14-.25.42-.25.19,0,.47.01.83.04.37.03.64.04.83.04.07,0,.41-.01,1.02-.04.61-.02.96-.04,1.06-.04h.2c.25,0,.37.07.37.21s-.1.21-.29.21c-.03,0-.26,0-.7.03-.5.02-.84.12-1.02.3-.18.19-.49.73-.93,1.62-.57,1.18-1.4,2.74-2.5,4.68l-.24.43c.1.22,1.09,2.43,2.96,6.63.64,1.45,1.1,2.31,1.38,2.58.28.28.83.41,1.65.39.37,0,.55.08.55.23Z"/>
    <path class="cls-4" d="M992.41,81.93c0,1.63-.61,2.9-1.82,3.81-.76.57-1.73.86-2.9.86-.5,0-1.06-.06-1.69-.18v7.16c0,.39.01.63.04.73.07.24.23.38.48.43.42.07.83.1,1.23.1.16,0,.24.06.24.18,0,.17-.1.25-.31.25h-5.05c-.44,0-.66-.08-.66-.25,0-.12.15-.18.46-.18.69,0,1.08-.08,1.18-.23.12-.07.18-.24.2-.5v-14.89c0-.52-.12-.84-.37-.96-.15-.07-.4-.1-.77-.1h-.37c-.22,0-.33-.07-.33-.2,0-.15.21-.23.61-.23h4.83c1.67,0,2.89.34,3.67,1.01.88.76,1.32,1.82,1.32,3.2ZM990.11,81.95c0-2.54-.92-3.8-2.77-3.8-.61,0-1.02.12-1.21.35-.09.1-.13.36-.13.79v6.75c.12.02.25.03.39.03.97,0,1.79-.24,2.46-.74.83-.61,1.25-1.73,1.25-3.37Z"/>
    <path class="cls-4" d="M1004.7,93.24c0,.44-.02,1.16-.07,2.17h-.24c-.09,0-.3-.02-.63-.05s-.72-.05-1.14-.05l-9.11-.08c-.25,0-.37-.08-.37-.23,0-.12.2-.19.59-.23.56-.03.89-.1,1-.21.11-.11.17-.42.17-.94v-14.16c0-.62-.06-.98-.17-1.08-.11-.1-.5-.15-1.17-.15-.28,0-.42-.09-.42-.28,0-.15.09-.23.26-.23h.2c.48.05,1.44.08,2.88.08.13,0,.39-.01.77-.04.38-.03.7-.04.94-.04h.24c.26,0,.39.08.39.25,0,.1-.04.16-.12.19-.08.03-.33.05-.76.06-.42.02-.68.1-.76.24-.08.14-.12.58-.12,1.32v14.87c.39.02.94.03,1.65.03,1.71,0,2.92-.1,3.62-.3s1.18-.58,1.43-1.13c.25-.55.4-1.3.44-2.24.01-.22.1-.33.25-.33.18,0,.27.13.25.38v2.19Z"/>
    <path class="cls-4" d="M1019.8,86.59c0,2.5-.66,4.62-1.96,6.35-1.31,1.73-2.92,2.6-4.82,2.6-2.02,0-3.72-.88-5.09-2.63-1.38-1.76-2.06-3.92-2.06-6.49s.66-4.77,1.99-6.44c1.32-1.67,3.02-2.51,5.08-2.51,1.95,0,3.58.87,4.89,2.62,1.32,1.75,1.97,3.91,1.97,6.5ZM1017.34,86.72c0-3.08-.55-5.48-1.65-7.2-.69-1.08-1.65-1.62-2.88-1.62s-2.08.41-2.72,1.24c-1.19,1.52-1.78,3.98-1.78,7.41,0,2.71.41,4.82,1.24,6.32s1.99,2.25,3.48,2.25c1.39,0,2.44-.71,3.14-2.12.78-1.57,1.16-3.66,1.16-6.27Z"/>
    <path class="cls-4" d="M1033.76,94.48c0,.71-.51,1.06-1.54,1.06-1.14,0-2.03-.55-2.68-1.64-.28-.47-.46-.92-.54-1.36-.08-.44-.2-1.55-.36-3.33-.09-1.07-.39-1.83-.9-2.28-.51-.45-1.35-.68-2.5-.72v7.94c0,.34.23.55.7.63.13.02.47.03,1.01.05.19,0,.29.07.29.2,0,.15-.12.23-.37.23h-5.16c-.32,0-.48-.08-.48-.23,0-.12.21-.18.64-.2.69-.02,1.06-.12,1.12-.3.06-.08.09-.41.09-.98v-13.91c0-.67-.06-1.08-.19-1.21-.12-.13-.5-.21-1.13-.23-.37,0-.55-.08-.55-.23,0-.17.12-.25.35-.25.04,0,.11,0,.2.03l2.92.08c.29,0,.7-.01,1.23-.03.58-.04.99-.07,1.23-.07,1.36,0,2.44.35,3.24,1.05.8.7,1.2,1.64,1.2,2.83s-.41,2.15-1.23,2.91c-.82.76-1.93,1.21-3.34,1.35-.13.02-.21.04-.22.08,0,.07.07.1.22.1,1.54.3,2.59.92,3.17,1.86.58.94.96,2.62,1.15,5.07.12,1.38.53,2.07,1.23,2.07.22,0,.33-.05.33-.15,0-.02,0-.03-.02-.05-.07-.18-.11-.34-.11-.45,0-.35.16-.53.48-.53.35,0,.53.21.53.63ZM1029.21,81.85c0-2.4-.91-3.6-2.72-3.6-.48,0-.81.08-.99.23-.18.15-.26.42-.26.81v6.4c1.4.02,2.42-.28,3.04-.88.62-.6.93-1.59.93-2.95Z"/>
    <path class="cls-4" d="M1045.96,91.18c0,.07-.01.48-.04,1.23-.03.76-.04,1.48-.04,2.17v.83c-1.43-.1-4.27-.15-8.51-.15h-2.74c-.28,0-.42-.07-.42-.2,0-.09.04-.14.13-.16.04,0,.32-.02.83-.07.38-.03.61-.13.69-.28s.12-.55.12-1.19v-14.21c0-.49-.06-.78-.19-.87-.12-.09-.52-.14-1.2-.14-.23,0-.35-.07-.35-.21s.16-.21.48-.21h9.31c.44,0,.84-.03,1.21-.1.03.72.09,1.72.2,3l.09,1.08c.01.08.02.19.02.33,0,.17-.07.25-.2.25-.16,0-.28-.21-.35-.63-.28-1.52-.73-2.49-1.36-2.89-.47-.3-1.7-.46-3.69-.46h-1.8v7.41h.53c1.64,0,2.64-.14,3-.43.36-.29.6-1.12.73-2.49.03-.35.11-.53.24-.53.16,0,.24.15.24.45s-.01.75-.04,1.34c-.03.59-.04,1.03-.04,1.34,0,1.8.02,3.03.07,3.7.01.17.02.31.02.43,0,.22-.08.33-.24.33-.1,0-.17-.07-.21-.21-.04-.14-.1-.61-.19-1.4-.12-.99-.47-1.6-1.07-1.84-.26-.1-.95-.15-2.05-.15h-.98v8.44c3.22,0,5.11-.07,5.66-.22.97-.25,1.51-1.31,1.65-3.19.03-.41.12-.62.29-.62.15,0,.22.18.22.53Z"/>
  </g>
  <g>
    <path class="cls-4" d="M1181.13,97.62c0,.21-.16.31-.47.31-.21,0-.4-.01-.56-.04l-3.98-.15-3.98.14c-.15.02-.3.04-.47.04-.42,0-.63-.13-.63-.38,0-.28.28-.42.85-.42,1.84-.02,2.76-.23,2.76-.63,0-.02-.02-.12-.06-.28l-.26-.95-.16-.5c-.19-.75-.65-2.39-1.37-4.94h-6.7c-1.26,3.83-1.88,6.04-1.89,6.62,0,.34.13.54.38.61.06.02.58.07,1.57.15.61.02.91.15.91.36,0,.24-.27.36-.82.36-.96,0-2.08-.05-3.35-.15-.31-.02-.64-.04-.97-.04-.33,0-.66.04-.97.12-.17.04-.3.06-.41.06-.29,0-.44-.11-.44-.33s.33-.34.99-.36c.66-.02,1.13-.14,1.43-.34.29-.2.52-.6.69-1.17,2.7-8.86,4.89-15.97,6.58-21.34.05-.28.15-.6.29-.96l.13-.66c.06-.26.15-.4.25-.4.06,0,.11.07.16.22.27.94.89,2.89,1.84,5.87.75,2.33,2.62,8.17,5.6,17.54.17.54.38.89.64,1.04s.8.24,1.61.26c.54.02.82.14.82.34ZM1172.62,88.99c-.34-1.08-.9-2.86-1.68-5.35l-1.5-4.99c-.88,2.65-1.93,6.1-3.16,10.34h6.34Z"/>
    <path class="cls-4" d="M1191.25,93.28c0,1.71-.68,2.98-2.04,3.8-.66.4-1.6.65-2.83.75-.34.02-1.33.02-2.99.02h-2.68c-.25,0-.37-.07-.37-.22s.23-.21.68-.21c.53,0,.84-.06.93-.19s.14-.51.14-1.15v-13.63c.01-.74-.02-1.17-.07-1.29-.1-.2-.47-.31-1.12-.33-.39,0-.59-.09-.59-.27,0-.16.18-.24.55-.24h.26c.16.05.31.08.44.08h4.28c1.58.02,2.76.33,3.53.91.91.69,1.36,1.69,1.36,3,0,1.14-.38,2.08-1.12,2.81-.75.73-1.79,1.19-3.14,1.37v.15c1.33.1,2.37.42,3.12.96,1.11.81,1.67,2.03,1.66,3.66ZM1188.95,93c0-2.12-.74-3.43-2.23-3.93-.44-.15-1.25-.23-2.44-.23v7.51c0,.49.04.76.12.83.15.12.56.18,1.23.18,1.01,0,1.82-.37,2.42-1.11s.9-1.82.9-3.25ZM1188.32,84.58c0-1.61-.32-2.69-.96-3.23-.34-.29-.97-.43-1.91-.43-.25,0-.64.02-1.16.07v7.31s.19,0,.19,0l1.21-.05c.83-.03,1.48-.37,1.94-1.02.46-.65.69-1.53.69-2.66Z"/>
    <path class="cls-4" d="M1207.14,89.23c0,2.5-.66,4.62-1.97,6.35-1.31,1.73-2.92,2.59-4.82,2.59-2.02,0-3.72-.88-5.09-2.64-1.37-1.76-2.06-3.92-2.06-6.49,0-2.62.67-4.77,1.99-6.44,1.33-1.67,3.02-2.5,5.08-2.5,1.95,0,3.58.88,4.89,2.63,1.31,1.75,1.97,3.92,1.97,6.5ZM1204.68,89.36c0-3.08-.54-5.49-1.64-7.21-.69-1.08-1.64-1.62-2.87-1.62-1.17,0-2.08.41-2.72,1.24-1.19,1.52-1.78,3.98-1.79,7.4,0,2.71.41,4.82,1.23,6.32.83,1.5,1.98,2.25,3.48,2.25,1.39,0,2.44-.71,3.14-2.12.78-1.57,1.17-3.66,1.17-6.27Z"/>
    <path class="cls-4" d="M1222.49,80.63c0,.14-.13.2-.39.2h-.44c-.07,0-.18,0-.31,0-.37,0-.59.11-.66.33-.03.12-.04.31-.04.58v9.44c-.01,2.45-.41,4.23-1.21,5.35-.8,1.11-2.08,1.67-3.85,1.67-2.12,0-3.61-.69-4.48-2.07-.57-.92-.85-2.45-.85-4.56v-10.1c-.04-.3-.21-.49-.52-.56-.09-.02-.36-.02-.82-.03-.25-.03-.38-.12-.38-.25,0-.15.1-.23.31-.23h.39c.07,0,.24,0,.5,0,.23,0,.45,0,.64,0h3.14c.07,0,.16,0,.26,0,.25,0,.37.09.37.28,0,.12-.04.18-.13.2-.09.02-.38.03-.88.05-.21,0-.34.02-.42.05-.15.07-.23.18-.24.35-.01.07-.02.54-.02,1.43v9c-.01,2.21.29,3.72.91,4.52.61.8,1.53,1.21,2.74,1.21,2.22,0,3.48-1.44,3.78-4.34.04-.43.07-2.27.07-5.52v-1.43s0-2.01,0-2.01v-1.73c0-.17,0-.35,0-.55,0-.22,0-.31,0-.28,0-.37-.15-.59-.46-.68-.1-.03-.4-.05-.9-.05-.29,0-.44-.09-.44-.28,0-.15.1-.23.31-.23h.29c.18,0,.82,0,1.92,0,.16,0,.35,0,.55,0,.19,0,.33,0,.42,0h.33c.34,0,.51.08.51.23Z"/>
    <path class="cls-4" d="M1235.22,84.9c0,.22-.09.33-.26.33-.18,0-.3-.22-.37-.65-.03-.3-.06-.6-.09-.91-.1-.6-.27-1.12-.5-1.54-.31-.55-.81-.91-1.51-1.06-.45-.1-.82-.14-1.1-.13-.69.02-1.11.04-1.25.05v15.22c-.01.61.12.98.4,1.14.15.08.56.14,1.23.15.18.02.26.09.26.21,0,.14-.12.21-.35.21-.12,0-.22,0-.31-.03-.88-.03-1.5-.05-1.87-.05-.48,0-.94.01-1.36.04-.42.02-.97.04-1.62.04-.34,0-.5-.07-.5-.2,0-.15.31-.24.94-.25.45,0,.75-.11.88-.33.07-.13.11-.48.11-1.03v-15.12c-1.44.02-2.34.1-2.69.25-.92.39-1.46,1.42-1.63,3.1-.04.5-.15.76-.31.76-.18,0-.26-.18-.26-.53,0-.19,0-.37.02-.55l.04-.58c.04-.77.11-1.79.2-3.05h.99s4.48.08,4.48.08c.53.02,1.35.02,2.46,0l3.64-.07c.03.94.12,2.34.28,4.18,0,.05,0,.11.02.19.01.08.02.12.02.14Z"/>
  </g>
  <g>
    <path class="cls-4" d="M1054.22,572.35c0,.18-.29.27-.88.27-1.33,0-2.06.19-2.21.57-.1.26-.15,1.3-.15,3.12v1.15c-1.28,1.05-2.49,1.79-3.64,2.22-1.15.43-2.54.64-4.16.64-3.88,0-6.95-1.13-9.24-3.4-2.28-2.27-3.42-5.35-3.42-9.23s1.12-7.12,3.35-9.54c2.23-2.42,5.18-3.64,8.83-3.64,1.59,0,3.34.43,5.23,1.3.56.26,1.03.4,1.4.4.46,0,.77-.29.92-.86.12-.34.27-.5.44-.5.2,0,.29.11.29.32,0,.02-.02.25-.06.68-.15,1.42-.22,2.46-.19,3.13v1.94c.02.98.01,1.6-.04,1.84-.05.24-.18.36-.41.36s-.34-.17-.37-.51c-.12-2.31-.81-4.14-2.06-5.48-1.25-1.34-2.89-2.01-4.93-2.01-2.55,0-4.57,1.11-6.05,3.34s-2.23,5.27-2.23,9.12.75,6.69,2.26,8.86,3.55,3.27,6.13,3.27c1.96,0,3.31-.55,4.05-1.67.37-.55.55-1.56.55-3,0-1.21-.12-1.92-.35-2.13s-1.04-.31-2.41-.29c-.34,0-.56-.02-.66-.05-.1-.03-.15-.1-.15-.21,0-.24.27-.35.81-.35h.66c.54.02,1.89.02,4.05,0h3.9c.49,0,.74.11.74.34Z"/>
    <path class="cls-4" d="M1068.71,579.13c0,.71-.6,1.06-1.8,1.06-1.34,0-2.39-.55-3.14-1.64-.33-.47-.54-.92-.63-1.36-.09-.44-.24-1.55-.42-3.33-.1-1.08-.46-1.84-1.06-2.28-.6-.44-1.58-.68-2.94-.72v7.94c0,.34.27.55.82.63.16.02.55.03,1.19.05.22,0,.33.07.33.2,0,.15-.15.23-.44.23h-6.05c-.38,0-.57-.08-.57-.23,0-.12.25-.19.75-.2.81-.02,1.24-.12,1.31-.3.07-.08.1-.41.1-.98v-13.91c0-.67-.07-1.08-.22-1.21-.15-.13-.59-.21-1.33-.23-.43,0-.64-.08-.64-.23,0-.17.14-.25.41-.25.05,0,.13,0,.23.02l3.43.08c.34,0,.82-.01,1.44-.03.69-.04,1.17-.07,1.44-.07,1.6,0,2.86.35,3.8,1.05s1.4,1.64,1.4,2.83-.48,2.15-1.44,2.91c-.96.76-2.27,1.21-3.92,1.35-.15.02-.24.04-.26.08,0,.07.09.1.26.1,1.8.3,3.04.92,3.72,1.86.68.93,1.13,2.62,1.35,5.07.14,1.38.62,2.07,1.44,2.07.26,0,.39-.05.39-.15,0-.02,0-.03-.03-.05-.09-.18-.13-.34-.13-.45,0-.35.19-.53.57-.53.41,0,.62.21.62.63ZM1063.38,566.51c0-2.4-1.06-3.6-3.19-3.6-.57,0-.95.08-1.16.23s-.31.42-.31.81v6.4c1.65.02,2.84-.28,3.57-.88.73-.61,1.09-1.59,1.09-2.95Z"/>
    <path class="cls-4" d="M1085.22,579.73c0,.14-.13.22-.39.22-.17,0-.33,0-.46-.03l-3.27-.1-3.27.1c-.12.02-.25.03-.39.03-.34,0-.52-.09-.52-.26,0-.19.23-.29.7-.29,1.51-.02,2.27-.17,2.27-.44,0-.02-.02-.08-.05-.2l-.21-.67-.13-.35c-.16-.52-.53-1.67-1.13-3.46h-5.51c-1.03,2.69-1.54,4.23-1.54,4.64,0,.24.1.38.31.43.05.02.48.05,1.29.1.5.02.75.1.75.25,0,.17-.22.25-.67.25-.79,0-1.71-.03-2.76-.1-.26-.02-.52-.02-.8-.02s-.54.03-.8.08c-.14.03-.25.04-.33.04-.24,0-.36-.08-.36-.23s.27-.24.81-.25.93-.1,1.17-.24c.24-.14.43-.42.57-.82,2.21-6.2,4.01-11.18,5.39-14.94.04-.2.12-.42.24-.67l.11-.46c.05-.18.12-.28.21-.28.05,0,.09.05.13.15.22.66.73,2.02,1.52,4.11.62,1.63,2.15,5.72,4.61,12.27.14.38.31.62.53.73.21.1.66.16,1.33.18.45.02.67.1.67.24ZM1078.22,573.69c-.28-.75-.74-2-1.39-3.75l-1.24-3.49c-.72,1.86-1.58,4.27-2.59,7.24h5.21Z"/>
    <path class="cls-4" d="M1096.89,566.58c0,1.63-.71,2.9-2.14,3.81-.89.57-2.03.86-3.4.86-.58,0-1.25-.06-1.98-.18v7.16c0,.39.02.63.05.73.09.24.27.38.57.43.5.07.98.1,1.44.1.19,0,.28.06.28.18,0,.17-.12.25-.36.25h-5.92c-.52,0-.77-.08-.77-.25,0-.12.18-.18.54-.18.81,0,1.27-.08,1.39-.23.14-.07.21-.24.23-.5v-14.89c0-.52-.15-.84-.44-.96-.17-.07-.47-.1-.9-.1h-.44c-.26,0-.39-.07-.39-.2,0-.15.24-.23.72-.23h5.67c1.96,0,3.39.34,4.3,1.01,1.03.76,1.54,1.82,1.54,3.2ZM1094.19,566.61c0-2.54-1.08-3.8-3.25-3.8-.72,0-1.19.12-1.42.36-.1.1-.16.36-.16.79v6.75c.14.02.29.03.46.03,1.13,0,2.09-.25,2.88-.74.98-.61,1.47-1.73,1.47-3.37Z"/>
    <path class="cls-4" d="M1114.64,579.66c0,.15-.16.23-.49.23h-5.6c-.34,0-.51-.07-.51-.2s.4-.23,1.2-.28c.42-.03.67-.1.74-.21.07-.11.1-.5.1-1.17v-7.34h-7.75v7.13c0,.76.06,1.2.18,1.34.12.13.52.23,1.21.28.45.03.67.11.67.23,0,.15-.17.23-.51.23h-5.59c-.34,0-.51-.07-.51-.2s.17-.22.51-.25c.22-.02.46-.03.7-.05.38-.03.62-.12.72-.25.05-.08.08-.55.08-1.41v-13.29c0-.75-.04-1.2-.12-1.33s-.35-.21-.81-.23c-.53-.04-.85-.06-.94-.08-.09-.02-.14-.09-.14-.21,0-.14.11-.21.33-.21.07,0,.21,0,.44.02.43.03,1.44.05,3.04.05.88,0,1.49-.01,1.83-.04.12-.02.27-.04.46-.04.31,0,.46.08.46.25,0,.15-.28.23-.84.23s-.89.06-1,.19c-.11.13-.17.53-.17,1.2v5.81h7.75v-5.44c0-.89-.07-1.42-.21-1.58s-.62-.23-1.44-.21c-.26,0-.39-.08-.39-.23s.15-.23.44-.23h5.62c.36,0,.54.08.54.23s-.38.24-1.13.25c-.22,0-.39.02-.49.05-.17.05-.28.14-.32.28-.04.13-.06.53-.06,1.18v13.41c0,.81.04,1.28.13,1.41.17.19.66.28,1.47.28.27-.03.41.03.41.2Z"/>
    <path class="cls-4" d="M1122.83,579.68c0,.14-.1.21-.31.21h-.26c-.1-.05-1.28-.08-3.52-.08-.43,0-.86.02-1.29.05-.22.02-.57.03-1.03.03-.22,0-.34-.08-.34-.23,0-.13.22-.21.67-.23.69-.02,1.09-.1,1.21-.24.12-.14.18-.63.18-1.45v-13.29c0-.83-.04-1.29-.13-1.39-.1-.17-.58-.27-1.44-.3-.33-.01-.5-.07-.5-.18,0-.13.1-.2.31-.2h3.52c.26,0,.76,0,1.51.02l.99-.02c.28,0,.42.07.42.21,0,.13-.39.21-1.16.24-.44.02-.71.09-.8.23-.1.13-.15.49-.15,1.06v13.46c0,.96.04,1.48.13,1.56.19.18.76.29,1.7.33.19,0,.29.07.29.21Z"/>
    <path class="cls-4" d="M1139.16,574.25s-.02.21-.05.68c-.07.94-.1,1.88-.1,2.82,0,.12.02.33.05.64.03.31.05.68.05,1.12v.23c0,.22-.07.33-.21.33s-.26-.13-.36-.38c-.24-.59-.48-.95-.72-1.08-1.24,1.06-2.72,1.59-4.46,1.59-2.52,0-4.61-.86-6.27-2.58-1.66-1.72-2.49-3.89-2.49-6.51s.76-4.79,2.28-6.46c1.52-1.67,3.48-2.51,5.89-2.51.88,0,1.58.07,2.1.21s1.17.43,1.95.87c.38.22.66.33.85.33.15,0,.3-.13.44-.4.22-.47.4-.71.54-.71s.21.07.21.2c0,.07-.02.18-.05.33-.19.81-.28,2.32-.28,4.54,0,.32-.03.5-.08.55-.05.05-.12.08-.21.08-.17,0-.28-.16-.33-.48-.22-1.34-.54-2.34-.95-3-.84-1.34-2.16-2.02-3.97-2.02-1.39,0-2.49.45-3.3,1.36-1.46,1.63-2.19,4.02-2.19,7.16,0,2.81.6,4.98,1.8,6.53,1.05,1.34,2.44,2.02,4.17,2.02.89,0,1.71-.22,2.45-.66.74-.44,1.31-1.04,1.71-1.8.4-.76.72-1.68.94-2.76.09-.4.2-.6.33-.6.17,0,.26.13.26.38Z"/>
    <path class="cls-4" d="M1171.97,567.4c0,4.24-1.51,7.53-4.53,9.89-2.21,1.73-5.16,2.6-8.87,2.6h-9.97c-.47,0-.7-.12-.7-.36,0-.22.39-.32,1.18-.32,1.01,0,1.63-.18,1.88-.54.1-.17.15-.62.15-1.37v-19.4c0-1.18-.09-1.86-.28-2.05-.18-.19-.82-.29-1.9-.29-.56,0-.85-.13-.85-.4,0-.19.21-.29.62-.29-.02,0,.25,0,.81,0h5.59c4.42,0,7.54.3,9.38.9,2.23.72,4.04,2.15,5.41,4.28,1.37,2.13,2.06,4.58,2.06,7.35ZM1167.85,567.25c0-4-.8-6.93-2.39-8.79-1.6-1.87-4.08-2.8-7.47-2.8-1.64,0-2.64.17-2.98.5-.15.17-.22.75-.22,1.73v19.21c0,.67.02,1.08.06,1.23s.14.26.31.36c.59.29,1.83.43,3.72.43,2.65,0,4.78-.92,6.4-2.74,1.72-1.93,2.58-4.97,2.58-9.14Z"/>
    <path class="cls-4" d="M1187.96,575.83c0,.07-.02.48-.05,1.24-.03.76-.05,1.48-.05,2.17v.83c-1.68-.1-5.01-.15-9.99-.15h-3.22c-.33,0-.49-.07-.49-.2,0-.09.05-.14.15-.16.05,0,.38-.02.98-.07.45-.03.72-.13.81-.28.09-.15.14-.55.14-1.19v-14.21c0-.49-.07-.78-.22-.87-.15-.09-.61-.14-1.4-.14-.28,0-.41-.07-.41-.21s.19-.21.57-.21h10.92c.52,0,.99-.03,1.42-.1.03.72.11,1.72.23,3l.1,1.08c.02.08.03.19.03.33,0,.17-.08.25-.23.25-.19,0-.33-.21-.41-.63-.33-1.52-.86-2.49-1.6-2.89-.55-.3-1.99-.46-4.33-.46h-2.11v7.41h.62c1.92,0,3.1-.14,3.52-.43.42-.29.71-1.12.86-2.5.03-.35.13-.53.28-.53.19,0,.28.15.28.45s-.02.75-.05,1.34c-.04.59-.05,1.03-.05,1.33,0,1.8.03,3.03.08,3.71.01.17.02.31.02.43,0,.22-.09.33-.28.33-.12,0-.2-.07-.24-.21-.04-.14-.12-.61-.22-1.4-.14-.99-.56-1.6-1.26-1.84-.31-.1-1.11-.15-2.41-.15h-1.15v8.44c3.78,0,5.99-.07,6.65-.22,1.13-.25,1.78-1.31,1.93-3.19.03-.42.15-.62.33-.62.17,0,.26.18.26.53Z"/>
    <path class="cls-4" d="M1200.55,574.98c0,1.45-.56,2.68-1.69,3.69-1.12,1.02-2.48,1.53-4.06,1.53-.93,0-2.03-.28-3.32-.83-.34-.15-.6-.23-.77-.23-.21,0-.33.23-.39.7-.02.24-.13.36-.33.36-.17,0-.26-.1-.26-.3,0-.13,0-.24.03-.3.14-1.02.21-1.97.21-2.85,0-.17-.02-.64-.05-1.41-.02-.1-.03-.23-.03-.4,0-.25.1-.38.31-.38.17,0,.29.2.36.61.45,3.02,1.9,4.53,4.35,4.53,1.05,0,1.86-.29,2.43-.87.58-.58.86-1.4.86-2.46,0-.94-.28-1.74-.84-2.41-.56-.66-1.52-1.32-2.87-1.98-1.63-.79-2.76-1.55-3.4-2.29-.63-.74-.95-1.65-.95-2.75,0-1.39.46-2.54,1.38-3.45.92-.91,2.08-1.36,3.49-1.36.58,0,1.39.19,2.42.58.36.13.63.2.8.2.19,0,.31-.03.37-.1.06-.07.12-.24.17-.53.03-.17.13-.25.28-.25.17,0,.26.1.26.3,0,.13,0,.24-.03.3-.05.4-.08.89-.08,1.46,0,.81.04,1.45.13,1.92l.03.4c.02.19-.06.28-.23.28-.19,0-.32-.19-.39-.58-.19-.99-.64-1.82-1.34-2.48-.7-.66-1.49-1-2.37-1s-1.54.27-2.05.81c-.51.54-.76,1.27-.76,2.19,0,1.08.37,1.94,1.11,2.6.41.37,1.3.89,2.68,1.56,1.61.79,2.77,1.59,3.48,2.41.7.81,1.06,1.74,1.06,2.78Z"/>
    <path class="cls-4" d="M1208.74,579.68c0,.14-.1.21-.31.21h-.26c-.1-.05-1.28-.08-3.52-.08-.43,0-.86.02-1.29.05-.22.02-.57.03-1.03.03-.22,0-.34-.08-.34-.23,0-.13.22-.21.67-.23.69-.02,1.09-.1,1.21-.24.12-.14.18-.63.18-1.45v-13.29c0-.83-.04-1.29-.13-1.39-.1-.17-.58-.27-1.44-.3-.33-.01-.5-.07-.5-.18,0-.13.1-.2.31-.2h3.52c.26,0,.76,0,1.51.02l.99-.02c.28,0,.42.07.42.21,0,.13-.39.21-1.16.24-.44.02-.71.09-.8.23-.1.13-.15.49-.15,1.06v13.46c0,.96.04,1.48.13,1.56.19.18.76.29,1.7.33.19,0,.29.07.29.21Z"/>
    <path class="cls-4" d="M1227.08,574.61c0,.13-.21.19-.62.19-.93,0-1.44.13-1.54.4-.07.18-.1.91-.1,2.18v.8c-.89.74-1.74,1.25-2.55,1.56-.81.3-1.78.45-2.91.45-2.71,0-4.87-.79-6.46-2.38s-2.4-3.74-2.4-6.46.78-4.98,2.34-6.68c1.56-1.7,3.62-2.54,6.18-2.54,1.12,0,2.33.3,3.66.91.39.18.72.28.98.28.33,0,.54-.2.64-.6.08-.24.19-.35.31-.35.14,0,.21.08.21.23,0,.02-.02.18-.04.48-.11.99-.15,1.72-.13,2.19v1.36c.02.69,0,1.12-.03,1.29s-.13.25-.28.25-.24-.12-.26-.35c-.09-1.62-.57-2.9-1.44-3.83s-2.03-1.41-3.45-1.41c-1.79,0-3.2.78-4.24,2.34-1.04,1.56-1.56,3.69-1.56,6.38s.53,4.68,1.58,6.21c1.06,1.52,2.49,2.29,4.29,2.29,1.37,0,2.32-.39,2.83-1.17.26-.39.39-1.09.39-2.1,0-.84-.08-1.34-.25-1.49s-.73-.22-1.69-.2c-.24,0-.4-.01-.46-.03s-.1-.07-.1-.15c0-.17.19-.25.57-.25h.46c.38.02,1.32.02,2.83,0h2.73c.34,0,.51.08.51.24Z"/>
    <path class="cls-4" d="M1243.08,562.63c0,.17-.21.24-.64.23h-1.03c-.27,0-.44.05-.49.14s-.08.37-.08.84v14.49c0,.89,0,1.41-.03,1.56-.02.15-.07.23-.15.23-.1,0-.22-.09-.36-.28l-3.29-4.72c-1.91-2.74-4.23-6.16-6.96-10.26v14.07c.02.22.15.36.39.42.24.06.82.1,1.74.11.23,0,.34.07.34.2,0,.17-.22.25-.67.25-.15,0-.64-.03-1.47-.08-.27-.02-.54-.02-.8-.02.02,0-.13.02-.45.05s-.8.05-1.46.05h-.26c-.4,0-.59-.08-.59-.23s.17-.23.51-.23c1.01-.02,1.6-.08,1.76-.19.16-.11.24-.47.24-1.07v-12.44c0-1.4-.29-2.27-.88-2.62-.28-.17-.76-.25-1.47-.25-.45,0-.67-.09-.67-.27,0-.16.13-.24.39-.24.34,0,.78.02,1.31.05.53.03.82.05.85.05.05,0,.29,0,.72-.03.57,0,1.12-.03,1.65-.08l8.89,12.98v-11.21c0-.52,0-.84-.03-.95-.02-.11-.09-.19-.21-.25-.12-.06-.53-.09-1.24-.09-.62,0-.93-.08-.93-.23,0-.17.21-.25.62-.25h4.15c.38,0,.57.08.57.25Z"/>
    <path class="cls-4" d="M1257.89,575.83c0,.07-.02.48-.05,1.24-.03.76-.05,1.48-.05,2.17v.83c-1.68-.1-5.01-.15-9.99-.15h-3.22c-.33,0-.49-.07-.49-.2,0-.09.05-.14.15-.16.05,0,.38-.02.98-.07.45-.03.72-.13.81-.28.09-.15.14-.55.14-1.19v-14.21c0-.49-.07-.78-.22-.87-.15-.09-.61-.14-1.4-.14-.28,0-.41-.07-.41-.21s.19-.21.57-.21h10.92c.52,0,.99-.03,1.42-.1.03.72.11,1.72.23,3l.1,1.08c.02.08.03.19.03.33,0,.17-.08.25-.23.25-.19,0-.33-.21-.41-.63-.33-1.52-.86-2.49-1.6-2.89-.55-.3-1.99-.46-4.33-.46h-2.11v7.41h.62c1.92,0,3.1-.14,3.52-.43.42-.29.71-1.12.86-2.5.03-.35.13-.53.28-.53.19,0,.28.15.28.45s-.02.75-.05,1.34c-.04.59-.05,1.03-.05,1.33,0,1.8.03,3.03.08,3.71.01.17.02.31.02.43,0,.22-.09.33-.28.33-.12,0-.2-.07-.24-.21-.04-.14-.12-.61-.22-1.4-.14-.99-.56-1.6-1.26-1.84-.31-.1-1.11-.15-2.41-.15h-1.15v8.44c3.78,0,5.99-.07,6.65-.22,1.13-.25,1.78-1.31,1.93-3.19.03-.42.15-.62.33-.62.17,0,.26.18.26.53Z"/>
    <path class="cls-4" d="M1273.7,579.13c0,.71-.6,1.06-1.8,1.06-1.34,0-2.39-.55-3.14-1.64-.33-.47-.54-.92-.63-1.36-.09-.44-.24-1.55-.42-3.33-.1-1.08-.46-1.84-1.06-2.28-.6-.44-1.58-.68-2.94-.72v7.94c0,.34.27.55.82.63.16.02.55.03,1.19.05.22,0,.33.07.33.2,0,.15-.15.23-.44.23h-6.05c-.38,0-.57-.08-.57-.23,0-.12.25-.19.75-.2.81-.02,1.24-.12,1.31-.3.07-.08.1-.41.1-.98v-13.91c0-.67-.07-1.08-.22-1.21-.15-.13-.59-.21-1.33-.23-.43,0-.64-.08-.64-.23,0-.17.14-.25.41-.25.05,0,.13,0,.23.02l3.43.08c.34,0,.82-.01,1.44-.03.69-.04,1.17-.07,1.44-.07,1.6,0,2.86.35,3.8,1.05s1.4,1.64,1.4,2.83-.48,2.15-1.44,2.91c-.96.76-2.27,1.21-3.92,1.35-.15.02-.24.04-.26.08,0,.07.09.1.26.1,1.8.3,3.04.92,3.72,1.86.68.93,1.13,2.62,1.35,5.07.14,1.38.62,2.07,1.44,2.07.26,0,.39-.05.39-.15,0-.02,0-.03-.03-.05-.09-.18-.13-.34-.13-.45,0-.35.19-.53.57-.53.41,0,.62.21.62.63ZM1268.37,566.51c0-2.4-1.06-3.6-3.19-3.6-.57,0-.95.08-1.16.23s-.31.42-.31.81v6.4c1.65.02,2.84-.28,3.57-.88.73-.61,1.09-1.59,1.09-2.95Z"/>
    <path class="cls-4" d="M1093.57,624.97c0,2.33-1.02,4.14-3.05,5.44-1.28.82-2.89,1.22-4.86,1.22-.83,0-1.78-.08-2.83-.25v10.22c0,.55.02.9.07,1.04.12.34.39.54.81.61.71.1,1.4.14,2.06.14.27,0,.41.08.41.25,0,.24-.17.36-.52.36h-8.46c-.74,0-1.1-.12-1.1-.36,0-.17.26-.25.77-.25,1.15,0,1.82-.11,1.99-.32.2-.1.31-.34.33-.72v-21.27c0-.75-.21-1.2-.63-1.37-.25-.1-.67-.14-1.29-.14h-.62c-.37,0-.55-.1-.55-.29,0-.21.34-.32,1.03-.32h8.09c2.8,0,4.84.48,6.15,1.44,1.47,1.08,2.21,2.6,2.21,4.57ZM1089.7,625.01c0-3.62-1.54-5.44-4.64-5.44-1.03,0-1.71.17-2.02.51-.15.14-.22.52-.22,1.12v9.64c.2.02.42.04.66.04,1.62,0,2.99-.35,4.12-1.05,1.4-.87,2.1-2.48,2.1-4.82Z"/>
    <path class="cls-4" d="M1111.38,643.75c0,.15-.16.23-.49.23h-5.6c-.34,0-.51-.07-.51-.2s.4-.23,1.2-.28c.42-.03.67-.1.74-.21.07-.11.1-.5.1-1.17v-7.34h-7.75v7.13c0,.76.06,1.2.18,1.34.12.13.52.23,1.21.28.45.03.67.11.67.23,0,.15-.17.23-.51.23h-5.59c-.34,0-.51-.07-.51-.2s.17-.22.51-.25c.22-.02.46-.03.7-.05.38-.03.62-.12.72-.25.05-.08.08-.55.08-1.41v-13.29c0-.75-.04-1.2-.12-1.33s-.35-.21-.81-.23c-.53-.04-.85-.06-.94-.08-.09-.02-.14-.09-.14-.21,0-.14.11-.21.33-.21.07,0,.21,0,.44.02.43.03,1.44.05,3.04.05.88,0,1.49-.01,1.83-.04.12-.02.27-.04.46-.04.31,0,.46.08.46.25,0,.15-.28.23-.84.23s-.89.06-1,.19c-.11.13-.17.53-.17,1.2v5.81h7.75v-5.44c0-.89-.07-1.42-.21-1.58s-.62-.23-1.44-.21c-.26,0-.39-.08-.39-.23s.15-.23.44-.23h5.62c.36,0,.54.08.54.23s-.38.24-1.13.25c-.22,0-.39.02-.49.05-.17.05-.28.14-.32.28-.04.13-.06.53-.06,1.18v13.41c0,.81.04,1.28.13,1.41.17.19.66.28,1.47.28.27-.03.41.03.41.2Z"/>
    <path class="cls-4" d="M1129.59,635.34c0,2.5-.77,4.62-2.31,6.35s-3.42,2.6-5.65,2.6c-2.37,0-4.36-.88-5.98-2.63-1.61-1.75-2.42-3.92-2.42-6.49s.78-4.77,2.33-6.44c1.55-1.67,3.54-2.51,5.96-2.51,2.28,0,4.2.87,5.74,2.62,1.55,1.75,2.32,3.92,2.32,6.5ZM1126.71,635.46c0-3.08-.64-5.48-1.93-7.2-.81-1.08-1.93-1.62-3.38-1.62s-2.44.41-3.19,1.24c-1.39,1.52-2.09,3.99-2.09,7.41,0,2.71.49,4.82,1.46,6.32.97,1.5,2.33,2.25,4.08,2.25,1.63,0,2.86-.71,3.68-2.12.91-1.57,1.37-3.66,1.37-6.27Z"/>
    <path class="cls-4" d="M1145.38,630.98c0,.22-.1.33-.31.33s-.35-.22-.44-.66c-.04-.3-.07-.6-.1-.91-.12-.6-.32-1.12-.59-1.54-.36-.55-.95-.91-1.78-1.06-.53-.1-.96-.14-1.29-.13-.81.02-1.3.04-1.47.05v15.22c0,.61.16.98.49,1.14.17.08.65.13,1.44.15.21.02.31.09.31.21,0,.14-.14.21-.41.21-.14,0-.26,0-.36-.03-1.03-.03-1.76-.05-2.19-.05-.57,0-1.1.01-1.6.04-.5.03-1.13.04-1.91.04-.4,0-.59-.07-.59-.2,0-.15.37-.24,1.11-.25.53,0,.88-.11,1.03-.33.09-.13.13-.48.13-1.04v-15.12c-1.7.02-2.76.1-3.17.25-1.08.39-1.72,1.42-1.91,3.1-.05.5-.17.76-.36.76-.21,0-.31-.18-.31-.53,0-.18,0-.37.03-.55l.05-.58c.05-.77.13-1.79.23-3.05h1.16l5.25.08c.62.02,1.58.02,2.89,0l4.28-.08c.03.94.15,2.33.33,4.18,0,.05,0,.11.03.19.02.08.03.12.03.14Z"/>
    <path class="cls-4" d="M1163.23,635.34c0,2.5-.77,4.62-2.31,6.35s-3.42,2.6-5.65,2.6c-2.37,0-4.36-.88-5.98-2.63-1.61-1.75-2.42-3.92-2.42-6.49s.78-4.77,2.33-6.44c1.55-1.67,3.54-2.51,5.96-2.51,2.28,0,4.2.87,5.74,2.62,1.55,1.75,2.32,3.92,2.32,6.5ZM1160.34,635.46c0-3.08-.64-5.48-1.93-7.2-.81-1.08-1.93-1.62-3.38-1.62s-2.44.41-3.19,1.24c-1.39,1.52-2.09,3.99-2.09,7.41,0,2.71.49,4.82,1.46,6.32.97,1.5,2.33,2.25,4.08,2.25,1.63,0,2.86-.71,3.68-2.12.91-1.57,1.37-3.66,1.37-6.27Z"/>
    <path class="cls-4" d="M1182.01,638.7c0,.13-.21.19-.62.19-.93,0-1.44.13-1.54.4-.07.18-.1.91-.1,2.18v.8c-.89.74-1.74,1.25-2.55,1.56-.81.3-1.78.45-2.91.45-2.71,0-4.87-.79-6.46-2.38s-2.4-3.74-2.4-6.46.78-4.98,2.34-6.68c1.56-1.7,3.62-2.54,6.18-2.54,1.12,0,2.33.3,3.66.91.39.18.72.28.98.28.33,0,.54-.2.64-.6.08-.24.19-.35.31-.35.14,0,.21.08.21.23,0,.02-.02.18-.04.48-.11.99-.15,1.72-.13,2.19v1.36c.02.69,0,1.12-.03,1.29s-.13.25-.28.25-.24-.12-.26-.35c-.09-1.62-.57-2.9-1.44-3.83s-2.03-1.41-3.45-1.41c-1.79,0-3.2.78-4.24,2.34-1.04,1.56-1.56,3.69-1.56,6.38s.53,4.68,1.58,6.21c1.06,1.52,2.49,2.29,4.29,2.29,1.37,0,2.32-.39,2.83-1.17.26-.39.39-1.09.39-2.1,0-.84-.08-1.34-.25-1.49s-.73-.22-1.69-.2c-.24,0-.4-.01-.46-.03s-.1-.07-.1-.15c0-.17.19-.25.57-.25h.46c.38.02,1.32.02,2.83,0h2.73c.34,0,.51.08.51.24Z"/>
    <path class="cls-4" d="M1196.74,643.22c0,.71-.6,1.06-1.8,1.06-1.34,0-2.39-.55-3.14-1.64-.33-.47-.54-.92-.63-1.36-.09-.44-.24-1.55-.42-3.33-.1-1.08-.46-1.84-1.06-2.28-.6-.44-1.58-.68-2.94-.72v7.94c0,.34.27.55.82.63.16.02.55.03,1.19.05.22,0,.33.07.33.2,0,.15-.15.23-.44.23h-6.05c-.38,0-.57-.08-.57-.23,0-.12.25-.19.75-.2.81-.02,1.24-.12,1.31-.3.07-.08.1-.41.1-.98v-13.91c0-.67-.07-1.08-.22-1.21-.15-.13-.59-.21-1.33-.23-.43,0-.64-.08-.64-.23,0-.17.14-.25.41-.25.05,0,.13,0,.23.02l3.43.08c.34,0,.82-.01,1.44-.03.69-.04,1.17-.07,1.44-.07,1.6,0,2.86.35,3.8,1.05s1.4,1.64,1.4,2.83-.48,2.15-1.44,2.91c-.96.76-2.27,1.21-3.92,1.35-.15.02-.24.04-.26.08,0,.07.09.1.26.1,1.8.3,3.04.92,3.72,1.86.68.93,1.13,2.62,1.35,5.07.14,1.38.62,2.07,1.44,2.07.26,0,.39-.05.39-.15,0-.02,0-.03-.03-.05-.09-.18-.13-.34-.13-.45,0-.35.19-.53.57-.53.41,0,.62.21.62.63ZM1191.41,630.6c0-2.4-1.06-3.6-3.19-3.6-.57,0-.95.08-1.16.23s-.31.42-.31.81v6.4c1.65.02,2.84-.28,3.57-.88.73-.61,1.09-1.59,1.09-2.95Z"/>
    <path class="cls-4" d="M1213.25,643.82c0,.14-.13.22-.39.22-.17,0-.33,0-.46-.03l-3.27-.1-3.27.1c-.12.02-.25.03-.39.03-.34,0-.52-.09-.52-.26,0-.19.23-.29.7-.29,1.51-.02,2.27-.17,2.27-.44,0-.02-.02-.08-.05-.2l-.21-.67-.13-.35c-.16-.52-.53-1.67-1.13-3.46h-5.51c-1.03,2.69-1.54,4.23-1.54,4.64,0,.24.1.38.31.43.05.02.48.05,1.29.1.5.02.75.1.75.25,0,.17-.22.25-.67.25-.79,0-1.71-.03-2.76-.1-.26-.02-.52-.02-.8-.02s-.54.03-.8.08c-.14.03-.25.04-.33.04-.24,0-.36-.08-.36-.23s.27-.24.81-.25.93-.1,1.17-.24c.24-.14.43-.42.57-.82,2.21-6.2,4.01-11.18,5.39-14.94.04-.2.12-.42.24-.67l.11-.46c.05-.18.12-.28.21-.28.05,0,.09.05.13.15.22.66.73,2.02,1.52,4.11.62,1.63,2.15,5.72,4.61,12.27.14.38.31.62.53.73.21.1.66.16,1.33.18.45.02.67.1.67.24ZM1206.25,637.78c-.28-.75-.74-2-1.39-3.75l-1.24-3.49c-.72,1.86-1.58,4.27-2.59,7.24h5.21Z"/>
    <path class="cls-4" d="M1224.92,630.67c0,1.63-.71,2.9-2.14,3.81-.89.57-2.03.86-3.4.86-.58,0-1.25-.06-1.98-.18v7.16c0,.39.02.63.05.73.09.24.27.38.57.43.5.07.98.1,1.44.1.19,0,.28.06.28.18,0,.17-.12.25-.36.25h-5.92c-.52,0-.77-.08-.77-.25,0-.12.18-.18.54-.18.81,0,1.27-.08,1.39-.23.14-.07.21-.24.23-.5v-14.89c0-.52-.15-.84-.44-.96-.17-.07-.47-.1-.9-.1h-.44c-.26,0-.39-.07-.39-.2,0-.15.24-.23.72-.23h5.67c1.96,0,3.39.34,4.3,1.01,1.03.76,1.54,1.82,1.54,3.2ZM1222.21,630.7c0-2.54-1.08-3.8-3.25-3.8-.72,0-1.19.12-1.42.36-.1.1-.16.36-.16.79v6.75c.14.02.29.03.46.03,1.13,0,2.09-.25,2.88-.74.98-.61,1.47-1.73,1.47-3.37Z"/>
    <path class="cls-4" d="M1242.67,643.75c0,.15-.16.23-.49.23h-5.6c-.34,0-.51-.07-.51-.2s.4-.23,1.2-.28c.42-.03.67-.1.74-.21.07-.11.1-.5.1-1.17v-7.34h-7.75v7.13c0,.76.06,1.2.18,1.34.12.13.52.23,1.21.28.45.03.67.11.67.23,0,.15-.17.23-.51.23h-5.59c-.34,0-.51-.07-.51-.2s.17-.22.51-.25c.22-.02.46-.03.7-.05.38-.03.62-.12.72-.25.05-.08.08-.55.08-1.41v-13.29c0-.75-.04-1.2-.12-1.33s-.35-.21-.81-.23c-.53-.04-.85-.06-.94-.08-.09-.02-.14-.09-.14-.21,0-.14.11-.21.33-.21.07,0,.21,0,.44.02.43.03,1.44.05,3.04.05.88,0,1.49-.01,1.83-.04.12-.02.27-.04.46-.04.31,0,.46.08.46.25,0,.15-.28.23-.84.23s-.89.06-1,.19c-.11.13-.17.53-.17,1.2v5.81h7.75v-5.44c0-.89-.07-1.42-.21-1.58s-.62-.23-1.44-.21c-.26,0-.39-.08-.39-.23s.15-.23.44-.23h5.62c.36,0,.54.08.54.23s-.38.24-1.13.25c-.22,0-.39.02-.49.05-.17.05-.28.14-.32.28-.04.13-.06.53-.06,1.18v13.41c0,.81.04,1.28.13,1.41.17.19.66.28,1.47.28.27-.03.41.03.41.2Z"/>
    <path class="cls-4" d="M1257.89,639.92c0,.07-.02.48-.05,1.24-.03.76-.05,1.48-.05,2.17v.83c-1.68-.1-5.01-.15-9.99-.15h-3.22c-.33,0-.49-.07-.49-.2,0-.09.05-.14.15-.16.05,0,.38-.02.98-.07.45-.03.72-.13.81-.28.09-.15.14-.55.14-1.19v-14.21c0-.49-.07-.78-.22-.87-.15-.09-.61-.14-1.4-.14-.28,0-.41-.07-.41-.21s.19-.21.57-.21h10.92c.52,0,.99-.03,1.42-.1.03.72.11,1.72.23,3l.1,1.08c.02.08.03.19.03.33,0,.17-.08.25-.23.25-.19,0-.33-.21-.41-.63-.33-1.52-.86-2.49-1.6-2.89-.55-.3-1.99-.46-4.33-.46h-2.11v7.41h.62c1.92,0,3.1-.14,3.52-.43.42-.29.71-1.12.86-2.5.03-.35.13-.53.28-.53.19,0,.28.15.28.45s-.02.75-.05,1.34c-.04.59-.05,1.03-.05,1.33,0,1.8.03,3.03.08,3.71.01.17.02.31.02.43,0,.22-.09.33-.28.33-.12,0-.2-.07-.24-.21-.04-.14-.12-.61-.22-1.4-.14-.99-.56-1.6-1.26-1.84-.31-.1-1.11-.15-2.41-.15h-1.15v8.44c3.78,0,5.99-.07,6.65-.22,1.13-.25,1.78-1.31,1.93-3.19.03-.42.15-.62.33-.62.17,0,.26.18.26.53Z"/>
    <path class="cls-4" d="M1273.7,643.22c0,.71-.6,1.06-1.8,1.06-1.34,0-2.39-.55-3.14-1.64-.33-.47-.54-.92-.63-1.36-.09-.44-.24-1.55-.42-3.33-.1-1.08-.46-1.84-1.06-2.28-.6-.44-1.58-.68-2.94-.72v7.94c0,.34.27.55.82.63.16.02.55.03,1.19.05.22,0,.33.07.33.2,0,.15-.15.23-.44.23h-6.05c-.38,0-.57-.08-.57-.23,0-.12.25-.19.75-.2.81-.02,1.24-.12,1.31-.3.07-.08.1-.41.1-.98v-13.91c0-.67-.07-1.08-.22-1.21-.15-.13-.59-.21-1.33-.23-.43,0-.64-.08-.64-.23,0-.17.14-.25.41-.25.05,0,.13,0,.23.02l3.43.08c.34,0,.82-.01,1.44-.03.69-.04,1.17-.07,1.44-.07,1.6,0,2.86.35,3.8,1.05s1.4,1.64,1.4,2.83-.48,2.15-1.44,2.91c-.96.76-2.27,1.21-3.92,1.35-.15.02-.24.04-.26.08,0,.07.09.1.26.1,1.8.3,3.04.92,3.72,1.86.68.93,1.13,2.62,1.35,5.07.14,1.38.62,2.07,1.44,2.07.26,0,.39-.05.39-.15,0-.02,0-.03-.03-.05-.09-.18-.13-.34-.13-.45,0-.35.19-.53.57-.53.41,0,.62.21.62.63ZM1268.37,630.6c0-2.4-1.06-3.6-3.19-3.6-.57,0-.95.08-1.16.23s-.31.42-.31.81v6.4c1.65.02,2.84-.28,3.57-.88.73-.61,1.09-1.59,1.09-2.95Z"/>
  </g>
  <rect class="cls-2" x="1102.64" y="16.69" width="1366.53" height="769.79"/>
</svg>