<?xml version="1.0" encoding="utf-8"?>
<!-- Generator: Adobe Illustrator 28.2.0, SVG Export Plug-In . SVG Version: 6.00 Build 0)  -->
<svg version="1.1" id="Layer_1" xmlns="http://www.w3.org/2000/svg" xmlns:xlink="http://www.w3.org/1999/xlink" x="0px" y="0px"
	 viewBox="0 0 490 1189" enable-background="new 0 0 490 1189" xml:space="preserve">
<g>
	<rect x="-46" y="-28.78" fill="#E4D2BC" width="554.48" height="492.56"/>
</g>
<rect x="109" y="172" opacity="0.36" fill="#EE9C9B" width="420" height="908"/>
<rect x="-30" y="38.09" fill="#FFFFFF" width="589.95" height="71.66"/>
<rect x="143" y="486.67" fill="#FFFFFF" width="323.25" height="188.55"/>
<g>
	<g opacity="0.18">
		<path fill="#666667" d="M29.18,301.19l0.32-4.96c8.3,0,12.88-2.98,13.72-8.94l10.73-80.79c0-6.62-4.15-9.93-12.46-9.93l0.63-4.96
			h41.01l-0.63,4.96c-8.62,0-13.51,4.19-14.67,12.58L57.1,287.29c0,0.22-0.03,0.42-0.08,0.58c-0.05,0.17-0.08,0.36-0.08,0.58
			c0,3.86,2.84,5.8,8.52,5.8h6.47c4.31,0,8.04-0.19,11.2-0.58c3.16-0.38,6.05-1.46,8.68-3.22c2.63-1.76,5.07-4.52,7.33-8.26
			c2.26-3.75,4.71-8.98,7.33-15.7l3.79,0.66l-8.83,34.05H29.18z"/>
		<path fill="#666667" d="M109.34,301.19l0.44-3.47c6.18,0,9.68-2.66,10.49-8l7.18-53.89c0-2.62-0.74-4.6-2.21-5.91
			c-1.47-1.31-3.61-1.97-6.4-1.97l0.44-3.47h28.71l-0.44,3.47c-6.11,0-9.61,3.4-10.49,10.2l-7.07,51.57
			c-0.07,0.23-0.11,0.48-0.11,0.75c0,0.27,0,0.52,0,0.75c0,4.33,2.87,6.49,8.61,6.49l-0.33,3.47H109.34z"/>
		<path fill="#666667" d="M203.63,302.46l-35.22-65.14l-6.18,46.63c-0.22,1.54-0.33,2.85-0.33,3.93c0,6.56,2.91,9.83,8.72,9.83
			l-0.33,3.47h-23.96l0.44-3.47c5.59,0,9.02-4.6,10.27-13.79l6.84-51.11c0-1.62-0.68-2.84-2.04-3.65c-1.36-0.81-3.77-1.22-7.23-1.22
			l0.55-3.47h18.11l31.14,57.73l5.63-41.51c0.22-1.24,0.33-2.43,0.33-3.59c0-6.11-2.91-9.16-8.72-9.16l0.44-3.47h23.85l-0.55,3.47
			c-6.11,0-9.72,4.25-10.82,12.75l-8.28,60.95L203.63,302.46z"/>
		<path fill="#666667" d="M222.17,301.19l0.44-3.47c2.65,0,4.88-0.64,6.68-1.91c1.8-1.27,2.89-3.15,3.26-5.62l7.29-54.59
			c0-5.1-2.87-7.65-8.61-7.65l0.44-3.47h52.22l-2.21,21.64l-3.09,0.46c-0.07-4.24-0.55-7.52-1.43-9.83
			c-0.88-2.31-2.12-4.01-3.7-5.09c-1.58-1.08-3.46-1.72-5.63-1.91c-2.17-0.19-4.51-0.29-7.01-0.29h-2.65c-2.8,0-4.82,0.42-6.07,1.27
			c-1.25,0.85-1.99,2.16-2.21,3.93l-2.87,20.71c0,0.16-0.02,0.31-0.05,0.46c-0.04,0.16-0.06,0.31-0.06,0.46
			c0,1.7,0.66,2.55,1.99,2.55h3.42c1.69,0,3.26-0.1,4.69-0.29c1.44-0.19,2.76-0.69,3.97-1.5c1.21-0.81,2.28-2.04,3.2-3.7
			c0.92-1.66,1.67-3.91,2.26-6.77h3.75l-4.08,29.97h-3.64v-2.78c0-2.16-0.2-3.89-0.61-5.21c-0.41-1.31-1.05-2.31-1.93-3.01
			c-0.88-0.69-2.01-1.16-3.37-1.39c-1.36-0.23-3-0.35-4.91-0.35h-1.1c-3.17,0-4.9,1.27-5.19,3.82l-2.98,22.1
			c-0.07,0.31-0.11,0.69-0.11,1.16c0,3.63,2.43,5.44,7.29,5.44h2.98c4.2,0,7.62-0.37,10.27-1.1c2.65-0.73,4.88-1.89,6.68-3.47
			c1.8-1.58,3.33-3.57,4.58-5.96c1.25-2.39,2.61-5.21,4.08-8.45l2.54,0.93l-5.63,22.91H222.17z"/>
		<path fill="#666667" d="M293.94,301.19l0.33-3.47c3.24,0,5.91-0.89,8-2.66c2.1-1.77,3.4-4.43,3.92-7.98l7.4-53.34
			c0-1.46-0.29-2.55-0.88-3.24c-0.59-0.69-1.77-1.04-3.53-1.04c-8.61,0-15.05,6.59-19.32,19.78l-2.87-0.93l5.96-24.64
			c1.47,0.23,2.89,0.42,4.25,0.58c1.36,0.16,2.67,0.23,3.92,0.23h38.2c1.4,0,2.85-0.08,4.36-0.23c1.51-0.15,3.04-0.35,4.58-0.58
			l-3.31,24.18l-2.87,0.46c0.07-0.54,0.11-1.06,0.11-1.56c0-0.5,0-0.98,0-1.45c0-10.34-4.49-15.5-13.47-15.5
			c-3.24,0-5.04,1.31-5.41,3.93l-7.18,53.34c-0.07,0.39-0.13,0.77-0.17,1.16c-0.04,0.39-0.06,0.77-0.06,1.16
			c0,5.55,3.13,8.33,9.38,8.33l-0.33,3.47H293.94z"/>
		<path fill="#666667" d="M372,301.19l0.22-3.47c0.96-0.15,1.97-0.31,3.04-0.46c1.07-0.15,2.06-0.35,2.98-0.58
			c0.92-0.23,1.67-0.52,2.26-0.87c0.59-0.35,0.88-0.75,0.88-1.21c0-0.39-0.02-0.81-0.05-1.27c-0.04-0.46-0.13-1.19-0.28-2.2
			l-2.43-14.23c-0.22-1-0.92-1.75-2.1-2.26c-1.18-0.5-2.39-0.75-3.64-0.75H358.2c-2.58,0-4.27,1-5.08,2.99l-5.08,11.97
			c-0.15,0.46-0.31,1.02-0.5,1.67c-0.18,0.65-0.28,1.36-0.28,2.13c0,2.99,2.69,4.49,8.06,4.49l-0.44,4.05h-22.3l0.66-4.05
			c1.91-0.15,3.59-0.92,5.02-2.31c1.44-1.38,2.82-3.39,4.14-6.01l32.9-66.08l2.76,1.39l14.24,68.62c0.29,1.93,0.99,3.12,2.1,3.58
			c1.1,0.46,2.83,0.89,5.19,1.27l-0.33,3.59H372z M371.56,239.06l-11.92,24.3c-0.59,1-1.01,1.85-1.27,2.55
			c-0.26,0.69-0.39,1.27-0.39,1.74c0,0.93,1.14,1.39,3.42,1.39h12.48c2.13,0,3.2-0.54,3.2-1.62c0-0.39-0.06-0.87-0.17-1.45
			s-0.24-1.29-0.39-2.14L371.56,239.06z"/>
		<path fill="#666667" d="M24.29,452.18l-0.16-3.8l66.4-97.52c-2-0.44-4-0.74-5.99-0.91c-2-0.17-3.94-0.25-5.84-0.25h-6.47
			c-4.73,0-8.67,0.44-11.83,1.32c-3.15,0.88-5.86,2.29-8.12,4.21c-2.26,1.93-4.23,4.46-5.92,7.6c-1.68,3.14-3.37,6.92-5.05,11.32
			h-4.26l7.1-32.73c1.79,0.33,3.55,0.61,5.28,0.83c1.74,0.22,3.5,0.33,5.28,0.33h54.1l-0.63,5.12l-65.77,96.86
			c1.58,0.44,3.15,0.74,4.73,0.91s3.05,0.25,4.42,0.25h10.88c4.84,0,9.12-1.05,12.86-3.14c3.73-2.09,6.99-4.63,9.78-7.6
			c2.79-2.98,5.1-6.06,6.94-9.26c1.84-3.19,3.34-5.95,4.5-8.26l4.26,1.32l-8.2,33.39H24.29z"/>
		<path fill="#666667" d="M102.87,452.18l0.44-3.47c6.18,0,9.68-2.67,10.49-8l7.18-53.89c0-2.62-0.74-4.6-2.21-5.91
			c-1.47-1.31-3.61-1.97-6.4-1.97l0.44-3.47h28.71l-0.44,3.47c-6.11,0-9.61,3.4-10.49,10.2l-7.07,51.57
			c-0.07,0.23-0.11,0.48-0.11,0.75c0,0.27,0,0.52,0,0.75c0,4.33,2.87,6.49,8.61,6.49l-0.33,3.47H102.87z"/>
		<path fill="#666667" d="M186.23,411.22c4.71,0.85,8.46,2.62,11.26,5.32c2.8,2.7,4.2,6.25,4.2,10.64c0,4.78-0.77,8.79-2.32,12.03
			c-1.55,3.24-3.59,5.84-6.13,7.81c-2.54,1.97-5.39,3.39-8.56,4.28c-3.17,0.89-6.37,1.33-9.61,1.33c-2.8,0-5.5-0.02-8.12-0.06
			c-2.61-0.04-5.28-0.1-8-0.17c-2.72-0.08-5.5-0.14-8.34-0.17c-2.83-0.04-5.87-0.06-9.11-0.06l0.44-3.47
			c6.18,0,9.61-2.16,10.27-6.48l7.51-56.58c0-4.4-2.91-6.59-8.72-6.59l0.44-3.59h28.71c3.16,0,6.13,0.27,8.89,0.81
			c2.76,0.54,5.13,1.43,7.12,2.66c1.99,1.23,3.55,2.8,4.69,4.69c1.14,1.89,1.71,4.22,1.71,7c0,3.01-0.42,5.61-1.27,7.81
			c-0.85,2.2-2.03,4.09-3.53,5.67c-1.51,1.58-3.24,2.89-5.19,3.93c-1.95,1.04-4.03,1.95-6.24,2.72L186.23,411.22z M172.65,448.24
			c2.43,0,4.75-0.37,6.96-1.1c2.21-0.73,4.16-1.93,5.85-3.59c1.69-1.66,3.05-3.82,4.09-6.48c1.03-2.66,1.55-5.88,1.55-9.66
			c0-2.7-0.44-4.9-1.33-6.59c-0.88-1.7-2.14-3.03-3.75-3.99c-1.62-0.96-3.61-1.62-5.96-1.97c-2.36-0.35-4.97-0.52-7.84-0.52h-3.53
			c-1.91,0-3.09,1.47-3.53,4.4l-3.31,24.99c0,0.16-0.02,0.25-0.06,0.29c-0.04,0.04-0.05,0.14-0.05,0.29c0,2.62,2.21,3.93,6.62,3.93
			H172.65z M177.4,379.98c-4.56,0-7.07,1.43-7.51,4.28l-3.09,22.33c0,1.08,0.17,1.89,0.5,2.43c0.33,0.54,1.01,0.81,2.04,0.81
			c4.78,0,8.68-0.35,11.7-1.04c3.02-0.69,5.39-1.79,7.12-3.3s2.91-3.45,3.53-5.84c0.62-2.39,0.94-5.28,0.94-8.68
			c0-7.33-3.75-10.99-11.26-10.99H177.4z"/>
		<path fill="#666667" d="M208.86,452.18l0.44-3.47c2.65,0,4.88-0.64,6.68-1.91c1.8-1.27,2.89-3.15,3.26-5.62l7.29-54.59
			c0-5.1-2.87-7.65-8.61-7.65l0.44-3.47h52.22l-2.21,21.64l-3.09,0.46c-0.07-4.24-0.55-7.52-1.43-9.83
			c-0.88-2.31-2.12-4.01-3.7-5.09c-1.58-1.08-3.46-1.72-5.63-1.91c-2.17-0.19-4.51-0.29-7.01-0.29h-2.65c-2.8,0-4.82,0.42-6.07,1.27
			c-1.25,0.85-1.99,2.16-2.21,3.93l-2.87,20.71c0,0.16-0.02,0.31-0.05,0.46c-0.04,0.16-0.06,0.31-0.06,0.46
			c0,1.7,0.66,2.54,1.99,2.54H239c1.69,0,3.26-0.1,4.69-0.29c1.44-0.19,2.76-0.69,3.97-1.5c1.21-0.81,2.28-2.04,3.2-3.7
			c0.92-1.66,1.67-3.91,2.26-6.77h3.75l-4.08,29.97h-3.64v-2.78c0-2.16-0.2-3.89-0.61-5.21c-0.41-1.31-1.05-2.31-1.93-3.01
			c-0.88-0.69-2.01-1.16-3.37-1.39c-1.36-0.23-3-0.35-4.91-0.35h-1.1c-3.17,0-4.9,1.27-5.19,3.82l-2.98,22.1
			c-0.07,0.31-0.11,0.69-0.11,1.16c0,3.63,2.43,5.44,7.29,5.44h2.98c4.2,0,7.62-0.37,10.27-1.1c2.65-0.73,4.88-1.89,6.68-3.47
			c1.8-1.58,3.33-3.57,4.58-5.96c1.25-2.39,2.61-5.21,4.08-8.45l2.54,0.92l-5.63,22.91H208.86z"/>
		<path fill="#666667" d="M336.05,442.11c-0.07,0.93-0.39,2.04-0.94,3.36c-0.55,1.31-1.27,2.55-2.15,3.7
			c-0.88,1.16-1.93,2.16-3.15,3.01c-1.21,0.85-2.52,1.27-3.92,1.27c-3.98,0-6.83-0.79-8.56-2.37c-1.73-1.58-2.85-4.14-3.37-7.69
			c-0.44-2.93-0.81-6.07-1.1-9.43c-0.29-3.36-0.79-6.44-1.49-9.26c-0.7-2.82-1.71-5.17-3.04-7.06c-1.33-1.89-3.17-2.83-5.52-2.83
			h-3.09c-1.84,0-2.91,0.42-3.2,1.27l-3.53,25.11c-0.07,0.31-0.11,0.73-0.11,1.27c0,4.17,2.76,6.25,8.28,6.25l-0.33,3.47H272.9
			l0.44-3.47c2.43,0,4.53-0.64,6.29-1.91s2.83-3.14,3.2-5.61l7.62-56.12c0-4.01-2.83-6.02-8.5-6.02l0.44-3.59h12.37
			c2.21,0,4.08-0.02,5.63-0.06c1.55-0.04,3.04-0.1,4.47-0.17c1.44-0.08,2.94-0.13,4.53-0.17c1.58-0.04,3.55-0.06,5.91-0.06
			c2.65,0,5.08,0.41,7.29,1.21c2.21,0.81,4.12,1.95,5.74,3.41c1.62,1.47,2.87,3.2,3.75,5.21c0.88,2.01,1.33,4.17,1.33,6.48
			c0,3.09-0.54,5.82-1.6,8.21c-1.07,2.39-2.5,4.49-4.31,6.31c-1.8,1.81-3.94,3.3-6.4,4.45c-2.47,1.16-5.1,2.08-7.89,2.78v0.35
			c3.09,1.78,5.46,3.99,7.12,6.65s2.67,5.23,3.04,7.69c0.22,1.54,0.44,3.4,0.66,5.55c0.22,2.16,0.57,4.21,1.05,6.13
			c0.48,1.93,1.08,3.57,1.82,4.92c0.74,1.35,1.73,2.02,2.98,2.02c1.47,0,2.83-1.74,4.08-5.21L336.05,442.11z M304.81,410.29
			c1.99,0,4.03-0.19,6.13-0.58c2.1-0.39,4.03-1.23,5.8-2.55c1.77-1.31,3.2-3.16,4.31-5.55c1.1-2.39,1.66-5.63,1.66-9.72
			c0-2.31-0.39-4.24-1.16-5.79c-0.77-1.54-1.77-2.78-2.98-3.7c-1.21-0.93-2.59-1.56-4.14-1.91c-1.54-0.35-3.05-0.52-4.53-0.52h-4.75
			c-1.62,0-2.72,0.54-3.31,1.62c-0.59,1.08-1.03,2.7-1.33,4.86l-2.87,22.1c0,1.16,0.62,1.74,1.88,1.74H304.81z"/>
		<path fill="#666667" d="M394.02,453.45c-1.33-1.31-2.52-2.47-3.59-3.47c-1.07-1-1.97-1.89-2.71-2.66c-2.58,2.01-5.5,3.61-8.78,4.8
			c-3.28,1.19-6.57,1.79-9.88,1.79c-4.05,0-7.69-0.79-10.93-2.37c-3.24-1.58-6-3.8-8.28-6.65c-2.28-2.85-4.03-6.19-5.25-10.01
			c-1.21-3.82-1.82-8-1.82-12.55c0-5.86,0.99-11.7,2.98-17.53c1.99-5.82,4.73-11.03,8.23-15.62c3.5-4.59,7.56-8.31,12.2-11.17
			c4.64-2.85,9.61-4.28,14.91-4.28c2.8,0,5.43,0.58,7.89,1.74c2.47,1.16,4.84,2.51,7.12,4.05c2.65-2.78,5.26-4.4,7.84-4.86
			c0.66,3.01,0.99,6.59,0.99,10.76c0,2.24-0.11,4.67-0.33,7.29c-0.22,2.62-0.52,5.4-0.88,8.33h-3.42c-0.22-3.39-0.79-6.48-1.71-9.26
			c-0.92-2.78-2.17-5.17-3.75-7.17c-1.58-2-3.48-3.57-5.69-4.69c-2.21-1.12-4.75-1.68-7.62-1.68c-4.64,0-8.67,1.35-12.09,4.05
			c-3.42,2.7-6.26,6.19-8.5,10.47c-2.25,4.28-3.94,9.04-5.08,14.29c-1.14,5.25-1.71,10.45-1.71,15.62c0,3.78,0.35,7.29,1.05,10.53
			c0.7,3.24,1.78,6.04,3.26,8.39c1.47,2.35,3.31,4.21,5.52,5.55c2.21,1.35,4.86,2.03,7.95,2.03c2.28,0,4.51-0.35,6.68-1.04
			c2.17-0.69,4.1-1.81,5.8-3.36c1.69-1.54,3.07-3.55,4.14-6.02c1.07-2.47,1.6-5.44,1.6-8.91c0-6.02-2.91-9.02-8.72-9.02l0.44-3.47
			h28.49l-0.55,3.47c-3.31,0-5.71,0.75-7.18,2.26c-1.47,1.5-2.39,3.68-2.76,6.54l-3.2,23.83H394.02z"/>
		<path fill="#666667" d="M444.58,452.18l0.22-3.47c0.96-0.15,1.97-0.31,3.04-0.46c1.07-0.15,2.06-0.35,2.98-0.58
			c0.92-0.23,1.67-0.52,2.26-0.87c0.59-0.35,0.88-0.75,0.88-1.21c0-0.39-0.02-0.81-0.05-1.27c-0.04-0.46-0.13-1.2-0.28-2.2
			l-2.43-14.23c-0.22-1-0.92-1.75-2.1-2.26c-1.18-0.5-2.39-0.75-3.64-0.75h-14.68c-2.58,0-4.27,1-5.08,2.99l-5.08,11.97
			c-0.15,0.46-0.31,1.02-0.5,1.67c-0.18,0.65-0.28,1.36-0.28,2.13c0,2.99,2.69,4.49,8.06,4.49l-0.44,4.05h-22.3l0.66-4.05
			c1.91-0.15,3.59-0.92,5.02-2.31c1.44-1.38,2.82-3.39,4.14-6.01l32.9-66.08l2.76,1.39l14.24,68.62c0.29,1.93,0.99,3.12,2.1,3.58
			c1.1,0.46,2.83,0.89,5.19,1.27l-0.33,3.59H444.58z M444.14,390.05l-11.92,24.3c-0.59,1-1.01,1.85-1.27,2.54
			c-0.26,0.69-0.39,1.27-0.39,1.74c0,0.92,1.14,1.39,3.42,1.39h12.48c2.13,0,3.2-0.54,3.2-1.62c0-0.39-0.06-0.87-0.17-1.45
			c-0.11-0.58-0.24-1.29-0.39-2.14L444.14,390.05z"/>
	</g>
	<g>
		<path fill="#F2F2F2" d="M37,302.33l0.32-4.96c8.3,0,12.88-2.98,13.72-8.94l10.73-80.79c0-6.62-4.15-9.93-12.46-9.93l0.63-4.96
			h41.01l-0.63,4.96c-8.62,0-13.51,4.19-14.67,12.58l-10.73,78.15c0,0.22-0.03,0.42-0.08,0.58c-0.05,0.17-0.08,0.36-0.08,0.58
			c0,3.86,2.84,5.8,8.52,5.8h6.47c4.31,0,8.04-0.19,11.2-0.58c3.16-0.38,6.05-1.46,8.68-3.22c2.63-1.76,5.07-4.52,7.33-8.26
			c2.26-3.75,4.71-8.98,7.33-15.7l3.79,0.66l-8.83,34.05H37z"/>
		<path fill="#F2F2F2" d="M117.15,302.33l0.44-3.47c6.18,0,9.68-2.66,10.49-8l7.18-53.89c0-2.62-0.74-4.6-2.21-5.91
			c-1.47-1.31-3.61-1.97-6.4-1.97l0.44-3.47h28.71l-0.44,3.47c-6.11,0-9.61,3.4-10.49,10.2l-7.07,51.57
			c-0.07,0.23-0.11,0.48-0.11,0.75c0,0.27,0,0.52,0,0.75c0,4.33,2.87,6.49,8.61,6.49l-0.33,3.47H117.15z"/>
		<path fill="#F2F2F2" d="M211.44,303.6l-35.22-65.14l-6.18,46.63c-0.22,1.54-0.33,2.85-0.33,3.93c0,6.56,2.91,9.83,8.72,9.83
			l-0.33,3.47h-23.96l0.44-3.47c5.59,0,9.02-4.6,10.27-13.79l6.84-51.11c0-1.62-0.68-2.84-2.04-3.65c-1.36-0.81-3.77-1.22-7.23-1.22
			l0.55-3.47h18.11l31.14,57.73l5.63-41.51c0.22-1.24,0.33-2.43,0.33-3.59c0-6.11-2.91-9.16-8.72-9.16l0.44-3.47h23.85l-0.55,3.47
			c-6.11,0-9.72,4.25-10.82,12.75l-8.28,60.95L211.44,303.6z"/>
		<path fill="#F2F2F2" d="M229.99,302.33l0.44-3.47c2.65,0,4.88-0.64,6.68-1.91c1.8-1.27,2.89-3.15,3.26-5.62l7.29-54.59
			c0-5.1-2.87-7.65-8.61-7.65l0.44-3.47h52.22l-2.21,21.64l-3.09,0.46c-0.07-4.24-0.55-7.52-1.43-9.83
			c-0.88-2.31-2.12-4.01-3.7-5.09c-1.58-1.08-3.46-1.72-5.63-1.91c-2.17-0.19-4.51-0.29-7.01-0.29h-2.65c-2.8,0-4.82,0.42-6.07,1.27
			c-1.25,0.85-1.99,2.16-2.21,3.93l-2.87,20.71c0,0.16-0.02,0.31-0.05,0.46c-0.04,0.16-0.06,0.31-0.06,0.46
			c0,1.7,0.66,2.55,1.99,2.55h3.42c1.69,0,3.26-0.1,4.69-0.29c1.44-0.19,2.76-0.69,3.97-1.5c1.21-0.81,2.28-2.04,3.2-3.7
			c0.92-1.66,1.67-3.91,2.26-6.77h3.75l-4.08,29.97h-3.64v-2.78c0-2.16-0.2-3.89-0.61-5.21c-0.41-1.31-1.05-2.31-1.93-3.01
			c-0.88-0.69-2.01-1.16-3.37-1.39c-1.36-0.23-3-0.35-4.91-0.35h-1.1c-3.17,0-4.9,1.27-5.19,3.82l-2.98,22.1
			c-0.07,0.31-0.11,0.69-0.11,1.16c0,3.63,2.43,5.44,7.29,5.44h2.98c4.2,0,7.62-0.37,10.27-1.1c2.65-0.73,4.88-1.89,6.68-3.47
			c1.8-1.58,3.33-3.57,4.58-5.96c1.25-2.39,2.61-5.21,4.08-8.45l2.54,0.93l-5.63,22.91H229.99z"/>
		<path fill="#F2F2F2" d="M301.75,302.33l0.33-3.47c3.24,0,5.91-0.89,8-2.66c2.1-1.77,3.4-4.43,3.92-7.98l7.4-53.34
			c0-1.46-0.29-2.55-0.88-3.24c-0.59-0.69-1.77-1.04-3.53-1.04c-8.61,0-15.05,6.59-19.32,19.78l-2.87-0.93l5.96-24.64
			c1.47,0.23,2.89,0.42,4.25,0.58c1.36,0.16,2.67,0.23,3.92,0.23h38.2c1.4,0,2.85-0.08,4.36-0.23c1.51-0.15,3.04-0.35,4.58-0.58
			l-3.31,24.18l-2.87,0.46c0.07-0.54,0.11-1.06,0.11-1.56c0-0.5,0-0.98,0-1.45c0-10.34-4.49-15.5-13.47-15.5
			c-3.24,0-5.04,1.31-5.41,3.93l-7.18,53.34c-0.07,0.39-0.13,0.77-0.17,1.16c-0.04,0.39-0.06,0.77-0.06,1.16
			c0,5.55,3.13,8.33,9.38,8.33l-0.33,3.47H301.75z"/>
		<path fill="#F2F2F2" d="M379.82,302.33l0.22-3.47c0.96-0.15,1.97-0.31,3.04-0.46c1.07-0.15,2.06-0.35,2.98-0.58
			c0.92-0.23,1.67-0.52,2.26-0.87c0.59-0.35,0.88-0.75,0.88-1.21c0-0.39-0.02-0.81-0.05-1.27c-0.04-0.46-0.13-1.19-0.28-2.2
			l-2.43-14.23c-0.22-1-0.92-1.75-2.1-2.26c-1.18-0.5-2.39-0.75-3.64-0.75h-14.68c-2.58,0-4.27,1-5.08,2.99l-5.08,11.97
			c-0.15,0.46-0.31,1.02-0.5,1.67c-0.18,0.65-0.28,1.36-0.28,2.13c0,2.99,2.69,4.49,8.06,4.49l-0.44,4.05h-22.3l0.66-4.05
			c1.91-0.15,3.59-0.92,5.02-2.31c1.44-1.38,2.82-3.39,4.14-6.01l32.9-66.08l2.76,1.39l14.24,68.62c0.29,1.93,0.99,3.12,2.1,3.58
			c1.1,0.46,2.83,0.89,5.19,1.27l-0.33,3.59H379.82z M379.37,240.2l-11.92,24.3c-0.59,1-1.01,1.85-1.27,2.55
			c-0.26,0.69-0.39,1.27-0.39,1.74c0,0.93,1.14,1.39,3.42,1.39h12.48c2.13,0,3.2-0.54,3.2-1.62c0-0.39-0.06-0.87-0.17-1.45
			s-0.24-1.29-0.39-2.14L379.37,240.2z"/>
		<path fill="#F2F2F2" d="M32.11,453.32l-0.16-3.8L98.35,352c-2-0.44-4-0.74-5.99-0.91c-2-0.17-3.94-0.25-5.84-0.25h-6.47
			c-4.73,0-8.67,0.44-11.83,1.32c-3.15,0.88-5.86,2.29-8.12,4.21c-2.26,1.93-4.23,4.46-5.92,7.6c-1.68,3.14-3.37,6.92-5.05,11.32
			h-4.26l7.1-32.73c1.79,0.33,3.55,0.61,5.28,0.83c1.74,0.22,3.5,0.33,5.28,0.33h54.1l-0.63,5.12l-65.77,96.86
			c1.58,0.44,3.15,0.74,4.73,0.91s3.05,0.25,4.42,0.25h10.88c4.84,0,9.12-1.05,12.86-3.14c3.73-2.09,6.99-4.63,9.78-7.6
			c2.79-2.98,5.1-6.06,6.94-9.26c1.84-3.19,3.34-5.95,4.5-8.26l4.26,1.32l-8.2,33.39H32.11z"/>
		<path fill="#F2F2F2" d="M110.69,453.32l0.44-3.47c6.18,0,9.68-2.67,10.49-8l7.18-53.89c0-2.62-0.74-4.6-2.21-5.91
			c-1.47-1.31-3.61-1.97-6.4-1.97l0.44-3.47h28.71l-0.44,3.47c-6.11,0-9.61,3.4-10.49,10.2l-7.07,51.57
			c-0.07,0.23-0.11,0.48-0.11,0.75c0,0.27,0,0.52,0,0.75c0,4.33,2.87,6.49,8.61,6.49l-0.33,3.47H110.69z"/>
		<path fill="#F2F2F2" d="M194.04,412.36c4.71,0.85,8.46,2.62,11.26,5.32c2.8,2.7,4.2,6.25,4.2,10.64c0,4.78-0.77,8.79-2.32,12.03
			c-1.55,3.24-3.59,5.84-6.13,7.81c-2.54,1.97-5.39,3.39-8.56,4.28c-3.17,0.89-6.37,1.33-9.61,1.33c-2.8,0-5.5-0.02-8.12-0.06
			c-2.61-0.04-5.28-0.1-8-0.17c-2.72-0.08-5.5-0.14-8.34-0.17c-2.83-0.04-5.87-0.06-9.11-0.06l0.44-3.47
			c6.18,0,9.61-2.16,10.27-6.48l7.51-56.58c0-4.4-2.91-6.59-8.72-6.59l0.44-3.59h28.71c3.16,0,6.13,0.27,8.89,0.81
			c2.76,0.54,5.13,1.43,7.12,2.66c1.99,1.23,3.55,2.8,4.69,4.69c1.14,1.89,1.71,4.22,1.71,7c0,3.01-0.42,5.61-1.27,7.81
			c-0.85,2.2-2.03,4.09-3.53,5.67c-1.51,1.58-3.24,2.89-5.19,3.93c-1.95,1.04-4.03,1.95-6.24,2.72L194.04,412.36z M180.46,449.39
			c2.43,0,4.75-0.37,6.96-1.1c2.21-0.73,4.16-1.93,5.85-3.59c1.69-1.66,3.05-3.82,4.09-6.48c1.03-2.66,1.55-5.88,1.55-9.66
			c0-2.7-0.44-4.9-1.33-6.59c-0.88-1.7-2.14-3.03-3.75-3.99c-1.62-0.96-3.61-1.62-5.96-1.97c-2.36-0.35-4.97-0.52-7.84-0.52h-3.53
			c-1.91,0-3.09,1.47-3.53,4.4l-3.31,24.99c0,0.16-0.02,0.25-0.06,0.29c-0.04,0.04-0.05,0.14-0.05,0.29c0,2.62,2.21,3.93,6.62,3.93
			H180.46z M185.21,381.12c-4.56,0-7.07,1.43-7.51,4.28l-3.09,22.33c0,1.08,0.17,1.89,0.5,2.43c0.33,0.54,1.01,0.81,2.04,0.81
			c4.78,0,8.68-0.35,11.7-1.04c3.02-0.69,5.39-1.79,7.12-3.3s2.91-3.45,3.53-5.84c0.62-2.39,0.94-5.28,0.94-8.68
			c0-7.33-3.75-10.99-11.26-10.99H185.21z"/>
		<path fill="#F2F2F2" d="M216.68,453.32l0.44-3.47c2.65,0,4.88-0.64,6.68-1.91c1.8-1.27,2.89-3.15,3.26-5.62l7.29-54.59
			c0-5.1-2.87-7.65-8.61-7.65l0.44-3.47h52.22l-2.21,21.64l-3.09,0.46c-0.07-4.24-0.55-7.52-1.43-9.83
			c-0.88-2.31-2.12-4.01-3.7-5.09c-1.58-1.08-3.46-1.72-5.63-1.91c-2.17-0.19-4.51-0.29-7.01-0.29h-2.65c-2.8,0-4.82,0.42-6.07,1.27
			c-1.25,0.85-1.99,2.16-2.21,3.93l-2.87,20.71c0,0.16-0.02,0.31-0.05,0.46c-0.04,0.16-0.06,0.31-0.06,0.46
			c0,1.7,0.66,2.54,1.99,2.54h3.42c1.69,0,3.26-0.1,4.69-0.29c1.44-0.19,2.76-0.69,3.97-1.5c1.21-0.81,2.28-2.04,3.2-3.7
			c0.92-1.66,1.67-3.91,2.26-6.77h3.75l-4.08,29.97h-3.64v-2.78c0-2.16-0.2-3.89-0.61-5.21c-0.41-1.31-1.05-2.31-1.93-3.01
			c-0.88-0.69-2.01-1.16-3.37-1.39c-1.36-0.23-3-0.35-4.91-0.35h-1.1c-3.17,0-4.9,1.27-5.19,3.82l-2.98,22.1
			c-0.07,0.31-0.11,0.69-0.11,1.16c0,3.63,2.43,5.44,7.29,5.44h2.98c4.2,0,7.62-0.37,10.27-1.1c2.65-0.73,4.88-1.89,6.68-3.47
			c1.8-1.58,3.33-3.57,4.58-5.96c1.25-2.39,2.61-5.21,4.08-8.45l2.54,0.92l-5.63,22.91H216.68z"/>
		<path fill="#F2F2F2" d="M343.87,443.25c-0.07,0.93-0.39,2.04-0.94,3.36c-0.55,1.31-1.27,2.55-2.15,3.7
			c-0.88,1.16-1.93,2.16-3.15,3.01c-1.21,0.85-2.52,1.27-3.92,1.27c-3.98,0-6.83-0.79-8.56-2.37c-1.73-1.58-2.85-4.14-3.37-7.69
			c-0.44-2.93-0.81-6.07-1.1-9.43c-0.29-3.36-0.79-6.44-1.49-9.26c-0.7-2.82-1.71-5.17-3.04-7.06c-1.33-1.89-3.17-2.83-5.52-2.83
			h-3.09c-1.84,0-2.91,0.42-3.2,1.27l-3.53,25.11c-0.07,0.31-0.11,0.73-0.11,1.27c0,4.17,2.76,6.25,8.28,6.25l-0.33,3.47h-27.93
			l0.44-3.47c2.43,0,4.53-0.64,6.29-1.91s2.83-3.14,3.2-5.61l7.62-56.12c0-4.01-2.83-6.02-8.5-6.02l0.44-3.59h12.37
			c2.21,0,4.08-0.02,5.63-0.06c1.55-0.04,3.04-0.1,4.47-0.17c1.44-0.08,2.94-0.13,4.53-0.17c1.58-0.04,3.55-0.06,5.91-0.06
			c2.65,0,5.08,0.41,7.29,1.21c2.21,0.81,4.12,1.95,5.74,3.41c1.62,1.47,2.87,3.2,3.75,5.21c0.88,2.01,1.33,4.17,1.33,6.48
			c0,3.09-0.54,5.82-1.6,8.21c-1.07,2.39-2.5,4.49-4.31,6.31c-1.8,1.81-3.94,3.3-6.4,4.45c-2.47,1.16-5.1,2.08-7.89,2.78v0.35
			c3.09,1.78,5.46,3.99,7.12,6.65s2.67,5.23,3.04,7.69c0.22,1.54,0.44,3.4,0.66,5.55c0.22,2.16,0.57,4.21,1.05,6.13
			c0.48,1.93,1.08,3.57,1.82,4.92c0.74,1.35,1.73,2.02,2.98,2.02c1.47,0,2.83-1.74,4.08-5.21L343.87,443.25z M312.62,411.44
			c1.99,0,4.03-0.19,6.13-0.58c2.1-0.39,4.03-1.23,5.8-2.55c1.77-1.31,3.2-3.16,4.31-5.55c1.1-2.39,1.66-5.63,1.66-9.72
			c0-2.31-0.39-4.24-1.16-5.79c-0.77-1.54-1.77-2.78-2.98-3.7c-1.21-0.93-2.59-1.56-4.14-1.91c-1.54-0.35-3.05-0.52-4.53-0.52h-4.75
			c-1.62,0-2.72,0.54-3.31,1.62c-0.59,1.08-1.03,2.7-1.33,4.86l-2.87,22.1c0,1.16,0.62,1.74,1.88,1.74H312.62z"/>
		<path fill="#F2F2F2" d="M401.83,454.59c-1.33-1.31-2.52-2.47-3.59-3.47c-1.07-1-1.97-1.89-2.71-2.66c-2.58,2.01-5.5,3.61-8.78,4.8
			c-3.28,1.19-6.57,1.79-9.88,1.79c-4.05,0-7.69-0.79-10.93-2.37c-3.24-1.58-6-3.8-8.28-6.65c-2.28-2.85-4.03-6.19-5.25-10.01
			c-1.21-3.82-1.82-8-1.82-12.55c0-5.86,0.99-11.7,2.98-17.53c1.99-5.82,4.73-11.03,8.23-15.62c3.5-4.59,7.56-8.31,12.2-11.17
			c4.64-2.85,9.61-4.28,14.91-4.28c2.8,0,5.43,0.58,7.89,1.74c2.47,1.16,4.84,2.51,7.12,4.05c2.65-2.78,5.26-4.4,7.84-4.86
			c0.66,3.01,0.99,6.59,0.99,10.76c0,2.24-0.11,4.67-0.33,7.29c-0.22,2.62-0.52,5.4-0.88,8.33h-3.42c-0.22-3.39-0.79-6.48-1.71-9.26
			c-0.92-2.78-2.17-5.17-3.75-7.17c-1.58-2-3.48-3.57-5.69-4.69c-2.21-1.12-4.75-1.68-7.62-1.68c-4.64,0-8.67,1.35-12.09,4.05
			c-3.42,2.7-6.26,6.19-8.5,10.47c-2.25,4.28-3.94,9.04-5.08,14.29c-1.14,5.25-1.71,10.45-1.71,15.62c0,3.78,0.35,7.29,1.05,10.53
			c0.7,3.24,1.78,6.04,3.26,8.39c1.47,2.35,3.31,4.21,5.52,5.55c2.21,1.35,4.86,2.03,7.95,2.03c2.28,0,4.51-0.35,6.68-1.04
			c2.17-0.69,4.1-1.81,5.8-3.36c1.69-1.54,3.07-3.55,4.14-6.02c1.07-2.47,1.6-5.44,1.6-8.91c0-6.02-2.91-9.02-8.72-9.02l0.44-3.47
			h28.49l-0.55,3.47c-3.31,0-5.71,0.75-7.18,2.26c-1.47,1.5-2.39,3.68-2.76,6.54l-3.2,23.83H401.83z"/>
		<path fill="#F2F2F2" d="M452.4,453.32l0.22-3.47c0.96-0.15,1.97-0.31,3.04-0.46c1.07-0.15,2.06-0.35,2.98-0.58
			c0.92-0.23,1.67-0.52,2.26-0.87c0.59-0.35,0.88-0.75,0.88-1.21c0-0.39-0.02-0.81-0.05-1.27c-0.04-0.46-0.13-1.2-0.28-2.2
			l-2.43-14.23c-0.22-1-0.92-1.75-2.1-2.26c-1.18-0.5-2.39-0.75-3.64-0.75H438.6c-2.58,0-4.27,1-5.08,2.99l-5.08,11.97
			c-0.15,0.46-0.31,1.02-0.5,1.67c-0.18,0.65-0.28,1.36-0.28,2.13c0,2.99,2.69,4.49,8.06,4.49l-0.44,4.05h-22.3l0.66-4.05
			c1.91-0.15,3.59-0.92,5.02-2.31c1.44-1.38,2.82-3.39,4.14-6.01l32.9-66.08l2.76,1.39l14.24,68.62c0.29,1.93,0.99,3.12,2.1,3.58
			c1.1,0.46,2.83,0.89,5.19,1.27l-0.33,3.59H452.4z M451.96,391.19l-11.92,24.3c-0.59,1-1.01,1.85-1.27,2.54
			c-0.26,0.69-0.39,1.27-0.39,1.74c0,0.92,1.14,1.39,3.42,1.39h12.48c2.13,0,3.2-0.54,3.2-1.62c0-0.39-0.06-0.87-0.17-1.45
			c-0.11-0.58-0.24-1.29-0.39-2.14L451.96,391.19z"/>
	</g>
</g>
<g>
	<rect x="407.91" y="583.27" fill="none" width="2.08" height="0"/>
</g>
<rect x="293.25" y="51.23" fill="#FFFFFF" width="106" height="47"/>
<rect x="-875.28" y="10.69" fill="none" width="1366.53" height="769.79"/>
<rect x="82.25" y="51.23" fill="#FFFFFF" width="126" height="47"/>
<g>
	<path fill="#4D4E4E" d="M116.39,79.67c0,0.1-0.02,0.68-0.06,1.76c-0.04,1.08-0.06,2.11-0.06,3.1v1.19
		c-2.05-0.14-6.1-0.22-12.17-0.22c-0.73,0-1.45,0-2.16,0c-0.71,0-1.19,0-1.44,0h-0.31c-0.4,0-0.6-0.1-0.6-0.29
		c0-0.13,0.06-0.2,0.19-0.23c0.06,0,0.46-0.03,1.19-0.1c0.54-0.05,0.87-0.18,0.99-0.4c0.11-0.22,0.17-0.78,0.17-1.7V62.5
		c0-0.7-0.09-1.11-0.27-1.25c-0.18-0.13-0.75-0.2-1.71-0.2c-0.33,0-0.5-0.1-0.5-0.31c0-0.2,0.23-0.31,0.69-0.31h5.36
		c0.19,0,1.37,0,3.54,0s3.64,0,4.39,0c0.63,0,1.2-0.05,1.72-0.14c0.04,1.03,0.14,2.46,0.28,4.28l0.12,1.55
		c0.02,0.12,0.03,0.28,0.03,0.47c0,0.24-0.09,0.36-0.28,0.36c-0.23,0-0.4-0.3-0.5-0.91c-0.4-2.17-1.05-3.55-1.94-4.13
		c-0.67-0.43-2.42-0.65-5.27-0.65h-2.57v10.58h0.75c2.34,0,3.77-0.2,4.28-0.61c0.51-0.41,0.86-1.6,1.05-3.56
		c0.04-0.5,0.16-0.76,0.34-0.76c0.23,0,0.34,0.22,0.34,0.65s-0.02,1.07-0.06,1.91c-0.04,0.84-0.06,1.48-0.06,1.91
		c0,2.57,0.03,4.33,0.1,5.29c0.02,0.24,0.02,0.44,0.02,0.61c0,0.31-0.11,0.47-0.34,0.47c-0.15,0-0.25-0.1-0.3-0.31
		s-0.14-0.87-0.26-2c-0.17-1.42-0.68-2.29-1.53-2.63c-0.38-0.14-1.35-0.22-2.93-0.22h-1.4v12.06c4.6,0,7.29-0.11,8.09-0.32
		c1.38-0.36,2.16-1.87,2.35-4.55c0.04-0.59,0.18-0.89,0.41-0.89C116.28,78.91,116.39,79.16,116.39,79.67z"/>
	<path fill="#4D4E4E" d="M131.15,85.24c0,0.15-0.21,0.23-0.61,0.23c-0.5,0-1.01,0-1.53,0c-0.52,0-1.03,0-1.53,0
		c-0.64,0-1.39,0-2.24,0c-0.42,0-0.74,0-0.94,0c-0.42,0-0.64-0.08-0.64-0.24c0-0.15,0.17-0.21,0.5-0.19h0.99
		c0.35,0.02,0.56,0.01,0.64-0.03c0.22-0.05,0.33-0.21,0.33-0.48c0-0.25-0.19-0.8-0.57-1.65l-2.34-5.45l-2.76,5.36
		c-0.48,0.96-0.72,1.53-0.72,1.7c0,0.31,0.24,0.49,0.72,0.54c-0.03,0,0.3,0,0.99,0c0.26,0,0.39,0.08,0.39,0.23
		c0,0.14-0.11,0.2-0.33,0.2h-2.48h-1.87c-0.23,0-0.35-0.08-0.35-0.23c0-0.15,0.19-0.25,0.57-0.3c0.26-0.03,0.53-0.07,0.79-0.1
		c0.22-0.07,0.4-0.18,0.55-0.33c0.28-0.29,1.18-1.93,2.7-4.94c0.56-1.11,1.06-2.08,1.5-2.9l-2.49-5.4c-0.52-1.1-0.87-1.82-1.07-2.15
		c-0.2-0.33-0.41-0.54-0.63-0.64c-0.24-0.05-0.7-0.08-1.39-0.08c-0.18,0-0.27-0.07-0.27-0.2c0-0.18,0.12-0.28,0.35-0.28
		c0.32,0,0.99,0.02,2,0.05c0.5,0.02,0.84,0.03,1.03,0.03c1.71,0,2.66-0.03,2.83-0.08h0.31c0.31,0,0.46,0.07,0.46,0.2
		c0,0.19-0.26,0.28-0.77,0.28c-0.96-0.02-1.44,0.12-1.44,0.4c0,0.3,0.83,2.28,2.48,5.92c0.59-1.01,1.25-2.21,1.96-3.6
		c0.71-1.39,1.07-2.17,1.07-2.34c0-0.25-0.4-0.38-1.21-0.38c-0.39,0-0.59-0.08-0.59-0.23c0-0.17,0.14-0.25,0.42-0.25
		c0.19,0,0.47,0.01,0.83,0.04c0.37,0.03,0.64,0.04,0.83,0.04c0.07,0,0.41-0.01,1.02-0.04c0.61-0.02,0.96-0.04,1.06-0.04h0.2
		c0.25,0,0.37,0.07,0.37,0.21c0,0.14-0.1,0.21-0.29,0.21c-0.03,0-0.26,0.01-0.7,0.03c-0.5,0.02-0.84,0.12-1.02,0.3
		c-0.18,0.19-0.49,0.73-0.93,1.62c-0.57,1.18-1.4,2.74-2.5,4.68l-0.24,0.43c0.1,0.22,1.09,2.43,2.96,6.63
		c0.64,1.45,1.1,2.31,1.38,2.58c0.28,0.28,0.83,0.41,1.65,0.39C130.97,85.01,131.15,85.09,131.15,85.24z"/>
	<path fill="#4D4E4E" d="M141.66,72.16c0,1.63-0.61,2.9-1.82,3.81c-0.76,0.57-1.73,0.86-2.9,0.86c-0.5,0-1.06-0.06-1.69-0.18v7.16
		c0,0.39,0.01,0.63,0.04,0.73c0.07,0.24,0.23,0.38,0.48,0.43c0.42,0.07,0.83,0.1,1.23,0.1c0.16,0,0.24,0.06,0.24,0.18
		c0,0.17-0.1,0.25-0.31,0.25c-0.09,0-0.16,0-0.22,0c-0.8,0-2.32,0-4.54,0h-0.29c-0.44,0-0.66-0.08-0.66-0.25
		c0-0.12,0.15-0.18,0.46-0.18c0.69,0,1.08-0.08,1.18-0.23c0.12-0.07,0.18-0.24,0.2-0.5V69.44c0-0.52-0.12-0.84-0.37-0.96
		c-0.15-0.07-0.4-0.1-0.77-0.1h-0.22c-0.04,0-0.09,0-0.15,0c-0.22,0-0.33-0.07-0.33-0.2c0-0.15,0.21-0.23,0.61-0.23h4.83
		c1.67,0,2.89,0.34,3.67,1.01C141.22,69.71,141.66,70.78,141.66,72.16z M139.36,72.18c0-2.54-0.92-3.8-2.77-3.8
		c-0.61,0-1.02,0.12-1.21,0.35c-0.09,0.1-0.13,0.36-0.13,0.79v6.75c0.12,0.02,0.25,0.03,0.39,0.03c0.97,0,1.79-0.24,2.46-0.74
		C138.94,74.95,139.36,73.82,139.36,72.18z"/>
	<path fill="#4D4E4E" d="M153.95,83.47c0,0.44-0.02,1.16-0.07,2.17h-0.24c-0.09,0-0.3-0.02-0.63-0.05s-0.72-0.05-1.14-0.05
		l-9.11-0.08c-0.25,0-0.37-0.08-0.37-0.23c0-0.12,0.2-0.19,0.59-0.23c0.56-0.03,0.89-0.1,1-0.21c0.11-0.11,0.17-0.42,0.17-0.94
		V69.69c0-0.62-0.06-0.98-0.17-1.08c-0.11-0.1-0.5-0.15-1.17-0.15c-0.28,0-0.42-0.09-0.42-0.28c0-0.15,0.09-0.23,0.26-0.23h0.2
		c0.48,0.05,1.44,0.08,2.88,0.08c0.13,0,0.39-0.01,0.77-0.04c0.38-0.03,0.7-0.04,0.94-0.04h0.24c0.26,0,0.39,0.08,0.39,0.25
		c0,0.1-0.04,0.16-0.12,0.19c-0.08,0.03-0.33,0.05-0.76,0.06c-0.42,0.02-0.68,0.1-0.76,0.24c-0.08,0.14-0.12,0.58-0.12,1.32v14.87
		c0.39,0.02,0.94,0.03,1.65,0.03c1.71,0,2.92-0.1,3.62-0.3s1.18-0.58,1.43-1.13c0.25-0.55,0.4-1.3,0.44-2.24
		c0.01-0.22,0.1-0.33,0.25-0.33c0.18,0,0.27,0.13,0.25,0.38v0.63c0,0.03,0,0.11,0,0.23s0,0.24,0,0.35V83.47z"/>
	<path fill="#4D4E4E" d="M169.05,76.82c0,2.5-0.66,4.62-1.96,6.35c-1.31,1.73-2.92,2.6-4.82,2.6c-2.02,0-3.72-0.88-5.09-2.63
		c-1.38-1.76-2.06-3.92-2.06-6.49c0-2.62,0.66-4.77,1.99-6.44c1.32-1.67,3.02-2.51,5.08-2.51c1.95,0,3.58,0.87,4.89,2.62
		C168.39,72.07,169.05,74.23,169.05,76.82z M166.59,76.95c0-3.08-0.55-5.48-1.65-7.2c-0.69-1.08-1.65-1.62-2.88-1.62
		c-1.17,0-2.08,0.41-2.72,1.24c-1.19,1.52-1.78,3.98-1.78,7.41c0,2.71,0.41,4.82,1.24,6.32s1.99,2.25,3.48,2.25
		c1.39,0,2.44-0.71,3.14-2.12C166.2,81.65,166.59,79.56,166.59,76.95z"/>
	<path fill="#4D4E4E" d="M183.01,84.71c0,0.71-0.51,1.06-1.54,1.06c-1.14,0-2.03-0.55-2.68-1.64c-0.28-0.47-0.46-0.92-0.54-1.36
		c-0.08-0.44-0.2-1.55-0.36-3.33c-0.09-1.07-0.39-1.83-0.9-2.28c-0.51-0.45-1.35-0.68-2.5-0.72v7.94c0,0.34,0.23,0.55,0.7,0.63
		c0.13,0.02,0.47,0.03,1.01,0.05c0.19,0,0.29,0.07,0.29,0.2c0,0.15-0.12,0.23-0.37,0.23h-0.26c-0.13,0-0.77,0-1.91,0
		c-0.22,0-0.59,0-1.12,0c-0.51,0-0.85,0-1.01,0h-0.86c-0.32,0-0.48-0.08-0.48-0.23c0-0.12,0.21-0.18,0.64-0.2
		c0.69-0.02,1.06-0.12,1.12-0.3c0.06-0.08,0.09-0.41,0.09-0.98V69.86c0-0.67-0.06-1.08-0.19-1.21c-0.12-0.13-0.5-0.21-1.13-0.23
		c-0.37,0-0.55-0.08-0.55-0.23c0-0.17,0.12-0.25,0.35-0.25c0.04,0,0.11,0.01,0.2,0.03l2.92,0.08c0.29,0,0.7-0.01,1.23-0.03
		c0.58-0.04,0.99-0.07,1.23-0.07c1.36,0,2.44,0.35,3.24,1.05c0.8,0.7,1.2,1.64,1.2,2.83c0,1.18-0.41,2.15-1.23,2.91
		c-0.82,0.76-1.93,1.21-3.34,1.35c-0.13,0.02-0.21,0.04-0.22,0.08c0,0.07,0.07,0.1,0.22,0.1c1.54,0.3,2.59,0.92,3.17,1.86
		c0.58,0.94,0.96,2.62,1.15,5.07c0.12,1.38,0.53,2.07,1.23,2.07c0.22,0,0.33-0.05,0.33-0.15c0-0.02-0.01-0.03-0.02-0.05
		c-0.07-0.18-0.11-0.34-0.11-0.45c0-0.35,0.16-0.53,0.48-0.53C182.83,84.08,183.01,84.29,183.01,84.71z M178.46,72.08
		c0-2.4-0.91-3.6-2.72-3.6c-0.48,0-0.81,0.08-0.99,0.23c-0.18,0.15-0.26,0.42-0.26,0.81v6.4c1.4,0.02,2.42-0.28,3.04-0.88
		C178.15,74.43,178.46,73.44,178.46,72.08z"/>
	<path fill="#4D4E4E" d="M195.21,81.41c0,0.07-0.01,0.48-0.04,1.23c-0.03,0.76-0.04,1.48-0.04,2.17v0.83
		c-1.43-0.1-4.27-0.15-8.51-0.15c-0.51,0-1.02,0-1.51,0c-0.5,0-0.83,0-1.01,0h-0.22c-0.28,0-0.42-0.07-0.42-0.2
		c0-0.09,0.04-0.14,0.13-0.16c0.04,0,0.32-0.02,0.83-0.07c0.38-0.03,0.61-0.13,0.69-0.28s0.12-0.55,0.12-1.19V69.39
		c0-0.49-0.06-0.78-0.19-0.87c-0.12-0.09-0.52-0.14-1.2-0.14c-0.23,0-0.35-0.07-0.35-0.21c0-0.14,0.16-0.21,0.48-0.21h3.75
		c0.13,0,0.96,0,2.48,0s2.55,0,3.07,0c0.44,0,0.84-0.03,1.21-0.1c0.03,0.72,0.09,1.72,0.2,3l0.09,1.08
		c0.01,0.08,0.02,0.19,0.02,0.33c0,0.17-0.07,0.25-0.2,0.25c-0.16,0-0.28-0.21-0.35-0.63c-0.28-1.52-0.73-2.49-1.36-2.89
		c-0.47-0.3-1.7-0.46-3.69-0.46h-1.8v7.41h0.53c1.64,0,2.64-0.14,3-0.43c0.36-0.29,0.6-1.12,0.73-2.49
		c0.03-0.35,0.11-0.53,0.24-0.53c0.16,0,0.24,0.15,0.24,0.45s-0.01,0.75-0.04,1.34c-0.03,0.59-0.04,1.03-0.04,1.34
		c0,1.8,0.02,3.03,0.07,3.7c0.01,0.17,0.02,0.31,0.02,0.43c0,0.22-0.08,0.33-0.24,0.33c-0.1,0-0.17-0.07-0.21-0.21
		c-0.04-0.14-0.1-0.61-0.19-1.4c-0.12-0.99-0.47-1.6-1.07-1.84c-0.26-0.1-0.95-0.15-2.05-0.15h-0.98v8.44
		c3.22,0,5.11-0.07,5.66-0.22c0.97-0.25,1.51-1.31,1.65-3.19c0.03-0.41,0.12-0.62,0.29-0.62C195.14,80.88,195.21,81.05,195.21,81.41
		z"/>
</g>
<g>
	<path fill="#4D4E4E" d="M330.38,87.85c0,0.21-0.16,0.31-0.47,0.31c-0.21,0-0.4-0.01-0.56-0.04l-3.98-0.15l-3.98,0.14
		c-0.15,0.02-0.3,0.04-0.47,0.04c-0.42,0-0.63-0.13-0.63-0.38c0-0.28,0.28-0.42,0.85-0.42c1.84-0.02,2.76-0.23,2.76-0.63
		c0-0.02-0.02-0.12-0.06-0.28l-0.26-0.95l-0.16-0.5c-0.19-0.75-0.65-2.39-1.38-4.94l-6.7-0.01c-1.26,3.84-1.88,6.05-1.89,6.62
		c0,0.34,0.13,0.54,0.38,0.61c0.06,0.02,0.58,0.07,1.57,0.15c0.61,0.02,0.91,0.15,0.91,0.36c0,0.24-0.27,0.36-0.82,0.36
		c-0.96,0-2.08-0.05-3.35-0.15c-0.31-0.02-0.64-0.04-0.97-0.04c-0.33,0-0.66,0.04-0.97,0.12c-0.17,0.04-0.3,0.06-0.41,0.06
		c-0.29,0-0.44-0.11-0.44-0.33s0.33-0.34,0.99-0.36c0.66-0.02,1.13-0.14,1.43-0.34c0.29-0.2,0.52-0.6,0.69-1.17
		c2.7-8.86,4.89-15.97,6.59-21.34c0.05-0.28,0.14-0.6,0.29-0.96l0.13-0.66c0.06-0.26,0.15-0.4,0.25-0.4c0.06,0,0.12,0.07,0.16,0.22
		c0.27,0.94,0.89,2.89,1.84,5.87c0.75,2.33,2.62,8.17,5.6,17.54c0.17,0.54,0.38,0.89,0.64,1.04c0.26,0.15,0.8,0.24,1.62,0.26
		C330.11,87.53,330.38,87.64,330.38,87.85z M321.87,79.22c-0.34-1.08-0.9-2.86-1.68-5.35l-1.5-4.99c-0.88,2.65-1.93,6.1-3.16,10.34
		L321.87,79.22z"/>
	<path fill="#4D4E4E" d="M340.5,83.5c0,1.71-0.68,2.98-2.04,3.8c-0.66,0.4-1.6,0.65-2.83,0.75c-0.34,0.02-1.33,0.02-2.99,0.02
		l-2.68,0c-0.25,0-0.37-0.07-0.37-0.21c0-0.14,0.23-0.21,0.68-0.21c0.53,0,0.84-0.06,0.93-0.19s0.14-0.51,0.14-1.15l0.01-13.63
		c0-0.74-0.03-1.17-0.09-1.29c-0.1-0.2-0.47-0.31-1.12-0.33c-0.39,0-0.59-0.09-0.59-0.27c0-0.16,0.18-0.24,0.55-0.24
		c0.01,0,0.1,0,0.26,0c0.16,0.05,0.31,0.08,0.44,0.08l4.28,0c1.58,0.02,2.76,0.32,3.53,0.91c0.91,0.69,1.36,1.69,1.36,3
		c0,1.14-0.38,2.08-1.12,2.81s-1.79,1.19-3.14,1.37l0,0.15c1.33,0.1,2.37,0.42,3.12,0.96C339.95,80.66,340.5,81.88,340.5,83.5z
		 M338.2,83.23c0-2.12-0.74-3.43-2.23-3.93c-0.44-0.15-1.25-0.23-2.44-0.23l-0.01,7.51c0,0.49,0.04,0.76,0.13,0.83
		c0.15,0.12,0.56,0.18,1.23,0.18c1.01,0,1.82-0.37,2.42-1.11C337.89,85.74,338.2,84.65,338.2,83.23z M337.57,74.81
		c0-1.61-0.32-2.69-0.96-3.23c-0.34-0.29-0.97-0.43-1.91-0.43c-0.25,0-0.64,0.02-1.16,0.07l-0.01,7.31h0.2l1.21-0.05
		c0.83-0.03,1.48-0.37,1.94-1.02C337.33,76.82,337.57,75.93,337.57,74.81z"/>
	<path fill="#4D4E4E" d="M356.39,79.46c0,2.5-0.66,4.62-1.97,6.35c-1.31,1.73-2.92,2.59-4.82,2.59c-2.02,0-3.72-0.88-5.09-2.64
		s-2.06-3.92-2.06-6.49c0-2.62,0.67-4.77,1.99-6.44c1.33-1.67,3.02-2.5,5.08-2.5c1.95,0,3.58,0.88,4.89,2.63
		S356.39,76.88,356.39,79.46z M353.94,79.59c0-3.08-0.54-5.49-1.64-7.21c-0.69-1.08-1.64-1.62-2.87-1.62
		c-1.17,0-2.08,0.41-2.72,1.24c-1.19,1.52-1.78,3.98-1.79,7.4c0,2.71,0.41,4.82,1.23,6.32c0.83,1.5,1.98,2.25,3.48,2.25
		c1.39,0,2.44-0.71,3.14-2.12C353.54,84.29,353.93,82.2,353.94,79.59z"/>
	<path fill="#4D4E4E" d="M371.74,70.86c0,0.14-0.13,0.2-0.39,0.2c-0.04,0-0.19,0-0.44,0c-0.07,0-0.18,0-0.31,0
		c-0.37,0-0.59,0.11-0.66,0.33c-0.03,0.12-0.04,0.31-0.04,0.58l-0.01,9.44c0,2.45-0.4,4.23-1.2,5.35s-2.08,1.67-3.85,1.67
		c-2.12,0-3.61-0.69-4.47-2.07c-0.57-0.92-0.85-2.45-0.85-4.56l0.01-10.1c-0.04-0.3-0.22-0.49-0.53-0.56
		c-0.09-0.02-0.36-0.02-0.82-0.03c-0.25-0.03-0.38-0.12-0.38-0.25c0-0.15,0.1-0.23,0.31-0.23l0.39,0c0.07,0,0.24,0,0.5,0
		c0.23,0,0.45,0,0.64,0l3.14,0c0.07,0,0.16,0,0.26,0c0.25,0,0.37,0.09,0.37,0.28c0,0.12-0.04,0.18-0.13,0.2
		c-0.09,0.02-0.38,0.03-0.88,0.05c-0.21,0-0.34,0.02-0.42,0.05c-0.15,0.07-0.23,0.18-0.24,0.35c-0.01,0.07-0.02,0.54-0.02,1.43
		l-0.01,9c0,2.21,0.3,3.72,0.92,4.52c0.62,0.8,1.53,1.21,2.74,1.21c2.22,0,3.48-1.44,3.78-4.34c0.04-0.43,0.07-2.27,0.07-5.52
		l0-1.43l0-2.01l0-1.73c0-0.17,0-0.35,0-0.55c0-0.22,0-0.31,0-0.28c0-0.37-0.15-0.59-0.46-0.68c-0.1-0.03-0.4-0.05-0.9-0.05
		c-0.29,0-0.44-0.09-0.44-0.28c0-0.15,0.1-0.23,0.31-0.23c0.12,0,0.21,0,0.29,0c0.18,0,0.82,0,1.92,0c0.16,0,0.35,0,0.55,0
		c0.19,0,0.33,0,0.42,0h0.33C371.57,70.63,371.74,70.71,371.74,70.86z"/>
	<path fill="#4D4E4E" d="M384.47,75.13c0,0.22-0.09,0.33-0.26,0.33c-0.18,0-0.3-0.22-0.37-0.65c-0.03-0.3-0.06-0.6-0.09-0.91
		c-0.1-0.6-0.27-1.12-0.5-1.54c-0.31-0.55-0.81-0.91-1.51-1.06c-0.45-0.1-0.82-0.14-1.1-0.13c-0.69,0.02-1.11,0.04-1.25,0.05
		l-0.01,15.22c0,0.61,0.14,0.98,0.42,1.14c0.14,0.08,0.55,0.14,1.23,0.15c0.18,0.02,0.26,0.09,0.26,0.21c0,0.14-0.12,0.21-0.35,0.21
		c-0.12,0-0.22-0.01-0.31-0.03c-0.88-0.03-1.5-0.05-1.87-0.05c-0.48,0-0.94,0.01-1.36,0.04c-0.43,0.02-0.97,0.04-1.62,0.04
		c-0.34,0-0.5-0.07-0.5-0.2c0-0.15,0.31-0.24,0.94-0.25c0.45,0,0.75-0.11,0.88-0.33c0.07-0.13,0.11-0.48,0.11-1.03l0.01-15.12
		c-1.45,0.02-2.35,0.1-2.7,0.25c-0.92,0.39-1.46,1.42-1.63,3.1c-0.04,0.5-0.15,0.76-0.31,0.76c-0.18,0-0.26-0.18-0.26-0.53
		c0-0.19,0.01-0.37,0.02-0.55l0.04-0.58c0.04-0.77,0.11-1.79,0.2-3.05l0.99,0l4.48,0.08c0.53,0.02,1.35,0.02,2.46,0l3.64-0.07
		c0.03,0.94,0.12,2.34,0.28,4.18c0,0.05,0.01,0.11,0.02,0.19C384.46,75.06,384.47,75.11,384.47,75.13z"/>
</g>
<g>
	<path fill="#4D4E4E" d="M232.47,549.58c0,0.18-0.29,0.27-0.88,0.27c-1.33,0-2.06,0.19-2.21,0.57c-0.1,0.26-0.15,1.3-0.15,3.12v1.15
		c-1.28,1.05-2.49,1.79-3.64,2.22c-1.15,0.43-2.54,0.64-4.16,0.64c-3.88,0-6.95-1.13-9.24-3.4c-2.28-2.27-3.42-5.35-3.42-9.23
		c0-3.94,1.12-7.12,3.35-9.54c2.23-2.42,5.18-3.64,8.83-3.64c1.59,0,3.34,0.43,5.23,1.3c0.56,0.26,1.03,0.4,1.4,0.4
		c0.46,0,0.77-0.29,0.92-0.86c0.12-0.34,0.27-0.5,0.44-0.5c0.2,0,0.29,0.11,0.29,0.32c0,0.02-0.02,0.25-0.06,0.68
		c-0.15,1.42-0.22,2.46-0.19,3.13v1.94c0.02,0.98,0.01,1.6-0.04,1.84c-0.05,0.24-0.18,0.36-0.41,0.36s-0.34-0.17-0.37-0.51
		c-0.12-2.31-0.81-4.14-2.06-5.48c-1.25-1.34-2.89-2.01-4.93-2.01c-2.55,0-4.57,1.11-6.05,3.34s-2.23,5.27-2.23,9.12
		c0,3.73,0.75,6.69,2.26,8.86s3.55,3.27,6.13,3.27c1.96,0,3.31-0.55,4.05-1.67c0.37-0.55,0.55-1.56,0.55-3
		c0-1.21-0.12-1.92-0.35-2.13s-1.04-0.31-2.41-0.29c-0.34,0-0.56-0.02-0.66-0.05c-0.1-0.03-0.15-0.1-0.15-0.21
		c0-0.24,0.27-0.35,0.81-0.35h0.66c0.54,0.02,1.89,0.02,4.05,0h2.94c0.17,0,0.36,0,0.55,0s0.33,0,0.4,0
		C232.23,549.24,232.47,549.35,232.47,549.58z"/>
	<path fill="#4D4E4E" d="M246.96,556.36c0,0.71-0.6,1.06-1.8,1.06c-1.34,0-2.39-0.55-3.14-1.64c-0.33-0.47-0.54-0.92-0.63-1.36
		c-0.09-0.44-0.24-1.55-0.42-3.33c-0.1-1.08-0.46-1.84-1.06-2.28c-0.6-0.44-1.58-0.68-2.94-0.72v7.94c0,0.34,0.27,0.55,0.82,0.63
		c0.16,0.02,0.55,0.03,1.19,0.05c0.22,0,0.33,0.07,0.33,0.2c0,0.15-0.15,0.23-0.44,0.23h-0.31c-0.16,0-0.9,0-2.24,0
		c-0.26,0-0.7,0-1.31,0c-0.6,0-1,0-1.18,0h-1c-0.38,0-0.57-0.08-0.57-0.23c0-0.12,0.25-0.19,0.75-0.2c0.81-0.02,1.24-0.12,1.31-0.3
		c0.07-0.08,0.1-0.41,0.1-0.98v-13.91c0-0.67-0.07-1.08-0.22-1.21c-0.15-0.13-0.59-0.21-1.33-0.23c-0.43,0-0.64-0.08-0.64-0.23
		c0-0.17,0.14-0.25,0.41-0.25c0.05,0,0.13,0.01,0.23,0.02l3.43,0.08c0.34,0,0.82-0.01,1.44-0.03c0.69-0.04,1.17-0.07,1.44-0.07
		c1.6,0,2.86,0.35,3.8,1.05s1.4,1.64,1.4,2.83c0,1.18-0.48,2.15-1.44,2.91c-0.96,0.76-2.27,1.21-3.92,1.35
		c-0.15,0.02-0.24,0.04-0.26,0.08c0,0.07,0.09,0.1,0.26,0.1c1.8,0.3,3.04,0.92,3.72,1.86c0.68,0.93,1.13,2.62,1.35,5.07
		c0.14,1.38,0.62,2.07,1.44,2.07c0.26,0,0.39-0.05,0.39-0.15c0-0.02-0.01-0.03-0.03-0.05c-0.09-0.18-0.13-0.34-0.13-0.45
		c0-0.35,0.19-0.53,0.57-0.53C246.75,555.73,246.96,555.94,246.96,556.36z M241.63,543.74c0-2.4-1.06-3.6-3.19-3.6
		c-0.57,0-0.95,0.08-1.16,0.23s-0.31,0.42-0.31,0.81v6.4c1.65,0.02,2.84-0.28,3.57-0.88C241.26,546.08,241.63,545.1,241.63,543.74z"
		/>
	<path fill="#4D4E4E" d="M263.47,556.96c0,0.14-0.13,0.22-0.39,0.22c-0.17,0-0.33-0.01-0.46-0.03l-3.27-0.1l-3.27,0.1
		c-0.12,0.02-0.25,0.03-0.39,0.03c-0.34,0-0.52-0.09-0.52-0.26c0-0.19,0.23-0.29,0.7-0.29c1.51-0.02,2.27-0.17,2.27-0.44
		c0-0.02-0.02-0.08-0.05-0.2l-0.21-0.67l-0.13-0.35c-0.16-0.52-0.53-1.67-1.13-3.46h-5.51c-1.03,2.69-1.54,4.23-1.54,4.64
		c0,0.24,0.1,0.38,0.31,0.43c0.05,0.02,0.48,0.05,1.29,0.1c0.5,0.02,0.75,0.1,0.75,0.25c0,0.17-0.22,0.25-0.67,0.25
		c-0.79,0-1.71-0.03-2.76-0.1c-0.26-0.02-0.52-0.02-0.8-0.02c-0.28,0-0.54,0.03-0.8,0.08c-0.14,0.03-0.25,0.04-0.33,0.04
		c-0.24,0-0.36-0.08-0.36-0.23c0-0.15,0.27-0.24,0.81-0.25s0.93-0.1,1.17-0.24c0.24-0.14,0.43-0.42,0.57-0.82
		c2.21-6.2,4.01-11.18,5.39-14.94c0.04-0.2,0.12-0.42,0.24-0.67l0.11-0.46c0.05-0.18,0.12-0.28,0.21-0.28
		c0.05,0,0.09,0.05,0.13,0.15c0.22,0.66,0.73,2.02,1.52,4.11c0.62,1.63,2.15,5.72,4.61,12.27c0.14,0.38,0.31,0.62,0.53,0.73
		c0.21,0.1,0.66,0.16,1.33,0.18C263.25,556.73,263.47,556.81,263.47,556.96z M256.47,550.92c-0.28-0.75-0.74-2-1.39-3.75l-1.24-3.49
		c-0.72,1.86-1.58,4.27-2.59,7.24H256.47z"/>
	<path fill="#4D4E4E" d="M275.14,543.81c0,1.63-0.71,2.9-2.14,3.81c-0.89,0.57-2.03,0.86-3.4,0.86c-0.58,0-1.25-0.06-1.98-0.18v7.16
		c0,0.39,0.02,0.63,0.05,0.73c0.09,0.24,0.27,0.38,0.57,0.43c0.5,0.07,0.98,0.1,1.44,0.1c0.19,0,0.28,0.06,0.28,0.18
		c0,0.17-0.12,0.25-0.36,0.25c-0.1,0-0.19,0-0.26,0c-0.95,0-2.72,0-5.33,0h-0.33c-0.52,0-0.77-0.08-0.77-0.25
		c0-0.12,0.18-0.18,0.54-0.18c0.81,0,1.27-0.08,1.39-0.23c0.14-0.07,0.21-0.24,0.23-0.5v-14.89c0-0.52-0.15-0.84-0.44-0.96
		c-0.17-0.07-0.47-0.1-0.9-0.1h-0.26c-0.05,0-0.11,0-0.18,0c-0.26,0-0.39-0.07-0.39-0.2c0-0.15,0.24-0.23,0.72-0.23h5.67
		c1.96,0,3.39,0.34,4.3,1.01C274.62,541.37,275.14,542.44,275.14,543.81z M272.44,543.84c0-2.54-1.08-3.8-3.25-3.8
		c-0.72,0-1.19,0.12-1.42,0.36c-0.1,0.1-0.16,0.36-0.16,0.79v6.75c0.14,0.02,0.29,0.03,0.46,0.03c1.13,0,2.09-0.25,2.88-0.74
		C271.95,546.6,272.44,545.48,272.44,543.84z"/>
	<path fill="#4D4E4E" d="M292.89,556.89c0,0.15-0.16,0.23-0.49,0.23h-3.53c-0.24,0-0.59,0-1.05,0s-0.8,0-1.02,0
		c-0.34,0-0.51-0.07-0.51-0.2s0.4-0.23,1.2-0.28c0.42-0.03,0.67-0.1,0.74-0.21c0.07-0.11,0.1-0.5,0.1-1.17v-7.34h-7.75v7.13
		c0,0.76,0.06,1.2,0.18,1.34c0.12,0.13,0.52,0.23,1.21,0.28c0.45,0.03,0.67,0.11,0.67,0.23c0,0.15-0.17,0.23-0.51,0.23h-0.23
		c-0.41,0-0.85,0-1.3,0s-0.73,0-0.81,0c-0.24,0-0.6,0-1.08,0c-0.48,0-1.2,0-2.16,0c-0.34,0-0.51-0.07-0.51-0.2s0.17-0.22,0.51-0.25
		c0.22-0.02,0.46-0.03,0.7-0.05c0.38-0.03,0.62-0.12,0.72-0.25c0.05-0.08,0.08-0.55,0.08-1.41v-13.29c0-0.75-0.04-1.2-0.12-1.33
		s-0.35-0.21-0.81-0.23c-0.53-0.04-0.85-0.06-0.94-0.08c-0.09-0.02-0.14-0.09-0.14-0.21c0-0.14,0.11-0.21,0.33-0.21
		c0.07,0,0.21,0.01,0.44,0.02c0.43,0.03,1.44,0.05,3.04,0.05c0.88,0,1.49-0.01,1.83-0.04c0.12-0.02,0.27-0.04,0.46-0.04
		c0.31,0,0.46,0.08,0.46,0.25c0,0.15-0.28,0.23-0.84,0.23s-0.89,0.06-1,0.19c-0.11,0.13-0.17,0.53-0.17,1.2v5.81h7.75v-5.44
		c0-0.89-0.07-1.42-0.21-1.58s-0.62-0.23-1.44-0.21c-0.26,0-0.39-0.08-0.39-0.23c0-0.15,0.15-0.23,0.44-0.23h0.13
		c0.24,0,0.66,0,1.26,0c0.62,0,1.08,0,1.39,0c1.05,0,1.76,0,2.12,0s0.61,0,0.71,0c0.36,0,0.54,0.08,0.54,0.23s-0.38,0.24-1.13,0.25
		c-0.22,0-0.39,0.02-0.49,0.05c-0.17,0.05-0.28,0.14-0.32,0.28c-0.04,0.13-0.06,0.53-0.06,1.18V555c0,0.81,0.04,1.28,0.13,1.41
		c0.17,0.19,0.66,0.28,1.47,0.28C292.75,556.66,292.89,556.73,292.89,556.89z"/>
	<path fill="#4D4E4E" d="M301.08,556.91c0,0.14-0.1,0.21-0.31,0.21h-0.26c-0.1-0.05-1.28-0.08-3.52-0.08
		c-0.43,0-0.86,0.02-1.29,0.05c-0.22,0.02-0.57,0.03-1.03,0.03c-0.22,0-0.34-0.08-0.34-0.23c0-0.13,0.22-0.21,0.67-0.23
		c0.69-0.02,1.09-0.1,1.21-0.24c0.12-0.14,0.18-0.63,0.18-1.45v-13.29c0-0.83-0.04-1.29-0.13-1.39c-0.1-0.17-0.58-0.27-1.44-0.3
		c-0.33-0.01-0.5-0.07-0.5-0.18c0-0.13,0.1-0.2,0.31-0.2h3.52c0.26,0,0.76,0.01,1.51,0.02l0.99-0.02c0.28,0,0.42,0.07,0.42,0.21
		c0,0.13-0.39,0.21-1.16,0.24c-0.44,0.02-0.71,0.09-0.8,0.23c-0.1,0.13-0.15,0.49-0.15,1.06v13.46c0,0.96,0.04,1.48,0.13,1.56
		c0.19,0.18,0.76,0.29,1.7,0.33C300.98,556.69,301.08,556.76,301.08,556.91z"/>
	<path fill="#4D4E4E" d="M317.41,551.48c0-0.02-0.02,0.21-0.05,0.68c-0.07,0.94-0.1,1.88-0.1,2.82c0,0.12,0.02,0.33,0.05,0.64
		c0.03,0.31,0.05,0.68,0.05,1.12v0.23c0,0.22-0.07,0.33-0.21,0.33s-0.26-0.13-0.36-0.38c-0.24-0.59-0.48-0.95-0.72-1.08
		c-1.24,1.06-2.72,1.59-4.46,1.59c-2.52,0-4.61-0.86-6.27-2.58c-1.66-1.72-2.49-3.89-2.49-6.51c0-2.64,0.76-4.79,2.28-6.46
		c1.52-1.67,3.48-2.51,5.89-2.51c0.88,0,1.58,0.07,2.1,0.21s1.17,0.43,1.95,0.87c0.38,0.22,0.66,0.33,0.85,0.33
		c0.15,0,0.3-0.13,0.44-0.4c0.22-0.47,0.4-0.71,0.54-0.71s0.21,0.07,0.21,0.2c0,0.07-0.02,0.18-0.05,0.33
		c-0.19,0.81-0.28,2.32-0.28,4.54c0,0.32-0.03,0.5-0.08,0.55c-0.05,0.05-0.12,0.08-0.21,0.08c-0.17,0-0.28-0.16-0.33-0.48
		c-0.22-1.34-0.54-2.34-0.95-3c-0.84-1.34-2.16-2.02-3.97-2.02c-1.39,0-2.49,0.45-3.3,1.36c-1.46,1.63-2.19,4.02-2.19,7.16
		c0,2.81,0.6,4.98,1.8,6.53c1.05,1.34,2.44,2.02,4.17,2.02c0.89,0,1.71-0.22,2.45-0.66c0.74-0.44,1.31-1.04,1.71-1.8
		c0.4-0.76,0.72-1.68,0.94-2.76c0.09-0.4,0.2-0.6,0.33-0.6C317.32,551.1,317.41,551.22,317.41,551.48z"/>
	<path fill="#4D4E4E" d="M350.22,544.63c0,4.24-1.51,7.53-4.53,9.89c-2.21,1.73-5.16,2.6-8.87,2.6c-0.1,0-0.53,0-1.31,0
		s-1.9,0-3.37,0h-1.84h-2.91c-0.17,0-0.36,0-0.55,0c-0.47,0-0.7-0.12-0.7-0.36c0-0.22,0.39-0.32,1.18-0.32
		c1.01,0,1.63-0.18,1.88-0.54c0.1-0.17,0.15-0.62,0.15-1.37v-19.4c0-1.18-0.09-1.86-0.28-2.05c-0.18-0.19-0.82-0.29-1.9-0.29
		c-0.56,0-0.85-0.13-0.85-0.4c0-0.19,0.21-0.29,0.62-0.29c-0.02,0,0.25,0,0.81,0s1.12,0,1.66,0h3.94c4.42,0,7.54,0.3,9.38,0.9
		c2.23,0.72,4.04,2.15,5.41,4.28C349.54,539.41,350.22,541.86,350.22,544.63z M346.1,544.48c0-4-0.8-6.93-2.39-8.79
		c-1.6-1.87-4.08-2.8-7.47-2.8c-1.64,0-2.64,0.17-2.98,0.5c-0.15,0.17-0.22,0.75-0.22,1.73v19.21c0,0.67,0.02,1.08,0.06,1.23
		s0.14,0.26,0.31,0.36c0.59,0.29,1.83,0.43,3.72,0.43c2.65,0,4.78-0.92,6.4-2.74C345.24,551.69,346.1,548.65,346.1,544.48z"/>
	<path fill="#4D4E4E" d="M366.21,553.06c0,0.07-0.02,0.48-0.05,1.24c-0.03,0.76-0.05,1.48-0.05,2.17v0.83
		c-1.68-0.1-5.01-0.15-9.99-0.15c-0.6,0-1.19,0-1.78,0s-0.98,0-1.18,0h-0.26c-0.33,0-0.49-0.07-0.49-0.2c0-0.09,0.05-0.14,0.15-0.16
		c0.05,0,0.38-0.02,0.98-0.07c0.45-0.03,0.72-0.13,0.81-0.28c0.09-0.15,0.14-0.55,0.14-1.19v-14.21c0-0.49-0.07-0.78-0.22-0.87
		c-0.15-0.09-0.61-0.14-1.4-0.14c-0.28,0-0.41-0.07-0.41-0.21s0.19-0.21,0.57-0.21h4.4c0.15,0,1.12,0,2.91,0c1.79,0,2.99,0,3.61,0
		c0.52,0,0.99-0.03,1.42-0.1c0.03,0.72,0.11,1.72,0.23,3l0.1,1.08c0.02,0.08,0.03,0.19,0.03,0.33c0,0.17-0.08,0.25-0.23,0.25
		c-0.19,0-0.33-0.21-0.41-0.63c-0.33-1.52-0.86-2.49-1.6-2.89c-0.55-0.3-1.99-0.46-4.33-0.46h-2.11v7.41h0.62
		c1.92,0,3.1-0.14,3.52-0.43c0.42-0.29,0.71-1.12,0.86-2.5c0.03-0.35,0.13-0.53,0.28-0.53c0.19,0,0.28,0.15,0.28,0.45
		s-0.02,0.75-0.05,1.34c-0.04,0.59-0.05,1.03-0.05,1.33c0,1.8,0.03,3.03,0.08,3.71c0.01,0.17,0.02,0.31,0.02,0.43
		c0,0.22-0.09,0.33-0.28,0.33c-0.12,0-0.2-0.07-0.24-0.21c-0.04-0.14-0.12-0.61-0.22-1.4c-0.14-0.99-0.56-1.6-1.26-1.84
		c-0.31-0.1-1.11-0.15-2.41-0.15h-1.15v8.44c3.78,0,5.99-0.07,6.65-0.22c1.13-0.25,1.78-1.31,1.93-3.19
		c0.03-0.42,0.15-0.62,0.33-0.62C366.12,552.53,366.21,552.71,366.21,553.06z"/>
	<path fill="#4D4E4E" d="M378.8,552.21c0,1.45-0.56,2.68-1.69,3.69c-1.12,1.02-2.48,1.53-4.06,1.53c-0.93,0-2.03-0.28-3.32-0.83
		c-0.34-0.15-0.6-0.23-0.77-0.23c-0.21,0-0.33,0.23-0.39,0.7c-0.02,0.24-0.13,0.36-0.33,0.36c-0.17,0-0.26-0.1-0.26-0.3
		c0-0.13,0.01-0.24,0.03-0.3c0.14-1.02,0.21-1.97,0.21-2.85c0-0.17-0.02-0.64-0.05-1.41c-0.02-0.1-0.03-0.23-0.03-0.4
		c0-0.25,0.1-0.38,0.31-0.38c0.17,0,0.29,0.2,0.36,0.61c0.45,3.02,1.9,4.53,4.35,4.53c1.05,0,1.86-0.29,2.43-0.87
		c0.58-0.58,0.86-1.4,0.86-2.46c0-0.94-0.28-1.74-0.84-2.41c-0.56-0.66-1.52-1.32-2.87-1.98c-1.63-0.79-2.76-1.55-3.4-2.29
		c-0.63-0.74-0.95-1.65-0.95-2.75c0-1.39,0.46-2.54,1.38-3.45c0.92-0.91,2.08-1.36,3.49-1.36c0.58,0,1.39,0.19,2.42,0.58
		c0.36,0.13,0.63,0.2,0.8,0.2c0.19,0,0.31-0.03,0.37-0.1c0.06-0.07,0.12-0.24,0.17-0.53c0.03-0.17,0.13-0.25,0.28-0.25
		c0.17,0,0.26,0.1,0.26,0.3c0,0.13-0.01,0.24-0.03,0.3c-0.05,0.4-0.08,0.89-0.08,1.46c0,0.81,0.04,1.45,0.13,1.92l0.03,0.4
		c0.02,0.19-0.06,0.28-0.23,0.28c-0.19,0-0.32-0.19-0.39-0.58c-0.19-0.99-0.64-1.82-1.34-2.48c-0.7-0.66-1.49-1-2.37-1
		c-0.86,0-1.54,0.27-2.05,0.81c-0.51,0.54-0.76,1.27-0.76,2.19c0,1.08,0.37,1.94,1.11,2.6c0.41,0.37,1.3,0.89,2.68,1.56
		c1.61,0.79,2.77,1.59,3.48,2.41C378.45,550.24,378.8,551.17,378.8,552.21z"/>
	<path fill="#4D4E4E" d="M386.99,556.91c0,0.14-0.1,0.21-0.31,0.21h-0.26c-0.1-0.05-1.28-0.08-3.52-0.08
		c-0.43,0-0.86,0.02-1.29,0.05c-0.22,0.02-0.57,0.03-1.03,0.03c-0.22,0-0.34-0.08-0.34-0.23c0-0.13,0.22-0.21,0.67-0.23
		c0.69-0.02,1.09-0.1,1.21-0.24c0.12-0.14,0.18-0.63,0.18-1.45v-13.29c0-0.83-0.04-1.29-0.13-1.39c-0.1-0.17-0.58-0.27-1.44-0.3
		c-0.33-0.01-0.5-0.07-0.5-0.18c0-0.13,0.1-0.2,0.31-0.2h3.52c0.26,0,0.76,0.01,1.51,0.02l0.99-0.02c0.28,0,0.42,0.07,0.42,0.21
		c0,0.13-0.39,0.21-1.16,0.24c-0.44,0.02-0.71,0.09-0.8,0.23c-0.1,0.13-0.15,0.49-0.15,1.06v13.46c0,0.96,0.04,1.48,0.13,1.56
		c0.19,0.18,0.76,0.29,1.7,0.33C386.9,556.69,386.99,556.76,386.99,556.91z"/>
	<path fill="#4D4E4E" d="M405.33,551.84c0,0.13-0.21,0.19-0.62,0.19c-0.93,0-1.44,0.13-1.54,0.4c-0.07,0.18-0.1,0.91-0.1,2.18v0.8
		c-0.89,0.74-1.74,1.25-2.55,1.56c-0.81,0.3-1.78,0.45-2.91,0.45c-2.71,0-4.87-0.79-6.46-2.38s-2.4-3.74-2.4-6.46
		c0-2.75,0.78-4.98,2.34-6.68c1.56-1.7,3.62-2.54,6.18-2.54c1.12,0,2.33,0.3,3.66,0.91c0.39,0.18,0.72,0.28,0.98,0.28
		c0.33,0,0.54-0.2,0.64-0.6c0.08-0.24,0.19-0.35,0.31-0.35c0.14,0,0.21,0.08,0.21,0.23c0,0.02-0.02,0.18-0.04,0.48
		c-0.11,0.99-0.15,1.72-0.13,2.19v1.36c0.02,0.69,0.01,1.12-0.03,1.29s-0.13,0.25-0.28,0.25s-0.24-0.12-0.26-0.35
		c-0.09-1.62-0.57-2.9-1.44-3.83s-2.03-1.41-3.45-1.41c-1.79,0-3.2,0.78-4.24,2.34c-1.04,1.56-1.56,3.69-1.56,6.38
		c0,2.61,0.53,4.68,1.58,6.21c1.06,1.52,2.49,2.29,4.29,2.29c1.37,0,2.32-0.39,2.83-1.17c0.26-0.39,0.39-1.09,0.39-2.1
		c0-0.84-0.08-1.34-0.25-1.49s-0.73-0.22-1.69-0.2c-0.24,0-0.4-0.01-0.46-0.03s-0.1-0.07-0.1-0.15c0-0.17,0.19-0.25,0.57-0.25h0.46
		c0.38,0.02,1.32,0.02,2.83,0h2.06c0.12,0,0.25,0,0.39,0c0.14,0,0.23,0,0.28,0C405.16,551.6,405.33,551.68,405.33,551.84z"/>
	<path fill="#4D4E4E" d="M421.33,539.86c0,0.17-0.21,0.24-0.64,0.23h-0.57h-0.46c-0.27,0-0.44,0.05-0.49,0.14s-0.08,0.37-0.08,0.84
		v14.49c0,0.89-0.01,1.41-0.03,1.56c-0.02,0.15-0.07,0.23-0.15,0.23c-0.1,0-0.22-0.09-0.36-0.28l-3.29-4.72
		c-1.91-2.74-4.23-6.16-6.96-10.26v14.07c0.02,0.22,0.15,0.36,0.39,0.42c0.24,0.06,0.82,0.1,1.74,0.11c0.23,0,0.34,0.07,0.34,0.2
		c0,0.17-0.22,0.25-0.67,0.25c-0.15,0-0.64-0.03-1.47-0.08c-0.27-0.02-0.54-0.02-0.8-0.02c0.02,0-0.13,0.02-0.45,0.05
		s-0.8,0.05-1.46,0.05h-0.26c-0.4,0-0.59-0.08-0.59-0.23s0.17-0.23,0.51-0.23c1.01-0.02,1.6-0.08,1.76-0.19
		c0.16-0.11,0.24-0.47,0.24-1.07v-12.44c0-1.4-0.29-2.27-0.88-2.62c-0.28-0.17-0.76-0.25-1.47-0.25c-0.45,0-0.67-0.09-0.67-0.27
		c0-0.16,0.13-0.24,0.39-0.24c0.34,0,0.78,0.02,1.31,0.05c0.53,0.03,0.82,0.05,0.85,0.05c0.05,0,0.29-0.01,0.72-0.03
		c0.57,0,1.12-0.03,1.65-0.08l8.89,12.98v-11.21c0-0.52-0.01-0.84-0.03-0.95c-0.02-0.11-0.09-0.19-0.21-0.25
		c-0.12-0.06-0.53-0.09-1.24-0.09c-0.62,0-0.93-0.08-0.93-0.23c0-0.17,0.21-0.25,0.62-0.25h0.9c0.22,0,0.46,0,0.72,0
		c0.27,0,0.44,0,0.49,0c0.02,0,0.17,0,0.46,0c0.28,0,0.53,0,0.77,0h0.8C421.14,539.61,421.33,539.69,421.33,539.86z"/>
	<path fill="#4D4E4E" d="M436.14,553.06c0,0.07-0.02,0.48-0.05,1.24c-0.03,0.76-0.05,1.48-0.05,2.17v0.83
		c-1.68-0.1-5.01-0.15-9.99-0.15c-0.6,0-1.19,0-1.78,0s-0.98,0-1.18,0h-0.26c-0.33,0-0.49-0.07-0.49-0.2c0-0.09,0.05-0.14,0.15-0.16
		c0.05,0,0.38-0.02,0.98-0.07c0.45-0.03,0.72-0.13,0.81-0.28c0.09-0.15,0.14-0.55,0.14-1.19v-14.21c0-0.49-0.07-0.78-0.22-0.87
		c-0.15-0.09-0.61-0.14-1.4-0.14c-0.28,0-0.41-0.07-0.41-0.21s0.19-0.21,0.57-0.21h4.4c0.15,0,1.12,0,2.91,0c1.79,0,2.99,0,3.61,0
		c0.52,0,0.99-0.03,1.42-0.1c0.03,0.72,0.11,1.72,0.23,3l0.1,1.08c0.02,0.08,0.03,0.19,0.03,0.33c0,0.17-0.08,0.25-0.23,0.25
		c-0.19,0-0.33-0.21-0.41-0.63c-0.33-1.52-0.86-2.49-1.6-2.89c-0.55-0.3-1.99-0.46-4.33-0.46h-2.11v7.41h0.62
		c1.92,0,3.1-0.14,3.52-0.43c0.42-0.29,0.71-1.12,0.86-2.5c0.03-0.35,0.13-0.53,0.28-0.53c0.19,0,0.28,0.15,0.28,0.45
		s-0.02,0.75-0.05,1.34c-0.04,0.59-0.05,1.03-0.05,1.33c0,1.8,0.03,3.03,0.08,3.71c0.01,0.17,0.02,0.31,0.02,0.43
		c0,0.22-0.09,0.33-0.28,0.33c-0.12,0-0.2-0.07-0.24-0.21c-0.04-0.14-0.12-0.61-0.22-1.4c-0.14-0.99-0.56-1.6-1.26-1.84
		c-0.31-0.1-1.11-0.15-2.41-0.15h-1.15v8.44c3.78,0,5.99-0.07,6.65-0.22c1.13-0.25,1.78-1.31,1.93-3.19
		c0.03-0.42,0.15-0.62,0.33-0.62C436.05,552.53,436.14,552.71,436.14,553.06z"/>
	<path fill="#4D4E4E" d="M451.95,556.36c0,0.71-0.6,1.06-1.8,1.06c-1.34,0-2.39-0.55-3.14-1.64c-0.33-0.47-0.54-0.92-0.63-1.36
		c-0.09-0.44-0.24-1.55-0.42-3.33c-0.1-1.08-0.46-1.84-1.06-2.28c-0.6-0.44-1.58-0.68-2.94-0.72v7.94c0,0.34,0.27,0.55,0.82,0.63
		c0.16,0.02,0.55,0.03,1.19,0.05c0.22,0,0.33,0.07,0.33,0.2c0,0.15-0.15,0.23-0.44,0.23h-0.31c-0.16,0-0.9,0-2.24,0
		c-0.26,0-0.7,0-1.31,0c-0.6,0-1,0-1.18,0h-1c-0.38,0-0.57-0.08-0.57-0.23c0-0.12,0.25-0.19,0.75-0.2c0.81-0.02,1.24-0.12,1.31-0.3
		c0.07-0.08,0.1-0.41,0.1-0.98v-13.91c0-0.67-0.07-1.08-0.22-1.21c-0.15-0.13-0.59-0.21-1.33-0.23c-0.43,0-0.64-0.08-0.64-0.23
		c0-0.17,0.14-0.25,0.41-0.25c0.05,0,0.13,0.01,0.23,0.02l3.43,0.08c0.34,0,0.82-0.01,1.44-0.03c0.69-0.04,1.17-0.07,1.44-0.07
		c1.6,0,2.86,0.35,3.8,1.05s1.4,1.64,1.4,2.83c0,1.18-0.48,2.15-1.44,2.91c-0.96,0.76-2.27,1.21-3.92,1.35
		c-0.15,0.02-0.24,0.04-0.26,0.08c0,0.07,0.09,0.1,0.26,0.1c1.8,0.3,3.04,0.92,3.72,1.86c0.68,0.93,1.13,2.62,1.35,5.07
		c0.14,1.38,0.62,2.07,1.44,2.07c0.26,0,0.39-0.05,0.39-0.15c0-0.02-0.01-0.03-0.03-0.05c-0.09-0.18-0.13-0.34-0.13-0.45
		c0-0.35,0.19-0.53,0.57-0.53C451.75,555.73,451.95,555.94,451.95,556.36z M446.62,543.74c0-2.4-1.06-3.6-3.19-3.6
		c-0.57,0-0.95,0.08-1.16,0.23s-0.31,0.42-0.31,0.81v6.4c1.65,0.02,2.84-0.28,3.57-0.88C446.26,546.08,446.62,545.1,446.62,543.74z"
		/>
	<path fill="#4D4E4E" d="M271.82,602.2c0,2.33-1.02,4.14-3.05,5.44c-1.28,0.82-2.89,1.22-4.86,1.22c-0.83,0-1.78-0.08-2.83-0.25
		v10.22c0,0.55,0.02,0.9,0.07,1.04c0.12,0.34,0.39,0.54,0.81,0.61c0.71,0.1,1.4,0.14,2.06,0.14c0.27,0,0.41,0.08,0.41,0.25
		c0,0.24-0.17,0.36-0.52,0.36c-0.15,0-0.27,0-0.37,0c-1.35,0-3.89,0-7.62,0h-0.48c-0.74,0-1.1-0.12-1.1-0.36
		c0-0.17,0.26-0.25,0.77-0.25c1.15,0,1.82-0.11,1.99-0.32c0.2-0.1,0.31-0.34,0.33-0.72v-21.27c0-0.75-0.21-1.2-0.63-1.37
		c-0.25-0.1-0.67-0.14-1.29-0.14h-0.37c-0.07,0-0.16,0-0.26,0c-0.37,0-0.55-0.1-0.55-0.29c0-0.21,0.34-0.32,1.03-0.32h8.09
		c2.8,0,4.84,0.48,6.15,1.44C271.08,598.71,271.82,600.23,271.82,602.2z M267.95,602.24c0-3.62-1.54-5.44-4.64-5.44
		c-1.03,0-1.71,0.17-2.02,0.51c-0.15,0.14-0.22,0.52-0.22,1.12v9.64c0.2,0.02,0.42,0.04,0.66,0.04c1.62,0,2.99-0.35,4.12-1.05
		C267.25,606.19,267.95,604.58,267.95,602.24z"/>
	<path fill="#4D4E4E" d="M289.63,620.98c0,0.15-0.16,0.23-0.49,0.23h-3.53c-0.24,0-0.59,0-1.05,0s-0.8,0-1.02,0
		c-0.34,0-0.51-0.07-0.51-0.2s0.4-0.23,1.2-0.28c0.42-0.03,0.67-0.1,0.74-0.21c0.07-0.11,0.1-0.5,0.1-1.17v-7.34h-7.75v7.13
		c0,0.76,0.06,1.2,0.18,1.34c0.12,0.13,0.52,0.23,1.21,0.28c0.45,0.03,0.67,0.11,0.67,0.23c0,0.15-0.17,0.23-0.51,0.23h-0.23
		c-0.41,0-0.85,0-1.3,0s-0.73,0-0.81,0c-0.24,0-0.6,0-1.08,0c-0.48,0-1.2,0-2.16,0c-0.34,0-0.51-0.07-0.51-0.2s0.17-0.22,0.51-0.25
		c0.22-0.02,0.46-0.03,0.7-0.05c0.38-0.03,0.62-0.12,0.72-0.25c0.05-0.08,0.08-0.55,0.08-1.41v-13.29c0-0.75-0.04-1.2-0.12-1.33
		s-0.35-0.21-0.81-0.23c-0.53-0.04-0.85-0.06-0.94-0.08c-0.09-0.02-0.14-0.09-0.14-0.21c0-0.14,0.11-0.21,0.33-0.21
		c0.07,0,0.21,0.01,0.44,0.02c0.43,0.03,1.44,0.05,3.04,0.05c0.88,0,1.49-0.01,1.83-0.04c0.12-0.02,0.27-0.04,0.46-0.04
		c0.31,0,0.46,0.08,0.46,0.25c0,0.15-0.28,0.23-0.84,0.23s-0.89,0.06-1,0.19c-0.11,0.13-0.17,0.53-0.17,1.2v5.81h7.75v-5.44
		c0-0.89-0.07-1.42-0.21-1.58s-0.62-0.23-1.44-0.21c-0.26,0-0.39-0.08-0.39-0.23c0-0.15,0.15-0.23,0.44-0.23h0.13
		c0.24,0,0.66,0,1.26,0c0.62,0,1.08,0,1.39,0c1.05,0,1.76,0,2.12,0s0.61,0,0.71,0c0.36,0,0.54,0.08,0.54,0.23s-0.38,0.24-1.13,0.25
		c-0.22,0-0.39,0.02-0.49,0.05c-0.17,0.05-0.28,0.14-0.32,0.28c-0.04,0.13-0.06,0.53-0.06,1.18v13.41c0,0.81,0.04,1.28,0.13,1.41
		c0.17,0.19,0.66,0.28,1.47,0.28C289.5,620.75,289.63,620.82,289.63,620.98z"/>
	<path fill="#4D4E4E" d="M307.84,612.57c0,2.5-0.77,4.62-2.31,6.35s-3.42,2.6-5.65,2.6c-2.37,0-4.36-0.88-5.98-2.63
		c-1.61-1.75-2.42-3.92-2.42-6.49c0-2.62,0.78-4.77,2.33-6.44c1.55-1.67,3.54-2.51,5.96-2.51c2.28,0,4.2,0.87,5.74,2.62
		C307.07,607.81,307.84,609.98,307.84,612.57z M304.96,612.69c0-3.08-0.64-5.48-1.93-7.2c-0.81-1.08-1.93-1.62-3.38-1.62
		c-1.37,0-2.44,0.41-3.19,1.24c-1.39,1.52-2.09,3.99-2.09,7.41c0,2.71,0.49,4.82,1.46,6.32c0.97,1.5,2.33,2.25,4.08,2.25
		c1.63,0,2.86-0.71,3.68-2.12C304.5,617.39,304.96,615.3,304.96,612.69z"/>
	<path fill="#4D4E4E" d="M323.63,608.21c0,0.22-0.1,0.33-0.31,0.33s-0.35-0.22-0.44-0.66c-0.04-0.3-0.07-0.6-0.1-0.91
		c-0.12-0.6-0.32-1.12-0.59-1.54c-0.36-0.55-0.95-0.91-1.78-1.06c-0.53-0.1-0.96-0.14-1.29-0.13c-0.81,0.02-1.3,0.04-1.47,0.05
		v15.22c0,0.61,0.16,0.98,0.49,1.14c0.17,0.08,0.65,0.13,1.44,0.15c0.21,0.02,0.31,0.09,0.31,0.21c0,0.14-0.14,0.21-0.41,0.21
		c-0.14,0-0.26-0.01-0.36-0.03c-1.03-0.03-1.76-0.05-2.19-0.05c-0.57,0-1.1,0.01-1.6,0.04c-0.5,0.03-1.13,0.04-1.91,0.04
		c-0.4,0-0.59-0.07-0.59-0.2c0-0.15,0.37-0.24,1.11-0.25c0.53,0,0.88-0.11,1.03-0.33c0.09-0.13,0.13-0.48,0.13-1.04V604.3
		c-1.7,0.02-2.76,0.1-3.17,0.25c-1.08,0.39-1.72,1.42-1.91,3.1c-0.05,0.5-0.17,0.76-0.36,0.76c-0.21,0-0.31-0.18-0.31-0.53
		c0-0.18,0.01-0.37,0.03-0.55l0.05-0.58c0.05-0.77,0.13-1.79,0.23-3.05h1.16l5.25,0.08c0.62,0.02,1.58,0.02,2.89,0l4.28-0.08
		c0.03,0.94,0.15,2.33,0.33,4.18c0,0.05,0.01,0.11,0.03,0.19C323.62,608.14,323.63,608.19,323.63,608.21z"/>
	<path fill="#4D4E4E" d="M341.48,612.57c0,2.5-0.77,4.62-2.31,6.35s-3.42,2.6-5.65,2.6c-2.37,0-4.36-0.88-5.98-2.63
		c-1.61-1.75-2.42-3.92-2.42-6.49c0-2.62,0.78-4.77,2.33-6.44c1.55-1.67,3.54-2.51,5.96-2.51c2.28,0,4.2,0.87,5.74,2.62
		C340.71,607.81,341.48,609.98,341.48,612.57z M338.59,612.69c0-3.08-0.64-5.48-1.93-7.2c-0.81-1.08-1.93-1.62-3.38-1.62
		c-1.37,0-2.44,0.41-3.19,1.24c-1.39,1.52-2.09,3.99-2.09,7.41c0,2.71,0.49,4.82,1.46,6.32c0.97,1.5,2.33,2.25,4.08,2.25
		c1.63,0,2.86-0.71,3.68-2.12C338.14,617.39,338.59,615.3,338.59,612.69z"/>
	<path fill="#4D4E4E" d="M360.26,615.93c0,0.13-0.21,0.19-0.62,0.19c-0.93,0-1.44,0.13-1.54,0.4c-0.07,0.18-0.1,0.91-0.1,2.18v0.8
		c-0.89,0.74-1.74,1.25-2.55,1.56c-0.81,0.3-1.78,0.45-2.91,0.45c-2.71,0-4.87-0.79-6.46-2.38s-2.4-3.74-2.4-6.46
		c0-2.75,0.78-4.98,2.34-6.68c1.56-1.7,3.62-2.54,6.18-2.54c1.12,0,2.33,0.3,3.66,0.91c0.39,0.18,0.72,0.28,0.98,0.28
		c0.33,0,0.54-0.2,0.64-0.6c0.08-0.24,0.19-0.35,0.31-0.35c0.14,0,0.21,0.08,0.21,0.23c0,0.02-0.02,0.18-0.04,0.48
		c-0.11,0.99-0.15,1.72-0.13,2.19v1.36c0.02,0.69,0.01,1.12-0.03,1.29s-0.13,0.25-0.28,0.25s-0.24-0.12-0.26-0.35
		c-0.09-1.62-0.57-2.9-1.44-3.83s-2.03-1.41-3.45-1.41c-1.79,0-3.2,0.78-4.24,2.34c-1.04,1.56-1.56,3.69-1.56,6.38
		c0,2.61,0.53,4.68,1.58,6.21c1.06,1.52,2.49,2.29,4.29,2.29c1.37,0,2.32-0.39,2.83-1.17c0.26-0.39,0.39-1.09,0.39-2.1
		c0-0.84-0.08-1.34-0.25-1.49s-0.73-0.22-1.69-0.2c-0.24,0-0.4-0.01-0.46-0.03s-0.1-0.07-0.1-0.15c0-0.17,0.19-0.25,0.57-0.25h0.46
		c0.38,0.02,1.32,0.02,2.83,0h2.06c0.12,0,0.25,0,0.39,0c0.14,0,0.23,0,0.28,0C360.08,615.69,360.26,615.77,360.26,615.93z"/>
	<path fill="#4D4E4E" d="M374.99,620.45c0,0.71-0.6,1.06-1.8,1.06c-1.34,0-2.39-0.55-3.14-1.64c-0.33-0.47-0.54-0.92-0.63-1.36
		c-0.09-0.44-0.24-1.55-0.42-3.33c-0.1-1.08-0.46-1.84-1.06-2.28c-0.6-0.44-1.58-0.68-2.94-0.72v7.94c0,0.34,0.27,0.55,0.82,0.63
		c0.16,0.02,0.55,0.03,1.19,0.05c0.22,0,0.33,0.07,0.33,0.2c0,0.15-0.15,0.23-0.44,0.23h-0.31c-0.16,0-0.9,0-2.24,0
		c-0.26,0-0.7,0-1.31,0c-0.6,0-1,0-1.18,0h-1c-0.38,0-0.57-0.08-0.57-0.23c0-0.12,0.25-0.19,0.75-0.2c0.81-0.02,1.24-0.12,1.31-0.3
		c0.07-0.08,0.1-0.41,0.1-0.98v-13.91c0-0.67-0.07-1.08-0.22-1.21c-0.15-0.13-0.59-0.21-1.33-0.23c-0.43,0-0.64-0.08-0.64-0.23
		c0-0.17,0.14-0.25,0.41-0.25c0.05,0,0.13,0.01,0.23,0.02l3.43,0.08c0.34,0,0.82-0.01,1.44-0.03c0.69-0.04,1.17-0.07,1.44-0.07
		c1.6,0,2.86,0.35,3.8,1.05s1.4,1.64,1.4,2.83c0,1.18-0.48,2.15-1.44,2.91c-0.96,0.76-2.27,1.21-3.92,1.35
		c-0.15,0.02-0.24,0.04-0.26,0.08c0,0.07,0.09,0.1,0.26,0.1c1.8,0.3,3.04,0.92,3.72,1.86c0.68,0.93,1.13,2.62,1.35,5.07
		c0.14,1.38,0.62,2.07,1.44,2.07c0.26,0,0.39-0.05,0.39-0.15c0-0.02-0.01-0.03-0.03-0.05c-0.09-0.18-0.13-0.34-0.13-0.45
		c0-0.35,0.19-0.53,0.57-0.53C374.78,619.82,374.99,620.03,374.99,620.45z M369.66,607.83c0-2.4-1.06-3.6-3.19-3.6
		c-0.57,0-0.95,0.08-1.16,0.23s-0.31,0.42-0.31,0.81v6.4c1.65,0.02,2.84-0.28,3.57-0.88C369.29,610.17,369.66,609.19,369.66,607.83z
		"/>
	<path fill="#4D4E4E" d="M391.5,621.04c0,0.14-0.13,0.22-0.39,0.22c-0.17,0-0.33-0.01-0.46-0.03l-3.27-0.1l-3.27,0.1
		c-0.12,0.02-0.25,0.03-0.39,0.03c-0.34,0-0.52-0.09-0.52-0.26c0-0.19,0.23-0.29,0.7-0.29c1.51-0.02,2.27-0.17,2.27-0.44
		c0-0.02-0.02-0.08-0.05-0.2l-0.21-0.67l-0.13-0.35c-0.16-0.52-0.53-1.67-1.13-3.46h-5.51c-1.03,2.69-1.54,4.23-1.54,4.64
		c0,0.24,0.1,0.38,0.31,0.43c0.05,0.02,0.48,0.05,1.29,0.1c0.5,0.02,0.75,0.1,0.75,0.25c0,0.17-0.22,0.25-0.67,0.25
		c-0.79,0-1.71-0.03-2.76-0.1c-0.26-0.02-0.52-0.02-0.8-0.02c-0.28,0-0.54,0.03-0.8,0.08c-0.14,0.03-0.25,0.04-0.33,0.04
		c-0.24,0-0.36-0.08-0.36-0.23c0-0.15,0.27-0.24,0.81-0.25s0.93-0.1,1.17-0.24c0.24-0.14,0.43-0.42,0.57-0.82
		c2.21-6.2,4.01-11.18,5.39-14.94c0.04-0.2,0.12-0.42,0.24-0.67l0.11-0.46c0.05-0.18,0.12-0.28,0.21-0.28
		c0.05,0,0.09,0.05,0.13,0.15c0.22,0.66,0.73,2.02,1.52,4.11c0.62,1.63,2.15,5.72,4.61,12.27c0.14,0.38,0.31,0.62,0.53,0.73
		c0.21,0.1,0.66,0.16,1.33,0.18C391.28,620.82,391.5,620.9,391.5,621.04z M384.5,615.01c-0.28-0.75-0.74-2-1.39-3.75l-1.24-3.49
		c-0.72,1.86-1.58,4.27-2.59,7.24H384.5z"/>
	<path fill="#4D4E4E" d="M403.17,607.9c0,1.63-0.71,2.9-2.14,3.81c-0.89,0.57-2.03,0.86-3.4,0.86c-0.58,0-1.25-0.06-1.98-0.18v7.16
		c0,0.39,0.02,0.63,0.05,0.73c0.09,0.24,0.27,0.38,0.57,0.43c0.5,0.07,0.98,0.1,1.44,0.1c0.19,0,0.28,0.06,0.28,0.18
		c0,0.17-0.12,0.25-0.36,0.25c-0.1,0-0.19,0-0.26,0c-0.95,0-2.72,0-5.33,0h-0.33c-0.52,0-0.77-0.08-0.77-0.25
		c0-0.12,0.18-0.18,0.54-0.18c0.81,0,1.27-0.08,1.39-0.23c0.14-0.07,0.21-0.24,0.23-0.5v-14.89c0-0.52-0.15-0.84-0.44-0.96
		c-0.17-0.07-0.47-0.1-0.9-0.1h-0.26c-0.05,0-0.11,0-0.18,0c-0.26,0-0.39-0.07-0.39-0.2c0-0.15,0.24-0.23,0.72-0.23h5.67
		c1.96,0,3.39,0.34,4.3,1.01C402.65,605.46,403.17,606.53,403.17,607.9z M400.46,607.93c0-2.54-1.08-3.8-3.25-3.8
		c-0.72,0-1.19,0.12-1.42,0.36c-0.1,0.1-0.16,0.36-0.16,0.79v6.75c0.14,0.02,0.29,0.03,0.46,0.03c1.13,0,2.09-0.25,2.88-0.74
		C399.97,610.69,400.46,609.57,400.46,607.93z"/>
	<path fill="#4D4E4E" d="M420.92,620.98c0,0.15-0.16,0.23-0.49,0.23h-3.53c-0.24,0-0.59,0-1.05,0s-0.8,0-1.02,0
		c-0.34,0-0.51-0.07-0.51-0.2s0.4-0.23,1.2-0.28c0.42-0.03,0.67-0.1,0.74-0.21c0.07-0.11,0.1-0.5,0.1-1.17v-7.34h-7.75v7.13
		c0,0.76,0.06,1.2,0.18,1.34c0.12,0.13,0.52,0.23,1.21,0.28c0.45,0.03,0.67,0.11,0.67,0.23c0,0.15-0.17,0.23-0.51,0.23h-0.23
		c-0.41,0-0.85,0-1.3,0s-0.73,0-0.81,0c-0.24,0-0.6,0-1.08,0c-0.48,0-1.2,0-2.16,0c-0.34,0-0.51-0.07-0.51-0.2s0.17-0.22,0.51-0.25
		c0.22-0.02,0.46-0.03,0.7-0.05c0.38-0.03,0.62-0.12,0.72-0.25c0.05-0.08,0.08-0.55,0.08-1.41v-13.29c0-0.75-0.04-1.2-0.12-1.33
		s-0.35-0.21-0.81-0.23c-0.53-0.04-0.85-0.06-0.94-0.08c-0.09-0.02-0.14-0.09-0.14-0.21c0-0.14,0.11-0.21,0.33-0.21
		c0.07,0,0.21,0.01,0.44,0.02c0.43,0.03,1.44,0.05,3.04,0.05c0.88,0,1.49-0.01,1.83-0.04c0.12-0.02,0.27-0.04,0.46-0.04
		c0.31,0,0.46,0.08,0.46,0.25c0,0.15-0.28,0.23-0.84,0.23s-0.89,0.06-1,0.19c-0.11,0.13-0.17,0.53-0.17,1.2v5.81h7.75v-5.44
		c0-0.89-0.07-1.42-0.21-1.58s-0.62-0.23-1.44-0.21c-0.26,0-0.39-0.08-0.39-0.23c0-0.15,0.15-0.23,0.44-0.23h0.13
		c0.24,0,0.66,0,1.26,0c0.62,0,1.08,0,1.39,0c1.05,0,1.76,0,2.12,0s0.61,0,0.71,0c0.36,0,0.54,0.08,0.54,0.23s-0.38,0.24-1.13,0.25
		c-0.22,0-0.39,0.02-0.49,0.05c-0.17,0.05-0.28,0.14-0.32,0.28c-0.04,0.13-0.06,0.53-0.06,1.18v13.41c0,0.81,0.04,1.28,0.13,1.41
		c0.17,0.19,0.66,0.28,1.47,0.28C420.78,620.75,420.92,620.82,420.92,620.98z"/>
	<path fill="#4D4E4E" d="M436.14,617.15c0,0.07-0.02,0.48-0.05,1.24c-0.03,0.76-0.05,1.48-0.05,2.17v0.83
		c-1.68-0.1-5.01-0.15-9.99-0.15c-0.6,0-1.19,0-1.78,0s-0.98,0-1.18,0h-0.26c-0.33,0-0.49-0.07-0.49-0.2c0-0.09,0.05-0.14,0.15-0.16
		c0.05,0,0.38-0.02,0.98-0.07c0.45-0.03,0.72-0.13,0.81-0.28c0.09-0.15,0.14-0.55,0.14-1.19v-14.21c0-0.49-0.07-0.78-0.22-0.87
		c-0.15-0.09-0.61-0.14-1.4-0.14c-0.28,0-0.41-0.07-0.41-0.21s0.19-0.21,0.57-0.21h4.4c0.15,0,1.12,0,2.91,0c1.79,0,2.99,0,3.61,0
		c0.52,0,0.99-0.03,1.42-0.1c0.03,0.72,0.11,1.72,0.23,3l0.1,1.08c0.02,0.08,0.03,0.19,0.03,0.33c0,0.17-0.08,0.25-0.23,0.25
		c-0.19,0-0.33-0.21-0.41-0.63c-0.33-1.52-0.86-2.49-1.6-2.89c-0.55-0.3-1.99-0.46-4.33-0.46h-2.11v7.41h0.62
		c1.92,0,3.1-0.14,3.52-0.43c0.42-0.29,0.71-1.12,0.86-2.5c0.03-0.35,0.13-0.53,0.28-0.53c0.19,0,0.28,0.15,0.28,0.45
		s-0.02,0.75-0.05,1.34c-0.04,0.59-0.05,1.03-0.05,1.33c0,1.8,0.03,3.03,0.08,3.71c0.01,0.17,0.02,0.31,0.02,0.43
		c0,0.22-0.09,0.33-0.28,0.33c-0.12,0-0.2-0.07-0.24-0.21c-0.04-0.14-0.12-0.61-0.22-1.4c-0.14-0.99-0.56-1.6-1.26-1.84
		c-0.31-0.1-1.11-0.15-2.41-0.15h-1.15v8.44c3.78,0,5.99-0.07,6.65-0.22c1.13-0.25,1.78-1.31,1.93-3.19
		c0.03-0.42,0.15-0.62,0.33-0.62C436.05,616.62,436.14,616.8,436.14,617.15z"/>
	<path fill="#4D4E4E" d="M451.95,620.45c0,0.71-0.6,1.06-1.8,1.06c-1.34,0-2.39-0.55-3.14-1.64c-0.33-0.47-0.54-0.92-0.63-1.36
		c-0.09-0.44-0.24-1.55-0.42-3.33c-0.1-1.08-0.46-1.84-1.06-2.28c-0.6-0.44-1.58-0.68-2.94-0.72v7.94c0,0.34,0.27,0.55,0.82,0.63
		c0.16,0.02,0.55,0.03,1.19,0.05c0.22,0,0.33,0.07,0.33,0.2c0,0.15-0.15,0.23-0.44,0.23h-0.31c-0.16,0-0.9,0-2.24,0
		c-0.26,0-0.7,0-1.31,0c-0.6,0-1,0-1.18,0h-1c-0.38,0-0.57-0.08-0.57-0.23c0-0.12,0.25-0.19,0.75-0.2c0.81-0.02,1.24-0.12,1.31-0.3
		c0.07-0.08,0.1-0.41,0.1-0.98v-13.91c0-0.67-0.07-1.08-0.22-1.21c-0.15-0.13-0.59-0.21-1.33-0.23c-0.43,0-0.64-0.08-0.64-0.23
		c0-0.17,0.14-0.25,0.41-0.25c0.05,0,0.13,0.01,0.23,0.02l3.43,0.08c0.34,0,0.82-0.01,1.44-0.03c0.69-0.04,1.17-0.07,1.44-0.07
		c1.6,0,2.86,0.35,3.8,1.05s1.4,1.64,1.4,2.83c0,1.18-0.48,2.15-1.44,2.91c-0.96,0.76-2.27,1.21-3.92,1.35
		c-0.15,0.02-0.24,0.04-0.26,0.08c0,0.07,0.09,0.1,0.26,0.1c1.8,0.3,3.04,0.92,3.72,1.86c0.68,0.93,1.13,2.62,1.35,5.07
		c0.14,1.38,0.62,2.07,1.44,2.07c0.26,0,0.39-0.05,0.39-0.15c0-0.02-0.01-0.03-0.03-0.05c-0.09-0.18-0.13-0.34-0.13-0.45
		c0-0.35,0.19-0.53,0.57-0.53C451.75,619.82,451.95,620.03,451.95,620.45z M446.62,607.83c0-2.4-1.06-3.6-3.19-3.6
		c-0.57,0-0.95,0.08-1.16,0.23s-0.31,0.42-0.31,0.81v6.4c1.65,0.02,2.84-0.28,3.57-0.88C446.26,610.17,446.62,609.19,446.62,607.83z
		"/>
</g>
</svg>
