<?xml version="1.0" encoding="utf-8"?>
<!-- Generator: Adobe Illustrator 28.2.0, SVG Export Plug-In . SVG Version: 6.00 Build 0)  -->
<svg version="1.1" id="Layer_1" xmlns="http://www.w3.org/2000/svg" xmlns:xlink="http://www.w3.org/1999/xlink" x="0px" y="0px"
	 viewBox="0 0 962 1173" enable-background="new 0 0 962 1173" xml:space="preserve">
<g>
	<rect x="-42" y="-19.78" fill="#E4D2BC" width="1040.4" height="492.56"/>
</g>
<rect x="205" y="283" opacity="0.36" fill="#EE9C9B" width="783.17" height="920"/>
<rect x="-44" y="63.09" fill="#FFFFFF" width="1080.87" height="71.66"/>
<rect x="401.17" y="630.67" fill="#FFFFFF" width="515" height="188.55"/>
<g>
	<g opacity="0.18">
		<path fill="#666667" d="M81.07,397.14l0.42-6.69c11.2,0,17.37-4.02,18.51-12.06l14.47-108.98c0-8.93-5.61-13.4-16.81-13.4
			l0.85-6.69h55.32l-0.85,6.69c-11.63,0-18.23,5.66-19.79,16.97l-14.47,105.41c0,0.3-0.04,0.56-0.11,0.78
			c-0.07,0.22-0.11,0.48-0.11,0.78c0,5.21,3.83,7.82,11.49,7.82h8.72c5.81,0,10.85-0.26,15.11-0.78c4.25-0.52,8.15-1.97,11.7-4.35
			c3.54-2.38,6.84-6.09,9.89-11.15c3.05-5.05,6.35-12.11,9.89-21.18l5.11,0.89l-11.91,45.93H81.07z"/>
		<path fill="#666667" d="M189.19,397.14l0.6-4.68c8.34,0,13.05-3.59,14.15-10.79l9.68-72.69c0-3.54-0.99-6.2-2.98-7.97
			c-1.99-1.77-4.87-2.66-8.64-2.66l0.6-4.68h38.72l-0.6,4.68c-8.24,0-12.96,4.59-14.15,13.76l-9.53,69.57
			c-0.1,0.31-0.15,0.65-0.15,1.02s0,0.7,0,1.01c0,5.84,3.87,8.75,11.62,8.75l-0.45,4.68H189.19z"/>
		<path fill="#666667" d="M316.38,398.85l-47.51-87.86l-8.34,62.89c-0.3,2.08-0.45,3.85-0.45,5.31c0,8.84,3.92,13.27,11.77,13.27
			l-0.45,4.68h-32.32l0.6-4.68c7.54,0,12.16-6.2,13.85-18.6l9.23-68.94c0-2.19-0.92-3.83-2.75-4.92c-1.84-1.09-5.09-1.64-9.75-1.64
			l0.75-4.68h24.42l42,77.88l7.6-55.99c0.3-1.67,0.45-3.28,0.45-4.85c0-8.24-3.92-12.36-11.77-12.36l0.6-4.68h32.17l-0.74,4.68
			c-8.24,0-13.11,5.73-14.6,17.19l-11.17,82.22L316.38,398.85z"/>
		<path fill="#666667" d="M341.4,397.14l0.6-4.68c3.57,0,6.58-0.86,9.01-2.58c2.43-1.72,3.9-4.25,4.39-7.58l9.83-73.63
			c0-6.88-3.87-10.32-11.62-10.32l0.6-4.68h70.44l-2.98,29.18l-4.17,0.62c-0.1-5.72-0.75-10.14-1.94-13.27
			c-1.19-3.12-2.85-5.41-4.99-6.87c-2.14-1.46-4.67-2.31-7.6-2.58c-2.93-0.26-6.08-0.39-9.46-0.39h-3.57c-3.77,0-6.5,0.57-8.19,1.72
			c-1.69,1.15-2.68,2.91-2.98,5.31l-3.87,27.94c0,0.21-0.03,0.42-0.07,0.62c-0.05,0.21-0.07,0.42-0.07,0.62
			c0,2.29,0.89,3.43,2.68,3.43h4.62c2.28,0,4.39-0.13,6.33-0.39c1.94-0.26,3.72-0.94,5.36-2.03c1.64-1.09,3.08-2.76,4.32-4.99
			c1.24-2.24,2.26-5.28,3.05-9.13h5.06l-5.51,40.42h-4.92v-3.75c0-2.91-0.27-5.25-0.82-7.02c-0.55-1.77-1.42-3.12-2.61-4.06
			c-1.19-0.94-2.71-1.56-4.54-1.87c-1.84-0.31-4.05-0.47-6.63-0.47h-1.49c-4.27,0-6.6,1.72-7,5.15l-4.02,29.81
			c-0.1,0.42-0.15,0.94-0.15,1.56c0,4.89,3.28,7.33,9.83,7.33h4.02c5.66,0,10.28-0.49,13.85-1.48c3.57-0.99,6.58-2.55,9.01-4.68
			c2.43-2.13,4.49-4.81,6.18-8.04c1.69-3.22,3.52-7.02,5.51-11.39l3.43,1.25l-7.6,30.9H341.4z"/>
		<path fill="#666667" d="M438.2,397.14l0.45-4.68c4.37,0,7.97-1.19,10.8-3.59c2.83-2.39,4.59-5.98,5.29-10.77l9.98-71.95
			c0-1.98-0.4-3.43-1.19-4.37c-0.8-0.94-2.38-1.4-4.77-1.4c-11.62,0-20.31,8.9-26.06,26.69l-3.87-1.25l8.04-33.24
			c1.99,0.31,3.9,0.57,5.73,0.78c1.84,0.21,3.6,0.31,5.29,0.31h51.53c1.88,0,3.85-0.1,5.88-0.31c2.03-0.21,4.1-0.47,6.18-0.78
			L507,325.19l-3.87,0.62c0.1-0.73,0.15-1.43,0.15-2.11c0-0.68,0-1.33,0-1.95c0-13.94-6.06-20.91-18.17-20.91
			c-4.37,0-6.8,1.77-7.3,5.31l-9.68,71.95c-0.1,0.52-0.17,1.04-0.22,1.56c-0.05,0.52-0.07,1.04-0.07,1.56
			c0,7.49,4.22,11.24,12.66,11.24l-0.45,4.68H438.2z"/>
		<path fill="#666667" d="M543.49,397.14l0.3-4.68c1.29-0.21,2.66-0.41,4.1-0.62c1.44-0.21,2.78-0.47,4.02-0.78
			c1.24-0.31,2.26-0.7,3.05-1.17c0.79-0.47,1.19-1.01,1.19-1.64c0-0.52-0.03-1.09-0.08-1.72c-0.05-0.62-0.17-1.61-0.37-2.97
			l-3.28-19.2c-0.3-1.35-1.24-2.37-2.83-3.04c-1.59-0.68-3.23-1.01-4.91-1.01h-19.81c-3.48,0-5.76,1.35-6.85,4.04l-6.85,16.15
			c-0.2,0.62-0.42,1.37-0.67,2.25c-0.25,0.88-0.37,1.84-0.37,2.87c0,4.04,3.62,6.06,10.87,6.06l-0.6,5.46h-30.08l0.89-5.46
			c2.58-0.21,4.84-1.25,6.78-3.12c1.94-1.87,3.8-4.57,5.59-8.1l44.38-89.13l3.72,1.87l19.21,92.56c0.4,2.6,1.34,4.21,2.83,4.83
			c1.49,0.62,3.82,1.2,7,1.71l-0.45,4.84H543.49z M542.9,313.33l-16.08,32.77c-0.8,1.35-1.37,2.5-1.71,3.43
			c-0.35,0.94-0.52,1.72-0.52,2.34c0,1.25,1.54,1.87,4.62,1.87h16.83c2.88,0,4.32-0.73,4.32-2.19c0-0.52-0.07-1.17-0.22-1.95
			c-0.15-0.78-0.32-1.74-0.52-2.89L542.9,313.33z"/>
		<path fill="#666667" d="M74.48,600.8l-0.21-5.13l89.57-131.54c-2.7-0.59-5.39-1-8.08-1.23c-2.7-0.22-5.32-0.33-7.87-0.33h-8.72
			c-6.38,0-11.7,0.6-15.96,1.78c-4.26,1.19-7.91,3.09-10.96,5.69c-3.05,2.6-5.71,6.02-7.98,10.26c-2.27,4.24-4.54,9.33-6.81,15.27
			h-5.74l9.57-44.14c2.41,0.45,4.79,0.82,7.13,1.11c2.34,0.3,4.71,0.45,7.13,0.45h72.98l-0.85,6.91L98.94,590.54
			c2.13,0.6,4.25,1,6.38,1.23c2.13,0.22,4.11,0.33,5.96,0.33h14.68c6.52,0,12.3-1.41,17.34-4.24c5.03-2.82,9.43-6.24,13.19-10.26
			c3.76-4.01,6.88-8.17,9.36-12.49c2.48-4.31,4.5-8.03,6.06-11.15l5.74,1.78L166.6,600.8H74.48z"/>
		<path fill="#666667" d="M180.47,600.8l0.6-4.68c8.34,0,13.05-3.59,14.15-10.79l9.68-72.69c0-3.54-0.99-6.2-2.98-7.97
			c-1.99-1.77-4.87-2.66-8.64-2.66l0.6-4.68h38.72l-0.6,4.68c-8.24,0-12.96,4.59-14.15,13.75l-9.53,69.57
			c-0.1,0.31-0.15,0.65-0.15,1.02c0,0.37,0,0.7,0,1.01c0,5.84,3.87,8.75,11.62,8.75l-0.45,4.68H180.47z"/>
		<path fill="#666667" d="M292.91,545.55c6.35,1.15,11.42,3.54,15.19,7.18c3.77,3.64,5.66,8.43,5.66,14.36
			c0,6.45-1.04,11.86-3.13,16.23c-2.09,4.37-4.84,7.88-8.27,10.53c-3.43,2.65-7.27,4.58-11.54,5.77c-4.27,1.2-8.59,1.79-12.96,1.79
			c-3.77,0-7.42-0.03-10.95-0.08c-3.53-0.05-7.12-0.13-10.8-0.23c-3.67-0.11-7.42-0.18-11.24-0.23c-3.82-0.05-7.92-0.08-12.29-0.08
			l0.6-4.68c8.34,0,12.96-2.91,13.85-8.74l10.13-76.32c0-5.93-3.92-8.9-11.76-8.9l0.6-4.84h38.72c4.27,0,8.27,0.37,11.99,1.09
			c3.72,0.73,6.93,1.93,9.61,3.59c2.68,1.67,4.79,3.77,6.33,6.32c1.54,2.55,2.31,5.7,2.31,9.44c0,4.06-0.57,7.57-1.71,10.53
			c-1.14,2.96-2.73,5.52-4.77,7.65c-2.04,2.13-4.37,3.9-7,5.31c-2.63,1.4-5.44,2.63-8.42,3.67L292.91,545.55z M274.59,595.49
			c3.28,0,6.4-0.49,9.38-1.48c2.98-0.99,5.61-2.6,7.89-4.84c2.28-2.24,4.12-5.15,5.51-8.74c1.39-3.59,2.08-7.93,2.08-13.03
			c0-3.64-0.6-6.61-1.79-8.9c-1.19-2.29-2.88-4.08-5.06-5.38c-2.18-1.3-4.87-2.19-8.04-2.65c-3.18-0.47-6.7-0.7-10.57-0.7h-4.77
			c-2.58,0-4.17,1.98-4.77,5.93L260,589.41c0,0.21-0.03,0.34-0.07,0.39c-0.05,0.05-0.07,0.18-0.07,0.39c0,3.54,2.98,5.31,8.94,5.31
			H274.59z M281,503.42c-6.16,0-9.53,1.93-10.13,5.77l-4.17,30.12c0,1.46,0.22,2.55,0.67,3.28c0.45,0.73,1.36,1.09,2.75,1.09
			c6.45,0,11.71-0.47,15.79-1.4c4.07-0.94,7.27-2.42,9.61-4.45c2.33-2.03,3.92-4.66,4.77-7.88c0.84-3.22,1.27-7.13,1.27-11.71
			c0-9.88-5.06-14.83-15.19-14.83H281z"/>
		<path fill="#666667" d="M323.44,600.8l0.6-4.68c3.57,0,6.58-0.86,9.01-2.58c2.43-1.72,3.89-4.25,4.39-7.58l9.83-73.63
			c0-6.88-3.87-10.32-11.62-10.32l0.6-4.68h70.44l-2.98,29.18l-4.17,0.62c-0.1-5.72-0.74-10.14-1.94-13.27s-2.86-5.41-4.99-6.87
			c-2.14-1.46-4.67-2.31-7.6-2.58c-2.93-0.26-6.08-0.39-9.46-0.39h-3.57c-3.77,0-6.5,0.57-8.19,1.72c-1.69,1.15-2.68,2.91-2.98,5.31
			L356.95,539c0,0.21-0.03,0.42-0.07,0.62c-0.05,0.21-0.07,0.42-0.07,0.62c0,2.29,0.89,3.43,2.68,3.43h4.62
			c2.28,0,4.39-0.13,6.33-0.39c1.94-0.26,3.72-0.94,5.36-2.03s3.08-2.76,4.32-4.99c1.24-2.24,2.26-5.28,3.05-9.13h5.06l-5.51,40.42
			h-4.92v-3.75c0-2.91-0.27-5.25-0.82-7.02c-0.55-1.77-1.42-3.12-2.61-4.06s-2.71-1.56-4.54-1.87c-1.84-0.31-4.05-0.47-6.63-0.47
			h-1.49c-4.27,0-6.6,1.72-7,5.15l-4.02,29.81c-0.1,0.42-0.15,0.94-0.15,1.56c0,4.89,3.28,7.33,9.83,7.33h4.02
			c5.66,0,10.28-0.49,13.85-1.48c3.57-0.99,6.58-2.55,9.01-4.68c2.43-2.13,4.49-4.81,6.18-8.04c1.69-3.22,3.52-7.02,5.51-11.39
			l3.43,1.25l-7.6,30.9H323.44z"/>
		<path fill="#666667" d="M495,587.22c-0.1,1.25-0.52,2.76-1.27,4.53c-0.74,1.77-1.71,3.43-2.9,4.99s-2.61,2.91-4.24,4.06
			s-3.4,1.72-5.29,1.72c-5.36,0-9.21-1.07-11.54-3.2c-2.33-2.13-3.85-5.59-4.54-10.38c-0.6-3.95-1.09-8.19-1.49-12.72
			c-0.4-4.53-1.07-8.69-2.01-12.49c-0.95-3.8-2.31-6.97-4.1-9.52c-1.79-2.55-4.27-3.82-7.45-3.82H446c-2.48,0-3.92,0.57-4.32,1.72
			l-4.77,33.87c-0.1,0.42-0.15,0.99-0.15,1.72c0,5.62,3.72,8.43,11.17,8.43l-0.45,4.68h-37.68l0.6-4.68c3.28,0,6.11-0.86,8.49-2.58
			s3.82-4.24,4.32-7.57l10.28-75.69c0-5.41-3.82-8.12-11.47-8.12l0.6-4.84h16.68c2.98,0,5.51-0.02,7.6-0.08
			c2.08-0.05,4.1-0.13,6.03-0.23c1.94-0.1,3.97-0.18,6.11-0.23c2.13-0.05,4.79-0.08,7.97-0.08c3.57,0,6.85,0.55,9.83,1.64
			s5.56,2.63,7.74,4.6c2.18,1.98,3.87,4.32,5.06,7.02c1.19,2.71,1.79,5.62,1.79,8.74c0,4.16-0.72,7.86-2.16,11.08
			c-1.44,3.23-3.38,6.06-5.81,8.51c-2.43,2.45-5.31,4.45-8.64,6.01c-3.33,1.56-6.88,2.81-10.65,3.75v0.47
			c4.17,2.39,7.37,5.38,9.61,8.97c2.23,3.59,3.6,7.05,4.1,10.38c0.3,2.08,0.6,4.58,0.89,7.49c0.3,2.91,0.77,5.67,1.41,8.27
			c0.64,2.6,1.46,4.81,2.46,6.63c0.99,1.82,2.33,2.73,4.02,2.73c1.99,0,3.82-2.34,5.51-7.02L495,587.22z M452.86,544.3
			c2.68,0,5.44-0.26,8.27-0.78c2.83-0.52,5.44-1.66,7.82-3.43c2.38-1.77,4.32-4.26,5.81-7.49c1.49-3.22,2.23-7.59,2.23-13.11
			c0-3.12-0.52-5.72-1.56-7.8c-1.04-2.08-2.38-3.75-4.02-4.99c-1.64-1.25-3.5-2.11-5.58-2.58c-2.09-0.47-4.12-0.7-6.11-0.7h-6.4
			c-2.19,0-3.67,0.73-4.47,2.18c-0.79,1.46-1.39,3.64-1.79,6.55l-3.87,29.81c0,1.56,0.84,2.34,2.53,2.34H452.86z"/>
		<path fill="#666667" d="M573.19,602.52c-1.79-1.77-3.4-3.33-4.84-4.68c-1.44-1.35-2.66-2.55-3.65-3.59
			c-3.48,2.71-7.42,4.87-11.84,6.48c-4.42,1.61-8.86,2.42-13.33,2.42c-5.46,0-10.38-1.07-14.74-3.2c-4.37-2.13-8.09-5.12-11.17-8.97
			c-3.08-3.85-5.44-8.35-7.07-13.5s-2.46-10.79-2.46-16.93c0-7.91,1.34-15.79,4.02-23.64c2.68-7.85,6.38-14.88,11.09-21.07
			c4.71-6.19,10.2-11.21,16.46-15.06c6.26-3.85,12.96-5.77,20.11-5.77c3.77,0,7.32,0.78,10.65,2.34c3.33,1.56,6.53,3.38,9.61,5.46
			c3.58-3.75,7.1-5.93,10.57-6.55c0.89,4.06,1.34,8.9,1.34,14.51c0,3.02-0.15,6.3-0.45,9.83c-0.3,3.54-0.7,7.28-1.19,11.24h-4.62
			c-0.3-4.58-1.07-8.74-2.31-12.49c-1.24-3.75-2.93-6.97-5.06-9.68c-2.14-2.7-4.69-4.81-7.67-6.32c-2.98-1.51-6.4-2.26-10.28-2.26
			c-6.25,0-11.69,1.82-16.31,5.46c-4.62,3.64-8.44,8.35-11.47,14.12c-3.03,5.77-5.31,12.2-6.85,19.27
			c-1.54,7.08-2.31,14.1-2.31,21.07c0,5.1,0.47,9.83,1.41,14.2c0.94,4.37,2.41,8.14,4.39,11.31c1.99,3.17,4.47,5.67,7.45,7.49
			c2.98,1.82,6.55,2.73,10.72,2.73c3.08,0,6.08-0.47,9.01-1.4c2.93-0.94,5.53-2.44,7.82-4.53c2.28-2.08,4.14-4.78,5.58-8.12
			c1.44-3.33,2.16-7.33,2.16-12.02c0-8.12-3.92-12.17-11.77-12.17l0.6-4.68h38.42l-0.75,4.68c-4.47,0-7.7,1.01-9.68,3.04
			c-1.99,2.03-3.23,4.97-3.72,8.82l-4.32,32.15H573.19z"/>
		<path fill="#666667" d="M641.4,600.8l0.3-4.68c1.29-0.21,2.66-0.42,4.1-0.62c1.44-0.21,2.78-0.47,4.02-0.78
			c1.24-0.31,2.26-0.7,3.05-1.17c0.79-0.47,1.19-1.01,1.19-1.64c0-0.52-0.03-1.09-0.07-1.72c-0.05-0.62-0.17-1.61-0.37-2.97
			l-3.28-19.2c-0.3-1.35-1.24-2.37-2.83-3.04c-1.59-0.67-3.23-1.01-4.91-1.01h-19.81c-3.48,0-5.76,1.35-6.85,4.04l-6.85,16.15
			c-0.2,0.62-0.42,1.37-0.67,2.25c-0.25,0.88-0.37,1.84-0.37,2.87c0,4.04,3.62,6.06,10.87,6.06l-0.6,5.46h-30.08l0.89-5.46
			c2.58-0.21,4.84-1.25,6.78-3.12c1.94-1.87,3.8-4.57,5.58-8.1l44.38-89.13l3.72,1.87l19.21,92.56c0.4,2.6,1.34,4.21,2.83,4.83
			c1.49,0.62,3.82,1.2,7,1.71l-0.45,4.84H641.4z M640.8,516.99l-16.08,32.77c-0.8,1.35-1.37,2.5-1.71,3.43
			c-0.35,0.94-0.52,1.72-0.52,2.34c0,1.25,1.54,1.87,4.62,1.87h16.83c2.88,0,4.32-0.73,4.32-2.19c0-0.52-0.07-1.17-0.22-1.95
			c-0.15-0.78-0.32-1.74-0.52-2.89L640.8,516.99z"/>
	</g>
	<g>
		<path fill="#F2F2F2" d="M91.61,398.68l0.43-6.69c11.2,0,17.37-4.02,18.51-12.06l14.47-108.98c0-8.93-5.6-13.4-16.81-13.4
			l0.85-6.69h55.32l-0.85,6.69c-11.63,0-18.23,5.66-19.79,16.97l-14.47,105.41c0,0.3-0.04,0.56-0.11,0.78
			c-0.07,0.22-0.11,0.48-0.11,0.78c0,5.21,3.83,7.82,11.49,7.82h8.72c5.81,0,10.85-0.26,15.11-0.78c4.26-0.52,8.16-1.97,11.7-4.35
			c3.54-2.38,6.84-6.09,9.89-11.15c3.05-5.05,6.35-12.11,9.89-21.18l5.11,0.89l-11.92,45.93H91.61z"/>
		<path fill="#F2F2F2" d="M199.74,398.68l0.6-4.68c8.34,0,13.05-3.59,14.15-10.79l9.68-72.69c0-3.54-0.99-6.2-2.98-7.97
			c-1.99-1.77-4.87-2.66-8.64-2.66l0.6-4.68h38.72l-0.6,4.68c-8.24,0-12.96,4.59-14.15,13.76l-9.53,69.57
			c-0.1,0.31-0.15,0.65-0.15,1.02s0,0.7,0,1.01c0,5.84,3.87,8.75,11.62,8.75l-0.45,4.68H199.74z"/>
		<path fill="#F2F2F2" d="M326.92,400.4l-47.51-87.86l-8.34,62.89c-0.3,2.08-0.45,3.85-0.45,5.31c0,8.84,3.92,13.27,11.77,13.27
			l-0.45,4.68h-32.32l0.6-4.68c7.54,0,12.16-6.2,13.85-18.6l9.23-68.94c0-2.19-0.92-3.83-2.75-4.92c-1.84-1.09-5.09-1.64-9.75-1.64
			l0.74-4.68h24.42l42,77.88l7.6-55.99c0.3-1.67,0.45-3.28,0.45-4.85c0-8.24-3.92-12.36-11.77-12.36l0.6-4.68H357l-0.75,4.68
			c-8.24,0-13.11,5.73-14.59,17.19l-11.17,82.22L326.92,400.4z"/>
		<path fill="#F2F2F2" d="M351.94,398.68l0.6-4.68c3.57,0,6.58-0.86,9.01-2.58c2.43-1.72,3.9-4.25,4.39-7.58l9.83-73.63
			c0-6.88-3.87-10.32-11.62-10.32l0.6-4.68h70.44l-2.98,29.18l-4.17,0.62c-0.1-5.72-0.74-10.14-1.94-13.27
			c-1.19-3.12-2.86-5.41-4.99-6.87c-2.14-1.46-4.67-2.31-7.6-2.58c-2.93-0.26-6.08-0.39-9.46-0.39h-3.57c-3.78,0-6.5,0.57-8.19,1.72
			c-1.69,1.15-2.68,2.91-2.98,5.31l-3.87,27.94c0,0.21-0.03,0.42-0.08,0.62c-0.05,0.21-0.07,0.42-0.07,0.62
			c0,2.29,0.89,3.43,2.68,3.43h4.62c2.28,0,4.39-0.13,6.33-0.39c1.94-0.26,3.72-0.94,5.36-2.03c1.64-1.09,3.08-2.76,4.32-4.99
			c1.24-2.24,2.26-5.28,3.05-9.13h5.06l-5.51,40.42h-4.91v-3.75c0-2.91-0.28-5.25-0.82-7.02c-0.55-1.77-1.41-3.12-2.61-4.06
			c-1.19-0.94-2.71-1.56-4.54-1.87c-1.84-0.31-4.05-0.47-6.63-0.47h-1.49c-4.27,0-6.6,1.72-7,5.15l-4.02,29.81
			c-0.1,0.42-0.15,0.94-0.15,1.56c0,4.89,3.28,7.33,9.83,7.33h4.02c5.66,0,10.28-0.49,13.85-1.48c3.57-0.99,6.58-2.55,9.01-4.68
			c2.43-2.13,4.49-4.81,6.18-8.04c1.69-3.22,3.52-7.02,5.51-11.39l3.43,1.25l-7.6,30.9H351.94z"/>
		<path fill="#F2F2F2" d="M448.74,398.68l0.45-4.68c4.37,0,7.97-1.19,10.8-3.59c2.83-2.39,4.59-5.98,5.29-10.77l9.98-71.95
			c0-1.98-0.4-3.43-1.19-4.37c-0.8-0.94-2.38-1.4-4.77-1.4c-11.62,0-20.31,8.9-26.06,26.69l-3.87-1.25l8.04-33.24
			c1.98,0.31,3.89,0.57,5.73,0.78c1.84,0.21,3.6,0.31,5.29,0.31h51.53c1.88,0,3.85-0.1,5.88-0.31c2.03-0.21,4.1-0.47,6.18-0.78
			l-4.47,32.62l-3.87,0.62c0.1-0.73,0.15-1.43,0.15-2.11c0-0.68,0-1.33,0-1.95c0-13.94-6.06-20.91-18.17-20.91
			c-4.37,0-6.8,1.77-7.3,5.31l-9.68,71.95c-0.1,0.52-0.17,1.04-0.22,1.56c-0.05,0.52-0.07,1.04-0.07,1.56
			c0,7.49,4.22,11.24,12.66,11.24l-0.45,4.68H448.74z"/>
		<path fill="#F2F2F2" d="M554.03,398.68l0.3-4.68c1.29-0.21,2.66-0.41,4.1-0.62c1.44-0.21,2.78-0.47,4.02-0.78
			c1.24-0.31,2.26-0.7,3.05-1.17c0.79-0.47,1.19-1.01,1.19-1.64c0-0.52-0.03-1.09-0.07-1.72c-0.05-0.62-0.17-1.61-0.37-2.97
			l-3.28-19.2c-0.3-1.35-1.24-2.37-2.83-3.04c-1.59-0.68-3.23-1.01-4.92-1.01h-19.81c-3.48,0-5.76,1.35-6.85,4.04l-6.85,16.15
			c-0.2,0.62-0.42,1.37-0.67,2.25c-0.25,0.88-0.37,1.84-0.37,2.87c0,4.04,3.62,6.06,10.87,6.06l-0.6,5.46h-30.08l0.89-5.46
			c2.58-0.21,4.84-1.25,6.78-3.12c1.94-1.87,3.8-4.57,5.58-8.1l44.38-89.13l3.72,1.87l19.21,92.56c0.39,2.6,1.34,4.21,2.83,4.83
			c1.49,0.62,3.82,1.2,7,1.71l-0.45,4.84H554.03z M553.44,314.87l-16.08,32.77c-0.79,1.35-1.37,2.5-1.71,3.43
			c-0.35,0.94-0.52,1.72-0.52,2.34c0,1.25,1.54,1.87,4.62,1.87h16.83c2.88,0,4.32-0.73,4.32-2.19c0-0.52-0.07-1.17-0.22-1.95
			c-0.15-0.78-0.32-1.74-0.52-2.89L553.44,314.87z"/>
		<path fill="#F2F2F2" d="M85.02,602.34l-0.21-5.13l89.57-131.54c-2.7-0.59-5.39-1-8.08-1.23c-2.7-0.22-5.32-0.33-7.87-0.33h-8.72
			c-6.38,0-11.7,0.6-15.96,1.78c-4.25,1.19-7.91,3.09-10.96,5.69c-3.05,2.6-5.71,6.02-7.98,10.26c-2.27,4.24-4.54,9.33-6.81,15.27
			h-5.75l9.57-44.14c2.41,0.45,4.79,0.82,7.13,1.11c2.34,0.3,4.71,0.45,7.13,0.45h72.97l-0.85,6.91l-88.72,130.65
			c2.13,0.6,4.26,1,6.38,1.23c2.13,0.22,4.11,0.33,5.96,0.33h14.68c6.52,0,12.3-1.41,17.34-4.24c5.03-2.82,9.43-6.24,13.19-10.26
			c3.76-4.01,6.88-8.17,9.36-12.49c2.48-4.31,4.5-8.03,6.06-11.15l5.74,1.78l-11.06,45.04H85.02z"/>
		<path fill="#F2F2F2" d="M191.01,602.34l0.6-4.68c8.34,0,13.05-3.59,14.15-10.79l9.68-72.69c0-3.54-0.99-6.2-2.98-7.97
			c-1.99-1.77-4.87-2.66-8.64-2.66l0.6-4.68h38.72l-0.6,4.68c-8.24,0-12.96,4.59-14.15,13.75l-9.53,69.57
			c-0.1,0.31-0.15,0.65-0.15,1.02c0,0.37,0,0.7,0,1.01c0,5.84,3.87,8.75,11.62,8.75l-0.45,4.68H191.01z"/>
		<path fill="#F2F2F2" d="M303.45,547.1c6.35,1.15,11.42,3.54,15.19,7.18c3.77,3.64,5.66,8.43,5.66,14.36
			c0,6.45-1.04,11.86-3.13,16.23c-2.08,4.37-4.84,7.88-8.26,10.53c-3.43,2.65-7.27,4.58-11.54,5.77c-4.27,1.2-8.59,1.79-12.96,1.79
			c-3.77,0-7.42-0.03-10.95-0.08c-3.53-0.05-7.12-0.13-10.8-0.23c-3.67-0.11-7.42-0.18-11.24-0.23c-3.82-0.05-7.92-0.08-12.29-0.08
			l0.6-4.68c8.34,0,12.96-2.91,13.85-8.74l10.13-76.32c0-5.93-3.92-8.9-11.77-8.9l0.6-4.84h38.72c4.27,0,8.27,0.37,11.99,1.09
			c3.72,0.73,6.92,1.93,9.61,3.59c2.68,1.67,4.79,3.77,6.33,6.32c1.54,2.55,2.31,5.7,2.31,9.44c0,4.06-0.57,7.57-1.71,10.53
			c-1.14,2.96-2.73,5.52-4.77,7.65c-2.04,2.13-4.37,3.9-7,5.31c-2.63,1.4-5.44,2.63-8.41,3.67L303.45,547.1z M285.13,597.04
			c3.28,0,6.4-0.49,9.38-1.48c2.98-0.99,5.61-2.6,7.89-4.84c2.28-2.24,4.12-5.15,5.51-8.74c1.39-3.59,2.08-7.93,2.08-13.03
			c0-3.64-0.6-6.61-1.79-8.9c-1.19-2.29-2.88-4.08-5.06-5.38c-2.19-1.3-4.87-2.19-8.04-2.65s-6.7-0.7-10.57-0.7h-4.77
			c-2.58,0-4.17,1.98-4.77,5.93l-4.47,33.71c0,0.21-0.03,0.34-0.07,0.39c-0.05,0.05-0.08,0.18-0.08,0.39c0,3.54,2.98,5.31,8.94,5.31
			H285.13z M291.54,504.96c-6.16,0-9.53,1.93-10.13,5.77l-4.17,30.12c0,1.46,0.22,2.55,0.67,3.28c0.45,0.73,1.36,1.09,2.76,1.09
			c6.45,0,11.71-0.47,15.79-1.4c4.07-0.94,7.27-2.42,9.61-4.45c2.33-2.03,3.92-4.66,4.77-7.88c0.84-3.22,1.27-7.13,1.27-11.71
			c0-9.88-5.06-14.83-15.19-14.83H291.54z"/>
		<path fill="#F2F2F2" d="M333.98,602.34l0.6-4.68c3.57,0,6.58-0.86,9.01-2.58c2.43-1.72,3.9-4.25,4.39-7.58l9.83-73.63
			c0-6.88-3.87-10.32-11.62-10.32l0.6-4.68h70.44l-2.98,29.18l-4.17,0.62c-0.1-5.72-0.75-10.14-1.94-13.27s-2.85-5.41-4.99-6.87
			c-2.14-1.46-4.67-2.31-7.6-2.58c-2.93-0.26-6.08-0.39-9.46-0.39h-3.57c-3.77,0-6.5,0.57-8.19,1.72c-1.69,1.15-2.68,2.91-2.98,5.31
			l-3.87,27.94c0,0.21-0.03,0.42-0.08,0.62c-0.05,0.21-0.07,0.42-0.07,0.62c0,2.29,0.89,3.43,2.68,3.43h4.62
			c2.28,0,4.39-0.13,6.33-0.39c1.94-0.26,3.72-0.94,5.36-2.03s3.08-2.76,4.32-4.99c1.24-2.24,2.26-5.28,3.05-9.13h5.06l-5.51,40.42
			h-4.91v-3.75c0-2.91-0.28-5.25-0.82-7.02c-0.55-1.77-1.42-3.12-2.61-4.06s-2.71-1.56-4.54-1.87c-1.84-0.31-4.05-0.47-6.63-0.47
			h-1.49c-4.27,0-6.6,1.72-7,5.15l-4.02,29.81c-0.1,0.42-0.15,0.94-0.15,1.56c0,4.89,3.28,7.33,9.83,7.33h4.02
			c5.66,0,10.28-0.49,13.85-1.48c3.57-0.99,6.58-2.55,9.01-4.68c2.43-2.13,4.49-4.81,6.18-8.04c1.69-3.22,3.52-7.02,5.51-11.39
			l3.43,1.25l-7.6,30.9H333.98z"/>
		<path fill="#F2F2F2" d="M505.54,588.76c-0.1,1.25-0.52,2.76-1.27,4.53c-0.75,1.77-1.71,3.43-2.9,4.99s-2.61,2.91-4.25,4.06
			s-3.4,1.72-5.29,1.72c-5.36,0-9.21-1.07-11.54-3.2c-2.33-2.13-3.85-5.59-4.54-10.38c-0.6-3.95-1.09-8.19-1.49-12.72
			c-0.4-4.53-1.07-8.69-2.01-12.49c-0.94-3.8-2.31-6.97-4.1-9.52c-1.79-2.55-4.27-3.82-7.45-3.82h-4.17c-2.48,0-3.92,0.57-4.32,1.72
			l-4.77,33.87c-0.1,0.42-0.15,0.99-0.15,1.72c0,5.62,3.72,8.43,11.17,8.43l-0.45,4.68h-37.68l0.6-4.68c3.28,0,6.11-0.86,8.49-2.58
			s3.82-4.24,4.32-7.57l10.28-75.69c0-5.41-3.82-8.12-11.47-8.12l0.6-4.84h16.68c2.98,0,5.51-0.02,7.59-0.08
			c2.08-0.05,4.09-0.13,6.03-0.23c1.94-0.1,3.97-0.18,6.11-0.23c2.13-0.05,4.79-0.08,7.97-0.08c3.57,0,6.85,0.55,9.83,1.64
			s5.56,2.63,7.74,4.6c2.18,1.98,3.87,4.32,5.06,7.02c1.19,2.71,1.79,5.62,1.79,8.74c0,4.16-0.72,7.86-2.16,11.08
			c-1.44,3.23-3.38,6.06-5.81,8.51c-2.43,2.45-5.31,4.45-8.64,6.01c-3.33,1.56-6.88,2.81-10.65,3.75v0.47
			c4.17,2.39,7.37,5.38,9.61,8.97c2.23,3.59,3.6,7.05,4.1,10.38c0.3,2.08,0.6,4.58,0.89,7.49c0.3,2.91,0.77,5.67,1.42,8.27
			c0.64,2.6,1.46,4.81,2.46,6.63c0.99,1.82,2.33,2.73,4.02,2.73c1.99,0,3.82-2.34,5.51-7.02L505.54,588.76z M463.4,545.85
			c2.68,0,5.44-0.26,8.27-0.78c2.83-0.52,5.44-1.66,7.82-3.43c2.38-1.77,4.32-4.26,5.81-7.49c1.49-3.22,2.23-7.59,2.23-13.11
			c0-3.12-0.52-5.72-1.56-7.8c-1.04-2.08-2.38-3.75-4.02-4.99c-1.64-1.25-3.5-2.11-5.58-2.58s-4.12-0.7-6.11-0.7h-6.4
			c-2.18,0-3.67,0.73-4.47,2.18c-0.8,1.46-1.39,3.64-1.79,6.55l-3.87,29.81c0,1.56,0.84,2.34,2.53,2.34H463.4z"/>
		<path fill="#F2F2F2" d="M583.73,604.06c-1.79-1.77-3.4-3.33-4.84-4.68c-1.44-1.35-2.66-2.55-3.65-3.59
			c-3.48,2.71-7.42,4.87-11.84,6.48c-4.42,1.61-8.86,2.42-13.33,2.42c-5.46,0-10.38-1.07-14.74-3.2s-8.09-5.12-11.17-8.97
			c-3.08-3.85-5.44-8.35-7.07-13.5s-2.46-10.79-2.46-16.93c0-7.91,1.34-15.79,4.02-23.64c2.68-7.85,6.38-14.88,11.1-21.07
			c4.71-6.19,10.2-11.21,16.46-15.06c6.25-3.85,12.96-5.77,20.11-5.77c3.77,0,7.32,0.78,10.65,2.34c3.32,1.56,6.53,3.38,9.61,5.46
			c3.57-3.75,7.1-5.93,10.57-6.55c0.89,4.06,1.34,8.9,1.34,14.51c0,3.02-0.15,6.3-0.45,9.83c-0.3,3.54-0.7,7.28-1.19,11.24h-4.62
			c-0.3-4.58-1.07-8.74-2.31-12.49c-1.24-3.75-2.93-6.97-5.06-9.68c-2.14-2.7-4.69-4.81-7.67-6.32c-2.98-1.51-6.4-2.26-10.28-2.26
			c-6.26,0-11.69,1.82-16.31,5.46c-4.62,3.64-8.44,8.35-11.47,14.12c-3.03,5.77-5.31,12.2-6.85,19.27
			c-1.54,7.08-2.31,14.1-2.31,21.07c0,5.1,0.47,9.83,1.42,14.2c0.94,4.37,2.41,8.14,4.39,11.31c1.99,3.17,4.47,5.67,7.45,7.49
			c2.98,1.82,6.55,2.73,10.72,2.73c3.08,0,6.08-0.47,9.01-1.4c2.93-0.94,5.53-2.44,7.82-4.53c2.28-2.08,4.14-4.78,5.58-8.12
			c1.44-3.33,2.16-7.33,2.16-12.02c0-8.12-3.92-12.17-11.76-12.17l0.6-4.68h38.42l-0.74,4.68c-4.47,0-7.7,1.01-9.68,3.04
			c-1.99,2.03-3.23,4.97-3.72,8.82l-4.32,32.15H583.73z"/>
		<path fill="#F2F2F2" d="M651.94,602.34l0.3-4.68c1.29-0.21,2.65-0.42,4.1-0.62c1.44-0.21,2.78-0.47,4.02-0.78
			c1.24-0.31,2.26-0.7,3.05-1.17c0.79-0.47,1.19-1.01,1.19-1.64c0-0.52-0.03-1.09-0.08-1.72c-0.05-0.62-0.17-1.61-0.37-2.97
			l-3.28-19.2c-0.3-1.35-1.24-2.37-2.83-3.04c-1.59-0.67-3.23-1.01-4.92-1.01h-19.81c-3.48,0-5.76,1.35-6.85,4.04l-6.85,16.15
			c-0.2,0.62-0.42,1.37-0.67,2.25c-0.25,0.88-0.37,1.84-0.37,2.87c0,4.04,3.62,6.06,10.87,6.06l-0.6,5.46h-30.08l0.89-5.46
			c2.58-0.21,4.84-1.25,6.78-3.12c1.94-1.87,3.8-4.57,5.58-8.1l44.38-89.13l3.72,1.87l19.21,92.56c0.4,2.6,1.34,4.21,2.83,4.83
			c1.49,0.62,3.82,1.2,7,1.71l-0.45,4.84H651.94z M651.34,518.54l-16.08,32.77c-0.79,1.35-1.37,2.5-1.71,3.43
			c-0.35,0.94-0.52,1.72-0.52,2.34c0,1.25,1.54,1.87,4.62,1.87h16.83c2.88,0,4.32-0.73,4.32-2.19c0-0.52-0.07-1.17-0.22-1.95
			c-0.15-0.78-0.32-1.74-0.52-2.89L651.34,518.54z"/>
	</g>
</g>
<g>
	<rect x="812.83" y="616.27" fill="none" width="2.08" height="0"/>
</g>
<rect x="751.17" y="76.23" fill="#FFFFFF" width="106" height="47"/>
<rect x="-385.36" y="19.69" fill="none" width="1366.53" height="769.79"/>
<rect x="540.17" y="76.23" fill="#FFFFFF" width="126" height="47"/>
<g>
	<path fill="#4D4E4E" d="M574.31,104.67c0,0.1-0.02,0.68-0.06,1.76c-0.04,1.08-0.06,2.11-0.06,3.1v1.19
		c-2.05-0.14-6.1-0.22-12.17-0.22c-0.73,0-1.45,0-2.16,0c-0.71,0-1.19,0-1.44,0h-0.31c-0.4,0-0.6-0.1-0.6-0.29
		c0-0.13,0.06-0.2,0.19-0.23c0.06,0,0.46-0.03,1.19-0.1c0.54-0.05,0.87-0.18,0.99-0.4c0.11-0.22,0.17-0.78,0.17-1.7V87.5
		c0-0.7-0.09-1.11-0.27-1.25c-0.18-0.13-0.75-0.2-1.71-0.2c-0.33,0-0.5-0.1-0.5-0.31c0-0.2,0.23-0.31,0.69-0.31h5.36
		c0.19,0,1.37,0,3.54,0s3.64,0,4.39,0c0.63,0,1.2-0.05,1.72-0.14c0.04,1.03,0.14,2.46,0.28,4.28l0.12,1.55
		c0.02,0.12,0.03,0.28,0.03,0.47c0,0.24-0.09,0.36-0.28,0.36c-0.23,0-0.4-0.3-0.5-0.91c-0.4-2.17-1.05-3.55-1.94-4.13
		c-0.67-0.43-2.42-0.65-5.27-0.65h-2.57v10.58h0.75c2.34,0,3.77-0.2,4.28-0.61c0.51-0.41,0.86-1.6,1.05-3.56
		c0.04-0.5,0.16-0.76,0.34-0.76c0.23,0,0.34,0.22,0.34,0.65s-0.02,1.07-0.06,1.91c-0.04,0.84-0.06,1.48-0.06,1.91
		c0,2.57,0.03,4.33,0.1,5.29c0.02,0.24,0.02,0.44,0.02,0.61c0,0.31-0.11,0.47-0.34,0.47c-0.15,0-0.25-0.1-0.3-0.31
		s-0.14-0.87-0.26-2c-0.17-1.42-0.68-2.29-1.53-2.63c-0.38-0.14-1.35-0.22-2.93-0.22h-1.4v12.06c4.6,0,7.29-0.11,8.09-0.32
		c1.38-0.36,2.16-1.87,2.35-4.55c0.04-0.59,0.18-0.89,0.41-0.89C574.2,103.91,574.31,104.16,574.31,104.67z"/>
	<path fill="#4D4E4E" d="M589.07,110.24c0,0.15-0.21,0.23-0.61,0.23c-0.5,0-1.01,0-1.53,0c-0.52,0-1.03,0-1.53,0
		c-0.64,0-1.39,0-2.24,0c-0.42,0-0.74,0-0.94,0c-0.42,0-0.64-0.08-0.64-0.24c0-0.15,0.17-0.21,0.5-0.19h0.99
		c0.35,0.02,0.56,0.01,0.64-0.03c0.22-0.05,0.33-0.21,0.33-0.48c0-0.25-0.19-0.8-0.57-1.65l-2.34-5.45l-2.76,5.36
		c-0.48,0.96-0.72,1.53-0.72,1.7c0,0.31,0.24,0.49,0.72,0.54c-0.03,0,0.3,0,0.99,0c0.26,0,0.39,0.08,0.39,0.23
		c0,0.14-0.11,0.2-0.33,0.2h-2.48h-1.87c-0.23,0-0.35-0.08-0.35-0.23c0-0.15,0.19-0.25,0.57-0.3c0.26-0.03,0.53-0.07,0.79-0.1
		c0.22-0.07,0.4-0.18,0.55-0.33c0.28-0.29,1.18-1.93,2.7-4.94c0.56-1.11,1.06-2.08,1.5-2.9l-2.49-5.4c-0.52-1.1-0.87-1.82-1.07-2.15
		c-0.2-0.33-0.41-0.54-0.63-0.64c-0.24-0.05-0.7-0.08-1.39-0.08c-0.18,0-0.27-0.07-0.27-0.2c0-0.18,0.12-0.28,0.35-0.28
		c0.32,0,0.99,0.02,2,0.05c0.5,0.02,0.84,0.03,1.03,0.03c1.71,0,2.66-0.03,2.83-0.08h0.31c0.31,0,0.46,0.07,0.46,0.2
		c0,0.19-0.26,0.28-0.77,0.28c-0.96-0.02-1.44,0.12-1.44,0.4c0,0.3,0.83,2.28,2.48,5.92c0.59-1.01,1.25-2.21,1.96-3.6
		c0.71-1.39,1.07-2.17,1.07-2.34c0-0.25-0.4-0.38-1.21-0.38c-0.39,0-0.59-0.08-0.59-0.23c0-0.17,0.14-0.25,0.42-0.25
		c0.19,0,0.47,0.01,0.83,0.04c0.37,0.03,0.64,0.04,0.83,0.04c0.07,0,0.41-0.01,1.02-0.04c0.61-0.02,0.96-0.04,1.06-0.04h0.2
		c0.25,0,0.37,0.07,0.37,0.21c0,0.14-0.1,0.21-0.29,0.21c-0.03,0-0.26,0.01-0.7,0.03c-0.5,0.02-0.84,0.12-1.02,0.3
		c-0.18,0.19-0.49,0.73-0.93,1.62c-0.57,1.18-1.4,2.74-2.5,4.68l-0.24,0.43c0.1,0.22,1.09,2.43,2.96,6.63
		c0.64,1.45,1.1,2.31,1.38,2.58c0.28,0.28,0.83,0.41,1.65,0.39C588.89,110.01,589.07,110.09,589.07,110.24z"/>
	<path fill="#4D4E4E" d="M599.58,97.16c0,1.63-0.61,2.9-1.82,3.81c-0.76,0.57-1.73,0.86-2.9,0.86c-0.5,0-1.06-0.06-1.69-0.18v7.16
		c0,0.39,0.01,0.63,0.04,0.73c0.07,0.24,0.23,0.38,0.48,0.43c0.42,0.07,0.83,0.1,1.23,0.1c0.16,0,0.24,0.06,0.24,0.18
		c0,0.17-0.1,0.25-0.31,0.25c-0.09,0-0.16,0-0.22,0c-0.8,0-2.32,0-4.54,0h-0.29c-0.44,0-0.66-0.08-0.66-0.25
		c0-0.12,0.15-0.18,0.46-0.18c0.69,0,1.08-0.08,1.18-0.23c0.12-0.07,0.18-0.24,0.2-0.5V94.44c0-0.52-0.12-0.84-0.37-0.96
		c-0.15-0.07-0.4-0.1-0.77-0.1h-0.22c-0.04,0-0.09,0-0.15,0c-0.22,0-0.33-0.07-0.33-0.2c0-0.15,0.21-0.23,0.61-0.23h4.83
		c1.67,0,2.89,0.34,3.67,1.01C599.14,94.71,599.58,95.78,599.58,97.16z M597.28,97.18c0-2.54-0.92-3.8-2.77-3.8
		c-0.61,0-1.02,0.12-1.21,0.35c-0.09,0.1-0.13,0.36-0.13,0.79v6.75c0.12,0.02,0.25,0.03,0.39,0.03c0.97,0,1.79-0.24,2.46-0.74
		C596.86,99.95,597.28,98.82,597.28,97.18z"/>
	<path fill="#4D4E4E" d="M611.87,108.47c0,0.44-0.02,1.16-0.07,2.17h-0.24c-0.09,0-0.3-0.02-0.63-0.05s-0.72-0.05-1.14-0.05
		l-9.11-0.08c-0.25,0-0.37-0.08-0.37-0.23c0-0.12,0.2-0.19,0.59-0.23c0.56-0.03,0.89-0.1,1-0.21c0.11-0.11,0.17-0.42,0.17-0.94
		V94.69c0-0.62-0.06-0.98-0.17-1.08c-0.11-0.1-0.5-0.15-1.17-0.15c-0.28,0-0.42-0.09-0.42-0.28c0-0.15,0.09-0.23,0.26-0.23h0.2
		c0.48,0.05,1.44,0.08,2.88,0.08c0.13,0,0.39-0.01,0.77-0.04c0.38-0.03,0.7-0.04,0.94-0.04h0.24c0.26,0,0.39,0.08,0.39,0.25
		c0,0.1-0.04,0.16-0.12,0.19c-0.08,0.03-0.33,0.05-0.76,0.06c-0.42,0.02-0.68,0.1-0.76,0.24c-0.08,0.14-0.12,0.58-0.12,1.32v14.87
		c0.39,0.02,0.94,0.03,1.65,0.03c1.71,0,2.92-0.1,3.62-0.3s1.18-0.58,1.43-1.13c0.25-0.55,0.4-1.3,0.44-2.24
		c0.01-0.22,0.1-0.33,0.25-0.33c0.18,0,0.27,0.13,0.25,0.38v0.63c0,0.03,0,0.11,0,0.23s0,0.24,0,0.35V108.47z"/>
	<path fill="#4D4E4E" d="M626.97,101.82c0,2.5-0.66,4.62-1.96,6.35c-1.31,1.73-2.92,2.6-4.82,2.6c-2.02,0-3.72-0.88-5.09-2.63
		c-1.38-1.76-2.06-3.92-2.06-6.49c0-2.62,0.66-4.77,1.99-6.44c1.32-1.67,3.02-2.51,5.08-2.51c1.95,0,3.58,0.87,4.89,2.62
		C626.31,97.07,626.97,99.23,626.97,101.82z M624.51,101.95c0-3.08-0.55-5.48-1.65-7.2c-0.69-1.08-1.65-1.62-2.88-1.62
		c-1.17,0-2.08,0.41-2.72,1.24c-1.19,1.52-1.78,3.98-1.78,7.41c0,2.71,0.41,4.82,1.24,6.32s1.99,2.25,3.48,2.25
		c1.39,0,2.44-0.71,3.14-2.12C624.12,106.65,624.51,104.56,624.51,101.95z"/>
	<path fill="#4D4E4E" d="M640.93,109.71c0,0.71-0.51,1.06-1.54,1.06c-1.14,0-2.03-0.55-2.68-1.64c-0.28-0.47-0.46-0.92-0.54-1.36
		c-0.08-0.44-0.2-1.55-0.36-3.33c-0.09-1.07-0.39-1.83-0.9-2.28c-0.51-0.45-1.35-0.68-2.5-0.72v7.94c0,0.34,0.23,0.55,0.7,0.63
		c0.13,0.02,0.47,0.03,1.01,0.05c0.19,0,0.29,0.07,0.29,0.2c0,0.15-0.12,0.23-0.37,0.23h-0.26c-0.13,0-0.77,0-1.91,0
		c-0.22,0-0.59,0-1.12,0c-0.51,0-0.85,0-1.01,0h-0.86c-0.32,0-0.48-0.08-0.48-0.23c0-0.12,0.21-0.18,0.64-0.2
		c0.69-0.02,1.06-0.12,1.12-0.3c0.06-0.08,0.09-0.41,0.09-0.98V94.86c0-0.67-0.06-1.08-0.19-1.21c-0.12-0.13-0.5-0.21-1.13-0.23
		c-0.37,0-0.55-0.08-0.55-0.23c0-0.17,0.12-0.25,0.35-0.25c0.04,0,0.11,0.01,0.2,0.03l2.92,0.08c0.29,0,0.7-0.01,1.23-0.03
		c0.58-0.04,0.99-0.07,1.23-0.07c1.36,0,2.44,0.35,3.24,1.05c0.8,0.7,1.2,1.64,1.2,2.83c0,1.18-0.41,2.15-1.23,2.91
		c-0.82,0.76-1.93,1.21-3.34,1.35c-0.13,0.02-0.21,0.04-0.22,0.08c0,0.07,0.07,0.1,0.22,0.1c1.54,0.3,2.59,0.92,3.17,1.86
		c0.58,0.94,0.96,2.62,1.15,5.07c0.12,1.38,0.53,2.07,1.23,2.07c0.22,0,0.33-0.05,0.33-0.15c0-0.02-0.01-0.03-0.02-0.05
		c-0.07-0.18-0.11-0.34-0.11-0.45c0-0.35,0.16-0.53,0.48-0.53C640.75,109.08,640.93,109.29,640.93,109.71z M636.39,97.08
		c0-2.4-0.91-3.6-2.72-3.6c-0.48,0-0.81,0.08-0.99,0.23c-0.18,0.15-0.26,0.42-0.26,0.81v6.4c1.4,0.02,2.42-0.28,3.04-0.88
		C636.08,99.43,636.39,98.44,636.39,97.08z"/>
	<path fill="#4D4E4E" d="M653.13,106.41c0,0.07-0.01,0.48-0.04,1.23c-0.03,0.76-0.04,1.48-0.04,2.17v0.83
		c-1.43-0.1-4.27-0.15-8.51-0.15c-0.51,0-1.02,0-1.51,0c-0.5,0-0.83,0-1.01,0h-0.22c-0.28,0-0.42-0.07-0.42-0.2
		c0-0.09,0.04-0.14,0.13-0.16c0.04,0,0.32-0.02,0.83-0.07c0.38-0.03,0.61-0.13,0.69-0.28s0.12-0.55,0.12-1.19V94.39
		c0-0.49-0.06-0.78-0.19-0.87c-0.12-0.09-0.52-0.14-1.2-0.14c-0.23,0-0.35-0.07-0.35-0.21c0-0.14,0.16-0.21,0.48-0.21h3.75
		c0.13,0,0.96,0,2.48,0s2.55,0,3.07,0c0.44,0,0.84-0.03,1.21-0.1c0.03,0.72,0.09,1.72,0.2,3l0.09,1.08
		c0.01,0.08,0.02,0.19,0.02,0.33c0,0.17-0.07,0.25-0.2,0.25c-0.16,0-0.28-0.21-0.35-0.63c-0.28-1.52-0.73-2.49-1.36-2.89
		c-0.47-0.3-1.7-0.46-3.69-0.46h-1.8v7.41h0.53c1.64,0,2.64-0.14,3-0.43c0.36-0.29,0.6-1.12,0.73-2.49
		c0.03-0.35,0.11-0.53,0.24-0.53c0.16,0,0.24,0.15,0.24,0.45s-0.01,0.75-0.04,1.34c-0.03,0.59-0.04,1.03-0.04,1.34
		c0,1.8,0.02,3.03,0.07,3.7c0.01,0.17,0.02,0.31,0.02,0.43c0,0.22-0.08,0.33-0.24,0.33c-0.1,0-0.17-0.07-0.21-0.21
		c-0.04-0.14-0.1-0.61-0.19-1.4c-0.12-0.99-0.47-1.6-1.07-1.84c-0.26-0.1-0.95-0.15-2.05-0.15h-0.98v8.44
		c3.22,0,5.11-0.07,5.66-0.22c0.97-0.25,1.51-1.31,1.65-3.19c0.03-0.41,0.12-0.62,0.29-0.62
		C653.06,105.88,653.13,106.05,653.13,106.41z"/>
</g>
<g>
	<path fill="#4D4E4E" d="M788.31,112.85c0,0.21-0.16,0.31-0.47,0.31c-0.21,0-0.4-0.01-0.56-0.04l-3.98-0.15l-3.98,0.14
		c-0.15,0.02-0.3,0.04-0.47,0.04c-0.42,0-0.63-0.13-0.63-0.38c0-0.28,0.28-0.42,0.85-0.42c1.84-0.02,2.76-0.23,2.76-0.63
		c0-0.02-0.02-0.12-0.06-0.28l-0.26-0.95l-0.16-0.5c-0.19-0.75-0.65-2.39-1.37-4.94l-6.7-0.01c-1.26,3.84-1.88,6.05-1.89,6.62
		c0,0.34,0.13,0.54,0.38,0.61c0.06,0.02,0.58,0.07,1.57,0.15c0.61,0.02,0.91,0.15,0.91,0.36c0,0.24-0.27,0.36-0.82,0.36
		c-0.96,0-2.08-0.05-3.35-0.15c-0.31-0.02-0.64-0.04-0.97-0.04c-0.33,0-0.66,0.04-0.97,0.12c-0.17,0.04-0.3,0.06-0.41,0.06
		c-0.29,0-0.44-0.11-0.44-0.33s0.33-0.34,0.99-0.36c0.66-0.02,1.13-0.14,1.43-0.34c0.29-0.2,0.52-0.6,0.69-1.17
		c2.7-8.86,4.89-15.97,6.58-21.34c0.05-0.28,0.15-0.6,0.29-0.96l0.13-0.66c0.06-0.26,0.15-0.4,0.25-0.4c0.06,0,0.11,0.07,0.16,0.22
		c0.27,0.94,0.89,2.89,1.84,5.87c0.75,2.33,2.62,8.17,5.6,17.54c0.17,0.54,0.38,0.89,0.64,1.04s0.8,0.24,1.61,0.26
		C788.03,112.53,788.31,112.64,788.31,112.85z M779.79,104.22c-0.34-1.08-0.9-2.86-1.68-5.35l-1.5-4.99
		c-0.88,2.65-1.93,6.1-3.16,10.34L779.79,104.22z"/>
	<path fill="#4D4E4E" d="M798.42,108.5c0,1.71-0.68,2.98-2.04,3.8c-0.66,0.4-1.6,0.65-2.83,0.75c-0.34,0.02-1.33,0.02-2.99,0.02
		l-2.68,0c-0.25,0-0.37-0.07-0.37-0.21c0-0.14,0.23-0.21,0.68-0.21c0.53,0,0.84-0.06,0.93-0.19s0.14-0.51,0.14-1.15l0.01-13.63
		c0-0.74-0.03-1.17-0.09-1.29c-0.1-0.2-0.47-0.31-1.12-0.33c-0.39,0-0.59-0.09-0.59-0.27c0-0.16,0.18-0.24,0.55-0.24
		c0.01,0,0.1,0,0.26,0c0.16,0.05,0.31,0.08,0.44,0.08l4.28,0c1.58,0.02,2.76,0.32,3.53,0.91c0.91,0.69,1.36,1.69,1.36,3
		c0,1.14-0.38,2.08-1.12,2.81c-0.75,0.73-1.79,1.19-3.14,1.37l0,0.15c1.33,0.1,2.37,0.42,3.12,0.96
		C797.87,105.66,798.42,106.88,798.42,108.5z M796.12,108.23c0-2.12-0.74-3.43-2.23-3.93c-0.44-0.15-1.25-0.23-2.44-0.23l-0.01,7.51
		c0,0.49,0.04,0.76,0.13,0.83c0.15,0.12,0.56,0.18,1.23,0.18c1.01,0,1.82-0.37,2.42-1.11S796.12,109.65,796.12,108.23z
		 M795.49,99.81c0-1.61-0.32-2.69-0.96-3.23c-0.34-0.29-0.97-0.43-1.91-0.43c-0.25,0-0.64,0.02-1.16,0.07l-0.01,7.31h0.2l1.21-0.05
		c0.83-0.03,1.48-0.37,1.94-1.02C795.25,101.82,795.49,100.93,795.49,99.81z"/>
	<path fill="#4D4E4E" d="M814.31,104.46c0,2.5-0.66,4.62-1.97,6.35c-1.31,1.73-2.92,2.59-4.82,2.59c-2.02,0-3.72-0.88-5.09-2.64
		c-1.37-1.76-2.06-3.92-2.06-6.49c0-2.62,0.67-4.77,1.99-6.44c1.33-1.67,3.02-2.5,5.08-2.5c1.95,0,3.58,0.88,4.89,2.63
		C813.66,99.71,814.32,101.88,814.31,104.46z M811.86,104.59c0-3.08-0.54-5.49-1.64-7.21c-0.69-1.08-1.64-1.62-2.87-1.62
		c-1.17,0-2.08,0.41-2.72,1.24c-1.19,1.52-1.78,3.98-1.79,7.4c0,2.71,0.41,4.82,1.23,6.32c0.83,1.5,1.98,2.25,3.48,2.25
		c1.39,0,2.44-0.71,3.14-2.12C811.46,109.29,811.85,107.2,811.86,104.59z"/>
	<path fill="#4D4E4E" d="M829.66,95.86c0,0.14-0.13,0.2-0.39,0.2c-0.04,0-0.19,0-0.44,0c-0.07,0-0.18,0-0.31,0
		c-0.37,0-0.59,0.11-0.66,0.33c-0.03,0.12-0.04,0.31-0.04,0.58l-0.01,9.44c0,2.45-0.4,4.23-1.2,5.35c-0.8,1.11-2.08,1.67-3.85,1.67
		c-2.12,0-3.61-0.69-4.48-2.07c-0.57-0.92-0.85-2.45-0.85-4.56l0.01-10.1c-0.04-0.3-0.22-0.49-0.53-0.56
		c-0.09-0.02-0.36-0.02-0.82-0.03c-0.25-0.03-0.38-0.12-0.38-0.25c0-0.15,0.1-0.23,0.31-0.23l0.39,0c0.07,0,0.24,0,0.5,0
		c0.23,0,0.45,0,0.64,0l3.14,0c0.07,0,0.16,0,0.26,0c0.25,0,0.37,0.09,0.37,0.28c0,0.12-0.04,0.18-0.13,0.2
		c-0.09,0.02-0.38,0.03-0.88,0.05c-0.21,0-0.34,0.02-0.42,0.05c-0.15,0.07-0.23,0.18-0.24,0.35c-0.01,0.07-0.02,0.54-0.02,1.43
		l-0.01,9c0,2.21,0.3,3.72,0.92,4.52c0.61,0.8,1.53,1.21,2.74,1.21c2.22,0,3.48-1.44,3.78-4.34c0.04-0.43,0.07-2.27,0.07-5.52
		l0-1.43l0-2.01l0-1.73c0-0.17,0-0.35,0-0.55c0-0.22,0-0.31,0-0.28c0-0.37-0.15-0.59-0.46-0.68c-0.1-0.03-0.4-0.05-0.9-0.05
		c-0.29,0-0.44-0.09-0.44-0.28c0-0.15,0.1-0.23,0.31-0.23c0.12,0,0.21,0,0.29,0c0.18,0,0.82,0,1.92,0c0.16,0,0.35,0,0.55,0
		c0.19,0,0.33,0,0.42,0h0.33C829.49,95.63,829.66,95.71,829.66,95.86z"/>
	<path fill="#4D4E4E" d="M842.39,100.13c0,0.22-0.09,0.33-0.26,0.33c-0.18,0-0.3-0.22-0.37-0.65c-0.03-0.3-0.06-0.6-0.09-0.91
		c-0.1-0.6-0.27-1.12-0.5-1.54c-0.31-0.55-0.81-0.91-1.51-1.06c-0.45-0.1-0.82-0.14-1.1-0.13c-0.69,0.02-1.11,0.04-1.25,0.05
		l-0.01,15.22c0,0.61,0.14,0.98,0.42,1.14c0.15,0.08,0.56,0.14,1.23,0.15c0.18,0.02,0.26,0.09,0.26,0.21c0,0.14-0.12,0.21-0.35,0.21
		c-0.12,0-0.22-0.01-0.31-0.03c-0.88-0.03-1.5-0.05-1.87-0.05c-0.48,0-0.94,0.01-1.36,0.04c-0.42,0.02-0.97,0.04-1.62,0.04
		c-0.34,0-0.5-0.07-0.5-0.2c0-0.15,0.31-0.24,0.94-0.25c0.45,0,0.75-0.11,0.88-0.33c0.07-0.13,0.11-0.48,0.11-1.03l0.01-15.12
		c-1.45,0.02-2.35,0.1-2.7,0.25c-0.92,0.39-1.46,1.42-1.63,3.1c-0.04,0.5-0.15,0.76-0.31,0.76c-0.18,0-0.26-0.18-0.26-0.53
		c0-0.19,0.01-0.37,0.02-0.55l0.04-0.58c0.04-0.77,0.11-1.79,0.2-3.05l0.99,0l4.48,0.08c0.53,0.02,1.35,0.02,2.46,0l3.64-0.07
		c0.03,0.94,0.12,2.34,0.28,4.18c0,0.05,0.01,0.11,0.02,0.19C842.38,100.06,842.39,100.11,842.39,100.13z"/>
</g>
<g>
	<path fill="#4D4E4E" d="M678.39,694.58c0,0.18-0.29,0.27-0.88,0.27c-1.33,0-2.06,0.19-2.21,0.57c-0.1,0.26-0.15,1.3-0.15,3.12v1.15
		c-1.28,1.05-2.49,1.79-3.64,2.22c-1.15,0.43-2.54,0.64-4.16,0.64c-3.88,0-6.95-1.13-9.24-3.4c-2.28-2.27-3.42-5.35-3.42-9.23
		c0-3.94,1.12-7.12,3.35-9.54c2.23-2.42,5.18-3.64,8.83-3.64c1.59,0,3.34,0.43,5.23,1.3c0.56,0.26,1.03,0.4,1.4,0.4
		c0.46,0,0.77-0.29,0.92-0.86c0.12-0.34,0.27-0.5,0.44-0.5c0.2,0,0.29,0.11,0.29,0.32c0,0.02-0.02,0.25-0.06,0.68
		c-0.15,1.42-0.22,2.46-0.19,3.13v1.94c0.02,0.98,0.01,1.6-0.04,1.84c-0.05,0.24-0.18,0.36-0.41,0.36s-0.34-0.17-0.37-0.51
		c-0.12-2.31-0.81-4.14-2.06-5.48c-1.25-1.34-2.89-2.01-4.93-2.01c-2.55,0-4.57,1.11-6.05,3.34s-2.23,5.27-2.23,9.12
		c0,3.73,0.75,6.69,2.26,8.86s3.55,3.27,6.13,3.27c1.96,0,3.31-0.55,4.05-1.67c0.37-0.55,0.55-1.56,0.55-3
		c0-1.21-0.12-1.92-0.35-2.13s-1.04-0.31-2.41-0.29c-0.34,0-0.56-0.02-0.66-0.05c-0.1-0.03-0.15-0.1-0.15-0.21
		c0-0.24,0.27-0.35,0.81-0.35h0.66c0.54,0.02,1.89,0.02,4.05,0h2.94c0.17,0,0.36,0,0.55,0s0.33,0,0.4,0
		C678.15,694.24,678.39,694.35,678.39,694.58z"/>
	<path fill="#4D4E4E" d="M692.88,701.36c0,0.71-0.6,1.06-1.8,1.06c-1.34,0-2.39-0.55-3.14-1.64c-0.33-0.47-0.54-0.92-0.63-1.36
		c-0.09-0.44-0.24-1.55-0.42-3.33c-0.1-1.08-0.46-1.84-1.06-2.28c-0.6-0.44-1.58-0.68-2.94-0.72v7.94c0,0.34,0.27,0.55,0.82,0.63
		c0.16,0.02,0.55,0.03,1.19,0.05c0.22,0,0.33,0.07,0.33,0.2c0,0.15-0.15,0.23-0.44,0.23h-0.31c-0.16,0-0.9,0-2.24,0
		c-0.26,0-0.7,0-1.31,0c-0.6,0-1,0-1.18,0h-1c-0.38,0-0.57-0.08-0.57-0.23c0-0.12,0.25-0.19,0.75-0.2c0.81-0.02,1.24-0.12,1.31-0.3
		c0.07-0.08,0.1-0.41,0.1-0.98v-13.91c0-0.67-0.07-1.08-0.22-1.21c-0.15-0.13-0.59-0.21-1.33-0.23c-0.43,0-0.64-0.08-0.64-0.23
		c0-0.17,0.14-0.25,0.41-0.25c0.05,0,0.13,0.01,0.23,0.02l3.43,0.08c0.34,0,0.82-0.01,1.44-0.03c0.69-0.04,1.17-0.07,1.44-0.07
		c1.6,0,2.86,0.35,3.8,1.05s1.4,1.64,1.4,2.83c0,1.18-0.48,2.15-1.44,2.91c-0.96,0.76-2.27,1.21-3.92,1.35
		c-0.15,0.02-0.24,0.04-0.26,0.08c0,0.07,0.09,0.1,0.26,0.1c1.8,0.3,3.04,0.92,3.72,1.86c0.68,0.93,1.13,2.62,1.35,5.07
		c0.14,1.38,0.62,2.07,1.44,2.07c0.26,0,0.39-0.05,0.39-0.15c0-0.02-0.01-0.03-0.03-0.05c-0.09-0.18-0.13-0.34-0.13-0.45
		c0-0.35,0.19-0.53,0.57-0.53C692.68,700.73,692.88,700.94,692.88,701.36z M687.55,688.74c0-2.4-1.06-3.6-3.19-3.6
		c-0.57,0-0.95,0.08-1.16,0.23s-0.31,0.42-0.31,0.81v6.4c1.65,0.02,2.84-0.28,3.57-0.88C687.19,691.08,687.55,690.1,687.55,688.74z"
		/>
	<path fill="#4D4E4E" d="M709.39,701.96c0,0.14-0.13,0.22-0.39,0.22c-0.17,0-0.33-0.01-0.46-0.03l-3.27-0.1l-3.27,0.1
		c-0.12,0.02-0.25,0.03-0.39,0.03c-0.34,0-0.52-0.09-0.52-0.26c0-0.19,0.23-0.29,0.7-0.29c1.51-0.02,2.27-0.17,2.27-0.44
		c0-0.02-0.02-0.08-0.05-0.2l-0.21-0.67l-0.13-0.35c-0.16-0.52-0.53-1.67-1.13-3.46h-5.51c-1.03,2.69-1.54,4.23-1.54,4.64
		c0,0.24,0.1,0.38,0.31,0.43c0.05,0.02,0.48,0.05,1.29,0.1c0.5,0.02,0.75,0.1,0.75,0.25c0,0.17-0.22,0.25-0.67,0.25
		c-0.79,0-1.71-0.03-2.76-0.1c-0.26-0.02-0.52-0.02-0.8-0.02c-0.28,0-0.54,0.03-0.8,0.08c-0.14,0.03-0.25,0.04-0.33,0.04
		c-0.24,0-0.36-0.08-0.36-0.23c0-0.15,0.27-0.24,0.81-0.25s0.93-0.1,1.17-0.24c0.24-0.14,0.43-0.42,0.57-0.82
		c2.21-6.2,4.01-11.18,5.39-14.94c0.04-0.2,0.12-0.42,0.24-0.67l0.11-0.46c0.05-0.18,0.12-0.28,0.21-0.28
		c0.05,0,0.09,0.05,0.13,0.15c0.22,0.66,0.73,2.02,1.52,4.11c0.62,1.63,2.15,5.72,4.61,12.27c0.14,0.38,0.31,0.62,0.53,0.73
		c0.21,0.1,0.66,0.16,1.33,0.18C709.17,701.73,709.39,701.81,709.39,701.96z M702.39,695.92c-0.28-0.75-0.74-2-1.39-3.75l-1.24-3.49
		c-0.72,1.86-1.58,4.27-2.59,7.24H702.39z"/>
	<path fill="#4D4E4E" d="M721.06,688.81c0,1.63-0.71,2.9-2.14,3.81c-0.89,0.57-2.03,0.86-3.4,0.86c-0.58,0-1.25-0.06-1.98-0.18v7.16
		c0,0.39,0.02,0.63,0.05,0.73c0.09,0.24,0.27,0.38,0.57,0.43c0.5,0.07,0.98,0.1,1.44,0.1c0.19,0,0.28,0.06,0.28,0.18
		c0,0.17-0.12,0.25-0.36,0.25c-0.1,0-0.19,0-0.26,0c-0.95,0-2.72,0-5.33,0h-0.33c-0.52,0-0.77-0.08-0.77-0.25
		c0-0.12,0.18-0.18,0.54-0.18c0.81,0,1.27-0.08,1.39-0.23c0.14-0.07,0.21-0.24,0.23-0.5v-14.89c0-0.52-0.15-0.84-0.44-0.96
		c-0.17-0.07-0.47-0.1-0.9-0.1h-0.26c-0.05,0-0.11,0-0.18,0c-0.26,0-0.39-0.07-0.39-0.2c0-0.15,0.24-0.23,0.72-0.23h5.67
		c1.96,0,3.39,0.34,4.3,1.01C720.55,686.37,721.06,687.44,721.06,688.81z M718.36,688.84c0-2.54-1.08-3.8-3.25-3.8
		c-0.72,0-1.19,0.12-1.42,0.36c-0.1,0.1-0.16,0.36-0.16,0.79v6.75c0.14,0.02,0.29,0.03,0.46,0.03c1.13,0,2.09-0.25,2.88-0.74
		C717.87,691.6,718.36,690.48,718.36,688.84z"/>
	<path fill="#4D4E4E" d="M738.81,701.89c0,0.15-0.16,0.23-0.49,0.23h-3.53c-0.24,0-0.59,0-1.05,0s-0.8,0-1.02,0
		c-0.34,0-0.51-0.07-0.51-0.2s0.4-0.23,1.2-0.28c0.42-0.03,0.67-0.1,0.74-0.21c0.07-0.11,0.1-0.5,0.1-1.17v-7.34h-7.75v7.13
		c0,0.76,0.06,1.2,0.18,1.34c0.12,0.13,0.52,0.23,1.21,0.28c0.45,0.03,0.67,0.11,0.67,0.23c0,0.15-0.17,0.23-0.51,0.23h-0.23
		c-0.41,0-0.85,0-1.3,0s-0.73,0-0.81,0c-0.24,0-0.6,0-1.08,0c-0.48,0-1.2,0-2.16,0c-0.34,0-0.51-0.07-0.51-0.2s0.17-0.22,0.51-0.25
		c0.22-0.02,0.46-0.03,0.7-0.05c0.38-0.03,0.62-0.12,0.72-0.25c0.05-0.08,0.08-0.55,0.08-1.41v-13.29c0-0.75-0.04-1.2-0.12-1.33
		s-0.35-0.21-0.81-0.23c-0.53-0.04-0.85-0.06-0.94-0.08c-0.09-0.02-0.14-0.09-0.14-0.21c0-0.14,0.11-0.21,0.33-0.21
		c0.07,0,0.21,0.01,0.44,0.02c0.43,0.03,1.44,0.05,3.04,0.05c0.88,0,1.49-0.01,1.83-0.04c0.12-0.02,0.27-0.04,0.46-0.04
		c0.31,0,0.46,0.08,0.46,0.25c0,0.15-0.28,0.23-0.84,0.23s-0.89,0.06-1,0.19c-0.11,0.13-0.17,0.53-0.17,1.2v5.81h7.75v-5.44
		c0-0.89-0.07-1.42-0.21-1.58s-0.62-0.23-1.44-0.21c-0.26,0-0.39-0.08-0.39-0.23c0-0.15,0.15-0.23,0.44-0.23h0.13
		c0.24,0,0.66,0,1.26,0c0.62,0,1.08,0,1.39,0c1.05,0,1.76,0,2.12,0s0.61,0,0.71,0c0.36,0,0.54,0.08,0.54,0.23s-0.38,0.24-1.13,0.25
		c-0.22,0-0.39,0.02-0.49,0.05c-0.17,0.05-0.28,0.14-0.32,0.28c-0.04,0.13-0.06,0.53-0.06,1.18V700c0,0.81,0.04,1.28,0.13,1.41
		c0.17,0.19,0.66,0.28,1.47,0.28C738.67,701.66,738.81,701.73,738.81,701.89z"/>
	<path fill="#4D4E4E" d="M747,701.91c0,0.14-0.1,0.21-0.31,0.21h-0.26c-0.1-0.05-1.28-0.08-3.52-0.08c-0.43,0-0.86,0.02-1.29,0.05
		c-0.22,0.02-0.57,0.03-1.03,0.03c-0.22,0-0.34-0.08-0.34-0.23c0-0.13,0.22-0.21,0.67-0.23c0.69-0.02,1.09-0.1,1.21-0.24
		c0.12-0.14,0.18-0.63,0.18-1.45v-13.29c0-0.83-0.04-1.29-0.13-1.39c-0.1-0.17-0.58-0.27-1.44-0.3c-0.33-0.01-0.5-0.07-0.5-0.18
		c0-0.13,0.1-0.2,0.31-0.2h3.52c0.26,0,0.76,0.01,1.51,0.02l0.99-0.02c0.28,0,0.42,0.07,0.42,0.21c0,0.13-0.39,0.21-1.16,0.24
		c-0.44,0.02-0.71,0.09-0.8,0.23c-0.1,0.13-0.15,0.49-0.15,1.06v13.46c0,0.96,0.04,1.48,0.13,1.56c0.19,0.18,0.76,0.29,1.7,0.33
		C746.9,701.69,747,701.76,747,701.91z"/>
	<path fill="#4D4E4E" d="M763.33,696.48c0-0.02-0.02,0.21-0.05,0.68c-0.07,0.94-0.1,1.88-0.1,2.82c0,0.12,0.02,0.33,0.05,0.64
		c0.03,0.31,0.05,0.68,0.05,1.12v0.23c0,0.22-0.07,0.33-0.21,0.33s-0.26-0.13-0.36-0.38c-0.24-0.59-0.48-0.95-0.72-1.08
		c-1.24,1.06-2.72,1.59-4.46,1.59c-2.52,0-4.61-0.86-6.27-2.58c-1.66-1.72-2.49-3.89-2.49-6.51c0-2.64,0.76-4.79,2.28-6.46
		c1.52-1.67,3.48-2.51,5.89-2.51c0.88,0,1.58,0.07,2.1,0.21s1.17,0.43,1.95,0.87c0.38,0.22,0.66,0.33,0.85,0.33
		c0.15,0,0.3-0.13,0.44-0.4c0.22-0.47,0.4-0.71,0.54-0.71s0.21,0.07,0.21,0.2c0,0.07-0.02,0.18-0.05,0.33
		c-0.19,0.81-0.28,2.32-0.28,4.54c0,0.32-0.03,0.5-0.08,0.55c-0.05,0.05-0.12,0.08-0.21,0.08c-0.17,0-0.28-0.16-0.33-0.48
		c-0.22-1.34-0.54-2.34-0.95-3c-0.84-1.34-2.16-2.02-3.97-2.02c-1.39,0-2.49,0.45-3.3,1.36c-1.46,1.63-2.19,4.02-2.19,7.16
		c0,2.81,0.6,4.98,1.8,6.53c1.05,1.34,2.44,2.02,4.17,2.02c0.89,0,1.71-0.22,2.45-0.66c0.74-0.44,1.31-1.04,1.71-1.8
		c0.4-0.76,0.72-1.68,0.94-2.76c0.09-0.4,0.2-0.6,0.33-0.6C763.24,696.1,763.33,696.22,763.33,696.48z"/>
	<path fill="#4D4E4E" d="M796.14,689.63c0,4.24-1.51,7.53-4.53,9.89c-2.21,1.73-5.16,2.6-8.87,2.6c-0.1,0-0.53,0-1.31,0
		s-1.9,0-3.37,0h-1.84h-2.91c-0.17,0-0.36,0-0.55,0c-0.47,0-0.7-0.12-0.7-0.36c0-0.22,0.39-0.32,1.18-0.32
		c1.01,0,1.63-0.18,1.88-0.54c0.1-0.17,0.15-0.62,0.15-1.37v-19.4c0-1.18-0.09-1.86-0.28-2.05c-0.18-0.19-0.82-0.29-1.9-0.29
		c-0.56,0-0.85-0.13-0.85-0.4c0-0.19,0.21-0.29,0.62-0.29c-0.02,0,0.25,0,0.81,0s1.12,0,1.66,0h3.94c4.42,0,7.54,0.3,9.38,0.9
		c2.23,0.72,4.04,2.15,5.41,4.28C795.46,684.41,796.14,686.86,796.14,689.63z M792.02,689.48c0-4-0.8-6.93-2.39-8.79
		c-1.6-1.87-4.08-2.8-7.47-2.8c-1.64,0-2.64,0.17-2.98,0.5c-0.15,0.17-0.22,0.75-0.22,1.73v19.21c0,0.67,0.02,1.08,0.06,1.23
		s0.14,0.26,0.31,0.36c0.59,0.29,1.83,0.43,3.72,0.43c2.65,0,4.78-0.92,6.4-2.74C791.16,696.69,792.02,693.65,792.02,689.48z"/>
	<path fill="#4D4E4E" d="M812.13,698.06c0,0.07-0.02,0.48-0.05,1.24c-0.03,0.76-0.05,1.48-0.05,2.17v0.83
		c-1.68-0.1-5.01-0.15-9.99-0.15c-0.6,0-1.19,0-1.78,0s-0.98,0-1.18,0h-0.26c-0.33,0-0.49-0.07-0.49-0.2c0-0.09,0.05-0.14,0.15-0.16
		c0.05,0,0.38-0.02,0.98-0.07c0.45-0.03,0.72-0.13,0.81-0.28c0.09-0.15,0.14-0.55,0.14-1.19v-14.21c0-0.49-0.07-0.78-0.22-0.87
		c-0.15-0.09-0.61-0.14-1.4-0.14c-0.28,0-0.41-0.07-0.41-0.21s0.19-0.21,0.57-0.21h4.4c0.15,0,1.12,0,2.91,0c1.79,0,2.99,0,3.61,0
		c0.52,0,0.99-0.03,1.42-0.1c0.03,0.72,0.11,1.72,0.23,3l0.1,1.08c0.02,0.08,0.03,0.19,0.03,0.33c0,0.17-0.08,0.25-0.23,0.25
		c-0.19,0-0.33-0.21-0.41-0.63c-0.33-1.52-0.86-2.49-1.6-2.89c-0.55-0.3-1.99-0.46-4.33-0.46h-2.11v7.41h0.62
		c1.92,0,3.1-0.14,3.52-0.43c0.42-0.29,0.71-1.12,0.86-2.5c0.03-0.35,0.13-0.53,0.28-0.53c0.19,0,0.28,0.15,0.28,0.45
		s-0.02,0.75-0.05,1.34c-0.04,0.59-0.05,1.03-0.05,1.33c0,1.8,0.03,3.03,0.08,3.71c0.01,0.17,0.02,0.31,0.02,0.43
		c0,0.22-0.09,0.33-0.28,0.33c-0.12,0-0.2-0.07-0.24-0.21c-0.04-0.14-0.12-0.61-0.22-1.4c-0.14-0.99-0.56-1.6-1.26-1.84
		c-0.31-0.1-1.11-0.15-2.41-0.15h-1.15v8.44c3.78,0,5.99-0.07,6.65-0.22c1.13-0.25,1.78-1.31,1.93-3.19
		c0.03-0.42,0.15-0.62,0.33-0.62C812.04,697.53,812.13,697.71,812.13,698.06z"/>
	<path fill="#4D4E4E" d="M824.72,697.21c0,1.45-0.56,2.68-1.69,3.69c-1.12,1.02-2.48,1.53-4.06,1.53c-0.93,0-2.03-0.28-3.32-0.83
		c-0.34-0.15-0.6-0.23-0.77-0.23c-0.21,0-0.33,0.23-0.39,0.7c-0.02,0.24-0.13,0.36-0.33,0.36c-0.17,0-0.26-0.1-0.26-0.3
		c0-0.13,0.01-0.24,0.03-0.3c0.14-1.02,0.21-1.97,0.21-2.85c0-0.17-0.02-0.64-0.05-1.41c-0.02-0.1-0.03-0.23-0.03-0.4
		c0-0.25,0.1-0.38,0.31-0.38c0.17,0,0.29,0.2,0.36,0.61c0.45,3.02,1.9,4.53,4.35,4.53c1.05,0,1.86-0.29,2.43-0.87
		c0.58-0.58,0.86-1.4,0.86-2.46c0-0.94-0.28-1.74-0.84-2.41c-0.56-0.66-1.52-1.32-2.87-1.98c-1.63-0.79-2.76-1.55-3.4-2.29
		c-0.63-0.74-0.95-1.65-0.95-2.75c0-1.39,0.46-2.54,1.38-3.45c0.92-0.91,2.08-1.36,3.49-1.36c0.58,0,1.39,0.19,2.42,0.58
		c0.36,0.13,0.63,0.2,0.8,0.2c0.19,0,0.31-0.03,0.37-0.1c0.06-0.07,0.12-0.24,0.17-0.53c0.03-0.17,0.13-0.25,0.28-0.25
		c0.17,0,0.26,0.1,0.26,0.3c0,0.13-0.01,0.24-0.03,0.3c-0.05,0.4-0.08,0.89-0.08,1.46c0,0.81,0.04,1.45,0.13,1.92l0.03,0.4
		c0.02,0.19-0.06,0.28-0.23,0.28c-0.19,0-0.32-0.19-0.39-0.58c-0.19-0.99-0.64-1.82-1.34-2.48c-0.7-0.66-1.49-1-2.37-1
		c-0.86,0-1.54,0.27-2.05,0.81c-0.51,0.54-0.76,1.27-0.76,2.19c0,1.08,0.37,1.94,1.11,2.6c0.41,0.37,1.3,0.89,2.68,1.56
		c1.61,0.79,2.77,1.59,3.48,2.41C824.37,695.24,824.72,696.17,824.72,697.21z"/>
	<path fill="#4D4E4E" d="M832.91,701.91c0,0.14-0.1,0.21-0.31,0.21h-0.26c-0.1-0.05-1.28-0.08-3.52-0.08
		c-0.43,0-0.86,0.02-1.29,0.05c-0.22,0.02-0.57,0.03-1.03,0.03c-0.22,0-0.34-0.08-0.34-0.23c0-0.13,0.22-0.21,0.67-0.23
		c0.69-0.02,1.09-0.1,1.21-0.24c0.12-0.14,0.18-0.63,0.18-1.45v-13.29c0-0.83-0.04-1.29-0.13-1.39c-0.1-0.17-0.58-0.27-1.44-0.3
		c-0.33-0.01-0.5-0.07-0.5-0.18c0-0.13,0.1-0.2,0.31-0.2h3.52c0.26,0,0.76,0.01,1.51,0.02l0.99-0.02c0.28,0,0.42,0.07,0.42,0.21
		c0,0.13-0.39,0.21-1.16,0.24c-0.44,0.02-0.71,0.09-0.8,0.23c-0.1,0.13-0.15,0.49-0.15,1.06v13.46c0,0.96,0.04,1.48,0.13,1.56
		c0.19,0.18,0.76,0.29,1.7,0.33C832.82,701.69,832.91,701.76,832.91,701.91z"/>
	<path fill="#4D4E4E" d="M851.25,696.84c0,0.13-0.21,0.19-0.62,0.19c-0.93,0-1.44,0.13-1.54,0.4c-0.07,0.18-0.1,0.91-0.1,2.18v0.8
		c-0.89,0.74-1.74,1.25-2.55,1.56c-0.81,0.3-1.78,0.45-2.91,0.45c-2.71,0-4.87-0.79-6.46-2.38s-2.4-3.74-2.4-6.46
		c0-2.75,0.78-4.98,2.34-6.68c1.56-1.7,3.62-2.54,6.18-2.54c1.12,0,2.33,0.3,3.66,0.91c0.39,0.18,0.72,0.28,0.98,0.28
		c0.33,0,0.54-0.2,0.64-0.6c0.08-0.24,0.19-0.35,0.31-0.35c0.14,0,0.21,0.08,0.21,0.23c0,0.02-0.02,0.18-0.04,0.48
		c-0.11,0.99-0.15,1.72-0.13,2.19v1.36c0.02,0.69,0.01,1.12-0.03,1.29s-0.13,0.25-0.28,0.25s-0.24-0.12-0.26-0.35
		c-0.09-1.62-0.57-2.9-1.44-3.83s-2.03-1.41-3.45-1.41c-1.79,0-3.2,0.78-4.24,2.34c-1.04,1.56-1.56,3.69-1.56,6.38
		c0,2.61,0.53,4.68,1.58,6.21c1.06,1.52,2.49,2.29,4.29,2.29c1.37,0,2.32-0.39,2.83-1.17c0.26-0.39,0.39-1.09,0.39-2.1
		c0-0.84-0.08-1.34-0.25-1.49s-0.73-0.22-1.69-0.2c-0.24,0-0.4-0.01-0.46-0.03s-0.1-0.07-0.1-0.15c0-0.17,0.19-0.25,0.57-0.25h0.46
		c0.38,0.02,1.32,0.02,2.83,0h2.06c0.12,0,0.25,0,0.39,0c0.14,0,0.23,0,0.28,0C851.08,696.6,851.25,696.68,851.25,696.84z"/>
	<path fill="#4D4E4E" d="M867.25,684.86c0,0.17-0.21,0.24-0.64,0.23h-0.57h-0.46c-0.27,0-0.44,0.05-0.49,0.14s-0.08,0.37-0.08,0.84
		v14.49c0,0.89-0.01,1.41-0.03,1.56c-0.02,0.15-0.07,0.23-0.15,0.23c-0.1,0-0.22-0.09-0.36-0.28l-3.29-4.72
		c-1.91-2.74-4.23-6.16-6.96-10.26v14.07c0.02,0.22,0.15,0.36,0.39,0.42c0.24,0.06,0.82,0.1,1.74,0.11c0.23,0,0.34,0.07,0.34,0.2
		c0,0.17-0.22,0.25-0.67,0.25c-0.15,0-0.64-0.03-1.47-0.08c-0.27-0.02-0.54-0.02-0.8-0.02c0.02,0-0.13,0.02-0.45,0.05
		s-0.8,0.05-1.46,0.05h-0.26c-0.4,0-0.59-0.08-0.59-0.23s0.17-0.23,0.51-0.23c1.01-0.02,1.6-0.08,1.76-0.19
		c0.16-0.11,0.24-0.47,0.24-1.07v-12.44c0-1.4-0.29-2.27-0.88-2.62c-0.28-0.17-0.76-0.25-1.47-0.25c-0.45,0-0.67-0.09-0.67-0.27
		c0-0.16,0.13-0.24,0.39-0.24c0.34,0,0.78,0.02,1.31,0.05c0.53,0.03,0.82,0.05,0.85,0.05c0.05,0,0.29-0.01,0.72-0.03
		c0.57,0,1.12-0.03,1.65-0.08l8.89,12.98v-11.21c0-0.52-0.01-0.84-0.03-0.95c-0.02-0.11-0.09-0.19-0.21-0.25
		c-0.12-0.06-0.53-0.09-1.24-0.09c-0.62,0-0.93-0.08-0.93-0.23c0-0.17,0.21-0.25,0.62-0.25h0.9c0.22,0,0.46,0,0.72,0
		c0.27,0,0.44,0,0.49,0c0.02,0,0.17,0,0.46,0c0.28,0,0.53,0,0.77,0h0.8C867.06,684.61,867.25,684.69,867.25,684.86z"/>
	<path fill="#4D4E4E" d="M882.06,698.06c0,0.07-0.02,0.48-0.05,1.24c-0.03,0.76-0.05,1.48-0.05,2.17v0.83
		c-1.68-0.1-5.01-0.15-9.99-0.15c-0.6,0-1.19,0-1.78,0s-0.98,0-1.18,0h-0.26c-0.33,0-0.49-0.07-0.49-0.2c0-0.09,0.05-0.14,0.15-0.16
		c0.05,0,0.38-0.02,0.98-0.07c0.45-0.03,0.72-0.13,0.81-0.28c0.09-0.15,0.14-0.55,0.14-1.19v-14.21c0-0.49-0.07-0.78-0.22-0.87
		c-0.15-0.09-0.61-0.14-1.4-0.14c-0.28,0-0.41-0.07-0.41-0.21s0.19-0.21,0.57-0.21h4.4c0.15,0,1.12,0,2.91,0c1.79,0,2.99,0,3.61,0
		c0.52,0,0.99-0.03,1.42-0.1c0.03,0.72,0.11,1.72,0.23,3l0.1,1.08c0.02,0.08,0.03,0.19,0.03,0.33c0,0.17-0.08,0.25-0.23,0.25
		c-0.19,0-0.33-0.21-0.41-0.63c-0.33-1.52-0.86-2.49-1.6-2.89c-0.55-0.3-1.99-0.46-4.33-0.46h-2.11v7.41h0.62
		c1.92,0,3.1-0.14,3.52-0.43c0.42-0.29,0.71-1.12,0.86-2.5c0.03-0.35,0.13-0.53,0.28-0.53c0.19,0,0.28,0.15,0.28,0.45
		s-0.02,0.75-0.05,1.34c-0.04,0.59-0.05,1.03-0.05,1.33c0,1.8,0.03,3.03,0.08,3.71c0.01,0.17,0.02,0.31,0.02,0.43
		c0,0.22-0.09,0.33-0.28,0.33c-0.12,0-0.2-0.07-0.24-0.21c-0.04-0.14-0.12-0.61-0.22-1.4c-0.14-0.99-0.56-1.6-1.26-1.84
		c-0.31-0.1-1.11-0.15-2.41-0.15h-1.15v8.44c3.78,0,5.99-0.07,6.65-0.22c1.13-0.25,1.78-1.31,1.93-3.19
		c0.03-0.42,0.15-0.62,0.33-0.62C881.97,697.53,882.06,697.71,882.06,698.06z"/>
	<path fill="#4D4E4E" d="M897.87,701.36c0,0.71-0.6,1.06-1.8,1.06c-1.34,0-2.39-0.55-3.14-1.64c-0.33-0.47-0.54-0.92-0.63-1.36
		c-0.09-0.44-0.24-1.55-0.42-3.33c-0.1-1.08-0.46-1.84-1.06-2.28c-0.6-0.44-1.58-0.68-2.94-0.72v7.94c0,0.34,0.27,0.55,0.82,0.63
		c0.16,0.02,0.55,0.03,1.19,0.05c0.22,0,0.33,0.07,0.33,0.2c0,0.15-0.15,0.23-0.44,0.23h-0.31c-0.16,0-0.9,0-2.24,0
		c-0.26,0-0.7,0-1.31,0c-0.6,0-1,0-1.18,0h-1c-0.38,0-0.57-0.08-0.57-0.23c0-0.12,0.25-0.19,0.75-0.2c0.81-0.02,1.24-0.12,1.31-0.3
		c0.07-0.08,0.1-0.41,0.1-0.98v-13.91c0-0.67-0.07-1.08-0.22-1.21c-0.15-0.13-0.59-0.21-1.33-0.23c-0.43,0-0.64-0.08-0.64-0.23
		c0-0.17,0.14-0.25,0.41-0.25c0.05,0,0.13,0.01,0.23,0.02l3.43,0.08c0.34,0,0.82-0.01,1.44-0.03c0.69-0.04,1.17-0.07,1.44-0.07
		c1.6,0,2.86,0.35,3.8,1.05s1.4,1.64,1.4,2.83c0,1.18-0.48,2.15-1.44,2.91c-0.96,0.76-2.27,1.21-3.92,1.35
		c-0.15,0.02-0.24,0.04-0.26,0.08c0,0.07,0.09,0.1,0.26,0.1c1.8,0.3,3.04,0.92,3.72,1.86c0.68,0.93,1.13,2.62,1.35,5.07
		c0.14,1.38,0.62,2.07,1.44,2.07c0.26,0,0.39-0.05,0.39-0.15c0-0.02-0.01-0.03-0.03-0.05c-0.09-0.18-0.13-0.34-0.13-0.45
		c0-0.35,0.19-0.53,0.57-0.53C897.67,700.73,897.87,700.94,897.87,701.36z M892.54,688.74c0-2.4-1.06-3.6-3.19-3.6
		c-0.57,0-0.95,0.08-1.16,0.23s-0.31,0.42-0.31,0.81v6.4c1.65,0.02,2.84-0.28,3.57-0.88C892.18,691.08,892.54,690.1,892.54,688.74z"
		/>
	<path fill="#4D4E4E" d="M717.74,747.2c0,2.33-1.02,4.14-3.05,5.44c-1.28,0.82-2.89,1.22-4.86,1.22c-0.83,0-1.78-0.08-2.83-0.25
		v10.22c0,0.55,0.02,0.9,0.07,1.04c0.12,0.34,0.39,0.54,0.81,0.61c0.71,0.1,1.4,0.14,2.06,0.14c0.27,0,0.41,0.08,0.41,0.25
		c0,0.24-0.17,0.36-0.52,0.36c-0.15,0-0.27,0-0.37,0c-1.35,0-3.89,0-7.62,0h-0.48c-0.74,0-1.1-0.12-1.1-0.36
		c0-0.17,0.26-0.25,0.77-0.25c1.15,0,1.82-0.11,1.99-0.32c0.2-0.1,0.31-0.34,0.33-0.72v-21.27c0-0.75-0.21-1.2-0.63-1.37
		c-0.25-0.1-0.67-0.14-1.29-0.14h-0.37c-0.07,0-0.16,0-0.26,0c-0.37,0-0.55-0.1-0.55-0.29c0-0.21,0.34-0.32,1.03-0.32h8.09
		c2.8,0,4.84,0.48,6.15,1.44C717,743.71,717.74,745.23,717.74,747.2z M713.87,747.24c0-3.62-1.54-5.44-4.64-5.44
		c-1.03,0-1.71,0.17-2.02,0.51c-0.15,0.14-0.22,0.52-0.22,1.12v9.64c0.2,0.02,0.42,0.04,0.66,0.04c1.62,0,2.99-0.35,4.12-1.05
		C713.17,751.19,713.87,749.58,713.87,747.24z"/>
	<path fill="#4D4E4E" d="M735.55,765.98c0,0.15-0.16,0.23-0.49,0.23h-3.53c-0.24,0-0.59,0-1.05,0s-0.8,0-1.02,0
		c-0.34,0-0.51-0.07-0.51-0.2s0.4-0.23,1.2-0.28c0.42-0.03,0.67-0.1,0.74-0.21c0.07-0.11,0.1-0.5,0.1-1.17v-7.34h-7.75v7.13
		c0,0.76,0.06,1.2,0.18,1.34c0.12,0.13,0.52,0.23,1.21,0.28c0.45,0.03,0.67,0.11,0.67,0.23c0,0.15-0.17,0.23-0.51,0.23h-0.23
		c-0.41,0-0.85,0-1.3,0s-0.73,0-0.81,0c-0.24,0-0.6,0-1.08,0c-0.48,0-1.2,0-2.16,0c-0.34,0-0.51-0.07-0.51-0.2s0.17-0.22,0.51-0.25
		c0.22-0.02,0.46-0.03,0.7-0.05c0.38-0.03,0.62-0.12,0.72-0.25c0.05-0.08,0.08-0.55,0.08-1.41v-13.29c0-0.75-0.04-1.2-0.12-1.33
		s-0.35-0.21-0.81-0.23c-0.53-0.04-0.85-0.06-0.94-0.08c-0.09-0.02-0.14-0.09-0.14-0.21c0-0.14,0.11-0.21,0.33-0.21
		c0.07,0,0.21,0.01,0.44,0.02c0.43,0.03,1.44,0.05,3.04,0.05c0.88,0,1.49-0.01,1.83-0.04c0.12-0.02,0.27-0.04,0.46-0.04
		c0.31,0,0.46,0.08,0.46,0.25c0,0.15-0.28,0.23-0.84,0.23s-0.89,0.06-1,0.19c-0.11,0.13-0.17,0.53-0.17,1.2v5.81h7.75v-5.44
		c0-0.89-0.07-1.42-0.21-1.58s-0.62-0.23-1.44-0.21c-0.26,0-0.39-0.08-0.39-0.23c0-0.15,0.15-0.23,0.44-0.23h0.13
		c0.24,0,0.66,0,1.26,0c0.62,0,1.08,0,1.39,0c1.05,0,1.76,0,2.12,0s0.61,0,0.71,0c0.36,0,0.54,0.08,0.54,0.23s-0.38,0.24-1.13,0.25
		c-0.22,0-0.39,0.02-0.49,0.05c-0.17,0.05-0.28,0.14-0.32,0.28c-0.04,0.13-0.06,0.53-0.06,1.18v13.41c0,0.81,0.04,1.28,0.13,1.41
		c0.17,0.19,0.66,0.28,1.47,0.28C735.42,765.75,735.55,765.82,735.55,765.98z"/>
	<path fill="#4D4E4E" d="M753.76,757.57c0,2.5-0.77,4.62-2.31,6.35s-3.42,2.6-5.65,2.6c-2.37,0-4.36-0.88-5.98-2.63
		c-1.61-1.75-2.42-3.92-2.42-6.49c0-2.62,0.78-4.77,2.33-6.44c1.55-1.67,3.54-2.51,5.96-2.51c2.28,0,4.2,0.87,5.74,2.62
		C752.99,752.81,753.76,754.98,753.76,757.57z M750.88,757.69c0-3.08-0.64-5.48-1.93-7.2c-0.81-1.08-1.93-1.62-3.38-1.62
		c-1.37,0-2.44,0.41-3.19,1.24c-1.39,1.52-2.09,3.99-2.09,7.41c0,2.71,0.49,4.82,1.46,6.32c0.97,1.5,2.33,2.25,4.08,2.25
		c1.63,0,2.86-0.71,3.68-2.12C750.42,762.39,750.88,760.3,750.88,757.69z"/>
	<path fill="#4D4E4E" d="M769.55,753.21c0,0.22-0.1,0.33-0.31,0.33s-0.35-0.22-0.44-0.66c-0.04-0.3-0.07-0.6-0.1-0.91
		c-0.12-0.6-0.32-1.12-0.59-1.54c-0.36-0.55-0.95-0.91-1.78-1.06c-0.53-0.1-0.96-0.14-1.29-0.13c-0.81,0.02-1.3,0.04-1.47,0.05
		v15.22c0,0.61,0.16,0.98,0.49,1.14c0.17,0.08,0.65,0.13,1.44,0.15c0.21,0.02,0.31,0.09,0.31,0.21c0,0.14-0.14,0.21-0.41,0.21
		c-0.14,0-0.26-0.01-0.36-0.03c-1.03-0.03-1.76-0.05-2.19-0.05c-0.57,0-1.1,0.01-1.6,0.04c-0.5,0.03-1.13,0.04-1.91,0.04
		c-0.4,0-0.59-0.07-0.59-0.2c0-0.15,0.37-0.24,1.11-0.25c0.53,0,0.88-0.11,1.03-0.33c0.09-0.13,0.13-0.48,0.13-1.04V749.3
		c-1.7,0.02-2.76,0.1-3.17,0.25c-1.08,0.39-1.72,1.42-1.91,3.1c-0.05,0.5-0.17,0.76-0.36,0.76c-0.21,0-0.31-0.18-0.31-0.53
		c0-0.18,0.01-0.37,0.03-0.55l0.05-0.58c0.05-0.77,0.13-1.79,0.23-3.05h1.16l5.25,0.08c0.62,0.02,1.58,0.02,2.89,0l4.28-0.08
		c0.03,0.94,0.15,2.33,0.33,4.18c0,0.05,0.01,0.11,0.03,0.19C769.54,753.14,769.55,753.19,769.55,753.21z"/>
	<path fill="#4D4E4E" d="M787.4,757.57c0,2.5-0.77,4.62-2.31,6.35s-3.42,2.6-5.65,2.6c-2.37,0-4.36-0.88-5.98-2.63
		c-1.61-1.75-2.42-3.92-2.42-6.49c0-2.62,0.78-4.77,2.33-6.44c1.55-1.67,3.54-2.51,5.96-2.51c2.28,0,4.2,0.87,5.74,2.62
		C786.63,752.81,787.4,754.98,787.4,757.57z M784.52,757.69c0-3.08-0.64-5.48-1.93-7.2c-0.81-1.08-1.93-1.62-3.38-1.62
		c-1.37,0-2.44,0.41-3.19,1.24c-1.39,1.52-2.09,3.99-2.09,7.41c0,2.71,0.49,4.82,1.46,6.32c0.97,1.5,2.33,2.25,4.08,2.25
		c1.63,0,2.86-0.71,3.68-2.12C784.06,762.39,784.52,760.3,784.52,757.69z"/>
	<path fill="#4D4E4E" d="M806.18,760.93c0,0.13-0.21,0.19-0.62,0.19c-0.93,0-1.44,0.13-1.54,0.4c-0.07,0.18-0.1,0.91-0.1,2.18v0.8
		c-0.89,0.74-1.74,1.25-2.55,1.56c-0.81,0.3-1.78,0.45-2.91,0.45c-2.71,0-4.87-0.79-6.46-2.38s-2.4-3.74-2.4-6.46
		c0-2.75,0.78-4.98,2.34-6.68c1.56-1.7,3.62-2.54,6.18-2.54c1.12,0,2.33,0.3,3.66,0.91c0.39,0.18,0.72,0.28,0.98,0.28
		c0.33,0,0.54-0.2,0.64-0.6c0.08-0.24,0.19-0.35,0.31-0.35c0.14,0,0.21,0.08,0.21,0.23c0,0.02-0.02,0.18-0.04,0.48
		c-0.11,0.99-0.15,1.72-0.13,2.19v1.36c0.02,0.69,0.01,1.12-0.03,1.29s-0.13,0.25-0.28,0.25s-0.24-0.12-0.26-0.35
		c-0.09-1.62-0.57-2.9-1.44-3.83s-2.03-1.41-3.45-1.41c-1.79,0-3.2,0.78-4.24,2.34c-1.04,1.56-1.56,3.69-1.56,6.38
		c0,2.61,0.53,4.68,1.58,6.21c1.06,1.52,2.49,2.29,4.29,2.29c1.37,0,2.32-0.39,2.83-1.17c0.26-0.39,0.39-1.09,0.39-2.1
		c0-0.84-0.08-1.34-0.25-1.49s-0.73-0.22-1.69-0.2c-0.24,0-0.4-0.01-0.46-0.03s-0.1-0.07-0.1-0.15c0-0.17,0.19-0.25,0.57-0.25h0.46
		c0.38,0.02,1.32,0.02,2.83,0h2.06c0.12,0,0.25,0,0.39,0c0.14,0,0.23,0,0.28,0C806.01,760.69,806.18,760.77,806.18,760.93z"/>
	<path fill="#4D4E4E" d="M820.91,765.45c0,0.71-0.6,1.06-1.8,1.06c-1.34,0-2.39-0.55-3.14-1.64c-0.33-0.47-0.54-0.92-0.63-1.36
		c-0.09-0.44-0.24-1.55-0.42-3.33c-0.1-1.08-0.46-1.84-1.06-2.28c-0.6-0.44-1.58-0.68-2.94-0.72v7.94c0,0.34,0.27,0.55,0.82,0.63
		c0.16,0.02,0.55,0.03,1.19,0.05c0.22,0,0.33,0.07,0.33,0.2c0,0.15-0.15,0.23-0.44,0.23h-0.31c-0.16,0-0.9,0-2.24,0
		c-0.26,0-0.7,0-1.31,0c-0.6,0-1,0-1.18,0h-1c-0.38,0-0.57-0.08-0.57-0.23c0-0.12,0.25-0.19,0.75-0.2c0.81-0.02,1.24-0.12,1.31-0.3
		c0.07-0.08,0.1-0.41,0.1-0.98v-13.91c0-0.67-0.07-1.08-0.22-1.21c-0.15-0.13-0.59-0.21-1.33-0.23c-0.43,0-0.64-0.08-0.64-0.23
		c0-0.17,0.14-0.25,0.41-0.25c0.05,0,0.13,0.01,0.23,0.02l3.43,0.08c0.34,0,0.82-0.01,1.44-0.03c0.69-0.04,1.17-0.07,1.44-0.07
		c1.6,0,2.86,0.35,3.8,1.05s1.4,1.64,1.4,2.83c0,1.18-0.48,2.15-1.44,2.91c-0.96,0.76-2.27,1.21-3.92,1.35
		c-0.15,0.02-0.24,0.04-0.26,0.08c0,0.07,0.09,0.1,0.26,0.1c1.8,0.3,3.04,0.92,3.72,1.86c0.68,0.93,1.13,2.62,1.35,5.07
		c0.14,1.38,0.62,2.07,1.44,2.07c0.26,0,0.39-0.05,0.39-0.15c0-0.02-0.01-0.03-0.03-0.05c-0.09-0.18-0.13-0.34-0.13-0.45
		c0-0.35,0.19-0.53,0.57-0.53C820.7,764.82,820.91,765.03,820.91,765.45z M815.58,752.83c0-2.4-1.06-3.6-3.19-3.6
		c-0.57,0-0.95,0.08-1.16,0.23s-0.31,0.42-0.31,0.81v6.4c1.65,0.02,2.84-0.28,3.57-0.88C815.21,755.17,815.58,754.19,815.58,752.83z
		"/>
	<path fill="#4D4E4E" d="M837.42,766.04c0,0.14-0.13,0.22-0.39,0.22c-0.17,0-0.33-0.01-0.46-0.03l-3.27-0.1l-3.27,0.1
		c-0.12,0.02-0.25,0.03-0.39,0.03c-0.34,0-0.52-0.09-0.52-0.26c0-0.19,0.23-0.29,0.7-0.29c1.51-0.02,2.27-0.17,2.27-0.44
		c0-0.02-0.02-0.08-0.05-0.2l-0.21-0.67l-0.13-0.35c-0.16-0.52-0.53-1.67-1.13-3.46h-5.51c-1.03,2.69-1.54,4.23-1.54,4.64
		c0,0.24,0.1,0.38,0.31,0.43c0.05,0.02,0.48,0.05,1.29,0.1c0.5,0.02,0.75,0.1,0.75,0.25c0,0.17-0.22,0.25-0.67,0.25
		c-0.79,0-1.71-0.03-2.76-0.1c-0.26-0.02-0.52-0.02-0.8-0.02c-0.28,0-0.54,0.03-0.8,0.08c-0.14,0.03-0.25,0.04-0.33,0.04
		c-0.24,0-0.36-0.08-0.36-0.23c0-0.15,0.27-0.24,0.81-0.25s0.93-0.1,1.17-0.24c0.24-0.14,0.43-0.42,0.57-0.82
		c2.21-6.2,4.01-11.18,5.39-14.94c0.04-0.2,0.12-0.42,0.24-0.67l0.11-0.46c0.05-0.18,0.12-0.28,0.21-0.28
		c0.05,0,0.09,0.05,0.13,0.15c0.22,0.66,0.73,2.02,1.52,4.11c0.62,1.63,2.15,5.72,4.61,12.27c0.14,0.38,0.31,0.62,0.53,0.73
		c0.21,0.1,0.66,0.16,1.33,0.18C837.2,765.82,837.42,765.9,837.42,766.04z M830.42,760.01c-0.28-0.75-0.74-2-1.39-3.75l-1.24-3.49
		c-0.72,1.86-1.58,4.27-2.59,7.24H830.42z"/>
	<path fill="#4D4E4E" d="M849.09,752.9c0,1.63-0.71,2.9-2.14,3.81c-0.89,0.57-2.03,0.86-3.4,0.86c-0.58,0-1.25-0.06-1.98-0.18v7.16
		c0,0.39,0.02,0.63,0.05,0.73c0.09,0.24,0.27,0.38,0.57,0.43c0.5,0.07,0.98,0.1,1.44,0.1c0.19,0,0.28,0.06,0.28,0.18
		c0,0.17-0.12,0.25-0.36,0.25c-0.1,0-0.19,0-0.26,0c-0.95,0-2.72,0-5.33,0h-0.33c-0.52,0-0.77-0.08-0.77-0.25
		c0-0.12,0.18-0.18,0.54-0.18c0.81,0,1.27-0.08,1.39-0.23c0.14-0.07,0.21-0.24,0.23-0.5v-14.89c0-0.52-0.15-0.84-0.44-0.96
		c-0.17-0.07-0.47-0.1-0.9-0.1h-0.26c-0.05,0-0.11,0-0.18,0c-0.26,0-0.39-0.07-0.39-0.2c0-0.15,0.24-0.23,0.72-0.23h5.67
		c1.96,0,3.39,0.34,4.3,1.01C848.57,750.46,849.09,751.53,849.09,752.9z M846.38,752.93c0-2.54-1.08-3.8-3.25-3.8
		c-0.72,0-1.19,0.12-1.42,0.36c-0.1,0.1-0.16,0.36-0.16,0.79v6.75c0.14,0.02,0.29,0.03,0.46,0.03c1.13,0,2.09-0.25,2.88-0.74
		C845.9,755.69,846.38,754.57,846.38,752.93z"/>
	<path fill="#4D4E4E" d="M866.84,765.98c0,0.15-0.16,0.23-0.49,0.23h-3.53c-0.24,0-0.59,0-1.05,0s-0.8,0-1.02,0
		c-0.34,0-0.51-0.07-0.51-0.2s0.4-0.23,1.2-0.28c0.42-0.03,0.67-0.1,0.74-0.21c0.07-0.11,0.1-0.5,0.1-1.17v-7.34h-7.75v7.13
		c0,0.76,0.06,1.2,0.18,1.34c0.12,0.13,0.52,0.23,1.21,0.28c0.45,0.03,0.67,0.11,0.67,0.23c0,0.15-0.17,0.23-0.51,0.23h-0.23
		c-0.41,0-0.85,0-1.3,0s-0.73,0-0.81,0c-0.24,0-0.6,0-1.08,0c-0.48,0-1.2,0-2.16,0c-0.34,0-0.51-0.07-0.51-0.2s0.17-0.22,0.51-0.25
		c0.22-0.02,0.46-0.03,0.7-0.05c0.38-0.03,0.62-0.12,0.72-0.25c0.05-0.08,0.08-0.55,0.08-1.41v-13.29c0-0.75-0.04-1.2-0.12-1.33
		s-0.35-0.21-0.81-0.23c-0.53-0.04-0.85-0.06-0.94-0.08c-0.09-0.02-0.14-0.09-0.14-0.21c0-0.14,0.11-0.21,0.33-0.21
		c0.07,0,0.21,0.01,0.44,0.02c0.43,0.03,1.44,0.05,3.04,0.05c0.88,0,1.49-0.01,1.83-0.04c0.12-0.02,0.27-0.04,0.46-0.04
		c0.31,0,0.46,0.08,0.46,0.25c0,0.15-0.28,0.23-0.84,0.23s-0.89,0.06-1,0.19c-0.11,0.13-0.17,0.53-0.17,1.2v5.81h7.75v-5.44
		c0-0.89-0.07-1.42-0.21-1.58s-0.62-0.23-1.44-0.21c-0.26,0-0.39-0.08-0.39-0.23c0-0.15,0.15-0.23,0.44-0.23h0.13
		c0.24,0,0.66,0,1.26,0c0.62,0,1.08,0,1.39,0c1.05,0,1.76,0,2.12,0s0.61,0,0.71,0c0.36,0,0.54,0.08,0.54,0.23s-0.38,0.24-1.13,0.25
		c-0.22,0-0.39,0.02-0.49,0.05c-0.17,0.05-0.28,0.14-0.32,0.28c-0.04,0.13-0.06,0.53-0.06,1.18v13.41c0,0.81,0.04,1.28,0.13,1.41
		c0.17,0.19,0.66,0.28,1.47,0.28C866.7,765.75,866.84,765.82,866.84,765.98z"/>
	<path fill="#4D4E4E" d="M882.06,762.15c0,0.07-0.02,0.48-0.05,1.24c-0.03,0.76-0.05,1.48-0.05,2.17v0.83
		c-1.68-0.1-5.01-0.15-9.99-0.15c-0.6,0-1.19,0-1.78,0s-0.98,0-1.18,0h-0.26c-0.33,0-0.49-0.07-0.49-0.2c0-0.09,0.05-0.14,0.15-0.16
		c0.05,0,0.38-0.02,0.98-0.07c0.45-0.03,0.72-0.13,0.81-0.28c0.09-0.15,0.14-0.55,0.14-1.19v-14.21c0-0.49-0.07-0.78-0.22-0.87
		c-0.15-0.09-0.61-0.14-1.4-0.14c-0.28,0-0.41-0.07-0.41-0.21s0.19-0.21,0.57-0.21h4.4c0.15,0,1.12,0,2.91,0c1.79,0,2.99,0,3.61,0
		c0.52,0,0.99-0.03,1.42-0.1c0.03,0.72,0.11,1.72,0.23,3l0.1,1.08c0.02,0.08,0.03,0.19,0.03,0.33c0,0.17-0.08,0.25-0.23,0.25
		c-0.19,0-0.33-0.21-0.41-0.63c-0.33-1.52-0.86-2.49-1.6-2.89c-0.55-0.3-1.99-0.46-4.33-0.46h-2.11v7.41h0.62
		c1.92,0,3.1-0.14,3.52-0.43c0.42-0.29,0.71-1.12,0.86-2.5c0.03-0.35,0.13-0.53,0.28-0.53c0.19,0,0.28,0.15,0.28,0.45
		s-0.02,0.75-0.05,1.34c-0.04,0.59-0.05,1.03-0.05,1.33c0,1.8,0.03,3.03,0.08,3.71c0.01,0.17,0.02,0.31,0.02,0.43
		c0,0.22-0.09,0.33-0.28,0.33c-0.12,0-0.2-0.07-0.24-0.21c-0.04-0.14-0.12-0.61-0.22-1.4c-0.14-0.99-0.56-1.6-1.26-1.84
		c-0.31-0.1-1.11-0.15-2.41-0.15h-1.15v8.44c3.78,0,5.99-0.07,6.65-0.22c1.13-0.25,1.78-1.31,1.93-3.19
		c0.03-0.42,0.15-0.62,0.33-0.62C881.97,761.62,882.06,761.8,882.06,762.15z"/>
	<path fill="#4D4E4E" d="M897.87,765.45c0,0.71-0.6,1.06-1.8,1.06c-1.34,0-2.39-0.55-3.14-1.64c-0.33-0.47-0.54-0.92-0.63-1.36
		c-0.09-0.44-0.24-1.55-0.42-3.33c-0.1-1.08-0.46-1.84-1.06-2.28c-0.6-0.44-1.58-0.68-2.94-0.72v7.94c0,0.34,0.27,0.55,0.82,0.63
		c0.16,0.02,0.55,0.03,1.19,0.05c0.22,0,0.33,0.07,0.33,0.2c0,0.15-0.15,0.23-0.44,0.23h-0.31c-0.16,0-0.9,0-2.24,0
		c-0.26,0-0.7,0-1.31,0c-0.6,0-1,0-1.18,0h-1c-0.38,0-0.57-0.08-0.57-0.23c0-0.12,0.25-0.19,0.75-0.2c0.81-0.02,1.24-0.12,1.31-0.3
		c0.07-0.08,0.1-0.41,0.1-0.98v-13.91c0-0.67-0.07-1.08-0.22-1.21c-0.15-0.13-0.59-0.21-1.33-0.23c-0.43,0-0.64-0.08-0.64-0.23
		c0-0.17,0.14-0.25,0.41-0.25c0.05,0,0.13,0.01,0.23,0.02l3.43,0.08c0.34,0,0.82-0.01,1.44-0.03c0.69-0.04,1.17-0.07,1.44-0.07
		c1.6,0,2.86,0.35,3.8,1.05s1.4,1.64,1.4,2.83c0,1.18-0.48,2.15-1.44,2.91c-0.96,0.76-2.27,1.21-3.92,1.35
		c-0.15,0.02-0.24,0.04-0.26,0.08c0,0.07,0.09,0.1,0.26,0.1c1.8,0.3,3.04,0.92,3.72,1.86c0.68,0.93,1.13,2.62,1.35,5.07
		c0.14,1.38,0.62,2.07,1.44,2.07c0.26,0,0.39-0.05,0.39-0.15c0-0.02-0.01-0.03-0.03-0.05c-0.09-0.18-0.13-0.34-0.13-0.45
		c0-0.35,0.19-0.53,0.57-0.53C897.67,764.82,897.87,765.03,897.87,765.45z M892.54,752.83c0-2.4-1.06-3.6-3.19-3.6
		c-0.57,0-0.95,0.08-1.16,0.23s-0.31,0.42-0.31,0.81v6.4c1.65,0.02,2.84-0.28,3.57-0.88C892.18,755.17,892.54,754.19,892.54,752.83z
		"/>
</g>
<rect x="189.72" y="9.69" fill="none" width="1366.53" height="769.79"/>
</svg>
