<?xml version="1.0" encoding="utf-8"?>
<!-- Generator: Adobe Illustrator 28.2.0, SVG Export Plug-In . SVG Version: 6.00 Build 0)  -->
<svg version="1.1" xmlns="http://www.w3.org/2000/svg" xmlns:xlink="http://www.w3.org/1999/xlink" x="0px" y="0px"
	 viewBox="0 0 2048 2732" enable-background="new 0 0 2048 2732" xml:space="preserve">
<g id="Layer_1">
	<rect fill="#E4D2BC" width="2048" height="1574"/>
	<rect x="466" y="737" opacity="0.36" fill="#EE9C9B" width="1477" height="1477"/>
</g>
<g id="Layer_2">
	<rect y="225" fill="#FFFFFF" width="2048" height="204"/>
	<rect x="1004.6" y="1505" fill="#FFFFFF" width="848.68" height="589"/>
	<g>
		<path fill="#4D4E4E" d="M1607.26,1632.24c0,3.55-1.34,6.58-4.02,9.08c-2.68,2.5-5.9,3.75-9.66,3.75c-2.21,0-4.85-0.68-7.91-2.05
			c-0.82-0.37-1.43-0.56-1.84-0.56c-0.49,0-0.8,0.57-0.92,1.72c-0.04,0.59-0.31,0.89-0.8,0.89c-0.41,0-0.61-0.25-0.61-0.74
			c0-0.33,0.02-0.58,0.06-0.74c0.33-2.52,0.49-4.86,0.49-7.01c0-0.41-0.04-1.57-0.12-3.47c-0.04-0.25-0.06-0.58-0.06-0.99
			c0-0.62,0.25-0.93,0.74-0.93c0.41,0,0.69,0.5,0.86,1.5c1.06,7.43,4.52,11.15,10.37,11.15c2.49,0,4.43-0.71,5.8-2.14
			c1.37-1.43,2.05-3.44,2.05-6.04c0-2.31-0.67-4.29-1.99-5.92c-1.33-1.63-3.61-3.26-6.84-4.87c-3.89-1.94-6.58-3.82-8.1-5.64
			c-1.51-1.82-2.27-4.07-2.27-6.76c0-3.43,1.09-6.26,3.28-8.49c2.19-2.23,4.96-3.35,8.31-3.35c1.39,0,3.31,0.48,5.77,1.43
			c0.86,0.33,1.49,0.5,1.9,0.5c0.45,0,0.75-0.08,0.89-0.25c0.14-0.17,0.28-0.6,0.4-1.3c0.08-0.41,0.31-0.62,0.67-0.62
			c0.41,0,0.61,0.25,0.61,0.74c0,0.33-0.02,0.58-0.06,0.74c-0.12,0.99-0.18,2.19-0.18,3.6c0,1.98,0.1,3.56,0.31,4.71l0.06,0.99
			c0.04,0.46-0.14,0.68-0.55,0.68c-0.45,0-0.76-0.47-0.92-1.43c-0.45-2.44-1.51-4.47-3.19-6.11c-1.68-1.63-3.56-2.45-5.64-2.45
			c-2.05,0-3.67,0.66-4.88,1.98c-1.21,1.32-1.81,3.12-1.81,5.39c0,2.65,0.88,4.77,2.64,6.39c0.98,0.91,3.11,2.19,6.38,3.84
			c3.84,1.94,6.6,3.92,8.28,5.92C1606.42,1627.39,1607.26,1629.68,1607.26,1632.24z"/>
		<path fill="#4D4E4E" d="M1633.55,1621.93c0,0.38-0.17,0.56-0.51,0.56c-0.34,0-0.59-0.38-0.73-1.13c-0.06-0.52-0.11-1.04-0.17-1.56
			c-0.2-1.04-0.53-1.92-0.99-2.65c-0.6-0.96-1.59-1.56-2.96-1.82c-0.89-0.17-1.6-0.25-2.15-0.22c-1.35,0.04-2.16,0.07-2.45,0.09
			v26.21c0,1.04,0.27,1.7,0.82,1.96c0.29,0.14,1.09,0.23,2.41,0.26c0.34,0.03,0.51,0.15,0.51,0.37c0,0.25-0.23,0.37-0.69,0.37
			c-0.23,0-0.43-0.01-0.6-0.04c-1.72-0.06-2.93-0.09-3.65-0.09c-0.95,0-1.83,0.02-2.66,0.07c-0.83,0.04-1.89,0.06-3.18,0.06
			c-0.66,0-0.99-0.12-0.99-0.35c0-0.26,0.62-0.41,1.85-0.43c0.89,0,1.46-0.19,1.72-0.56c0.14-0.23,0.21-0.83,0.21-1.78v-26.04
			c-2.83,0.03-4.59,0.17-5.28,0.43c-1.8,0.67-2.86,2.45-3.18,5.34c-0.09,0.87-0.29,1.3-0.6,1.3c-0.34,0-0.52-0.3-0.52-0.91
			c0-0.32,0.01-0.64,0.04-0.95l0.09-1c0.09-1.33,0.21-3.08,0.39-5.25h1.93l8.76,0.13c1.03,0.03,2.63,0.03,4.81,0l7.13-0.13
			c0.06,1.62,0.24,4.02,0.56,7.2c0,0.09,0.01,0.2,0.04,0.33C1633.54,1621.83,1633.55,1621.91,1633.55,1621.93z"/>
		<path fill="#4D4E4E" d="M1662.41,1614.6c0,0.23-0.26,0.35-0.77,0.35c-0.09,0-0.37,0-0.86,0c-0.14,0-0.34,0-0.6,0
			c-0.72,0-1.15,0.19-1.29,0.56c-0.06,0.2-0.09,0.53-0.09,1v16.25c0,4.22-0.78,7.29-2.34,9.21c-1.56,1.92-4.07,2.88-7.54,2.88
			c-4.15,0-7.07-1.19-8.76-3.56c-1.12-1.59-1.67-4.21-1.67-7.86v-17.4c-0.09-0.52-0.43-0.84-1.04-0.96
			c-0.17-0.03-0.71-0.04-1.61-0.04c-0.49-0.06-0.74-0.2-0.74-0.43c0-0.26,0.2-0.39,0.6-0.39h0.77c0.14,0,0.47,0,0.99,0
			c0.46,0,0.87,0,1.25,0h6.14c0.14,0,0.31,0,0.51,0c0.49,0,0.73,0.16,0.73,0.48c0,0.2-0.09,0.32-0.26,0.35s-0.75,0.06-1.72,0.09
			c-0.4,0-0.67,0.03-0.82,0.09c-0.29,0.12-0.44,0.32-0.47,0.61c-0.03,0.12-0.04,0.94-0.04,2.47v15.49c0,3.81,0.6,6.4,1.8,7.79
			s2.99,2.08,5.37,2.08c4.35,0,6.81-2.49,7.39-7.47c0.09-0.75,0.13-3.92,0.13-9.51v-2.46v-3.46v-2.98c0-0.29,0-0.61,0-0.95
			c0-0.37,0-0.53,0-0.48c0-0.63-0.3-1.02-0.9-1.17c-0.2-0.06-0.79-0.09-1.76-0.09c-0.57,0-0.86-0.16-0.86-0.48
			c0-0.26,0.2-0.39,0.6-0.39c0.23,0,0.42,0,0.56,0c0.34,0,1.6,0,3.75,0c0.32,0,0.68,0,1.08,0c0.38,0,0.65,0,0.82,0h0.65
			C1662.08,1614.21,1662.41,1614.34,1662.41,1614.6z"/>
		<path fill="#4D4E4E" d="M1691.78,1629.27c0,5.11-1.76,9.08-5.28,11.93c-2.58,2.09-6.03,3.13-10.35,3.13c-0.12,0-0.62,0-1.52,0
			c-0.9,0-2.21,0-3.93,0h-2.15h-3.39c-0.2,0-0.42,0-0.64,0c-0.54,0-0.82-0.14-0.82-0.43c0-0.26,0.46-0.39,1.37-0.39
			c1.17,0,1.9-0.22,2.19-0.65c0.11-0.2,0.17-0.75,0.17-1.65v-23.39c0-1.42-0.11-2.24-0.32-2.47s-0.95-0.35-2.21-0.35
			c-0.66,0-0.99-0.16-0.99-0.48c0-0.23,0.24-0.35,0.73-0.35c-0.03,0,0.29,0,0.94,0c0.66,0,1.3,0,1.93,0h4.59
			c5.15,0,8.8,0.36,10.95,1.09c2.6,0.87,4.71,2.59,6.31,5.16C1690.98,1622.98,1691.78,1625.93,1691.78,1629.27z M1686.97,1629.09
			c0-4.82-0.93-8.35-2.79-10.6c-1.86-2.25-4.77-3.37-8.72-3.37c-1.92,0-3.08,0.2-3.48,0.61c-0.17,0.2-0.26,0.9-0.26,2.09v23.16
			c0,0.81,0.02,1.31,0.06,1.48c0.04,0.17,0.16,0.32,0.37,0.44c0.69,0.35,2.13,0.52,4.34,0.52c3.09,0,5.58-1.1,7.47-3.31
			C1685.97,1637.79,1686.97,1634.12,1686.97,1629.09z"/>
		<path fill="#4D4E4E" d="M1717.67,1637.34c0,0.12-0.03,0.82-0.09,2.13c-0.06,1.3-0.08,2.55-0.08,3.73v1.43
			c-2.81-0.17-8.36-0.26-16.66-0.26c-1,0-1.99,0-2.96,0c-0.97,0-1.63,0-1.98,0h-0.43c-0.54,0-0.82-0.12-0.82-0.35
			c0-0.16,0.09-0.25,0.26-0.27c0.09,0,0.63-0.04,1.63-0.12c0.74-0.06,1.2-0.22,1.35-0.48s0.24-0.94,0.24-2.05v-24.46
			c0-0.84-0.12-1.34-0.37-1.5c-0.24-0.16-1.02-0.24-2.34-0.24c-0.46,0-0.69-0.12-0.69-0.37s0.31-0.37,0.95-0.37h7.34
			c0.26,0,1.88,0,4.85,0s4.98,0,6.01,0c0.86,0,1.65-0.06,2.36-0.17c0.06,1.25,0.19,2.97,0.39,5.17l0.17,1.87
			c0.03,0.14,0.04,0.33,0.04,0.56c0,0.29-0.13,0.43-0.39,0.43c-0.32,0-0.54-0.36-0.69-1.09c-0.54-2.62-1.43-4.28-2.66-4.98
			c-0.92-0.52-3.32-0.79-7.21-0.79h-3.52v12.76h1.03c3.21,0,5.16-0.25,5.86-0.74s1.18-1.92,1.44-4.3c0.06-0.61,0.21-0.91,0.47-0.91
			c0.31,0,0.47,0.26,0.47,0.78c0,0.52-0.03,1.29-0.09,2.3c-0.06,1.01-0.09,1.78-0.09,2.3c0,3.1,0.04,5.22,0.14,6.38
			c0.02,0.29,0.03,0.54,0.03,0.74c0,0.38-0.16,0.56-0.47,0.56c-0.2,0-0.33-0.12-0.41-0.37s-0.19-1.05-0.36-2.41
			c-0.23-1.71-0.93-2.76-2.09-3.17c-0.51-0.17-1.85-0.26-4.02-0.26h-1.92v14.54c6.3,0,9.99-0.13,11.08-0.39
			c1.89-0.43,2.96-2.26,3.22-5.49c0.06-0.71,0.24-1.07,0.56-1.07C1717.53,1636.43,1717.67,1636.73,1717.67,1637.34z"/>
		<path fill="#4D4E4E" d="M1746.14,1614.6c0,0.29-0.36,0.42-1.07,0.39h-0.95h-0.77c-0.46,0-0.73,0.08-0.82,0.24
			c-0.09,0.16-0.13,0.64-0.13,1.45v24.96c0,1.53-0.02,2.43-0.04,2.69c-0.03,0.26-0.11,0.39-0.26,0.39c-0.17,0-0.37-0.16-0.6-0.48
			l-5.49-8.12c-3.18-4.72-7.05-10.61-11.61-17.67v24.23c0.03,0.38,0.25,0.62,0.65,0.72s1.37,0.17,2.91,0.19
			c0.38,0,0.56,0.12,0.56,0.35c0,0.29-0.37,0.43-1.12,0.43c-0.26,0-1.07-0.04-2.45-0.13c-0.46-0.03-0.9-0.04-1.33-0.04
			c0.03,0-0.22,0.03-0.75,0.09c-0.53,0.06-1.34,0.09-2.43,0.09h-0.43c-0.66,0-0.99-0.13-0.99-0.39s0.29-0.39,0.86-0.39
			c1.69-0.03,2.67-0.14,2.94-0.33c0.27-0.19,0.41-0.8,0.41-1.85v-21.43c0-2.4-0.49-3.91-1.46-4.52c-0.46-0.29-1.27-0.43-2.45-0.43
			c-0.74,0-1.12-0.15-1.12-0.46c0-0.27,0.21-0.41,0.64-0.41c0.57,0,1.3,0.03,2.19,0.09c0.89,0.06,1.36,0.09,1.42,0.09
			c0.09,0,0.49-0.01,1.2-0.04c0.95,0,1.86-0.04,2.75-0.13l14.81,22.35v-19.31c0-0.9-0.01-1.44-0.04-1.63
			c-0.03-0.19-0.14-0.33-0.34-0.43c-0.2-0.1-0.89-0.15-2.06-0.15c-1.03,0-1.55-0.13-1.55-0.39c0-0.29,0.34-0.43,1.03-0.43h1.5
			c0.37,0,0.77,0,1.2,0c0.46,0,0.73,0,0.82,0c0.03,0,0.29,0,0.77,0c0.46,0,0.89,0,1.29,0h1.33
			C1745.83,1614.17,1746.14,1614.31,1746.14,1614.6z"/>
		<path fill="#4D4E4E" d="M1771.22,1621.93c0,0.38-0.17,0.56-0.51,0.56c-0.34,0-0.59-0.38-0.73-1.13c-0.06-0.52-0.11-1.04-0.17-1.56
			c-0.2-1.04-0.53-1.92-0.99-2.65c-0.6-0.96-1.59-1.56-2.96-1.82c-0.89-0.17-1.6-0.25-2.15-0.22c-1.35,0.04-2.16,0.07-2.45,0.09
			v26.21c0,1.04,0.27,1.7,0.82,1.96c0.29,0.14,1.09,0.23,2.41,0.26c0.34,0.03,0.51,0.15,0.51,0.37c0,0.25-0.23,0.37-0.69,0.37
			c-0.23,0-0.43-0.01-0.6-0.04c-1.72-0.06-2.93-0.09-3.65-0.09c-0.95,0-1.83,0.02-2.66,0.07c-0.83,0.04-1.89,0.06-3.18,0.06
			c-0.66,0-0.99-0.12-0.99-0.35c0-0.26,0.62-0.41,1.85-0.43c0.89,0,1.46-0.19,1.72-0.56c0.14-0.23,0.21-0.83,0.21-1.78v-26.04
			c-2.83,0.03-4.59,0.17-5.28,0.43c-1.8,0.67-2.86,2.45-3.18,5.34c-0.09,0.87-0.29,1.3-0.6,1.3c-0.34,0-0.52-0.3-0.52-0.91
			c0-0.32,0.01-0.64,0.04-0.95l0.09-1c0.09-1.33,0.21-3.08,0.39-5.25h1.93l8.76,0.13c1.03,0.03,2.63,0.03,4.81,0l7.13-0.13
			c0.06,1.62,0.24,4.02,0.56,7.2c0,0.09,0.01,0.2,0.04,0.33C1771.2,1621.83,1771.22,1621.91,1771.22,1621.93z"/>
		<path fill="#4D4E4E" d="M1297.26,1751.54c0,0.58-0.21,0.87-0.61,0.87s-0.7-0.52-0.86-1.57c-0.49-3.01-1.49-5.21-3.01-6.59
			c-0.98-0.88-2.5-1.42-4.54-1.63c-0.74-0.08-2.37-0.13-4.91-0.13c-1.88,0-4.13,0.06-6.75,0.19v18.23c5.23,0.04,8.46-0.3,9.69-1.02
			c1.23-0.72,1.96-2.76,2.21-6.11c0.08-0.95,0.33-1.43,0.74-1.43c0.41,0,0.61,0.31,0.61,0.93c0,0.37-0.02,0.68-0.06,0.93
			c-0.12,2.85-0.18,5.5-0.18,7.94c0,3.14,0.06,5.62,0.2,7.44c0.03,0.17,0.05,0.41,0.05,0.74c0,0.5-0.2,0.74-0.61,0.74
			c-0.33,0-0.53-0.12-0.61-0.37c-0.08-0.25-0.22-1.2-0.43-2.85c-0.33-2.52-0.97-4.09-1.92-4.71c-0.96-0.62-2.86-0.93-5.71-0.93
			c-1.51,0-2.83,0.04-3.97,0.12v6.32v12.15c0,1.2,0.46,1.96,1.39,2.29c0.44,0.17,1.43,0.23,2.97,0.19c0.65,0,0.97,0.17,0.97,0.5
			c0,0.37-0.41,0.56-1.23,0.56h-0.61c-0.57,0-1.35,0-2.33,0c-0.94,0-1.57,0-1.9,0h-9.14c-0.78,0-1.17-0.17-1.17-0.5
			s0.71-0.54,2.12-0.62c1.41-0.08,2.24-0.28,2.48-0.59c0.25-0.31,0.37-1.28,0.37-2.89v-35.69c-0.04-0.75-0.26-1.21-0.65-1.4
			c-0.39-0.19-1.46-0.3-3.2-0.34c-0.66,0-0.99-0.21-0.99-0.62c0-0.37,0.37-0.56,1.1-0.56h0.98c-0.08,0,1.89,0,5.92,0
			c4.03,0,7.33,0,9.91,0c6.91,0,11.14-0.12,12.7-0.37c0.04,0.54,0.16,2.09,0.37,4.65c0.12,1.74,0.29,3.29,0.49,4.65
			C1297.22,1750.63,1297.26,1751.12,1297.26,1751.54z"/>
		<path fill="#4D4E4E" d="M1325.47,1754.54c0,0.23-0.26,0.35-0.77,0.35c-0.09,0-0.37,0-0.86,0c-0.14,0-0.34,0-0.6,0
			c-0.72,0-1.15,0.19-1.29,0.56c-0.06,0.2-0.09,0.53-0.09,1v16.25c0,4.22-0.78,7.29-2.34,9.21c-1.56,1.92-4.07,2.88-7.54,2.88
			c-4.15,0-7.07-1.19-8.76-3.56c-1.12-1.59-1.67-4.21-1.67-7.86v-17.4c-0.09-0.52-0.43-0.84-1.04-0.96
			c-0.17-0.03-0.71-0.04-1.61-0.04c-0.49-0.06-0.74-0.2-0.74-0.43c0-0.26,0.2-0.39,0.6-0.39h0.77c0.14,0,0.47,0,0.99,0
			c0.46,0,0.87,0,1.25,0h6.14c0.14,0,0.32,0,0.52,0c0.49,0,0.73,0.16,0.73,0.48c0,0.2-0.09,0.32-0.26,0.35s-0.75,0.06-1.72,0.09
			c-0.4,0-0.67,0.03-0.82,0.09c-0.29,0.12-0.44,0.32-0.47,0.61c-0.03,0.12-0.04,0.94-0.04,2.47v15.49c0,3.81,0.6,6.4,1.8,7.79
			c1.2,1.38,2.99,2.08,5.37,2.08c4.35,0,6.81-2.49,7.39-7.47c0.09-0.75,0.13-3.92,0.13-9.51v-2.46v-3.46v-2.98c0-0.29,0-0.61,0-0.95
			c0-0.37,0-0.53,0-0.48c0-0.63-0.3-1.02-0.9-1.17c-0.2-0.06-0.79-0.09-1.76-0.09c-0.57,0-0.86-0.16-0.86-0.48
			c0-0.26,0.2-0.39,0.6-0.39c0.23,0,0.42,0,0.56,0c0.34,0,1.6,0,3.75,0c0.32,0,0.68,0,1.08,0c0.37,0,0.65,0,0.82,0h0.65
			C1325.14,1754.15,1325.47,1754.28,1325.47,1754.54z"/>
		<path fill="#4D4E4E" d="M1350.38,1761.88c0,0.38-0.17,0.56-0.51,0.56c-0.34,0-0.59-0.38-0.73-1.13c-0.06-0.52-0.12-1.04-0.17-1.56
			c-0.2-1.04-0.53-1.92-0.99-2.65c-0.6-0.96-1.59-1.56-2.96-1.82c-0.89-0.17-1.6-0.25-2.15-0.22c-1.35,0.04-2.16,0.07-2.45,0.09
			v26.21c0,1.04,0.27,1.7,0.81,1.96c0.29,0.14,1.09,0.23,2.41,0.26c0.34,0.03,0.51,0.15,0.51,0.37c0,0.25-0.23,0.37-0.69,0.37
			c-0.23,0-0.43-0.01-0.6-0.04c-1.72-0.06-2.94-0.09-3.65-0.09c-0.94,0-1.83,0.02-2.66,0.07c-0.83,0.04-1.89,0.06-3.18,0.06
			c-0.66,0-0.99-0.12-0.99-0.35c0-0.26,0.62-0.41,1.85-0.43c0.89,0,1.46-0.19,1.72-0.56c0.14-0.23,0.21-0.83,0.21-1.78v-26.04
			c-2.83,0.03-4.59,0.17-5.28,0.43c-1.8,0.67-2.86,2.45-3.18,5.34c-0.09,0.87-0.29,1.3-0.6,1.3c-0.34,0-0.51-0.3-0.51-0.91
			c0-0.32,0.01-0.64,0.04-0.95l0.09-1c0.09-1.33,0.21-3.08,0.39-5.25h1.93l8.76,0.13c1.03,0.03,2.63,0.03,4.81,0l7.13-0.13
			c0.06,1.62,0.24,4.02,0.56,7.2c0,0.09,0.02,0.2,0.04,0.33C1350.36,1761.77,1350.38,1761.85,1350.38,1761.88z"/>
		<path fill="#4D4E4E" d="M1379.23,1754.54c0,0.23-0.26,0.35-0.77,0.35c-0.09,0-0.37,0-0.86,0c-0.14,0-0.34,0-0.6,0
			c-0.72,0-1.15,0.19-1.29,0.56c-0.06,0.2-0.09,0.53-0.09,1v16.25c0,4.22-0.78,7.29-2.34,9.21c-1.56,1.92-4.07,2.88-7.54,2.88
			c-4.15,0-7.07-1.19-8.76-3.56c-1.12-1.59-1.67-4.21-1.67-7.86v-17.4c-0.09-0.52-0.43-0.84-1.04-0.96
			c-0.17-0.03-0.71-0.04-1.61-0.04c-0.49-0.06-0.74-0.2-0.74-0.43c0-0.26,0.2-0.39,0.6-0.39h0.77c0.14,0,0.47,0,0.99,0
			c0.46,0,0.87,0,1.25,0h6.14c0.14,0,0.31,0,0.51,0c0.49,0,0.73,0.16,0.73,0.48c0,0.2-0.09,0.32-0.26,0.35s-0.75,0.06-1.72,0.09
			c-0.4,0-0.67,0.03-0.82,0.09c-0.29,0.12-0.44,0.32-0.47,0.61c-0.03,0.12-0.04,0.94-0.04,2.47v15.49c0,3.81,0.6,6.4,1.8,7.79
			s2.99,2.08,5.37,2.08c4.35,0,6.81-2.49,7.39-7.47c0.09-0.75,0.13-3.92,0.13-9.51v-2.46v-3.46v-2.98c0-0.29,0-0.61,0-0.95
			c0-0.37,0-0.53,0-0.48c0-0.63-0.3-1.02-0.9-1.17c-0.2-0.06-0.79-0.09-1.76-0.09c-0.57,0-0.86-0.16-0.86-0.48
			c0-0.26,0.2-0.39,0.6-0.39c0.23,0,0.42,0,0.56,0c0.34,0,1.6,0,3.75,0c0.32,0,0.68,0,1.08,0c0.38,0,0.65,0,0.82,0h0.65
			C1378.9,1754.15,1379.23,1754.28,1379.23,1754.54z"/>
		<path fill="#4D4E4E" d="M1405.12,1782.97c0,1.21-1,1.82-3,1.82c-2.23,0-3.98-0.94-5.24-2.82c-0.54-0.81-0.89-1.59-1.05-2.34
			c-0.16-0.75-0.39-2.66-0.71-5.73c-0.17-1.85-0.76-3.16-1.76-3.93c-1-0.77-2.63-1.18-4.9-1.24v13.67c0,0.58,0.46,0.94,1.37,1.08
			c0.26,0.03,0.92,0.06,1.98,0.09c0.37,0,0.56,0.12,0.56,0.35c0,0.26-0.24,0.39-0.73,0.39h-0.52c-0.26,0-1.5,0-3.74,0
			c-0.43,0-1.16,0-2.19,0c-1,0-1.66,0-1.97,0h-1.67c-0.63,0-0.95-0.13-0.95-0.39c0-0.2,0.42-0.32,1.25-0.35
			c1.35-0.03,2.08-0.2,2.19-0.52c0.11-0.14,0.17-0.71,0.17-1.69v-23.96c0-1.16-0.12-1.85-0.37-2.08c-0.24-0.23-0.98-0.36-2.21-0.39
			c-0.72,0-1.07-0.13-1.07-0.39c0-0.29,0.23-0.43,0.69-0.43c0.09,0,0.21,0.01,0.39,0.04l5.71,0.13c0.57,0,1.37-0.02,2.4-0.06
			c1.14-0.08,1.95-0.12,2.4-0.12c2.66,0,4.77,0.6,6.33,1.8c1.56,1.2,2.34,2.83,2.34,4.88c0,2.03-0.8,3.7-2.4,5.01
			c-1.6,1.32-3.78,2.09-6.53,2.32c-0.26,0.03-0.4,0.07-0.43,0.13c0,0.12,0.14,0.17,0.43,0.17c3.01,0.52,5.07,1.59,6.2,3.2
			s1.88,4.52,2.25,8.73c0.23,2.38,1.03,3.57,2.4,3.57c0.43,0,0.64-0.09,0.64-0.26c0-0.03-0.01-0.06-0.04-0.09
			c-0.14-0.32-0.21-0.58-0.21-0.78c0-0.61,0.31-0.91,0.94-0.91C1404.78,1781.89,1405.12,1782.25,1405.12,1782.97z M1396.24,1761.23
			c0-4.14-1.78-6.21-5.33-6.21c-0.94,0-1.59,0.13-1.93,0.39c-0.34,0.26-0.52,0.72-0.52,1.39v11.02c2.75,0.03,4.73-0.48,5.95-1.52
			C1395.63,1765.26,1396.24,1763.57,1396.24,1761.23z"/>
		<path fill="#4D4E4E" d="M1429,1777.29c0,0.12-0.03,0.82-0.09,2.13c-0.06,1.3-0.08,2.55-0.08,3.73v1.43
			c-2.81-0.17-8.36-0.26-16.66-0.26c-1,0-1.99,0-2.96,0c-0.97,0-1.63,0-1.98,0h-0.43c-0.54,0-0.82-0.12-0.82-0.35
			c0-0.16,0.09-0.25,0.26-0.27c0.09,0,0.63-0.04,1.63-0.12c0.74-0.06,1.2-0.22,1.35-0.48s0.24-0.94,0.24-2.05v-24.46
			c0-0.84-0.12-1.34-0.37-1.5c-0.24-0.16-1.02-0.24-2.34-0.24c-0.46,0-0.69-0.12-0.69-0.37s0.31-0.37,0.95-0.37h7.34
			c0.26,0,1.88,0,4.85,0s4.98,0,6.01,0c0.86,0,1.65-0.06,2.36-0.17c0.06,1.25,0.19,2.97,0.39,5.17l0.17,1.87
			c0.03,0.14,0.04,0.33,0.04,0.56c0,0.29-0.13,0.43-0.39,0.43c-0.32,0-0.54-0.36-0.69-1.09c-0.54-2.62-1.43-4.28-2.66-4.98
			c-0.92-0.52-3.32-0.79-7.21-0.79h-3.52v12.76h1.03c3.21,0,5.16-0.25,5.86-0.74s1.18-1.92,1.44-4.3c0.06-0.61,0.21-0.91,0.47-0.91
			c0.31,0,0.47,0.26,0.47,0.78c0,0.52-0.03,1.29-0.09,2.3c-0.06,1.01-0.09,1.78-0.09,2.3c0,3.1,0.04,5.22,0.14,6.38
			c0.02,0.29,0.03,0.54,0.03,0.74c0,0.38-0.16,0.56-0.47,0.56c-0.2,0-0.33-0.12-0.41-0.37s-0.19-1.05-0.36-2.41
			c-0.23-1.71-0.93-2.76-2.09-3.17c-0.51-0.17-1.85-0.26-4.02-0.26h-1.92v14.54c6.3,0,9.99-0.13,11.08-0.39
			c1.89-0.43,2.96-2.26,3.22-5.49c0.06-0.71,0.24-1.07,0.56-1.07C1428.86,1776.37,1429,1776.68,1429,1777.29z"/>
		<path fill="#4D4E4E" d="M1471.82,1751.54c0,4.01-1.7,7.13-5.09,9.36c-2.13,1.41-4.83,2.11-8.1,2.11c-1.39,0-2.97-0.14-4.72-0.43
			v17.61c0,0.95,0.04,1.55,0.12,1.8c0.2,0.58,0.65,0.93,1.35,1.05c1.19,0.17,2.33,0.25,3.43,0.25c0.45,0,0.67,0.15,0.67,0.43
			c0,0.41-0.29,0.62-0.86,0.62c-0.25,0-0.45,0-0.61,0c-2.25,0-6.48,0-12.7,0h-0.8c-1.23,0-1.84-0.21-1.84-0.62
			c0-0.29,0.43-0.44,1.29-0.44c1.92,0,3.03-0.19,3.31-0.56c0.33-0.17,0.51-0.58,0.55-1.24v-36.63c0-1.28-0.35-2.07-1.04-2.36
			c-0.41-0.17-1.12-0.25-2.15-0.25h-0.61c-0.12,0-0.27,0-0.43,0c-0.61,0-0.92-0.17-0.92-0.5c0-0.37,0.57-0.55,1.72-0.55h13.5
			c4.66,0,8.08,0.83,10.24,2.48C1470.59,1745.52,1471.82,1748.15,1471.82,1751.54z M1465.38,1751.6c0-6.24-2.58-9.36-7.73-9.36
			c-1.72,0-2.84,0.29-3.37,0.87c-0.25,0.25-0.37,0.89-0.37,1.93v16.6c0.33,0.04,0.7,0.06,1.1,0.06c2.7,0,4.99-0.6,6.87-1.81
			C1464.21,1758.4,1465.38,1755.63,1465.38,1751.6z"/>
		<path fill="#4D4E4E" d="M1501.51,1783.88c0,0.26-0.27,0.39-0.81,0.39h-5.88c-0.4,0-0.98,0-1.75,0s-1.33,0-1.7,0
			c-0.57,0-0.85-0.12-0.85-0.35c0-0.23,0.67-0.39,1.99-0.48c0.71-0.06,1.12-0.18,1.23-0.37c0.11-0.19,0.17-0.86,0.17-2.01v-12.64
			h-12.92v12.28c0,1.3,0.1,2.07,0.3,2.3c0.2,0.23,0.87,0.39,2.02,0.48c0.74,0.06,1.12,0.19,1.12,0.39c0,0.26-0.29,0.39-0.86,0.39
			h-0.39c-0.69,0-1.41,0-2.17,0c-0.76,0-1.21,0-1.35,0c-0.4,0-1,0-1.8,0c-0.8,0-2,0-3.61,0c-0.57,0-0.86-0.12-0.86-0.35
			c0-0.23,0.29-0.38,0.86-0.43c0.37-0.03,0.76-0.06,1.16-0.09c0.63-0.06,1.03-0.2,1.2-0.43c0.09-0.14,0.13-0.95,0.13-2.43v-22.88
			c0-1.3-0.06-2.07-0.19-2.3c-0.13-0.23-0.58-0.36-1.35-0.39c-0.89-0.06-1.41-0.11-1.57-0.14s-0.24-0.15-0.24-0.37
			c0-0.24,0.19-0.37,0.56-0.37c0.11,0,0.36,0.01,0.73,0.04c0.72,0.06,2.41,0.09,5.07,0.09c1.46,0,2.48-0.02,3.05-0.06
			c0.2-0.04,0.46-0.07,0.77-0.07c0.52,0,0.77,0.15,0.77,0.44c0,0.26-0.47,0.39-1.4,0.39c-0.93,0-1.49,0.11-1.67,0.33
			c-0.19,0.22-0.28,0.91-0.28,2.07v10.01h12.92v-9.36c0-1.54-0.11-2.45-0.34-2.72c-0.23-0.28-1.03-0.4-2.4-0.37
			c-0.43,0-0.64-0.13-0.64-0.39c0-0.26,0.24-0.39,0.73-0.39h0.21c0.4,0,1.1,0,2.1,0c1.03,0,1.8,0,2.32,0c1.75,0,2.93,0,3.54,0
			s1.01,0,1.18,0c0.6,0,0.9,0.13,0.9,0.39s-0.63,0.41-1.89,0.43c-0.37,0-0.64,0.03-0.82,0.09c-0.29,0.09-0.47,0.25-0.54,0.48
			c-0.07,0.23-0.11,0.91-0.11,2.04v23.09c0,1.39,0.07,2.2,0.21,2.43c0.28,0.32,1.1,0.48,2.46,0.48
			C1501.29,1783.48,1501.51,1783.59,1501.51,1783.88z"/>
		<path fill="#4D4E4E" d="M1531.87,1769.39c0,4.31-1.28,7.96-3.84,10.94c-2.56,2.98-5.71,4.47-9.43,4.47
			c-3.95,0-7.27-1.51-9.96-4.54c-2.69-3.02-4.04-6.75-4.04-11.18c0-4.51,1.29-8.21,3.89-11.09s5.9-4.32,9.94-4.32
			c3.81,0,7,1.5,9.58,4.51C1530.58,1761.2,1531.87,1764.93,1531.87,1769.39z M1527.06,1769.6c0-5.31-1.07-9.45-3.22-12.41
			c-1.35-1.86-3.22-2.79-5.63-2.79c-2.29,0-4.06,0.71-5.32,2.13c-2.32,2.61-3.48,6.86-3.48,12.75c0,4.67,0.81,8.3,2.43,10.88
			c1.62,2.58,3.89,3.87,6.81,3.87c2.72,0,4.77-1.22,6.14-3.66C1526.3,1777.7,1527.06,1774.1,1527.06,1769.6z"/>
		<path fill="#4D4E4E" d="M1558.19,1761.88c0,0.38-0.17,0.56-0.51,0.56c-0.34,0-0.59-0.38-0.73-1.13c-0.06-0.52-0.11-1.04-0.17-1.56
			c-0.2-1.04-0.53-1.92-0.99-2.65c-0.6-0.96-1.59-1.56-2.96-1.82c-0.89-0.17-1.6-0.25-2.15-0.22c-1.35,0.04-2.16,0.07-2.45,0.09
			v26.21c0,1.04,0.27,1.7,0.82,1.96c0.29,0.14,1.09,0.23,2.41,0.26c0.34,0.03,0.51,0.15,0.51,0.37c0,0.25-0.23,0.37-0.69,0.37
			c-0.23,0-0.43-0.01-0.6-0.04c-1.72-0.06-2.93-0.09-3.65-0.09c-0.95,0-1.83,0.02-2.66,0.07c-0.83,0.04-1.89,0.06-3.18,0.06
			c-0.66,0-0.99-0.12-0.99-0.35c0-0.26,0.62-0.41,1.85-0.43c0.89,0,1.46-0.19,1.72-0.56c0.14-0.23,0.21-0.83,0.21-1.78v-26.04
			c-2.83,0.03-4.59,0.17-5.28,0.43c-1.8,0.67-2.86,2.45-3.18,5.34c-0.09,0.87-0.29,1.3-0.6,1.3c-0.34,0-0.52-0.3-0.52-0.91
			c0-0.32,0.01-0.64,0.04-0.95l0.09-1c0.09-1.33,0.21-3.08,0.39-5.25h1.93l8.76,0.13c1.03,0.03,2.63,0.03,4.81,0l7.13-0.13
			c0.06,1.62,0.24,4.02,0.56,7.2c0,0.09,0.01,0.2,0.04,0.33C1558.18,1761.77,1558.19,1761.85,1558.19,1761.88z"/>
		<path fill="#4D4E4E" d="M1587.95,1769.39c0,4.31-1.28,7.96-3.84,10.94c-2.56,2.98-5.71,4.47-9.43,4.47
			c-3.95,0-7.27-1.51-9.96-4.54c-2.69-3.02-4.04-6.75-4.04-11.18c0-4.51,1.29-8.21,3.89-11.09s5.9-4.32,9.94-4.32
			c3.81,0,7,1.5,9.58,4.51C1586.66,1761.2,1587.95,1764.93,1587.95,1769.39z M1583.14,1769.6c0-5.31-1.07-9.45-3.22-12.41
			c-1.35-1.86-3.22-2.79-5.63-2.79c-2.29,0-4.06,0.71-5.32,2.13c-2.32,2.61-3.48,6.86-3.48,12.75c0,4.67,0.81,8.3,2.43,10.88
			c1.62,2.58,3.89,3.87,6.81,3.87c2.72,0,4.77-1.22,6.14-3.66C1582.38,1777.7,1583.14,1774.1,1583.14,1769.6z"/>
		<path fill="#4D4E4E" d="M1619.25,1775.18c0,0.22-0.34,0.33-1.03,0.33c-1.54,0-2.4,0.23-2.58,0.69c-0.11,0.32-0.17,1.57-0.17,3.76
			v1.38c-1.49,1.27-2.91,2.16-4.25,2.68c-1.35,0.52-2.96,0.78-4.85,0.78c-4.52,0-8.12-1.37-10.78-4.1
			c-2.66-2.73-3.99-6.45-3.99-11.13c0-4.74,1.3-8.58,3.91-11.5c2.6-2.92,6.04-4.38,10.31-4.38c1.86,0,3.89,0.52,6.1,1.56
			c0.66,0.32,1.2,0.48,1.63,0.48c0.54,0,0.9-0.35,1.07-1.04c0.14-0.41,0.31-0.61,0.52-0.61c0.23,0,0.34,0.13,0.34,0.39
			c0,0.03-0.03,0.3-0.08,0.82c-0.18,1.71-0.25,2.97-0.22,3.78v2.34c0.03,1.19,0.01,1.92-0.04,2.21c-0.06,0.29-0.21,0.43-0.47,0.43
			s-0.4-0.2-0.43-0.61c-0.14-2.79-0.94-4.99-2.4-6.6c-1.46-1.61-3.38-2.42-5.75-2.42c-2.98,0-5.33,1.34-7.06,4.03
			c-1.73,2.68-2.6,6.35-2.6,10.99c0,4.5,0.88,8.06,2.64,10.69c1.76,2.63,4.14,3.94,7.15,3.94c2.29,0,3.86-0.67,4.72-2.01
			c0.43-0.67,0.64-1.88,0.64-3.62c0-1.45-0.14-2.31-0.41-2.57s-1.21-0.38-2.81-0.35c-0.4,0-0.66-0.02-0.77-0.06
			c-0.12-0.04-0.17-0.12-0.17-0.25c0-0.29,0.31-0.43,0.94-0.43h0.77c0.63,0.03,2.2,0.03,4.72,0h3.44c0.2,0,0.42,0,0.64,0
			c0.23,0,0.39,0,0.47,0C1618.97,1774.77,1619.25,1774.91,1619.25,1775.18z"/>
		<path fill="#4D4E4E" d="M1643.81,1782.97c0,1.21-1,1.82-3,1.82c-2.23,0-3.98-0.94-5.24-2.82c-0.54-0.81-0.89-1.59-1.05-2.34
			c-0.16-0.75-0.39-2.66-0.71-5.73c-0.17-1.85-0.76-3.16-1.76-3.93c-1-0.77-2.63-1.18-4.9-1.24v13.67c0,0.58,0.46,0.94,1.37,1.08
			c0.26,0.03,0.92,0.06,1.98,0.09c0.37,0,0.56,0.12,0.56,0.35c0,0.26-0.24,0.39-0.73,0.39h-0.52c-0.26,0-1.5,0-3.74,0
			c-0.43,0-1.16,0-2.19,0c-1,0-1.66,0-1.97,0h-1.67c-0.63,0-0.95-0.13-0.95-0.39c0-0.2,0.42-0.32,1.25-0.35
			c1.35-0.03,2.08-0.2,2.19-0.52c0.11-0.14,0.17-0.71,0.17-1.69v-23.96c0-1.16-0.12-1.85-0.37-2.08c-0.24-0.23-0.98-0.36-2.21-0.39
			c-0.72,0-1.07-0.13-1.07-0.39c0-0.29,0.23-0.43,0.69-0.43c0.09,0,0.21,0.01,0.39,0.04l5.71,0.13c0.57,0,1.37-0.02,2.4-0.06
			c1.14-0.08,1.95-0.12,2.4-0.12c2.66,0,4.77,0.6,6.33,1.8c1.56,1.2,2.34,2.83,2.34,4.88c0,2.03-0.8,3.7-2.4,5.01
			c-1.6,1.32-3.78,2.09-6.53,2.32c-0.26,0.03-0.4,0.07-0.43,0.13c0,0.12,0.14,0.17,0.43,0.17c3.01,0.52,5.07,1.59,6.2,3.2
			s1.88,4.52,2.25,8.73c0.23,2.38,1.03,3.57,2.4,3.57c0.43,0,0.64-0.09,0.64-0.26c0-0.03-0.01-0.06-0.04-0.09
			c-0.14-0.32-0.21-0.58-0.21-0.78c0-0.61,0.31-0.91,0.94-0.91C1643.47,1781.89,1643.81,1782.25,1643.81,1782.97z M1634.93,1761.23
			c0-4.14-1.78-6.21-5.33-6.21c-0.94,0-1.59,0.13-1.93,0.39c-0.34,0.26-0.52,0.72-0.52,1.39v11.02c2.75,0.03,4.73-0.48,5.95-1.52
			C1634.32,1765.26,1634.93,1763.57,1634.93,1761.23z"/>
		<path fill="#4D4E4E" d="M1671.34,1783.99c0,0.25-0.21,0.37-0.64,0.37c-0.29,0-0.54-0.01-0.77-0.04l-5.45-0.17l-5.45,0.17
			c-0.2,0.03-0.42,0.04-0.64,0.04c-0.57,0-0.86-0.15-0.86-0.45c0-0.33,0.39-0.5,1.16-0.5c2.52-0.03,3.78-0.28,3.78-0.77
			c0-0.03-0.03-0.14-0.09-0.34l-0.35-1.15l-0.22-0.61c-0.26-0.9-0.89-2.88-1.89-5.95h-9.18c-1.72,4.63-2.57,7.29-2.57,7.99
			c0,0.41,0.17,0.65,0.51,0.74c0.09,0.03,0.8,0.09,2.15,0.17c0.83,0.03,1.25,0.17,1.25,0.43c0,0.29-0.37,0.43-1.12,0.43
			c-1.32,0-2.85-0.06-4.59-0.17c-0.43-0.03-0.87-0.04-1.33-0.04s-0.9,0.05-1.33,0.14c-0.23,0.05-0.42,0.07-0.56,0.07
			c-0.4,0-0.6-0.13-0.6-0.39s0.45-0.41,1.35-0.44c0.9-0.03,1.55-0.17,1.95-0.41c0.4-0.25,0.72-0.72,0.95-1.42
			c3.68-10.68,6.68-19.26,8.99-25.74c0.07-0.34,0.2-0.72,0.4-1.15l0.18-0.79c0.09-0.32,0.2-0.48,0.34-0.48
			c0.09,0,0.16,0.09,0.21,0.26c0.37,1.13,1.22,3.49,2.53,7.07c1.03,2.81,3.59,9.85,7.69,21.14c0.23,0.66,0.52,1.07,0.88,1.25
			c0.36,0.18,1.09,0.28,2.21,0.31C1670.97,1783.61,1671.34,1783.74,1671.34,1783.99z M1659.66,1773.6c-0.46-1.3-1.24-3.45-2.31-6.45
			l-2.06-6.02c-1.2,3.2-2.63,7.35-4.31,12.47H1659.66z"/>
		<path fill="#4D4E4E" d="M1690.79,1761.36c0,2.81-1.19,4.99-3.56,6.55c-1.49,0.98-3.38,1.48-5.67,1.48c-0.97,0-2.08-0.1-3.31-0.3
			v12.33c0,0.67,0.03,1.08,0.09,1.26c0.14,0.41,0.46,0.65,0.94,0.74c0.83,0.12,1.63,0.17,2.41,0.17c0.31,0,0.47,0.1,0.47,0.3
			c0,0.29-0.2,0.43-0.6,0.43c-0.17,0-0.32,0-0.43,0c-1.58,0-4.54,0-8.89,0h-0.56c-0.86,0-1.29-0.14-1.29-0.43c0-0.2,0.3-0.3,0.9-0.3
			c1.34,0,2.12-0.13,2.32-0.39c0.23-0.12,0.36-0.41,0.39-0.87v-25.64c0-0.9-0.24-1.45-0.73-1.65c-0.29-0.12-0.79-0.17-1.5-0.17
			h-0.43c-0.09,0-0.19,0-0.3,0c-0.43,0-0.64-0.12-0.64-0.35c0-0.26,0.4-0.39,1.2-0.39h9.45c3.26,0,5.65,0.58,7.17,1.74
			C1689.93,1757.15,1690.79,1758.99,1690.79,1761.36z M1686.28,1761.4c0-4.37-1.8-6.55-5.41-6.55c-1.2,0-1.99,0.2-2.36,0.61
			c-0.17,0.17-0.26,0.63-0.26,1.35v11.62c0.23,0.03,0.49,0.04,0.77,0.04c1.89,0,3.49-0.42,4.81-1.27
			C1685.47,1766.16,1686.28,1764.22,1686.28,1761.4z"/>
		<path fill="#4D4E4E" d="M1720.38,1783.88c0,0.26-0.27,0.39-0.81,0.39h-5.88c-0.4,0-0.98,0-1.75,0s-1.33,0-1.7,0
			c-0.57,0-0.85-0.12-0.85-0.35c0-0.23,0.67-0.39,1.99-0.48c0.71-0.06,1.12-0.18,1.23-0.37c0.11-0.19,0.17-0.86,0.17-2.01v-12.64
			h-12.92v12.28c0,1.3,0.1,2.07,0.3,2.3c0.2,0.23,0.87,0.39,2.02,0.48c0.74,0.06,1.12,0.19,1.12,0.39c0,0.26-0.29,0.39-0.86,0.39
			h-0.39c-0.69,0-1.41,0-2.17,0c-0.76,0-1.21,0-1.35,0c-0.4,0-1,0-1.8,0c-0.8,0-2,0-3.61,0c-0.57,0-0.86-0.12-0.86-0.35
			c0-0.23,0.29-0.38,0.86-0.43c0.37-0.03,0.76-0.06,1.16-0.09c0.63-0.06,1.03-0.2,1.2-0.43c0.09-0.14,0.13-0.95,0.13-2.43v-22.88
			c0-1.3-0.06-2.07-0.19-2.3c-0.13-0.23-0.58-0.36-1.35-0.39c-0.89-0.06-1.41-0.11-1.57-0.14s-0.24-0.15-0.24-0.37
			c0-0.24,0.19-0.37,0.56-0.37c0.11,0,0.36,0.01,0.73,0.04c0.72,0.06,2.41,0.09,5.07,0.09c1.46,0,2.48-0.02,3.05-0.06
			c0.2-0.04,0.46-0.07,0.77-0.07c0.52,0,0.77,0.15,0.77,0.44c0,0.26-0.47,0.39-1.4,0.39c-0.93,0-1.49,0.11-1.67,0.33
			c-0.19,0.22-0.28,0.91-0.28,2.07v10.01h12.92v-9.36c0-1.54-0.11-2.45-0.34-2.72c-0.23-0.28-1.03-0.4-2.4-0.37
			c-0.43,0-0.64-0.13-0.64-0.39c0-0.26,0.24-0.39,0.73-0.39h0.21c0.4,0,1.1,0,2.1,0c1.03,0,1.8,0,2.32,0c1.75,0,2.93,0,3.54,0
			s1.01,0,1.18,0c0.6,0,0.9,0.13,0.9,0.39s-0.63,0.41-1.89,0.43c-0.37,0-0.64,0.03-0.82,0.09c-0.29,0.09-0.47,0.25-0.54,0.48
			c-0.07,0.23-0.11,0.91-0.11,2.04v23.09c0,1.39,0.07,2.2,0.21,2.43c0.28,0.32,1.1,0.48,2.46,0.48
			C1720.15,1783.48,1720.38,1783.59,1720.38,1783.88z"/>
		<path fill="#4D4E4E" d="M1745.75,1777.29c0,0.12-0.03,0.82-0.09,2.13c-0.06,1.3-0.08,2.55-0.08,3.73v1.43
			c-2.81-0.17-8.36-0.26-16.66-0.26c-1,0-1.99,0-2.96,0c-0.97,0-1.63,0-1.98,0h-0.43c-0.54,0-0.82-0.12-0.82-0.35
			c0-0.16,0.09-0.25,0.26-0.27c0.09,0,0.63-0.04,1.63-0.12c0.74-0.06,1.2-0.22,1.35-0.48s0.24-0.94,0.24-2.05v-24.46
			c0-0.84-0.12-1.34-0.37-1.5c-0.24-0.16-1.02-0.24-2.34-0.24c-0.46,0-0.69-0.12-0.69-0.37s0.31-0.37,0.95-0.37h7.34
			c0.26,0,1.88,0,4.85,0s4.98,0,6.01,0c0.86,0,1.65-0.06,2.36-0.17c0.06,1.25,0.19,2.97,0.39,5.17l0.17,1.87
			c0.03,0.14,0.04,0.33,0.04,0.56c0,0.29-0.13,0.43-0.39,0.43c-0.32,0-0.54-0.36-0.69-1.09c-0.54-2.62-1.43-4.28-2.66-4.98
			c-0.92-0.52-3.32-0.79-7.21-0.79h-3.52v12.76h1.03c3.21,0,5.16-0.25,5.86-0.74s1.18-1.92,1.44-4.3c0.06-0.61,0.21-0.91,0.47-0.91
			c0.31,0,0.47,0.26,0.47,0.78c0,0.52-0.03,1.29-0.09,2.3c-0.06,1.01-0.09,1.78-0.09,2.3c0,3.1,0.04,5.22,0.14,6.38
			c0.02,0.29,0.03,0.54,0.03,0.74c0,0.38-0.16,0.56-0.47,0.56c-0.2,0-0.33-0.12-0.41-0.37s-0.19-1.05-0.36-2.41
			c-0.23-1.71-0.93-2.76-2.09-3.17c-0.51-0.17-1.85-0.26-4.02-0.26h-1.92v14.54c6.3,0,9.99-0.13,11.08-0.39
			c1.89-0.43,2.96-2.26,3.22-5.49c0.06-0.71,0.24-1.07,0.56-1.07C1745.61,1776.37,1745.75,1776.68,1745.75,1777.29z"/>
		<path fill="#4D4E4E" d="M1772.12,1782.97c0,1.21-1,1.82-3,1.82c-2.23,0-3.98-0.94-5.24-2.82c-0.54-0.81-0.89-1.59-1.05-2.34
			c-0.16-0.75-0.39-2.66-0.71-5.73c-0.17-1.85-0.76-3.16-1.76-3.93c-1-0.77-2.63-1.18-4.9-1.24v13.67c0,0.58,0.46,0.94,1.37,1.08
			c0.26,0.03,0.92,0.06,1.98,0.09c0.37,0,0.56,0.12,0.56,0.35c0,0.26-0.24,0.39-0.73,0.39h-0.52c-0.26,0-1.5,0-3.74,0
			c-0.43,0-1.16,0-2.19,0c-1,0-1.66,0-1.97,0h-1.67c-0.63,0-0.95-0.13-0.95-0.39c0-0.2,0.42-0.32,1.25-0.35
			c1.35-0.03,2.08-0.2,2.19-0.52c0.11-0.14,0.17-0.71,0.17-1.69v-23.96c0-1.16-0.12-1.85-0.37-2.08c-0.24-0.23-0.98-0.36-2.21-0.39
			c-0.72,0-1.07-0.13-1.07-0.39c0-0.29,0.23-0.43,0.69-0.43c0.09,0,0.21,0.01,0.39,0.04l5.71,0.13c0.57,0,1.37-0.02,2.4-0.06
			c1.14-0.08,1.95-0.12,2.4-0.12c2.66,0,4.77,0.6,6.33,1.8c1.56,1.2,2.34,2.83,2.34,4.88c0,2.03-0.8,3.7-2.4,5.01
			c-1.6,1.32-3.78,2.09-6.53,2.32c-0.26,0.03-0.4,0.07-0.43,0.13c0,0.12,0.14,0.17,0.43,0.17c3.01,0.52,5.07,1.59,6.2,3.2
			s1.88,4.52,2.25,8.73c0.23,2.38,1.03,3.57,2.4,3.57c0.43,0,0.64-0.09,0.64-0.26c0-0.03-0.01-0.06-0.04-0.09
			c-0.14-0.32-0.21-0.58-0.21-0.78c0-0.61,0.31-0.91,0.94-0.91C1771.78,1781.89,1772.12,1782.25,1772.12,1782.97z M1763.23,1761.23
			c0-4.14-1.78-6.21-5.33-6.21c-0.94,0-1.59,0.13-1.93,0.39c-0.34,0.26-0.52,0.72-0.52,1.39v11.02c2.75,0.03,4.73-0.48,5.95-1.52
			C1762.62,1765.26,1763.23,1763.57,1763.23,1761.23z"/>
		<path fill="#4D4E4E" d="M1233.25,1891.48c0,0.58-0.21,0.87-0.61,0.87s-0.7-0.52-0.86-1.57c-0.49-3.01-1.49-5.21-3.01-6.59
			c-0.98-0.88-2.5-1.42-4.54-1.63c-0.74-0.08-2.37-0.13-4.91-0.13c-1.88,0-4.13,0.06-6.75,0.19v18.23c5.23,0.04,8.46-0.3,9.69-1.02
			c1.23-0.72,1.96-2.76,2.21-6.11c0.08-0.95,0.33-1.43,0.74-1.43c0.41,0,0.61,0.31,0.61,0.93c0,0.37-0.02,0.68-0.06,0.93
			c-0.12,2.85-0.18,5.5-0.18,7.94c0,3.14,0.06,5.62,0.2,7.44c0.03,0.17,0.05,0.41,0.05,0.74c0,0.5-0.2,0.74-0.61,0.74
			c-0.33,0-0.53-0.12-0.61-0.37c-0.08-0.25-0.22-1.2-0.43-2.85c-0.33-2.52-0.97-4.09-1.92-4.71c-0.96-0.62-2.86-0.93-5.71-0.93
			c-1.51,0-2.83,0.04-3.97,0.12v6.32v12.15c0,1.2,0.46,1.96,1.39,2.29c0.44,0.17,1.43,0.23,2.97,0.19c0.65,0,0.97,0.17,0.97,0.5
			c0,0.37-0.41,0.56-1.23,0.56h-0.61c-0.57,0-1.35,0-2.33,0c-0.94,0-1.57,0-1.9,0h-9.14c-0.78,0-1.17-0.17-1.17-0.5
			s0.71-0.54,2.12-0.62c1.41-0.08,2.24-0.28,2.48-0.59c0.25-0.31,0.37-1.28,0.37-2.89v-35.69c-0.04-0.75-0.26-1.21-0.65-1.4
			c-0.39-0.19-1.46-0.3-3.2-0.34c-0.66,0-0.99-0.21-0.99-0.62c0-0.37,0.37-0.56,1.1-0.56h0.98c-0.08,0,1.89,0,5.92,0
			c4.03,0,7.33,0,9.91,0c6.91,0,11.14-0.12,12.7-0.37c0.04,0.54,0.16,2.09,0.37,4.65c0.12,1.74,0.29,3.29,0.49,4.65
			C1233.21,1890.57,1233.25,1891.07,1233.25,1891.48z"/>
		<path fill="#4D4E4E" d="M1261.46,1894.49c0,0.23-0.26,0.35-0.77,0.35c-0.09,0-0.37,0-0.86,0c-0.14,0-0.34,0-0.6,0
			c-0.72,0-1.15,0.19-1.29,0.56c-0.06,0.2-0.09,0.53-0.09,1v16.25c0,4.22-0.78,7.29-2.34,9.21c-1.56,1.92-4.07,2.88-7.54,2.88
			c-4.15,0-7.07-1.19-8.76-3.56c-1.12-1.59-1.67-4.21-1.67-7.86v-17.4c-0.09-0.52-0.43-0.84-1.04-0.96
			c-0.17-0.03-0.71-0.04-1.61-0.04c-0.49-0.06-0.74-0.2-0.74-0.43c0-0.26,0.2-0.39,0.6-0.39h0.77c0.14,0,0.47,0,0.99,0
			c0.46,0,0.87,0,1.25,0h6.14c0.14,0,0.32,0,0.52,0c0.49,0,0.73,0.16,0.73,0.48c0,0.2-0.09,0.32-0.26,0.35s-0.75,0.06-1.72,0.09
			c-0.4,0-0.67,0.03-0.82,0.09c-0.29,0.12-0.44,0.32-0.47,0.61c-0.03,0.12-0.04,0.94-0.04,2.47v15.49c0,3.81,0.6,6.4,1.8,7.79
			c1.2,1.38,2.99,2.08,5.37,2.08c4.35,0,6.81-2.49,7.39-7.47c0.09-0.75,0.13-3.92,0.13-9.51v-2.46v-3.46v-2.98c0-0.29,0-0.61,0-0.95
			c0-0.37,0-0.53,0-0.48c0-0.63-0.3-1.02-0.9-1.17c-0.2-0.06-0.79-0.09-1.76-0.09c-0.57,0-0.86-0.16-0.86-0.48
			c0-0.26,0.2-0.39,0.6-0.39c0.23,0,0.42,0,0.56,0c0.34,0,1.6,0,3.75,0c0.32,0,0.68,0,1.08,0c0.37,0,0.65,0,0.82,0h0.65
			C1261.13,1894.1,1261.46,1894.23,1261.46,1894.49z"/>
		<path fill="#4D4E4E" d="M1286.37,1901.82c0,0.38-0.17,0.56-0.51,0.56s-0.59-0.38-0.73-1.13c-0.06-0.52-0.11-1.04-0.17-1.56
			c-0.2-1.04-0.53-1.92-0.99-2.65c-0.6-0.96-1.59-1.56-2.96-1.82c-0.89-0.17-1.6-0.25-2.15-0.22c-1.35,0.04-2.16,0.07-2.45,0.09
			v26.21c0,1.04,0.27,1.7,0.82,1.96c0.29,0.14,1.09,0.23,2.4,0.26c0.34,0.03,0.52,0.15,0.52,0.37c0,0.25-0.23,0.37-0.69,0.37
			c-0.23,0-0.43-0.01-0.6-0.04c-1.72-0.06-2.94-0.09-3.65-0.09c-0.94,0-1.83,0.02-2.66,0.07c-0.83,0.04-1.89,0.06-3.18,0.06
			c-0.66,0-0.99-0.12-0.99-0.35c0-0.26,0.62-0.41,1.85-0.43c0.89,0,1.46-0.19,1.72-0.56c0.14-0.23,0.21-0.83,0.21-1.78v-26.04
			c-2.83,0.03-4.59,0.17-5.28,0.43c-1.8,0.67-2.86,2.45-3.18,5.34c-0.09,0.87-0.29,1.3-0.6,1.3c-0.34,0-0.51-0.3-0.51-0.91
			c0-0.32,0.01-0.64,0.04-0.95l0.09-1c0.09-1.33,0.21-3.08,0.39-5.25h1.93l8.76,0.13c1.03,0.03,2.63,0.03,4.81,0l7.13-0.13
			c0.06,1.62,0.24,4.02,0.56,7.2c0,0.09,0.01,0.2,0.04,0.33C1286.35,1901.71,1286.37,1901.79,1286.37,1901.82z"/>
		<path fill="#4D4E4E" d="M1315.22,1894.49c0,0.23-0.26,0.35-0.77,0.35c-0.09,0-0.37,0-0.86,0c-0.14,0-0.34,0-0.6,0
			c-0.72,0-1.14,0.19-1.29,0.56c-0.06,0.2-0.09,0.53-0.09,1v16.25c0,4.22-0.78,7.29-2.34,9.21c-1.56,1.92-4.07,2.88-7.54,2.88
			c-4.15,0-7.07-1.19-8.76-3.56c-1.12-1.59-1.67-4.21-1.67-7.86v-17.4c-0.09-0.52-0.43-0.84-1.04-0.96
			c-0.17-0.03-0.71-0.04-1.61-0.04c-0.49-0.06-0.74-0.2-0.74-0.43c0-0.26,0.2-0.39,0.6-0.39h0.77c0.14,0,0.47,0,0.99,0
			c0.46,0,0.87,0,1.25,0h6.14c0.14,0,0.31,0,0.52,0c0.49,0,0.73,0.16,0.73,0.48c0,0.2-0.09,0.32-0.26,0.35s-0.74,0.06-1.72,0.09
			c-0.4,0-0.67,0.03-0.82,0.09c-0.29,0.12-0.44,0.32-0.47,0.61c-0.03,0.12-0.04,0.94-0.04,2.47v15.49c0,3.81,0.6,6.4,1.8,7.79
			s2.99,2.08,5.37,2.08c4.35,0,6.81-2.49,7.39-7.47c0.09-0.75,0.13-3.92,0.13-9.51v-2.46v-3.46v-2.98c0-0.29,0-0.61,0-0.95
			c0-0.37,0-0.53,0-0.48c0-0.63-0.3-1.02-0.9-1.17c-0.2-0.06-0.79-0.09-1.76-0.09c-0.57,0-0.86-0.16-0.86-0.48
			c0-0.26,0.2-0.39,0.6-0.39c0.23,0,0.42,0,0.56,0c0.34,0,1.6,0,3.75,0c0.32,0,0.68,0,1.08,0c0.37,0,0.65,0,0.82,0h0.65
			C1314.89,1894.1,1315.22,1894.23,1315.22,1894.49z"/>
		<path fill="#4D4E4E" d="M1341.12,1922.92c0,1.21-1,1.82-3,1.82c-2.23,0-3.98-0.94-5.24-2.82c-0.54-0.81-0.89-1.59-1.05-2.34
			c-0.16-0.75-0.39-2.66-0.71-5.73c-0.17-1.85-0.76-3.16-1.76-3.93c-1-0.77-2.63-1.18-4.9-1.24v13.67c0,0.58,0.46,0.94,1.37,1.08
			c0.26,0.03,0.92,0.06,1.98,0.09c0.37,0,0.56,0.12,0.56,0.35c0,0.26-0.24,0.39-0.73,0.39h-0.52c-0.26,0-1.5,0-3.74,0
			c-0.43,0-1.16,0-2.19,0c-1,0-1.66,0-1.97,0h-1.67c-0.63,0-0.94-0.13-0.94-0.39c0-0.2,0.41-0.32,1.25-0.35
			c1.34-0.03,2.08-0.2,2.19-0.52c0.11-0.14,0.17-0.71,0.17-1.69v-23.96c0-1.16-0.12-1.85-0.37-2.08c-0.24-0.23-0.98-0.36-2.21-0.39
			c-0.72,0-1.07-0.13-1.07-0.39c0-0.29,0.23-0.43,0.69-0.43c0.09,0,0.21,0.01,0.39,0.04l5.71,0.13c0.57,0,1.37-0.02,2.4-0.06
			c1.14-0.08,1.95-0.12,2.41-0.12c2.66,0,4.77,0.6,6.33,1.8c1.56,1.2,2.34,2.83,2.34,4.88c0,2.03-0.8,3.7-2.41,5.01
			c-1.6,1.32-3.78,2.09-6.53,2.32c-0.26,0.03-0.4,0.07-0.43,0.13c0,0.12,0.14,0.17,0.43,0.17c3.01,0.52,5.07,1.59,6.21,3.2
			c1.13,1.61,1.88,4.52,2.25,8.73c0.23,2.38,1.03,3.57,2.4,3.57c0.43,0,0.64-0.09,0.64-0.26c0-0.03-0.01-0.06-0.04-0.09
			c-0.14-0.32-0.21-0.58-0.21-0.78c0-0.61,0.31-0.91,0.94-0.91C1340.77,1921.83,1341.12,1922.19,1341.12,1922.92z M1332.23,1901.17
			c0-4.14-1.78-6.21-5.33-6.21c-0.94,0-1.59,0.13-1.93,0.39c-0.34,0.26-0.52,0.72-0.52,1.39v11.02c2.75,0.03,4.73-0.48,5.95-1.52
			C1331.62,1905.21,1332.23,1903.51,1332.23,1901.17z"/>
		<path fill="#4D4E4E" d="M1364.99,1917.23c0,0.12-0.03,0.82-0.09,2.13c-0.06,1.3-0.08,2.55-0.08,3.73v1.43
			c-2.81-0.17-8.36-0.26-16.66-0.26c-1,0-1.99,0-2.96,0c-0.97,0-1.63,0-1.98,0h-0.43c-0.54,0-0.82-0.12-0.82-0.35
			c0-0.16,0.09-0.25,0.26-0.27c0.09,0,0.63-0.04,1.63-0.12c0.74-0.06,1.2-0.22,1.35-0.48s0.24-0.94,0.24-2.05v-24.46
			c0-0.84-0.12-1.34-0.37-1.5c-0.24-0.16-1.02-0.24-2.34-0.24c-0.46,0-0.69-0.12-0.69-0.37s0.31-0.37,0.95-0.37h7.34
			c0.26,0,1.88,0,4.85,0s4.98,0,6.01,0c0.86,0,1.65-0.06,2.36-0.17c0.06,1.25,0.19,2.97,0.39,5.17l0.17,1.87
			c0.03,0.14,0.04,0.33,0.04,0.56c0,0.29-0.13,0.43-0.39,0.43c-0.32,0-0.54-0.36-0.69-1.09c-0.54-2.62-1.43-4.28-2.66-4.98
			c-0.92-0.52-3.32-0.79-7.21-0.79h-3.52v12.76h1.03c3.21,0,5.16-0.25,5.86-0.74s1.18-1.92,1.44-4.3c0.06-0.61,0.21-0.91,0.47-0.91
			c0.31,0,0.47,0.26,0.47,0.78c0,0.52-0.03,1.29-0.09,2.3c-0.06,1.01-0.09,1.78-0.09,2.3c0,3.1,0.04,5.22,0.14,6.38
			c0.02,0.29,0.03,0.54,0.03,0.74c0,0.38-0.16,0.56-0.47,0.56c-0.2,0-0.33-0.12-0.41-0.37s-0.19-1.05-0.36-2.41
			c-0.23-1.71-0.93-2.76-2.09-3.17c-0.51-0.17-1.85-0.26-4.02-0.26h-1.92v14.54c6.3,0,9.99-0.13,11.08-0.39
			c1.89-0.43,2.96-2.26,3.22-5.49c0.06-0.71,0.24-1.07,0.56-1.07C1364.85,1916.32,1364.99,1916.62,1364.99,1917.23z"/>
		<path fill="#4D4E4E" d="M1419.4,1911.22c0,0.31-0.49,0.47-1.47,0.47c-2.21,0-3.44,0.33-3.68,0.99c-0.16,0.45-0.25,2.24-0.25,5.37
			v1.98c-2.13,1.81-4.15,3.09-6.07,3.83c-1.92,0.74-4.23,1.11-6.93,1.11c-6.46,0-11.59-1.95-15.4-5.86s-5.71-9.21-5.71-15.9
			c0-6.78,1.86-12.25,5.58-16.43c3.72-4.17,8.63-6.26,14.72-6.26c2.66,0,5.56,0.74,8.71,2.23c0.94,0.46,1.72,0.68,2.33,0.68
			c0.78,0,1.29-0.5,1.53-1.49c0.2-0.58,0.45-0.87,0.74-0.87c0.33,0,0.49,0.19,0.49,0.56c0,0.04-0.04,0.43-0.11,1.18
			c-0.26,2.44-0.36,4.24-0.32,5.39v3.35c0.04,1.7,0.02,2.75-0.06,3.16c-0.08,0.41-0.31,0.62-0.67,0.62s-0.57-0.29-0.61-0.87
			c-0.21-3.99-1.35-7.13-3.44-9.44c-2.08-2.3-4.83-3.46-8.22-3.46c-4.25,0-7.62,1.92-10.09,5.75c-2.47,3.83-3.71,9.07-3.71,15.7
			c0,6.43,1.26,11.51,3.77,15.27c2.51,3.75,5.92,5.63,10.21,5.63c3.27,0,5.52-0.96,6.75-2.87c0.61-0.96,0.92-2.68,0.92-5.17
			c0-2.08-0.19-3.3-0.58-3.68c-0.39-0.37-1.73-0.54-4.02-0.5c-0.57,0-0.94-0.03-1.1-0.08c-0.16-0.05-0.25-0.17-0.25-0.36
			c0-0.41,0.45-0.61,1.35-0.61h1.1c0.9,0.04,3.15,0.04,6.75,0h4.91c0.29,0,0.59,0,0.92,0c0.33,0,0.55,0,0.67,0
			C1418.99,1910.64,1419.4,1910.83,1419.4,1911.22z"/>
		<path fill="#4D4E4E" d="M1443.56,1922.92c0,1.21-1,1.82-3,1.82c-2.23,0-3.98-0.94-5.24-2.82c-0.54-0.81-0.89-1.59-1.05-2.34
			c-0.16-0.75-0.39-2.66-0.71-5.73c-0.17-1.85-0.76-3.16-1.76-3.93c-1-0.77-2.63-1.18-4.9-1.24v13.67c0,0.58,0.46,0.94,1.37,1.08
			c0.26,0.03,0.92,0.06,1.98,0.09c0.37,0,0.56,0.12,0.56,0.35c0,0.26-0.24,0.39-0.73,0.39h-0.52c-0.26,0-1.5,0-3.74,0
			c-0.43,0-1.16,0-2.19,0c-1,0-1.66,0-1.97,0h-1.67c-0.63,0-0.95-0.13-0.95-0.39c0-0.2,0.42-0.32,1.25-0.35
			c1.35-0.03,2.08-0.2,2.19-0.52c0.11-0.14,0.17-0.71,0.17-1.69v-23.96c0-1.16-0.12-1.85-0.37-2.08c-0.24-0.23-0.98-0.36-2.21-0.39
			c-0.72,0-1.07-0.13-1.07-0.39c0-0.29,0.23-0.43,0.69-0.43c0.09,0,0.21,0.01,0.39,0.04l5.71,0.13c0.57,0,1.37-0.02,2.4-0.06
			c1.14-0.08,1.95-0.12,2.4-0.12c2.66,0,4.77,0.6,6.33,1.8c1.56,1.2,2.34,2.83,2.34,4.88c0,2.03-0.8,3.7-2.4,5.01
			c-1.6,1.32-3.78,2.09-6.53,2.32c-0.26,0.03-0.4,0.07-0.43,0.13c0,0.12,0.14,0.17,0.43,0.17c3.01,0.52,5.07,1.59,6.2,3.2
			s1.88,4.52,2.25,8.73c0.23,2.38,1.03,3.57,2.4,3.57c0.43,0,0.64-0.09,0.64-0.26c0-0.03-0.01-0.06-0.04-0.09
			c-0.14-0.32-0.21-0.58-0.21-0.78c0-0.61,0.31-0.91,0.94-0.91C1443.21,1921.83,1443.56,1922.19,1443.56,1922.92z M1434.67,1901.17
			c0-4.14-1.78-6.21-5.33-6.21c-0.94,0-1.59,0.13-1.93,0.39c-0.34,0.26-0.52,0.72-0.52,1.39v11.02c2.75,0.03,4.73-0.48,5.95-1.52
			C1434.06,1905.21,1434.67,1903.51,1434.67,1901.17z"/>
		<path fill="#4D4E4E" d="M1471.08,1923.93c0,0.25-0.21,0.37-0.64,0.37c-0.29,0-0.54-0.01-0.77-0.04l-5.45-0.17l-5.45,0.17
			c-0.2,0.03-0.42,0.04-0.64,0.04c-0.57,0-0.86-0.15-0.86-0.45c0-0.33,0.39-0.5,1.16-0.5c2.52-0.03,3.78-0.28,3.78-0.77
			c0-0.03-0.03-0.14-0.09-0.34l-0.35-1.15l-0.22-0.61c-0.26-0.9-0.89-2.88-1.89-5.95h-9.18c-1.72,4.63-2.57,7.29-2.57,7.99
			c0,0.41,0.17,0.65,0.51,0.74c0.09,0.03,0.8,0.09,2.15,0.17c0.83,0.03,1.25,0.17,1.25,0.43c0,0.29-0.37,0.43-1.12,0.43
			c-1.32,0-2.85-0.06-4.59-0.17c-0.43-0.03-0.87-0.04-1.33-0.04s-0.9,0.05-1.33,0.14c-0.23,0.05-0.42,0.07-0.56,0.07
			c-0.4,0-0.6-0.13-0.6-0.39s0.45-0.41,1.35-0.44c0.9-0.03,1.55-0.17,1.95-0.41c0.4-0.25,0.72-0.72,0.95-1.42
			c3.68-10.68,6.68-19.26,8.99-25.74c0.07-0.34,0.2-0.72,0.4-1.15l0.18-0.79c0.09-0.32,0.2-0.48,0.34-0.48
			c0.09,0,0.16,0.09,0.21,0.26c0.37,1.13,1.22,3.49,2.53,7.07c1.03,2.81,3.59,9.85,7.69,21.14c0.23,0.66,0.52,1.07,0.88,1.25
			c0.36,0.18,1.09,0.28,2.21,0.31C1470.71,1923.55,1471.08,1923.69,1471.08,1923.93z M1459.4,1913.54c-0.46-1.3-1.24-3.45-2.31-6.45
			l-2.06-6.02c-1.2,3.2-2.63,7.35-4.31,12.47H1459.4z"/>
		<path fill="#4D4E4E" d="M1490.53,1901.3c0,2.81-1.19,4.99-3.56,6.55c-1.49,0.98-3.38,1.48-5.67,1.48c-0.97,0-2.08-0.1-3.31-0.3
			v12.33c0,0.67,0.03,1.08,0.09,1.26c0.14,0.41,0.46,0.65,0.94,0.74c0.83,0.12,1.63,0.17,2.41,0.17c0.31,0,0.47,0.1,0.47,0.3
			c0,0.29-0.2,0.43-0.6,0.43c-0.17,0-0.32,0-0.43,0c-1.58,0-4.54,0-8.89,0h-0.56c-0.86,0-1.29-0.14-1.29-0.43c0-0.2,0.3-0.3,0.9-0.3
			c1.34,0,2.12-0.13,2.32-0.39c0.23-0.12,0.36-0.41,0.39-0.87v-25.64c0-0.9-0.24-1.45-0.73-1.65c-0.29-0.12-0.79-0.17-1.5-0.17
			h-0.43c-0.09,0-0.19,0-0.3,0c-0.43,0-0.64-0.12-0.64-0.35c0-0.26,0.4-0.39,1.2-0.39h9.45c3.26,0,5.65,0.58,7.17,1.74
			C1489.67,1897.09,1490.53,1898.93,1490.53,1901.3z M1486.02,1901.34c0-4.37-1.8-6.55-5.41-6.55c-1.2,0-1.99,0.2-2.36,0.61
			c-0.17,0.17-0.26,0.63-0.26,1.35v11.62c0.23,0.03,0.49,0.04,0.77,0.04c1.89,0,3.49-0.42,4.81-1.27
			C1485.21,1906.1,1486.02,1904.17,1486.02,1901.34z"/>
		<path fill="#4D4E4E" d="M1520.12,1923.83c0,0.26-0.27,0.39-0.81,0.39h-5.88c-0.4,0-0.98,0-1.75,0s-1.33,0-1.7,0
			c-0.57,0-0.85-0.12-0.85-0.35c0-0.23,0.67-0.39,1.99-0.48c0.71-0.06,1.12-0.18,1.23-0.37c0.11-0.19,0.17-0.86,0.17-2.01v-12.64
			h-12.92v12.28c0,1.3,0.1,2.07,0.3,2.3c0.2,0.23,0.87,0.39,2.02,0.48c0.74,0.06,1.12,0.19,1.12,0.39c0,0.26-0.29,0.39-0.86,0.39
			h-0.39c-0.69,0-1.41,0-2.17,0c-0.76,0-1.21,0-1.35,0c-0.4,0-1,0-1.8,0c-0.8,0-2,0-3.61,0c-0.57,0-0.86-0.12-0.86-0.35
			c0-0.23,0.29-0.38,0.86-0.43c0.37-0.03,0.76-0.06,1.16-0.09c0.63-0.06,1.03-0.2,1.2-0.43c0.09-0.14,0.13-0.95,0.13-2.43v-22.88
			c0-1.3-0.06-2.07-0.19-2.3c-0.13-0.23-0.58-0.36-1.35-0.39c-0.89-0.06-1.41-0.11-1.57-0.14s-0.24-0.15-0.24-0.37
			c0-0.24,0.19-0.37,0.56-0.37c0.11,0,0.36,0.01,0.73,0.04c0.72,0.06,2.41,0.09,5.07,0.09c1.46,0,2.48-0.02,3.05-0.06
			c0.2-0.04,0.46-0.07,0.77-0.07c0.52,0,0.77,0.15,0.77,0.44c0,0.26-0.47,0.39-1.4,0.39c-0.93,0-1.49,0.11-1.67,0.33
			c-0.19,0.22-0.28,0.91-0.28,2.07v10.01h12.92v-9.36c0-1.54-0.11-2.45-0.34-2.72c-0.23-0.28-1.03-0.4-2.4-0.37
			c-0.43,0-0.64-0.13-0.64-0.39c0-0.26,0.24-0.39,0.73-0.39h0.21c0.4,0,1.1,0,2.1,0c1.03,0,1.8,0,2.32,0c1.75,0,2.93,0,3.54,0
			s1.01,0,1.18,0c0.6,0,0.9,0.13,0.9,0.39s-0.63,0.41-1.89,0.43c-0.37,0-0.64,0.03-0.82,0.09c-0.29,0.09-0.47,0.25-0.54,0.48
			c-0.07,0.23-0.11,0.91-0.11,2.04v23.09c0,1.39,0.07,2.2,0.21,2.43c0.28,0.32,1.1,0.48,2.46,0.48
			C1519.89,1923.42,1520.12,1923.54,1520.12,1923.83z"/>
		<path fill="#4D4E4E" d="M1533.77,1923.85c0,0.25-0.17,0.37-0.52,0.37h-0.43c-0.17-0.09-2.13-0.13-5.86-0.13
			c-0.72,0-1.44,0.03-2.15,0.09c-0.37,0.03-0.95,0.04-1.72,0.04c-0.37,0-0.56-0.13-0.56-0.39c0-0.23,0.37-0.36,1.12-0.39
			c1.15-0.03,1.82-0.17,2.02-0.41s0.3-1.08,0.3-2.5v-22.9c0-1.42-0.07-2.22-0.22-2.39c-0.17-0.29-0.97-0.46-2.39-0.52
			c-0.55-0.03-0.83-0.13-0.83-0.31c0-0.23,0.17-0.34,0.52-0.34h5.86c0.43,0,1.27,0.01,2.52,0.04l1.65-0.04
			c0.46,0,0.69,0.12,0.69,0.37c0,0.22-0.64,0.36-1.94,0.41c-0.73,0.03-1.18,0.16-1.34,0.39c-0.16,0.23-0.24,0.84-0.24,1.82v23.17
			c0,1.65,0.07,2.55,0.22,2.69c0.32,0.32,1.26,0.51,2.83,0.56C1533.61,1923.48,1533.77,1923.6,1533.77,1923.85z"/>
		<path fill="#4D4E4E" d="M1561,1914.5c0-0.03-0.03,0.36-0.09,1.17c-0.11,1.62-0.17,3.24-0.17,4.86c0,0.2,0.03,0.57,0.09,1.11
			s0.09,1.18,0.09,1.93v0.39c0,0.38-0.11,0.56-0.34,0.56s-0.43-0.22-0.6-0.65c-0.4-1.01-0.8-1.63-1.2-1.87
			c-2.06,1.82-4.54,2.73-7.43,2.73c-4.21,0-7.69-1.48-10.46-4.45c-2.76-2.97-4.14-6.71-4.14-11.22c0-4.54,1.27-8.25,3.8-11.13
			s5.8-4.32,9.81-4.32c1.46,0,2.63,0.12,3.5,0.37c0.87,0.25,1.95,0.75,3.24,1.5c0.63,0.38,1.1,0.56,1.42,0.56
			c0.26,0,0.5-0.23,0.73-0.69c0.37-0.81,0.67-1.21,0.9-1.21c0.23,0,0.34,0.12,0.34,0.35c0,0.12-0.03,0.3-0.09,0.56
			c-0.31,1.39-0.47,3.99-0.47,7.81c0,0.55-0.04,0.87-0.13,0.95c-0.09,0.09-0.2,0.13-0.34,0.13c-0.29,0-0.47-0.27-0.56-0.83
			c-0.37-2.31-0.9-4.04-1.59-5.16c-1.4-2.31-3.61-3.47-6.61-3.47c-2.32,0-4.15,0.78-5.5,2.34c-2.43,2.81-3.65,6.92-3.65,12.33
			c0,4.83,1,8.58,3.01,11.24c1.75,2.32,4.06,3.47,6.96,3.47c1.49,0,2.85-0.38,4.08-1.13c1.23-0.75,2.18-1.79,2.86-3.1
			c0.67-1.32,1.19-2.9,1.57-4.75c0.14-0.69,0.33-1.04,0.56-1.04C1560.85,1913.84,1561,1914.06,1561,1914.5z"/>
		<path fill="#4D4E4E" d="M1603.28,1909.16c0,5.11-1.76,9.08-5.28,11.93c-2.58,2.09-6.03,3.13-10.35,3.13c-0.12,0-0.62,0-1.52,0
			c-0.9,0-2.21,0-3.93,0h-2.15h-3.39c-0.2,0-0.42,0-0.64,0c-0.54,0-0.82-0.14-0.82-0.43c0-0.26,0.46-0.39,1.37-0.39
			c1.17,0,1.9-0.22,2.19-0.65c0.11-0.2,0.17-0.75,0.17-1.65v-23.39c0-1.42-0.11-2.24-0.32-2.47s-0.95-0.35-2.21-0.35
			c-0.66,0-0.99-0.16-0.99-0.48c0-0.23,0.24-0.35,0.73-0.35c-0.03,0,0.29,0,0.94,0c0.66,0,1.3,0,1.93,0h4.59
			c5.15,0,8.8,0.36,10.95,1.09c2.6,0.87,4.71,2.59,6.31,5.16C1602.48,1902.87,1603.28,1905.82,1603.28,1909.16z M1598.47,1908.98
			c0-4.82-0.93-8.35-2.79-10.6c-1.86-2.25-4.77-3.37-8.72-3.37c-1.92,0-3.08,0.2-3.48,0.61c-0.17,0.2-0.26,0.9-0.26,2.09v23.16
			c0,0.81,0.02,1.31,0.06,1.48c0.04,0.17,0.16,0.32,0.37,0.44c0.69,0.35,2.13,0.52,4.34,0.52c3.09,0,5.58-1.1,7.47-3.31
			C1597.47,1917.67,1598.47,1914,1598.47,1908.98z"/>
		<path fill="#4D4E4E" d="M1629.17,1917.23c0,0.12-0.03,0.82-0.09,2.13c-0.06,1.3-0.08,2.55-0.08,3.73v1.43
			c-2.81-0.17-8.36-0.26-16.66-0.26c-1,0-1.99,0-2.96,0c-0.97,0-1.63,0-1.98,0h-0.43c-0.54,0-0.82-0.12-0.82-0.35
			c0-0.16,0.09-0.25,0.26-0.27c0.09,0,0.63-0.04,1.63-0.12c0.74-0.06,1.2-0.22,1.35-0.48s0.24-0.94,0.24-2.05v-24.46
			c0-0.84-0.12-1.34-0.37-1.5c-0.24-0.16-1.02-0.24-2.34-0.24c-0.46,0-0.69-0.12-0.69-0.37s0.31-0.37,0.95-0.37h7.34
			c0.26,0,1.88,0,4.85,0s4.98,0,6.01,0c0.86,0,1.65-0.06,2.36-0.17c0.06,1.25,0.19,2.97,0.39,5.17l0.17,1.87
			c0.03,0.14,0.04,0.33,0.04,0.56c0,0.29-0.13,0.43-0.39,0.43c-0.32,0-0.54-0.36-0.69-1.09c-0.54-2.62-1.43-4.28-2.66-4.98
			c-0.92-0.52-3.32-0.79-7.21-0.79h-3.52v12.76h1.03c3.21,0,5.16-0.25,5.86-0.74s1.18-1.92,1.44-4.3c0.06-0.61,0.21-0.91,0.47-0.91
			c0.31,0,0.47,0.26,0.47,0.78c0,0.52-0.03,1.29-0.09,2.3c-0.06,1.01-0.09,1.78-0.09,2.3c0,3.1,0.04,5.22,0.14,6.38
			c0.02,0.29,0.03,0.54,0.03,0.74c0,0.38-0.16,0.56-0.47,0.56c-0.2,0-0.33-0.12-0.41-0.37s-0.19-1.05-0.36-2.41
			c-0.23-1.71-0.93-2.76-2.09-3.17c-0.51-0.17-1.85-0.26-4.02-0.26h-1.92v14.54c6.3,0,9.99-0.13,11.08-0.39
			c1.89-0.43,2.96-2.26,3.22-5.49c0.06-0.71,0.24-1.07,0.56-1.07C1629.03,1916.32,1629.17,1916.62,1629.17,1917.23z"/>
		<path fill="#4D4E4E" d="M1650.17,1915.75c0,2.49-0.94,4.61-2.81,6.36s-4.13,2.62-6.76,2.62c-1.55,0-3.39-0.48-5.54-1.43
			c-0.57-0.26-1-0.39-1.29-0.39c-0.34,0-0.56,0.4-0.64,1.2c-0.03,0.41-0.21,0.62-0.56,0.62c-0.29,0-0.43-0.17-0.43-0.52
			c0-0.23,0.01-0.41,0.04-0.52c0.23-1.76,0.34-3.4,0.34-4.9c0-0.29-0.03-1.1-0.09-2.43c-0.03-0.17-0.04-0.4-0.04-0.69
			c0-0.43,0.17-0.65,0.52-0.65c0.29,0,0.49,0.35,0.6,1.05c0.74,5.2,3.16,7.8,7.26,7.8c1.75,0,3.1-0.5,4.06-1.5
			c0.96-1,1.44-2.41,1.44-4.23c0-1.62-0.47-3-1.4-4.14c-0.93-1.14-2.53-2.28-4.79-3.41c-2.72-1.36-4.61-2.68-5.67-3.95
			c-1.06-1.27-1.59-2.85-1.59-4.73c0-2.4,0.77-4.38,2.3-5.95c1.53-1.56,3.47-2.34,5.82-2.34c0.97,0,2.32,0.33,4.04,1
			c0.6,0.23,1.04,0.35,1.33,0.35c0.31,0,0.52-0.06,0.62-0.17s0.19-0.42,0.28-0.91c0.06-0.29,0.21-0.43,0.47-0.43
			c0.29,0,0.43,0.17,0.43,0.52c0,0.23-0.02,0.41-0.04,0.52c-0.09,0.69-0.13,1.53-0.13,2.52c0,1.39,0.07,2.49,0.21,3.3l0.04,0.69
			c0.03,0.32-0.1,0.48-0.39,0.48c-0.32,0-0.53-0.33-0.64-1c-0.32-1.71-1.06-3.13-2.23-4.27c-1.17-1.14-2.49-1.71-3.95-1.71
			c-1.43,0-2.57,0.46-3.41,1.39c-0.84,0.93-1.27,2.18-1.27,3.78c0,1.85,0.62,3.34,1.85,4.47c0.69,0.64,2.18,1.53,4.47,2.69
			c2.69,1.36,4.62,2.74,5.8,4.14S1650.17,1913.96,1650.17,1915.75z"/>
		<path fill="#4D4E4E" d="M1663.82,1923.85c0,0.25-0.17,0.37-0.52,0.37h-0.43c-0.17-0.09-2.13-0.13-5.86-0.13
			c-0.72,0-1.44,0.03-2.15,0.09c-0.37,0.03-0.95,0.04-1.72,0.04c-0.37,0-0.56-0.13-0.56-0.39c0-0.23,0.37-0.36,1.12-0.39
			c1.15-0.03,1.82-0.17,2.02-0.41s0.3-1.08,0.3-2.5v-22.9c0-1.42-0.07-2.22-0.22-2.39c-0.17-0.29-0.97-0.46-2.39-0.52
			c-0.55-0.03-0.83-0.13-0.83-0.31c0-0.23,0.17-0.34,0.52-0.34h5.86c0.43,0,1.27,0.01,2.52,0.04l1.65-0.04
			c0.46,0,0.69,0.12,0.69,0.37c0,0.22-0.64,0.36-1.94,0.41c-0.73,0.03-1.18,0.16-1.34,0.39c-0.16,0.23-0.24,0.84-0.24,1.82v23.17
			c0,1.65,0.07,2.55,0.22,2.69c0.32,0.32,1.26,0.51,2.83,0.56C1663.67,1923.48,1663.82,1923.6,1663.82,1923.85z"/>
		<path fill="#4D4E4E" d="M1694.4,1915.12c0,0.22-0.34,0.33-1.03,0.33c-1.54,0-2.4,0.23-2.58,0.69c-0.11,0.32-0.17,1.57-0.17,3.76
			v1.38c-1.49,1.27-2.91,2.16-4.25,2.68c-1.35,0.52-2.96,0.78-4.85,0.78c-4.52,0-8.12-1.37-10.78-4.1
			c-2.66-2.73-3.99-6.45-3.99-11.13c0-4.74,1.3-8.58,3.91-11.5c2.6-2.92,6.04-4.38,10.31-4.38c1.86,0,3.89,0.52,6.1,1.56
			c0.66,0.32,1.2,0.48,1.63,0.48c0.54,0,0.9-0.35,1.07-1.04c0.14-0.41,0.31-0.61,0.52-0.61c0.23,0,0.34,0.13,0.34,0.39
			c0,0.03-0.03,0.3-0.08,0.82c-0.18,1.71-0.25,2.97-0.22,3.78v2.34c0.03,1.19,0.01,1.92-0.04,2.21c-0.06,0.29-0.21,0.43-0.47,0.43
			s-0.4-0.2-0.43-0.61c-0.14-2.79-0.94-4.99-2.4-6.6c-1.46-1.61-3.38-2.42-5.75-2.42c-2.98,0-5.33,1.34-7.06,4.03
			c-1.73,2.68-2.6,6.35-2.6,10.99c0,4.5,0.88,8.06,2.64,10.69c1.76,2.63,4.14,3.94,7.15,3.94c2.29,0,3.86-0.67,4.72-2.01
			c0.43-0.67,0.64-1.88,0.64-3.62c0-1.45-0.14-2.31-0.41-2.57s-1.21-0.38-2.81-0.35c-0.4,0-0.66-0.02-0.77-0.06
			c-0.12-0.04-0.17-0.12-0.17-0.25c0-0.29,0.31-0.43,0.94-0.43h0.77c0.63,0.03,2.2,0.03,4.72,0h3.44c0.2,0,0.42,0,0.64,0
			c0.23,0,0.39,0,0.47,0C1694.11,1914.71,1694.4,1914.85,1694.4,1915.12z"/>
		<path fill="#4D4E4E" d="M1721.06,1894.49c0,0.29-0.36,0.42-1.07,0.39h-0.95h-0.77c-0.46,0-0.73,0.08-0.82,0.24
			c-0.09,0.16-0.13,0.64-0.13,1.45v24.96c0,1.53-0.02,2.43-0.04,2.69c-0.03,0.26-0.11,0.39-0.26,0.39c-0.17,0-0.37-0.16-0.6-0.48
			l-5.49-8.12c-3.18-4.72-7.05-10.61-11.61-17.67v24.23c0.03,0.38,0.25,0.62,0.65,0.72s1.37,0.17,2.91,0.19
			c0.38,0,0.56,0.12,0.56,0.35c0,0.29-0.37,0.43-1.12,0.43c-0.26,0-1.07-0.04-2.45-0.13c-0.46-0.03-0.9-0.04-1.33-0.04
			c0.03,0-0.22,0.03-0.75,0.09c-0.53,0.06-1.34,0.09-2.43,0.09h-0.43c-0.66,0-0.99-0.13-0.99-0.39s0.29-0.39,0.86-0.39
			c1.69-0.03,2.67-0.14,2.94-0.33c0.27-0.19,0.41-0.8,0.41-1.85v-21.43c0-2.4-0.49-3.91-1.46-4.52c-0.46-0.29-1.27-0.43-2.45-0.43
			c-0.74,0-1.12-0.15-1.12-0.46c0-0.27,0.21-0.41,0.64-0.41c0.57,0,1.3,0.03,2.19,0.09c0.89,0.06,1.36,0.09,1.42,0.09
			c0.09,0,0.49-0.01,1.2-0.04c0.95,0,1.86-0.04,2.75-0.13l14.81,22.35v-19.31c0-0.9-0.01-1.44-0.04-1.63
			c-0.03-0.19-0.14-0.33-0.34-0.43c-0.2-0.1-0.89-0.15-2.06-0.15c-1.03,0-1.55-0.13-1.55-0.39c0-0.29,0.34-0.43,1.03-0.43h1.5
			c0.37,0,0.77,0,1.2,0c0.46,0,0.73,0,0.82,0c0.03,0,0.29,0,0.77,0c0.46,0,0.89,0,1.29,0h1.33
			C1720.75,1894.05,1721.06,1894.2,1721.06,1894.49z"/>
		<path fill="#4D4E4E" d="M1745.75,1917.23c0,0.12-0.03,0.82-0.09,2.13c-0.06,1.3-0.08,2.55-0.08,3.73v1.43
			c-2.81-0.17-8.36-0.26-16.66-0.26c-1,0-1.99,0-2.96,0c-0.97,0-1.63,0-1.98,0h-0.43c-0.54,0-0.82-0.12-0.82-0.35
			c0-0.16,0.09-0.25,0.26-0.27c0.09,0,0.63-0.04,1.63-0.12c0.74-0.06,1.2-0.22,1.35-0.48s0.24-0.94,0.24-2.05v-24.46
			c0-0.84-0.12-1.34-0.37-1.5c-0.24-0.16-1.02-0.24-2.34-0.24c-0.46,0-0.69-0.12-0.69-0.37s0.31-0.37,0.95-0.37h7.34
			c0.26,0,1.88,0,4.85,0s4.98,0,6.01,0c0.86,0,1.65-0.06,2.36-0.17c0.06,1.25,0.19,2.97,0.39,5.17l0.17,1.87
			c0.03,0.14,0.04,0.33,0.04,0.56c0,0.29-0.13,0.43-0.39,0.43c-0.32,0-0.54-0.36-0.69-1.09c-0.54-2.62-1.43-4.28-2.66-4.98
			c-0.92-0.52-3.32-0.79-7.21-0.79h-3.52v12.76h1.03c3.21,0,5.16-0.25,5.86-0.74s1.18-1.92,1.44-4.3c0.06-0.61,0.21-0.91,0.47-0.91
			c0.31,0,0.47,0.26,0.47,0.78c0,0.52-0.03,1.29-0.09,2.3c-0.06,1.01-0.09,1.78-0.09,2.3c0,3.1,0.04,5.22,0.14,6.38
			c0.02,0.29,0.03,0.54,0.03,0.74c0,0.38-0.16,0.56-0.47,0.56c-0.2,0-0.33-0.12-0.41-0.37s-0.19-1.05-0.36-2.41
			c-0.23-1.71-0.93-2.76-2.09-3.17c-0.51-0.17-1.85-0.26-4.02-0.26h-1.92v14.54c6.3,0,9.99-0.13,11.08-0.39
			c1.89-0.43,2.96-2.26,3.22-5.49c0.06-0.71,0.24-1.07,0.56-1.07C1745.61,1916.32,1745.75,1916.62,1745.75,1917.23z"/>
		<path fill="#4D4E4E" d="M1772.12,1922.92c0,1.21-1,1.82-3,1.82c-2.23,0-3.98-0.94-5.24-2.82c-0.54-0.81-0.89-1.59-1.05-2.34
			c-0.16-0.75-0.39-2.66-0.71-5.73c-0.17-1.85-0.76-3.16-1.76-3.93c-1-0.77-2.63-1.18-4.9-1.24v13.67c0,0.58,0.46,0.94,1.37,1.08
			c0.26,0.03,0.92,0.06,1.98,0.09c0.37,0,0.56,0.12,0.56,0.35c0,0.26-0.24,0.39-0.73,0.39h-0.52c-0.26,0-1.5,0-3.74,0
			c-0.43,0-1.16,0-2.19,0c-1,0-1.66,0-1.97,0h-1.67c-0.63,0-0.95-0.13-0.95-0.39c0-0.2,0.42-0.32,1.25-0.35
			c1.35-0.03,2.08-0.2,2.19-0.52c0.11-0.14,0.17-0.71,0.17-1.69v-23.96c0-1.16-0.12-1.85-0.37-2.08c-0.24-0.23-0.98-0.36-2.21-0.39
			c-0.72,0-1.07-0.13-1.07-0.39c0-0.29,0.23-0.43,0.69-0.43c0.09,0,0.21,0.01,0.39,0.04l5.71,0.13c0.57,0,1.37-0.02,2.4-0.06
			c1.14-0.08,1.95-0.12,2.4-0.12c2.66,0,4.77,0.6,6.33,1.8c1.56,1.2,2.34,2.83,2.34,4.88c0,2.03-0.8,3.7-2.4,5.01
			c-1.6,1.32-3.78,2.09-6.53,2.32c-0.26,0.03-0.4,0.07-0.43,0.13c0,0.12,0.14,0.17,0.43,0.17c3.01,0.52,5.07,1.59,6.2,3.2
			s1.88,4.52,2.25,8.73c0.23,2.38,1.03,3.57,2.4,3.57c0.43,0,0.64-0.09,0.64-0.26c0-0.03-0.01-0.06-0.04-0.09
			c-0.14-0.32-0.21-0.58-0.21-0.78c0-0.61,0.31-0.91,0.94-0.91C1771.78,1921.83,1772.12,1922.19,1772.12,1922.92z M1763.23,1901.17
			c0-4.14-1.78-6.21-5.33-6.21c-0.94,0-1.59,0.13-1.93,0.39c-0.34,0.26-0.52,0.72-0.52,1.39v11.02c2.75,0.03,4.73-0.48,5.95-1.52
			C1762.62,1905.21,1763.23,1903.51,1763.23,1901.17z"/>
	</g>
	<g>
		<g opacity="0.18">
			<path fill="#666667" d="M220.68,1006.42l0.78-12.64c20.52,0,31.82-7.6,33.9-22.79l26.5-205.93c0-16.88-10.27-25.32-30.79-25.32
				l1.56-12.64h101.32l-1.56,12.64c-21.31,0-33.39,10.69-36.24,32.07L289.66,971c0,0.57-0.07,1.06-0.19,1.48
				c-0.13,0.42-0.19,0.92-0.19,1.47c0,9.85,7.01,14.77,21.04,14.77h15.98c10.65,0,19.87-0.49,27.67-1.47
				c7.79-0.98,14.94-3.72,21.43-8.21c6.49-4.49,12.53-11.51,18.12-21.06c5.58-9.54,11.62-22.89,18.12-40.02l9.35,1.69l-21.82,86.78
				H220.68z"/>
			<path fill="#666667" d="M418.72,1006.42l1.09-8.85c15.28,0,23.91-6.79,25.91-20.38l17.73-137.36c0-6.69-1.82-11.71-5.46-15.06
				c-3.64-3.35-8.91-5.02-15.82-5.02l1.09-8.85h70.93l-1.09,8.85c-15.1,0-23.73,8.67-25.92,25.99l-17.46,131.45
				c-0.18,0.59-0.27,1.23-0.27,1.92c0,0.69,0,1.33,0,1.92c0,11.03,7.09,16.54,21.28,16.54l-0.82,8.85H418.72z"/>
			<path fill="#666667" d="M651.68,1009.66l-87.02-166.03l-15.28,118.84c-0.55,3.94-0.82,7.28-0.82,10.03
				c0,16.71,7.18,25.07,21.55,25.07l-0.82,8.85h-59.2l1.09-8.85c13.82,0,22.27-11.72,25.37-35.15l16.91-130.27
				c0-4.13-1.68-7.23-5.05-9.3c-3.37-2.06-9.32-3.1-17.87-3.1l1.36-8.85h44.74l76.93,147.15l13.91-105.8
				c0.55-3.15,0.82-6.2,0.82-9.16c0-15.56-7.19-23.35-21.55-23.35l1.09-8.85h58.92l-1.36,8.85c-15.1,0-24.01,10.83-26.73,32.49
				l-20.46,155.36L651.68,1009.66z"/>
			<path fill="#666667" d="M697.51,1006.42l1.09-8.85c6.55,0,12.05-1.62,16.5-4.88c4.45-3.25,7.14-8.02,8.05-14.33l18-139.13
				c0-12.99-7.09-19.5-21.28-19.5l1.09-8.85H850l-5.46,55.15l-7.64,1.18c-0.18-10.81-1.36-19.17-3.55-25.07s-5.23-10.22-9.14-12.98
				c-3.91-2.75-8.55-4.37-13.91-4.87c-5.37-0.49-11.14-0.74-17.32-0.74h-6.55c-6.91,0-11.91,1.08-15,3.24
				c-3.09,2.17-4.91,5.51-5.46,10.03l-7.09,52.79c0,0.4-0.05,0.79-0.14,1.18c-0.09,0.4-0.14,0.79-0.14,1.18
				c0,4.33,1.64,6.49,4.91,6.49h8.46c4.18,0,8.05-0.24,11.59-0.74c3.55-0.49,6.82-1.77,9.82-3.83c3-2.06,5.63-5.21,7.91-9.44
				c2.27-4.23,4.13-9.98,5.59-17.25h9.27l-10.09,76.38h-9v-7.08c0-5.5-0.5-9.93-1.5-13.27c-1-3.34-2.59-5.9-4.77-7.67
				c-2.18-1.77-4.96-2.95-8.32-3.54c-3.37-0.59-7.41-0.88-12.14-0.88h-2.73c-7.82,0-12.1,3.24-12.82,9.73l-7.37,56.33
				c-0.18,0.79-0.27,1.77-0.27,2.95c0,9.24,6,13.86,18,13.86h7.37c10.37,0,18.82-0.93,25.37-2.8c6.55-1.87,12.05-4.82,16.5-8.85
				c4.45-4.03,8.23-9.09,11.32-15.19c3.09-6.09,6.45-13.27,10.09-21.53l6.27,2.36l-13.91,58.39H697.51z"/>
			<path fill="#666667" d="M874.82,1006.42l0.82-8.85c8,0,14.59-2.26,19.78-6.78c5.18-4.52,8.41-11.3,9.68-20.35l18.28-135.95
				c0-3.73-0.73-6.49-2.18-8.26c-1.46-1.77-4.36-2.65-8.73-2.65c-21.28,0-37.19,16.81-47.74,50.43l-7.09-2.36l14.73-62.81
				c3.64,0.59,7.13,1.08,10.5,1.47c3.36,0.4,6.59,0.59,9.68,0.59h94.39c3.45,0,7.05-0.19,10.77-0.59c3.73-0.39,7.5-0.88,11.32-1.47
				l-8.18,61.63l-7.09,1.18c0.18-1.37,0.27-2.7,0.27-3.98c0-1.28,0-2.51,0-3.69c0-26.34-11.09-39.52-33.28-39.52
				c-8,0-12.46,3.35-13.37,10.03l-17.73,135.95c-0.18,0.99-0.32,1.97-0.41,2.95c-0.09,0.99-0.14,1.97-0.14,2.95
				c0,14.16,7.73,21.23,23.19,21.23l-0.82,8.85H874.82z"/>
			<path fill="#666667" d="M1067.68,1006.42l0.55-8.85c2.36-0.39,4.86-0.78,7.5-1.18c2.63-0.39,5.09-0.88,7.37-1.47
				c2.27-0.59,4.13-1.33,5.59-2.21c1.45-0.88,2.18-1.92,2.18-3.1c0-0.98-0.05-2.06-0.14-3.24c-0.09-1.18-0.32-3.05-0.68-5.6
				l-6-36.27c-0.54-2.55-2.28-4.47-5.18-5.75c-2.91-1.28-5.91-1.92-9-1.92h-36.28c-6.37,0-10.55,2.54-12.55,7.63l-12.55,30.52
				c-0.37,1.18-0.78,2.59-1.23,4.26c-0.46,1.66-0.68,3.47-0.68,5.42c0,7.63,6.64,11.45,19.91,11.45l-1.09,10.32h-55.1l1.64-10.32
				c4.73-0.39,8.87-2.35,12.41-5.89c3.55-3.53,6.96-8.64,10.23-15.31l81.29-168.42l6.82,3.53l35.19,174.9
				c0.72,4.91,2.46,7.95,5.18,9.13c2.73,1.18,7,2.26,12.82,3.24l-0.82,9.14H1067.68z M1066.59,848.06l-29.46,61.93
				c-1.46,2.56-2.5,4.72-3.14,6.49c-0.64,1.77-0.95,3.24-0.95,4.42c0,2.36,2.82,3.54,8.46,3.54h30.83c5.27,0,7.91-1.37,7.91-4.13
				c0-0.98-0.14-2.21-0.41-3.69c-0.27-1.47-0.59-3.29-0.96-5.46L1066.59,848.06z"/>
			<path fill="#666667" d="M208.6,1430.46l-0.39-9.69l164.06-248.56c-4.94-1.12-9.88-1.9-14.81-2.32
				c-4.94-0.42-9.74-0.63-14.42-0.63h-15.98c-11.69,0-21.43,1.13-29.23,3.37c-7.79,2.25-14.49,5.83-20.07,10.74
				c-5.59,4.92-10.46,11.37-14.61,19.38c-4.16,8-8.32,17.63-12.47,28.86h-10.52l17.54-83.41c4.41,0.84,8.77,1.55,13.06,2.11
				c4.29,0.57,8.63,0.84,13.05,0.84h133.67l-1.56,13.06l-162.5,246.87c3.9,1.13,7.79,1.9,11.69,2.32c3.9,0.42,7.53,0.63,10.91,0.63
				h26.89c11.95,0,22.54-2.67,31.76-8c9.22-5.33,17.27-11.8,24.16-19.38c6.88-7.58,12.6-15.44,17.15-23.59
				c4.54-8.14,8.24-15.17,11.11-21.06l10.52,3.37l-20.26,85.1H208.6z"/>
			<path fill="#666667" d="M402.75,1430.46l1.09-8.85c15.28,0,23.91-6.79,25.91-20.38l17.73-137.36c0-6.69-1.82-11.71-5.46-15.06
				c-3.64-3.35-8.91-5.02-15.82-5.02l1.09-8.85h70.93l-1.09,8.85c-15.1,0-23.73,8.67-25.92,25.99l-17.46,131.45
				c-0.18,0.59-0.27,1.23-0.27,1.92s0,1.33,0,1.92c0,11.03,7.09,16.54,21.28,16.54l-0.82,8.85H402.75z"/>
			<path fill="#666667" d="M608.7,1326.07c11.64,2.17,20.91,6.69,27.82,13.57c6.91,6.88,10.37,15.92,10.37,27.13
				c0,12.19-1.91,22.41-5.73,30.67c-3.82,8.26-8.87,14.89-15.14,19.91c-6.27,5.01-13.32,8.65-21.14,10.91
				c-7.82,2.26-15.73,3.39-23.73,3.39c-6.91,0-13.6-0.05-20.05-0.15c-6.46-0.1-13.05-0.25-19.78-0.44c-6.73-0.2-13.6-0.35-20.6-0.44
				c-7-0.1-14.5-0.15-22.5-0.15l1.09-8.85c15.28,0,23.73-5.5,25.37-16.51l18.55-144.21c0-11.21-7.19-16.81-21.55-16.81l1.09-9.14
				h70.93c7.82,0,15.14,0.69,21.96,2.06c6.82,1.38,12.68,3.64,17.59,6.78c4.91,3.15,8.77,7.13,11.59,11.94
				c2.82,4.82,4.23,10.76,4.23,17.84c0,7.67-1.05,14.3-3.14,19.91c-2.09,5.6-5,10.42-8.73,14.45c-3.73,4.03-8,7.37-12.82,10.03
				c-4.82,2.65-9.96,4.97-15.41,6.93L608.7,1326.07z M575.15,1420.44c6,0,11.73-0.93,17.19-2.8c5.46-1.87,10.27-4.91,14.46-9.14
				c4.18-4.23,7.54-9.73,10.09-16.51c2.54-6.78,3.82-14.99,3.82-24.62c0-6.88-1.09-12.48-3.27-16.81
				c-2.18-4.32-5.28-7.71-9.27-10.17c-4-2.46-8.91-4.13-14.73-5.01c-5.82-0.88-12.28-1.33-19.37-1.33h-8.73
				c-4.73,0-7.64,3.74-8.73,11.21l-8.18,63.7c0,0.4-0.05,0.64-0.14,0.74c-0.09,0.1-0.14,0.35-0.14,0.74
				c0,6.69,5.46,10.03,16.37,10.03H575.15z M586.88,1246.45c-11.28,0-17.46,3.64-18.55,10.91l-7.64,56.92
				c0,2.75,0.41,4.82,1.23,6.19c0.82,1.38,2.5,2.06,5.05,2.06c11.82,0,21.46-0.88,28.92-2.65c7.46-1.77,13.32-4.57,17.6-8.4
				c4.27-3.83,7.18-8.8,8.73-14.89c1.54-6.09,2.32-13.46,2.32-22.12c0-18.67-9.27-28.02-27.82-28.02H586.88z"/>
			<path fill="#666667" d="M664.62,1430.46l1.09-8.85c6.55,0,12.05-1.62,16.5-4.88c4.45-3.25,7.14-8.02,8.05-14.33l18-139.13
				c0-12.99-7.09-19.5-21.28-19.5l1.09-8.85h129.03l-5.46,55.15l-7.64,1.18c-0.18-10.81-1.36-19.17-3.55-25.07
				c-2.18-5.9-5.23-10.22-9.14-12.98c-3.91-2.75-8.55-4.37-13.91-4.87c-5.37-0.49-11.14-0.74-17.32-0.74h-6.55
				c-6.91,0-11.91,1.08-15,3.24c-3.09,2.17-4.91,5.51-5.46,10.03l-7.09,52.79c0,0.4-0.05,0.79-0.14,1.18
				c-0.09,0.4-0.14,0.79-0.14,1.18c0,4.33,1.64,6.49,4.91,6.49h8.46c4.18,0,8.05-0.24,11.59-0.74c3.55-0.49,6.82-1.77,9.82-3.83
				c3-2.06,5.63-5.21,7.91-9.44c2.27-4.23,4.13-9.98,5.59-17.25h9.27l-10.09,76.38h-9v-7.08c0-5.5-0.5-9.92-1.5-13.27
				c-1-3.34-2.59-5.9-4.77-7.67c-2.18-1.77-4.96-2.95-8.32-3.54c-3.37-0.59-7.41-0.88-12.14-0.88h-2.73
				c-7.82,0-12.1,3.24-12.82,9.73l-7.37,56.33c-0.18,0.79-0.27,1.77-0.27,2.95c0,9.24,6,13.86,18,13.86h7.37
				c10.37,0,18.82-0.93,25.37-2.8c6.55-1.87,12.05-4.81,16.5-8.85c4.45-4.03,8.23-9.09,11.32-15.19
				c3.09-6.09,6.45-13.27,10.09-21.53l6.27,2.36l-13.91,58.39H664.62z"/>
			<path fill="#666667" d="M978.87,1404.81c-0.18,2.36-0.96,5.21-2.32,8.55c-1.36,3.35-3.14,6.49-5.32,9.44
				c-2.18,2.95-4.77,5.51-7.77,7.67c-3,2.16-6.23,3.24-9.68,3.24c-9.82,0-16.87-2.02-21.14-6.05c-4.28-4.03-7.05-10.57-8.32-19.61
				c-1.09-7.47-2-15.48-2.73-24.03c-0.73-8.55-1.96-16.41-3.68-23.59c-1.73-7.17-4.23-13.17-7.5-17.99
				c-3.27-4.81-7.82-7.22-13.64-7.22h-7.64c-4.55,0-7.19,1.08-7.91,3.24l-8.73,63.99c-0.18,0.79-0.27,1.87-0.27,3.24
				c0,10.62,6.82,15.92,20.46,15.92l-0.82,8.85h-69.02l1.09-8.85c6,0,11.18-1.62,15.55-4.87c4.36-3.24,7-8.01,7.91-14.3
				l18.82-143.03c0-10.22-7-15.33-21-15.33l1.09-9.14h30.55c5.46,0,10.09-0.05,13.91-0.15c3.82-0.1,7.5-0.24,11.05-0.44
				c3.55-0.19,7.27-0.34,11.18-0.44c3.91-0.1,8.77-0.15,14.59-0.15c6.55,0,12.55,1.03,18,3.1c5.46,2.06,10.18,4.97,14.19,8.7
				c4,3.74,7.09,8.16,9.27,13.27c2.18,5.12,3.27,10.62,3.27,16.51c0,7.87-1.32,14.85-3.96,20.94c-2.64,6.1-6.18,11.46-10.64,16.07
				c-4.46,4.62-9.73,8.4-15.82,11.35c-6.1,2.95-12.6,5.31-19.5,7.08v0.88c7.64,4.53,13.5,10.17,17.59,16.96
				c4.09,6.78,6.59,13.32,7.5,19.61c0.55,3.94,1.09,8.65,1.64,14.16c0.55,5.51,1.41,10.72,2.59,15.63c1.18,4.92,2.68,9.1,4.5,12.53
				c1.82,3.44,4.27,5.16,7.37,5.16c3.64,0,7-4.42,10.09-13.27L978.87,1404.81z M901.67,1323.71c4.91,0,9.96-0.49,15.14-1.47
				c5.18-0.98,9.96-3.14,14.32-6.49c4.36-3.34,7.91-8.06,10.64-14.16c2.73-6.09,4.09-14.35,4.09-24.77c0-5.9-0.95-10.81-2.86-14.75
				c-1.91-3.93-4.36-7.08-7.37-9.44c-3-2.36-6.41-3.98-10.23-4.87s-7.55-1.33-11.18-1.33h-11.73c-4,0-6.73,1.38-8.18,4.13
				c-1.46,2.76-2.55,6.88-3.27,12.39l-7.09,56.33c0,2.95,1.54,4.42,4.64,4.42H901.67z"/>
			<path fill="#666667" d="M1122.08,1433.71c-3.27-3.34-6.23-6.29-8.87-8.85c-2.64-2.55-4.87-4.81-6.68-6.78
				c-6.37,5.11-13.6,9.19-21.69,12.24c-8.09,3.05-16.23,4.57-24.41,4.57c-10,0-19.01-2.02-27.01-6.05
				c-8-4.03-14.82-9.68-20.46-16.96c-5.64-7.27-9.96-15.78-12.96-25.51c-3-9.73-4.5-20.39-4.5-32c0-14.94,2.46-29.83,7.37-44.68
				c4.91-14.84,11.68-28.11,20.32-39.81c8.64-11.69,18.69-21.18,30.14-28.46c11.46-7.27,23.73-10.91,36.83-10.91
				c6.91,0,13.41,1.47,19.5,4.42c6.09,2.95,11.96,6.39,17.6,10.32c6.55-7.08,13-11.21,19.37-12.39c1.64,7.67,2.46,16.81,2.46,27.43
				c0,5.71-0.27,11.9-0.82,18.58c-0.54,6.69-1.27,13.76-2.18,21.23h-8.46c-0.54-8.65-1.96-16.51-4.23-23.59
				c-2.28-7.08-5.37-13.17-9.27-18.28c-3.91-5.11-8.59-9.09-14.05-11.94c-5.46-2.85-11.73-4.28-18.82-4.28
				c-11.46,0-21.41,3.44-29.87,10.32c-8.46,6.88-15.46,15.78-21,26.69c-5.55,10.91-9.73,23.05-12.55,36.42
				c-2.82,13.37-4.23,26.64-4.23,39.81c0,9.63,0.86,18.58,2.59,26.84c1.73,8.26,4.41,15.39,8.05,21.38
				c3.64,6,8.18,10.72,13.64,14.16c5.46,3.44,12,5.16,19.64,5.16c5.63,0,11.14-0.88,16.5-2.65c5.36-1.77,10.14-4.62,14.32-8.55
				c4.18-3.93,7.59-9.04,10.23-15.33c2.63-6.29,3.96-13.86,3.96-22.71c0-15.33-7.19-23-21.55-23l1.09-8.85h70.38l-1.36,8.85
				c-8.18,0-14.1,1.92-17.73,5.75c-3.64,3.83-5.91,9.39-6.82,16.66l-7.91,60.75H1122.08z"/>
			<path fill="#666667" d="M1247.01,1430.46l0.55-8.85c2.36-0.39,4.86-0.78,7.5-1.18c2.63-0.39,5.09-0.88,7.37-1.47
				c2.27-0.59,4.13-1.33,5.59-2.21c1.45-0.88,2.18-1.92,2.18-3.1c0-0.98-0.05-2.06-0.14-3.24c-0.09-1.18-0.32-3.05-0.68-5.6
				l-6-36.27c-0.54-2.55-2.28-4.47-5.18-5.75c-2.91-1.28-5.91-1.92-9-1.92h-36.28c-6.37,0-10.55,2.54-12.55,7.63l-12.55,30.52
				c-0.37,1.17-0.78,2.59-1.23,4.26c-0.46,1.66-0.68,3.47-0.68,5.42c0,7.63,6.64,11.45,19.91,11.45l-1.09,10.32h-55.1l1.64-10.32
				c4.73-0.39,8.87-2.35,12.41-5.89c3.55-3.53,6.96-8.63,10.23-15.31l81.29-168.42l6.82,3.53l35.19,174.9
				c0.72,4.91,2.46,7.95,5.18,9.13c2.73,1.18,7,2.26,12.82,3.24l-0.82,9.14H1247.01z M1245.92,1272.1l-29.46,61.93
				c-1.46,2.56-2.5,4.72-3.14,6.49c-0.64,1.77-0.95,3.24-0.95,4.42c0,2.36,2.82,3.54,8.46,3.54h30.83c5.27,0,7.91-1.37,7.91-4.13
				c0-0.98-0.14-2.21-0.41-3.69c-0.27-1.47-0.59-3.29-0.96-5.46L1245.92,1272.1z"/>
		</g>
		<g>
			<path fill="#F2F2F2" d="M241.47,1006.42l0.78-12.64c20.52,0,31.82-7.6,33.9-22.79l26.5-205.93c0-16.88-10.27-25.32-30.79-25.32
				l1.56-12.64h101.32l-1.56,12.64c-21.31,0-33.39,10.69-36.24,32.07L310.45,971c0,0.57-0.07,1.06-0.19,1.48
				c-0.13,0.42-0.19,0.92-0.19,1.47c0,9.85,7.01,14.77,21.04,14.77h15.98c10.65,0,19.87-0.49,27.67-1.47
				c7.79-0.98,14.94-3.72,21.43-8.21c6.49-4.49,12.53-11.51,18.12-21.06c5.58-9.54,11.62-22.89,18.12-40.02l9.35,1.69l-21.82,86.78
				H241.47z"/>
			<path fill="#F2F2F2" d="M439.52,1006.42l1.09-8.85c15.28,0,23.91-6.79,25.91-20.38l17.73-137.36c0-6.69-1.82-11.71-5.46-15.06
				c-3.64-3.35-8.91-5.02-15.82-5.02l1.09-8.85h70.93l-1.09,8.85c-15.1,0-23.73,8.67-25.92,25.99l-17.46,131.45
				c-0.18,0.59-0.27,1.23-0.27,1.92c0,0.69,0,1.33,0,1.92c0,11.03,7.09,16.54,21.28,16.54l-0.82,8.85H439.52z"/>
			<path fill="#F2F2F2" d="M672.48,1009.66l-87.02-166.03l-15.28,118.84c-0.55,3.94-0.82,7.28-0.82,10.03
				c0,16.71,7.18,25.07,21.55,25.07l-0.82,8.85h-59.2l1.09-8.85c13.82,0,22.27-11.72,25.37-35.15l16.91-130.27
				c0-4.13-1.68-7.23-5.05-9.3c-3.37-2.06-9.32-3.1-17.87-3.1l1.36-8.85h44.74l76.93,147.15l13.91-105.8
				c0.55-3.15,0.82-6.2,0.82-9.16c0-15.56-7.19-23.35-21.55-23.35l1.09-8.85h58.92l-1.36,8.85c-15.1,0-24.01,10.83-26.73,32.49
				l-20.46,155.36L672.48,1009.66z"/>
			<path fill="#F2F2F2" d="M718.3,1006.42l1.09-8.85c6.55,0,12.05-1.62,16.5-4.88c4.45-3.25,7.14-8.02,8.05-14.33l18-139.13
				c0-12.99-7.09-19.5-21.28-19.5l1.09-8.85h129.03l-5.46,55.15l-7.64,1.18c-0.18-10.81-1.36-19.17-3.55-25.07
				s-5.23-10.22-9.14-12.98c-3.91-2.75-8.55-4.37-13.91-4.87c-5.37-0.49-11.14-0.74-17.32-0.74h-6.55c-6.91,0-11.91,1.08-15,3.24
				c-3.09,2.17-4.91,5.51-5.46,10.03l-7.09,52.79c0,0.4-0.05,0.79-0.14,1.18c-0.09,0.4-0.14,0.79-0.14,1.18
				c0,4.33,1.64,6.49,4.91,6.49h8.46c4.18,0,8.05-0.24,11.59-0.74c3.55-0.49,6.82-1.77,9.82-3.83c3-2.06,5.63-5.21,7.91-9.44
				c2.27-4.23,4.13-9.98,5.59-17.25h9.27l-10.09,76.38h-9v-7.08c0-5.5-0.5-9.93-1.5-13.27c-1-3.34-2.59-5.9-4.77-7.67
				c-2.18-1.77-4.96-2.95-8.32-3.54c-3.37-0.59-7.41-0.88-12.14-0.88h-2.73c-7.82,0-12.1,3.24-12.82,9.73l-7.37,56.33
				c-0.18,0.79-0.27,1.77-0.27,2.95c0,9.24,6,13.86,18,13.86h7.37c10.37,0,18.82-0.93,25.37-2.8c6.55-1.87,12.05-4.82,16.5-8.85
				c4.45-4.03,8.23-9.09,11.32-15.19c3.09-6.09,6.45-13.27,10.09-21.53l6.27,2.36l-13.91,58.39H718.3z"/>
			<path fill="#F2F2F2" d="M895.61,1006.42l0.82-8.85c8,0,14.59-2.26,19.78-6.78c5.18-4.52,8.41-11.3,9.68-20.35l18.28-135.95
				c0-3.73-0.73-6.49-2.18-8.26c-1.46-1.77-4.36-2.65-8.73-2.65c-21.28,0-37.19,16.81-47.74,50.43l-7.09-2.36l14.73-62.81
				c3.64,0.59,7.13,1.08,10.5,1.47c3.36,0.4,6.59,0.59,9.68,0.59h94.39c3.45,0,7.05-0.19,10.77-0.59c3.73-0.39,7.5-0.88,11.32-1.47
				l-8.18,61.63l-7.09,1.18c0.18-1.37,0.27-2.7,0.27-3.98c0-1.28,0-2.51,0-3.69c0-26.34-11.09-39.52-33.28-39.52
				c-8,0-12.46,3.35-13.37,10.03l-17.73,135.95c-0.18,0.99-0.32,1.97-0.41,2.95c-0.09,0.99-0.14,1.97-0.14,2.95
				c0,14.16,7.73,21.23,23.19,21.23l-0.82,8.85H895.61z"/>
			<path fill="#F2F2F2" d="M1088.47,1006.42l0.55-8.85c2.36-0.39,4.86-0.78,7.5-1.18c2.63-0.39,5.09-0.88,7.37-1.47
				c2.27-0.59,4.13-1.33,5.59-2.21c1.45-0.88,2.18-1.92,2.18-3.1c0-0.98-0.05-2.06-0.14-3.24c-0.09-1.18-0.32-3.05-0.68-5.6
				l-6-36.27c-0.54-2.55-2.28-4.47-5.18-5.75c-2.91-1.28-5.91-1.92-9-1.92h-36.28c-6.37,0-10.55,2.54-12.55,7.63l-12.55,30.52
				c-0.37,1.18-0.78,2.59-1.23,4.26c-0.46,1.66-0.68,3.47-0.68,5.42c0,7.63,6.64,11.45,19.91,11.45l-1.09,10.32h-55.1l1.64-10.32
				c4.73-0.39,8.87-2.35,12.41-5.89c3.55-3.53,6.96-8.64,10.23-15.31l81.29-168.42l6.82,3.53l35.19,174.9
				c0.72,4.91,2.46,7.95,5.18,9.13c2.73,1.18,7,2.26,12.82,3.24l-0.82,9.14H1088.47z M1087.38,848.06l-29.46,61.93
				c-1.46,2.56-2.5,4.72-3.14,6.49c-0.64,1.77-0.95,3.24-0.95,4.42c0,2.36,2.82,3.54,8.46,3.54h30.83c5.27,0,7.91-1.37,7.91-4.13
				c0-0.98-0.14-2.21-0.41-3.69c-0.27-1.47-0.59-3.29-0.96-5.46L1087.38,848.06z"/>
			<path fill="#F2F2F2" d="M229.39,1430.46l-0.39-9.69l164.06-248.56c-4.94-1.12-9.88-1.9-14.81-2.32
				c-4.94-0.42-9.74-0.63-14.42-0.63h-15.98c-11.69,0-21.43,1.13-29.23,3.37c-7.79,2.25-14.49,5.83-20.07,10.74
				c-5.59,4.92-10.46,11.37-14.61,19.38c-4.16,8-8.32,17.63-12.47,28.86h-10.52l17.54-83.41c4.41,0.84,8.77,1.55,13.06,2.11
				c4.29,0.57,8.63,0.84,13.05,0.84h133.67l-1.56,13.06l-162.5,246.87c3.9,1.13,7.79,1.9,11.69,2.32c3.9,0.42,7.53,0.63,10.91,0.63
				h26.89c11.95,0,22.54-2.67,31.76-8c9.22-5.33,17.27-11.8,24.16-19.38c6.88-7.58,12.6-15.44,17.15-23.59
				c4.54-8.14,8.24-15.17,11.11-21.06l10.52,3.37l-20.26,85.1H229.39z"/>
			<path fill="#F2F2F2" d="M423.54,1430.46l1.09-8.85c15.28,0,23.91-6.79,25.91-20.38l17.73-137.36c0-6.69-1.82-11.71-5.46-15.06
				c-3.64-3.35-8.91-5.02-15.82-5.02l1.09-8.85h70.93l-1.09,8.85c-15.1,0-23.73,8.67-25.92,25.99l-17.46,131.45
				c-0.18,0.59-0.27,1.23-0.27,1.92s0,1.33,0,1.92c0,11.03,7.09,16.54,21.28,16.54l-0.82,8.85H423.54z"/>
			<path fill="#F2F2F2" d="M629.49,1326.07c11.64,2.17,20.91,6.69,27.82,13.57c6.91,6.88,10.37,15.92,10.37,27.13
				c0,12.19-1.91,22.41-5.73,30.67c-3.82,8.26-8.87,14.89-15.14,19.91c-6.27,5.01-13.32,8.65-21.14,10.91
				c-7.82,2.26-15.73,3.39-23.73,3.39c-6.91,0-13.6-0.05-20.05-0.15c-6.46-0.1-13.05-0.25-19.78-0.44c-6.73-0.2-13.6-0.35-20.6-0.44
				c-7-0.1-14.5-0.15-22.5-0.15l1.09-8.85c15.28,0,23.73-5.5,25.37-16.51l18.55-144.21c0-11.21-7.19-16.81-21.55-16.81l1.09-9.14
				h70.93c7.82,0,15.14,0.69,21.96,2.06c6.82,1.38,12.68,3.64,17.59,6.78c4.91,3.15,8.77,7.13,11.59,11.94
				c2.82,4.82,4.23,10.76,4.23,17.84c0,7.67-1.05,14.3-3.14,19.91c-2.09,5.6-5,10.42-8.73,14.45c-3.73,4.03-8,7.37-12.82,10.03
				c-4.82,2.65-9.96,4.97-15.41,6.93L629.49,1326.07z M595.94,1420.44c6,0,11.73-0.93,17.19-2.8c5.46-1.87,10.27-4.91,14.46-9.14
				c4.18-4.23,7.54-9.73,10.09-16.51c2.54-6.78,3.82-14.99,3.82-24.62c0-6.88-1.09-12.48-3.27-16.81
				c-2.18-4.32-5.28-7.71-9.27-10.17c-4-2.46-8.91-4.13-14.73-5.01c-5.82-0.88-12.28-1.33-19.37-1.33h-8.73
				c-4.73,0-7.64,3.74-8.73,11.21l-8.18,63.7c0,0.4-0.05,0.64-0.14,0.74c-0.09,0.1-0.14,0.35-0.14,0.74
				c0,6.69,5.46,10.03,16.37,10.03H595.94z M607.67,1246.45c-11.28,0-17.46,3.64-18.55,10.91l-7.64,56.92
				c0,2.75,0.41,4.82,1.23,6.19c0.82,1.38,2.5,2.06,5.05,2.06c11.82,0,21.46-0.88,28.92-2.65c7.46-1.77,13.32-4.57,17.6-8.4
				c4.27-3.83,7.18-8.8,8.73-14.89c1.54-6.09,2.32-13.46,2.32-22.12c0-18.67-9.27-28.02-27.82-28.02H607.67z"/>
			<path fill="#F2F2F2" d="M685.41,1430.46l1.09-8.85c6.55,0,12.05-1.62,16.5-4.88c4.45-3.25,7.14-8.02,8.05-14.33l18-139.13
				c0-12.99-7.09-19.5-21.28-19.5l1.09-8.85H837.9l-5.46,55.15l-7.64,1.18c-0.18-10.81-1.36-19.17-3.55-25.07
				c-2.18-5.9-5.23-10.22-9.14-12.98c-3.91-2.75-8.55-4.37-13.91-4.87c-5.37-0.49-11.14-0.74-17.32-0.74h-6.55
				c-6.91,0-11.91,1.08-15,3.24c-3.09,2.17-4.91,5.51-5.46,10.03l-7.09,52.79c0,0.4-0.05,0.79-0.14,1.18
				c-0.09,0.4-0.14,0.79-0.14,1.18c0,4.33,1.64,6.49,4.91,6.49h8.46c4.18,0,8.05-0.24,11.59-0.74c3.55-0.49,6.82-1.77,9.82-3.83
				c3-2.06,5.63-5.21,7.91-9.44c2.27-4.23,4.13-9.98,5.59-17.25h9.27l-10.09,76.38h-9v-7.08c0-5.5-0.5-9.92-1.5-13.27
				c-1-3.34-2.59-5.9-4.77-7.67c-2.18-1.77-4.96-2.95-8.32-3.54c-3.37-0.59-7.41-0.88-12.14-0.88h-2.73
				c-7.82,0-12.1,3.24-12.82,9.73l-7.37,56.33c-0.18,0.79-0.27,1.77-0.27,2.95c0,9.24,6,13.86,18,13.86h7.37
				c10.37,0,18.82-0.93,25.37-2.8c6.55-1.87,12.05-4.81,16.5-8.85c4.45-4.03,8.23-9.09,11.32-15.19
				c3.09-6.09,6.45-13.27,10.09-21.53l6.27,2.36l-13.91,58.39H685.41z"/>
			<path fill="#F2F2F2" d="M999.66,1404.81c-0.18,2.36-0.96,5.21-2.32,8.55c-1.36,3.35-3.14,6.49-5.32,9.44
				c-2.18,2.95-4.77,5.51-7.77,7.67c-3,2.16-6.23,3.24-9.68,3.24c-9.82,0-16.87-2.02-21.14-6.05c-4.28-4.03-7.05-10.57-8.32-19.61
				c-1.09-7.47-2-15.48-2.73-24.03c-0.73-8.55-1.96-16.41-3.68-23.59c-1.73-7.17-4.23-13.17-7.5-17.99
				c-3.27-4.81-7.82-7.22-13.64-7.22h-7.64c-4.55,0-7.19,1.08-7.91,3.24l-8.73,63.99c-0.18,0.79-0.27,1.87-0.27,3.24
				c0,10.62,6.82,15.92,20.46,15.92l-0.82,8.85h-69.02l1.09-8.85c6,0,11.18-1.62,15.55-4.87c4.36-3.24,7-8.01,7.91-14.3L887,1259.42
				c0-10.22-7-15.33-21-15.33l1.09-9.14h30.55c5.46,0,10.09-0.05,13.91-0.15c3.82-0.1,7.5-0.24,11.05-0.44
				c3.55-0.19,7.27-0.34,11.18-0.44c3.91-0.1,8.77-0.15,14.59-0.15c6.55,0,12.55,1.03,18,3.1c5.46,2.06,10.18,4.97,14.19,8.7
				c4,3.74,7.09,8.16,9.27,13.27c2.18,5.12,3.27,10.62,3.27,16.51c0,7.87-1.32,14.85-3.96,20.94c-2.64,6.1-6.18,11.46-10.64,16.07
				c-4.46,4.62-9.73,8.4-15.82,11.35c-6.1,2.95-12.6,5.31-19.5,7.08v0.88c7.64,4.53,13.5,10.17,17.59,16.96
				c4.09,6.78,6.59,13.32,7.5,19.61c0.55,3.94,1.09,8.65,1.64,14.16c0.55,5.51,1.41,10.72,2.59,15.63c1.18,4.92,2.68,9.1,4.5,12.53
				c1.82,3.44,4.27,5.16,7.37,5.16c3.64,0,7-4.42,10.09-13.27L999.66,1404.81z M922.46,1323.71c4.91,0,9.96-0.49,15.14-1.47
				c5.18-0.98,9.96-3.14,14.32-6.49c4.36-3.34,7.91-8.06,10.64-14.16c2.73-6.09,4.09-14.35,4.09-24.77c0-5.9-0.95-10.81-2.86-14.75
				c-1.91-3.93-4.36-7.08-7.37-9.44c-3-2.36-6.41-3.98-10.23-4.87s-7.55-1.33-11.18-1.33h-11.73c-4,0-6.73,1.38-8.18,4.13
				c-1.46,2.76-2.55,6.88-3.27,12.39l-7.09,56.33c0,2.95,1.54,4.42,4.64,4.42H922.46z"/>
			<path fill="#F2F2F2" d="M1142.87,1433.71c-3.27-3.34-6.23-6.29-8.87-8.85c-2.64-2.55-4.87-4.81-6.68-6.78
				c-6.37,5.11-13.6,9.19-21.69,12.24c-8.09,3.05-16.23,4.57-24.41,4.57c-10,0-19.01-2.02-27.01-6.05
				c-8-4.03-14.82-9.68-20.46-16.96c-5.64-7.27-9.96-15.78-12.96-25.51c-3-9.73-4.5-20.39-4.5-32c0-14.94,2.46-29.83,7.37-44.68
				c4.91-14.84,11.68-28.11,20.32-39.81c8.64-11.69,18.69-21.18,30.14-28.46c11.46-7.27,23.73-10.91,36.83-10.91
				c6.91,0,13.41,1.47,19.5,4.42c6.09,2.95,11.96,6.39,17.6,10.32c6.55-7.08,13-11.21,19.37-12.39c1.64,7.67,2.46,16.81,2.46,27.43
				c0,5.71-0.27,11.9-0.82,18.58c-0.54,6.69-1.27,13.76-2.18,21.23h-8.46c-0.54-8.65-1.96-16.51-4.23-23.59
				c-2.28-7.08-5.37-13.17-9.27-18.28c-3.91-5.11-8.59-9.09-14.05-11.94c-5.46-2.85-11.73-4.28-18.82-4.28
				c-11.46,0-21.41,3.44-29.87,10.32c-8.46,6.88-15.46,15.78-21,26.69c-5.55,10.91-9.73,23.05-12.55,36.42
				c-2.82,13.37-4.23,26.64-4.23,39.81c0,9.63,0.86,18.58,2.59,26.84c1.73,8.26,4.41,15.39,8.05,21.38
				c3.64,6,8.18,10.72,13.64,14.16c5.46,3.44,12,5.16,19.64,5.16c5.63,0,11.14-0.88,16.5-2.65c5.36-1.77,10.14-4.62,14.32-8.55
				c4.18-3.93,7.59-9.04,10.23-15.33c2.63-6.29,3.96-13.86,3.96-22.71c0-15.33-7.19-23-21.55-23l1.09-8.85h70.38l-1.36,8.85
				c-8.18,0-14.1,1.92-17.73,5.75c-3.64,3.83-5.91,9.39-6.82,16.66l-7.91,60.75H1142.87z"/>
			<path fill="#F2F2F2" d="M1267.81,1430.46l0.55-8.85c2.36-0.39,4.86-0.78,7.5-1.18c2.63-0.39,5.09-0.88,7.37-1.47
				c2.27-0.59,4.13-1.33,5.59-2.21c1.45-0.88,2.18-1.92,2.18-3.1c0-0.98-0.05-2.06-0.14-3.24c-0.09-1.18-0.32-3.05-0.68-5.6
				l-6-36.27c-0.54-2.55-2.28-4.47-5.18-5.75c-2.91-1.28-5.91-1.92-9-1.92h-36.28c-6.37,0-10.55,2.54-12.55,7.63l-12.55,30.52
				c-0.37,1.17-0.78,2.59-1.23,4.26c-0.46,1.66-0.68,3.47-0.68,5.42c0,7.63,6.64,11.45,19.91,11.45l-1.09,10.32h-55.1l1.64-10.32
				c4.73-0.39,8.87-2.35,12.41-5.89c3.55-3.53,6.96-8.63,10.23-15.31l81.29-168.42l6.82,3.53l35.19,174.9
				c0.72,4.91,2.46,7.95,5.18,9.13c2.73,1.18,7,2.26,12.82,3.24l-0.82,9.14H1267.81z M1266.71,1272.1l-29.46,61.93
				c-1.46,2.56-2.5,4.72-3.14,6.49c-0.64,1.77-0.95,3.24-0.95,4.42c0,2.36,2.82,3.54,8.46,3.54h30.83c5.27,0,7.91-1.37,7.91-4.13
				c0-0.98-0.14-2.21-0.41-3.69c-0.27-1.47-0.59-3.29-0.96-5.46L1266.71,1272.1z"/>
		</g>
	</g>
	<g>
		<path fill="#4D4E4E" d="M1665.56,349.5c0,0.59-0.45,0.89-1.36,0.89c-0.6,0-1.15-0.04-1.63-0.1l-11.49-0.42l-11.49,0.42
			c-0.42,0.07-0.88,0.1-1.36,0.1c-1.21,0-1.81-0.36-1.81-1.09c0-0.8,0.81-1.2,2.44-1.2c5.31-0.07,7.96-0.68,7.96-1.83
			c0-0.07-0.06-0.34-0.19-0.81l-0.74-2.75l-0.46-1.45c-0.54-2.15-1.87-6.9-3.98-14.26h-19.34c-3.62,11.09-5.42,17.47-5.42,19.14
			c0,0.97,0.36,1.56,1.09,1.77c0.18,0.07,1.69,0.21,4.52,0.42c1.75,0.07,2.62,0.42,2.62,1.04c0,0.69-0.78,1.04-2.35,1.04
			c-2.78,0-6-0.14-9.68-0.42c-0.9-0.07-1.84-0.1-2.8-0.1c-0.97,0-1.9,0.12-2.8,0.35c-0.48,0.12-0.87,0.17-1.18,0.17
			c-0.84,0-1.27-0.31-1.27-0.94c0-0.63,0.95-0.97,2.85-1.04c1.9-0.07,3.27-0.4,4.12-0.99c0.84-0.59,1.51-1.72,1.99-3.39
			c7.76-25.6,14.08-46.16,18.95-61.67c0.14-0.82,0.42-1.74,0.84-2.76l0.39-1.9c0.18-0.76,0.42-1.14,0.72-1.14
			c0.18,0,0.33,0.21,0.45,0.62c0.78,2.7,2.56,8.36,5.34,16.95c2.17,6.73,7.57,23.61,16.2,50.65c0.48,1.57,1.1,2.57,1.86,3
			c0.75,0.43,2.31,0.68,4.66,0.75C1664.78,348.58,1665.56,348.91,1665.56,349.5z M1640.95,324.59c-0.98-3.11-2.6-8.27-4.87-15.47
			l-4.35-14.42c-2.52,7.66-5.55,17.62-9.09,29.88H1640.95z"/>
		<path fill="#4D4E4E" d="M1694.74,336.93c0,4.95-1.96,8.62-5.89,10.99c-1.9,1.17-4.62,1.89-8.17,2.18
			c-0.97,0.05-3.84,0.07-8.61,0.07h-7.73c-0.72,0-1.08-0.21-1.08-0.62c0-0.41,0.65-0.62,1.96-0.62c1.52,0,2.42-0.18,2.69-0.55
			c0.27-0.36,0.41-1.47,0.41-3.31V305.7c0-2.13-0.08-3.37-0.25-3.71c-0.3-0.58-1.37-0.9-3.23-0.95c-1.14,0-1.71-0.25-1.71-0.77
			c0-0.46,0.53-0.69,1.58-0.69c0.04,0,0.29,0,0.76,0c0.46,0.15,0.89,0.22,1.27,0.22h12.35c4.56,0.05,7.96,0.92,10.2,2.62
			c2.62,1.99,3.93,4.88,3.93,8.66c0,3.3-1.08,6.01-3.23,8.12c-2.15,2.11-5.17,3.43-9.06,3.97v0.44c3.84,0.29,6.84,1.21,8.99,2.77
			C1693.14,328.7,1694.74,332.22,1694.74,336.93z M1686.25,311.81c0-4.66-0.93-7.76-2.79-9.32c-0.97-0.82-2.81-1.24-5.51-1.24
			c-0.72,0-1.84,0.07-3.36,0.22v21.11h0.57l3.48-0.15c2.41-0.1,4.28-1.08,5.61-2.95C1685.59,317.63,1686.25,315.07,1686.25,311.81z
			 M1688.09,336.13c0-6.12-2.15-9.9-6.46-11.36c-1.27-0.44-3.61-0.66-7.03-0.66v21.69c0,1.41,0.13,2.21,0.38,2.4
			c0.42,0.34,1.6,0.51,3.55,0.51c2.91,0,5.24-1.07,6.97-3.2C1687.22,343.38,1688.09,340.25,1688.09,336.13z"/>
		<path fill="#4D4E4E" d="M1740.6,325.21c0,7.23-1.89,13.35-5.67,18.35c-3.78,5-8.41,7.5-13.9,7.5c-5.83,0-10.73-2.54-14.69-7.61
			c-3.97-5.07-5.95-11.32-5.95-18.75c0-7.57,1.91-13.77,5.73-18.6c3.82-4.83,8.71-7.24,14.66-7.24c5.62,0,10.32,2.52,14.12,7.57
			C1738.7,311.47,1740.6,317.73,1740.6,325.21z M1733.5,325.57c0-8.91-1.58-15.84-4.75-20.81c-1.99-3.11-4.75-4.67-8.3-4.67
			c-3.38,0-6,1.19-7.85,3.58c-3.42,4.38-5.13,11.51-5.13,21.39c0,7.84,1.19,13.92,3.58,18.25c2.38,4.33,5.73,6.5,10.04,6.5
			c4.01,0,7.03-2.04,9.06-6.13C1732.38,339.16,1733.5,333.12,1733.5,325.57z"/>
		<path fill="#4D4E4E" d="M1784.87,300.31c0,0.39-0.38,0.59-1.14,0.59c-0.13,0-0.55,0-1.27,0c-0.21,0-0.51,0-0.89,0
			c-1.06,0-1.69,0.31-1.9,0.95c-0.08,0.34-0.13,0.9-0.13,1.67v27.26c0,7.08-1.15,12.23-3.45,15.45c-2.3,3.22-6.01,4.83-11.12,4.83
			c-6.12,0-10.43-1.99-12.92-5.97c-1.65-2.67-2.47-7.06-2.47-13.18v-29.19c-0.13-0.87-0.64-1.41-1.54-1.6
			c-0.26-0.05-1.05-0.07-2.37-0.07c-0.73-0.1-1.09-0.34-1.09-0.73c0-0.44,0.29-0.66,0.89-0.66h1.14c0.21,0,0.7,0,1.46,0
			c0.67,0,1.29,0,1.84,0h9.06c0.21,0,0.46,0,0.76,0c0.72,0,1.08,0.27,1.08,0.8c0,0.34-0.13,0.53-0.38,0.58s-1.1,0.1-2.53,0.14
			c-0.59,0-0.99,0.05-1.2,0.15c-0.42,0.19-0.65,0.53-0.7,1.02c-0.04,0.19-0.06,1.57-0.06,4.14v25.99c0,6.39,0.89,10.74,2.66,13.07
			s4.41,3.48,7.92,3.48c6.42,0,10.05-4.18,10.89-12.54c0.13-1.26,0.19-6.57,0.19-15.95v-4.13v-5.8v-5c0-0.48,0-1.01,0-1.59
			c0-0.63,0-0.89,0-0.8c0-1.06-0.44-1.72-1.33-1.96c-0.3-0.1-1.16-0.15-2.6-0.15c-0.85,0-1.27-0.26-1.27-0.8
			c0-0.43,0.3-0.65,0.89-0.65c0.34,0,0.61,0,0.83,0c0.51,0,2.36,0,5.54,0c0.47,0,1,0,1.59,0c0.55,0,0.96,0,1.21,0h0.95
			C1784.38,299.66,1784.87,299.87,1784.87,300.31z"/>
		<path fill="#4D4E4E" d="M1821.6,312.61c0,0.63-0.25,0.95-0.76,0.95c-0.51,0-0.87-0.63-1.08-1.89c-0.08-0.87-0.17-1.75-0.25-2.62
			c-0.3-1.75-0.78-3.23-1.46-4.44c-0.89-1.6-2.34-2.62-4.37-3.06c-1.31-0.29-2.37-0.41-3.17-0.36c-1.99,0.06-3.19,0.11-3.61,0.15
			v43.97c0,1.75,0.4,2.84,1.2,3.28c0.42,0.24,1.6,0.39,3.55,0.44c0.51,0.05,0.76,0.25,0.76,0.62c0,0.41-0.34,0.62-1.01,0.62
			c-0.34,0-0.63-0.02-0.89-0.07c-2.53-0.1-4.33-0.15-5.38-0.15c-1.39,0-2.7,0.04-3.93,0.11c-1.22,0.07-2.79,0.11-4.69,0.11
			c-0.97,0-1.46-0.19-1.46-0.58c0-0.44,0.91-0.68,2.72-0.73c1.31,0,2.15-0.32,2.53-0.95c0.21-0.39,0.32-1.39,0.32-2.99v-43.67
			c-4.18,0.05-6.78,0.29-7.79,0.73c-2.66,1.12-4.22,4.1-4.69,8.95c-0.13,1.46-0.42,2.18-0.89,2.18c-0.51,0-0.76-0.51-0.76-1.53
			c0-0.53,0.02-1.07,0.06-1.6l0.13-1.67c0.13-2.23,0.32-5.17,0.57-8.81h2.85l12.92,0.22c1.52,0.05,3.88,0.05,7.09,0l10.51-0.22
			c0.08,2.72,0.36,6.75,0.82,12.08c0,0.15,0.02,0.33,0.06,0.55C1821.58,312.43,1821.6,312.57,1821.6,312.61z"/>
	</g>
	<g>
		<path fill="#4D4E4E" d="M1275.62,335.28c0,0.28-0.06,1.98-0.18,5.1c-0.12,3.12-0.18,6.1-0.18,8.94v3.43
			c-5.91-0.42-17.61-0.62-35.11-0.62c-2.11,0-4.19,0-6.24,0c-2.05,0-3.44,0-4.16,0h-0.9c-1.15,0-1.72-0.28-1.72-0.84
			c0-0.37,0.18-0.59,0.54-0.65c0.18,0,1.33-0.09,3.44-0.28c1.57-0.14,2.52-0.52,2.85-1.15c0.33-0.63,0.5-2.26,0.5-4.9v-58.62
			c0-2.02-0.26-3.22-0.77-3.6c-0.51-0.38-2.16-0.57-4.93-0.57c-0.96,0-1.45-0.29-1.45-0.88c0-0.59,0.66-0.88,1.99-0.88h15.47
			c0.54,0,3.95,0,10.22,0c6.27,0,10.5,0,12.67,0c1.81,0,3.47-0.14,4.98-0.42c0.12,2.98,0.39,7.11,0.81,12.38l0.36,4.47
			c0.06,0.35,0.09,0.8,0.09,1.35c0,0.69-0.27,1.04-0.81,1.04c-0.66,0-1.15-0.87-1.45-2.62c-1.15-6.28-3.02-10.26-5.61-11.93
			c-1.93-1.25-7-1.88-15.2-1.88h-7.42v30.58h2.17c6.75,0,10.87-0.59,12.35-1.77c1.48-1.18,2.49-4.61,3.03-10.3
			c0.12-1.46,0.45-2.18,1-2.18c0.66,0,1,0.62,1,1.87s-0.06,3.09-0.18,5.51c-0.12,2.43-0.18,4.26-0.18,5.51
			c0,7.42,0.1,12.52,0.29,15.29c0.05,0.69,0.07,1.28,0.07,1.77c0,0.9-0.33,1.35-0.99,1.35c-0.42,0-0.71-0.29-0.86-0.88
			c-0.15-0.59-0.41-2.51-0.76-5.77c-0.48-4.09-1.95-6.62-4.41-7.59c-1.08-0.42-3.9-0.62-8.47-0.62h-4.05v34.84
			c13.27,0,21.05-0.31,23.34-0.92c3.98-1.03,6.24-5.41,6.79-13.15c0.12-1.71,0.51-2.57,1.18-2.57
			C1275.32,333.1,1275.62,333.83,1275.62,335.28z"/>
		<path fill="#4D4E4E" d="M1318.22,351.37c0,0.44-0.59,0.66-1.77,0.66c-1.44,0-2.9,0-4.4,0c-1.5,0-2.97,0-4.4,0
			c-1.86,0-4.01,0-6.46,0c-1.23,0-2.13,0-2.72,0c-1.22,0-1.84-0.23-1.84-0.68c0-0.42,0.49-0.6,1.46-0.56h2.85
			c1.01,0.05,1.62,0.03,1.84-0.07c0.63-0.15,0.95-0.61,0.95-1.39c0-0.73-0.55-2.32-1.64-4.76l-6.75-15.75l-7.97,15.49
			c-1.38,2.78-2.08,4.43-2.08,4.92c0,0.9,0.7,1.42,2.09,1.57c-0.08,0,0.87,0,2.85,0c0.76,0,1.14,0.22,1.14,0.65
			c0,0.39-0.32,0.59-0.95,0.59h-7.16h-5.38c-0.67,0-1.01-0.22-1.01-0.66c0-0.44,0.55-0.73,1.65-0.87c0.76-0.1,1.52-0.19,2.28-0.29
			c0.63-0.19,1.16-0.51,1.58-0.95c0.8-0.83,3.4-5.58,7.79-14.28c1.61-3.2,3.05-6,4.33-8.38l-7.18-15.6
			c-1.49-3.19-2.52-5.26-3.09-6.2c-0.57-0.94-1.18-1.56-1.82-1.85c-0.68-0.14-2.02-0.22-4.01-0.22c-0.51,0-0.77-0.19-0.77-0.58
			c0-0.53,0.34-0.8,1.01-0.8c0.93,0,2.85,0.05,5.76,0.15c1.44,0.05,2.43,0.07,2.98,0.07c4.94,0,7.66-0.07,8.17-0.22h0.89
			c0.89,0,1.33,0.2,1.33,0.58c0,0.54-0.75,0.8-2.24,0.8c-2.78-0.05-4.16,0.34-4.16,1.17c0,0.88,2.39,6.58,7.16,17.1
			c1.72-2.92,3.6-6.39,5.66-10.41c2.05-4.02,3.08-6.27,3.08-6.76c0-0.73-1.16-1.1-3.48-1.1c-1.14,0-1.71-0.22-1.71-0.66
			c0-0.49,0.4-0.73,1.2-0.73c0.55,0,1.35,0.04,2.41,0.11c1.05,0.07,1.86,0.11,2.41,0.11c0.21,0,1.19-0.04,2.95-0.11
			c1.75-0.07,2.78-0.11,3.07-0.11h0.57c0.72,0,1.08,0.21,1.08,0.62c0,0.41-0.28,0.62-0.82,0.62c-0.08,0-0.76,0.02-2.03,0.07
			c-1.44,0.05-2.42,0.34-2.94,0.88c-0.53,0.54-1.43,2.1-2.69,4.68c-1.65,3.41-4.05,7.91-7.22,13.52l-0.7,1.24
			c0.29,0.63,3.15,7.01,8.55,19.15c1.86,4.17,3.19,6.66,3.99,7.46c0.8,0.8,2.38,1.18,4.75,1.13
			C1317.69,350.71,1318.22,350.93,1318.22,351.37z"/>
		<path fill="#4D4E4E" d="M1348.56,313.59c0,4.71-1.75,8.37-5.26,10.99c-2.2,1.65-4.98,2.48-8.36,2.48c-1.44,0-3.06-0.17-4.88-0.51
			v20.68c0,1.12,0.04,1.82,0.13,2.11c0.21,0.68,0.67,1.09,1.39,1.24c1.22,0.19,2.41,0.29,3.55,0.29c0.46,0,0.7,0.17,0.7,0.51
			c0,0.49-0.3,0.73-0.89,0.73c-0.25,0-0.46,0-0.63,0c-2.32,0-6.69,0-13.11,0h-0.82c-1.27,0-1.9-0.24-1.9-0.73
			c0-0.34,0.44-0.51,1.33-0.51c1.98,0,3.12-0.22,3.42-0.66c0.34-0.19,0.53-0.68,0.57-1.46v-43.02c0-1.51-0.36-2.43-1.08-2.77
			c-0.42-0.19-1.16-0.29-2.22-0.29h-0.63c-0.13,0-0.28,0-0.44,0c-0.63,0-0.95-0.19-0.95-0.59c0-0.43,0.59-0.65,1.77-0.65h13.93
			c4.81,0,8.34,0.97,10.58,2.91C1347.29,306.53,1348.56,309.61,1348.56,313.59z M1341.91,313.66c0-7.33-2.66-10.99-7.98-10.99
			c-1.77,0-2.94,0.34-3.48,1.03c-0.25,0.29-0.38,1.05-0.38,2.27v19.49c0.34,0.05,0.72,0.07,1.14,0.07c2.79,0,5.15-0.71,7.09-2.12
			C1340.7,321.64,1341.91,318.4,1341.91,313.66z"/>
		<path fill="#4D4E4E" d="M1384.02,346.27c0,1.26-0.06,3.35-0.19,6.26h-0.7c-0.25,0-0.86-0.05-1.83-0.15
			c-0.97-0.1-2.07-0.15-3.29-0.15l-26.3-0.22c-0.72,0-1.08-0.22-1.08-0.66c0-0.34,0.57-0.56,1.71-0.66c1.6-0.1,2.57-0.3,2.88-0.62
			c0.32-0.31,0.48-1.23,0.48-2.73v-40.91c0-1.79-0.16-2.84-0.48-3.13c-0.32-0.29-1.45-0.44-3.39-0.44c-0.8,0-1.2-0.27-1.2-0.8
			c0-0.44,0.25-0.66,0.76-0.66h0.57c1.39,0.15,4.16,0.22,8.3,0.22c0.38,0,1.12-0.04,2.22-0.11c1.1-0.07,2-0.11,2.72-0.11h0.7
			c0.76,0,1.14,0.24,1.14,0.73c0,0.29-0.12,0.47-0.35,0.55c-0.23,0.07-0.96,0.13-2.18,0.18c-1.23,0.05-1.95,0.28-2.19,0.69
			c-0.23,0.41-0.35,1.69-0.35,3.82v42.95c1.14,0.05,2.72,0.07,4.75,0.07c4.94,0,8.42-0.29,10.45-0.87c2.03-0.58,3.4-1.67,4.12-3.28
			c0.72-1.6,1.14-3.76,1.27-6.48c0.04-0.63,0.28-0.95,0.73-0.95c0.53,0,0.77,0.36,0.73,1.09v1.82c0,0.1,0,0.32,0,0.66
			c0,0.34,0,0.68,0,1.02V346.27z"/>
		<path fill="#4D4E4E" d="M1427.6,327.06c0,7.23-1.89,13.35-5.67,18.35c-3.78,5-8.41,7.5-13.9,7.5c-5.83,0-10.73-2.54-14.69-7.61
			c-3.97-5.07-5.95-11.32-5.95-18.75c0-7.57,1.91-13.77,5.73-18.6c3.82-4.83,8.71-7.24,14.66-7.24c5.62,0,10.32,2.52,14.12,7.57
			C1425.7,313.32,1427.6,319.58,1427.6,327.06z M1420.51,327.42c0-8.91-1.58-15.84-4.75-20.81c-1.99-3.11-4.75-4.67-8.3-4.67
			c-3.38,0-6,1.19-7.85,3.58c-3.42,4.38-5.13,11.51-5.13,21.39c0,7.84,1.19,13.92,3.58,18.25c2.38,4.33,5.73,6.5,10.04,6.5
			c4.01,0,7.03-2.04,9.06-6.13C1419.39,341,1420.51,334.97,1420.51,327.42z"/>
		<path fill="#4D4E4E" d="M1467.88,349.84c0,2.04-1.48,3.06-4.43,3.06c-3.29,0-5.87-1.58-7.73-4.73c-0.8-1.36-1.32-2.67-1.55-3.93
			c-0.23-1.26-0.58-4.46-1.04-9.61c-0.25-3.1-1.12-5.3-2.6-6.59c-1.48-1.29-3.89-1.98-7.22-2.07v22.93c0,0.97,0.67,1.58,2.03,1.82
			c0.38,0.05,1.35,0.1,2.91,0.15c0.55,0,0.82,0.19,0.82,0.58c0,0.44-0.36,0.66-1.08,0.66h-0.76c-0.38,0-2.22,0-5.51,0
			c-0.63,0-1.71,0-3.23,0c-1.48,0-2.45,0-2.91,0h-2.47c-0.93,0-1.39-0.22-1.39-0.66c0-0.34,0.61-0.53,1.84-0.58
			c1.98-0.05,3.06-0.34,3.23-0.87c0.17-0.24,0.25-1.19,0.25-2.84v-40.19c0-1.94-0.18-3.11-0.54-3.49c-0.36-0.39-1.45-0.61-3.26-0.66
			c-1.06,0-1.58-0.22-1.58-0.66c0-0.48,0.34-0.73,1.01-0.73c0.13,0,0.32,0.03,0.57,0.07l8.42,0.22c0.84,0,2.03-0.03,3.55-0.1
			c1.69-0.13,2.87-0.19,3.55-0.19c3.93,0,7.04,1.01,9.34,3.02c2.3,2.01,3.45,4.74,3.45,8.19c0,3.4-1.18,6.2-3.55,8.41
			c-2.37,2.21-5.57,3.51-9.63,3.9c-0.38,0.05-0.59,0.12-0.63,0.22c0,0.19,0.21,0.29,0.63,0.29c4.43,0.88,7.48,2.67,9.15,5.37
			c1.67,2.7,2.78,7.58,3.32,14.64c0.34,3.99,1.52,5.99,3.55,5.99c0.63,0,0.95-0.15,0.95-0.44c0-0.05-0.02-0.1-0.06-0.15
			c-0.21-0.53-0.32-0.97-0.32-1.31c0-1.02,0.46-1.53,1.39-1.53C1467.37,348.02,1467.88,348.63,1467.88,349.84z M1454.77,313.37
			c0-6.94-2.62-10.41-7.85-10.41c-1.39,0-2.34,0.22-2.85,0.66c-0.51,0.44-0.76,1.21-0.76,2.33v18.49c4.05,0.05,6.98-0.8,8.77-2.55
			C1453.87,320.14,1454.77,317.3,1454.77,313.37z"/>
		<path fill="#4D4E4E" d="M1503.09,340.3c0,0.19-0.04,1.38-0.13,3.57c-0.08,2.18-0.13,4.27-0.13,6.26v2.4
			c-4.14-0.29-12.33-0.44-24.57-0.44c-1.48,0-2.94,0-4.37,0s-2.41,0-2.91,0h-0.63c-0.8,0-1.2-0.19-1.2-0.59
			c0-0.26,0.13-0.41,0.38-0.46c0.13,0,0.93-0.06,2.41-0.2c1.1-0.1,1.76-0.36,2-0.8c0.23-0.44,0.35-1.58,0.35-3.43v-41.04
			c0-1.41-0.18-2.25-0.54-2.52c-0.36-0.27-1.51-0.4-3.45-0.4c-0.68,0-1.01-0.21-1.01-0.62c0-0.41,0.46-0.62,1.39-0.62h10.83
			c0.38,0,2.77,0,7.16,0c4.39,0,7.35,0,8.87,0c1.27,0,2.43-0.1,3.48-0.29c0.08,2.09,0.27,4.98,0.57,8.66l0.25,3.13
			c0.04,0.24,0.06,0.56,0.06,0.95c0,0.49-0.19,0.73-0.57,0.73c-0.46,0-0.8-0.61-1.01-1.83c-0.8-4.4-2.11-7.18-3.93-8.35
			c-1.35-0.88-4.9-1.32-10.64-1.32h-5.19v21.4h1.52c4.73,0,7.61-0.41,8.65-1.24c1.03-0.82,1.74-3.23,2.12-7.21
			c0.08-1.02,0.32-1.53,0.7-1.53c0.46,0,0.7,0.44,0.7,1.31s-0.04,2.16-0.13,3.86c-0.09,1.7-0.13,2.98-0.13,3.86
			c0,5.19,0.07,8.76,0.2,10.7c0.03,0.49,0.05,0.9,0.05,1.24c0,0.63-0.23,0.95-0.69,0.95c-0.29,0-0.49-0.21-0.6-0.62
			c-0.11-0.41-0.28-1.76-0.54-4.04c-0.34-2.86-1.37-4.63-3.09-5.31c-0.76-0.29-2.73-0.44-5.93-0.44h-2.84v24.39
			c9.29,0,14.74-0.21,16.34-0.65c2.79-0.72,4.37-3.79,4.75-9.2c0.08-1.2,0.36-1.8,0.82-1.8
			C1502.88,338.78,1503.09,339.29,1503.09,340.3z"/>
	</g>
	<g>
	</g>
	<g>
	</g>
	<g>
	</g>
	<g>
	</g>
	<g>
	</g>
	<g>
	</g>
	<g>
	</g>
	<g>
	</g>
	<g>
	</g>
	<g>
	</g>
	<g>
	</g>
</g>
</svg>
