<?xml version="1.0" encoding="utf-8"?>
<!-- Generator: Adobe Illustrator 28.2.0, SVG Export Plug-In . SVG Version: 6.00 Build 0)  -->
<svg version="1.1" xmlns="http://www.w3.org/2000/svg" xmlns:xlink="http://www.w3.org/1999/xlink" x="0px" y="0px"
	 viewBox="0 0 2048 2732" enable-background="new 0 0 2048 2732" xml:space="preserve">
<g id="Layer_1">
	<rect fill="#E4D2BC" width="2048" height="1574"/>
	<rect x="466" y="737" opacity="0.36" fill="#EE9C9B" width="1477" height="1477"/>
</g>
<g id="Layer_2">
	<rect y="225" fill="#FFFFFF" width="2048" height="204"/>
	<rect x="1004.6" y="1505" fill="#FFFFFF" width="848.68" height="589"/>
	<g>
		<g opacity="0.18">
			<path fill="#666667" d="M220.68,1006.42l0.78-12.64c20.52,0,31.82-7.6,33.9-22.79l26.5-205.93c0-16.88-10.27-25.32-30.79-25.32
				l1.56-12.64h101.32l-1.56,12.64c-21.31,0-33.39,10.69-36.24,32.07L289.66,971c0,0.57-0.07,1.06-0.19,1.48
				c-0.13,0.42-0.19,0.92-0.19,1.47c0,9.85,7.01,14.77,21.04,14.77h15.98c10.65,0,19.87-0.49,27.67-1.47
				c7.79-0.98,14.94-3.72,21.43-8.21c6.49-4.49,12.53-11.51,18.12-21.06c5.58-9.54,11.62-22.89,18.12-40.02l9.35,1.69l-21.82,86.78
				H220.68z"/>
			<path fill="#666667" d="M418.72,1006.42l1.09-8.85c15.28,0,23.91-6.79,25.91-20.38l17.73-137.36c0-6.69-1.82-11.71-5.46-15.06
				c-3.64-3.35-8.91-5.02-15.82-5.02l1.09-8.85h70.93l-1.09,8.85c-15.1,0-23.73,8.67-25.92,25.99l-17.46,131.45
				c-0.18,0.59-0.27,1.23-0.27,1.92c0,0.69,0,1.33,0,1.92c0,11.03,7.09,16.54,21.28,16.54l-0.82,8.85H418.72z"/>
			<path fill="#666667" d="M651.68,1009.66l-87.02-166.03l-15.28,118.84c-0.55,3.94-0.82,7.28-0.82,10.03
				c0,16.71,7.18,25.07,21.55,25.07l-0.82,8.85h-59.2l1.09-8.85c13.82,0,22.27-11.72,25.37-35.15l16.91-130.27
				c0-4.13-1.68-7.23-5.05-9.3c-3.37-2.06-9.32-3.1-17.87-3.1l1.36-8.85h44.74l76.93,147.15l13.91-105.8
				c0.55-3.15,0.82-6.2,0.82-9.16c0-15.56-7.19-23.35-21.55-23.35l1.09-8.85h58.92l-1.36,8.85c-15.1,0-24.01,10.83-26.73,32.49
				l-20.46,155.36L651.68,1009.66z"/>
			<path fill="#666667" d="M697.51,1006.42l1.09-8.85c6.55,0,12.05-1.62,16.5-4.88c4.45-3.25,7.14-8.02,8.05-14.33l18-139.13
				c0-12.99-7.09-19.5-21.28-19.5l1.09-8.85H850l-5.46,55.15l-7.64,1.18c-0.18-10.81-1.36-19.17-3.55-25.07s-5.23-10.22-9.14-12.98
				c-3.91-2.75-8.55-4.37-13.91-4.87c-5.37-0.49-11.14-0.74-17.32-0.74h-6.55c-6.91,0-11.91,1.08-15,3.24
				c-3.09,2.17-4.91,5.51-5.46,10.03l-7.09,52.79c0,0.4-0.05,0.79-0.14,1.18c-0.09,0.4-0.14,0.79-0.14,1.18
				c0,4.33,1.64,6.49,4.91,6.49h8.46c4.18,0,8.05-0.24,11.59-0.74c3.55-0.49,6.82-1.77,9.82-3.83c3-2.06,5.63-5.21,7.91-9.44
				c2.27-4.23,4.13-9.98,5.59-17.25h9.27l-10.09,76.38h-9v-7.08c0-5.5-0.5-9.93-1.5-13.27c-1-3.34-2.59-5.9-4.77-7.67
				c-2.18-1.77-4.96-2.95-8.32-3.54c-3.37-0.59-7.41-0.88-12.14-0.88h-2.73c-7.82,0-12.1,3.24-12.82,9.73l-7.37,56.33
				c-0.18,0.79-0.27,1.77-0.27,2.95c0,9.24,6,13.86,18,13.86h7.37c10.37,0,18.82-0.93,25.37-2.8c6.55-1.87,12.05-4.82,16.5-8.85
				c4.45-4.03,8.23-9.09,11.32-15.19c3.09-6.09,6.45-13.27,10.09-21.53l6.27,2.36l-13.91,58.39H697.51z"/>
			<path fill="#666667" d="M874.82,1006.42l0.82-8.85c8,0,14.59-2.26,19.78-6.78c5.18-4.52,8.41-11.3,9.68-20.35l18.28-135.95
				c0-3.73-0.73-6.49-2.18-8.26c-1.46-1.77-4.36-2.65-8.73-2.65c-21.28,0-37.19,16.81-47.74,50.43l-7.09-2.36l14.73-62.81
				c3.64,0.59,7.13,1.08,10.5,1.47c3.36,0.4,6.59,0.59,9.68,0.59h94.39c3.45,0,7.05-0.19,10.77-0.59c3.73-0.39,7.5-0.88,11.32-1.47
				l-8.18,61.63l-7.09,1.18c0.18-1.37,0.27-2.7,0.27-3.98c0-1.28,0-2.51,0-3.69c0-26.34-11.09-39.52-33.28-39.52
				c-8,0-12.46,3.35-13.37,10.03l-17.73,135.95c-0.18,0.99-0.32,1.97-0.41,2.95c-0.09,0.99-0.14,1.97-0.14,2.95
				c0,14.16,7.73,21.23,23.19,21.23l-0.82,8.85H874.82z"/>
			<path fill="#666667" d="M1067.68,1006.42l0.55-8.85c2.36-0.39,4.86-0.78,7.5-1.18c2.63-0.39,5.09-0.88,7.37-1.47
				c2.27-0.59,4.13-1.33,5.59-2.21c1.45-0.88,2.18-1.92,2.18-3.1c0-0.98-0.05-2.06-0.14-3.24c-0.09-1.18-0.32-3.05-0.68-5.6
				l-6-36.27c-0.54-2.55-2.28-4.47-5.18-5.75c-2.91-1.28-5.91-1.92-9-1.92h-36.28c-6.37,0-10.55,2.54-12.55,7.63l-12.55,30.52
				c-0.37,1.18-0.78,2.59-1.23,4.26c-0.46,1.66-0.68,3.47-0.68,5.42c0,7.63,6.64,11.45,19.91,11.45l-1.09,10.32h-55.1l1.64-10.32
				c4.73-0.39,8.87-2.35,12.41-5.89c3.55-3.53,6.96-8.64,10.23-15.31l81.29-168.42l6.82,3.53l35.19,174.9
				c0.72,4.91,2.46,7.95,5.18,9.13c2.73,1.18,7,2.26,12.82,3.24l-0.82,9.14H1067.68z M1066.59,848.06l-29.46,61.93
				c-1.46,2.56-2.5,4.72-3.14,6.49c-0.64,1.77-0.95,3.24-0.95,4.42c0,2.36,2.82,3.54,8.46,3.54h30.83c5.27,0,7.91-1.37,7.91-4.13
				c0-0.98-0.14-2.21-0.41-3.69c-0.27-1.47-0.59-3.29-0.96-5.46L1066.59,848.06z"/>
			<path fill="#666667" d="M208.6,1430.46l-0.39-9.69l164.06-248.56c-4.94-1.12-9.88-1.9-14.81-2.32
				c-4.94-0.42-9.74-0.63-14.42-0.63h-15.98c-11.69,0-21.43,1.13-29.23,3.37c-7.79,2.25-14.49,5.83-20.07,10.74
				c-5.59,4.92-10.46,11.37-14.61,19.38c-4.16,8-8.32,17.63-12.47,28.86h-10.52l17.54-83.41c4.41,0.84,8.77,1.55,13.06,2.11
				c4.29,0.57,8.63,0.84,13.05,0.84h133.67l-1.56,13.06l-162.5,246.87c3.9,1.13,7.79,1.9,11.69,2.32c3.9,0.42,7.53,0.63,10.91,0.63
				h26.89c11.95,0,22.54-2.67,31.76-8c9.22-5.33,17.27-11.8,24.16-19.38c6.88-7.58,12.6-15.44,17.15-23.59
				c4.54-8.14,8.24-15.17,11.11-21.06l10.52,3.37l-20.26,85.1H208.6z"/>
			<path fill="#666667" d="M402.75,1430.46l1.09-8.85c15.28,0,23.91-6.79,25.91-20.38l17.73-137.36c0-6.69-1.82-11.71-5.46-15.06
				c-3.64-3.35-8.91-5.02-15.82-5.02l1.09-8.85h70.93l-1.09,8.85c-15.1,0-23.73,8.67-25.92,25.99l-17.46,131.45
				c-0.18,0.59-0.27,1.23-0.27,1.92s0,1.33,0,1.92c0,11.03,7.09,16.54,21.28,16.54l-0.82,8.85H402.75z"/>
			<path fill="#666667" d="M608.7,1326.07c11.64,2.17,20.91,6.69,27.82,13.57c6.91,6.88,10.37,15.92,10.37,27.13
				c0,12.19-1.91,22.41-5.73,30.67c-3.82,8.26-8.87,14.89-15.14,19.91c-6.27,5.01-13.32,8.65-21.14,10.91
				c-7.82,2.26-15.73,3.39-23.73,3.39c-6.91,0-13.6-0.05-20.05-0.15c-6.46-0.1-13.05-0.25-19.78-0.44c-6.73-0.2-13.6-0.35-20.6-0.44
				c-7-0.1-14.5-0.15-22.5-0.15l1.09-8.85c15.28,0,23.73-5.5,25.37-16.51l18.55-144.21c0-11.21-7.19-16.81-21.55-16.81l1.09-9.14
				h70.93c7.82,0,15.14,0.69,21.96,2.06c6.82,1.38,12.68,3.64,17.59,6.78c4.91,3.15,8.77,7.13,11.59,11.94
				c2.82,4.82,4.23,10.76,4.23,17.84c0,7.67-1.05,14.3-3.14,19.91c-2.09,5.6-5,10.42-8.73,14.45c-3.73,4.03-8,7.37-12.82,10.03
				c-4.82,2.65-9.96,4.97-15.41,6.93L608.7,1326.07z M575.15,1420.44c6,0,11.73-0.93,17.19-2.8c5.46-1.87,10.27-4.91,14.46-9.14
				c4.18-4.23,7.54-9.73,10.09-16.51c2.54-6.78,3.82-14.99,3.82-24.62c0-6.88-1.09-12.48-3.27-16.81
				c-2.18-4.32-5.28-7.71-9.27-10.17c-4-2.46-8.91-4.13-14.73-5.01c-5.82-0.88-12.28-1.33-19.37-1.33h-8.73
				c-4.73,0-7.64,3.74-8.73,11.21l-8.18,63.7c0,0.4-0.05,0.64-0.14,0.74c-0.09,0.1-0.14,0.35-0.14,0.74
				c0,6.69,5.46,10.03,16.37,10.03H575.15z M586.88,1246.45c-11.28,0-17.46,3.64-18.55,10.91l-7.64,56.92
				c0,2.75,0.41,4.82,1.23,6.19c0.82,1.38,2.5,2.06,5.05,2.06c11.82,0,21.46-0.88,28.92-2.65c7.46-1.77,13.32-4.57,17.6-8.4
				c4.27-3.83,7.18-8.8,8.73-14.89c1.54-6.09,2.32-13.46,2.32-22.12c0-18.67-9.27-28.02-27.82-28.02H586.88z"/>
			<path fill="#666667" d="M664.62,1430.46l1.09-8.85c6.55,0,12.05-1.62,16.5-4.88c4.45-3.25,7.14-8.02,8.05-14.33l18-139.13
				c0-12.99-7.09-19.5-21.28-19.5l1.09-8.85h129.03l-5.46,55.15l-7.64,1.18c-0.18-10.81-1.36-19.17-3.55-25.07
				c-2.18-5.9-5.23-10.22-9.14-12.98c-3.91-2.75-8.55-4.37-13.91-4.87c-5.37-0.49-11.14-0.74-17.32-0.74h-6.55
				c-6.91,0-11.91,1.08-15,3.24c-3.09,2.17-4.91,5.51-5.46,10.03l-7.09,52.79c0,0.4-0.05,0.79-0.14,1.18
				c-0.09,0.4-0.14,0.79-0.14,1.18c0,4.33,1.64,6.49,4.91,6.49h8.46c4.18,0,8.05-0.24,11.59-0.74c3.55-0.49,6.82-1.77,9.82-3.83
				c3-2.06,5.63-5.21,7.91-9.44c2.27-4.23,4.13-9.98,5.59-17.25h9.27l-10.09,76.38h-9v-7.08c0-5.5-0.5-9.92-1.5-13.27
				c-1-3.34-2.59-5.9-4.77-7.67c-2.18-1.77-4.96-2.95-8.32-3.54c-3.37-0.59-7.41-0.88-12.14-0.88h-2.73
				c-7.82,0-12.1,3.24-12.82,9.73l-7.37,56.33c-0.18,0.79-0.27,1.77-0.27,2.95c0,9.24,6,13.86,18,13.86h7.37
				c10.37,0,18.82-0.93,25.37-2.8c6.55-1.87,12.05-4.81,16.5-8.85c4.45-4.03,8.23-9.09,11.32-15.19
				c3.09-6.09,6.45-13.27,10.09-21.53l6.27,2.36l-13.91,58.39H664.62z"/>
			<path fill="#666667" d="M978.87,1404.81c-0.18,2.36-0.96,5.21-2.32,8.55c-1.36,3.35-3.14,6.49-5.32,9.44
				c-2.18,2.95-4.77,5.51-7.77,7.67c-3,2.16-6.23,3.24-9.68,3.24c-9.82,0-16.87-2.02-21.14-6.05c-4.28-4.03-7.05-10.57-8.32-19.61
				c-1.09-7.47-2-15.48-2.73-24.03c-0.73-8.55-1.96-16.41-3.68-23.59c-1.73-7.17-4.23-13.17-7.5-17.99
				c-3.27-4.81-7.82-7.22-13.64-7.22h-7.64c-4.55,0-7.19,1.08-7.91,3.24l-8.73,63.99c-0.18,0.79-0.27,1.87-0.27,3.24
				c0,10.62,6.82,15.92,20.46,15.92l-0.82,8.85h-69.02l1.09-8.85c6,0,11.18-1.62,15.55-4.87c4.36-3.24,7-8.01,7.91-14.3
				l18.82-143.03c0-10.22-7-15.33-21-15.33l1.09-9.14h30.55c5.46,0,10.09-0.05,13.91-0.15c3.82-0.1,7.5-0.24,11.05-0.44
				c3.55-0.19,7.27-0.34,11.18-0.44c3.91-0.1,8.77-0.15,14.59-0.15c6.55,0,12.55,1.03,18,3.1c5.46,2.06,10.18,4.97,14.19,8.7
				c4,3.74,7.09,8.16,9.27,13.27c2.18,5.12,3.27,10.62,3.27,16.51c0,7.87-1.32,14.85-3.96,20.94c-2.64,6.1-6.18,11.46-10.64,16.07
				c-4.46,4.62-9.73,8.4-15.82,11.35c-6.1,2.95-12.6,5.31-19.5,7.08v0.88c7.64,4.53,13.5,10.17,17.59,16.96
				c4.09,6.78,6.59,13.32,7.5,19.61c0.55,3.94,1.09,8.65,1.64,14.16c0.55,5.51,1.41,10.72,2.59,15.63c1.18,4.92,2.68,9.1,4.5,12.53
				c1.82,3.44,4.27,5.16,7.37,5.16c3.64,0,7-4.42,10.09-13.27L978.87,1404.81z M901.67,1323.71c4.91,0,9.96-0.49,15.14-1.47
				c5.18-0.98,9.96-3.14,14.32-6.49c4.36-3.34,7.91-8.06,10.64-14.16c2.73-6.09,4.09-14.35,4.09-24.77c0-5.9-0.95-10.81-2.86-14.75
				c-1.91-3.93-4.36-7.08-7.37-9.44c-3-2.36-6.41-3.98-10.23-4.87s-7.55-1.33-11.18-1.33h-11.73c-4,0-6.73,1.38-8.18,4.13
				c-1.46,2.76-2.55,6.88-3.27,12.39l-7.09,56.33c0,2.95,1.54,4.42,4.64,4.42H901.67z"/>
			<path fill="#666667" d="M1122.08,1433.71c-3.27-3.34-6.23-6.29-8.87-8.85c-2.64-2.55-4.87-4.81-6.68-6.78
				c-6.37,5.11-13.6,9.19-21.69,12.24c-8.09,3.05-16.23,4.57-24.41,4.57c-10,0-19.01-2.02-27.01-6.05
				c-8-4.03-14.82-9.68-20.46-16.96c-5.64-7.27-9.96-15.78-12.96-25.51c-3-9.73-4.5-20.39-4.5-32c0-14.94,2.46-29.83,7.37-44.68
				c4.91-14.84,11.68-28.11,20.32-39.81c8.64-11.69,18.69-21.18,30.14-28.46c11.46-7.27,23.73-10.91,36.83-10.91
				c6.91,0,13.41,1.47,19.5,4.42c6.09,2.95,11.96,6.39,17.6,10.32c6.55-7.08,13-11.21,19.37-12.39c1.64,7.67,2.46,16.81,2.46,27.43
				c0,5.71-0.27,11.9-0.82,18.58c-0.54,6.69-1.27,13.76-2.18,21.23h-8.46c-0.54-8.65-1.96-16.51-4.23-23.59
				c-2.28-7.08-5.37-13.17-9.27-18.28c-3.91-5.11-8.59-9.09-14.05-11.94c-5.46-2.85-11.73-4.28-18.82-4.28
				c-11.46,0-21.41,3.44-29.87,10.32c-8.46,6.88-15.46,15.78-21,26.69c-5.55,10.91-9.73,23.05-12.55,36.42
				c-2.82,13.37-4.23,26.64-4.23,39.81c0,9.63,0.86,18.58,2.59,26.84c1.73,8.26,4.41,15.39,8.05,21.38
				c3.64,6,8.18,10.72,13.64,14.16c5.46,3.44,12,5.16,19.64,5.16c5.63,0,11.14-0.88,16.5-2.65c5.36-1.77,10.14-4.62,14.32-8.55
				c4.18-3.93,7.59-9.04,10.23-15.33c2.63-6.29,3.96-13.86,3.96-22.71c0-15.33-7.19-23-21.55-23l1.09-8.85h70.38l-1.36,8.85
				c-8.18,0-14.1,1.92-17.73,5.75c-3.64,3.83-5.91,9.39-6.82,16.66l-7.91,60.75H1122.08z"/>
			<path fill="#666667" d="M1247.01,1430.46l0.55-8.85c2.36-0.39,4.86-0.78,7.5-1.18c2.63-0.39,5.09-0.88,7.37-1.47
				c2.27-0.59,4.13-1.33,5.59-2.21c1.45-0.88,2.18-1.92,2.18-3.1c0-0.98-0.05-2.06-0.14-3.24c-0.09-1.18-0.32-3.05-0.68-5.6
				l-6-36.27c-0.54-2.55-2.28-4.47-5.18-5.75c-2.91-1.28-5.91-1.92-9-1.92h-36.28c-6.37,0-10.55,2.54-12.55,7.63l-12.55,30.52
				c-0.37,1.17-0.78,2.59-1.23,4.26c-0.46,1.66-0.68,3.47-0.68,5.42c0,7.63,6.64,11.45,19.91,11.45l-1.09,10.32h-55.1l1.64-10.32
				c4.73-0.39,8.87-2.35,12.41-5.89c3.55-3.53,6.96-8.63,10.23-15.31l81.29-168.42l6.82,3.53l35.19,174.9
				c0.72,4.91,2.46,7.95,5.18,9.13c2.73,1.18,7,2.26,12.82,3.24l-0.82,9.14H1247.01z M1245.92,1272.1l-29.46,61.93
				c-1.46,2.56-2.5,4.72-3.14,6.49c-0.64,1.77-0.95,3.24-0.95,4.42c0,2.36,2.82,3.54,8.46,3.54h30.83c5.27,0,7.91-1.37,7.91-4.13
				c0-0.98-0.14-2.21-0.41-3.69c-0.27-1.47-0.59-3.29-0.96-5.46L1245.92,1272.1z"/>
		</g>
		<g>
			<path fill="#F2F2F2" d="M241.47,1006.42l0.78-12.64c20.52,0,31.82-7.6,33.9-22.79l26.5-205.93c0-16.88-10.27-25.32-30.79-25.32
				l1.56-12.64h101.32l-1.56,12.64c-21.31,0-33.39,10.69-36.24,32.07L310.45,971c0,0.57-0.07,1.06-0.19,1.48
				c-0.13,0.42-0.19,0.92-0.19,1.47c0,9.85,7.01,14.77,21.04,14.77h15.98c10.65,0,19.87-0.49,27.67-1.47
				c7.79-0.98,14.94-3.72,21.43-8.21c6.49-4.49,12.53-11.51,18.12-21.06c5.58-9.54,11.62-22.89,18.12-40.02l9.35,1.69l-21.82,86.78
				H241.47z"/>
			<path fill="#F2F2F2" d="M439.52,1006.42l1.09-8.85c15.28,0,23.91-6.79,25.91-20.38l17.73-137.36c0-6.69-1.82-11.71-5.46-15.06
				c-3.64-3.35-8.91-5.02-15.82-5.02l1.09-8.85h70.93l-1.09,8.85c-15.1,0-23.73,8.67-25.92,25.99l-17.46,131.45
				c-0.18,0.59-0.27,1.23-0.27,1.92c0,0.69,0,1.33,0,1.92c0,11.03,7.09,16.54,21.28,16.54l-0.82,8.85H439.52z"/>
			<path fill="#F2F2F2" d="M672.48,1009.66l-87.02-166.03l-15.28,118.84c-0.55,3.94-0.82,7.28-0.82,10.03
				c0,16.71,7.18,25.07,21.55,25.07l-0.82,8.85h-59.2l1.09-8.85c13.82,0,22.27-11.72,25.37-35.15l16.91-130.27
				c0-4.13-1.68-7.23-5.05-9.3c-3.37-2.06-9.32-3.1-17.87-3.1l1.36-8.85h44.74l76.93,147.15l13.91-105.8
				c0.55-3.15,0.82-6.2,0.82-9.16c0-15.56-7.19-23.35-21.55-23.35l1.09-8.85h58.92l-1.36,8.85c-15.1,0-24.01,10.83-26.73,32.49
				l-20.46,155.36L672.48,1009.66z"/>
			<path fill="#F2F2F2" d="M718.3,1006.42l1.09-8.85c6.55,0,12.05-1.62,16.5-4.88c4.45-3.25,7.14-8.02,8.05-14.33l18-139.13
				c0-12.99-7.09-19.5-21.28-19.5l1.09-8.85h129.03l-5.46,55.15l-7.64,1.18c-0.18-10.81-1.36-19.17-3.55-25.07
				s-5.23-10.22-9.14-12.98c-3.91-2.75-8.55-4.37-13.91-4.87c-5.37-0.49-11.14-0.74-17.32-0.74h-6.55c-6.91,0-11.91,1.08-15,3.24
				c-3.09,2.17-4.91,5.51-5.46,10.03l-7.09,52.79c0,0.4-0.05,0.79-0.14,1.18c-0.09,0.4-0.14,0.79-0.14,1.18
				c0,4.33,1.64,6.49,4.91,6.49h8.46c4.18,0,8.05-0.24,11.59-0.74c3.55-0.49,6.82-1.77,9.82-3.83c3-2.06,5.63-5.21,7.91-9.44
				c2.27-4.23,4.13-9.98,5.59-17.25h9.27l-10.09,76.38h-9v-7.08c0-5.5-0.5-9.93-1.5-13.27c-1-3.34-2.59-5.9-4.77-7.67
				c-2.18-1.77-4.96-2.95-8.32-3.54c-3.37-0.59-7.41-0.88-12.14-0.88h-2.73c-7.82,0-12.1,3.24-12.82,9.73l-7.37,56.33
				c-0.18,0.79-0.27,1.77-0.27,2.95c0,9.24,6,13.86,18,13.86h7.37c10.37,0,18.82-0.93,25.37-2.8c6.55-1.87,12.05-4.82,16.5-8.85
				c4.45-4.03,8.23-9.09,11.32-15.19c3.09-6.09,6.45-13.27,10.09-21.53l6.27,2.36l-13.91,58.39H718.3z"/>
			<path fill="#F2F2F2" d="M895.61,1006.42l0.82-8.85c8,0,14.59-2.26,19.78-6.78c5.18-4.52,8.41-11.3,9.68-20.35l18.28-135.95
				c0-3.73-0.73-6.49-2.18-8.26c-1.46-1.77-4.36-2.65-8.73-2.65c-21.28,0-37.19,16.81-47.74,50.43l-7.09-2.36l14.73-62.81
				c3.64,0.59,7.13,1.08,10.5,1.47c3.36,0.4,6.59,0.59,9.68,0.59h94.39c3.45,0,7.05-0.19,10.77-0.59c3.73-0.39,7.5-0.88,11.32-1.47
				l-8.18,61.63l-7.09,1.18c0.18-1.37,0.27-2.7,0.27-3.98c0-1.28,0-2.51,0-3.69c0-26.34-11.09-39.52-33.28-39.52
				c-8,0-12.46,3.35-13.37,10.03l-17.73,135.95c-0.18,0.99-0.32,1.97-0.41,2.95c-0.09,0.99-0.14,1.97-0.14,2.95
				c0,14.16,7.73,21.23,23.19,21.23l-0.82,8.85H895.61z"/>
			<path fill="#F2F2F2" d="M1088.47,1006.42l0.55-8.85c2.36-0.39,4.86-0.78,7.5-1.18c2.63-0.39,5.09-0.88,7.37-1.47
				c2.27-0.59,4.13-1.33,5.59-2.21c1.45-0.88,2.18-1.92,2.18-3.1c0-0.98-0.05-2.06-0.14-3.24c-0.09-1.18-0.32-3.05-0.68-5.6
				l-6-36.27c-0.54-2.55-2.28-4.47-5.18-5.75c-2.91-1.28-5.91-1.92-9-1.92h-36.28c-6.37,0-10.55,2.54-12.55,7.63l-12.55,30.52
				c-0.37,1.18-0.78,2.59-1.23,4.26c-0.46,1.66-0.68,3.47-0.68,5.42c0,7.63,6.64,11.45,19.91,11.45l-1.09,10.32h-55.1l1.64-10.32
				c4.73-0.39,8.87-2.35,12.41-5.89c3.55-3.53,6.96-8.64,10.23-15.31l81.29-168.42l6.82,3.53l35.19,174.9
				c0.72,4.91,2.46,7.95,5.18,9.13c2.73,1.18,7,2.26,12.82,3.24l-0.82,9.14H1088.47z M1087.38,848.06l-29.46,61.93
				c-1.46,2.56-2.5,4.72-3.14,6.49c-0.64,1.77-0.95,3.24-0.95,4.42c0,2.36,2.82,3.54,8.46,3.54h30.83c5.27,0,7.91-1.37,7.91-4.13
				c0-0.98-0.14-2.21-0.41-3.69c-0.27-1.47-0.59-3.29-0.96-5.46L1087.38,848.06z"/>
			<path fill="#F2F2F2" d="M229.39,1430.46l-0.39-9.69l164.06-248.56c-4.94-1.12-9.88-1.9-14.81-2.32
				c-4.94-0.42-9.74-0.63-14.42-0.63h-15.98c-11.69,0-21.43,1.13-29.23,3.37c-7.79,2.25-14.49,5.83-20.07,10.74
				c-5.59,4.92-10.46,11.37-14.61,19.38c-4.16,8-8.32,17.63-12.47,28.86h-10.52l17.54-83.41c4.41,0.84,8.77,1.55,13.06,2.11
				c4.29,0.57,8.63,0.84,13.05,0.84h133.67l-1.56,13.06l-162.5,246.87c3.9,1.13,7.79,1.9,11.69,2.32c3.9,0.42,7.53,0.63,10.91,0.63
				h26.89c11.95,0,22.54-2.67,31.76-8c9.22-5.33,17.27-11.8,24.16-19.38c6.88-7.58,12.6-15.44,17.15-23.59
				c4.54-8.14,8.24-15.17,11.11-21.06l10.52,3.37l-20.26,85.1H229.39z"/>
			<path fill="#F2F2F2" d="M423.54,1430.46l1.09-8.85c15.28,0,23.91-6.79,25.91-20.38l17.73-137.36c0-6.69-1.82-11.71-5.46-15.06
				c-3.64-3.35-8.91-5.02-15.82-5.02l1.09-8.85h70.93l-1.09,8.85c-15.1,0-23.73,8.67-25.92,25.99l-17.46,131.45
				c-0.18,0.59-0.27,1.23-0.27,1.92s0,1.33,0,1.92c0,11.03,7.09,16.54,21.28,16.54l-0.82,8.85H423.54z"/>
			<path fill="#F2F2F2" d="M629.49,1326.07c11.64,2.17,20.91,6.69,27.82,13.57c6.91,6.88,10.37,15.92,10.37,27.13
				c0,12.19-1.91,22.41-5.73,30.67c-3.82,8.26-8.87,14.89-15.14,19.91c-6.27,5.01-13.32,8.65-21.14,10.91
				c-7.82,2.26-15.73,3.39-23.73,3.39c-6.91,0-13.6-0.05-20.05-0.15c-6.46-0.1-13.05-0.25-19.78-0.44c-6.73-0.2-13.6-0.35-20.6-0.44
				c-7-0.1-14.5-0.15-22.5-0.15l1.09-8.85c15.28,0,23.73-5.5,25.37-16.51l18.55-144.21c0-11.21-7.19-16.81-21.55-16.81l1.09-9.14
				h70.93c7.82,0,15.14,0.69,21.96,2.06c6.82,1.38,12.68,3.64,17.59,6.78c4.91,3.15,8.77,7.13,11.59,11.94
				c2.82,4.82,4.23,10.76,4.23,17.84c0,7.67-1.05,14.3-3.14,19.91c-2.09,5.6-5,10.42-8.73,14.45c-3.73,4.03-8,7.37-12.82,10.03
				c-4.82,2.65-9.96,4.97-15.41,6.93L629.49,1326.07z M595.94,1420.44c6,0,11.73-0.93,17.19-2.8c5.46-1.87,10.27-4.91,14.46-9.14
				c4.18-4.23,7.54-9.73,10.09-16.51c2.54-6.78,3.82-14.99,3.82-24.62c0-6.88-1.09-12.48-3.27-16.81
				c-2.18-4.32-5.28-7.71-9.27-10.17c-4-2.46-8.91-4.13-14.73-5.01c-5.82-0.88-12.28-1.33-19.37-1.33h-8.73
				c-4.73,0-7.64,3.74-8.73,11.21l-8.18,63.7c0,0.4-0.05,0.64-0.14,0.74c-0.09,0.1-0.14,0.35-0.14,0.74
				c0,6.69,5.46,10.03,16.37,10.03H595.94z M607.67,1246.45c-11.28,0-17.46,3.64-18.55,10.91l-7.64,56.92
				c0,2.75,0.41,4.82,1.23,6.19c0.82,1.38,2.5,2.06,5.05,2.06c11.82,0,21.46-0.88,28.92-2.65c7.46-1.77,13.32-4.57,17.6-8.4
				c4.27-3.83,7.18-8.8,8.73-14.89c1.54-6.09,2.32-13.46,2.32-22.12c0-18.67-9.27-28.02-27.82-28.02H607.67z"/>
			<path fill="#F2F2F2" d="M685.41,1430.46l1.09-8.85c6.55,0,12.05-1.62,16.5-4.88c4.45-3.25,7.14-8.02,8.05-14.33l18-139.13
				c0-12.99-7.09-19.5-21.28-19.5l1.09-8.85H837.9l-5.46,55.15l-7.64,1.18c-0.18-10.81-1.36-19.17-3.55-25.07
				c-2.18-5.9-5.23-10.22-9.14-12.98c-3.91-2.75-8.55-4.37-13.91-4.87c-5.37-0.49-11.14-0.74-17.32-0.74h-6.55
				c-6.91,0-11.91,1.08-15,3.24c-3.09,2.17-4.91,5.51-5.46,10.03l-7.09,52.79c0,0.4-0.05,0.79-0.14,1.18
				c-0.09,0.4-0.14,0.79-0.14,1.18c0,4.33,1.64,6.49,4.91,6.49h8.46c4.18,0,8.05-0.24,11.59-0.74c3.55-0.49,6.82-1.77,9.82-3.83
				c3-2.06,5.63-5.21,7.91-9.44c2.27-4.23,4.13-9.98,5.59-17.25h9.27l-10.09,76.38h-9v-7.08c0-5.5-0.5-9.92-1.5-13.27
				c-1-3.34-2.59-5.9-4.77-7.67c-2.18-1.77-4.96-2.95-8.32-3.54c-3.37-0.59-7.41-0.88-12.14-0.88h-2.73
				c-7.82,0-12.1,3.24-12.82,9.73l-7.37,56.33c-0.18,0.79-0.27,1.77-0.27,2.95c0,9.24,6,13.86,18,13.86h7.37
				c10.37,0,18.82-0.93,25.37-2.8c6.55-1.87,12.05-4.81,16.5-8.85c4.45-4.03,8.23-9.09,11.32-15.19
				c3.09-6.09,6.45-13.27,10.09-21.53l6.27,2.36l-13.91,58.39H685.41z"/>
			<path fill="#F2F2F2" d="M999.66,1404.81c-0.18,2.36-0.96,5.21-2.32,8.55c-1.36,3.35-3.14,6.49-5.32,9.44
				c-2.18,2.95-4.77,5.51-7.77,7.67c-3,2.16-6.23,3.24-9.68,3.24c-9.82,0-16.87-2.02-21.14-6.05c-4.28-4.03-7.05-10.57-8.32-19.61
				c-1.09-7.47-2-15.48-2.73-24.03c-0.73-8.55-1.96-16.41-3.68-23.59c-1.73-7.17-4.23-13.17-7.5-17.99
				c-3.27-4.81-7.82-7.22-13.64-7.22h-7.64c-4.55,0-7.19,1.08-7.91,3.24l-8.73,63.99c-0.18,0.79-0.27,1.87-0.27,3.24
				c0,10.62,6.82,15.92,20.46,15.92l-0.82,8.85h-69.02l1.09-8.85c6,0,11.18-1.62,15.55-4.87c4.36-3.24,7-8.01,7.91-14.3L887,1259.42
				c0-10.22-7-15.33-21-15.33l1.09-9.14h30.55c5.46,0,10.09-0.05,13.91-0.15c3.82-0.1,7.5-0.24,11.05-0.44
				c3.55-0.19,7.27-0.34,11.18-0.44c3.91-0.1,8.77-0.15,14.59-0.15c6.55,0,12.55,1.03,18,3.1c5.46,2.06,10.18,4.97,14.19,8.7
				c4,3.74,7.09,8.16,9.27,13.27c2.18,5.12,3.27,10.62,3.27,16.51c0,7.87-1.32,14.85-3.96,20.94c-2.64,6.1-6.18,11.46-10.64,16.07
				c-4.46,4.62-9.73,8.4-15.82,11.35c-6.1,2.95-12.6,5.31-19.5,7.08v0.88c7.64,4.53,13.5,10.17,17.59,16.96
				c4.09,6.78,6.59,13.32,7.5,19.61c0.55,3.94,1.09,8.65,1.64,14.16c0.55,5.51,1.41,10.72,2.59,15.63c1.18,4.92,2.68,9.1,4.5,12.53
				c1.82,3.44,4.27,5.16,7.37,5.16c3.64,0,7-4.42,10.09-13.27L999.66,1404.81z M922.46,1323.71c4.91,0,9.96-0.49,15.14-1.47
				c5.18-0.98,9.96-3.14,14.32-6.49c4.36-3.34,7.91-8.06,10.64-14.16c2.73-6.09,4.09-14.35,4.09-24.77c0-5.9-0.95-10.81-2.86-14.75
				c-1.91-3.93-4.36-7.08-7.37-9.44c-3-2.36-6.41-3.98-10.23-4.87s-7.55-1.33-11.18-1.33h-11.73c-4,0-6.73,1.38-8.18,4.13
				c-1.46,2.76-2.55,6.88-3.27,12.39l-7.09,56.33c0,2.95,1.54,4.42,4.64,4.42H922.46z"/>
			<path fill="#F2F2F2" d="M1142.87,1433.71c-3.27-3.34-6.23-6.29-8.87-8.85c-2.64-2.55-4.87-4.81-6.68-6.78
				c-6.37,5.11-13.6,9.19-21.69,12.24c-8.09,3.05-16.23,4.57-24.41,4.57c-10,0-19.01-2.02-27.01-6.05
				c-8-4.03-14.82-9.68-20.46-16.96c-5.64-7.27-9.96-15.78-12.96-25.51c-3-9.73-4.5-20.39-4.5-32c0-14.94,2.46-29.83,7.37-44.68
				c4.91-14.84,11.68-28.11,20.32-39.81c8.64-11.69,18.69-21.18,30.14-28.46c11.46-7.27,23.73-10.91,36.83-10.91
				c6.91,0,13.41,1.47,19.5,4.42c6.09,2.95,11.96,6.39,17.6,10.32c6.55-7.08,13-11.21,19.37-12.39c1.64,7.67,2.46,16.81,2.46,27.43
				c0,5.71-0.27,11.9-0.82,18.58c-0.54,6.69-1.27,13.76-2.18,21.23h-8.46c-0.54-8.65-1.96-16.51-4.23-23.59
				c-2.28-7.08-5.37-13.17-9.27-18.28c-3.91-5.11-8.59-9.09-14.05-11.94c-5.46-2.85-11.73-4.28-18.82-4.28
				c-11.46,0-21.41,3.44-29.87,10.32c-8.46,6.88-15.46,15.78-21,26.69c-5.55,10.91-9.73,23.05-12.55,36.42
				c-2.82,13.37-4.23,26.64-4.23,39.81c0,9.63,0.86,18.58,2.59,26.84c1.73,8.26,4.41,15.39,8.05,21.38
				c3.64,6,8.18,10.72,13.64,14.16c5.46,3.44,12,5.16,19.64,5.16c5.63,0,11.14-0.88,16.5-2.65c5.36-1.77,10.14-4.62,14.32-8.55
				c4.18-3.93,7.59-9.04,10.23-15.33c2.63-6.29,3.96-13.86,3.96-22.71c0-15.33-7.19-23-21.55-23l1.09-8.85h70.38l-1.36,8.85
				c-8.18,0-14.1,1.92-17.73,5.75c-3.64,3.83-5.91,9.39-6.82,16.66l-7.91,60.75H1142.87z"/>
			<path fill="#F2F2F2" d="M1267.81,1430.46l0.55-8.85c2.36-0.39,4.86-0.78,7.5-1.18c2.63-0.39,5.09-0.88,7.37-1.47
				c2.27-0.59,4.13-1.33,5.59-2.21c1.45-0.88,2.18-1.92,2.18-3.1c0-0.98-0.05-2.06-0.14-3.24c-0.09-1.18-0.32-3.05-0.68-5.6
				l-6-36.27c-0.54-2.55-2.28-4.47-5.18-5.75c-2.91-1.28-5.91-1.92-9-1.92h-36.28c-6.37,0-10.55,2.54-12.55,7.63l-12.55,30.52
				c-0.37,1.17-0.78,2.59-1.23,4.26c-0.46,1.66-0.68,3.47-0.68,5.42c0,7.63,6.64,11.45,19.91,11.45l-1.09,10.32h-55.1l1.64-10.32
				c4.73-0.39,8.87-2.35,12.41-5.89c3.55-3.53,6.96-8.63,10.23-15.31l81.29-168.42l6.82,3.53l35.19,174.9
				c0.72,4.91,2.46,7.95,5.18,9.13c2.73,1.18,7,2.26,12.82,3.24l-0.82,9.14H1267.81z M1266.71,1272.1l-29.46,61.93
				c-1.46,2.56-2.5,4.72-3.14,6.49c-0.64,1.77-0.95,3.24-0.95,4.42c0,2.36,2.82,3.54,8.46,3.54h30.83c5.27,0,7.91-1.37,7.91-4.13
				c0-0.98-0.14-2.21-0.41-3.69c-0.27-1.47-0.59-3.29-0.96-5.46L1266.71,1272.1z"/>
		</g>
	</g>
	<g>
		<path fill="#4D4E4E" d="M1665.56,349.5c0,0.59-0.45,0.89-1.36,0.89c-0.6,0-1.15-0.04-1.63-0.1l-11.49-0.42l-11.49,0.42
			c-0.42,0.07-0.88,0.1-1.36,0.1c-1.21,0-1.81-0.36-1.81-1.09c0-0.8,0.81-1.2,2.44-1.2c5.31-0.07,7.96-0.68,7.96-1.83
			c0-0.07-0.06-0.34-0.19-0.81l-0.74-2.75l-0.46-1.45c-0.54-2.15-1.87-6.9-3.98-14.26h-19.34c-3.62,11.09-5.42,17.47-5.42,19.14
			c0,0.97,0.36,1.56,1.09,1.77c0.18,0.07,1.69,0.21,4.52,0.42c1.75,0.07,2.62,0.42,2.62,1.04c0,0.69-0.78,1.04-2.35,1.04
			c-2.78,0-6-0.14-9.68-0.42c-0.9-0.07-1.84-0.1-2.8-0.1c-0.97,0-1.9,0.12-2.8,0.35c-0.48,0.12-0.87,0.17-1.18,0.17
			c-0.84,0-1.27-0.31-1.27-0.94c0-0.63,0.95-0.97,2.85-1.04c1.9-0.07,3.27-0.4,4.12-0.99c0.84-0.59,1.51-1.72,1.99-3.39
			c7.76-25.6,14.08-46.16,18.95-61.67c0.14-0.82,0.42-1.74,0.84-2.76l0.39-1.9c0.18-0.76,0.42-1.14,0.72-1.14
			c0.18,0,0.33,0.21,0.45,0.62c0.78,2.7,2.56,8.36,5.34,16.95c2.17,6.73,7.57,23.61,16.2,50.65c0.48,1.57,1.1,2.57,1.86,3
			c0.75,0.43,2.31,0.68,4.66,0.75C1664.78,348.58,1665.56,348.91,1665.56,349.5z M1640.95,324.59c-0.98-3.11-2.6-8.27-4.87-15.47
			l-4.35-14.42c-2.52,7.66-5.55,17.62-9.09,29.88H1640.95z"/>
		<path fill="#4D4E4E" d="M1694.74,336.93c0,4.95-1.96,8.62-5.89,10.99c-1.9,1.17-4.62,1.89-8.17,2.18
			c-0.97,0.05-3.84,0.07-8.61,0.07h-7.73c-0.72,0-1.08-0.21-1.08-0.62c0-0.41,0.65-0.62,1.96-0.62c1.52,0,2.42-0.18,2.69-0.55
			c0.27-0.36,0.41-1.47,0.41-3.31V305.7c0-2.13-0.08-3.37-0.25-3.71c-0.3-0.58-1.37-0.9-3.23-0.95c-1.14,0-1.71-0.25-1.71-0.77
			c0-0.46,0.53-0.69,1.58-0.69c0.04,0,0.29,0,0.76,0c0.46,0.15,0.89,0.22,1.27,0.22h12.35c4.56,0.05,7.96,0.92,10.2,2.62
			c2.62,1.99,3.93,4.88,3.93,8.66c0,3.3-1.08,6.01-3.23,8.12c-2.15,2.11-5.17,3.43-9.06,3.97v0.44c3.84,0.29,6.84,1.21,8.99,2.77
			C1693.14,328.7,1694.74,332.22,1694.74,336.93z M1686.25,311.81c0-4.66-0.93-7.76-2.79-9.32c-0.97-0.82-2.81-1.24-5.51-1.24
			c-0.72,0-1.84,0.07-3.36,0.22v21.11h0.57l3.48-0.15c2.41-0.1,4.28-1.08,5.61-2.95C1685.59,317.63,1686.25,315.07,1686.25,311.81z
			 M1688.09,336.13c0-6.12-2.15-9.9-6.46-11.36c-1.27-0.44-3.61-0.66-7.03-0.66v21.69c0,1.41,0.13,2.21,0.38,2.4
			c0.42,0.34,1.6,0.51,3.55,0.51c2.91,0,5.24-1.07,6.97-3.2C1687.22,343.38,1688.09,340.25,1688.09,336.13z"/>
		<path fill="#4D4E4E" d="M1740.6,325.21c0,7.23-1.89,13.35-5.67,18.35c-3.78,5-8.41,7.5-13.9,7.5c-5.83,0-10.73-2.54-14.69-7.61
			c-3.97-5.07-5.95-11.32-5.95-18.75c0-7.57,1.91-13.77,5.73-18.6c3.82-4.83,8.71-7.24,14.66-7.24c5.62,0,10.32,2.52,14.12,7.57
			C1738.7,311.47,1740.6,317.73,1740.6,325.21z M1733.5,325.57c0-8.91-1.58-15.84-4.75-20.81c-1.99-3.11-4.75-4.67-8.3-4.67
			c-3.38,0-6,1.19-7.85,3.58c-3.42,4.38-5.13,11.51-5.13,21.39c0,7.84,1.19,13.92,3.58,18.25c2.38,4.33,5.73,6.5,10.04,6.5
			c4.01,0,7.03-2.04,9.06-6.13C1732.38,339.16,1733.5,333.12,1733.5,325.57z"/>
		<path fill="#4D4E4E" d="M1784.87,300.31c0,0.39-0.38,0.59-1.14,0.59c-0.13,0-0.55,0-1.27,0c-0.21,0-0.51,0-0.89,0
			c-1.06,0-1.69,0.31-1.9,0.95c-0.08,0.34-0.13,0.9-0.13,1.67v27.26c0,7.08-1.15,12.23-3.45,15.45c-2.3,3.22-6.01,4.83-11.12,4.83
			c-6.12,0-10.43-1.99-12.92-5.97c-1.65-2.67-2.47-7.06-2.47-13.18v-29.19c-0.13-0.87-0.64-1.41-1.54-1.6
			c-0.26-0.05-1.05-0.07-2.37-0.07c-0.73-0.1-1.09-0.34-1.09-0.73c0-0.44,0.29-0.66,0.89-0.66h1.14c0.21,0,0.7,0,1.46,0
			c0.67,0,1.29,0,1.84,0h9.06c0.21,0,0.46,0,0.76,0c0.72,0,1.08,0.27,1.08,0.8c0,0.34-0.13,0.53-0.38,0.58s-1.1,0.1-2.53,0.14
			c-0.59,0-0.99,0.05-1.2,0.15c-0.42,0.19-0.65,0.53-0.7,1.02c-0.04,0.19-0.06,1.57-0.06,4.14v25.99c0,6.39,0.89,10.74,2.66,13.07
			s4.41,3.48,7.92,3.48c6.42,0,10.05-4.18,10.89-12.54c0.13-1.26,0.19-6.57,0.19-15.95v-4.13v-5.8v-5c0-0.48,0-1.01,0-1.59
			c0-0.63,0-0.89,0-0.8c0-1.06-0.44-1.72-1.33-1.96c-0.3-0.1-1.16-0.15-2.6-0.15c-0.85,0-1.27-0.26-1.27-0.8
			c0-0.43,0.3-0.65,0.89-0.65c0.34,0,0.61,0,0.83,0c0.51,0,2.36,0,5.54,0c0.47,0,1,0,1.59,0c0.55,0,0.96,0,1.21,0h0.95
			C1784.38,299.66,1784.87,299.87,1784.87,300.31z"/>
		<path fill="#4D4E4E" d="M1821.6,312.61c0,0.63-0.25,0.95-0.76,0.95c-0.51,0-0.87-0.63-1.08-1.89c-0.08-0.87-0.17-1.75-0.25-2.62
			c-0.3-1.75-0.78-3.23-1.46-4.44c-0.89-1.6-2.34-2.62-4.37-3.06c-1.31-0.29-2.37-0.41-3.17-0.36c-1.99,0.06-3.19,0.11-3.61,0.15
			v43.97c0,1.75,0.4,2.84,1.2,3.28c0.42,0.24,1.6,0.39,3.55,0.44c0.51,0.05,0.76,0.25,0.76,0.62c0,0.41-0.34,0.62-1.01,0.62
			c-0.34,0-0.63-0.02-0.89-0.07c-2.53-0.1-4.33-0.15-5.38-0.15c-1.39,0-2.7,0.04-3.93,0.11c-1.22,0.07-2.79,0.11-4.69,0.11
			c-0.97,0-1.46-0.19-1.46-0.58c0-0.44,0.91-0.68,2.72-0.73c1.31,0,2.15-0.32,2.53-0.95c0.21-0.39,0.32-1.39,0.32-2.99v-43.67
			c-4.18,0.05-6.78,0.29-7.79,0.73c-2.66,1.12-4.22,4.1-4.69,8.95c-0.13,1.46-0.42,2.18-0.89,2.18c-0.51,0-0.76-0.51-0.76-1.53
			c0-0.53,0.02-1.07,0.06-1.6l0.13-1.67c0.13-2.23,0.32-5.17,0.57-8.81h2.85l12.92,0.22c1.52,0.05,3.88,0.05,7.09,0l10.51-0.22
			c0.08,2.72,0.36,6.75,0.82,12.08c0,0.15,0.02,0.33,0.06,0.55C1821.58,312.43,1821.6,312.57,1821.6,312.61z"/>
	</g>
	<g>
		<path fill="#4D4E4E" d="M1275.62,335.28c0,0.28-0.06,1.98-0.18,5.1c-0.12,3.12-0.18,6.1-0.18,8.94v3.43
			c-5.91-0.42-17.61-0.62-35.11-0.62c-2.11,0-4.19,0-6.24,0c-2.05,0-3.44,0-4.16,0h-0.9c-1.15,0-1.72-0.28-1.72-0.84
			c0-0.37,0.18-0.59,0.54-0.65c0.18,0,1.33-0.09,3.44-0.28c1.57-0.14,2.52-0.52,2.85-1.15c0.33-0.63,0.5-2.26,0.5-4.9v-58.62
			c0-2.02-0.26-3.22-0.77-3.6c-0.51-0.38-2.16-0.57-4.93-0.57c-0.96,0-1.45-0.29-1.45-0.88c0-0.59,0.66-0.88,1.99-0.88h15.47
			c0.54,0,3.95,0,10.22,0c6.27,0,10.5,0,12.67,0c1.81,0,3.47-0.14,4.98-0.42c0.12,2.98,0.39,7.11,0.81,12.38l0.36,4.47
			c0.06,0.35,0.09,0.8,0.09,1.35c0,0.69-0.27,1.04-0.81,1.04c-0.66,0-1.15-0.87-1.45-2.62c-1.15-6.28-3.02-10.26-5.61-11.93
			c-1.93-1.25-7-1.88-15.2-1.88h-7.42v30.58h2.17c6.75,0,10.87-0.59,12.35-1.77c1.48-1.18,2.49-4.61,3.03-10.3
			c0.12-1.46,0.45-2.18,1-2.18c0.66,0,1,0.62,1,1.87s-0.06,3.09-0.18,5.51c-0.12,2.43-0.18,4.26-0.18,5.51
			c0,7.42,0.1,12.52,0.29,15.29c0.05,0.69,0.07,1.28,0.07,1.77c0,0.9-0.33,1.35-0.99,1.35c-0.42,0-0.71-0.29-0.86-0.88
			c-0.15-0.59-0.41-2.51-0.76-5.77c-0.48-4.09-1.95-6.62-4.41-7.59c-1.08-0.42-3.9-0.62-8.47-0.62h-4.05v34.84
			c13.27,0,21.05-0.31,23.34-0.92c3.98-1.03,6.24-5.41,6.79-13.15c0.12-1.71,0.51-2.57,1.18-2.57
			C1275.32,333.1,1275.62,333.83,1275.62,335.28z"/>
		<path fill="#4D4E4E" d="M1318.22,351.37c0,0.44-0.59,0.66-1.77,0.66c-1.44,0-2.9,0-4.4,0c-1.5,0-2.97,0-4.4,0
			c-1.86,0-4.01,0-6.46,0c-1.23,0-2.13,0-2.72,0c-1.22,0-1.84-0.23-1.84-0.68c0-0.42,0.49-0.6,1.46-0.56h2.85
			c1.01,0.05,1.62,0.03,1.84-0.07c0.63-0.15,0.95-0.61,0.95-1.39c0-0.73-0.55-2.32-1.64-4.76l-6.75-15.75l-7.97,15.49
			c-1.38,2.78-2.08,4.43-2.08,4.92c0,0.9,0.7,1.42,2.09,1.57c-0.08,0,0.87,0,2.85,0c0.76,0,1.14,0.22,1.14,0.65
			c0,0.39-0.32,0.59-0.95,0.59h-7.16h-5.38c-0.67,0-1.01-0.22-1.01-0.66c0-0.44,0.55-0.73,1.65-0.87c0.76-0.1,1.52-0.19,2.28-0.29
			c0.63-0.19,1.16-0.51,1.58-0.95c0.8-0.83,3.4-5.58,7.79-14.28c1.61-3.2,3.05-6,4.33-8.38l-7.18-15.6
			c-1.49-3.19-2.52-5.26-3.09-6.2c-0.57-0.94-1.18-1.56-1.82-1.85c-0.68-0.14-2.02-0.22-4.01-0.22c-0.51,0-0.77-0.19-0.77-0.58
			c0-0.53,0.34-0.8,1.01-0.8c0.93,0,2.85,0.05,5.76,0.15c1.44,0.05,2.43,0.07,2.98,0.07c4.94,0,7.66-0.07,8.17-0.22h0.89
			c0.89,0,1.33,0.2,1.33,0.58c0,0.54-0.75,0.8-2.24,0.8c-2.78-0.05-4.16,0.34-4.16,1.17c0,0.88,2.39,6.58,7.16,17.1
			c1.72-2.92,3.6-6.39,5.66-10.41c2.05-4.02,3.08-6.27,3.08-6.76c0-0.73-1.16-1.1-3.48-1.1c-1.14,0-1.71-0.22-1.71-0.66
			c0-0.49,0.4-0.73,1.2-0.73c0.55,0,1.35,0.04,2.41,0.11c1.05,0.07,1.86,0.11,2.41,0.11c0.21,0,1.19-0.04,2.95-0.11
			c1.75-0.07,2.78-0.11,3.07-0.11h0.57c0.72,0,1.08,0.21,1.08,0.62c0,0.41-0.28,0.62-0.82,0.62c-0.08,0-0.76,0.02-2.03,0.07
			c-1.44,0.05-2.42,0.34-2.94,0.88c-0.53,0.54-1.43,2.1-2.69,4.68c-1.65,3.41-4.05,7.91-7.22,13.52l-0.7,1.24
			c0.29,0.63,3.15,7.01,8.55,19.15c1.86,4.17,3.19,6.66,3.99,7.46c0.8,0.8,2.38,1.18,4.75,1.13
			C1317.69,350.71,1318.22,350.93,1318.22,351.37z"/>
		<path fill="#4D4E4E" d="M1348.56,313.59c0,4.71-1.75,8.37-5.26,10.99c-2.2,1.65-4.98,2.48-8.36,2.48c-1.44,0-3.06-0.17-4.88-0.51
			v20.68c0,1.12,0.04,1.82,0.13,2.11c0.21,0.68,0.67,1.09,1.39,1.24c1.22,0.19,2.41,0.29,3.55,0.29c0.46,0,0.7,0.17,0.7,0.51
			c0,0.49-0.3,0.73-0.89,0.73c-0.25,0-0.46,0-0.63,0c-2.32,0-6.69,0-13.11,0h-0.82c-1.27,0-1.9-0.24-1.9-0.73
			c0-0.34,0.44-0.51,1.33-0.51c1.98,0,3.12-0.22,3.42-0.66c0.34-0.19,0.53-0.68,0.57-1.46v-43.02c0-1.51-0.36-2.43-1.08-2.77
			c-0.42-0.19-1.16-0.29-2.22-0.29h-0.63c-0.13,0-0.28,0-0.44,0c-0.63,0-0.95-0.19-0.95-0.59c0-0.43,0.59-0.65,1.77-0.65h13.93
			c4.81,0,8.34,0.97,10.58,2.91C1347.29,306.53,1348.56,309.61,1348.56,313.59z M1341.91,313.66c0-7.33-2.66-10.99-7.98-10.99
			c-1.77,0-2.94,0.34-3.48,1.03c-0.25,0.29-0.38,1.05-0.38,2.27v19.49c0.34,0.05,0.72,0.07,1.14,0.07c2.79,0,5.15-0.71,7.09-2.12
			C1340.7,321.64,1341.91,318.4,1341.91,313.66z"/>
		<path fill="#4D4E4E" d="M1384.02,346.27c0,1.26-0.06,3.35-0.19,6.26h-0.7c-0.25,0-0.86-0.05-1.83-0.15
			c-0.97-0.1-2.07-0.15-3.29-0.15l-26.3-0.22c-0.72,0-1.08-0.22-1.08-0.66c0-0.34,0.57-0.56,1.71-0.66c1.6-0.1,2.57-0.3,2.88-0.62
			c0.32-0.31,0.48-1.23,0.48-2.73v-40.91c0-1.79-0.16-2.84-0.48-3.13c-0.32-0.29-1.45-0.44-3.39-0.44c-0.8,0-1.2-0.27-1.2-0.8
			c0-0.44,0.25-0.66,0.76-0.66h0.57c1.39,0.15,4.16,0.22,8.3,0.22c0.38,0,1.12-0.04,2.22-0.11c1.1-0.07,2-0.11,2.72-0.11h0.7
			c0.76,0,1.14,0.24,1.14,0.73c0,0.29-0.12,0.47-0.35,0.55c-0.23,0.07-0.96,0.13-2.18,0.18c-1.23,0.05-1.95,0.28-2.19,0.69
			c-0.23,0.41-0.35,1.69-0.35,3.82v42.95c1.14,0.05,2.72,0.07,4.75,0.07c4.94,0,8.42-0.29,10.45-0.87c2.03-0.58,3.4-1.67,4.12-3.28
			c0.72-1.6,1.14-3.76,1.27-6.48c0.04-0.63,0.28-0.95,0.73-0.95c0.53,0,0.77,0.36,0.73,1.09v1.82c0,0.1,0,0.32,0,0.66
			c0,0.34,0,0.68,0,1.02V346.27z"/>
		<path fill="#4D4E4E" d="M1427.6,327.06c0,7.23-1.89,13.35-5.67,18.35c-3.78,5-8.41,7.5-13.9,7.5c-5.83,0-10.73-2.54-14.69-7.61
			c-3.97-5.07-5.95-11.32-5.95-18.75c0-7.57,1.91-13.77,5.73-18.6c3.82-4.83,8.71-7.24,14.66-7.24c5.62,0,10.32,2.52,14.12,7.57
			C1425.7,313.32,1427.6,319.58,1427.6,327.06z M1420.51,327.42c0-8.91-1.58-15.84-4.75-20.81c-1.99-3.11-4.75-4.67-8.3-4.67
			c-3.38,0-6,1.19-7.85,3.58c-3.42,4.38-5.13,11.51-5.13,21.39c0,7.84,1.19,13.92,3.58,18.25c2.38,4.33,5.73,6.5,10.04,6.5
			c4.01,0,7.03-2.04,9.06-6.13C1419.39,341,1420.51,334.97,1420.51,327.42z"/>
		<path fill="#4D4E4E" d="M1467.88,349.84c0,2.04-1.48,3.06-4.43,3.06c-3.29,0-5.87-1.58-7.73-4.73c-0.8-1.36-1.32-2.67-1.55-3.93
			c-0.23-1.26-0.58-4.46-1.04-9.61c-0.25-3.1-1.12-5.3-2.6-6.59c-1.48-1.29-3.89-1.98-7.22-2.07v22.93c0,0.97,0.67,1.58,2.03,1.82
			c0.38,0.05,1.35,0.1,2.91,0.15c0.55,0,0.82,0.19,0.82,0.58c0,0.44-0.36,0.66-1.08,0.66h-0.76c-0.38,0-2.22,0-5.51,0
			c-0.63,0-1.71,0-3.23,0c-1.48,0-2.45,0-2.91,0h-2.47c-0.93,0-1.39-0.22-1.39-0.66c0-0.34,0.61-0.53,1.84-0.58
			c1.98-0.05,3.06-0.34,3.23-0.87c0.17-0.24,0.25-1.19,0.25-2.84v-40.19c0-1.94-0.18-3.11-0.54-3.49c-0.36-0.39-1.45-0.61-3.26-0.66
			c-1.06,0-1.58-0.22-1.58-0.66c0-0.48,0.34-0.73,1.01-0.73c0.13,0,0.32,0.03,0.57,0.07l8.42,0.22c0.84,0,2.03-0.03,3.55-0.1
			c1.69-0.13,2.87-0.19,3.55-0.19c3.93,0,7.04,1.01,9.34,3.02c2.3,2.01,3.45,4.74,3.45,8.19c0,3.4-1.18,6.2-3.55,8.41
			c-2.37,2.21-5.57,3.51-9.63,3.9c-0.38,0.05-0.59,0.12-0.63,0.22c0,0.19,0.21,0.29,0.63,0.29c4.43,0.88,7.48,2.67,9.15,5.37
			c1.67,2.7,2.78,7.58,3.32,14.64c0.34,3.99,1.52,5.99,3.55,5.99c0.63,0,0.95-0.15,0.95-0.44c0-0.05-0.02-0.1-0.06-0.15
			c-0.21-0.53-0.32-0.97-0.32-1.31c0-1.02,0.46-1.53,1.39-1.53C1467.37,348.02,1467.88,348.63,1467.88,349.84z M1454.77,313.37
			c0-6.94-2.62-10.41-7.85-10.41c-1.39,0-2.34,0.22-2.85,0.66c-0.51,0.44-0.76,1.21-0.76,2.33v18.49c4.05,0.05,6.98-0.8,8.77-2.55
			C1453.87,320.14,1454.77,317.3,1454.77,313.37z"/>
		<path fill="#4D4E4E" d="M1503.09,340.3c0,0.19-0.04,1.38-0.13,3.57c-0.08,2.18-0.13,4.27-0.13,6.26v2.4
			c-4.14-0.29-12.33-0.44-24.57-0.44c-1.48,0-2.94,0-4.37,0s-2.41,0-2.91,0h-0.63c-0.8,0-1.2-0.19-1.2-0.59
			c0-0.26,0.13-0.41,0.38-0.46c0.13,0,0.93-0.06,2.41-0.2c1.1-0.1,1.76-0.36,2-0.8c0.23-0.44,0.35-1.58,0.35-3.43v-41.04
			c0-1.41-0.18-2.25-0.54-2.52c-0.36-0.27-1.51-0.4-3.45-0.4c-0.68,0-1.01-0.21-1.01-0.62c0-0.41,0.46-0.62,1.39-0.62h10.83
			c0.38,0,2.77,0,7.16,0c4.39,0,7.35,0,8.87,0c1.27,0,2.43-0.1,3.48-0.29c0.08,2.09,0.27,4.98,0.57,8.66l0.25,3.13
			c0.04,0.24,0.06,0.56,0.06,0.95c0,0.49-0.19,0.73-0.57,0.73c-0.46,0-0.8-0.61-1.01-1.83c-0.8-4.4-2.11-7.18-3.93-8.35
			c-1.35-0.88-4.9-1.32-10.64-1.32h-5.19v21.4h1.52c4.73,0,7.61-0.41,8.65-1.24c1.03-0.82,1.74-3.23,2.12-7.21
			c0.08-1.02,0.32-1.53,0.7-1.53c0.46,0,0.7,0.44,0.7,1.31s-0.04,2.16-0.13,3.86c-0.09,1.7-0.13,2.98-0.13,3.86
			c0,5.19,0.07,8.76,0.2,10.7c0.03,0.49,0.05,0.9,0.05,1.24c0,0.63-0.23,0.95-0.69,0.95c-0.29,0-0.49-0.21-0.6-0.62
			c-0.11-0.41-0.28-1.76-0.54-4.04c-0.34-2.86-1.37-4.63-3.09-5.31c-0.76-0.29-2.73-0.44-5.93-0.44h-2.84v24.39
			c9.29,0,14.74-0.21,16.34-0.65c2.79-0.72,4.37-3.79,4.75-9.2c0.08-1.2,0.36-1.8,0.82-1.8
			C1502.88,338.78,1503.09,339.29,1503.09,340.3z"/>
	</g>
	<g>
		<path fill="#4D4E4E" d="M1215.16,1588.05c0,0.32-0.41,0.46-1.22,0.43h-1.08h-0.88c-0.52,0-0.83,0.09-0.93,0.26
			c-0.1,0.17-0.15,0.71-0.15,1.6v27.61c0,1.69-0.02,2.68-0.05,2.97c-0.03,0.29-0.13,0.43-0.29,0.43c-0.2,0-0.42-0.18-0.68-0.53
			l-6.26-8.98c-3.63-5.22-8.05-11.73-13.25-19.54v26.79c0.03,0.42,0.28,0.68,0.74,0.79c0.46,0.11,1.57,0.18,3.32,0.22
			c0.43,0,0.64,0.13,0.64,0.38c0,0.32-0.43,0.48-1.27,0.48c-0.29,0-1.23-0.05-2.79-0.14c-0.52-0.03-1.03-0.05-1.52-0.05
			c0.03,0-0.25,0.03-0.86,0.1c-0.61,0.06-1.53,0.1-2.77,0.1h-0.49c-0.75,0-1.13-0.14-1.13-0.43c0-0.29,0.33-0.43,0.98-0.43
			c1.93-0.03,3.05-0.15,3.36-0.36c0.31-0.21,0.47-0.89,0.47-2.04v-23.7c0-2.66-0.56-4.33-1.67-5c-0.52-0.32-1.45-0.48-2.79-0.48
			c-0.85,0-1.27-0.17-1.27-0.5c0-0.3,0.25-0.46,0.73-0.46c0.65,0,1.49,0.03,2.5,0.1s1.55,0.1,1.62,0.1c0.1,0,0.56-0.02,1.37-0.05
			c1.08,0,2.12-0.05,3.14-0.14l16.91,24.72v-21.36c0-0.99-0.02-1.59-0.05-1.8c-0.03-0.21-0.16-0.37-0.39-0.48
			c-0.23-0.11-1.01-0.17-2.35-0.17c-1.18,0-1.76-0.14-1.76-0.43c0-0.32,0.39-0.48,1.18-0.48h1.72c0.42,0,0.88,0,1.37,0
			c0.52,0,0.83,0,0.93,0c0.03,0,0.33,0,0.88,0c0.52,0,1.01,0,1.47,0h1.52C1214.8,1587.57,1215.16,1587.73,1215.16,1588.05z"/>
		<path fill="#4D4E4E" d="M1235.08,1615.52c0,0.09-0.02,0.64-0.07,1.65c-0.05,1.01-0.07,1.97-0.07,2.89v1.11
			c-2.24-0.13-6.68-0.2-13.31-0.2c-0.8,0-1.59,0-2.37,0s-1.3,0-1.58,0h-0.34c-0.43,0-0.65-0.09-0.65-0.27
			c0-0.12,0.07-0.19,0.21-0.21c0.07,0,0.5-0.03,1.3-0.09c0.59-0.04,0.96-0.17,1.08-0.37c0.12-0.2,0.19-0.73,0.19-1.58v-18.94
			c0-0.65-0.1-1.04-0.29-1.16c-0.19-0.12-0.82-0.19-1.87-0.19c-0.37,0-0.55-0.09-0.55-0.29s0.25-0.29,0.75-0.29h5.87
			c0.21,0,1.5,0,3.88,0c2.38,0,3.98,0,4.8,0c0.69,0,1.32-0.04,1.89-0.13c0.05,0.96,0.15,2.3,0.31,4l0.14,1.45
			c0.02,0.11,0.03,0.26,0.03,0.44c0,0.22-0.1,0.34-0.31,0.34c-0.25,0-0.43-0.28-0.55-0.84c-0.43-2.03-1.14-3.31-2.13-3.86
			c-0.73-0.41-2.65-0.61-5.76-0.61h-2.81v9.88h0.82c2.56,0,4.12-0.19,4.68-0.57c0.56-0.38,0.94-1.49,1.15-3.33
			c0.05-0.47,0.17-0.71,0.38-0.71c0.25,0,0.38,0.2,0.38,0.6s-0.02,1-0.07,1.78s-0.07,1.38-0.07,1.78c0,2.4,0.04,4.04,0.11,4.94
			c0.02,0.22,0.03,0.42,0.03,0.57c0,0.29-0.12,0.44-0.38,0.44c-0.16,0-0.27-0.09-0.32-0.29c-0.06-0.19-0.15-0.81-0.29-1.87
			c-0.18-1.32-0.74-2.14-1.67-2.45c-0.41-0.13-1.48-0.2-3.21-0.2h-1.54v11.26c5.03,0,7.98-0.1,8.85-0.3
			c1.51-0.33,2.37-1.75,2.57-4.25c0.04-0.55,0.19-0.83,0.45-0.83C1234.97,1614.82,1235.08,1615.05,1235.08,1615.52z"/>
		<path fill="#4D4E4E" d="M1268.05,1597.87c0,0.19-0.39,0.3-1.17,0.32c-0.87,0.02-1.45,0.3-1.73,0.84
			c-0.29,0.54-0.73,1.68-1.32,3.43c-1.03,3.07-1.95,5.68-2.75,7.83c-1.37,3.67-2.62,7.23-3.74,10.65c-0.09,0.29-0.21,0.44-0.35,0.44
			c-0.12,0-0.23-0.11-0.33-0.33s-0.42-1-0.93-2.34c-0.64-1.75-1.33-3.52-2.09-5.29c-0.59-1.39-1.17-2.83-1.74-4.32
			c-1.6,3.79-3.19,7.75-4.77,11.87c-0.09,0.28-0.2,0.41-0.33,0.41c-0.11,0-0.24-0.19-0.4-0.57c-0.71-1.66-3.34-8.52-7.89-20.6
			c-0.32-0.85-0.56-1.38-0.72-1.6s-0.56-0.33-1.2-0.35c-1.1-0.04-1.65-0.2-1.65-0.47c0-0.2,0.18-0.3,0.55-0.3
			c0.16,0,0.3,0.01,0.41,0.03c1.21,0.07,2.52,0.1,3.91,0.1c0.28,0,0.75-0.02,1.42-0.07s1.55-0.07,2.62-0.07h0.38
			c0.39,0,0.58,0.1,0.58,0.31c0,0.25-0.35,0.39-1.06,0.41c-1.41,0.05-2.11,0.23-2.11,0.55c0,0.63,2.1,6.46,6.3,17.51
			c1.53-3.78,2.67-6.57,3.42-8.36l-3.39-8.61c-0.18-0.47-0.4-0.77-0.64-0.9s-0.68-0.21-1.33-0.24c-0.64-0.02-0.96-0.12-0.96-0.3
			c0-0.25,0.24-0.37,0.72-0.37c0.37,0,0.81,0.02,1.34,0.07s1.44,0.07,2.75,0.07h2.61h3.77c0.85,0,1.86-0.04,3.05-0.11
			c0.14-0.02,0.3-0.03,0.48-0.03c0.55,0,0.82,0.12,0.82,0.35c0,0.21-0.19,0.32-0.58,0.32h-0.58c-1.03,0-1.81,0.13-2.33,0.4
			c-0.23,0.11-0.65,0.92-1.27,2.42c-0.28,0.63-0.74,1.69-1.39,3.19c-0.13,0.34-0.34,0.84-0.6,1.52c0.16,0.45,0.66,1.69,1.5,3.73
			c1.09,2.59,1.98,4.82,2.68,6.67c1.29-3.63,2.8-7.92,4.55-12.86c0.92-2.63,1.39-4.1,1.39-4.39c0-0.43-0.4-0.64-1.2-0.64
			c-1.12,0-1.68-0.12-1.68-0.37c0-0.22,0.23-0.34,0.69-0.34c0.39,0,0.7,0.02,0.93,0.04c0.5,0.06,0.96,0.09,1.37,0.09h2.75
			c0.69,0,1.06,0.03,1.13,0.08S1268.05,1597.8,1268.05,1597.87z M1253.54,1598.25h-0.41h-0.58c-0.82,0.04-1.24,0.19-1.24,0.44
			c0,0.04,0.67,1.99,2.02,5.84c0.52-1.12,1.14-2.6,1.84-4.44c0.09-0.25,0.24-0.57,0.43-0.97l0.07-0.27
			C1255.67,1598.45,1254.96,1598.25,1253.54,1598.25z"/>
		<path fill="#4D4E4E" d="M1301.8,1620.71c0,0.19-0.24,0.29-0.72,0.29h-0.38c-0.32,0-0.9,0-1.74,0c-0.84,0-1.49,0-1.95,0
			c-0.68,0-1.48,0-2.39,0c-0.94,0-1.55,0-1.85,0h-0.24c-0.48,0-0.72-0.1-0.72-0.3c0-0.22,0.33-0.34,1-0.34
			c1.17,0,1.88-0.12,2.13-0.37c0.11-0.11,0.17-0.86,0.17-2.25v-17.43c0,0.02-0.14,0.42-0.41,1.18c-0.92,2.71-2.25,6.78-4,12.22
			l-1.59,5.35c-0.32,1.05-0.55,1.58-0.69,1.58c-0.16,0-0.33-0.27-0.51-0.81c-0.66-2.04-2.53-7.13-5.6-15.26l-1.36-3.59
			c0,0.43,0,1.01,0,1.75v10.92c0,4.1,0.03,6.17,0.1,6.22c0.16,0.29,0.71,0.44,1.65,0.44c0.75,0,1.13,0.11,1.13,0.33
			c0,0.25-0.24,0.37-0.72,0.37c-0.3,0-0.57-0.02-0.82-0.07c-0.32-0.04-0.61-0.07-0.86-0.07l-3.95,0.13c-0.41,0-0.62-0.1-0.62-0.3
			c0-0.22,0.65-0.35,1.96-0.37c0.55,0,0.87-0.09,0.96-0.27c0.09-0.18,0.14-0.76,0.14-1.75v-16.12c0-1.86-0.02-2.87-0.07-3.03
			c-0.09-0.31-0.29-0.53-0.58-0.64c-0.3-0.11-0.94-0.2-1.92-0.27c-0.37-0.02-0.55-0.12-0.55-0.3c0-0.25,0.33-0.37,1.01-0.37
			c0.09,0,0.29,0,0.59,0h1.8c1.37,0,2.33-0.01,2.88-0.03c0.11,0.29,0.78,2.05,1.99,5.29c0.52,1.35,1.99,5.28,4.39,11.79
			c0.44-1.46,0.89-2.9,1.36-4.32l3.67-11.1c0.23-0.64,0.43-1.17,0.61-1.6l5.06-0.03c0.74,0,1.17,0.03,1.28,0.1s0.17,0.17,0.17,0.3
			c0,0.22-0.19,0.34-0.58,0.34c-0.64,0-1.08,0.02-1.3,0.07c-0.55,0.09-0.93,0.27-1.13,0.54c-0.12,0.16-0.17,1.47-0.17,3.94v15.67
			c0,0.9,0.09,1.43,0.27,1.58c0.3,0.2,1.04,0.3,2.23,0.3h0.21C1301.57,1620.43,1301.8,1620.52,1301.8,1620.71z"/>
		<path fill="#4D4E4E" d="M1321.35,1615.52c0,0.09-0.02,0.64-0.07,1.65c-0.05,1.01-0.07,1.97-0.07,2.89v1.11
			c-2.24-0.13-6.68-0.2-13.31-0.2c-0.8,0-1.59,0-2.37,0s-1.3,0-1.58,0h-0.34c-0.43,0-0.65-0.09-0.65-0.27
			c0-0.12,0.07-0.19,0.21-0.21c0.07,0,0.5-0.03,1.3-0.09c0.59-0.04,0.96-0.17,1.08-0.37c0.12-0.2,0.19-0.73,0.19-1.58v-18.94
			c0-0.65-0.1-1.04-0.29-1.16c-0.19-0.12-0.82-0.19-1.87-0.19c-0.37,0-0.55-0.09-0.55-0.29s0.25-0.29,0.75-0.29h5.87
			c0.21,0,1.5,0,3.88,0c2.38,0,3.98,0,4.8,0c0.69,0,1.32-0.04,1.89-0.13c0.05,0.96,0.15,2.3,0.31,4l0.14,1.45
			c0.02,0.11,0.03,0.26,0.03,0.44c0,0.22-0.1,0.34-0.31,0.34c-0.25,0-0.43-0.28-0.55-0.84c-0.43-2.03-1.14-3.31-2.13-3.86
			c-0.73-0.41-2.65-0.61-5.76-0.61h-2.81v9.88h0.82c2.56,0,4.12-0.19,4.68-0.57c0.56-0.38,0.94-1.49,1.15-3.33
			c0.05-0.47,0.17-0.71,0.38-0.71c0.25,0,0.38,0.2,0.38,0.6s-0.02,1-0.07,1.78s-0.07,1.38-0.07,1.78c0,2.4,0.04,4.04,0.11,4.94
			c0.02,0.22,0.03,0.42,0.03,0.57c0,0.29-0.12,0.44-0.38,0.44c-0.16,0-0.27-0.09-0.32-0.29c-0.06-0.19-0.15-0.81-0.29-1.87
			c-0.18-1.32-0.74-2.14-1.67-2.45c-0.41-0.13-1.48-0.2-3.21-0.2h-1.54v11.26c5.03,0,7.98-0.1,8.85-0.3
			c1.51-0.33,2.37-1.75,2.57-4.25c0.04-0.55,0.19-0.83,0.45-0.83C1321.24,1614.82,1321.35,1615.05,1321.35,1615.52z"/>
		<path fill="#4D4E4E" d="M1345.2,1609.27c0,3.95-1.41,7.03-4.22,9.23c-2.06,1.62-4.81,2.43-8.27,2.43c-0.09,0-0.5,0-1.22,0
			c-0.72,0-1.77,0-3.14,0h-1.71h-2.71c-0.16,0-0.33,0-0.51,0c-0.43,0-0.65-0.11-0.65-0.34c0-0.2,0.37-0.3,1.1-0.3
			c0.94,0,1.52-0.17,1.75-0.5c0.09-0.16,0.14-0.58,0.14-1.28v-18.11c0-1.1-0.09-1.74-0.26-1.92c-0.17-0.18-0.76-0.27-1.77-0.27
			c-0.53,0-0.79-0.12-0.79-0.37c0-0.18,0.19-0.27,0.58-0.27c-0.02,0,0.23,0,0.75,0c0.53,0,1.04,0,1.54,0h3.67
			c4.12,0,7.03,0.28,8.75,0.84c2.08,0.67,3.76,2,5.04,3.99C1344.56,1604.4,1345.2,1606.69,1345.2,1609.27z M1341.35,1609.14
			c0-3.73-0.74-6.46-2.23-8.21c-1.49-1.74-3.81-2.61-6.96-2.61c-1.53,0-2.46,0.16-2.78,0.47c-0.14,0.16-0.21,0.7-0.21,1.62v17.93
			c0,0.63,0.02,1.01,0.05,1.15c0.03,0.14,0.13,0.25,0.29,0.34c0.55,0.27,1.7,0.4,3.46,0.4c2.47,0,4.46-0.85,5.97-2.56
			C1340.55,1615.87,1341.35,1613.02,1341.35,1609.14z"/>
		<path fill="#4D4E4E" d="M1356.52,1620.65c0,0.19-0.14,0.29-0.41,0.29h-0.34c-0.14-0.07-1.7-0.1-4.68-0.1
			c-0.57,0-1.15,0.02-1.72,0.07c-0.3,0.02-0.76,0.03-1.38,0.03c-0.3,0-0.45-0.1-0.45-0.3c0-0.18,0.3-0.28,0.89-0.3
			c0.91-0.02,1.45-0.13,1.61-0.32c0.16-0.19,0.24-0.84,0.24-1.94v-17.73c0-1.1-0.06-1.72-0.17-1.85c-0.14-0.22-0.78-0.36-1.91-0.4
			c-0.44-0.02-0.66-0.1-0.66-0.24c0-0.18,0.14-0.27,0.42-0.27h4.69c0.35,0,1.02,0.01,2.01,0.03l1.32-0.03
			c0.37,0,0.56,0.09,0.56,0.29c0,0.17-0.52,0.28-1.55,0.32c-0.59,0.02-0.94,0.12-1.07,0.3c-0.13,0.18-0.19,0.65-0.19,1.41v17.94
			c0,1.28,0.06,1.97,0.17,2.08c0.25,0.25,1.01,0.39,2.26,0.44C1356.39,1620.36,1356.52,1620.46,1356.52,1620.65z"/>
		<path fill="#4D4E4E" d="M1379.57,1620.71c0,0.19-0.17,0.29-0.51,0.29c-0.23,0-0.43-0.01-0.62-0.03l-4.36-0.13l-4.36,0.13
			c-0.16,0.02-0.33,0.03-0.51,0.03c-0.46,0-0.69-0.12-0.69-0.35c0-0.26,0.31-0.39,0.93-0.39c2.01-0.02,3.02-0.22,3.02-0.59
			c0-0.02-0.02-0.11-0.07-0.26l-0.28-0.89l-0.18-0.47c-0.21-0.69-0.71-2.23-1.51-4.61h-7.33c-1.37,3.58-2.06,5.65-2.06,6.18
			c0,0.31,0.14,0.5,0.41,0.57c0.07,0.02,0.64,0.07,1.71,0.13c0.66,0.02,1,0.13,1,0.34c0,0.22-0.3,0.34-0.89,0.34
			c-1.05,0-2.28-0.04-3.67-0.13c-0.34-0.02-0.7-0.03-1.06-0.03c-0.37,0-0.72,0.04-1.06,0.11c-0.18,0.04-0.33,0.06-0.45,0.06
			c-0.32,0-0.48-0.1-0.48-0.3c0-0.2,0.36-0.31,1.08-0.34c0.72-0.02,1.24-0.13,1.56-0.32s0.57-0.56,0.75-1.1
			c2.94-8.27,5.34-14.91,7.18-19.92c0.05-0.26,0.16-0.56,0.32-0.89l0.15-0.61c0.07-0.25,0.16-0.37,0.27-0.37
			c0.07,0,0.13,0.07,0.17,0.2c0.3,0.87,0.97,2.7,2.02,5.48c0.82,2.17,2.87,7.63,6.14,16.36c0.18,0.51,0.42,0.83,0.7,0.97
			c0.29,0.14,0.87,0.22,1.77,0.24C1379.27,1620.42,1379.57,1620.52,1379.57,1620.71z M1370.24,1612.67c-0.37-1.01-0.99-2.67-1.85-5
			l-1.65-4.66c-0.96,2.47-2.1,5.69-3.45,9.65H1370.24z"/>
		<path fill="#4D4E4E" d="M1409.34,1620.71c0,0.19-0.17,0.29-0.51,0.29c-0.23,0-0.43-0.01-0.62-0.03l-4.36-0.13l-4.36,0.13
			c-0.16,0.02-0.33,0.03-0.51,0.03c-0.46,0-0.69-0.12-0.69-0.35c0-0.26,0.31-0.39,0.93-0.39c2.01-0.02,3.02-0.22,3.02-0.59
			c0-0.02-0.02-0.11-0.07-0.26l-0.28-0.89l-0.18-0.47c-0.21-0.69-0.71-2.23-1.51-4.61h-7.33c-1.37,3.58-2.06,5.65-2.06,6.18
			c0,0.31,0.14,0.5,0.41,0.57c0.07,0.02,0.64,0.07,1.71,0.13c0.66,0.02,1,0.13,1,0.34c0,0.22-0.3,0.34-0.89,0.34
			c-1.05,0-2.28-0.04-3.67-0.13c-0.34-0.02-0.7-0.03-1.06-0.03c-0.37,0-0.72,0.04-1.06,0.11c-0.18,0.04-0.33,0.06-0.45,0.06
			c-0.32,0-0.48-0.1-0.48-0.3c0-0.2,0.36-0.31,1.08-0.34c0.72-0.02,1.24-0.13,1.56-0.32s0.57-0.56,0.75-1.1
			c2.94-8.27,5.34-14.91,7.18-19.92c0.05-0.26,0.16-0.56,0.32-0.89l0.15-0.61c0.07-0.25,0.16-0.37,0.27-0.37
			c0.07,0,0.13,0.07,0.17,0.2c0.3,0.87,0.97,2.7,2.02,5.48c0.82,2.17,2.87,7.63,6.14,16.36c0.18,0.51,0.42,0.83,0.7,0.97
			c0.29,0.14,0.87,0.22,1.77,0.24C1409.04,1620.42,1409.34,1620.52,1409.34,1620.71z M1400.01,1612.67c-0.37-1.01-0.99-2.67-1.85-5
			l-1.65-4.66c-0.96,2.47-2.1,5.69-3.45,9.65H1400.01z"/>
		<path fill="#4D4E4E" d="M1428.17,1619.92c0,0.94-0.8,1.41-2.4,1.41c-1.78,0-3.18-0.73-4.19-2.18c-0.44-0.63-0.72-1.23-0.84-1.81
			c-0.13-0.58-0.31-2.06-0.57-4.44c-0.14-1.43-0.61-2.45-1.41-3.04c-0.8-0.59-2.1-0.91-3.91-0.96v10.58c0,0.45,0.37,0.73,1.1,0.84
			c0.21,0.02,0.73,0.04,1.58,0.07c0.3,0,0.45,0.09,0.45,0.27c0,0.2-0.19,0.3-0.58,0.3h-0.41c-0.21,0-1.2,0-2.98,0
			c-0.34,0-0.93,0-1.75,0c-0.8,0-1.33,0-1.58,0h-1.34c-0.5,0-0.75-0.1-0.75-0.3c0-0.16,0.33-0.25,1-0.27
			c1.07-0.02,1.66-0.16,1.75-0.4c0.09-0.11,0.14-0.55,0.14-1.31v-18.55c0-0.9-0.1-1.43-0.29-1.61c-0.19-0.18-0.78-0.28-1.77-0.3
			c-0.57,0-0.86-0.1-0.86-0.3c0-0.22,0.18-0.34,0.55-0.34c0.07,0,0.17,0.01,0.31,0.03l4.56,0.1c0.46,0,1.1-0.01,1.92-0.04
			c0.91-0.06,1.55-0.09,1.92-0.09c2.13,0,3.81,0.46,5.06,1.39c1.25,0.93,1.87,2.19,1.87,3.78c0,1.57-0.64,2.86-1.92,3.88
			c-1.28,1.02-3.02,1.62-5.21,1.8c-0.21,0.02-0.32,0.06-0.34,0.1c0,0.09,0.11,0.13,0.34,0.13c2.4,0.4,4.05,1.23,4.96,2.48
			c0.9,1.25,1.5,3.5,1.8,6.76c0.18,1.84,0.82,2.76,1.92,2.76c0.34,0,0.51-0.07,0.51-0.2c0-0.02-0.01-0.04-0.04-0.07
			c-0.11-0.25-0.17-0.45-0.17-0.6c0-0.47,0.25-0.71,0.75-0.71C1427.9,1619.08,1428.17,1619.36,1428.17,1619.92z M1421.07,1603.09
			c0-3.2-1.42-4.8-4.25-4.8c-0.75,0-1.27,0.1-1.54,0.3c-0.27,0.2-0.41,0.56-0.41,1.08v8.53c2.2,0.02,3.78-0.37,4.75-1.18
			C1420.59,1606.21,1421.07,1604.9,1421.07,1603.09z"/>
		<path fill="#4D4E4E" d="M1447.56,1603.59c0,0.29-0.14,0.44-0.41,0.44s-0.47-0.29-0.58-0.87c-0.05-0.4-0.09-0.81-0.14-1.21
			c-0.16-0.81-0.42-1.49-0.79-2.05c-0.48-0.74-1.27-1.21-2.37-1.41c-0.71-0.13-1.28-0.19-1.71-0.17c-1.08,0.03-1.73,0.05-1.96,0.07
			v20.29c0,0.81,0.22,1.31,0.65,1.51c0.23,0.11,0.87,0.18,1.92,0.2c0.27,0.02,0.41,0.12,0.41,0.29c0,0.19-0.18,0.29-0.55,0.29
			c-0.18,0-0.34-0.01-0.48-0.03c-1.37-0.04-2.34-0.07-2.92-0.07c-0.75,0-1.46,0.02-2.13,0.05c-0.66,0.03-1.51,0.05-2.54,0.05
			c-0.53,0-0.79-0.09-0.79-0.27c0-0.2,0.49-0.31,1.48-0.34c0.71,0,1.17-0.15,1.37-0.44c0.11-0.18,0.17-0.64,0.17-1.38v-20.16
			c-2.26,0.02-3.67,0.13-4.22,0.34c-1.44,0.52-2.29,1.89-2.54,4.13c-0.07,0.67-0.23,1.01-0.48,1.01c-0.27,0-0.41-0.24-0.41-0.71
			c0-0.25,0.01-0.49,0.03-0.74l0.07-0.77c0.07-1.03,0.17-2.39,0.31-4.07h1.54l7,0.1c0.82,0.02,2.1,0.02,3.84,0l5.7-0.1
			c0.04,1.25,0.19,3.11,0.45,5.58c0,0.07,0.01,0.15,0.03,0.25C1447.55,1603.51,1447.56,1603.57,1447.56,1603.59z"/>
		<path fill="#4D4E4E" d="M1479.39,1620.71c0,0.19-0.17,0.29-0.51,0.29c-0.23,0-0.43-0.01-0.62-0.03l-4.36-0.13l-4.36,0.13
			c-0.16,0.02-0.33,0.03-0.51,0.03c-0.46,0-0.69-0.12-0.69-0.35c0-0.26,0.31-0.39,0.93-0.39c2.01-0.02,3.02-0.22,3.02-0.59
			c0-0.02-0.02-0.11-0.07-0.26l-0.28-0.89l-0.18-0.47c-0.21-0.69-0.71-2.23-1.51-4.61h-7.33c-1.37,3.58-2.06,5.65-2.06,6.18
			c0,0.31,0.14,0.5,0.41,0.57c0.07,0.02,0.64,0.07,1.71,0.13c0.66,0.02,1,0.13,1,0.34c0,0.22-0.3,0.34-0.89,0.34
			c-1.05,0-2.28-0.04-3.67-0.13c-0.34-0.02-0.7-0.03-1.06-0.03c-0.37,0-0.72,0.04-1.06,0.11c-0.18,0.04-0.33,0.06-0.45,0.06
			c-0.32,0-0.48-0.1-0.48-0.3c0-0.2,0.36-0.31,1.08-0.34c0.72-0.02,1.24-0.13,1.56-0.32s0.57-0.56,0.75-1.1
			c2.94-8.27,5.34-14.91,7.18-19.92c0.05-0.26,0.16-0.56,0.32-0.89l0.15-0.61c0.07-0.25,0.16-0.37,0.27-0.37
			c0.07,0,0.13,0.07,0.17,0.2c0.3,0.87,0.97,2.7,2.02,5.48c0.82,2.17,2.87,7.63,6.14,16.36c0.18,0.51,0.42,0.83,0.7,0.97
			c0.29,0.14,0.87,0.22,1.77,0.24C1479.09,1620.42,1479.39,1620.52,1479.39,1620.71z M1470.05,1612.67c-0.37-1.01-0.99-2.67-1.85-5
			l-1.65-4.66c-0.96,2.47-2.1,5.69-3.45,9.65H1470.05z"/>
		<path fill="#4D4E4E" d="M1499.9,1597.92c0,0.22-0.29,0.32-0.86,0.3h-0.75h-0.62c-0.37,0-0.58,0.06-0.65,0.19
			c-0.07,0.12-0.1,0.5-0.1,1.12v19.33c0,1.18-0.01,1.88-0.03,2.08c-0.02,0.2-0.09,0.3-0.21,0.3c-0.14,0-0.3-0.12-0.48-0.37
			l-4.38-6.29c-2.54-3.65-5.63-8.21-9.27-13.68v18.76c0.02,0.29,0.2,0.48,0.52,0.55c0.32,0.08,1.1,0.13,2.32,0.15
			c0.3,0,0.45,0.09,0.45,0.27c0,0.22-0.3,0.34-0.89,0.34c-0.21,0-0.86-0.03-1.96-0.1c-0.37-0.02-0.72-0.03-1.06-0.03
			c0.02,0-0.18,0.02-0.6,0.07c-0.42,0.04-1.07,0.07-1.94,0.07h-0.34c-0.53,0-0.79-0.1-0.79-0.3c0-0.2,0.23-0.3,0.69-0.3
			c1.35-0.02,2.13-0.11,2.35-0.25c0.22-0.15,0.33-0.62,0.33-1.43v-16.59c0-1.86-0.39-3.03-1.17-3.5c-0.37-0.22-1.02-0.34-1.96-0.34
			c-0.59,0-0.89-0.12-0.89-0.35c0-0.21,0.17-0.32,0.51-0.32c0.46,0,1.04,0.02,1.75,0.07c0.71,0.05,1.09,0.07,1.13,0.07
			c0.07,0,0.39-0.01,0.96-0.03c0.75,0,1.49-0.03,2.2-0.1l11.84,17.3v-14.95c0-0.69-0.01-1.11-0.03-1.26s-0.11-0.26-0.27-0.34
			s-0.71-0.12-1.65-0.12c-0.82,0-1.24-0.1-1.24-0.3c0-0.22,0.27-0.34,0.82-0.34h1.2c0.3,0,0.62,0,0.96,0c0.37,0,0.58,0,0.65,0
			c0.02,0,0.23,0,0.62,0c0.37,0,0.71,0,1.03,0h1.06C1499.65,1597.58,1499.9,1597.69,1499.9,1597.92z"/>
		<path fill="#4D4E4E" d="M1523.5,1609.27c0,3.95-1.41,7.03-4.22,9.23c-2.06,1.62-4.81,2.43-8.27,2.43c-0.09,0-0.5,0-1.22,0
			c-0.72,0-1.77,0-3.14,0h-1.71h-2.71c-0.16,0-0.33,0-0.51,0c-0.43,0-0.65-0.11-0.65-0.34c0-0.2,0.37-0.3,1.1-0.3
			c0.94,0,1.52-0.17,1.75-0.5c0.09-0.16,0.14-0.58,0.14-1.28v-18.11c0-1.1-0.09-1.74-0.26-1.92c-0.17-0.18-0.76-0.27-1.77-0.27
			c-0.53,0-0.79-0.12-0.79-0.37c0-0.18,0.19-0.27,0.58-0.27c-0.02,0,0.23,0,0.75,0c0.53,0,1.04,0,1.54,0h3.67
			c4.12,0,7.03,0.28,8.75,0.84c2.08,0.67,3.76,2,5.04,3.99C1522.86,1604.4,1523.5,1606.69,1523.5,1609.27z M1519.66,1609.14
			c0-3.73-0.74-6.46-2.23-8.21c-1.49-1.74-3.81-2.61-6.96-2.61c-1.53,0-2.46,0.16-2.78,0.47c-0.14,0.16-0.21,0.7-0.21,1.62v17.93
			c0,0.63,0.02,1.01,0.05,1.15c0.03,0.14,0.13,0.25,0.29,0.34c0.55,0.27,1.7,0.4,3.46,0.4c2.47,0,4.46-0.85,5.97-2.56
			C1518.86,1615.87,1519.66,1613.02,1519.66,1609.14z"/>
		<path fill="#4D4E4E" d="M1557.18,1609.27c0,3.95-1.41,7.03-4.22,9.23c-2.06,1.62-4.81,2.43-8.27,2.43c-0.09,0-0.5,0-1.22,0
			c-0.72,0-1.77,0-3.14,0h-1.71h-2.71c-0.16,0-0.33,0-0.51,0c-0.43,0-0.65-0.11-0.65-0.34c0-0.2,0.37-0.3,1.1-0.3
			c0.94,0,1.52-0.17,1.75-0.5c0.09-0.16,0.14-0.58,0.14-1.28v-18.11c0-1.1-0.09-1.74-0.26-1.92c-0.17-0.18-0.76-0.27-1.77-0.27
			c-0.53,0-0.79-0.12-0.79-0.37c0-0.18,0.19-0.27,0.58-0.27c-0.02,0,0.23,0,0.75,0c0.53,0,1.04,0,1.54,0h3.67
			c4.12,0,7.03,0.28,8.75,0.84c2.08,0.67,3.76,2,5.04,3.99C1556.54,1604.4,1557.18,1606.69,1557.18,1609.27z M1553.34,1609.14
			c0-3.73-0.74-6.46-2.23-8.21c-1.49-1.74-3.81-2.61-6.96-2.61c-1.53,0-2.46,0.16-2.78,0.47c-0.14,0.16-0.21,0.7-0.21,1.62v17.93
			c0,0.63,0.02,1.01,0.05,1.15c0.03,0.14,0.13,0.25,0.29,0.34c0.55,0.27,1.7,0.4,3.46,0.4c2.47,0,4.46-0.85,5.97-2.56
			C1552.54,1615.87,1553.34,1613.02,1553.34,1609.14z"/>
		<path fill="#4D4E4E" d="M1577.87,1615.52c0,0.09-0.02,0.64-0.07,1.65c-0.05,1.01-0.07,1.97-0.07,2.89v1.11
			c-2.24-0.13-6.68-0.2-13.31-0.2c-0.8,0-1.59,0-2.37,0s-1.3,0-1.58,0h-0.34c-0.43,0-0.65-0.09-0.65-0.27
			c0-0.12,0.07-0.19,0.21-0.21c0.07,0,0.5-0.03,1.3-0.09c0.59-0.04,0.96-0.17,1.08-0.37c0.12-0.2,0.19-0.73,0.19-1.58v-18.94
			c0-0.65-0.1-1.04-0.29-1.16c-0.19-0.12-0.82-0.19-1.87-0.19c-0.37,0-0.55-0.09-0.55-0.29s0.25-0.29,0.75-0.29h5.87
			c0.21,0,1.5,0,3.88,0c2.38,0,3.98,0,4.8,0c0.69,0,1.32-0.04,1.89-0.13c0.05,0.96,0.15,2.3,0.31,4l0.14,1.45
			c0.02,0.11,0.03,0.26,0.03,0.44c0,0.22-0.1,0.34-0.31,0.34c-0.25,0-0.43-0.28-0.55-0.84c-0.43-2.03-1.14-3.31-2.13-3.86
			c-0.73-0.41-2.65-0.61-5.76-0.61h-2.81v9.88h0.82c2.56,0,4.12-0.19,4.68-0.57c0.56-0.38,0.94-1.49,1.15-3.33
			c0.05-0.47,0.17-0.71,0.38-0.71c0.25,0,0.38,0.2,0.38,0.6s-0.02,1-0.07,1.78s-0.07,1.38-0.07,1.78c0,2.4,0.04,4.04,0.11,4.94
			c0.02,0.22,0.03,0.42,0.03,0.57c0,0.29-0.12,0.44-0.38,0.44c-0.16,0-0.27-0.09-0.32-0.29c-0.06-0.19-0.15-0.81-0.29-1.87
			c-0.18-1.32-0.74-2.14-1.67-2.45c-0.41-0.13-1.48-0.2-3.21-0.2h-1.54v11.26c5.03,0,7.98-0.1,8.85-0.3
			c1.51-0.33,2.37-1.75,2.57-4.25c0.04-0.55,0.19-0.83,0.45-0.83C1577.76,1614.82,1577.87,1615.05,1577.87,1615.52z"/>
		<path fill="#4D4E4E" d="M1594.65,1614.38c0,1.93-0.75,3.57-2.25,4.92c-1.5,1.36-3.3,2.03-5.4,2.03c-1.23,0-2.71-0.37-4.43-1.11
			c-0.46-0.2-0.8-0.3-1.03-0.3c-0.27,0-0.45,0.31-0.51,0.93c-0.02,0.32-0.17,0.48-0.45,0.48c-0.23,0-0.34-0.13-0.34-0.4
			c0-0.18,0.01-0.31,0.04-0.4c0.18-1.37,0.27-2.63,0.27-3.8c0-0.22-0.02-0.85-0.07-1.88c-0.02-0.13-0.03-0.31-0.03-0.54
			c0-0.34,0.14-0.5,0.41-0.5c0.23,0,0.39,0.27,0.48,0.81c0.59,4.03,2.53,6.04,5.8,6.04c1.39,0,2.48-0.39,3.24-1.16
			c0.77-0.77,1.15-1.87,1.15-3.28c0-1.25-0.37-2.32-1.12-3.21c-0.74-0.88-2.02-1.76-3.83-2.64c-2.17-1.05-3.68-2.07-4.53-3.06
			c-0.85-0.99-1.27-2.21-1.27-3.66c0-1.86,0.61-3.39,1.83-4.6c1.22-1.21,2.77-1.81,4.65-1.81c0.78,0,1.85,0.26,3.23,0.77
			c0.48,0.18,0.83,0.27,1.06,0.27c0.25,0,0.42-0.04,0.5-0.13c0.08-0.09,0.15-0.32,0.22-0.71c0.05-0.22,0.17-0.34,0.38-0.34
			c0.23,0,0.34,0.13,0.34,0.4c0,0.18-0.01,0.31-0.03,0.4c-0.07,0.54-0.1,1.19-0.1,1.95c0,1.08,0.06,1.93,0.17,2.55l0.03,0.54
			c0.02,0.25-0.08,0.37-0.31,0.37c-0.25,0-0.42-0.26-0.51-0.77c-0.25-1.32-0.85-2.42-1.78-3.31c-0.94-0.88-1.99-1.33-3.16-1.33
			c-1.14,0-2.05,0.36-2.73,1.08s-1.01,1.69-1.01,2.92c0,1.43,0.49,2.59,1.48,3.46c0.55,0.49,1.74,1.19,3.57,2.08
			c2.15,1.05,3.69,2.12,4.63,3.21C1594.18,1611.75,1594.65,1612.99,1594.65,1614.38z"/>
		<path fill="#4D4E4E" d="M1605.56,1620.65c0,0.19-0.14,0.29-0.41,0.29h-0.34c-0.14-0.07-1.7-0.1-4.68-0.1
			c-0.57,0-1.15,0.02-1.72,0.07c-0.3,0.02-0.76,0.03-1.38,0.03c-0.3,0-0.45-0.1-0.45-0.3c0-0.18,0.3-0.28,0.89-0.3
			c0.91-0.02,1.45-0.13,1.61-0.32c0.16-0.19,0.24-0.84,0.24-1.94v-17.73c0-1.1-0.06-1.72-0.17-1.85c-0.14-0.22-0.78-0.36-1.91-0.4
			c-0.44-0.02-0.66-0.1-0.66-0.24c0-0.18,0.14-0.27,0.42-0.27h4.69c0.35,0,1.02,0.01,2.01,0.03l1.32-0.03
			c0.37,0,0.56,0.09,0.56,0.29c0,0.17-0.52,0.28-1.55,0.32c-0.59,0.02-0.94,0.12-1.07,0.3c-0.13,0.18-0.19,0.65-0.19,1.41v17.94
			c0,1.28,0.06,1.97,0.17,2.08c0.25,0.25,1.01,0.39,2.26,0.44C1605.43,1620.36,1605.56,1620.46,1605.56,1620.65z"/>
		<path fill="#4D4E4E" d="M1629.98,1613.89c0,0.17-0.27,0.25-0.82,0.25c-1.24,0-1.92,0.18-2.06,0.54c-0.09,0.25-0.14,1.21-0.14,2.91
			v1.07c-1.19,0.98-2.32,1.67-3.4,2.07c-1.08,0.4-2.37,0.6-3.88,0.6c-3.61,0-6.48-1.06-8.61-3.18c-2.13-2.12-3.19-4.99-3.19-8.62
			c0-3.67,1.04-6.64,3.12-8.9c2.08-2.26,4.83-3.39,8.23-3.39c1.49,0,3.11,0.4,4.87,1.21c0.53,0.25,0.96,0.37,1.3,0.37
			c0.43,0,0.72-0.27,0.86-0.81c0.11-0.31,0.25-0.47,0.41-0.47c0.18,0,0.27,0.1,0.27,0.3c0,0.02-0.02,0.24-0.06,0.64
			c-0.14,1.32-0.2,2.3-0.18,2.92v1.81c0.02,0.92,0.01,1.49-0.04,1.71s-0.17,0.34-0.38,0.34s-0.32-0.16-0.34-0.47
			c-0.12-2.16-0.75-3.86-1.92-5.11c-1.17-1.25-2.7-1.87-4.6-1.87c-2.38,0-4.26,1.04-5.64,3.12c-1.38,2.08-2.08,4.91-2.08,8.51
			c0,3.48,0.7,6.24,2.11,8.27c1.41,2.03,3.31,3.05,5.71,3.05c1.83,0,3.09-0.52,3.77-1.55c0.34-0.52,0.51-1.45,0.51-2.8
			c0-1.13-0.11-1.79-0.33-1.99c-0.22-0.2-0.97-0.29-2.25-0.27c-0.32,0-0.53-0.01-0.62-0.04c-0.09-0.03-0.14-0.1-0.14-0.2
			c0-0.22,0.25-0.33,0.75-0.33h0.62c0.5,0.02,1.76,0.02,3.77,0h2.75c0.16,0,0.33,0,0.51,0c0.18,0,0.31,0,0.38,0
			C1629.75,1613.57,1629.98,1613.68,1629.98,1613.89z"/>
		<path fill="#4D4E4E" d="M1651.29,1597.92c0,0.22-0.29,0.32-0.86,0.3h-0.75h-0.62c-0.37,0-0.58,0.06-0.65,0.19
			c-0.07,0.12-0.1,0.5-0.1,1.12v19.33c0,1.18-0.01,1.88-0.03,2.08c-0.02,0.2-0.09,0.3-0.21,0.3c-0.14,0-0.3-0.12-0.48-0.37
			l-4.38-6.29c-2.54-3.65-5.63-8.21-9.27-13.68v18.76c0.02,0.29,0.2,0.48,0.52,0.55c0.32,0.08,1.1,0.13,2.32,0.15
			c0.3,0,0.45,0.09,0.45,0.27c0,0.22-0.3,0.34-0.89,0.34c-0.21,0-0.86-0.03-1.96-0.1c-0.37-0.02-0.72-0.03-1.06-0.03
			c0.02,0-0.18,0.02-0.6,0.07c-0.42,0.04-1.07,0.07-1.94,0.07h-0.34c-0.53,0-0.79-0.1-0.79-0.3c0-0.2,0.23-0.3,0.69-0.3
			c1.35-0.02,2.13-0.11,2.35-0.25c0.22-0.15,0.33-0.62,0.33-1.43v-16.59c0-1.86-0.39-3.03-1.17-3.5c-0.37-0.22-1.02-0.34-1.96-0.34
			c-0.59,0-0.89-0.12-0.89-0.35c0-0.21,0.17-0.32,0.51-0.32c0.46,0,1.04,0.02,1.75,0.07c0.71,0.05,1.09,0.07,1.13,0.07
			c0.07,0,0.39-0.01,0.96-0.03c0.75,0,1.49-0.03,2.2-0.1l11.84,17.3v-14.95c0-0.69-0.01-1.11-0.03-1.26s-0.11-0.26-0.27-0.34
			s-0.71-0.12-1.65-0.12c-0.82,0-1.24-0.1-1.24-0.3c0-0.22,0.27-0.34,0.82-0.34h1.2c0.3,0,0.62,0,0.96,0c0.37,0,0.58,0,0.65,0
			c0.02,0,0.23,0,0.62,0c0.37,0,0.71,0,1.03,0h1.06C1651.04,1597.58,1651.29,1597.69,1651.29,1597.92z"/>
		<path fill="#4D4E4E" d="M1676.94,1614.38c0,1.93-0.75,3.57-2.25,4.92c-1.5,1.36-3.3,2.03-5.4,2.03c-1.23,0-2.71-0.37-4.43-1.11
			c-0.46-0.2-0.8-0.3-1.03-0.3c-0.27,0-0.45,0.31-0.51,0.93c-0.02,0.32-0.17,0.48-0.45,0.48c-0.23,0-0.34-0.13-0.34-0.4
			c0-0.18,0.01-0.31,0.04-0.4c0.18-1.37,0.27-2.63,0.27-3.8c0-0.22-0.02-0.85-0.07-1.88c-0.02-0.13-0.03-0.31-0.03-0.54
			c0-0.34,0.14-0.5,0.41-0.5c0.23,0,0.39,0.27,0.48,0.81c0.59,4.03,2.53,6.04,5.8,6.04c1.39,0,2.48-0.39,3.24-1.16
			c0.77-0.77,1.15-1.87,1.15-3.28c0-1.25-0.37-2.32-1.12-3.21c-0.74-0.88-2.02-1.76-3.83-2.64c-2.17-1.05-3.68-2.07-4.53-3.06
			c-0.85-0.99-1.27-2.21-1.27-3.66c0-1.86,0.61-3.39,1.83-4.6c1.22-1.21,2.77-1.81,4.65-1.81c0.78,0,1.85,0.26,3.23,0.77
			c0.48,0.18,0.83,0.27,1.06,0.27c0.25,0,0.42-0.04,0.5-0.13c0.08-0.09,0.15-0.32,0.22-0.71c0.05-0.22,0.17-0.34,0.38-0.34
			c0.23,0,0.34,0.13,0.34,0.4c0,0.18-0.01,0.31-0.03,0.4c-0.07,0.54-0.1,1.19-0.1,1.95c0,1.08,0.06,1.93,0.17,2.55l0.03,0.54
			c0.02,0.25-0.08,0.37-0.31,0.37c-0.25,0-0.42-0.26-0.51-0.77c-0.25-1.32-0.85-2.42-1.78-3.31c-0.94-0.88-1.99-1.33-3.16-1.33
			c-1.14,0-2.05,0.36-2.73,1.08s-1.01,1.69-1.01,2.92c0,1.43,0.49,2.59,1.48,3.46c0.55,0.49,1.74,1.19,3.57,2.08
			c2.15,1.05,3.69,2.12,4.63,3.21C1676.47,1611.75,1676.94,1612.99,1676.94,1614.38z"/>
		<path fill="#4D4E4E" d="M1697.52,1603.59c0,0.29-0.14,0.44-0.41,0.44s-0.47-0.29-0.58-0.87c-0.05-0.4-0.09-0.81-0.14-1.21
			c-0.16-0.81-0.42-1.49-0.79-2.05c-0.48-0.74-1.27-1.21-2.37-1.41c-0.71-0.13-1.28-0.19-1.71-0.17c-1.08,0.03-1.73,0.05-1.96,0.07
			v20.29c0,0.81,0.22,1.31,0.65,1.51c0.23,0.11,0.87,0.18,1.92,0.2c0.27,0.02,0.41,0.12,0.41,0.29c0,0.19-0.18,0.29-0.55,0.29
			c-0.18,0-0.34-0.01-0.48-0.03c-1.37-0.04-2.34-0.07-2.92-0.07c-0.75,0-1.46,0.02-2.13,0.05c-0.66,0.03-1.51,0.05-2.54,0.05
			c-0.53,0-0.79-0.09-0.79-0.27c0-0.2,0.49-0.31,1.48-0.34c0.71,0,1.17-0.15,1.37-0.44c0.11-0.18,0.17-0.64,0.17-1.38v-20.16
			c-2.26,0.02-3.67,0.13-4.22,0.34c-1.44,0.52-2.29,1.89-2.54,4.13c-0.07,0.67-0.23,1.01-0.48,1.01c-0.27,0-0.41-0.24-0.41-0.71
			c0-0.25,0.01-0.49,0.03-0.74l0.07-0.77c0.07-1.03,0.17-2.39,0.31-4.07h1.54l7,0.1c0.82,0.02,2.1,0.02,3.84,0l5.7-0.1
			c0.04,1.25,0.19,3.11,0.45,5.58c0,0.07,0.01,0.15,0.03,0.25C1697.51,1603.51,1697.52,1603.57,1697.52,1603.59z"/>
		<path fill="#4D4E4E" d="M1720.58,1597.91c0,0.18-0.21,0.27-0.62,0.27c-0.07,0-0.3,0-0.69,0c-0.11,0-0.27,0-0.48,0
			c-0.57,0-0.92,0.15-1.03,0.44c-0.05,0.16-0.07,0.41-0.07,0.77v12.58c0,3.27-0.62,5.64-1.87,7.13c-1.25,1.49-3.25,2.23-6.02,2.23
			c-3.32,0-5.65-0.92-7-2.75c-0.89-1.23-1.34-3.26-1.34-6.08v-13.47c-0.07-0.4-0.35-0.65-0.83-0.74c-0.14-0.02-0.57-0.03-1.29-0.03
			c-0.39-0.04-0.59-0.16-0.59-0.34c0-0.2,0.16-0.3,0.48-0.3h0.62c0.11,0,0.38,0,0.79,0c0.37,0,0.7,0,1,0h4.91c0.11,0,0.25,0,0.41,0
			c0.39,0,0.58,0.12,0.58,0.37c0,0.16-0.07,0.25-0.21,0.27c-0.14,0.02-0.6,0.04-1.37,0.07c-0.32,0-0.54,0.02-0.65,0.07
			c-0.23,0.09-0.36,0.25-0.38,0.47c-0.02,0.09-0.03,0.73-0.03,1.91v11.99c0,2.95,0.48,4.96,1.44,6.03c0.96,1.07,2.39,1.61,4.29,1.61
			c3.48,0,5.44-1.93,5.9-5.79c0.07-0.58,0.1-3.03,0.1-7.36v-1.91v-2.68v-2.31c0-0.22,0-0.47,0-0.74c0-0.29,0-0.41,0-0.37
			c0-0.49-0.24-0.79-0.72-0.9c-0.16-0.04-0.63-0.07-1.41-0.07c-0.46,0-0.69-0.12-0.69-0.37c0-0.2,0.16-0.3,0.48-0.3
			c0.18,0,0.33,0,0.45,0c0.28,0,1.28,0,3,0c0.25,0,0.54,0,0.86,0c0.3,0,0.52,0,0.66,0h0.52
			C1720.31,1597.61,1720.58,1597.71,1720.58,1597.91z"/>
		<path fill="#4D4E4E" d="M1744.04,1609.27c0,3.95-1.41,7.03-4.22,9.23c-2.06,1.62-4.81,2.43-8.27,2.43c-0.09,0-0.5,0-1.22,0
			c-0.72,0-1.77,0-3.14,0h-1.71h-2.71c-0.16,0-0.33,0-0.51,0c-0.43,0-0.65-0.11-0.65-0.34c0-0.2,0.37-0.3,1.1-0.3
			c0.94,0,1.52-0.17,1.75-0.5c0.09-0.16,0.14-0.58,0.14-1.28v-18.11c0-1.1-0.09-1.74-0.26-1.92c-0.17-0.18-0.76-0.27-1.77-0.27
			c-0.53,0-0.79-0.12-0.79-0.37c0-0.18,0.19-0.27,0.58-0.27c-0.02,0,0.23,0,0.75,0c0.53,0,1.04,0,1.54,0h3.67
			c4.12,0,7.03,0.28,8.75,0.84c2.08,0.67,3.76,2,5.04,3.99C1743.4,1604.4,1744.04,1606.69,1744.04,1609.27z M1740.2,1609.14
			c0-3.73-0.74-6.46-2.23-8.21c-1.49-1.74-3.81-2.61-6.96-2.61c-1.53,0-2.46,0.16-2.78,0.47c-0.14,0.16-0.21,0.7-0.21,1.62v17.93
			c0,0.63,0.02,1.01,0.05,1.15c0.03,0.14,0.13,0.25,0.29,0.34c0.55,0.27,1.7,0.4,3.46,0.4c2.47,0,4.46-0.85,5.97-2.56
			C1739.4,1615.87,1740.2,1613.02,1740.2,1609.14z"/>
		<path fill="#4D4E4E" d="M1764.73,1615.52c0,0.09-0.02,0.64-0.07,1.65c-0.05,1.01-0.07,1.97-0.07,2.89v1.11
			c-2.24-0.13-6.68-0.2-13.31-0.2c-0.8,0-1.59,0-2.37,0s-1.3,0-1.58,0h-0.34c-0.43,0-0.65-0.09-0.65-0.27
			c0-0.12,0.07-0.19,0.21-0.21c0.07,0,0.5-0.03,1.3-0.09c0.59-0.04,0.96-0.17,1.08-0.37c0.12-0.2,0.19-0.73,0.19-1.58v-18.94
			c0-0.65-0.1-1.04-0.29-1.16c-0.19-0.12-0.82-0.19-1.87-0.19c-0.37,0-0.55-0.09-0.55-0.29s0.25-0.29,0.75-0.29h5.87
			c0.21,0,1.5,0,3.88,0c2.38,0,3.98,0,4.8,0c0.69,0,1.32-0.04,1.89-0.13c0.05,0.96,0.15,2.3,0.31,4l0.14,1.45
			c0.02,0.11,0.03,0.26,0.03,0.44c0,0.22-0.1,0.34-0.31,0.34c-0.25,0-0.43-0.28-0.55-0.84c-0.43-2.03-1.14-3.31-2.13-3.86
			c-0.73-0.41-2.65-0.61-5.76-0.61h-2.81v9.88h0.82c2.56,0,4.12-0.19,4.68-0.57c0.56-0.38,0.94-1.49,1.15-3.33
			c0.05-0.47,0.17-0.71,0.38-0.71c0.25,0,0.38,0.2,0.38,0.6s-0.02,1-0.07,1.78s-0.07,1.38-0.07,1.78c0,2.4,0.04,4.04,0.11,4.94
			c0.02,0.22,0.03,0.42,0.03,0.57c0,0.29-0.12,0.44-0.38,0.44c-0.16,0-0.27-0.09-0.32-0.29c-0.06-0.19-0.15-0.81-0.29-1.87
			c-0.18-1.32-0.74-2.14-1.67-2.45c-0.41-0.13-1.48-0.2-3.21-0.2h-1.54v11.26c5.03,0,7.98-0.1,8.85-0.3
			c1.51-0.33,2.37-1.75,2.57-4.25c0.04-0.55,0.19-0.83,0.45-0.83C1764.62,1614.82,1764.73,1615.05,1764.73,1615.52z"/>
		<path fill="#4D4E4E" d="M1787.48,1597.92c0,0.22-0.29,0.32-0.86,0.3h-0.75h-0.62c-0.37,0-0.58,0.06-0.65,0.19
			c-0.07,0.12-0.1,0.5-0.1,1.12v19.33c0,1.18-0.01,1.88-0.03,2.08c-0.02,0.2-0.09,0.3-0.21,0.3c-0.14,0-0.3-0.12-0.48-0.37
			l-4.38-6.29c-2.54-3.65-5.63-8.21-9.27-13.68v18.76c0.02,0.29,0.2,0.48,0.52,0.55c0.32,0.08,1.1,0.13,2.32,0.15
			c0.3,0,0.45,0.09,0.45,0.27c0,0.22-0.3,0.34-0.89,0.34c-0.21,0-0.86-0.03-1.96-0.1c-0.37-0.02-0.72-0.03-1.06-0.03
			c0.02,0-0.18,0.02-0.6,0.07c-0.42,0.04-1.07,0.07-1.94,0.07h-0.34c-0.53,0-0.79-0.1-0.79-0.3c0-0.2,0.23-0.3,0.69-0.3
			c1.35-0.02,2.13-0.11,2.35-0.25c0.22-0.15,0.33-0.62,0.33-1.43v-16.59c0-1.86-0.39-3.03-1.17-3.5c-0.37-0.22-1.02-0.34-1.96-0.34
			c-0.59,0-0.89-0.12-0.89-0.35c0-0.21,0.17-0.32,0.51-0.32c0.46,0,1.04,0.02,1.75,0.07c0.71,0.05,1.09,0.07,1.13,0.07
			c0.07,0,0.39-0.01,0.96-0.03c0.75,0,1.49-0.03,2.2-0.1l11.84,17.3v-14.95c0-0.69-0.01-1.11-0.03-1.26s-0.11-0.26-0.27-0.34
			s-0.71-0.12-1.65-0.12c-0.82,0-1.24-0.1-1.24-0.3c0-0.22,0.27-0.34,0.82-0.34h1.2c0.3,0,0.62,0,0.96,0c0.37,0,0.58,0,0.65,0
			c0.02,0,0.23,0,0.62,0c0.37,0,0.71,0,1.03,0h1.06C1787.22,1597.58,1787.48,1597.69,1787.48,1597.92z"/>
		<path fill="#4D4E4E" d="M1807.51,1603.59c0,0.29-0.14,0.44-0.41,0.44s-0.47-0.29-0.58-0.87c-0.05-0.4-0.09-0.81-0.14-1.21
			c-0.16-0.81-0.42-1.49-0.79-2.05c-0.48-0.74-1.27-1.21-2.37-1.41c-0.71-0.13-1.28-0.19-1.71-0.17c-1.08,0.03-1.73,0.05-1.96,0.07
			v20.29c0,0.81,0.22,1.31,0.65,1.51c0.23,0.11,0.87,0.18,1.92,0.2c0.27,0.02,0.41,0.12,0.41,0.29c0,0.19-0.18,0.29-0.55,0.29
			c-0.18,0-0.34-0.01-0.48-0.03c-1.37-0.04-2.34-0.07-2.92-0.07c-0.75,0-1.46,0.02-2.13,0.05c-0.66,0.03-1.51,0.05-2.54,0.05
			c-0.53,0-0.79-0.09-0.79-0.27c0-0.2,0.49-0.31,1.48-0.34c0.71,0,1.17-0.15,1.37-0.44c0.11-0.18,0.17-0.64,0.17-1.38v-20.16
			c-2.26,0.02-3.67,0.13-4.22,0.34c-1.44,0.52-2.29,1.89-2.54,4.13c-0.07,0.67-0.23,1.01-0.48,1.01c-0.27,0-0.41-0.24-0.41-0.71
			c0-0.25,0.01-0.49,0.03-0.74l0.07-0.77c0.07-1.03,0.17-2.39,0.31-4.07h1.54l7,0.1c0.82,0.02,2.1,0.02,3.84,0l5.7-0.1
			c0.04,1.25,0.19,3.11,0.45,5.58c0,0.07,0.01,0.15,0.03,0.25C1807.5,1603.51,1807.51,1603.57,1807.51,1603.59z"/>
		<path fill="#4D4E4E" d="M1339.02,1710.62c0,0.27-0.25,0.41-0.74,0.41c-0.33,0-0.62-0.02-0.88-0.05l-6.22-0.19l-6.22,0.19
			c-0.23,0.03-0.47,0.05-0.73,0.05c-0.65,0-0.98-0.17-0.98-0.5c0-0.37,0.44-0.55,1.32-0.55c2.88-0.03,4.31-0.31,4.31-0.85
			c0-0.03-0.03-0.16-0.1-0.38l-0.4-1.27l-0.25-0.67c-0.29-0.99-1.01-3.19-2.15-6.58h-10.48c-1.96,5.12-2.94,8.06-2.94,8.83
			c0,0.45,0.2,0.72,0.59,0.82c0.1,0.03,0.92,0.1,2.45,0.19c0.95,0.03,1.42,0.19,1.42,0.48c0,0.32-0.42,0.48-1.27,0.48
			c-1.5,0-3.25-0.06-5.24-0.19c-0.49-0.03-1-0.05-1.52-0.05s-1.03,0.05-1.52,0.16c-0.26,0.05-0.47,0.08-0.64,0.08
			c-0.46,0-0.69-0.14-0.69-0.43c0-0.29,0.51-0.45,1.54-0.48c1.03-0.03,1.77-0.18,2.23-0.46c0.46-0.27,0.82-0.79,1.08-1.57
			c4.2-11.82,7.62-21.3,10.26-28.46c0.08-0.38,0.23-0.8,0.46-1.27l0.21-0.88c0.1-0.35,0.23-0.53,0.39-0.53c0.1,0,0.18,0.1,0.25,0.29
			c0.42,1.25,1.39,3.86,2.89,7.82c1.18,3.1,4.1,10.9,8.77,23.38c0.26,0.72,0.6,1.19,1,1.38c0.41,0.2,1.25,0.31,2.52,0.35
			C1338.6,1710.19,1339.02,1710.34,1339.02,1710.62z M1325.69,1699.12c-0.53-1.44-1.41-3.82-2.64-7.14l-2.35-6.65
			c-1.36,3.54-3.01,8.13-4.92,13.79H1325.69z"/>
		<path fill="#4D4E4E" d="M1357.19,1709.92c0,0.94-0.8,1.41-2.4,1.41c-1.78,0-3.18-0.73-4.19-2.18c-0.44-0.63-0.72-1.23-0.84-1.81
			c-0.13-0.58-0.31-2.06-0.57-4.44c-0.14-1.43-0.61-2.45-1.41-3.04c-0.8-0.59-2.1-0.91-3.91-0.96v10.58c0,0.45,0.37,0.73,1.1,0.84
			c0.21,0.02,0.73,0.04,1.58,0.07c0.3,0,0.45,0.09,0.45,0.27c0,0.2-0.19,0.3-0.58,0.3h-0.41c-0.21,0-1.2,0-2.98,0
			c-0.34,0-0.93,0-1.75,0c-0.8,0-1.33,0-1.58,0h-1.34c-0.5,0-0.75-0.1-0.75-0.3c0-0.16,0.33-0.25,1-0.27
			c1.07-0.02,1.66-0.16,1.75-0.4c0.09-0.11,0.14-0.55,0.14-1.31v-18.55c0-0.9-0.1-1.43-0.29-1.61c-0.19-0.18-0.78-0.28-1.77-0.3
			c-0.57,0-0.86-0.1-0.86-0.3c0-0.22,0.18-0.34,0.55-0.34c0.07,0,0.17,0.01,0.31,0.03l4.56,0.1c0.46,0,1.1-0.01,1.92-0.04
			c0.91-0.06,1.55-0.09,1.92-0.09c2.13,0,3.81,0.46,5.06,1.39c1.25,0.93,1.87,2.19,1.87,3.78c0,1.57-0.64,2.86-1.92,3.88
			c-1.28,1.02-3.02,1.62-5.21,1.8c-0.21,0.02-0.32,0.06-0.34,0.1c0,0.09,0.11,0.13,0.34,0.13c2.4,0.4,4.05,1.23,4.96,2.48
			c0.9,1.25,1.5,3.5,1.8,6.76c0.18,1.84,0.82,2.76,1.92,2.76c0.34,0,0.51-0.07,0.51-0.2c0-0.02-0.01-0.04-0.04-0.07
			c-0.11-0.25-0.17-0.45-0.17-0.6c0-0.47,0.25-0.71,0.75-0.71C1356.92,1709.08,1357.19,1709.36,1357.19,1709.92z M1350.09,1693.09
			c0-3.2-1.42-4.8-4.25-4.8c-0.75,0-1.27,0.1-1.54,0.3c-0.27,0.2-0.41,0.56-0.41,1.08v8.53c2.2,0.02,3.78-0.37,4.75-1.18
			C1349.61,1696.21,1350.09,1694.9,1350.09,1693.09z"/>
		<path fill="#4D4E4E" d="M1376.58,1693.59c0,0.29-0.14,0.44-0.41,0.44s-0.47-0.29-0.58-0.87c-0.05-0.4-0.09-0.81-0.14-1.21
			c-0.16-0.81-0.42-1.49-0.79-2.05c-0.48-0.74-1.27-1.21-2.37-1.41c-0.71-0.13-1.28-0.19-1.71-0.17c-1.08,0.03-1.73,0.05-1.96,0.07
			v20.29c0,0.81,0.22,1.31,0.65,1.51c0.23,0.11,0.87,0.18,1.92,0.2c0.27,0.02,0.41,0.12,0.41,0.29c0,0.19-0.18,0.29-0.55,0.29
			c-0.18,0-0.34-0.01-0.48-0.03c-1.37-0.04-2.34-0.07-2.92-0.07c-0.75,0-1.46,0.02-2.13,0.05c-0.66,0.03-1.51,0.05-2.54,0.05
			c-0.53,0-0.79-0.09-0.79-0.27c0-0.2,0.49-0.31,1.48-0.34c0.71,0,1.17-0.15,1.37-0.44c0.11-0.18,0.17-0.64,0.17-1.38v-20.16
			c-2.26,0.02-3.67,0.13-4.22,0.34c-1.44,0.52-2.29,1.89-2.54,4.13c-0.07,0.67-0.23,1.01-0.48,1.01c-0.27,0-0.41-0.24-0.41-0.71
			c0-0.25,0.01-0.49,0.03-0.74l0.07-0.77c0.07-1.03,0.17-2.39,0.31-4.07h1.54l7,0.1c0.82,0.02,2.1,0.02,3.84,0l5.7-0.1
			c0.04,1.25,0.19,3.11,0.45,5.58c0,0.07,0.01,0.15,0.03,0.25C1376.57,1693.51,1376.58,1693.57,1376.58,1693.59z"/>
		<path fill="#4D4E4E" d="M1387.01,1710.65c0,0.19-0.14,0.29-0.41,0.29h-0.34c-0.14-0.07-1.7-0.1-4.68-0.1
			c-0.57,0-1.15,0.02-1.72,0.07c-0.3,0.02-0.76,0.03-1.38,0.03c-0.3,0-0.45-0.1-0.45-0.3c0-0.18,0.3-0.28,0.89-0.3
			c0.91-0.02,1.45-0.13,1.61-0.32c0.16-0.19,0.24-0.84,0.24-1.94v-17.73c0-1.1-0.06-1.72-0.17-1.85c-0.14-0.22-0.78-0.36-1.91-0.4
			c-0.44-0.02-0.66-0.1-0.66-0.24c0-0.18,0.14-0.27,0.42-0.27h4.69c0.35,0,1.02,0.01,2.01,0.03l1.32-0.03
			c0.37,0,0.56,0.09,0.56,0.29c0,0.17-0.52,0.28-1.55,0.32c-0.59,0.02-0.94,0.12-1.07,0.3c-0.13,0.18-0.19,0.65-0.19,1.41v17.94
			c0,1.28,0.06,1.97,0.17,2.08c0.25,0.25,1.01,0.39,2.26,0.44C1386.88,1710.36,1387.01,1710.46,1387.01,1710.65z"/>
		<path fill="#4D4E4E" d="M1403.95,1704.38c0,1.93-0.75,3.57-2.25,4.92c-1.5,1.36-3.3,2.03-5.4,2.03c-1.23,0-2.71-0.37-4.43-1.11
			c-0.46-0.2-0.8-0.3-1.03-0.3c-0.27,0-0.45,0.31-0.51,0.93c-0.02,0.32-0.17,0.48-0.45,0.48c-0.23,0-0.34-0.13-0.34-0.4
			c0-0.18,0.01-0.31,0.04-0.4c0.18-1.37,0.27-2.63,0.27-3.8c0-0.22-0.02-0.85-0.07-1.88c-0.02-0.13-0.03-0.31-0.03-0.54
			c0-0.34,0.14-0.5,0.41-0.5c0.23,0,0.39,0.27,0.48,0.81c0.59,4.03,2.53,6.04,5.8,6.04c1.39,0,2.48-0.39,3.24-1.16
			c0.77-0.77,1.15-1.87,1.15-3.28c0-1.25-0.37-2.32-1.12-3.21c-0.74-0.88-2.02-1.76-3.83-2.64c-2.17-1.05-3.68-2.07-4.53-3.06
			c-0.85-0.99-1.27-2.21-1.27-3.66c0-1.86,0.61-3.39,1.83-4.6c1.22-1.21,2.77-1.81,4.65-1.81c0.78,0,1.85,0.26,3.23,0.77
			c0.48,0.18,0.83,0.27,1.06,0.27c0.25,0,0.42-0.04,0.5-0.13c0.08-0.09,0.15-0.32,0.22-0.71c0.05-0.22,0.17-0.34,0.38-0.34
			c0.23,0,0.34,0.13,0.34,0.4c0,0.18-0.01,0.31-0.03,0.4c-0.07,0.54-0.1,1.19-0.1,1.95c0,1.08,0.06,1.93,0.17,2.55l0.03,0.54
			c0.02,0.25-0.08,0.37-0.31,0.37c-0.25,0-0.42-0.26-0.51-0.77c-0.25-1.32-0.85-2.42-1.78-3.31c-0.94-0.88-1.99-1.33-3.16-1.33
			c-1.14,0-2.05,0.36-2.73,1.08s-1.01,1.69-1.01,2.92c0,1.43,0.49,2.59,1.48,3.46c0.55,0.49,1.74,1.19,3.57,2.08
			c2.15,1.05,3.69,2.12,4.63,3.21C1403.49,1701.75,1403.95,1702.99,1403.95,1704.38z"/>
		<path fill="#4D4E4E" d="M1424.54,1693.59c0,0.29-0.14,0.44-0.41,0.44s-0.47-0.29-0.58-0.87c-0.05-0.4-0.09-0.81-0.14-1.21
			c-0.16-0.81-0.42-1.49-0.79-2.05c-0.48-0.74-1.27-1.21-2.37-1.41c-0.71-0.13-1.28-0.19-1.71-0.17c-1.08,0.03-1.73,0.05-1.96,0.07
			v20.29c0,0.81,0.22,1.31,0.65,1.51c0.23,0.11,0.87,0.18,1.92,0.2c0.27,0.02,0.41,0.12,0.41,0.29c0,0.19-0.18,0.29-0.55,0.29
			c-0.18,0-0.34-0.01-0.48-0.03c-1.37-0.04-2.34-0.07-2.92-0.07c-0.75,0-1.46,0.02-2.13,0.05c-0.66,0.03-1.51,0.05-2.54,0.05
			c-0.53,0-0.79-0.09-0.79-0.27c0-0.2,0.49-0.31,1.48-0.34c0.71,0,1.17-0.15,1.37-0.44c0.11-0.18,0.17-0.64,0.17-1.38v-20.16
			c-2.26,0.02-3.67,0.13-4.22,0.34c-1.44,0.52-2.29,1.89-2.54,4.13c-0.07,0.67-0.23,1.01-0.48,1.01c-0.27,0-0.41-0.24-0.41-0.71
			c0-0.25,0.01-0.49,0.03-0.74l0.07-0.77c0.07-1.03,0.17-2.39,0.31-4.07h1.54l7,0.1c0.82,0.02,2.1,0.02,3.84,0l5.7-0.1
			c0.04,1.25,0.19,3.11,0.45,5.58c0,0.07,0.01,0.15,0.03,0.25C1424.53,1693.51,1424.54,1693.57,1424.54,1693.59z"/>
		<path fill="#4D4E4E" d="M1444.08,1710.65c0,0.19-0.14,0.29-0.41,0.29h-0.34c-0.14-0.07-1.7-0.1-4.68-0.1
			c-0.57,0-1.15,0.02-1.72,0.07c-0.3,0.02-0.76,0.03-1.38,0.03c-0.3,0-0.45-0.1-0.45-0.3c0-0.18,0.3-0.28,0.89-0.3
			c0.91-0.02,1.45-0.13,1.61-0.32c0.16-0.19,0.24-0.84,0.24-1.94v-17.73c0-1.1-0.06-1.72-0.17-1.85c-0.14-0.22-0.78-0.36-1.91-0.4
			c-0.44-0.02-0.66-0.1-0.66-0.24c0-0.18,0.14-0.27,0.42-0.27h4.69c0.35,0,1.02,0.01,2.01,0.03l1.32-0.03
			c0.37,0,0.56,0.09,0.56,0.29c0,0.17-0.52,0.28-1.55,0.32c-0.59,0.02-0.94,0.12-1.07,0.3c-0.13,0.18-0.19,0.65-0.19,1.41v17.94
			c0,1.28,0.06,1.97,0.17,2.08c0.25,0.25,1.01,0.39,2.26,0.44C1443.96,1710.36,1444.08,1710.46,1444.08,1710.65z"/>
		<path fill="#4D4E4E" d="M1467,1687.92c0,0.22-0.29,0.32-0.86,0.3h-0.75h-0.62c-0.37,0-0.58,0.06-0.65,0.19
			c-0.07,0.12-0.1,0.5-0.1,1.12v19.33c0,1.18-0.01,1.88-0.03,2.08c-0.02,0.2-0.09,0.3-0.21,0.3c-0.14,0-0.3-0.12-0.48-0.37
			l-4.38-6.29c-2.54-3.65-5.63-8.21-9.27-13.68v18.76c0.02,0.29,0.2,0.48,0.52,0.55c0.32,0.08,1.1,0.13,2.32,0.15
			c0.3,0,0.45,0.09,0.45,0.27c0,0.22-0.3,0.34-0.89,0.34c-0.21,0-0.86-0.03-1.96-0.1c-0.37-0.02-0.72-0.03-1.06-0.03
			c0.02,0-0.18,0.02-0.6,0.07c-0.42,0.04-1.07,0.07-1.94,0.07h-0.34c-0.53,0-0.79-0.1-0.79-0.3c0-0.2,0.23-0.3,0.69-0.3
			c1.35-0.02,2.13-0.11,2.35-0.25c0.22-0.15,0.33-0.62,0.33-1.43v-16.59c0-1.86-0.39-3.03-1.17-3.5c-0.37-0.22-1.02-0.34-1.96-0.34
			c-0.59,0-0.89-0.12-0.89-0.35c0-0.21,0.17-0.32,0.51-0.32c0.46,0,1.04,0.02,1.75,0.07c0.71,0.05,1.09,0.07,1.13,0.07
			c0.07,0,0.39-0.01,0.96-0.03c0.75,0,1.49-0.03,2.2-0.1l11.84,17.3v-14.95c0-0.69-0.01-1.11-0.03-1.26s-0.11-0.26-0.27-0.34
			s-0.71-0.12-1.65-0.12c-0.82,0-1.24-0.1-1.24-0.3c0-0.22,0.27-0.34,0.82-0.34h1.2c0.3,0,0.62,0,0.96,0c0.37,0,0.58,0,0.65,0
			c0.02,0,0.23,0,0.62,0c0.37,0,0.71,0,1.03,0h1.06C1466.75,1687.58,1467,1687.69,1467,1687.92z"/>
		<path fill="#4D4E4E" d="M1499.72,1699.27c0,3.95-1.41,7.03-4.22,9.23c-2.06,1.62-4.81,2.43-8.27,2.43c-0.09,0-0.5,0-1.22,0
			c-0.72,0-1.77,0-3.14,0h-1.71h-2.71c-0.16,0-0.33,0-0.51,0c-0.43,0-0.65-0.11-0.65-0.34c0-0.2,0.37-0.3,1.1-0.3
			c0.94,0,1.52-0.17,1.75-0.5c0.09-0.16,0.14-0.58,0.14-1.28v-18.11c0-1.1-0.09-1.74-0.26-1.92c-0.17-0.18-0.76-0.27-1.77-0.27
			c-0.53,0-0.79-0.12-0.79-0.37c0-0.18,0.19-0.27,0.58-0.27c-0.02,0,0.23,0,0.75,0c0.53,0,1.04,0,1.54,0h3.67
			c4.12,0,7.03,0.28,8.75,0.84c2.08,0.67,3.76,2,5.04,3.99C1499.08,1694.4,1499.72,1696.69,1499.72,1699.27z M1495.88,1699.14
			c0-3.73-0.74-6.46-2.23-8.21c-1.49-1.74-3.81-2.61-6.96-2.61c-1.53,0-2.46,0.16-2.78,0.47c-0.14,0.16-0.21,0.7-0.21,1.62v17.93
			c0,0.63,0.02,1.01,0.05,1.15c0.03,0.14,0.13,0.25,0.29,0.34c0.55,0.27,1.7,0.4,3.46,0.4c2.47,0,4.46-0.85,5.97-2.56
			C1495.08,1705.87,1495.88,1703.02,1495.88,1699.14z"/>
		<path fill="#4D4E4E" d="M1511.04,1710.65c0,0.19-0.14,0.29-0.41,0.29h-0.34c-0.14-0.07-1.7-0.1-4.68-0.1
			c-0.57,0-1.15,0.02-1.72,0.07c-0.3,0.02-0.76,0.03-1.38,0.03c-0.3,0-0.45-0.1-0.45-0.3c0-0.18,0.3-0.28,0.89-0.3
			c0.91-0.02,1.45-0.13,1.61-0.32c0.16-0.19,0.24-0.84,0.24-1.94v-17.73c0-1.1-0.06-1.72-0.17-1.85c-0.14-0.22-0.78-0.36-1.91-0.4
			c-0.44-0.02-0.66-0.1-0.66-0.24c0-0.18,0.14-0.27,0.42-0.27h4.69c0.35,0,1.02,0.01,2.01,0.03l1.32-0.03
			c0.37,0,0.56,0.09,0.56,0.29c0,0.17-0.52,0.28-1.55,0.32c-0.59,0.02-0.94,0.12-1.07,0.3c-0.13,0.18-0.19,0.65-0.19,1.41v17.94
			c0,1.28,0.06,1.97,0.17,2.08c0.25,0.25,1.01,0.39,2.26,0.44C1510.91,1710.36,1511.04,1710.46,1511.04,1710.65z"/>
		<path fill="#4D4E4E" d="M1530.53,1693.19c0,0.31-0.11,0.47-0.34,0.47c-0.23,0-0.39-0.28-0.48-0.85c-0.27-1.63-0.83-2.82-1.68-3.57
			c-0.55-0.48-1.4-0.77-2.54-0.88c-0.41-0.04-1.33-0.07-2.75-0.07c-1.05,0-2.31,0.03-3.77,0.1v9.88c2.93,0.02,4.73-0.16,5.42-0.55
			c0.69-0.39,1.1-1.5,1.23-3.31c0.05-0.51,0.18-0.77,0.41-0.77s0.34,0.17,0.34,0.5c0,0.2-0.01,0.37-0.03,0.5
			c-0.07,1.55-0.1,2.98-0.1,4.3c0,1.7,0.04,3.05,0.11,4.03c0.02,0.09,0.03,0.22,0.03,0.4c0,0.27-0.11,0.4-0.34,0.4
			c-0.18,0-0.3-0.07-0.34-0.2c-0.04-0.13-0.12-0.65-0.24-1.55c-0.18-1.37-0.54-2.22-1.08-2.55c-0.53-0.34-1.6-0.5-3.19-0.5
			c-0.84,0-1.58,0.02-2.22,0.07v3.43v6.58c0,0.65,0.26,1.06,0.78,1.24c0.25,0.09,0.8,0.12,1.66,0.1c0.36,0,0.54,0.09,0.54,0.27
			c0,0.2-0.23,0.3-0.69,0.3h-0.34c-0.32,0-0.75,0-1.3,0c-0.53,0-0.88,0-1.06,0h-5.11c-0.43,0-0.65-0.09-0.65-0.27
			s0.39-0.29,1.18-0.34c0.79-0.04,1.25-0.15,1.39-0.32c0.14-0.17,0.21-0.69,0.21-1.57v-19.34c-0.02-0.4-0.15-0.66-0.37-0.76
			c-0.22-0.1-0.82-0.16-1.79-0.19c-0.37,0-0.56-0.11-0.56-0.33c0-0.2,0.21-0.3,0.62-0.3h0.55c-0.05,0,1.06,0,3.31,0s4.1,0,5.54,0
			c3.87,0,6.23-0.07,7.1-0.2c0.02,0.29,0.09,1.13,0.21,2.52c0.07,0.94,0.16,1.78,0.27,2.52
			C1530.5,1692.7,1530.53,1692.97,1530.53,1693.19z"/>
		<path fill="#4D4E4E" d="M1549.16,1693.19c0,0.31-0.11,0.47-0.34,0.47c-0.23,0-0.39-0.28-0.48-0.85c-0.27-1.63-0.83-2.82-1.68-3.57
			c-0.55-0.48-1.4-0.77-2.54-0.88c-0.41-0.04-1.33-0.07-2.75-0.07c-1.05,0-2.31,0.03-3.77,0.1v9.88c2.93,0.02,4.73-0.16,5.42-0.55
			c0.69-0.39,1.1-1.5,1.23-3.31c0.05-0.51,0.18-0.77,0.41-0.77s0.34,0.17,0.34,0.5c0,0.2-0.01,0.37-0.03,0.5
			c-0.07,1.55-0.1,2.98-0.1,4.3c0,1.7,0.04,3.05,0.11,4.03c0.02,0.09,0.03,0.22,0.03,0.4c0,0.27-0.11,0.4-0.34,0.4
			c-0.18,0-0.3-0.07-0.34-0.2c-0.04-0.13-0.12-0.65-0.24-1.55c-0.18-1.37-0.54-2.22-1.08-2.55c-0.53-0.34-1.6-0.5-3.19-0.5
			c-0.84,0-1.58,0.02-2.22,0.07v3.43v6.58c0,0.65,0.26,1.06,0.78,1.24c0.25,0.09,0.8,0.12,1.66,0.1c0.36,0,0.54,0.09,0.54,0.27
			c0,0.2-0.23,0.3-0.69,0.3h-0.34c-0.32,0-0.75,0-1.3,0c-0.53,0-0.88,0-1.06,0h-5.11c-0.43,0-0.65-0.09-0.65-0.27
			s0.39-0.29,1.18-0.34c0.79-0.04,1.25-0.15,1.39-0.32c0.14-0.17,0.21-0.69,0.21-1.57v-19.34c-0.02-0.4-0.15-0.66-0.37-0.76
			c-0.22-0.1-0.82-0.16-1.79-0.19c-0.37,0-0.56-0.11-0.56-0.33c0-0.2,0.21-0.3,0.62-0.3h0.55c-0.05,0,1.06,0,3.31,0s4.1,0,5.54,0
			c3.87,0,6.23-0.07,7.1-0.2c0.02,0.29,0.09,1.13,0.21,2.52c0.07,0.94,0.16,1.78,0.27,2.52
			C1549.13,1692.7,1549.16,1692.97,1549.16,1693.19z"/>
		<path fill="#4D4E4E" d="M1568.44,1705.52c0,0.09-0.02,0.64-0.07,1.65c-0.05,1.01-0.07,1.97-0.07,2.89v1.11
			c-2.24-0.13-6.68-0.2-13.31-0.2c-0.8,0-1.59,0-2.37,0s-1.3,0-1.58,0h-0.34c-0.43,0-0.65-0.09-0.65-0.27
			c0-0.12,0.07-0.19,0.21-0.21c0.07,0,0.5-0.03,1.3-0.09c0.59-0.04,0.96-0.17,1.08-0.37c0.12-0.2,0.19-0.73,0.19-1.58v-18.94
			c0-0.65-0.1-1.04-0.29-1.16c-0.19-0.12-0.82-0.19-1.87-0.19c-0.37,0-0.55-0.09-0.55-0.29s0.25-0.29,0.75-0.29h5.87
			c0.21,0,1.5,0,3.88,0c2.38,0,3.98,0,4.8,0c0.69,0,1.32-0.04,1.89-0.13c0.05,0.96,0.15,2.3,0.31,4l0.14,1.45
			c0.02,0.11,0.03,0.26,0.03,0.44c0,0.22-0.1,0.34-0.31,0.34c-0.25,0-0.43-0.28-0.55-0.84c-0.43-2.03-1.14-3.31-2.13-3.86
			c-0.73-0.41-2.65-0.61-5.76-0.61h-2.81v9.88h0.82c2.56,0,4.12-0.19,4.68-0.57c0.56-0.38,0.94-1.49,1.15-3.33
			c0.05-0.47,0.17-0.71,0.38-0.71c0.25,0,0.38,0.2,0.38,0.6s-0.02,1-0.07,1.78s-0.07,1.38-0.07,1.78c0,2.4,0.04,4.04,0.11,4.94
			c0.02,0.22,0.03,0.42,0.03,0.57c0,0.29-0.12,0.44-0.38,0.44c-0.16,0-0.27-0.09-0.32-0.29c-0.06-0.19-0.15-0.81-0.29-1.87
			c-0.18-1.32-0.74-2.14-1.67-2.45c-0.41-0.13-1.48-0.2-3.21-0.2h-1.54v11.26c5.03,0,7.98-0.1,8.85-0.3
			c1.51-0.33,2.37-1.75,2.57-4.25c0.04-0.55,0.19-0.83,0.45-0.83C1568.32,1704.82,1568.44,1705.05,1568.44,1705.52z"/>
		<path fill="#4D4E4E" d="M1589.5,1709.92c0,0.94-0.8,1.41-2.4,1.41c-1.78,0-3.18-0.73-4.19-2.18c-0.44-0.63-0.72-1.23-0.84-1.81
			c-0.13-0.58-0.31-2.06-0.57-4.44c-0.14-1.43-0.61-2.45-1.41-3.04c-0.8-0.59-2.1-0.91-3.91-0.96v10.58c0,0.45,0.37,0.73,1.1,0.84
			c0.21,0.02,0.73,0.04,1.58,0.07c0.3,0,0.45,0.09,0.45,0.27c0,0.2-0.19,0.3-0.58,0.3h-0.41c-0.21,0-1.2,0-2.98,0
			c-0.34,0-0.93,0-1.75,0c-0.8,0-1.33,0-1.58,0h-1.34c-0.5,0-0.75-0.1-0.75-0.3c0-0.16,0.33-0.25,1-0.27
			c1.07-0.02,1.66-0.16,1.75-0.4c0.09-0.11,0.14-0.55,0.14-1.31v-18.55c0-0.9-0.1-1.43-0.29-1.61c-0.19-0.18-0.78-0.28-1.77-0.3
			c-0.57,0-0.86-0.1-0.86-0.3c0-0.22,0.18-0.34,0.55-0.34c0.07,0,0.17,0.01,0.31,0.03l4.56,0.1c0.46,0,1.1-0.01,1.92-0.04
			c0.91-0.06,1.55-0.09,1.92-0.09c2.13,0,3.81,0.46,5.06,1.39c1.25,0.93,1.87,2.19,1.87,3.78c0,1.57-0.64,2.86-1.92,3.88
			c-1.28,1.02-3.02,1.62-5.21,1.8c-0.21,0.02-0.32,0.06-0.34,0.1c0,0.09,0.11,0.13,0.34,0.13c2.4,0.4,4.05,1.23,4.96,2.48
			c0.9,1.25,1.5,3.5,1.8,6.76c0.18,1.84,0.82,2.76,1.92,2.76c0.34,0,0.51-0.07,0.51-0.2c0-0.02-0.01-0.04-0.04-0.07
			c-0.11-0.25-0.17-0.45-0.17-0.6c0-0.47,0.25-0.71,0.75-0.71C1589.23,1709.08,1589.5,1709.36,1589.5,1709.92z M1582.4,1693.09
			c0-3.2-1.42-4.8-4.25-4.8c-0.75,0-1.27,0.1-1.54,0.3c-0.27,0.2-0.41,0.56-0.41,1.08v8.53c2.2,0.02,3.78-0.37,4.75-1.18
			C1581.91,1696.21,1582.4,1694.9,1582.4,1693.09z"/>
		<path fill="#4D4E4E" d="M1608.58,1705.52c0,0.09-0.02,0.64-0.07,1.65c-0.05,1.01-0.07,1.97-0.07,2.89v1.11
			c-2.24-0.13-6.68-0.2-13.31-0.2c-0.8,0-1.59,0-2.37,0s-1.3,0-1.58,0h-0.34c-0.43,0-0.65-0.09-0.65-0.27
			c0-0.12,0.07-0.19,0.21-0.21c0.07,0,0.5-0.03,1.3-0.09c0.59-0.04,0.96-0.17,1.08-0.37c0.12-0.2,0.19-0.73,0.19-1.58v-18.94
			c0-0.65-0.1-1.04-0.29-1.16c-0.19-0.12-0.82-0.19-1.87-0.19c-0.37,0-0.55-0.09-0.55-0.29s0.25-0.29,0.75-0.29h5.87
			c0.21,0,1.5,0,3.88,0c2.38,0,3.98,0,4.8,0c0.69,0,1.32-0.04,1.89-0.13c0.05,0.96,0.15,2.3,0.31,4l0.14,1.45
			c0.02,0.11,0.03,0.26,0.03,0.44c0,0.22-0.1,0.34-0.31,0.34c-0.25,0-0.43-0.28-0.55-0.84c-0.43-2.03-1.14-3.31-2.13-3.86
			c-0.73-0.41-2.65-0.61-5.76-0.61h-2.81v9.88h0.82c2.56,0,4.12-0.19,4.68-0.57c0.56-0.38,0.94-1.49,1.15-3.33
			c0.05-0.47,0.17-0.71,0.38-0.71c0.25,0,0.38,0.2,0.38,0.6s-0.02,1-0.07,1.78s-0.07,1.38-0.07,1.78c0,2.4,0.04,4.04,0.11,4.94
			c0.02,0.22,0.03,0.42,0.03,0.57c0,0.29-0.12,0.44-0.38,0.44c-0.16,0-0.27-0.09-0.32-0.29c-0.06-0.19-0.15-0.81-0.29-1.87
			c-0.18-1.32-0.74-2.14-1.67-2.45c-0.41-0.13-1.48-0.2-3.21-0.2h-1.54v11.26c5.03,0,7.98-0.1,8.85-0.3
			c1.51-0.33,2.37-1.75,2.57-4.25c0.04-0.55,0.19-0.83,0.45-0.83C1608.46,1704.82,1608.58,1705.05,1608.58,1705.52z"/>
		<path fill="#4D4E4E" d="M1631.32,1687.92c0,0.22-0.29,0.32-0.86,0.3h-0.75h-0.62c-0.37,0-0.58,0.06-0.65,0.19
			c-0.07,0.12-0.1,0.5-0.1,1.12v19.33c0,1.18-0.01,1.88-0.03,2.08c-0.02,0.2-0.09,0.3-0.21,0.3c-0.14,0-0.3-0.12-0.48-0.37
			l-4.38-6.29c-2.54-3.65-5.63-8.21-9.27-13.68v18.76c0.02,0.29,0.2,0.48,0.52,0.55c0.32,0.08,1.1,0.13,2.32,0.15
			c0.3,0,0.45,0.09,0.45,0.27c0,0.22-0.3,0.34-0.89,0.34c-0.21,0-0.86-0.03-1.96-0.1c-0.37-0.02-0.72-0.03-1.06-0.03
			c0.02,0-0.18,0.02-0.6,0.07c-0.42,0.04-1.07,0.07-1.94,0.07h-0.34c-0.53,0-0.79-0.1-0.79-0.3c0-0.2,0.23-0.3,0.69-0.3
			c1.35-0.02,2.13-0.11,2.35-0.25c0.22-0.15,0.33-0.62,0.33-1.43v-16.59c0-1.86-0.39-3.03-1.17-3.5c-0.37-0.22-1.02-0.34-1.96-0.34
			c-0.59,0-0.89-0.12-0.89-0.35c0-0.21,0.17-0.32,0.51-0.32c0.46,0,1.04,0.02,1.75,0.07c0.71,0.05,1.09,0.07,1.13,0.07
			c0.07,0,0.39-0.01,0.96-0.03c0.75,0,1.49-0.03,2.2-0.1l11.84,17.3v-14.95c0-0.69-0.01-1.11-0.03-1.26s-0.11-0.26-0.27-0.34
			s-0.71-0.12-1.65-0.12c-0.82,0-1.24-0.1-1.24-0.3c0-0.22,0.27-0.34,0.82-0.34h1.2c0.3,0,0.62,0,0.96,0c0.37,0,0.58,0,0.65,0
			c0.02,0,0.23,0,0.62,0c0.37,0,0.71,0,1.03,0h1.06C1631.07,1687.58,1631.32,1687.69,1631.32,1687.92z"/>
		<path fill="#4D4E4E" d="M1651.36,1693.59c0,0.29-0.14,0.44-0.41,0.44s-0.47-0.29-0.58-0.87c-0.05-0.4-0.09-0.81-0.14-1.21
			c-0.16-0.81-0.42-1.49-0.79-2.05c-0.48-0.74-1.27-1.21-2.37-1.41c-0.71-0.13-1.28-0.19-1.71-0.17c-1.08,0.03-1.73,0.05-1.96,0.07
			v20.29c0,0.81,0.22,1.31,0.65,1.51c0.23,0.11,0.87,0.18,1.92,0.2c0.27,0.02,0.41,0.12,0.41,0.29c0,0.19-0.18,0.29-0.55,0.29
			c-0.18,0-0.34-0.01-0.48-0.03c-1.37-0.04-2.34-0.07-2.92-0.07c-0.75,0-1.46,0.02-2.13,0.05c-0.66,0.03-1.51,0.05-2.54,0.05
			c-0.53,0-0.79-0.09-0.79-0.27c0-0.2,0.49-0.31,1.48-0.34c0.71,0,1.17-0.15,1.37-0.44c0.11-0.18,0.17-0.64,0.17-1.38v-20.16
			c-2.26,0.02-3.67,0.13-4.22,0.34c-1.44,0.52-2.29,1.89-2.54,4.13c-0.07,0.67-0.23,1.01-0.48,1.01c-0.27,0-0.41-0.24-0.41-0.71
			c0-0.25,0.01-0.49,0.03-0.74l0.07-0.77c0.07-1.03,0.17-2.39,0.31-4.07h1.54l7,0.1c0.82,0.02,2.1,0.02,3.84,0l5.7-0.1
			c0.04,1.25,0.19,3.11,0.45,5.58c0,0.07,0.01,0.15,0.03,0.25C1651.35,1693.51,1651.36,1693.57,1651.36,1693.59z"/>
		<path fill="#4D4E4E" d="M1686.62,1710.71c0,0.19-0.24,0.29-0.72,0.29h-0.38c-0.32,0-0.9,0-1.74,0c-0.84,0-1.49,0-1.95,0
			c-0.68,0-1.48,0-2.39,0c-0.94,0-1.55,0-1.85,0h-0.24c-0.48,0-0.72-0.1-0.72-0.3c0-0.22,0.33-0.34,1-0.34
			c1.17,0,1.88-0.12,2.13-0.37c0.11-0.11,0.17-0.86,0.17-2.25v-17.43c0,0.02-0.14,0.42-0.41,1.18c-0.92,2.71-2.25,6.78-4,12.22
			l-1.59,5.35c-0.32,1.05-0.55,1.58-0.69,1.58c-0.16,0-0.33-0.27-0.51-0.81c-0.66-2.04-2.53-7.13-5.6-15.26l-1.36-3.59
			c0,0.43,0,1.01,0,1.75v10.92c0,4.1,0.03,6.17,0.1,6.22c0.16,0.29,0.71,0.44,1.65,0.44c0.75,0,1.13,0.11,1.13,0.33
			c0,0.25-0.24,0.37-0.72,0.37c-0.3,0-0.57-0.02-0.82-0.07c-0.32-0.04-0.61-0.07-0.86-0.07l-3.95,0.13c-0.41,0-0.62-0.1-0.62-0.3
			c0-0.22,0.65-0.35,1.96-0.37c0.55,0,0.87-0.09,0.96-0.27c0.09-0.18,0.14-0.76,0.14-1.75v-16.12c0-1.86-0.02-2.87-0.07-3.03
			c-0.09-0.31-0.29-0.53-0.58-0.64c-0.3-0.11-0.94-0.2-1.92-0.27c-0.37-0.02-0.55-0.12-0.55-0.3c0-0.25,0.33-0.37,1.01-0.37
			c0.09,0,0.29,0,0.59,0h1.8c1.37,0,2.33-0.01,2.88-0.03c0.11,0.29,0.78,2.05,1.99,5.29c0.52,1.35,1.99,5.28,4.39,11.79
			c0.44-1.46,0.89-2.9,1.36-4.32l3.67-11.1c0.23-0.64,0.43-1.17,0.61-1.6l5.06-0.03c0.74,0,1.17,0.03,1.28,0.1s0.17,0.17,0.17,0.3
			c0,0.22-0.19,0.34-0.58,0.34c-0.64,0-1.08,0.02-1.3,0.07c-0.55,0.09-0.93,0.27-1.13,0.54c-0.12,0.16-0.17,1.47-0.17,3.94v15.67
			c0,0.9,0.09,1.43,0.27,1.58c0.3,0.2,1.04,0.3,2.23,0.3h0.21C1686.39,1710.43,1686.62,1710.52,1686.62,1710.71z"/>
		<path fill="#4D4E4E" d="M1706.17,1705.52c0,0.09-0.02,0.64-0.07,1.65c-0.05,1.01-0.07,1.97-0.07,2.89v1.11
			c-2.24-0.13-6.68-0.2-13.31-0.2c-0.8,0-1.59,0-2.37,0s-1.3,0-1.58,0h-0.34c-0.43,0-0.65-0.09-0.65-0.27
			c0-0.12,0.07-0.19,0.21-0.21c0.07,0,0.5-0.03,1.3-0.09c0.59-0.04,0.96-0.17,1.08-0.37c0.12-0.2,0.19-0.73,0.19-1.58v-18.94
			c0-0.65-0.1-1.04-0.29-1.16c-0.19-0.12-0.82-0.19-1.87-0.19c-0.37,0-0.55-0.09-0.55-0.29s0.25-0.29,0.75-0.29h5.87
			c0.21,0,1.5,0,3.88,0c2.38,0,3.98,0,4.8,0c0.69,0,1.32-0.04,1.89-0.13c0.05,0.96,0.15,2.3,0.31,4l0.14,1.45
			c0.02,0.11,0.03,0.26,0.03,0.44c0,0.22-0.1,0.34-0.31,0.34c-0.25,0-0.43-0.28-0.55-0.84c-0.43-2.03-1.14-3.31-2.13-3.86
			c-0.73-0.41-2.65-0.61-5.76-0.61h-2.81v9.88h0.82c2.56,0,4.12-0.19,4.68-0.57c0.56-0.38,0.94-1.49,1.15-3.33
			c0.05-0.47,0.17-0.71,0.38-0.71c0.25,0,0.38,0.2,0.38,0.6s-0.02,1-0.07,1.78s-0.07,1.38-0.07,1.78c0,2.4,0.04,4.04,0.11,4.94
			c0.02,0.22,0.03,0.42,0.03,0.57c0,0.29-0.12,0.44-0.38,0.44c-0.16,0-0.27-0.09-0.32-0.29c-0.06-0.19-0.15-0.81-0.29-1.87
			c-0.18-1.32-0.74-2.14-1.67-2.45c-0.41-0.13-1.48-0.2-3.21-0.2h-1.54v11.26c5.03,0,7.98-0.1,8.85-0.3
			c1.51-0.33,2.37-1.75,2.57-4.25c0.04-0.55,0.19-0.83,0.45-0.83C1706.05,1704.82,1706.17,1705.05,1706.17,1705.52z"/>
		<path fill="#4D4E4E" d="M1730.01,1699.27c0,3.95-1.41,7.03-4.22,9.23c-2.06,1.62-4.81,2.43-8.27,2.43c-0.09,0-0.5,0-1.22,0
			c-0.72,0-1.77,0-3.14,0h-1.71h-2.71c-0.16,0-0.33,0-0.51,0c-0.43,0-0.65-0.11-0.65-0.34c0-0.2,0.37-0.3,1.1-0.3
			c0.94,0,1.52-0.17,1.75-0.5c0.09-0.16,0.14-0.58,0.14-1.28v-18.11c0-1.1-0.09-1.74-0.26-1.92c-0.17-0.18-0.76-0.27-1.77-0.27
			c-0.53,0-0.79-0.12-0.79-0.37c0-0.18,0.19-0.27,0.58-0.27c-0.02,0,0.23,0,0.75,0c0.53,0,1.04,0,1.54,0h3.67
			c4.12,0,7.03,0.28,8.75,0.84c2.08,0.67,3.76,2,5.04,3.99C1729.37,1694.4,1730.01,1696.69,1730.01,1699.27z M1726.17,1699.14
			c0-3.73-0.74-6.46-2.23-8.21c-1.49-1.74-3.81-2.61-6.96-2.61c-1.53,0-2.46,0.16-2.78,0.47c-0.14,0.16-0.21,0.7-0.21,1.62v17.93
			c0,0.63,0.02,1.01,0.05,1.15c0.03,0.14,0.13,0.25,0.29,0.34c0.55,0.27,1.7,0.4,3.46,0.4c2.47,0,4.46-0.85,5.97-2.56
			C1725.37,1705.87,1726.17,1703.02,1726.17,1699.14z"/>
		<path fill="#4D4E4E" d="M1741.33,1710.65c0,0.19-0.14,0.29-0.41,0.29h-0.34c-0.14-0.07-1.7-0.1-4.68-0.1
			c-0.57,0-1.15,0.02-1.72,0.07c-0.3,0.02-0.76,0.03-1.38,0.03c-0.3,0-0.45-0.1-0.45-0.3c0-0.18,0.3-0.28,0.89-0.3
			c0.91-0.02,1.45-0.13,1.61-0.32c0.16-0.19,0.24-0.84,0.24-1.94v-17.73c0-1.1-0.06-1.72-0.17-1.85c-0.14-0.22-0.78-0.36-1.91-0.4
			c-0.44-0.02-0.66-0.1-0.66-0.24c0-0.18,0.14-0.27,0.42-0.27h4.69c0.35,0,1.02,0.01,2.01,0.03l1.32-0.03
			c0.37,0,0.56,0.09,0.56,0.29c0,0.17-0.52,0.28-1.55,0.32c-0.59,0.02-0.94,0.12-1.07,0.3c-0.13,0.18-0.19,0.65-0.19,1.41v17.94
			c0,1.28,0.06,1.97,0.17,2.08c0.25,0.25,1.01,0.39,2.26,0.44C1741.21,1710.36,1741.33,1710.46,1741.33,1710.65z"/>
		<path fill="#4D4E4E" d="M1764.73,1687.91c0,0.18-0.21,0.27-0.62,0.27c-0.07,0-0.3,0-0.69,0c-0.11,0-0.27,0-0.48,0
			c-0.57,0-0.92,0.15-1.03,0.44c-0.05,0.16-0.07,0.41-0.07,0.77v12.58c0,3.27-0.62,5.64-1.87,7.13c-1.25,1.49-3.25,2.23-6.02,2.23
			c-3.32,0-5.65-0.92-7-2.75c-0.89-1.23-1.34-3.26-1.34-6.08v-13.47c-0.07-0.4-0.35-0.65-0.83-0.74c-0.14-0.02-0.57-0.03-1.29-0.03
			c-0.39-0.04-0.59-0.16-0.59-0.34c0-0.2,0.16-0.3,0.48-0.3h0.62c0.11,0,0.38,0,0.79,0c0.37,0,0.7,0,1,0h4.91c0.11,0,0.25,0,0.41,0
			c0.39,0,0.58,0.12,0.58,0.37c0,0.16-0.07,0.25-0.21,0.27c-0.14,0.02-0.6,0.04-1.37,0.07c-0.32,0-0.54,0.02-0.65,0.07
			c-0.23,0.09-0.36,0.25-0.38,0.47c-0.02,0.09-0.03,0.73-0.03,1.91v11.99c0,2.95,0.48,4.96,1.44,6.03c0.96,1.07,2.39,1.61,4.29,1.61
			c3.48,0,5.44-1.93,5.9-5.79c0.07-0.58,0.1-3.03,0.1-7.36v-1.91v-2.68v-2.31c0-0.22,0-0.47,0-0.74c0-0.29,0-0.41,0-0.37
			c0-0.49-0.24-0.79-0.72-0.9c-0.16-0.04-0.63-0.07-1.41-0.07c-0.46,0-0.69-0.12-0.69-0.37c0-0.2,0.16-0.3,0.48-0.3
			c0.18,0,0.33,0,0.45,0c0.28,0,1.28,0,3,0c0.25,0,0.54,0,0.86,0c0.3,0,0.52,0,0.66,0h0.52
			C1764.47,1687.61,1764.73,1687.71,1764.73,1687.91z"/>
		<path fill="#4D4E4E" d="M1790.67,1710.71c0,0.19-0.24,0.29-0.72,0.29h-0.38c-0.32,0-0.9,0-1.74,0c-0.84,0-1.49,0-1.95,0
			c-0.68,0-1.48,0-2.39,0c-0.94,0-1.55,0-1.85,0h-0.24c-0.48,0-0.72-0.1-0.72-0.3c0-0.22,0.33-0.34,1-0.34
			c1.17,0,1.88-0.12,2.13-0.37c0.11-0.11,0.17-0.86,0.17-2.25v-17.43c0,0.02-0.14,0.42-0.41,1.18c-0.92,2.71-2.25,6.78-4,12.22
			l-1.59,5.35c-0.32,1.05-0.55,1.58-0.69,1.58c-0.16,0-0.33-0.27-0.51-0.81c-0.66-2.04-2.53-7.13-5.6-15.26l-1.36-3.59
			c0,0.43,0,1.01,0,1.75v10.92c0,4.1,0.03,6.17,0.1,6.22c0.16,0.29,0.71,0.44,1.65,0.44c0.75,0,1.13,0.11,1.13,0.33
			c0,0.25-0.24,0.37-0.72,0.37c-0.3,0-0.57-0.02-0.82-0.07c-0.32-0.04-0.61-0.07-0.86-0.07l-3.95,0.13c-0.41,0-0.62-0.1-0.62-0.3
			c0-0.22,0.65-0.35,1.96-0.37c0.55,0,0.87-0.09,0.96-0.27c0.09-0.18,0.14-0.76,0.14-1.75v-16.12c0-1.86-0.02-2.87-0.07-3.03
			c-0.09-0.31-0.29-0.53-0.58-0.64c-0.3-0.11-0.94-0.2-1.92-0.27c-0.37-0.02-0.55-0.12-0.55-0.3c0-0.25,0.33-0.37,1.01-0.37
			c0.09,0,0.29,0,0.59,0h1.8c1.37,0,2.33-0.01,2.88-0.03c0.11,0.29,0.78,2.05,1.99,5.29c0.52,1.35,1.99,5.28,4.39,11.79
			c0.44-1.46,0.89-2.9,1.36-4.32l3.67-11.1c0.23-0.64,0.43-1.17,0.61-1.6l5.06-0.03c0.74,0,1.17,0.03,1.28,0.1s0.17,0.17,0.17,0.3
			c0,0.22-0.19,0.34-0.58,0.34c-0.64,0-1.08,0.02-1.3,0.07c-0.55,0.09-0.93,0.27-1.13,0.54c-0.12,0.16-0.17,1.47-0.17,3.94v15.67
			c0,0.9,0.09,1.43,0.27,1.58c0.3,0.2,1.04,0.3,2.23,0.3h0.21C1790.44,1710.43,1790.67,1710.52,1790.67,1710.71z"/>
		<path fill="#4D4E4E" d="M1807.03,1704.38c0,1.93-0.75,3.57-2.25,4.92c-1.5,1.36-3.3,2.03-5.4,2.03c-1.23,0-2.71-0.37-4.43-1.11
			c-0.46-0.2-0.8-0.3-1.03-0.3c-0.27,0-0.45,0.31-0.51,0.93c-0.02,0.32-0.17,0.48-0.45,0.48c-0.23,0-0.34-0.13-0.34-0.4
			c0-0.18,0.01-0.31,0.04-0.4c0.18-1.37,0.27-2.63,0.27-3.8c0-0.22-0.02-0.85-0.07-1.88c-0.02-0.13-0.03-0.31-0.03-0.54
			c0-0.34,0.14-0.5,0.41-0.5c0.23,0,0.39,0.27,0.48,0.81c0.59,4.03,2.53,6.04,5.8,6.04c1.39,0,2.48-0.39,3.24-1.16
			c0.77-0.77,1.15-1.87,1.15-3.28c0-1.25-0.37-2.32-1.12-3.21c-0.74-0.88-2.02-1.76-3.83-2.64c-2.17-1.05-3.68-2.07-4.53-3.06
			c-0.85-0.99-1.27-2.21-1.27-3.66c0-1.86,0.61-3.39,1.83-4.6c1.22-1.21,2.77-1.81,4.65-1.81c0.78,0,1.85,0.26,3.23,0.77
			c0.48,0.18,0.83,0.27,1.06,0.27c0.25,0,0.42-0.04,0.5-0.13c0.08-0.09,0.15-0.32,0.22-0.71c0.05-0.22,0.17-0.34,0.38-0.34
			c0.23,0,0.34,0.13,0.34,0.4c0,0.18-0.01,0.31-0.03,0.4c-0.07,0.54-0.1,1.19-0.1,1.95c0,1.08,0.06,1.93,0.17,2.55l0.03,0.54
			c0.02,0.25-0.08,0.37-0.31,0.37c-0.25,0-0.42-0.26-0.51-0.77c-0.25-1.32-0.85-2.42-1.78-3.31c-0.94-0.88-1.99-1.33-3.16-1.33
			c-1.14,0-2.05,0.36-2.73,1.08s-1.01,1.69-1.01,2.92c0,1.43,0.49,2.59,1.48,3.46c0.55,0.49,1.74,1.19,3.57,2.08
			c2.15,1.05,3.69,2.12,4.63,3.21C1806.56,1701.75,1807.03,1702.99,1807.03,1704.38z"/>
	</g>
	<g>
	</g>
	<g>
	</g>
	<g>
	</g>
	<g>
	</g>
	<g>
	</g>
	<g>
	</g>
	<g>
	</g>
	<g>
	</g>
	<g>
	</g>
	<g>
	</g>
	<g>
	</g>
</g>
</svg>
